<svg xmlns="http://www.w3.org/2000/svg" width="1500" height="950" viewBox="0 0 1500 950"><rect width="1500" height="950" fill="white"/><polyline points="290,240 370,240 370,300 430,300" fill="none" stroke="#c81e1e" stroke-width="3.5" stroke-linejoin="round"/>
<polyline points="430,560 350,560 350,320 290,320" fill="none" stroke="#1d6fb8" stroke-width="3.5" stroke-linejoin="round"/>
<polyline points="550,340 880,340" fill="none" stroke="#c81e1e" stroke-width="3.5" stroke-linejoin="round"/>
<polyline points="880,560 550,560" fill="none" stroke="#1d6fb8" stroke-width="3.5" stroke-linejoin="round"/>
<polyline points="290,540 390,540 390,680 760,680 760,340" fill="none" stroke="#c81e1e" stroke-width="3.5" stroke-linejoin="round"/>
<polyline points="820,560 820,720 350,720 350,620 290,620" fill="none" stroke="#1d6fb8" stroke-width="3.5" stroke-linejoin="round"/>
<polyline points="950,340 1040,340" fill="none" stroke="#c81e1e" stroke-width="3.5" stroke-linejoin="round"/>
<polyline points="1040,340 1040,140 1130,140" fill="none" stroke="#c81e1e" stroke-width="3.5" stroke-linejoin="round"/>
<polyline points="1040,220 1130,220" fill="none" stroke="#c81e1e" stroke-width="3.5" stroke-linejoin="round"/>
<polyline points="1260,150 1360,150 1360,430" fill="none" stroke="#1d6fb8" stroke-width="3.5" stroke-linejoin="round"/>
<polyline points="1260,230 1320,230 1320,430" fill="none" stroke="#1d6fb8" stroke-width="3.5" stroke-linejoin="round"/>
<g transform="translate(1040,250) rotate(-90)"><polygon points="0,-6 12,0 0,6" fill="#c81e1e"/></g>
<g transform="translate(1075,140) rotate(0)"><circle r="14" fill="white" stroke="#222222" stroke-width="2"/><polygon points="-7,-8 -7,8 9,0" fill="#222222"/></g>
<text x="1075" y="120" font-size="12" text-anchor="middle" font-family="Arial, sans-serif" fill="#222222">P5</text>
<g transform="translate(1075,220) rotate(0)"><circle r="14" fill="white" stroke="#222222" stroke-width="2"/><polygon points="-7,-8 -7,8 9,0" fill="#222222"/></g>
<text x="1075" y="200" font-size="12" text-anchor="middle" font-family="Arial, sans-serif" fill="#222222">P6</text>
<circle cx="1040" cy="220" r="5" fill="#c81e1e"/>
<circle cx="1320" cy="430" r="5" fill="#1d6fb8"/>
<rect x="1130" y="112" width="130" height="56" rx="6" fill="#eef7ee" stroke="#222222" stroke-width="2"/>
<text x="1195" y="136" font-size="13" text-anchor="middle" font-family="Arial, sans-serif" fill="#222222" font-weight="bold">Heizkreis 1</text>
<text x="1195" y="156" font-size="10.5" text-anchor="middle" font-family="Arial, sans-serif" fill="#222222">(z. B. Heizkörper)</text>
<rect x="1130" y="192" width="130" height="56" rx="6" fill="#eef7ee" stroke="#222222" stroke-width="2"/>
<text x="1195" y="216" font-size="13" text-anchor="middle" font-family="Arial, sans-serif" fill="#222222" font-weight="bold">Heizkreis 2</text>
<text x="1195" y="236" font-size="10.5" text-anchor="middle" font-family="Arial, sans-serif" fill="#222222">(z. B. FBH / Lüftung)</text>
<rect x="1009.4" y="257" width="61.2" height="16" rx="4" fill="white" stroke="#c81e1e" stroke-width="1.2"/>
<text x="1040.0" y="269.5" font-size="11" text-anchor="middle" font-family="Arial, sans-serif" fill="#c81e1e">70–80 °C</text>
<rect x="1329.4" y="309" width="61.2" height="16" rx="4" fill="white" stroke="#1d6fb8" stroke-width="1.2"/>
<text x="1360.0" y="321.5" font-size="11" text-anchor="middle" font-family="Arial, sans-serif" fill="#1d6fb8">50–60 °C</text>
<polyline points="1360,430 1000,430 1000,560 950,560" fill="none" stroke="#1d6fb8" stroke-width="3.5" stroke-linejoin="round"/>
<rect x="80" y="200" width="210" height="160" rx="8" fill="#f5f1e8" stroke="#222222" stroke-width="2.5"/>
<rect x="107.3" y="244.8" width="71.4" height="57.599999999999994" fill="white" stroke="#222222" stroke-width="2"/>
<line x1="125.15" y1="249.8" x2="125.15" y2="297.4" stroke="#222222" stroke-width="1.5"/>
<line x1="143.0" y1="249.8" x2="143.0" y2="297.4" stroke="#222222" stroke-width="1.5"/>
<line x1="160.85" y1="249.8" x2="160.85" y2="297.4" stroke="#222222" stroke-width="1.5"/>
<line x1="178.7" y1="273.6" x2="211.2" y2="273.6" stroke="#222222" stroke-width="2.5"/>
<circle cx="231.2" cy="273.6" r="20" fill="white" stroke="#222222" stroke-width="2"/>
<text x="231.2" y="279.6" font-size="17" text-anchor="middle" font-family="Arial, sans-serif" fill="#222222" font-weight="bold">G</text>
<text x="185.0" y="334" font-size="15" text-anchor="middle" font-family="Arial, sans-serif" fill="#222222" font-weight="bold">BHKW</text>
<text x="185.0" y="352" font-size="11" text-anchor="middle" font-family="Arial, sans-serif" fill="#222222">(Kraft-Wärme-Kopplung)</text>
<rect x="80" y="500" width="210" height="160" rx="8" fill="#faf0ec" stroke="#222222" stroke-width="2.5"/>
<g transform="translate(185.0,564.0) scale(1.35)"><path d="M0,-20 C9,-8 14,0 9,9 C5,16 -5,16 -9,9 C-14,0 -9,-8 0,-20 Z" fill="none" stroke="#222222" stroke-width="2"/><path d="M0,-8 C4,-3 6,1 4,5 C2,8 -2,8 -4,5 C-6,1 -4,-3 0,-8 Z" fill="#222222"/></g>
<text x="185.0" y="634" font-size="15" text-anchor="middle" font-family="Arial, sans-serif" fill="#222222" font-weight="bold">Spitzenlast-</text>
<text x="185.0" y="652" font-size="15" text-anchor="middle" font-family="Arial, sans-serif" fill="#222222" font-weight="bold">kessel</text>
<rect x="430" y="260" width="120" height="340" rx="60.0" ry="34" fill="#eef3f8" stroke="#222222" stroke-width="2.5"/>
<text x="490.0" y="426.0" font-size="15" text-anchor="middle" font-family="Arial, sans-serif" fill="#222222" font-weight="bold">Puffer-</text>
<text x="490.0" y="446.0" font-size="12" text-anchor="middle" font-family="Arial, sans-serif" fill="#222222">speicher</text>
<rect x="880" y="300" width="70" height="300" rx="14" fill="#eef3f8" stroke="#222222" stroke-width="2.5"/>
<text x="915.0" y="270" font-size="12" text-anchor="middle" font-family="Arial, sans-serif" fill="#222222" font-weight="bold">Hydraulische</text>
<text x="915.0" y="286" font-size="12" text-anchor="middle" font-family="Arial, sans-serif" fill="#222222" font-weight="bold">Weiche</text>
<g transform="translate(325,240) rotate(0)"><circle r="14" fill="white" stroke="#222222" stroke-width="2"/><polygon points="-7,-8 -7,8 9,0" fill="#222222"/></g>
<text x="325" y="220" font-size="12" text-anchor="middle" font-family="Arial, sans-serif" fill="#222222">P1</text>
<g transform="translate(330,540) rotate(0)"><circle r="14" fill="white" stroke="#222222" stroke-width="2"/><polygon points="-7,-8 -7,8 9,0" fill="#222222"/></g>
<text x="330" y="520" font-size="12" text-anchor="middle" font-family="Arial, sans-serif" fill="#222222">P2</text>
<g transform="translate(640,340) rotate(0)"><circle r="14" fill="white" stroke="#222222" stroke-width="2"/><polygon points="-7,-8 -7,8 9,0" fill="#222222"/></g>
<text x="640" y="320" font-size="12" text-anchor="middle" font-family="Arial, sans-serif" fill="#222222">P3</text>
<g transform="translate(700,340) rotate(0)"><rect x="-11" y="-9" width="22" height="18" fill="white" stroke="none"/><polygon points="-9,-8 -9,8 7,0" fill="none" stroke="#222222" stroke-width="2"/><line x1="7" y1="-8" x2="7" y2="8" stroke="#222222" stroke-width="2.5"/></g>
<g transform="translate(760,480) rotate(-90)"><rect x="-11" y="-9" width="22" height="18" fill="white" stroke="none"/><polygon points="-9,-8 -9,8 7,0" fill="none" stroke="#222222" stroke-width="2"/><line x1="7" y1="-8" x2="7" y2="8" stroke="#222222" stroke-width="2.5"/></g>
<g transform="translate(140,200)"><line x1="0" y1="0" x2="0" y2="-14" stroke="#222222" stroke-width="2"/><polygon points="-7,-14 7,-14 0,-26" fill="none" stroke="#222222" stroke-width="2"/><line x1="0" y1="-26" x2="12" y2="-26" stroke="#222222" stroke-width="2"/><polyline points="12,-26 12,-20" fill="none" stroke="#222222" stroke-width="2"/></g>
<text x="160" y="174" font-size="10" text-anchor="start" font-family="Arial, sans-serif" fill="#222222">SV</text>
<g transform="translate(140,500)"><line x1="0" y1="0" x2="0" y2="-14" stroke="#222222" stroke-width="2"/><polygon points="-7,-14 7,-14 0,-26" fill="none" stroke="#222222" stroke-width="2"/><line x1="0" y1="-26" x2="12" y2="-26" stroke="#222222" stroke-width="2"/><polyline points="12,-26 12,-20" fill="none" stroke="#222222" stroke-width="2"/></g>
<text x="160" y="474" font-size="10" text-anchor="start" font-family="Arial, sans-serif" fill="#222222">SV</text>
<g transform="translate(390,560)"><line x1="0" y1="0" x2="0" y2="14" stroke="#222222" stroke-width="2"/><circle cx="0" cy="30" r="16" fill="white" stroke="#222222" stroke-width="2"/><line x1="-16" y1="30" x2="16" y2="30" stroke="#222222" stroke-width="2"/><path d="M -16 30 A 16 16 0 0 0 16 30" fill="#dddddd" stroke="none"/><circle cx="0" cy="30" r="16" fill="none" stroke="#222222" stroke-width="2"/></g>
<text x="390" y="622" font-size="11" text-anchor="middle" font-family="Arial, sans-serif" fill="#222222">MAG</text>
<circle cx="760" cy="340" r="5" fill="#c81e1e"/>
<circle cx="820" cy="560" r="5" fill="#1d6fb8"/>
<g transform="translate(410,300) rotate(0)"><polygon points="0,-6 12,0 0,6" fill="#c81e1e"/></g>
<g transform="translate(850,340) rotate(0)"><polygon points="0,-6 12,0 0,6" fill="#c81e1e"/></g>
<g transform="translate(600,560) rotate(180)"><polygon points="0,-6 12,0 0,6" fill="#1d6fb8"/></g>
<g transform="translate(560,720) rotate(180)"><polygon points="0,-6 12,0 0,6" fill="#1d6fb8"/></g>
<g transform="translate(560,680) rotate(0)"><polygon points="0,-6 12,0 0,6" fill="#c81e1e"/></g>
<g transform="translate(998,340) rotate(0)"><polygon points="0,-6 12,0 0,6" fill="#c81e1e"/></g>
<rect x="339.4" y="264" width="61.2" height="16" rx="4" fill="white" stroke="#c81e1e" stroke-width="1.2"/>
<text x="370.0" y="276.5" font-size="11" text-anchor="middle" font-family="Arial, sans-serif" fill="#c81e1e">80–90 °C</text>
<rect x="319.4" y="439" width="61.2" height="16" rx="4" fill="white" stroke="#1d6fb8" stroke-width="1.2"/>
<text x="350.0" y="451.5" font-size="11" text-anchor="middle" font-family="Arial, sans-serif" fill="#1d6fb8">60–70 °C</text>
<rect x="565.8" y="329" width="48.400000000000006" height="16" rx="4" fill="white" stroke="#c81e1e" stroke-width="1.2"/>
<text x="590.0" y="341.5" font-size="11" text-anchor="middle" font-family="Arial, sans-serif" fill="#c81e1e">~80 °C</text>
<rect x="625.8" y="549" width="48.400000000000006" height="16" rx="4" fill="white" stroke="#1d6fb8" stroke-width="1.2"/>
<text x="650.0" y="561.5" font-size="11" text-anchor="middle" font-family="Arial, sans-serif" fill="#1d6fb8">~60 °C</text>
<rect x="535.8" y="669" width="48.400000000000006" height="16" rx="4" fill="white" stroke="#c81e1e" stroke-width="1.2"/>
<text x="560.0" y="681.5" font-size="11" text-anchor="middle" font-family="Arial, sans-serif" fill="#c81e1e">~80 °C</text>
<text x="490" y="302" font-size="12" text-anchor="middle" font-family="Arial, sans-serif" fill="#222222">oben ~80 °C</text>
<text x="490" y="586" font-size="12" text-anchor="middle" font-family="Arial, sans-serif" fill="#222222">unten ~60 °C</text>
<rect x="6" y="6" width="1488" height="938" fill="none" stroke="#222222" stroke-width="2"/>
<text x="750.0" y="40" font-size="22" text-anchor="middle" font-family="Arial, sans-serif" fill="#222222" font-weight="bold">BHKW-Schema 4 – Einbindung über hydraulische Weiche</text>
<text x="750.0" y="64" font-size="14" text-anchor="middle" font-family="Arial, sans-serif" fill="#222222">BHKW mit Puffer und Spitzenlastkessel speisen einen gemeinsamen Vorlauf auf die hydraulische Weiche; Erzeuger- und Verbraucherkreise sind vollständig hydraulisch entkoppelt</text>
<rect x="60" y="720" width="250" height="76" fill="white" stroke="#222222" stroke-width="1.5"/>
<text x="72" y="742" font-size="14" text-anchor="start" font-family="Arial, sans-serif" fill="#222222" font-weight="bold">Legende</text>
<line x1="72" y1="764" x2="112" y2="764" stroke="#c81e1e" stroke-width="3.5"/>
<text x="122" y="768" font-size="12" text-anchor="start" font-family="Arial, sans-serif" fill="#222222">Vorlauf</text>
<line x1="72" y1="788" x2="112" y2="788" stroke="#1d6fb8" stroke-width="3.5"/>
<text x="122" y="792" font-size="12" text-anchor="start" font-family="Arial, sans-serif" fill="#222222">Rücklauf</text>
<text x="60" y="880" font-size="12" text-anchor="start" font-family="Arial, sans-serif" fill="#222222">P1 = BHKW-Pumpe · P2 = Kesselpumpe · P3 = Netz-/Primärpumpe · P5/P6 = Heizkreispumpen · SV = Sicherheitsventil · MAG = Ausdehnungsgefäß</text>
<text x="60" y="902" font-size="12" text-anchor="start" font-family="Arial, sans-serif" fill="#222222">Temperaturangaben = typische Auslegungs-Richtwerte; BHKW-Rücklauf unter 70 °C für volle Wärmeauskopplung</text>
<text x="1440" y="930" font-size="10" text-anchor="end" font-family="Arial, sans-serif" fill="#222222">Erstellt für Software Wärmeplan · Schemadarstellung, keine Ausführungsplanung</text></svg>