<svg xmlns="http://www.w3.org/2000/svg" width="1500" height="950" viewBox="0 0 1500 950"><rect width="1500" height="950" fill="white"/><polyline points="290,320 380,320 380,300 450,300" fill="none" stroke="#c81e1e" stroke-width="3.5" stroke-linejoin="round"/>
<polyline points="450,580 340,580 340,390 290,390" fill="none" stroke="#1d6fb8" stroke-width="3.5" stroke-linejoin="round"/>
<polyline points="580,300 800,300" fill="none" stroke="#c81e1e" stroke-width="3.5" stroke-linejoin="round"/>
<polyline points="980,300 1060,300" fill="none" stroke="#c81e1e" stroke-width="3.5" stroke-linejoin="round"/>
<polyline points="700,314 700,390 1020,390 1020,300" fill="none" stroke="#c81e1e" stroke-width="3.5" stroke-linejoin="round"/>
<polyline points="1060,300 1060,140 1150,140" fill="none" stroke="#c81e1e" stroke-width="3.5" stroke-linejoin="round"/>
<polyline points="1060,220 1150,220" fill="none" stroke="#c81e1e" stroke-width="3.5" stroke-linejoin="round"/>
<polyline points="1280,150 1380,150 1380,430" fill="none" stroke="#1d6fb8" stroke-width="3.5" stroke-linejoin="round"/>
<polyline points="1280,230 1340,230 1340,430" fill="none" stroke="#1d6fb8" stroke-width="3.5" stroke-linejoin="round"/>
<g transform="translate(1060,250) rotate(-90)"><polygon points="0,-6 12,0 0,6" fill="#c81e1e"/></g>
<g transform="translate(1095,140) rotate(0)"><circle r="14" fill="white" stroke="#222222" stroke-width="2"/><polygon points="-7,-8 -7,8 9,0" fill="#222222"/></g>
<text x="1095" y="120" font-size="12" text-anchor="middle" font-family="Arial, sans-serif" fill="#222222">P5</text>
<g transform="translate(1095,220) rotate(0)"><circle r="14" fill="white" stroke="#222222" stroke-width="2"/><polygon points="-7,-8 -7,8 9,0" fill="#222222"/></g>
<text x="1095" y="200" font-size="12" text-anchor="middle" font-family="Arial, sans-serif" fill="#222222">P6</text>
<circle cx="1060" cy="220" r="5" fill="#c81e1e"/>
<circle cx="1340" cy="430" r="5" fill="#1d6fb8"/>
<rect x="1150" y="112" width="130" height="56" rx="6" fill="#eef7ee" stroke="#222222" stroke-width="2"/>
<text x="1215" y="136" font-size="13" text-anchor="middle" font-family="Arial, sans-serif" fill="#222222" font-weight="bold">Heizkreis 1</text>
<text x="1215" y="156" font-size="10.5" text-anchor="middle" font-family="Arial, sans-serif" fill="#222222">(z. B. Heizkörper)</text>
<rect x="1150" y="192" width="130" height="56" rx="6" fill="#eef7ee" stroke="#222222" stroke-width="2"/>
<text x="1215" y="216" font-size="13" text-anchor="middle" font-family="Arial, sans-serif" fill="#222222" font-weight="bold">Heizkreis 2</text>
<text x="1215" y="236" font-size="10.5" text-anchor="middle" font-family="Arial, sans-serif" fill="#222222">(z. B. FBH / Lüftung)</text>
<rect x="1029.4" y="257" width="61.2" height="16" rx="4" fill="white" stroke="#c81e1e" stroke-width="1.2"/>
<text x="1060.0" y="269.5" font-size="11" text-anchor="middle" font-family="Arial, sans-serif" fill="#c81e1e">70–80 °C</text>
<rect x="1349.4" y="309" width="61.2" height="16" rx="4" fill="white" stroke="#1d6fb8" stroke-width="1.2"/>
<text x="1380.0" y="321.5" font-size="11" text-anchor="middle" font-family="Arial, sans-serif" fill="#1d6fb8">50–60 °C</text>
<polyline points="1380,430 680,430 680,560 580,560" fill="none" stroke="#1d6fb8" stroke-width="3.5" stroke-linejoin="round"/>
<rect x="80" y="280" width="210" height="160" rx="8" fill="#f5f1e8" stroke="#222222" stroke-width="2.5"/>
<rect x="107.3" y="324.8" width="71.4" height="57.599999999999994" fill="white" stroke="#222222" stroke-width="2"/>
<line x1="125.15" y1="329.8" x2="125.15" y2="377.4" stroke="#222222" stroke-width="1.5"/>
<line x1="143.0" y1="329.8" x2="143.0" y2="377.4" stroke="#222222" stroke-width="1.5"/>
<line x1="160.85" y1="329.8" x2="160.85" y2="377.4" stroke="#222222" stroke-width="1.5"/>
<line x1="178.7" y1="353.6" x2="211.2" y2="353.6" stroke="#222222" stroke-width="2.5"/>
<circle cx="231.2" cy="353.6" r="20" fill="white" stroke="#222222" stroke-width="2"/>
<text x="231.2" y="359.6" font-size="17" text-anchor="middle" font-family="Arial, sans-serif" fill="#222222" font-weight="bold">G</text>
<text x="185.0" y="414" font-size="15" text-anchor="middle" font-family="Arial, sans-serif" fill="#222222" font-weight="bold">BHKW</text>
<text x="185.0" y="432" font-size="11" text-anchor="middle" font-family="Arial, sans-serif" fill="#222222">(Kraft-Wärme-Kopplung)</text>
<rect x="450" y="260" width="130" height="360" rx="65.0" ry="34" fill="#eef3f8" stroke="#222222" stroke-width="2.5"/>
<text x="515.0" y="436.0" font-size="15" text-anchor="middle" font-family="Arial, sans-serif" fill="#222222" font-weight="bold">Puffer-</text>
<text x="515.0" y="456.0" font-size="12" text-anchor="middle" font-family="Arial, sans-serif" fill="#222222">speicher</text>
<rect x="800" y="190" width="180" height="150" rx="8" fill="#faf0ec" stroke="#222222" stroke-width="2.5"/>
<g transform="translate(890.0,250.0) scale(1.35)"><path d="M0,-20 C9,-8 14,0 9,9 C5,16 -5,16 -9,9 C-14,0 -9,-8 0,-20 Z" fill="none" stroke="#222222" stroke-width="2"/><path d="M0,-8 C4,-3 6,1 4,5 C2,8 -2,8 -4,5 C-6,1 -4,-3 0,-8 Z" fill="#222222"/></g>
<text x="890.0" y="314" font-size="15" text-anchor="middle" font-family="Arial, sans-serif" fill="#222222" font-weight="bold">Spitzenlast-</text>
<text x="890.0" y="332" font-size="15" text-anchor="middle" font-family="Arial, sans-serif" fill="#222222" font-weight="bold">kessel</text>
<g transform="translate(330,320) rotate(0)"><circle r="14" fill="white" stroke="#222222" stroke-width="2"/><polygon points="-7,-8 -7,8 9,0" fill="#222222"/></g>
<text x="330" y="300" font-size="12" text-anchor="middle" font-family="Arial, sans-serif" fill="#222222">P1</text>
<g transform="translate(625,300) rotate(0)"><circle r="14" fill="white" stroke="#222222" stroke-width="2"/><polygon points="-7,-8 -7,8 9,0" fill="#222222"/></g>
<text x="625" y="280" font-size="12" text-anchor="middle" font-family="Arial, sans-serif" fill="#222222">P3</text>
<g transform="translate(700,300)"><rect x="-14" y="-14" width="28" height="28" fill="white" stroke="none"/><polygon points="-12,-7 -12,7 0,0" fill="#222222"/><polygon points="12,-7 12,7 0,0" fill="#222222"/><polygon points="-7,12 7,12 0,0" fill="#222222"/><circle cx="0" cy="-20" r="9" fill="white" stroke="#222222" stroke-width="1.5"/><line x1="0" y1="-11" x2="0" y2="-4" stroke="#222222" stroke-width="1.5"/></g>
<text x="700" y="284" font-size="10" text-anchor="middle" font-family="Arial, sans-serif" fill="#222222">M</text>
<g transform="translate(140,280)"><line x1="0" y1="0" x2="0" y2="-14" stroke="#222222" stroke-width="2"/><polygon points="-7,-14 7,-14 0,-26" fill="none" stroke="#222222" stroke-width="2"/><line x1="0" y1="-26" x2="12" y2="-26" stroke="#222222" stroke-width="2"/><polyline points="12,-26 12,-20" fill="none" stroke="#222222" stroke-width="2"/></g>
<text x="160" y="254" font-size="10" text-anchor="start" font-family="Arial, sans-serif" fill="#222222">SV</text>
<g transform="translate(860,190)"><line x1="0" y1="0" x2="0" y2="-14" stroke="#222222" stroke-width="2"/><polygon points="-7,-14 7,-14 0,-26" fill="none" stroke="#222222" stroke-width="2"/><line x1="0" y1="-26" x2="12" y2="-26" stroke="#222222" stroke-width="2"/><polyline points="12,-26 12,-20" fill="none" stroke="#222222" stroke-width="2"/></g>
<text x="880" y="164" font-size="10" text-anchor="start" font-family="Arial, sans-serif" fill="#222222">SV</text>
<g transform="translate(400,580)"><line x1="0" y1="0" x2="0" y2="14" stroke="#222222" stroke-width="2"/><circle cx="0" cy="30" r="16" fill="white" stroke="#222222" stroke-width="2"/><line x1="-16" y1="30" x2="16" y2="30" stroke="#222222" stroke-width="2"/><path d="M -16 30 A 16 16 0 0 0 16 30" fill="#dddddd" stroke="none"/><circle cx="0" cy="30" r="16" fill="none" stroke="#222222" stroke-width="2"/></g>
<text x="400" y="642" font-size="11" text-anchor="middle" font-family="Arial, sans-serif" fill="#222222">MAG</text>
<circle cx="1020" cy="300" r="5" fill="#c81e1e"/>
<g transform="translate(420,300) rotate(0)"><polygon points="0,-6 12,0 0,6" fill="#c81e1e"/></g>
<g transform="translate(770,300) rotate(0)"><polygon points="0,-6 12,0 0,6" fill="#c81e1e"/></g>
<g transform="translate(998,300) rotate(0)"><polygon points="0,-6 12,0 0,6" fill="#c81e1e"/></g>
<g transform="translate(860,390) rotate(0)"><polygon points="0,-6 12,0 0,6" fill="#c81e1e"/></g>
<g transform="translate(390,580) rotate(180)"><polygon points="0,-6 12,0 0,6" fill="#1d6fb8"/></g>
<g transform="translate(760,430) rotate(180)"><polygon points="0,-6 12,0 0,6" fill="#1d6fb8"/></g>
<rect x="609.4" y="321" width="61.2" height="16" rx="4" fill="white" stroke="#c81e1e" stroke-width="1.2"/>
<text x="640.0" y="333.5" font-size="11" text-anchor="middle" font-family="Arial, sans-serif" fill="#c81e1e">75–85 °C</text>
<text x="880" y="378" font-size="11" text-anchor="middle" font-family="Arial, sans-serif" fill="#c81e1e">Bypass</text>
<text x="515" y="302" font-size="12" text-anchor="middle" font-family="Arial, sans-serif" fill="#222222">oben ~85 °C</text>
<text x="515" y="606" font-size="12" text-anchor="middle" font-family="Arial, sans-serif" fill="#222222">unten ~60 °C</text>
<rect x="309.4" y="469" width="61.2" height="16" rx="4" fill="white" stroke="#1d6fb8" stroke-width="1.2"/>
<text x="340.0" y="481.5" font-size="11" text-anchor="middle" font-family="Arial, sans-serif" fill="#1d6fb8">60–70 °C</text>
<rect x="6" y="6" width="1488" height="938" fill="none" stroke="#222222" stroke-width="2"/>
<text x="750.0" y="40" font-size="22" text-anchor="middle" font-family="Arial, sans-serif" fill="#222222" font-weight="bold">BHKW-Schema 3 – Reihenschaltung – Kessel als Nachheizstufe</text>
<text x="750.0" y="64" font-size="14" text-anchor="middle" font-family="Arial, sans-serif" fill="#222222">BHKW deckt die Grundlast über den Puffer; der Spitzenlastkessel liegt in Reihe im Netzvorlauf und hebt bei Bedarf auf Solltemperatur an (Bypass über 3-Wege-Ventil M)</text>
<rect x="60" y="720" width="250" height="76" fill="white" stroke="#222222" stroke-width="1.5"/>
<text x="72" y="742" font-size="14" text-anchor="start" font-family="Arial, sans-serif" fill="#222222" font-weight="bold">Legende</text>
<line x1="72" y1="764" x2="112" y2="764" stroke="#c81e1e" stroke-width="3.5"/>
<text x="122" y="768" font-size="12" text-anchor="start" font-family="Arial, sans-serif" fill="#222222">Vorlauf</text>
<line x1="72" y1="788" x2="112" y2="788" stroke="#1d6fb8" stroke-width="3.5"/>
<text x="122" y="792" font-size="12" text-anchor="start" font-family="Arial, sans-serif" fill="#222222">Rücklauf</text>
<text x="60" y="880" font-size="12" text-anchor="start" font-family="Arial, sans-serif" fill="#222222">P1 = BHKW-Pumpe · P2 = Kesselpumpe · P3 = Netz-/Primärpumpe · P5/P6 = Heizkreispumpen · SV = Sicherheitsventil · MAG = Ausdehnungsgefäß · M = 3-Wege-Ventil</text>
<text x="60" y="902" font-size="12" text-anchor="start" font-family="Arial, sans-serif" fill="#222222">Temperaturangaben = typische Auslegungs-Richtwerte; BHKW-Rücklauf unter 70 °C für volle Wärmeauskopplung</text>
<text x="1440" y="930" font-size="10" text-anchor="end" font-family="Arial, sans-serif" fill="#222222">Erstellt für Software Wärmeplan · Schemadarstellung, keine Ausführungsplanung</text></svg>