ISO-10303-21;
HEADER;
FILE_DESCRIPTION (('ViewDefinition [ReferenceView]'), '2;1');
FILE_NAME ('ifc2x3_koerper_brep.ifc', '2026-09-25T00:00:00', (''), (''), 'EPOS-Plan Importprobe (EPOS.Kern.Tests)', 'EPOS-Plan Importprobe, selbst erzeugt', '');
FILE_SCHEMA (('IFC2X3'));
ENDSEC;
DATA;
#1=IFCPROJECT('0000000010080000000001',$,'Importprobe',$,$,$,$,(#8),#2);
#2=IFCUNITASSIGNMENT((#3,#4,#5,#6,#7));
#3=IFCSIUNIT(*,.LENGTHUNIT.,.MILLI.,.METRE.);
#4=IFCSIUNIT(*,.AREAUNIT.,$,.SQUARE_METRE.);
#5=IFCSIUNIT(*,.VOLUMEUNIT.,$,.CUBIC_METRE.);
#6=IFCSIUNIT(*,.PLANEANGLEUNIT.,$,.RADIAN.);
#7=IFCSIUNIT(*,.THERMODYNAMICTEMPERATUREUNIT.,$,.DEGREE_CELSIUS.);
#8=IFCGEOMETRICREPRESENTATIONCONTEXT($,'Model',3,1.E-05,#9,$);
#9=IFCAXIS2PLACEMENT3D(#10,$,$);
#10=IFCCARTESIANPOINT((0.,0.,0.));
#11=IFCSITE('0000000010080000000002',$,'Grundst\X\FCck',$,$,#14,$,$,.ELEMENT.,$,$,$,$,$);
#12=IFCAXIS2PLACEMENT3D(#13,$,$);
#13=IFCCARTESIANPOINT((0.,0.,0.));
#14=IFCLOCALPLACEMENT($,#12);
#15=IFCRELAGGREGATES('0000000010080000000003',$,$,$,#1,(#11));
#16=IFCBUILDING('0000000010080000000004',$,'Probengeb\X\E4ude',$,$,#19,$,$,.ELEMENT.,$,$,$);
#17=IFCAXIS2PLACEMENT3D(#18,$,$);
#18=IFCCARTESIANPOINT((0.,0.,0.));
#19=IFCLOCALPLACEMENT(#14,#17);
#20=IFCRELAGGREGATES('0000000010080000000005',$,$,$,#11,(#16));
#21=IFCBUILDINGSTOREY('0000000010080000000006',$,'Erdgeschoss',$,$,#24,$,$,.ELEMENT.,0.);
#22=IFCAXIS2PLACEMENT3D(#23,$,$);
#23=IFCCARTESIANPOINT((0.,0.,0.));
#24=IFCLOCALPLACEMENT(#19,#22);
#25=IFCRELAGGREGATES('0000000010080000000007',$,$,$,#16,(#21));
#26=IFCSPACE('0000000010080000000008',$,'0.01',$,$,#29,#87,'Raum',.ELEMENT.,.INTERNAL.,$);
#27=IFCAXIS2PLACEMENT3D(#28,$,$);
#28=IFCCARTESIANPOINT((1000.,2000.,0.));
#29=IFCLOCALPLACEMENT(#24,#27);
#30=IFCRELAGGREGATES('0000000010080000000009',$,$,$,#21,(#26));
#31=IFCQUANTITYAREA('NetFloorArea',$,$,20.);
#32=IFCQUANTITYLENGTH('Height',$,$,3000.);
#33=IFCQUANTITYVOLUME('NetVolume',$,$,60.);
#34=IFCELEMENTQUANTITY('000000001008000000000G',$,'BaseQuantities',$,$,(#31,#32,#33));
#35=IFCRELDEFINESBYPROPERTIES('000000001008000000000H',$,$,$,(#26),#34);
#36=IFCPROPERTYSET('000000001008000000000I',$,'Pset_SpaceCommon',$,(#37));
#37=IFCPROPERTYSINGLEVALUE('IsExternal',$,IFCBOOLEAN(.F.),$);
#38=IFCRELDEFINESBYPROPERTIES('000000001008000000000J',$,$,$,(#26),#36);
#39=IFCPROPERTYSET('000000001008000000000K',$,'Pset_SpaceThermalRequirements',$,(#40));
#40=IFCPROPERTYSINGLEVALUE('SpaceTemperatureMin',$,IFCTHERMODYNAMICTEMPERATUREMEASURE(20.),$);
#41=IFCRELDEFINESBYPROPERTIES('000000001008000000000L',$,$,$,(#26),#39);
#42=IFCCLOSEDSHELL((#49,#56,#63,#70,#77,#84));
#43=IFCPOLYLOOP((#44,#45,#46,#47));
#44=IFCCARTESIANPOINT((0.,0.,0.));
#45=IFCCARTESIANPOINT((0.,3000.,0.));
#46=IFCCARTESIANPOINT((4000.,3000.,0.));
#47=IFCCARTESIANPOINT((4000.,0.,0.));
#48=IFCFACEOUTERBOUND(#43,.T.);
#49=IFCFACE((#48));
#50=IFCPOLYLOOP((#51,#52,#53,#54));
#51=IFCCARTESIANPOINT((0.,0.,2500.));
#52=IFCCARTESIANPOINT((4000.,0.,2500.));
#53=IFCCARTESIANPOINT((4000.,3000.,2500.));
#54=IFCCARTESIANPOINT((0.,3000.,2500.));
#55=IFCFACEOUTERBOUND(#50,.T.);
#56=IFCFACE((#55));
#57=IFCPOLYLOOP((#58,#59,#60,#61));
#58=IFCCARTESIANPOINT((0.,0.,0.));
#59=IFCCARTESIANPOINT((4000.,0.,0.));
#60=IFCCARTESIANPOINT((4000.,0.,2500.));
#61=IFCCARTESIANPOINT((0.,0.,2500.));
#62=IFCFACEOUTERBOUND(#57,.T.);
#63=IFCFACE((#62));
#64=IFCPOLYLOOP((#65,#66,#67,#68));
#65=IFCCARTESIANPOINT((4000.,0.,0.));
#66=IFCCARTESIANPOINT((4000.,3000.,0.));
#67=IFCCARTESIANPOINT((4000.,3000.,2500.));
#68=IFCCARTESIANPOINT((4000.,0.,2500.));
#69=IFCFACEOUTERBOUND(#64,.T.);
#70=IFCFACE((#69));
#71=IFCPOLYLOOP((#72,#73,#74,#75));
#72=IFCCARTESIANPOINT((4000.,3000.,0.));
#73=IFCCARTESIANPOINT((0.,3000.,0.));
#74=IFCCARTESIANPOINT((0.,3000.,2500.));
#75=IFCCARTESIANPOINT((4000.,3000.,2500.));
#76=IFCFACEOUTERBOUND(#71,.T.);
#77=IFCFACE((#76));
#78=IFCPOLYLOOP((#79,#80,#81,#82));
#79=IFCCARTESIANPOINT((0.,3000.,2500.));
#80=IFCCARTESIANPOINT((0.,0.,2500.));
#81=IFCCARTESIANPOINT((0.,0.,0.));
#82=IFCCARTESIANPOINT((0.,3000.,0.));
#83=IFCFACEOUTERBOUND(#78,.F.);
#84=IFCFACE((#83));
#85=IFCFACETEDBREP(#42);
#86=IFCSHAPEREPRESENTATION(#8,'Body','Brep',(#85));
#87=IFCPRODUCTDEFINITIONSHAPE($,$,(#86));
ENDSEC;
END-ISO-10303-21;
