ISO-10303-21;
HEADER;
FILE_DESCRIPTION (('ViewDefinition [ReferenceView]'), '2;1');
FILE_NAME ('ifc2x3_enthaltensein.ifc', '2026-09-25T00:00:00', (''), (''), 'EPOS-Plan Importprobe (EPOS.Kern.Tests)', 'EPOS-Plan Importprobe, selbst erzeugt', '');
FILE_SCHEMA (('IFC2X3'));
ENDSEC;
DATA;
#1=IFCPROJECT('0000000010080000000001',$,'Importprobe',$,$,$,$,(#8),#2);
#2=IFCUNITASSIGNMENT((#3,#4,#5,#6,#7));
#3=IFCSIUNIT(*,.LENGTHUNIT.,.MILLI.,.METRE.);
#4=IFCSIUNIT(*,.AREAUNIT.,$,.SQUARE_METRE.);
#5=IFCSIUNIT(*,.VOLUMEUNIT.,$,.CUBIC_METRE.);
#6=IFCSIUNIT(*,.PLANEANGLEUNIT.,$,.RADIAN.);
#7=IFCSIUNIT(*,.THERMODYNAMICTEMPERATUREUNIT.,$,.DEGREE_CELSIUS.);
#8=IFCGEOMETRICREPRESENTATIONCONTEXT($,'Model',3,1.E-05,#9,#11);
#9=IFCAXIS2PLACEMENT3D(#10,$,$);
#10=IFCCARTESIANPOINT((0.,0.,0.));
#11=IFCDIRECTION((0.,1.,0.));
#12=IFCSITE('0000000010080000000002',$,'Grundst\X\FCck',$,$,#15,$,$,.ELEMENT.,$,$,$,$,$);
#13=IFCAXIS2PLACEMENT3D(#14,$,$);
#14=IFCCARTESIANPOINT((0.,0.,0.));
#15=IFCLOCALPLACEMENT($,#13);
#16=IFCRELAGGREGATES('0000000010080000000003',$,$,$,#1,(#12));
#17=IFCBUILDING('0000000010080000000004',$,'Probengeb\X\E4ude',$,$,#20,$,$,.ELEMENT.,$,$,$);
#18=IFCAXIS2PLACEMENT3D(#19,$,$);
#19=IFCCARTESIANPOINT((0.,0.,0.));
#20=IFCLOCALPLACEMENT(#15,#18);
#21=IFCRELAGGREGATES('0000000010080000000005',$,$,$,#12,(#17));
#22=IFCPROPERTYSET('0000000010080000000006',$,'CAD_GebaeudeAllgemein',$,(#23,#24));
#23=IFCPROPERTYSINGLEVALUE('Constructed',$,IFCINTEGER(1983),$);
#24=IFCPROPERTYSINGLEVALUE('YearOfConstruction (Datum)',$,IFCLABEL('01.01.1984 00:00:00'),$);
#25=IFCRELDEFINESBYPROPERTIES('0000000010080000000007',$,$,$,(#17),#22);
#26=IFCBUILDINGSTOREY('0000000010080000000008',$,'EG',$,$,#29,$,$,.ELEMENT.,0.);
#27=IFCAXIS2PLACEMENT3D(#28,$,$);
#28=IFCCARTESIANPOINT((0.,0.,0.));
#29=IFCLOCALPLACEMENT(#20,#27);
#30=IFCRELCONTAINEDINSPATIALSTRUCTURE('0000000010080000000009',$,$,$,(#26,#31),#17);
#31=IFCBUILDINGSTOREY('000000001008000000000G',$,'OG',$,$,#34,$,$,.ELEMENT.,2800.);
#32=IFCAXIS2PLACEMENT3D(#33,$,$);
#33=IFCCARTESIANPOINT((0.,0.,2800.));
#34=IFCLOCALPLACEMENT(#20,#32);
#35=IFCSPACE('000000001008000000000H',$,'Wohnen',$,$,#38,$,$,.ELEMENT.,.INTERNAL.,$);
#36=IFCAXIS2PLACEMENT3D(#37,$,$);
#37=IFCCARTESIANPOINT((150.,150.,0.));
#38=IFCLOCALPLACEMENT(#29,#36);
#39=IFCRELCONTAINEDINSPATIALSTRUCTURE('000000001008000000000I',$,$,$,(#35,#45,#92,#101,#124,#146,#170,#189,#209,#228,#247),#26);
#40=IFCQUANTITYAREA('Area',$,$,40.);
#41=IFCQUANTITYVOLUME('Volume',$,$,100.);
#42=IFCQUANTITYLENGTH('Height',$,$,2500.);
#43=IFCELEMENTQUANTITY('000000001008000000000J',$,'CAD_RaumQuantities',$,$,(#40,#41,#42));
#44=IFCRELDEFINESBYPROPERTIES('000000001008000000000K',$,$,$,(#35),#43);
#45=IFCSPACE('000000001008000000000L',$,'K\X\FCche',$,$,#48,$,$,.ELEMENT.,.INTERNAL.,$);
#46=IFCAXIS2PLACEMENT3D(#47,$,$);
#47=IFCCARTESIANPOINT((6150.,150.,0.));
#48=IFCLOCALPLACEMENT(#29,#46);
#49=IFCRELAGGREGATES('000000001008000000000M',$,$,$,#26,(#45));
#50=IFCQUANTITYAREA('Area',$,$,20.);
#51=IFCQUANTITYVOLUME('Volume',$,$,50.);
#52=IFCQUANTITYLENGTH('Height',$,$,2500.);
#53=IFCELEMENTQUANTITY('000000001008000000000N',$,'CAD_RaumQuantities',$,$,(#50,#51,#52));
#54=IFCRELDEFINESBYPROPERTIES('000000001008000000000O',$,$,$,(#45),#53);
#55=IFCSPACE('000000001008000000000P',$,'Schlafen',$,$,#58,$,$,.ELEMENT.,.INTERNAL.,$);
#56=IFCAXIS2PLACEMENT3D(#57,$,$);
#57=IFCCARTESIANPOINT((150.,150.,0.));
#58=IFCLOCALPLACEMENT(#34,#56);
#59=IFCRELCONTAINEDINSPATIALSTRUCTURE('000000001008000000000W',$,$,$,(#55,#65,#74,#257,#296,#315),#31);
#60=IFCQUANTITYAREA('Area',$,$,30.);
#61=IFCQUANTITYVOLUME('Volume',$,$,72.);
#62=IFCQUANTITYLENGTH('Height',$,$,2400.);
#63=IFCELEMENTQUANTITY('000000001008000000000X',$,'CAD_RaumQuantities',$,$,(#60,#61,#62));
#64=IFCRELDEFINESBYPROPERTIES('000000001008000000000Y',$,$,$,(#55),#63);
#65=IFCSPACE('000000001008000000000Z',$,'Abstellraum',$,$,#68,$,$,.ELEMENT.,.INTERNAL.,$);
#66=IFCAXIS2PLACEMENT3D(#67,$,$);
#67=IFCCARTESIANPOINT((6150.,150.,0.));
#68=IFCLOCALPLACEMENT(#34,#66);
#69=IFCQUANTITYAREA('Area',$,$,5.);
#70=IFCQUANTITYVOLUME('Volume',$,$,12.);
#71=IFCQUANTITYLENGTH('Height',$,$,2400.);
#72=IFCELEMENTQUANTITY('000000001008000000000a',$,'CAD_RaumQuantities',$,$,(#69,#70,#71));
#73=IFCRELDEFINESBYPROPERTIES('000000001008000000000b',$,$,$,(#65),#72);
#74=IFCSPACE('000000001008000000000c',$,'Bad',$,$,#77,$,$,.ELEMENT.,.INTERNAL.,$);
#75=IFCAXIS2PLACEMENT3D(#76,$,$);
#76=IFCCARTESIANPOINT((6150.,4150.,0.));
#77=IFCLOCALPLACEMENT(#34,#75);
#78=IFCQUANTITYAREA('NetFloorArea',$,$,10.);
#79=IFCQUANTITYVOLUME('NetVolume',$,$,24.);
#80=IFCQUANTITYLENGTH('Height',$,$,2400.);
#81=IFCELEMENTQUANTITY('000000001008000000000d',$,'BaseQuantities',$,$,(#78,#79,#80));
#82=IFCRELDEFINESBYPROPERTIES('000000001008000000000e',$,$,$,(#74),#81);
#83=IFCQUANTITYAREA('Area',$,$,999.);
#84=IFCQUANTITYVOLUME('Volume',$,$,999.);
#85=IFCQUANTITYLENGTH('Height',$,$,9999.);
#86=IFCELEMENTQUANTITY('000000001008000000000f',$,'CAD_RaumQuantities',$,$,(#83,#84,#85));
#87=IFCRELDEFINESBYPROPERTIES('000000001008000000000m',$,$,$,(#74),#86);
#88=IFCWALLTYPE('000000001008000000000n',$,'Au\X\DFenwand Typ E',$,$,(#89),$,$,$,.STANDARD.);
#89=IFCPROPERTYSET('000000001008000000000o',$,'Pset_WallCommon',$,(#90,#91));
#90=IFCPROPERTYSINGLEVALUE('IsExternal',$,IFCBOOLEAN(.T.),$);
#91=IFCPROPERTYSINGLEVALUE('ThermalTransmittance',$,IFCTHERMALTRANSMITTANCEMEASURE(0.3),$);
#92=IFCWALL('000000001008000000000p',$,'EG S\X\FCd',$,$,#95,$,$);
#93=IFCAXIS2PLACEMENT3D(#94,$,$);
#94=IFCCARTESIANPOINT((0.,0.,0.));
#95=IFCLOCALPLACEMENT(#29,#93);
#96=IFCRELDEFINESBYTYPE('000000001008000000000q',$,$,$,(#92),#88);
#97=IFCQUANTITYAREA('GrossSideArea',$,$,30.);
#98=IFCQUANTITYAREA('NetSideArea',$,$,30.);
#99=IFCELEMENTQUANTITY('000000001008000000000r',$,'BaseQuantities',$,$,(#97,#98));
#100=IFCRELDEFINESBYPROPERTIES('000000001008000000000s',$,$,$,(#92),#99);
#101=IFCWALL('000000001008000000000t',$,'Nord CAD',$,$,#104,$,$);
#102=IFCAXIS2PLACEMENT3D(#103,$,$);
#103=IFCCARTESIANPOINT((0.,0.,0.));
#104=IFCLOCALPLACEMENT(#29,#102);
#105=IFCPROPERTYENUMERATEDVALUE('AdjacentType',$,(IFCLABEL('btaOutside')),$);
#106=IFCPROPERTYSINGLEVALUE('Orientation (\X\B0)',$,IFCLABEL('0'),$);
#107=IFCPROPERTYSET('000000001008000000000u',$,'CAD_BauteilAllgemein',$,(#105,#106));
#108=IFCRELDEFINESBYPROPERTIES('000000001008000000000v',$,$,$,(#101),#107);
#109=IFCPROPERTYSET('0000000010080000000010',$,'CAD_BauteilEnergetik',$,(#110));
#110=IFCPROPERTYSINGLEVALUE('ElementEnergyConsultingProperties.CladdingSurface',$,IFCBOOLEAN(.T.),$);
#111=IFCRELDEFINESBYPROPERTIES('0000000010080000000011',$,$,$,(#101),#109);
#112=IFCPROPERTYSET('0000000010080000000012',$,'CAD_Bauteilreferenzen',$,(#113));
#113=IFCPROPERTYSINGLEVALUE('UValue (W/(m\X\B2 K))',$,IFCREAL(0.25),$);
#114=IFCRELDEFINESBYPROPERTIES('0000000010080000000013',$,$,$,(#101),#112);
#115=IFCPROPERTYSET('0000000010080000000014',$,'Pset_WallCommon',$,(#116));
#116=IFCPROPERTYSINGLEVALUE('ThermalTransmittance (W/(m K))',$,IFCREAL(0.5),$);
#117=IFCRELDEFINESBYPROPERTIES('0000000010080000000015',$,$,$,(#101),#115);
#118=IFCQUANTITYAREA('GrossArea',$,$,30.);
#119=IFCQUANTITYAREA('NetArea',$,$,24.);
#120=IFCQUANTITYLENGTH('Width',$,$,10000.);
#121=IFCQUANTITYLENGTH('Length',$,$,3000.);
#122=IFCELEMENTQUANTITY('0000000010080000000016',$,'CAD_BauteilQuantities',$,$,(#118,#119,#120,#121));
#123=IFCRELDEFINESBYPROPERTIES('0000000010080000000017',$,$,$,(#101),#122);
#124=IFCWINDOW('0000000010080000000018',$,'F1 CAD',$,$,#127,$,$,2000.,2000.);
#125=IFCAXIS2PLACEMENT3D(#126,$,$);
#126=IFCCARTESIANPOINT((0.,0.,0.));
#127=IFCLOCALPLACEMENT(#29,#125);
#128=IFCOPENINGELEMENT('0000000010080000000019',$,'\X\D6ffnung F1 CAD',$,$,$,$,$);
#129=IFCRELVOIDSELEMENT('000000001008000000001G',$,$,$,#101,#128);
#130=IFCRELFILLSELEMENT('000000001008000000001H',$,$,$,#128,#124);
#131=IFCPROPERTYENUMERATEDVALUE('AdjacentType',$,(IFCLABEL('btaOutside')),$);
#132=IFCPROPERTYSET('000000001008000000001I',$,'CAD_BauteilAllgemein',$,(#131));
#133=IFCRELDEFINESBYPROPERTIES('000000001008000000001J',$,$,$,(#124),#132);
#134=IFCPROPERTYSET('000000001008000000001K',$,'CAD_BauteilEnergetik',$,(#135));
#135=IFCPROPERTYSINGLEVALUE('ElementEnergyConsultingProperties.CladdingSurface',$,IFCBOOLEAN(.T.),$);
#136=IFCRELDEFINESBYPROPERTIES('000000001008000000001L',$,$,$,(#124),#134);
#137=IFCPROPERTYSET('000000001008000000001M',$,'CAD_Bauteilreferenzen',$,(#138));
#138=IFCPROPERTYSINGLEVALUE('UValue (W/(m\X\B2 K))',$,IFCREAL(1.2),$);
#139=IFCRELDEFINESBYPROPERTIES('000000001008000000001N',$,$,$,(#124),#137);
#140=IFCPROPERTYSET('000000001008000000001O',$,'Pset_WindowCommon',$,(#141));
#141=IFCPROPERTYSINGLEVALUE('ThermalTransmittance (W/(m K))',$,IFCREAL(9.9),$);
#142=IFCRELDEFINESBYPROPERTIES('000000001008000000001P',$,$,$,(#124),#140);
#143=IFCPROPERTYSINGLEVALUE('FractionOfFrame',$,IFCLABEL('30'),$);
#144=IFCPROPERTYSET('000000001008000000001W',$,'CAD_EcoCad',$,(#143));
#145=IFCRELDEFINESBYPROPERTIES('000000001008000000001X',$,$,$,(#124),#144);
#146=IFCWINDOW('000000001008000000001Y',$,'F2 CAD',$,$,#149,$,$,$,$);
#147=IFCAXIS2PLACEMENT3D(#148,$,$);
#148=IFCCARTESIANPOINT((0.,0.,0.));
#149=IFCLOCALPLACEMENT(#29,#147);
#150=IFCOPENINGELEMENT('000000001008000000001Z',$,'\X\D6ffnung F2 CAD',$,$,$,$,$);
#151=IFCRELVOIDSELEMENT('000000001008000000001a',$,$,$,#101,#150);
#152=IFCRELFILLSELEMENT('000000001008000000001b',$,$,$,#150,#146);
#153=IFCPROPERTYENUMERATEDVALUE('AdjacentType',$,(IFCLABEL('btaOutside')),$);
#154=IFCPROPERTYSET('000000001008000000001c',$,'CAD_BauteilAllgemein',$,(#153));
#155=IFCRELDEFINESBYPROPERTIES('000000001008000000001d',$,$,$,(#146),#154);
#156=IFCPROPERTYSET('000000001008000000001e',$,'CAD_BauteilEnergetik',$,(#157));
#157=IFCPROPERTYSINGLEVALUE('ElementEnergyConsultingProperties.CladdingSurface',$,IFCBOOLEAN(.T.),$);
#158=IFCRELDEFINESBYPROPERTIES('000000001008000000001f',$,$,$,(#146),#156);
#159=IFCPROPERTYSET('000000001008000000001m',$,'CAD_Bauteilreferenzen',$,(#160));
#160=IFCPROPERTYSINGLEVALUE('UValue (W/(m\X\B2 K))',$,IFCREAL(1.2),$);
#161=IFCRELDEFINESBYPROPERTIES('000000001008000000001n',$,$,$,(#146),#159);
#162=IFCPROPERTYSET('000000001008000000001o',$,'Pset_WindowCommon',$,(#163));
#163=IFCPROPERTYSINGLEVALUE('ThermalTransmittance (W/(m K))',$,IFCREAL(9.9),$);
#164=IFCRELDEFINESBYPROPERTIES('000000001008000000001p',$,$,$,(#146),#162);
#165=IFCQUANTITYAREA('GrossArea',$,$,2.);
#166=IFCQUANTITYLENGTH('Width',$,$,5000.);
#167=IFCQUANTITYLENGTH('Length',$,$,5000.);
#168=IFCELEMENTQUANTITY('000000001008000000001q',$,'CAD_BauteilQuantities',$,$,(#165,#166,#167));
#169=IFCRELDEFINESBYPROPERTIES('000000001008000000001r',$,$,$,(#146),#168);
#170=IFCSLAB('000000001008000000001s',$,'Kellerdecke CAD',$,$,#173,$,$,$);
#171=IFCAXIS2PLACEMENT3D(#172,$,$);
#172=IFCCARTESIANPOINT((0.,0.,0.));
#173=IFCLOCALPLACEMENT(#29,#171);
#174=IFCPROPERTYENUMERATEDVALUE('AdjacentType',$,(IFCLABEL('btaCellarCeiling')),$);
#175=IFCPROPERTYSET('000000001008000000001t',$,'CAD_BauteilAllgemein',$,(#174));
#176=IFCRELDEFINESBYPROPERTIES('000000001008000000001u',$,$,$,(#170),#175);
#177=IFCPROPERTYSET('000000001008000000001v',$,'CAD_BauteilEnergetik',$,(#178));
#178=IFCPROPERTYSINGLEVALUE('ElementEnergyConsultingProperties.CladdingSurface',$,IFCBOOLEAN(.T.),$);
#179=IFCRELDEFINESBYPROPERTIES('0000000010080000000020',$,$,$,(#170),#177);
#180=IFCPROPERTYSET('0000000010080000000021',$,'CAD_Bauteilreferenzen',$,(#181));
#181=IFCPROPERTYSINGLEVALUE('UValue (W/(m\X\B2 K))',$,IFCREAL(0.4),$);
#182=IFCRELDEFINESBYPROPERTIES('0000000010080000000022',$,$,$,(#170),#180);
#183=IFCQUANTITYAREA('GrossArea',$,$,60.);
#184=IFCQUANTITYAREA('NetArea',$,$,60.);
#185=IFCQUANTITYLENGTH('Width',$,$,7500.);
#186=IFCQUANTITYLENGTH('Length',$,$,8000.);
#187=IFCELEMENTQUANTITY('0000000010080000000023',$,'CAD_BauteilQuantities',$,$,(#183,#184,#185,#186));
#188=IFCRELDEFINESBYPROPERTIES('0000000010080000000024',$,$,$,(#170),#187);
#189=IFCWALL('0000000010080000000025',$,'Kellerwand CAD',$,$,#192,$,$);
#190=IFCAXIS2PLACEMENT3D(#191,$,$);
#191=IFCCARTESIANPOINT((0.,0.,0.));
#192=IFCLOCALPLACEMENT(#29,#190);
#193=IFCPROPERTYENUMERATEDVALUE('AdjacentType',$,(IFCLABEL('btaGround')),$);
#194=IFCPROPERTYSINGLEVALUE('Orientation (\X\B0)',$,IFCLABEL('90'),$);
#195=IFCPROPERTYSET('0000000010080000000026',$,'CAD_BauteilAllgemein',$,(#193,#194));
#196=IFCRELDEFINESBYPROPERTIES('0000000010080000000027',$,$,$,(#189),#195);
#197=IFCPROPERTYSET('0000000010080000000028',$,'CAD_BauteilEnergetik',$,(#198));
#198=IFCPROPERTYSINGLEVALUE('ElementEnergyConsultingProperties.CladdingSurface',$,IFCBOOLEAN(.T.),$);
#199=IFCRELDEFINESBYPROPERTIES('0000000010080000000029',$,$,$,(#189),#197);
#200=IFCPROPERTYSET('000000001008000000002G',$,'CAD_Bauteilreferenzen',$,(#201));
#201=IFCPROPERTYSINGLEVALUE('UValue (W/(m\X\B2 K))',$,IFCREAL(0.5),$);
#202=IFCRELDEFINESBYPROPERTIES('000000001008000000002H',$,$,$,(#189),#200);
#203=IFCQUANTITYAREA('GrossArea',$,$,10.);
#204=IFCQUANTITYAREA('NetArea',$,$,10.);
#205=IFCQUANTITYLENGTH('Width',$,$,4000.);
#206=IFCQUANTITYLENGTH('Length',$,$,2500.);
#207=IFCELEMENTQUANTITY('000000001008000000002I',$,'CAD_BauteilQuantities',$,$,(#203,#204,#205,#206));
#208=IFCRELDEFINESBYPROPERTIES('000000001008000000002J',$,$,$,(#189),#207);
#209=IFCWALL('000000001008000000002K',$,'Innenwand CAD',$,$,#212,$,$);
#210=IFCAXIS2PLACEMENT3D(#211,$,$);
#211=IFCCARTESIANPOINT((0.,0.,0.));
#212=IFCLOCALPLACEMENT(#29,#210);
#213=IFCPROPERTYENUMERATEDVALUE('AdjacentType',$,(IFCLABEL('btaHeated')),$);
#214=IFCPROPERTYSET('000000001008000000002L',$,'CAD_BauteilAllgemein',$,(#213));
#215=IFCRELDEFINESBYPROPERTIES('000000001008000000002M',$,$,$,(#209),#214);
#216=IFCPROPERTYSET('000000001008000000002N',$,'CAD_BauteilEnergetik',$,(#217));
#217=IFCPROPERTYSINGLEVALUE('ElementEnergyConsultingProperties.CladdingSurface',$,IFCBOOLEAN(.F.),$);
#218=IFCRELDEFINESBYPROPERTIES('000000001008000000002O',$,$,$,(#209),#216);
#219=IFCPROPERTYSET('000000001008000000002P',$,'CAD_Bauteilreferenzen',$,(#220));
#220=IFCPROPERTYSINGLEVALUE('UValue (W/(m\X\B2 K))',$,IFCREAL(1.5),$);
#221=IFCRELDEFINESBYPROPERTIES('0000000010080000000040',$,$,$,(#209),#219);
#222=IFCQUANTITYAREA('GrossArea',$,$,12.);
#223=IFCQUANTITYAREA('NetArea',$,$,12.);
#224=IFCQUANTITYLENGTH('Width',$,$,4800.);
#225=IFCQUANTITYLENGTH('Length',$,$,2500.);
#226=IFCELEMENTQUANTITY('0000000010080000000041',$,'CAD_BauteilQuantities',$,$,(#222,#223,#224,#225));
#227=IFCRELDEFINESBYPROPERTIES('0000000010080000000042',$,$,$,(#209),#226);
#228=IFCWALL('0000000010080000000043',$,'Wand unbeheizt CAD',$,$,#231,$,$);
#229=IFCAXIS2PLACEMENT3D(#230,$,$);
#230=IFCCARTESIANPOINT((0.,0.,0.));
#231=IFCLOCALPLACEMENT(#29,#229);
#232=IFCPROPERTYENUMERATEDVALUE('AdjacentType',$,(IFCLABEL('btaUnHeated')),$);
#233=IFCPROPERTYSET('0000000010080000000044',$,'CAD_BauteilAllgemein',$,(#232));
#234=IFCRELDEFINESBYPROPERTIES('0000000010080000000045',$,$,$,(#228),#233);
#235=IFCPROPERTYSET('0000000010080000000046',$,'CAD_BauteilEnergetik',$,(#236));
#236=IFCPROPERTYSINGLEVALUE('ElementEnergyConsultingProperties.CladdingSurface',$,IFCBOOLEAN(.T.),$);
#237=IFCRELDEFINESBYPROPERTIES('0000000010080000000047',$,$,$,(#228),#235);
#238=IFCPROPERTYSET('0000000010080000000048',$,'CAD_Bauteilreferenzen',$,(#239));
#239=IFCPROPERTYSINGLEVALUE('UValue (W/(m\X\B2 K))',$,IFCREAL(0.6),$);
#240=IFCRELDEFINESBYPROPERTIES('0000000010080000000049',$,$,$,(#228),#238);
#241=IFCQUANTITYAREA('GrossArea',$,$,6.);
#242=IFCQUANTITYAREA('NetArea',$,$,6.);
#243=IFCQUANTITYLENGTH('Width',$,$,2400.);
#244=IFCQUANTITYLENGTH('Length',$,$,2500.);
#245=IFCELEMENTQUANTITY('000000001008000000004G',$,'CAD_BauteilQuantities',$,$,(#241,#242,#243,#244));
#246=IFCRELDEFINESBYPROPERTIES('000000001008000000004H',$,$,$,(#228),#245);
#247=IFCWALL('000000001008000000004I',$,'Hilfswand CAD',$,$,#250,$,$);
#248=IFCAXIS2PLACEMENT3D(#249,$,$);
#249=IFCCARTESIANPOINT((0.,0.,0.));
#250=IFCLOCALPLACEMENT(#29,#248);
#251=IFCPROPERTYENUMERATEDVALUE('AdjacentType',$,(IFCLABEL('btaNone')),$);
#252=IFCPROPERTYSET('000000001008000000004J',$,'CAD_BauteilAllgemein',$,(#251));
#253=IFCRELDEFINESBYPROPERTIES('000000001008000000004K',$,$,$,(#247),#252);
#254=IFCPROPERTYSET('000000001008000000004L',$,'CAD_BauteilEnergetik',$,(#255));
#255=IFCPROPERTYSINGLEVALUE('ElementEnergyConsultingProperties.CladdingSurface',$,IFCBOOLEAN(.F.),$);
#256=IFCRELDEFINESBYPROPERTIES('000000001008000000004M',$,$,$,(#247),#254);
#257=IFCROOF('000000001008000000004N',$,'Dach CAD',$,$,#260,$,$,.FLAT_ROOF.);
#258=IFCAXIS2PLACEMENT3D(#259,$,$);
#259=IFCCARTESIANPOINT((0.,0.,0.));
#260=IFCLOCALPLACEMENT(#34,#258);
#261=IFCPROPERTYENUMERATEDVALUE('AdjacentType',$,(IFCLABEL('btaOutside')),$);
#262=IFCPROPERTYSET('000000001008000000004O',$,'CAD_BauteilAllgemein',$,(#261));
#263=IFCRELDEFINESBYPROPERTIES('000000001008000000004P',$,$,$,(#257),#262);
#264=IFCPROPERTYSET('000000001008000000004W',$,'CAD_BauteilEnergetik',$,(#265));
#265=IFCPROPERTYSINGLEVALUE('ElementEnergyConsultingProperties.CladdingSurface',$,IFCBOOLEAN(.T.),$);
#266=IFCRELDEFINESBYPROPERTIES('000000001008000000004X',$,$,$,(#257),#264);
#267=IFCPROPERTYSET('000000001008000000004Y',$,'CAD_Bauteilreferenzen',$,(#268));
#268=IFCPROPERTYSINGLEVALUE('UValue (W/(m\X\B2 K))',$,IFCREAL(0.2),$);
#269=IFCRELDEFINESBYPROPERTIES('000000001008000000004Z',$,$,$,(#257),#267);
#270=IFCPROPERTYSET('000000001008000000004a',$,'Pset_RoofCommon',$,(#271));
#271=IFCPROPERTYSINGLEVALUE('ThermalTransmittance (W/(m K))',$,IFCREAL(0.9),$);
#272=IFCRELDEFINESBYPROPERTIES('000000001008000000004b',$,$,$,(#257),#270);
#273=IFCQUANTITYAREA('GrossArea',$,$,35.);
#274=IFCQUANTITYAREA('NetArea',$,$,34.);
#275=IFCQUANTITYLENGTH('Width',$,$,7000.);
#276=IFCQUANTITYLENGTH('Length',$,$,5000.);
#277=IFCELEMENTQUANTITY('000000001008000000004c',$,'CAD_BauteilQuantities',$,$,(#273,#274,#275,#276));
#278=IFCRELDEFINESBYPROPERTIES('000000001008000000004d',$,$,$,(#257),#277);
#279=IFCWINDOW('000000001008000000004e',$,'DF CAD',$,$,#282,$,$,1000.,1000.);
#280=IFCAXIS2PLACEMENT3D(#281,$,$);
#281=IFCCARTESIANPOINT((0.,0.,0.));
#282=IFCLOCALPLACEMENT(#34,#280);
#283=IFCRELAGGREGATES('000000001008000000004f',$,$,$,#257,(#279));
#284=IFCPROPERTYENUMERATEDVALUE('AdjacentType',$,(IFCLABEL('btaOutside')),$);
#285=IFCPROPERTYSET('000000001008000000004m',$,'CAD_BauteilAllgemein',$,(#284));
#286=IFCRELDEFINESBYPROPERTIES('000000001008000000004n',$,$,$,(#279),#285);
#287=IFCPROPERTYSET('000000001008000000004o',$,'CAD_BauteilEnergetik',$,(#288));
#288=IFCPROPERTYSINGLEVALUE('ElementEnergyConsultingProperties.CladdingSurface',$,IFCBOOLEAN(.T.),$);
#289=IFCRELDEFINESBYPROPERTIES('000000001008000000004p',$,$,$,(#279),#287);
#290=IFCPROPERTYSET('000000001008000000004q',$,'CAD_Bauteilreferenzen',$,(#291));
#291=IFCPROPERTYSINGLEVALUE('UValue (W/(m\X\B2 K))',$,IFCREAL(1.4),$);
#292=IFCRELDEFINESBYPROPERTIES('000000001008000000004r',$,$,$,(#279),#290);
#293=IFCPROPERTYSINGLEVALUE('FractionOfFrame',$,IFCLABEL('0,2'),$);
#294=IFCPROPERTYSET('000000001008000000004s',$,'CAD_EcoCad',$,(#293));
#295=IFCRELDEFINESBYPROPERTIES('000000001008000000004t',$,$,$,(#279),#294);
#296=IFCSLAB('000000001008000000004u',$,'Oberste Decke CAD',$,$,#299,$,$,$);
#297=IFCAXIS2PLACEMENT3D(#298,$,$);
#298=IFCCARTESIANPOINT((0.,0.,0.));
#299=IFCLOCALPLACEMENT(#34,#297);
#300=IFCPROPERTYENUMERATEDVALUE('AdjacentType',$,(IFCLABEL('btaUppermostStorey')),$);
#301=IFCPROPERTYSET('000000001008000000004v',$,'CAD_BauteilAllgemein',$,(#300));
#302=IFCRELDEFINESBYPROPERTIES('0000000010080000000050',$,$,$,(#296),#301);
#303=IFCPROPERTYSET('0000000010080000000051',$,'CAD_BauteilEnergetik',$,(#304));
#304=IFCPROPERTYSINGLEVALUE('ElementEnergyConsultingProperties.CladdingSurface',$,IFCBOOLEAN(.T.),$);
#305=IFCRELDEFINESBYPROPERTIES('0000000010080000000052',$,$,$,(#296),#303);
#306=IFCPROPERTYSET('0000000010080000000053',$,'CAD_Bauteilreferenzen',$,(#307));
#307=IFCPROPERTYSINGLEVALUE('UValue (W/(m\X\B2 K))',$,IFCREAL(0.3),$);
#308=IFCRELDEFINESBYPROPERTIES('0000000010080000000054',$,$,$,(#296),#306);
#309=IFCQUANTITYAREA('GrossArea',$,$,20.);
#310=IFCQUANTITYAREA('NetArea',$,$,20.);
#311=IFCQUANTITYLENGTH('Width',$,$,5000.);
#312=IFCQUANTITYLENGTH('Length',$,$,4000.);
#313=IFCELEMENTQUANTITY('0000000010080000000055',$,'CAD_BauteilQuantities',$,$,(#309,#310,#311,#312));
#314=IFCRELDEFINESBYPROPERTIES('0000000010080000000056',$,$,$,(#296),#313);
#315=IFCWALL('0000000010080000000057',$,'Spitzbodenwand CAD',$,$,#318,$,$);
#316=IFCAXIS2PLACEMENT3D(#317,$,$);
#317=IFCCARTESIANPOINT((0.,0.,0.));
#318=IFCLOCALPLACEMENT(#34,#316);
#319=IFCPROPERTYENUMERATEDVALUE('AdjacentType',$,(IFCLABEL('btaOutside')),$);
#320=IFCPROPERTYSINGLEVALUE('Orientation (\X\B0)',$,IFCLABEL('270'),$);
#321=IFCPROPERTYSET('0000000010080000000058',$,'CAD_BauteilAllgemein',$,(#319,#320));
#322=IFCRELDEFINESBYPROPERTIES('0000000010080000000059',$,$,$,(#315),#321);
#323=IFCPROPERTYSET('000000001008000000005G',$,'CAD_BauteilEnergetik',$,(#324));
#324=IFCPROPERTYSINGLEVALUE('ElementEnergyConsultingProperties.CladdingSurface',$,IFCBOOLEAN(.F.),$);
#325=IFCRELDEFINESBYPROPERTIES('000000001008000000005H',$,$,$,(#315),#323);
#326=IFCPROPERTYSET('000000001008000000005I',$,'CAD_Bauteilreferenzen',$,(#327));
#327=IFCPROPERTYSINGLEVALUE('UValue (W/(m\X\B2 K))',$,IFCREAL(0.3),$);
#328=IFCRELDEFINESBYPROPERTIES('000000001008000000005J',$,$,$,(#315),#326);
#329=IFCQUANTITYAREA('GrossArea',$,$,8.);
#330=IFCQUANTITYAREA('NetArea',$,$,8.);
#331=IFCQUANTITYLENGTH('Width',$,$,3200.);
#332=IFCQUANTITYLENGTH('Length',$,$,2500.);
#333=IFCELEMENTQUANTITY('000000001008000000005K',$,'CAD_BauteilQuantities',$,$,(#329,#330,#331,#332));
#334=IFCRELDEFINESBYPROPERTIES('000000001008000000005L',$,$,$,(#315),#333);
ENDSEC;
END-ISO-10303-21;
