ISO-10303-21;
HEADER;
FILE_DESCRIPTION (('ViewDefinition [ReferenceView]'), '2;1');
FILE_NAME ('ifc2x3_schichten.ifc', '2026-09-25T00:00:00', (''), (''), 'EPOS-Plan Importprobe (EPOS.Kern.Tests)', 'EPOS-Plan Importprobe, selbst erzeugt', '');
FILE_SCHEMA (('IFC2X3'));
ENDSEC;
DATA;
#1=IFCPROJECT('0000000010080000000001',$,'Importprobe',$,$,$,$,(#8),#2);
#2=IFCUNITASSIGNMENT((#3,#4,#5,#6,#7));
#3=IFCSIUNIT(*,.LENGTHUNIT.,.MILLI.,.METRE.);
#4=IFCSIUNIT(*,.AREAUNIT.,$,.SQUARE_METRE.);
#5=IFCSIUNIT(*,.VOLUMEUNIT.,$,.CUBIC_METRE.);
#6=IFCSIUNIT(*,.PLANEANGLEUNIT.,$,.RADIAN.);
#7=IFCSIUNIT(*,.THERMODYNAMICTEMPERATUREUNIT.,$,.DEGREE_CELSIUS.);
#8=IFCGEOMETRICREPRESENTATIONCONTEXT($,'Model',3,1.E-05,#9,#11);
#9=IFCAXIS2PLACEMENT3D(#10,$,$);
#10=IFCCARTESIANPOINT((0.,0.,0.));
#11=IFCDIRECTION((0.,1.,0.));
#12=IFCSITE('0000000010080000000002',$,'Grundst\X\FCck',$,$,#15,$,$,.ELEMENT.,$,$,$,$,$);
#13=IFCAXIS2PLACEMENT3D(#14,$,$);
#14=IFCCARTESIANPOINT((0.,0.,0.));
#15=IFCLOCALPLACEMENT($,#13);
#16=IFCRELAGGREGATES('0000000010080000000003',$,$,$,#1,(#12));
#17=IFCBUILDING('0000000010080000000004',$,'Schichtenhaus',$,$,#20,$,$,.ELEMENT.,$,$,$);
#18=IFCAXIS2PLACEMENT3D(#19,$,$);
#19=IFCCARTESIANPOINT((0.,0.,0.));
#20=IFCLOCALPLACEMENT(#15,#18);
#21=IFCRELAGGREGATES('0000000010080000000005',$,$,$,#12,(#17));
#22=IFCBUILDINGSTOREY('0000000010080000000006',$,'Erdgeschoss',$,$,#25,$,$,.ELEMENT.,0.);
#23=IFCAXIS2PLACEMENT3D(#24,$,$);
#24=IFCCARTESIANPOINT((0.,0.,0.));
#25=IFCLOCALPLACEMENT(#20,#23);
#26=IFCRELAGGREGATES('0000000010080000000007',$,$,$,#17,(#22));
#27=IFCSPACE('0000000010080000000008',$,'0.01',$,$,#30,$,'Wohnen',.ELEMENT.,.INTERNAL.,$);
#28=IFCAXIS2PLACEMENT3D(#29,$,$);
#29=IFCCARTESIANPOINT((150.,150.,0.));
#30=IFCLOCALPLACEMENT(#25,#28);
#31=IFCRELAGGREGATES('0000000010080000000009',$,$,$,#22,(#27));
#32=IFCQUANTITYAREA('NetFloorArea',$,$,80.);
#33=IFCQUANTITYLENGTH('Height',$,$,2500.);
#34=IFCQUANTITYVOLUME('NetVolume',$,$,200.);
#35=IFCELEMENTQUANTITY('000000001008000000000G',$,'BaseQuantities',$,$,(#32,#33,#34));
#36=IFCRELDEFINESBYPROPERTIES('000000001008000000000H',$,$,$,(#27),#35);
#37=IFCPROPERTYSET('000000001008000000000I',$,'Pset_SpaceCommon',$,(#38));
#38=IFCPROPERTYSINGLEVALUE('IsExternal',$,IFCBOOLEAN(.F.),$);
#39=IFCRELDEFINESBYPROPERTIES('000000001008000000000J',$,$,$,(#27),#37);
#40=IFCPROPERTYSET('000000001008000000000K',$,'Pset_SpaceThermalRequirements',$,(#41));
#41=IFCPROPERTYSINGLEVALUE('SpaceTemperatureMin',$,IFCTHERMODYNAMICTEMPERATUREMEASURE(20.),$);
#42=IFCRELDEFINESBYPROPERTIES('000000001008000000000L',$,$,$,(#27),#40);
#43=IFCWALLTYPE('000000001008000000000M',$,'Au\X\DFenwand Typ S',$,$,(#44),$,$,$,.STANDARD.);
#44=IFCPROPERTYSET('000000001008000000000N',$,'Pset_WallCommon',$,(#45));
#45=IFCPROPERTYSINGLEVALUE('IsExternal',$,IFCBOOLEAN(.T.),$);
#46=IFCMATERIAL('Putz');
#47=IFCTHERMALMATERIALPROPERTIES(#46,1000.,$,$,0.7);
#48=IFCGENERALMATERIALPROPERTIES(#46,$,$,1400.);
#49=IFCMATERIAL('Mauerwerk');
#50=IFCTHERMALMATERIALPROPERTIES(#49,1000.,$,$,0.5);
#51=IFCGENERALMATERIALPROPERTIES(#49,$,$,1200.);
#52=IFCMATERIAL('D\X\E4mmung');
#53=IFCTHERMALMATERIALPROPERTIES(#52,1500.,$,$,0.04);
#54=IFCGENERALMATERIALPROPERTIES(#52,$,$,30.);
#55=IFCEXTENDEDMATERIALPROPERTIES(#52,(#56),$,'Pset_MaterialThermal');
#56=IFCPROPERTYSINGLEVALUE('ThermalConductivity',$,IFCTHERMALCONDUCTIVITYMEASURE(0.04),$);
#57=IFCMATERIAL('Beton');
#58=IFCTHERMALMATERIALPROPERTIES(#57,1000.,$,$,2.);
#59=IFCGENERALMATERIALPROPERTIES(#57,$,$,2400.);
#60=IFCMATERIALLAYERSET((#61,#62,#63),'Au\X\DFenwand innen zuerst');
#61=IFCMATERIALLAYER(#46,15.,$);
#62=IFCMATERIALLAYER(#49,240.,$);
#63=IFCMATERIALLAYER(#52,100.,$);
#64=IFCMATERIALLAYERSET((#65,#66,#67),'Au\X\DFenwand au\X\DFen zuerst');
#65=IFCMATERIALLAYER(#52,100.,$);
#66=IFCMATERIALLAYER(#49,240.,$);
#67=IFCMATERIALLAYER(#46,15.,$);
#68=IFCMATERIALLAYERSET((#69,#70),'Dach');
#69=IFCMATERIALLAYER(#57,200.,$);
#70=IFCMATERIALLAYER(#52,200.,$);
#71=IFCMATERIALLAYERSET((#72,#73),'Bodenplatte');
#72=IFCMATERIALLAYER(#52,100.,$);
#73=IFCMATERIALLAYER(#57,200.,$);
#74=IFCWALL('000000001008000000000O',$,'S\X\FCd',$,$,#77,$,$);
#75=IFCAXIS2PLACEMENT3D(#76,$,$);
#76=IFCCARTESIANPOINT((0.,0.,0.));
#77=IFCLOCALPLACEMENT(#25,#75);
#78=IFCRELCONTAINEDINSPATIALSTRUCTURE('000000001008000000000P',$,$,$,(#74,#88,#100,#112,#124,#136,#149),#22);
#79=IFCRELDEFINESBYTYPE('000000001008000000000W',$,$,$,(#74,#100,#112,#124),#43);
#80=IFCQUANTITYAREA('GrossSideArea',$,$,25.);
#81=IFCELEMENTQUANTITY('000000001008000000000X',$,'BaseQuantities',$,$,(#80));
#82=IFCRELDEFINESBYPROPERTIES('000000001008000000000Y',$,$,$,(#74),#81);
#83=IFCRELSPACEBOUNDARY('000000001008000000000Z',$,'2ndLevel','2a',#27,#74,$,.PHYSICAL.,.EXTERNAL.);
#84=IFCMATERIALLAYERSETUSAGE(#60,.AXIS2.,.NEGATIVE.,0.);
#85=IFCRELASSOCIATESMATERIAL('000000001008000000000a',$,$,$,(#74),#84);
#86=IFCOPENINGELEMENT('000000001008000000000b',$,'\X\D6ffnung F-S',$,$,$,$,$);
#87=IFCRELVOIDSELEMENT('000000001008000000000c',$,$,$,#74,#86);
#88=IFCWINDOW('000000001008000000000d',$,'F-S',$,$,$,$,$,$,$);
#89=IFCRELFILLSELEMENT('000000001008000000000e',$,$,$,#86,#88);
#90=IFCQUANTITYAREA('Area',$,$,5.);
#91=IFCELEMENTQUANTITY('000000001008000000000f',$,'Qto_WindowBaseQuantities',$,$,(#90));
#92=IFCRELDEFINESBYPROPERTIES('000000001008000000000m',$,$,$,(#88),#91);
#93=IFCPROPERTYSET('000000001008000000000n',$,'Pset_WindowCommon',$,(#94,#95));
#94=IFCPROPERTYSINGLEVALUE('IsExternal',$,IFCBOOLEAN(.T.),$);
#95=IFCPROPERTYSINGLEVALUE('ThermalTransmittance',$,IFCTHERMALTRANSMITTANCEMEASURE(1.1),$);
#96=IFCRELDEFINESBYPROPERTIES('000000001008000000000o',$,$,$,(#88),#93);
#97=IFCPROPERTYSET('000000001008000000000p',$,'Pset_DoorWindowGlazingType',$,(#98));
#98=IFCPROPERTYSINGLEVALUE('SolarHeatGainTransmittance',$,IFCNORMALISEDRATIOMEASURE(0.6),$);
#99=IFCRELDEFINESBYPROPERTIES('000000001008000000000q',$,$,$,(#88),#97);
#100=IFCWALL('000000001008000000000r',$,'Ost',$,$,#105,$,$);
#101=IFCAXIS2PLACEMENT3D(#102,#103,#104);
#102=IFCCARTESIANPOINT((10000.,0.,0.));
#103=IFCDIRECTION((0.,0.,1.));
#104=IFCDIRECTION((0.,1.,0.));
#105=IFCLOCALPLACEMENT(#25,#101);
#106=IFCQUANTITYAREA('GrossSideArea',$,$,20.);
#107=IFCELEMENTQUANTITY('000000001008000000000s',$,'BaseQuantities',$,$,(#106));
#108=IFCRELDEFINESBYPROPERTIES('000000001008000000000t',$,$,$,(#100),#107);
#109=IFCRELSPACEBOUNDARY('000000001008000000000u',$,'2ndLevel','2a',#27,#100,$,.PHYSICAL.,.EXTERNAL.);
#110=IFCMATERIALLAYERSETUSAGE(#64,.AXIS2.,.POSITIVE.,0.);
#111=IFCRELASSOCIATESMATERIAL('000000001008000000000v',$,$,$,(#100),#110);
#112=IFCWALL('0000000010080000000010',$,'Nord',$,$,#117,$,$);
#113=IFCAXIS2PLACEMENT3D(#114,#115,#116);
#114=IFCCARTESIANPOINT((10000.,8000.,0.));
#115=IFCDIRECTION((0.,0.,1.));
#116=IFCDIRECTION((-1.,0.,0.));
#117=IFCLOCALPLACEMENT(#25,#113);
#118=IFCQUANTITYAREA('GrossSideArea',$,$,25.);
#119=IFCELEMENTQUANTITY('0000000010080000000011',$,'BaseQuantities',$,$,(#118));
#120=IFCRELDEFINESBYPROPERTIES('0000000010080000000012',$,$,$,(#112),#119);
#121=IFCRELSPACEBOUNDARY('0000000010080000000013',$,'2ndLevel','2a',#27,#112,$,.PHYSICAL.,.EXTERNAL.);
#122=IFCMATERIALLAYERSETUSAGE(#60,.AXIS2.,.NEGATIVE.,0.);
#123=IFCRELASSOCIATESMATERIAL('0000000010080000000014',$,$,$,(#112),#122);
#124=IFCWALL('0000000010080000000015',$,'West',$,$,#129,$,$);
#125=IFCAXIS2PLACEMENT3D(#126,#127,#128);
#126=IFCCARTESIANPOINT((0.,8000.,0.));
#127=IFCDIRECTION((0.,0.,1.));
#128=IFCDIRECTION((0.,-1.,0.));
#129=IFCLOCALPLACEMENT(#25,#125);
#130=IFCQUANTITYAREA('GrossSideArea',$,$,20.);
#131=IFCELEMENTQUANTITY('0000000010080000000016',$,'BaseQuantities',$,$,(#130));
#132=IFCRELDEFINESBYPROPERTIES('0000000010080000000017',$,$,$,(#124),#131);
#133=IFCRELSPACEBOUNDARY('0000000010080000000018',$,'2ndLevel','2a',#27,#124,$,.PHYSICAL.,.EXTERNAL.);
#134=IFCMATERIALLAYERSETUSAGE(#64,.AXIS2.,.POSITIVE.,0.);
#135=IFCRELASSOCIATESMATERIAL('0000000010080000000019',$,$,$,(#124),#134);
#136=IFCSLAB('000000001008000000001G',$,'Dach',$,$,#139,$,$,.ROOF.);
#137=IFCAXIS2PLACEMENT3D(#138,$,$);
#138=IFCCARTESIANPOINT((0.,0.,0.));
#139=IFCLOCALPLACEMENT(#25,#137);
#140=IFCPROPERTYSET('000000001008000000001H',$,'Pset_SlabCommon',$,(#141));
#141=IFCPROPERTYSINGLEVALUE('IsExternal',$,IFCBOOLEAN(.T.),$);
#142=IFCRELDEFINESBYPROPERTIES('000000001008000000001I',$,$,$,(#136),#140);
#143=IFCQUANTITYAREA('GrossArea',$,$,80.);
#144=IFCELEMENTQUANTITY('000000001008000000001J',$,'BaseQuantities',$,$,(#143));
#145=IFCRELDEFINESBYPROPERTIES('000000001008000000001K',$,$,$,(#136),#144);
#146=IFCRELSPACEBOUNDARY('000000001008000000001L',$,'2ndLevel','2a',#27,#136,$,.PHYSICAL.,.EXTERNAL.);
#147=IFCMATERIALLAYERSETUSAGE(#68,.AXIS3.,.POSITIVE.,0.);
#148=IFCRELASSOCIATESMATERIAL('000000001008000000001M',$,$,$,(#136),#147);
#149=IFCSLAB('000000001008000000001N',$,'Bodenplatte',$,$,#152,$,$,.BASESLAB.);
#150=IFCAXIS2PLACEMENT3D(#151,$,$);
#151=IFCCARTESIANPOINT((0.,0.,0.));
#152=IFCLOCALPLACEMENT(#25,#150);
#153=IFCPROPERTYSET('000000001008000000001O',$,'Pset_SlabCommon',$,(#154));
#154=IFCPROPERTYSINGLEVALUE('IsExternal',$,IFCBOOLEAN(.T.),$);
#155=IFCRELDEFINESBYPROPERTIES('000000001008000000001P',$,$,$,(#149),#153);
#156=IFCQUANTITYAREA('GrossArea',$,$,80.);
#157=IFCELEMENTQUANTITY('000000001008000000001W',$,'BaseQuantities',$,$,(#156));
#158=IFCRELDEFINESBYPROPERTIES('000000001008000000001X',$,$,$,(#149),#157);
#159=IFCRELSPACEBOUNDARY('000000001008000000001Y',$,'2ndLevel','EXTERNAL_EARTH',#27,#149,$,.PHYSICAL.,.INTERNAL.);
#160=IFCMATERIALLAYERSETUSAGE(#71,.AXIS3.,.POSITIVE.,0.);
#161=IFCRELASSOCIATESMATERIAL('000000001008000000001Z',$,$,$,(#149),#160);
ENDSEC;
END-ISO-10303-21;
