ISO-10303-21;
HEADER;
FILE_DESCRIPTION (('ViewDefinition [ReferenceView]'), '2;1');
FILE_NAME ('ifc2x3_referenzen.ifc', '2026-09-25T00:00:00', (''), (''), 'EPOS-Plan Importprobe (EPOS.Kern.Tests)', 'EPOS-Plan Importprobe, selbst erzeugt', '');
FILE_SCHEMA (('IFC2X3'));
ENDSEC;
DATA;
#1=IFCPROJECT('0000000010080000000001',$,'Importprobe',$,$,$,$,(#8),#2);
#2=IFCUNITASSIGNMENT((#3,#4,#5,#6,#7));
#3=IFCSIUNIT(*,.LENGTHUNIT.,.MILLI.,.METRE.);
#4=IFCSIUNIT(*,.AREAUNIT.,$,.SQUARE_METRE.);
#5=IFCSIUNIT(*,.VOLUMEUNIT.,$,.CUBIC_METRE.);
#6=IFCSIUNIT(*,.PLANEANGLEUNIT.,$,.RADIAN.);
#7=IFCSIUNIT(*,.THERMODYNAMICTEMPERATUREUNIT.,$,.DEGREE_CELSIUS.);
#8=IFCGEOMETRICREPRESENTATIONCONTEXT($,'Model',3,1.E-05,#9,#11);
#9=IFCAXIS2PLACEMENT3D(#10,$,$);
#10=IFCCARTESIANPOINT((0.,0.,0.));
#11=IFCDIRECTION((0.,1.,0.));
#12=IFCSITE('0000000010080000000002',$,'Grundst\X\FCck',$,$,#15,$,$,.ELEMENT.,$,$,$,$,$);
#13=IFCAXIS2PLACEMENT3D(#14,$,$);
#14=IFCCARTESIANPOINT((0.,0.,0.));
#15=IFCLOCALPLACEMENT($,#13);
#16=IFCRELAGGREGATES('0000000010080000000003',$,$,$,#1,(#12));
#17=IFCBUILDING('0000000010080000000004',$,'Geb\X\E4ude',$,$,#20,$,$,.ELEMENT.,$,$,$);
#18=IFCAXIS2PLACEMENT3D(#19,$,$);
#19=IFCCARTESIANPOINT((0.,0.,0.));
#20=IFCLOCALPLACEMENT(#15,#18);
#21=IFCRELAGGREGATES('0000000010080000000005',$,$,$,#12,(#17));
#22=IFCBUILDINGSTOREY('0000000010080000000006',$,'KG',$,$,#25,$,$,.ELEMENT.,-2600.);
#23=IFCAXIS2PLACEMENT3D(#24,$,$);
#24=IFCCARTESIANPOINT((0.,0.,-2600.));
#25=IFCLOCALPLACEMENT(#20,#23);
#26=IFCRELCONTAINEDINSPATIALSTRUCTURE('0000000010080000000007',$,$,$,(#22,#27,#31),#17);
#27=IFCBUILDINGSTOREY('0000000010080000000008',$,'EG',$,$,#30,$,$,.ELEMENT.,0.);
#28=IFCAXIS2PLACEMENT3D(#29,$,$);
#29=IFCCARTESIANPOINT((0.,0.,0.));
#30=IFCLOCALPLACEMENT(#20,#28);
#31=IFCBUILDINGSTOREY('0000000010080000000009',$,'OG',$,$,#34,$,$,.ELEMENT.,2800.);
#32=IFCAXIS2PLACEMENT3D(#33,$,$);
#33=IFCCARTESIANPOINT((0.,0.,2800.));
#34=IFCLOCALPLACEMENT(#20,#32);
#35=IFCSPACE('000000001008000000000G',$,'Keller',$,$,#38,$,$,.ELEMENT.,.INTERNAL.,$);
#36=IFCAXIS2PLACEMENT3D(#37,$,$);
#37=IFCCARTESIANPOINT((150.,150.,0.));
#38=IFCLOCALPLACEMENT(#25,#36);
#39=IFCRELCONTAINEDINSPATIALSTRUCTURE('000000001008000000000H',$,$,$,(#35,#298),#22);
#40=IFCQUANTITYAREA('Area',$,$,50.);
#41=IFCQUANTITYVOLUME('Volume',$,$,125.);
#42=IFCQUANTITYLENGTH('Height',$,$,2500.);
#43=IFCELEMENTQUANTITY('000000001008000000000I',$,'CAD_RaumQuantities',$,$,(#40,#41,#42));
#44=IFCRELDEFINESBYPROPERTIES('000000001008000000000J',$,$,$,(#35),#43);
#45=IFCSPACE('000000001008000000000K',$,'Wohnen',$,$,#48,$,$,.ELEMENT.,.INTERNAL.,$);
#46=IFCAXIS2PLACEMENT3D(#47,$,$);
#47=IFCCARTESIANPOINT((150.,150.,0.));
#48=IFCLOCALPLACEMENT(#30,#46);
#49=IFCRELCONTAINEDINSPATIALSTRUCTURE('000000001008000000000L',$,$,$,(#45,#55,#64,#109,#160,#177,#211,#228,#245,#262),#27);
#50=IFCQUANTITYAREA('Area',$,$,40.);
#51=IFCQUANTITYVOLUME('Volume',$,$,100.);
#52=IFCQUANTITYLENGTH('Height',$,$,2500.);
#53=IFCELEMENTQUANTITY('000000001008000000000M',$,'CAD_RaumQuantities',$,$,(#50,#51,#52));
#54=IFCRELDEFINESBYPROPERTIES('000000001008000000000N',$,$,$,(#45),#53);
#55=IFCSPACE('000000001008000000000O',$,'K\X\FCche',$,$,#58,$,$,.ELEMENT.,.INTERNAL.,$);
#56=IFCAXIS2PLACEMENT3D(#57,$,$);
#57=IFCCARTESIANPOINT((6150.,150.,0.));
#58=IFCLOCALPLACEMENT(#30,#56);
#59=IFCQUANTITYAREA('Area',$,$,20.);
#60=IFCQUANTITYVOLUME('Volume',$,$,50.);
#61=IFCQUANTITYLENGTH('Height',$,$,2500.);
#62=IFCELEMENTQUANTITY('000000001008000000000P',$,'CAD_RaumQuantities',$,$,(#59,#60,#61));
#63=IFCRELDEFINESBYPROPERTIES('000000001008000000000W',$,$,$,(#55),#62);
#64=IFCSPACE('000000001008000000000X',$,'Abstellraum',$,$,#67,$,$,.ELEMENT.,.INTERNAL.,$);
#65=IFCAXIS2PLACEMENT3D(#66,$,$);
#66=IFCCARTESIANPOINT((6150.,4150.,0.));
#67=IFCLOCALPLACEMENT(#30,#65);
#68=IFCQUANTITYAREA('Area',$,$,5.);
#69=IFCQUANTITYVOLUME('Volume',$,$,12.5);
#70=IFCQUANTITYLENGTH('Height',$,$,2500.);
#71=IFCELEMENTQUANTITY('000000001008000000000Y',$,'CAD_RaumQuantities',$,$,(#68,#69,#70));
#72=IFCRELDEFINESBYPROPERTIES('000000001008000000000Z',$,$,$,(#64),#71);
#73=IFCSPACE('000000001008000000000a',$,'Schlafen',$,$,#76,$,$,.ELEMENT.,.INTERNAL.,$);
#74=IFCAXIS2PLACEMENT3D(#75,$,$);
#75=IFCCARTESIANPOINT((150.,150.,0.));
#76=IFCLOCALPLACEMENT(#34,#74);
#77=IFCRELCONTAINEDINSPATIALSTRUCTURE('000000001008000000000b',$,$,$,(#73,#83,#92,#126,#143,#194,#280),#31);
#78=IFCQUANTITYAREA('Area',$,$,35.);
#79=IFCQUANTITYVOLUME('Volume',$,$,87.5);
#80=IFCQUANTITYLENGTH('Height',$,$,2500.);
#81=IFCELEMENTQUANTITY('000000001008000000000c',$,'CAD_RaumQuantities',$,$,(#78,#79,#80));
#82=IFCRELDEFINESBYPROPERTIES('000000001008000000000d',$,$,$,(#73),#81);
#83=IFCSPACE('000000001008000000000e',$,'Kind',$,$,#86,$,$,.ELEMENT.,.INTERNAL.,$);
#84=IFCAXIS2PLACEMENT3D(#85,$,$);
#85=IFCCARTESIANPOINT((6150.,150.,0.));
#86=IFCLOCALPLACEMENT(#34,#84);
#87=IFCQUANTITYAREA('Area',$,$,25.);
#88=IFCQUANTITYVOLUME('Volume',$,$,62.5);
#89=IFCQUANTITYLENGTH('Height',$,$,2500.);
#90=IFCELEMENTQUANTITY('000000001008000000000f',$,'CAD_RaumQuantities',$,$,(#87,#88,#89));
#91=IFCRELDEFINESBYPROPERTIES('000000001008000000000m',$,$,$,(#83),#90);
#92=IFCSLAB('000000001008000000000n',$,'Decke EG/OG',$,$,#95,$,$,$);
#93=IFCAXIS2PLACEMENT3D(#94,$,$);
#94=IFCCARTESIANPOINT((0.,0.,0.));
#95=IFCLOCALPLACEMENT(#34,#93);
#96=IFCPROPERTYENUMERATEDVALUE('AdjacentType',$,(IFCLABEL('btaHeated')),$);
#97=IFCPROPERTYSET('000000001008000000000o',$,'CAD_BauteilAllgemein',$,(#96));
#98=IFCRELDEFINESBYPROPERTIES('000000001008000000000p',$,$,$,(#92),#97);
#99=IFCPROPERTYSET('000000001008000000000q',$,'CAD_BauteilEnergetik',$,(#100));
#100=IFCPROPERTYSINGLEVALUE('ElementEnergyConsultingProperties.CladdingSurface',$,IFCBOOLEAN(.F.),$);
#101=IFCRELDEFINESBYPROPERTIES('000000001008000000000r',$,$,$,(#92),#99);
#102=IFCPROPERTYSET('000000001008000000000s',$,'CAD_Bauteilreferenzen',$,(#103));
#103=IFCPROPERTYSINGLEVALUE('UValue (W/(m\X\B2 K))',$,IFCREAL(1.),$);
#104=IFCRELDEFINESBYPROPERTIES('000000001008000000000t',$,$,$,(#92),#102);
#105=IFCQUANTITYAREA('GrossArea',$,$,60.);
#106=IFCQUANTITYAREA('NetArea',$,$,60.);
#107=IFCELEMENTQUANTITY('000000001008000000000u',$,'CAD_BauteilQuantities',$,$,(#105,#106));
#108=IFCRELDEFINESBYPROPERTIES('000000001008000000000v',$,$,$,(#92),#107);
#109=IFCSLAB('0000000010080000000010',$,'Kellerdecke',$,$,#112,$,$,$);
#110=IFCAXIS2PLACEMENT3D(#111,$,$);
#111=IFCCARTESIANPOINT((0.,0.,0.));
#112=IFCLOCALPLACEMENT(#30,#110);
#113=IFCPROPERTYENUMERATEDVALUE('AdjacentType',$,(IFCLABEL('btaCellarCeiling')),$);
#114=IFCPROPERTYSET('0000000010080000000011',$,'CAD_BauteilAllgemein',$,(#113));
#115=IFCRELDEFINESBYPROPERTIES('0000000010080000000012',$,$,$,(#109),#114);
#116=IFCPROPERTYSET('0000000010080000000013',$,'CAD_BauteilEnergetik',$,(#117));
#117=IFCPROPERTYSINGLEVALUE('ElementEnergyConsultingProperties.CladdingSurface',$,IFCBOOLEAN(.T.),$);
#118=IFCRELDEFINESBYPROPERTIES('0000000010080000000014',$,$,$,(#109),#116);
#119=IFCPROPERTYSET('0000000010080000000015',$,'CAD_Bauteilreferenzen',$,(#120));
#120=IFCPROPERTYSINGLEVALUE('UValue (W/(m\X\B2 K))',$,IFCREAL(0.4),$);
#121=IFCRELDEFINESBYPROPERTIES('0000000010080000000016',$,$,$,(#109),#119);
#122=IFCQUANTITYAREA('GrossArea',$,$,65.);
#123=IFCQUANTITYAREA('NetArea',$,$,65.);
#124=IFCELEMENTQUANTITY('0000000010080000000017',$,'CAD_BauteilQuantities',$,$,(#122,#123));
#125=IFCRELDEFINESBYPROPERTIES('0000000010080000000018',$,$,$,(#109),#124);
#126=IFCSLAB('0000000010080000000019',$,'Oberste Decke',$,$,#129,$,$,$);
#127=IFCAXIS2PLACEMENT3D(#128,$,$);
#128=IFCCARTESIANPOINT((0.,0.,0.));
#129=IFCLOCALPLACEMENT(#34,#127);
#130=IFCPROPERTYENUMERATEDVALUE('AdjacentType',$,(IFCLABEL('btaUppermostStorey')),$);
#131=IFCPROPERTYSET('000000001008000000001G',$,'CAD_BauteilAllgemein',$,(#130));
#132=IFCRELDEFINESBYPROPERTIES('000000001008000000001H',$,$,$,(#126),#131);
#133=IFCPROPERTYSET('000000001008000000001I',$,'CAD_BauteilEnergetik',$,(#134));
#134=IFCPROPERTYSINGLEVALUE('ElementEnergyConsultingProperties.CladdingSurface',$,IFCBOOLEAN(.T.),$);
#135=IFCRELDEFINESBYPROPERTIES('000000001008000000001J',$,$,$,(#126),#133);
#136=IFCPROPERTYSET('000000001008000000001K',$,'CAD_Bauteilreferenzen',$,(#137));
#137=IFCPROPERTYSINGLEVALUE('UValue (W/(m\X\B2 K))',$,IFCREAL(0.3),$);
#138=IFCRELDEFINESBYPROPERTIES('000000001008000000001L',$,$,$,(#126),#136);
#139=IFCQUANTITYAREA('GrossArea',$,$,60.);
#140=IFCQUANTITYAREA('NetArea',$,$,60.);
#141=IFCELEMENTQUANTITY('000000001008000000001M',$,'CAD_BauteilQuantities',$,$,(#139,#140));
#142=IFCRELDEFINESBYPROPERTIES('000000001008000000001N',$,$,$,(#126),#141);
#143=IFCSLAB('000000001008000000001O',$,'Vordach',$,$,#146,$,$,$);
#144=IFCAXIS2PLACEMENT3D(#145,$,$);
#145=IFCCARTESIANPOINT((0.,0.,0.));
#146=IFCLOCALPLACEMENT(#34,#144);
#147=IFCPROPERTYENUMERATEDVALUE('AdjacentType',$,(IFCLABEL('btaOutside')),$);
#148=IFCPROPERTYSET('000000001008000000001P',$,'CAD_BauteilAllgemein',$,(#147));
#149=IFCRELDEFINESBYPROPERTIES('000000001008000000001W',$,$,$,(#143),#148);
#150=IFCPROPERTYSET('000000001008000000001X',$,'CAD_BauteilEnergetik',$,(#151));
#151=IFCPROPERTYSINGLEVALUE('ElementEnergyConsultingProperties.CladdingSurface',$,IFCBOOLEAN(.T.),$);
#152=IFCRELDEFINESBYPROPERTIES('000000001008000000001Y',$,$,$,(#143),#150);
#153=IFCPROPERTYSET('000000001008000000001Z',$,'CAD_Bauteilreferenzen',$,(#154));
#154=IFCPROPERTYSINGLEVALUE('UValue (W/(m\X\B2 K))',$,IFCREAL(0.5),$);
#155=IFCRELDEFINESBYPROPERTIES('000000001008000000001a',$,$,$,(#143),#153);
#156=IFCQUANTITYAREA('GrossArea',$,$,6.);
#157=IFCQUANTITYAREA('NetArea',$,$,6.);
#158=IFCELEMENTQUANTITY('000000001008000000001b',$,'CAD_BauteilQuantities',$,$,(#156,#157));
#159=IFCRELDEFINESBYPROPERTIES('000000001008000000001c',$,$,$,(#143),#158);
#160=IFCWALL('000000001008000000001d',$,'Innenwand EG',$,$,#163,$,$);
#161=IFCAXIS2PLACEMENT3D(#162,$,$);
#162=IFCCARTESIANPOINT((0.,0.,0.));
#163=IFCLOCALPLACEMENT(#30,#161);
#164=IFCPROPERTYENUMERATEDVALUE('AdjacentType',$,(IFCLABEL('btaHeated')),$);
#165=IFCPROPERTYSET('000000001008000000001e',$,'CAD_BauteilAllgemein',$,(#164));
#166=IFCRELDEFINESBYPROPERTIES('000000001008000000001f',$,$,$,(#160),#165);
#167=IFCPROPERTYSET('000000001008000000001m',$,'CAD_BauteilEnergetik',$,(#168));
#168=IFCPROPERTYSINGLEVALUE('ElementEnergyConsultingProperties.CladdingSurface',$,IFCBOOLEAN(.F.),$);
#169=IFCRELDEFINESBYPROPERTIES('000000001008000000001n',$,$,$,(#160),#167);
#170=IFCPROPERTYSET('000000001008000000001o',$,'CAD_Bauteilreferenzen',$,(#171));
#171=IFCPROPERTYSINGLEVALUE('UValue (W/(m\X\B2 K))',$,IFCREAL(1.5),$);
#172=IFCRELDEFINESBYPROPERTIES('000000001008000000001p',$,$,$,(#160),#170);
#173=IFCQUANTITYAREA('GrossArea',$,$,12.);
#174=IFCQUANTITYAREA('NetArea',$,$,12.);
#175=IFCELEMENTQUANTITY('000000001008000000001q',$,'CAD_BauteilQuantities',$,$,(#173,#174));
#176=IFCRELDEFINESBYPROPERTIES('000000001008000000001r',$,$,$,(#160),#175);
#177=IFCWALL('000000001008000000001s',$,'Wand Abstellraum',$,$,#180,$,$);
#178=IFCAXIS2PLACEMENT3D(#179,$,$);
#179=IFCCARTESIANPOINT((0.,0.,0.));
#180=IFCLOCALPLACEMENT(#30,#178);
#181=IFCPROPERTYENUMERATEDVALUE('AdjacentType',$,(IFCLABEL('btaHeated')),$);
#182=IFCPROPERTYSET('000000001008000000001t',$,'CAD_BauteilAllgemein',$,(#181));
#183=IFCRELDEFINESBYPROPERTIES('000000001008000000001u',$,$,$,(#177),#182);
#184=IFCPROPERTYSET('000000001008000000001v',$,'CAD_BauteilEnergetik',$,(#185));
#185=IFCPROPERTYSINGLEVALUE('ElementEnergyConsultingProperties.CladdingSurface',$,IFCBOOLEAN(.F.),$);
#186=IFCRELDEFINESBYPROPERTIES('0000000010080000000020',$,$,$,(#177),#184);
#187=IFCPROPERTYSET('0000000010080000000021',$,'CAD_Bauteilreferenzen',$,(#188));
#188=IFCPROPERTYSINGLEVALUE('UValue (W/(m\X\B2 K))',$,IFCREAL(1.5),$);
#189=IFCRELDEFINESBYPROPERTIES('0000000010080000000022',$,$,$,(#177),#187);
#190=IFCQUANTITYAREA('GrossArea',$,$,6.);
#191=IFCQUANTITYAREA('NetArea',$,$,6.);
#192=IFCELEMENTQUANTITY('0000000010080000000023',$,'CAD_BauteilQuantities',$,$,(#190,#191));
#193=IFCRELDEFINESBYPROPERTIES('0000000010080000000024',$,$,$,(#177),#192);
#194=IFCWALL('0000000010080000000025',$,'Innenwand OG',$,$,#197,$,$);
#195=IFCAXIS2PLACEMENT3D(#196,$,$);
#196=IFCCARTESIANPOINT((0.,0.,0.));
#197=IFCLOCALPLACEMENT(#34,#195);
#198=IFCPROPERTYENUMERATEDVALUE('AdjacentType',$,(IFCLABEL('btaHeated')),$);
#199=IFCPROPERTYSET('0000000010080000000026',$,'CAD_BauteilAllgemein',$,(#198));
#200=IFCRELDEFINESBYPROPERTIES('0000000010080000000027',$,$,$,(#194),#199);
#201=IFCPROPERTYSET('0000000010080000000028',$,'CAD_BauteilEnergetik',$,(#202));
#202=IFCPROPERTYSINGLEVALUE('ElementEnergyConsultingProperties.CladdingSurface',$,IFCBOOLEAN(.F.),$);
#203=IFCRELDEFINESBYPROPERTIES('0000000010080000000029',$,$,$,(#194),#201);
#204=IFCPROPERTYSET('000000001008000000002G',$,'CAD_Bauteilreferenzen',$,(#205));
#205=IFCPROPERTYSINGLEVALUE('UValue (W/(m\X\B2 K))',$,IFCREAL(1.5),$);
#206=IFCRELDEFINESBYPROPERTIES('000000001008000000002H',$,$,$,(#194),#204);
#207=IFCQUANTITYAREA('GrossArea',$,$,10.);
#208=IFCQUANTITYAREA('NetArea',$,$,10.);
#209=IFCELEMENTQUANTITY('000000001008000000002I',$,'CAD_BauteilQuantities',$,$,(#207,#208));
#210=IFCRELDEFINESBYPROPERTIES('000000001008000000002J',$,$,$,(#194),#209);
#211=IFCWALL('000000001008000000002K',$,'Treppenhauswand',$,$,#214,$,$);
#212=IFCAXIS2PLACEMENT3D(#213,$,$);
#213=IFCCARTESIANPOINT((0.,0.,0.));
#214=IFCLOCALPLACEMENT(#30,#212);
#215=IFCPROPERTYENUMERATEDVALUE('AdjacentType',$,(IFCLABEL('btaHeated')),$);
#216=IFCPROPERTYSET('000000001008000000002L',$,'CAD_BauteilAllgemein',$,(#215));
#217=IFCRELDEFINESBYPROPERTIES('000000001008000000002M',$,$,$,(#211),#216);
#218=IFCPROPERTYSET('000000001008000000002N',$,'CAD_BauteilEnergetik',$,(#219));
#219=IFCPROPERTYSINGLEVALUE('ElementEnergyConsultingProperties.CladdingSurface',$,IFCBOOLEAN(.F.),$);
#220=IFCRELDEFINESBYPROPERTIES('000000001008000000002O',$,$,$,(#211),#218);
#221=IFCPROPERTYSET('000000001008000000002P',$,'CAD_Bauteilreferenzen',$,(#222));
#222=IFCPROPERTYSINGLEVALUE('UValue (W/(m\X\B2 K))',$,IFCREAL(1.5),$);
#223=IFCRELDEFINESBYPROPERTIES('0000000010080000000040',$,$,$,(#211),#221);
#224=IFCQUANTITYAREA('GrossArea',$,$,9.);
#225=IFCQUANTITYAREA('NetArea',$,$,9.);
#226=IFCELEMENTQUANTITY('0000000010080000000041',$,'CAD_BauteilQuantities',$,$,(#224,#225));
#227=IFCRELDEFINESBYPROPERTIES('0000000010080000000042',$,$,$,(#211),#226);
#228=IFCWALL('0000000010080000000043',$,'Innenwand einzeln',$,$,#231,$,$);
#229=IFCAXIS2PLACEMENT3D(#230,$,$);
#230=IFCCARTESIANPOINT((0.,0.,0.));
#231=IFCLOCALPLACEMENT(#30,#229);
#232=IFCPROPERTYENUMERATEDVALUE('AdjacentType',$,(IFCLABEL('btaHeated')),$);
#233=IFCPROPERTYSET('0000000010080000000044',$,'CAD_BauteilAllgemein',$,(#232));
#234=IFCRELDEFINESBYPROPERTIES('0000000010080000000045',$,$,$,(#228),#233);
#235=IFCPROPERTYSET('0000000010080000000046',$,'CAD_BauteilEnergetik',$,(#236));
#236=IFCPROPERTYSINGLEVALUE('ElementEnergyConsultingProperties.CladdingSurface',$,IFCBOOLEAN(.F.),$);
#237=IFCRELDEFINESBYPROPERTIES('0000000010080000000047',$,$,$,(#228),#235);
#238=IFCPROPERTYSET('0000000010080000000048',$,'CAD_Bauteilreferenzen',$,(#239));
#239=IFCPROPERTYSINGLEVALUE('UValue (W/(m\X\B2 K))',$,IFCREAL(1.5),$);
#240=IFCRELDEFINESBYPROPERTIES('0000000010080000000049',$,$,$,(#228),#238);
#241=IFCQUANTITYAREA('GrossArea',$,$,4.);
#242=IFCQUANTITYAREA('NetArea',$,$,4.);
#243=IFCELEMENTQUANTITY('000000001008000000004G',$,'CAD_BauteilQuantities',$,$,(#241,#242));
#244=IFCRELDEFINESBYPROPERTIES('000000001008000000004H',$,$,$,(#228),#243);
#245=IFCWALL('000000001008000000004I',$,'Innenwand frei',$,$,#248,$,$);
#246=IFCAXIS2PLACEMENT3D(#247,$,$);
#247=IFCCARTESIANPOINT((0.,0.,0.));
#248=IFCLOCALPLACEMENT(#30,#246);
#249=IFCPROPERTYENUMERATEDVALUE('AdjacentType',$,(IFCLABEL('btaHeated')),$);
#250=IFCPROPERTYSET('000000001008000000004J',$,'CAD_BauteilAllgemein',$,(#249));
#251=IFCRELDEFINESBYPROPERTIES('000000001008000000004K',$,$,$,(#245),#250);
#252=IFCPROPERTYSET('000000001008000000004L',$,'CAD_BauteilEnergetik',$,(#253));
#253=IFCPROPERTYSINGLEVALUE('ElementEnergyConsultingProperties.CladdingSurface',$,IFCBOOLEAN(.F.),$);
#254=IFCRELDEFINESBYPROPERTIES('000000001008000000004M',$,$,$,(#245),#252);
#255=IFCPROPERTYSET('000000001008000000004N',$,'CAD_Bauteilreferenzen',$,(#256));
#256=IFCPROPERTYSINGLEVALUE('UValue (W/(m\X\B2 K))',$,IFCREAL(1.5),$);
#257=IFCRELDEFINESBYPROPERTIES('000000001008000000004O',$,$,$,(#245),#255);
#258=IFCQUANTITYAREA('GrossArea',$,$,8.);
#259=IFCQUANTITYAREA('NetArea',$,$,8.);
#260=IFCELEMENTQUANTITY('000000001008000000004P',$,'CAD_BauteilQuantities',$,$,(#258,#259));
#261=IFCRELDEFINESBYPROPERTIES('000000001008000000004W',$,$,$,(#245),#260);
#262=IFCWALL('000000001008000000004X',$,'Au\X\DFenwand S\X\FCd',$,$,#265,$,$);
#263=IFCAXIS2PLACEMENT3D(#264,$,$);
#264=IFCCARTESIANPOINT((0.,0.,0.));
#265=IFCLOCALPLACEMENT(#30,#263);
#266=IFCPROPERTYENUMERATEDVALUE('AdjacentType',$,(IFCLABEL('btaOutside')),$);
#267=IFCPROPERTYSINGLEVALUE('Orientation (\X\B0)',$,IFCLABEL('180'),$);
#268=IFCPROPERTYSET('000000001008000000004Y',$,'CAD_BauteilAllgemein',$,(#266,#267));
#269=IFCRELDEFINESBYPROPERTIES('000000001008000000004Z',$,$,$,(#262),#268);
#270=IFCPROPERTYSET('000000001008000000004a',$,'CAD_BauteilEnergetik',$,(#271));
#271=IFCPROPERTYSINGLEVALUE('ElementEnergyConsultingProperties.CladdingSurface',$,IFCBOOLEAN(.T.),$);
#272=IFCRELDEFINESBYPROPERTIES('000000001008000000004b',$,$,$,(#262),#270);
#273=IFCPROPERTYSET('000000001008000000004c',$,'CAD_Bauteilreferenzen',$,(#274));
#274=IFCPROPERTYSINGLEVALUE('UValue (W/(m\X\B2 K))',$,IFCREAL(0.3),$);
#275=IFCRELDEFINESBYPROPERTIES('000000001008000000004d',$,$,$,(#262),#273);
#276=IFCQUANTITYAREA('GrossArea',$,$,40.);
#277=IFCQUANTITYAREA('NetArea',$,$,40.);
#278=IFCELEMENTQUANTITY('000000001008000000004e',$,'CAD_BauteilQuantities',$,$,(#276,#277));
#279=IFCRELDEFINESBYPROPERTIES('000000001008000000004f',$,$,$,(#262),#278);
#280=IFCWALL('000000001008000000004m',$,'Au\X\DFenwand Nord',$,$,#283,$,$);
#281=IFCAXIS2PLACEMENT3D(#282,$,$);
#282=IFCCARTESIANPOINT((0.,0.,0.));
#283=IFCLOCALPLACEMENT(#34,#281);
#284=IFCPROPERTYENUMERATEDVALUE('AdjacentType',$,(IFCLABEL('btaOutside')),$);
#285=IFCPROPERTYSINGLEVALUE('Orientation (\X\B0)',$,IFCLABEL('0'),$);
#286=IFCPROPERTYSET('000000001008000000004n',$,'CAD_BauteilAllgemein',$,(#284,#285));
#287=IFCRELDEFINESBYPROPERTIES('000000001008000000004o',$,$,$,(#280),#286);
#288=IFCPROPERTYSET('000000001008000000004p',$,'CAD_BauteilEnergetik',$,(#289));
#289=IFCPROPERTYSINGLEVALUE('ElementEnergyConsultingProperties.CladdingSurface',$,IFCBOOLEAN(.T.),$);
#290=IFCRELDEFINESBYPROPERTIES('000000001008000000004q',$,$,$,(#280),#288);
#291=IFCPROPERTYSET('000000001008000000004r',$,'CAD_Bauteilreferenzen',$,(#292));
#292=IFCPROPERTYSINGLEVALUE('UValue (W/(m\X\B2 K))',$,IFCREAL(0.3),$);
#293=IFCRELDEFINESBYPROPERTIES('000000001008000000004s',$,$,$,(#280),#291);
#294=IFCQUANTITYAREA('GrossArea',$,$,40.);
#295=IFCQUANTITYAREA('NetArea',$,$,40.);
#296=IFCELEMENTQUANTITY('000000001008000000004t',$,'CAD_BauteilQuantities',$,$,(#294,#295));
#297=IFCRELDEFINESBYPROPERTIES('000000001008000000004u',$,$,$,(#280),#296);
#298=IFCWALL('000000001008000000004v',$,'Kellerwand',$,$,#301,$,$);
#299=IFCAXIS2PLACEMENT3D(#300,$,$);
#300=IFCCARTESIANPOINT((0.,0.,0.));
#301=IFCLOCALPLACEMENT(#25,#299);
#302=IFCPROPERTYENUMERATEDVALUE('AdjacentType',$,(IFCLABEL('btaGround')),$);
#303=IFCPROPERTYSINGLEVALUE('Orientation (\X\B0)',$,IFCLABEL('90'),$);
#304=IFCPROPERTYSET('0000000010080000000050',$,'CAD_BauteilAllgemein',$,(#302,#303));
#305=IFCRELDEFINESBYPROPERTIES('0000000010080000000051',$,$,$,(#298),#304);
#306=IFCPROPERTYSET('0000000010080000000052',$,'CAD_BauteilEnergetik',$,(#307));
#307=IFCPROPERTYSINGLEVALUE('ElementEnergyConsultingProperties.CladdingSurface',$,IFCBOOLEAN(.F.),$);
#308=IFCRELDEFINESBYPROPERTIES('0000000010080000000053',$,$,$,(#298),#306);
#309=IFCPROPERTYSET('0000000010080000000054',$,'CAD_Bauteilreferenzen',$,(#310));
#310=IFCPROPERTYSINGLEVALUE('UValue (W/(m\X\B2 K))',$,IFCREAL(0.5),$);
#311=IFCRELDEFINESBYPROPERTIES('0000000010080000000055',$,$,$,(#298),#309);
#312=IFCQUANTITYAREA('GrossArea',$,$,30.);
#313=IFCQUANTITYAREA('NetArea',$,$,30.);
#314=IFCELEMENTQUANTITY('0000000010080000000056',$,'CAD_BauteilQuantities',$,$,(#312,#313));
#315=IFCRELDEFINESBYPROPERTIES('0000000010080000000057',$,$,$,(#298),#314);
#316=IFCRELREFERENCEDINSPATIALSTRUCTURE('0000000010080000000058',$,'Spatial references of space Keller',$,(#109,#298),#35);
#317=IFCRELREFERENCEDINSPATIALSTRUCTURE('0000000010080000000059',$,'Spatial references of space Wohnen',$,(#92,#109,#143,#160,#211,#228,#262),#45);
#318=IFCRELREFERENCEDINSPATIALSTRUCTURE('000000001008000000005G',$,'Spatial references of space K\X\FCche',$,(#92,#109,#160,#177),#55);
#319=IFCRELREFERENCEDINSPATIALSTRUCTURE('000000001008000000005H',$,'Spatial references of space Abstellraum',$,(#109,#177),#64);
#320=IFCRELREFERENCEDINSPATIALSTRUCTURE('000000001008000000005I',$,'Spatial references of space Schlafen',$,(#92,#126,#143,#194,#211,#280),#73);
#321=IFCRELREFERENCEDINSPATIALSTRUCTURE('000000001008000000005J',$,'Spatial references of space Kind',$,(#92,#126,#194),#83);
ENDSEC;
END-ISO-10303-21;
