ISO-10303-21;
HEADER;
FILE_DESCRIPTION (('ViewDefinition [ReferenceView]'), '2;1');
FILE_NAME ('ifc4_fensterrichtung.ifc', '2026-09-25T00:00:00', (''), (''), 'EPOS-Plan Importprobe (EPOS.Kern.Tests)', 'EPOS-Plan Importprobe, selbst erzeugt', '');
FILE_SCHEMA (('IFC4'));
ENDSEC;
DATA;
#1=IFCPROJECT('0000000010080000000001',$,'Importprobe',$,$,$,$,(#8),#2);
#2=IFCUNITASSIGNMENT((#3,#4,#5,#6,#7));
#3=IFCSIUNIT(*,.LENGTHUNIT.,.MILLI.,.METRE.);
#4=IFCSIUNIT(*,.AREAUNIT.,$,.SQUARE_METRE.);
#5=IFCSIUNIT(*,.VOLUMEUNIT.,$,.CUBIC_METRE.);
#6=IFCSIUNIT(*,.PLANEANGLEUNIT.,$,.RADIAN.);
#7=IFCSIUNIT(*,.THERMODYNAMICTEMPERATUREUNIT.,$,.DEGREE_CELSIUS.);
#8=IFCGEOMETRICREPRESENTATIONCONTEXT($,'Model',3,1.E-05,#9,#11);
#9=IFCAXIS2PLACEMENT3D(#10,$,$);
#10=IFCCARTESIANPOINT((0.,0.,0.));
#11=IFCDIRECTION((0.,1.,0.));
#12=IFCSITE('0000000010080000000002',$,'Grundst\X\FCck',$,$,#15,$,$,.ELEMENT.,$,$,$,$,$);
#13=IFCAXIS2PLACEMENT3D(#14,$,$);
#14=IFCCARTESIANPOINT((0.,0.,0.));
#15=IFCLOCALPLACEMENT($,#13);
#16=IFCRELAGGREGATES('0000000010080000000003',$,$,$,#1,(#12));
#17=IFCBUILDING('0000000010080000000004',$,'Fensterhaus',$,$,#20,$,$,.ELEMENT.,$,$,$);
#18=IFCAXIS2PLACEMENT3D(#19,$,$);
#19=IFCCARTESIANPOINT((0.,0.,0.));
#20=IFCLOCALPLACEMENT(#15,#18);
#21=IFCRELAGGREGATES('0000000010080000000005',$,$,$,#12,(#17));
#22=IFCBUILDINGSTOREY('0000000010080000000006',$,'Erdgeschoss',$,$,#25,$,$,.ELEMENT.,0.);
#23=IFCAXIS2PLACEMENT3D(#24,$,$);
#24=IFCCARTESIANPOINT((0.,0.,0.));
#25=IFCLOCALPLACEMENT(#20,#23);
#26=IFCRELAGGREGATES('0000000010080000000007',$,$,$,#17,(#22));
#27=IFCSPACE('0000000010080000000008',$,'0.01',$,$,#30,#50,'Wohnen',.ELEMENT.,$,$);
#28=IFCAXIS2PLACEMENT3D(#29,$,$);
#29=IFCCARTESIANPOINT((0.,0.,0.));
#30=IFCLOCALPLACEMENT(#25,#28);
#31=IFCRELAGGREGATES('0000000010080000000009',$,$,$,#22,(#27,#51));
#32=IFCPROPERTYSET('000000001008000000000G',$,'Pset_SpaceCommon',$,(#33));
#33=IFCPROPERTYSINGLEVALUE('IsExternal',$,IFCBOOLEAN(.F.),$);
#34=IFCRELDEFINESBYPROPERTIES('000000001008000000000H',$,$,$,(#27),#32);
#35=IFCPROPERTYBOUNDEDVALUE('SpaceTemperature',$,IFCTHERMODYNAMICTEMPERATUREMEASURE(26.),IFCTHERMODYNAMICTEMPERATUREMEASURE(18.),$,IFCTHERMODYNAMICTEMPERATUREMEASURE(20.));
#36=IFCPROPERTYSET('000000001008000000000I',$,'Pset_SpaceThermalRequirements',$,(#35));
#37=IFCRELDEFINESBYPROPERTIES('000000001008000000000J',$,$,$,(#27),#36);
#38=IFCPOLYLINE((#39,#40,#41,#42,#43));
#39=IFCCARTESIANPOINT((0.,0.));
#40=IFCCARTESIANPOINT((10000.,0.));
#41=IFCCARTESIANPOINT((10000.,8000.));
#42=IFCCARTESIANPOINT((0.,8000.));
#43=IFCCARTESIANPOINT((0.,0.));
#44=IFCARBITRARYCLOSEDPROFILEDEF(.AREA.,$,#38);
#45=IFCAXIS2PLACEMENT3D(#46,$,$);
#46=IFCCARTESIANPOINT((0.,0.,0.));
#47=IFCEXTRUDEDAREASOLID(#44,#45,#48,2500.);
#48=IFCDIRECTION((0.,0.,1.));
#49=IFCSHAPEREPRESENTATION(#8,'Body','SweptSolid',(#47));
#50=IFCPRODUCTDEFINITIONSHAPE($,$,(#49));
#51=IFCSPACE('000000001008000000000K',$,'0.02',$,$,#54,#70,'Lager',.ELEMENT.,$,$);
#52=IFCAXIS2PLACEMENT3D(#53,$,$);
#53=IFCCARTESIANPOINT((0.,-10000.,0.));
#54=IFCLOCALPLACEMENT(#25,#52);
#55=IFCPROPERTYSET('000000001008000000000L',$,'Pset_SpaceCommon',$,(#56));
#56=IFCPROPERTYSINGLEVALUE('IsExternal',$,IFCBOOLEAN(.F.),$);
#57=IFCRELDEFINESBYPROPERTIES('000000001008000000000M',$,$,$,(#51),#55);
#58=IFCPOLYLINE((#59,#60,#61,#62,#63));
#59=IFCCARTESIANPOINT((0.,0.));
#60=IFCCARTESIANPOINT((10000.,0.));
#61=IFCCARTESIANPOINT((10000.,8000.));
#62=IFCCARTESIANPOINT((0.,8000.));
#63=IFCCARTESIANPOINT((0.,0.));
#64=IFCARBITRARYCLOSEDPROFILEDEF(.AREA.,$,#58);
#65=IFCAXIS2PLACEMENT3D(#66,$,$);
#66=IFCCARTESIANPOINT((0.,0.,0.));
#67=IFCEXTRUDEDAREASOLID(#64,#65,#68,2500.);
#68=IFCDIRECTION((0.,0.,1.));
#69=IFCSHAPEREPRESENTATION(#8,'Body','SweptSolid',(#67));
#70=IFCPRODUCTDEFINITIONSHAPE($,$,(#69));
#71=IFCWALL('000000001008000000000N',$,'Wand S\X\FCd',$,$,#74,$,$,.STANDARD.);
#72=IFCAXIS2PLACEMENT3D(#73,$,$);
#73=IFCCARTESIANPOINT((0.,0.,0.));
#74=IFCLOCALPLACEMENT(#25,#72);
#75=IFCRELCONTAINEDINSPATIALSTRUCTURE('000000001008000000000O',$,$,$,(#71,#98,#107,#135,#144,#155,#179),#22);
#76=IFCPROPERTYSET('000000001008000000000P',$,'Pset_WallCommon',$,(#77));
#77=IFCPROPERTYSINGLEVALUE('IsExternal',$,IFCBOOLEAN(.T.),$);
#78=IFCRELDEFINESBYPROPERTIES('000000001008000000000W',$,$,$,(#71),#76);
#79=IFCQUANTITYAREA('GrossSideArea',$,$,25.,$);
#80=IFCELEMENTQUANTITY('000000001008000000000X',$,'Qto_WallBaseQuantities',$,$,(#79));
#81=IFCRELDEFINESBYPROPERTIES('000000001008000000000Y',$,$,$,(#71),#80);
#82=IFCOPENINGELEMENT('000000001008000000000Z',$,'\X\D6ffnung Fenster S\X\FCd',$,$,#86,#97,$,.OPENING.);
#83=IFCRELVOIDSELEMENT('000000001008000000000a',$,$,$,#71,#82);
#84=IFCAXIS2PLACEMENT3D(#85,$,$);
#85=IFCCARTESIANPOINT((0.,0.,0.));
#86=IFCLOCALPLACEMENT(#74,#84);
#87=IFCAXIS2PLACEMENT3D(#88,#89,#90);
#88=IFCCARTESIANPOINT((0.,0.,0.));
#89=IFCDIRECTION((0.,-1.,0.));
#90=IFCDIRECTION((1.,0.,0.));
#91=IFCEXTRUDEDAREASOLID(#92,#87,#95,300.);
#92=IFCRECTANGLEPROFILEDEF(.AREA.,$,#93,1500.,1200.);
#93=IFCAXIS2PLACEMENT2D(#94,$);
#94=IFCCARTESIANPOINT((1750.,1500.));
#95=IFCDIRECTION((0.,0.,1.));
#96=IFCSHAPEREPRESENTATION(#8,'Body','SweptSolid',(#91));
#97=IFCPRODUCTDEFINITIONSHAPE($,$,(#96));
#98=IFCWINDOW('000000001008000000000b',$,'Fenster S\X\FCd',$,$,$,$,$,1200.,1500.,$,$,$);
#99=IFCRELFILLSELEMENT('000000001008000000000c',$,$,$,#82,#98);
#100=IFCPROPERTYSET('000000001008000000000d',$,'Pset_WindowCommon',$,(#101,#102));
#101=IFCPROPERTYSINGLEVALUE('IsExternal',$,IFCBOOLEAN(.T.),$);
#102=IFCPROPERTYSINGLEVALUE('ThermalTransmittance (W/(m K))',$,IFCTHERMALTRANSMITTANCEMEASURE(1.1),$);
#103=IFCRELDEFINESBYPROPERTIES('000000001008000000000e',$,$,$,(#98),#100);
#104=IFCPROPERTYSET('000000001008000000000f',$,'Herstellerdaten',$,(#105));
#105=IFCPROPERTYSINGLEVALUE('ThermalTransmittance',$,IFCTHERMALTRANSMITTANCEMEASURE(1.1),$);
#106=IFCRELDEFINESBYPROPERTIES('000000001008000000000m',$,$,$,(#98),#104);
#107=IFCWALL('000000001008000000000n',$,'Wand West',$,$,#112,$,$,.STANDARD.);
#108=IFCAXIS2PLACEMENT3D(#109,#110,#111);
#109=IFCCARTESIANPOINT((0.,8000.,0.));
#110=IFCDIRECTION((0.,0.,1.));
#111=IFCDIRECTION((0.,-1.,0.));
#112=IFCLOCALPLACEMENT(#25,#108);
#113=IFCPROPERTYSET('000000001008000000000o',$,'Pset_WallCommon',$,(#114));
#114=IFCPROPERTYSINGLEVALUE('IsExternal',$,IFCBOOLEAN(.T.),$);
#115=IFCRELDEFINESBYPROPERTIES('000000001008000000000p',$,$,$,(#107),#113);
#116=IFCQUANTITYAREA('GrossSideArea',$,$,20.,$);
#117=IFCELEMENTQUANTITY('000000001008000000000q',$,'Qto_WallBaseQuantities',$,$,(#116));
#118=IFCRELDEFINESBYPROPERTIES('000000001008000000000r',$,$,$,(#107),#117);
#119=IFCOPENINGELEMENT('000000001008000000000s',$,'\X\D6ffnung T\X\FCr West',$,$,#123,#134,$,.OPENING.);
#120=IFCRELVOIDSELEMENT('000000001008000000000t',$,$,$,#107,#119);
#121=IFCAXIS2PLACEMENT3D(#122,$,$);
#122=IFCCARTESIANPOINT((0.,0.,0.));
#123=IFCLOCALPLACEMENT(#112,#121);
#124=IFCAXIS2PLACEMENT3D(#125,#126,#127);
#125=IFCCARTESIANPOINT((0.,0.,0.));
#126=IFCDIRECTION((0.,-1.,0.));
#127=IFCDIRECTION((1.,0.,0.));
#128=IFCEXTRUDEDAREASOLID(#129,#124,#132,300.);
#129=IFCRECTANGLEPROFILEDEF(.AREA.,$,#130,1000.,2000.);
#130=IFCAXIS2PLACEMENT2D(#131,$);
#131=IFCCARTESIANPOINT((3500.,1000.));
#132=IFCDIRECTION((0.,0.,1.));
#133=IFCSHAPEREPRESENTATION(#8,'Body','SweptSolid',(#128));
#134=IFCPRODUCTDEFINITIONSHAPE($,$,(#133));
#135=IFCDOOR('000000001008000000000u',$,'T\X\FCr West',$,$,$,$,$,2000.,1000.,$,$,$);
#136=IFCRELFILLSELEMENT('000000001008000000000v',$,$,$,#119,#135);
#137=IFCPROPERTYSET('0000000010080000000010',$,'Pset_DoorCommon',$,(#138,#139));
#138=IFCPROPERTYSINGLEVALUE('IsExternal',$,IFCBOOLEAN(.T.),$);
#139=IFCPROPERTYSINGLEVALUE('ThermalTransmittance (W/(m K))',$,IFCTHERMALTRANSMITTANCEMEASURE(1.8),$);
#140=IFCRELDEFINESBYPROPERTIES('0000000010080000000011',$,$,$,(#135),#137);
#141=IFCPROPERTYSET('0000000010080000000012',$,'Herstellerdaten',$,(#142));
#142=IFCPROPERTYSINGLEVALUE('ThermalTransmittance',$,IFCTHERMALTRANSMITTANCEMEASURE(1.6),$);
#143=IFCRELDEFINESBYPROPERTIES('0000000010080000000013',$,$,$,(#135),#141);
#144=IFCSLAB('0000000010080000000014',$,'Dachplatte',$,$,#147,$,$,.ROOF.);
#145=IFCAXIS2PLACEMENT3D(#146,$,$);
#146=IFCCARTESIANPOINT((0.,0.,0.));
#147=IFCLOCALPLACEMENT(#25,#145);
#148=IFCPROPERTYSET('0000000010080000000015',$,'Pset_SlabCommon',$,(#149));
#149=IFCPROPERTYSINGLEVALUE('IsExternal',$,IFCBOOLEAN(.T.),$);
#150=IFCRELDEFINESBYPROPERTIES('0000000010080000000016',$,$,$,(#144),#148);
#151=IFCQUANTITYAREA('GrossArea',$,$,100.,$);
#152=IFCQUANTITYAREA('NetArea',$,$,98.8,$);
#153=IFCELEMENTQUANTITY('0000000010080000000017',$,'Qto_SlabBaseQuantities',$,$,(#151,#152));
#154=IFCRELDEFINESBYPROPERTIES('0000000010080000000018',$,$,$,(#144),#153);
#155=IFCROOF('0000000010080000000019',$,'Dach',$,$,#158,$,$,.SHED_ROOF.);
#156=IFCAXIS2PLACEMENT3D(#157,$,$);
#157=IFCCARTESIANPOINT((0.,0.,0.));
#158=IFCLOCALPLACEMENT(#25,#156);
#159=IFCPROPERTYSET('000000001008000000001G',$,'Pset_RoofCommon',$,(#160));
#160=IFCPROPERTYSINGLEVALUE('IsExternal',$,IFCBOOLEAN(.T.),$);
#161=IFCRELDEFINESBYPROPERTIES('000000001008000000001H',$,$,$,(#155),#159);
#162=IFCRELAGGREGATES('000000001008000000001I',$,$,$,#155,(#144));
#163=IFCOPENINGELEMENT('000000001008000000001J',$,'\X\D6ffnung Dachfenster',$,$,#167,#178,$,.OPENING.);
#164=IFCRELVOIDSELEMENT('000000001008000000001K',$,$,$,#144,#163);
#165=IFCAXIS2PLACEMENT3D(#166,$,$);
#166=IFCCARTESIANPOINT((0.,0.,0.));
#167=IFCLOCALPLACEMENT(#147,#165);
#168=IFCAXIS2PLACEMENT3D(#169,#170,#171);
#169=IFCCARTESIANPOINT((0.,0.,2500.));
#170=IFCDIRECTION((0.,-0.6,0.8));
#171=IFCDIRECTION((1.,0.,0.));
#172=IFCEXTRUDEDAREASOLID(#173,#168,#176,200.);
#173=IFCRECTANGLEPROFILEDEF(.AREA.,$,#174,1000.,1200.);
#174=IFCAXIS2PLACEMENT2D(#175,$);
#175=IFCCARTESIANPOINT((5000.,5000.));
#176=IFCDIRECTION((0.,0.,1.));
#177=IFCSHAPEREPRESENTATION(#8,'Body','SweptSolid',(#172));
#178=IFCPRODUCTDEFINITIONSHAPE($,$,(#177));
#179=IFCWINDOW('000000001008000000001L',$,'Dachfenster',$,$,$,$,$,$,$,$,$,$);
#180=IFCRELFILLSELEMENT('000000001008000000001M',$,$,$,#163,#179);
#181=IFCQUANTITYAREA('Area',$,$,1.2,$);
#182=IFCELEMENTQUANTITY('000000001008000000001N',$,'Qto_WindowBaseQuantities',$,$,(#181));
#183=IFCRELDEFINESBYPROPERTIES('000000001008000000001O',$,$,$,(#179),#182);
#184=IFCPROPERTYSET('000000001008000000001P',$,'Pset_WindowCommon',$,(#185,#186));
#185=IFCPROPERTYSINGLEVALUE('IsExternal',$,IFCBOOLEAN(.T.),$);
#186=IFCPROPERTYSINGLEVALUE('ThermalTransmittance',$,IFCTHERMALTRANSMITTANCEMEASURE(1.1),$);
#187=IFCRELDEFINESBYPROPERTIES('000000001008000000001W',$,$,$,(#179),#184);
ENDSEC;
END-ISO-10303-21;
