ISO-10303-21;
HEADER;
FILE_DESCRIPTION (('ViewDefinition [ReferenceView]'), '2;1');
FILE_NAME ('ifc4_g5_wand_brep_mapped.ifc', '2026-09-25T00:00:00', (''), (''), 'EPOS-Plan Importprobe (EPOS.Kern.Tests)', 'EPOS-Plan Importprobe, selbst erzeugt', '');
FILE_SCHEMA (('IFC4'));
ENDSEC;
DATA;
#1=IFCPROJECT('0000000010080000000001',$,'Importprobe',$,$,$,$,(#8),#2);
#2=IFCUNITASSIGNMENT((#3,#4,#5,#6,#7));
#3=IFCSIUNIT(*,.LENGTHUNIT.,.MILLI.,.METRE.);
#4=IFCSIUNIT(*,.AREAUNIT.,$,.SQUARE_METRE.);
#5=IFCSIUNIT(*,.VOLUMEUNIT.,$,.CUBIC_METRE.);
#6=IFCSIUNIT(*,.PLANEANGLEUNIT.,$,.RADIAN.);
#7=IFCSIUNIT(*,.THERMODYNAMICTEMPERATUREUNIT.,$,.DEGREE_CELSIUS.);
#8=IFCGEOMETRICREPRESENTATIONCONTEXT($,'Model',3,1.E-05,#9,#11);
#9=IFCAXIS2PLACEMENT3D(#10,$,$);
#10=IFCCARTESIANPOINT((0.,0.,0.));
#11=IFCDIRECTION((0.,1.,0.));
#12=IFCSITE('0000000010080000000002',$,'Grundst\X\FCck',$,$,#15,$,$,.ELEMENT.,$,$,$,$,$);
#13=IFCAXIS2PLACEMENT3D(#14,$,$);
#14=IFCCARTESIANPOINT((0.,0.,0.));
#15=IFCLOCALPLACEMENT($,#13);
#16=IFCRELAGGREGATES('0000000010080000000003',$,$,$,#1,(#12));
#17=IFCBUILDING('0000000010080000000004',$,'K\X\F6rperhaus',$,$,#20,$,$,.ELEMENT.,$,$,$);
#18=IFCAXIS2PLACEMENT3D(#19,$,$);
#19=IFCCARTESIANPOINT((0.,0.,0.));
#20=IFCLOCALPLACEMENT(#15,#18);
#21=IFCRELAGGREGATES('0000000010080000000005',$,$,$,#12,(#17));
#22=IFCBUILDINGSTOREY('0000000010080000000006',$,'Erdgeschoss',$,$,#25,$,$,.ELEMENT.,0.);
#23=IFCAXIS2PLACEMENT3D(#24,$,$);
#24=IFCCARTESIANPOINT((0.,0.,0.));
#25=IFCLOCALPLACEMENT(#20,#23);
#26=IFCRELAGGREGATES('0000000010080000000007',$,$,$,#17,(#22));
#27=IFCSPACE('0000000010080000000008',$,'0.01',$,$,#30,#50,'Wohnen',.ELEMENT.,$,$);
#28=IFCAXIS2PLACEMENT3D(#29,$,$);
#29=IFCCARTESIANPOINT((0.,0.,0.));
#30=IFCLOCALPLACEMENT(#25,#28);
#31=IFCRELAGGREGATES('0000000010080000000009',$,$,$,#22,(#27));
#32=IFCPROPERTYSET('000000001008000000000G',$,'Pset_SpaceCommon',$,(#33));
#33=IFCPROPERTYSINGLEVALUE('IsExternal',$,IFCBOOLEAN(.F.),$);
#34=IFCRELDEFINESBYPROPERTIES('000000001008000000000H',$,$,$,(#27),#32);
#35=IFCPROPERTYBOUNDEDVALUE('SpaceTemperature',$,IFCTHERMODYNAMICTEMPERATUREMEASURE(26.),IFCTHERMODYNAMICTEMPERATUREMEASURE(18.),$,IFCTHERMODYNAMICTEMPERATUREMEASURE(20.));
#36=IFCPROPERTYSET('000000001008000000000I',$,'Pset_SpaceThermalRequirements',$,(#35));
#37=IFCRELDEFINESBYPROPERTIES('000000001008000000000J',$,$,$,(#27),#36);
#38=IFCPOLYLINE((#39,#40,#41,#42,#43));
#39=IFCCARTESIANPOINT((0.,0.));
#40=IFCCARTESIANPOINT((10000.,0.));
#41=IFCCARTESIANPOINT((10000.,8000.));
#42=IFCCARTESIANPOINT((0.,8000.));
#43=IFCCARTESIANPOINT((0.,0.));
#44=IFCARBITRARYCLOSEDPROFILEDEF(.AREA.,$,#38);
#45=IFCAXIS2PLACEMENT3D(#46,$,$);
#46=IFCCARTESIANPOINT((0.,0.,0.));
#47=IFCEXTRUDEDAREASOLID(#44,#45,#48,2500.);
#48=IFCDIRECTION((0.,0.,1.));
#49=IFCSHAPEREPRESENTATION(#8,'Body','SweptSolid',(#47));
#50=IFCPRODUCTDEFINITIONSHAPE($,$,(#49));
#51=IFCWALL('000000001008000000000K',$,'Wand S\X\FCd',$,$,#54,#104,$,.STANDARD.);
#52=IFCAXIS2PLACEMENT3D(#53,$,$);
#53=IFCCARTESIANPOINT((0.,0.,0.));
#54=IFCLOCALPLACEMENT(#25,#52);
#55=IFCRELCONTAINEDINSPATIALSTRUCTURE('000000001008000000000L',$,$,$,(#51,#105,#130,#185,#198,#216,#224),#22);
#56=IFCPROPERTYSET('000000001008000000000M',$,'Pset_WallCommon',$,(#57));
#57=IFCPROPERTYSINGLEVALUE('IsExternal',$,IFCBOOLEAN(.T.),$);
#58=IFCRELDEFINESBYPROPERTIES('000000001008000000000N',$,$,$,(#51),#56);
#59=IFCCLOSEDSHELL((#66,#73,#80,#87,#94,#101));
#60=IFCPOLYLOOP((#61,#62,#63,#64));
#61=IFCCARTESIANPOINT((0.,-300.,0.));
#62=IFCCARTESIANPOINT((0.,0.,0.));
#63=IFCCARTESIANPOINT((10000.,0.,0.));
#64=IFCCARTESIANPOINT((10000.,-300.,0.));
#65=IFCFACEOUTERBOUND(#60,.T.);
#66=IFCFACE((#65));
#67=IFCPOLYLOOP((#68,#69,#70,#71));
#68=IFCCARTESIANPOINT((0.,-300.,2500.));
#69=IFCCARTESIANPOINT((10000.,-300.,2500.));
#70=IFCCARTESIANPOINT((10000.,0.,2500.));
#71=IFCCARTESIANPOINT((0.,0.,2500.));
#72=IFCFACEOUTERBOUND(#67,.T.);
#73=IFCFACE((#72));
#74=IFCPOLYLOOP((#75,#76,#77,#78));
#75=IFCCARTESIANPOINT((0.,-300.,0.));
#76=IFCCARTESIANPOINT((10000.,-300.,0.));
#77=IFCCARTESIANPOINT((10000.,-300.,2500.));
#78=IFCCARTESIANPOINT((0.,-300.,2500.));
#79=IFCFACEOUTERBOUND(#74,.T.);
#80=IFCFACE((#79));
#81=IFCPOLYLOOP((#82,#83,#84,#85));
#82=IFCCARTESIANPOINT((10000.,-300.,0.));
#83=IFCCARTESIANPOINT((10000.,0.,0.));
#84=IFCCARTESIANPOINT((10000.,0.,2500.));
#85=IFCCARTESIANPOINT((10000.,-300.,2500.));
#86=IFCFACEOUTERBOUND(#81,.T.);
#87=IFCFACE((#86));
#88=IFCPOLYLOOP((#89,#90,#91,#92));
#89=IFCCARTESIANPOINT((10000.,0.,0.));
#90=IFCCARTESIANPOINT((0.,0.,0.));
#91=IFCCARTESIANPOINT((0.,0.,2500.));
#92=IFCCARTESIANPOINT((10000.,0.,2500.));
#93=IFCFACEOUTERBOUND(#88,.T.);
#94=IFCFACE((#93));
#95=IFCPOLYLOOP((#96,#97,#98,#99));
#96=IFCCARTESIANPOINT((0.,0.,0.));
#97=IFCCARTESIANPOINT((0.,-300.,0.));
#98=IFCCARTESIANPOINT((0.,-300.,2500.));
#99=IFCCARTESIANPOINT((0.,0.,2500.));
#100=IFCFACEOUTERBOUND(#95,.T.);
#101=IFCFACE((#100));
#102=IFCFACETEDBREP(#59);
#103=IFCSHAPEREPRESENTATION(#8,'Body','Brep',(#102));
#104=IFCPRODUCTDEFINITIONSHAPE($,$,(#103));
#105=IFCWALL('000000001008000000000O',$,'Wand Ost',$,$,#110,#129,$,.STANDARD.);
#106=IFCAXIS2PLACEMENT3D(#107,#108,#109);
#107=IFCCARTESIANPOINT((10000.,0.,0.));
#108=IFCDIRECTION((0.,0.,1.));
#109=IFCDIRECTION((0.,1.,0.));
#110=IFCLOCALPLACEMENT(#25,#106);
#111=IFCPROPERTYSET('000000001008000000000P',$,'Pset_WallCommon',$,(#112));
#112=IFCPROPERTYSINGLEVALUE('IsExternal',$,IFCBOOLEAN(.T.),$);
#113=IFCRELDEFINESBYPROPERTIES('000000001008000000000W',$,$,$,(#105),#111);
#114=IFCSHAPEREPRESENTATION(#8,'Body','SweptSolid',(#118));
#115=IFCRECTANGLEPROFILEDEF(.AREA.,$,#116,1000.,300.);
#116=IFCAXIS2PLACEMENT2D(#117,$);
#117=IFCCARTESIANPOINT((500.,-150.));
#118=IFCEXTRUDEDAREASOLID(#115,#119,#121,1000.);
#119=IFCAXIS2PLACEMENT3D(#120,$,$);
#120=IFCCARTESIANPOINT((0.,0.,0.));
#121=IFCDIRECTION((0.,0.,1.));
#122=IFCREPRESENTATIONMAP(#123,#114);
#123=IFCAXIS2PLACEMENT3D(#124,$,$);
#124=IFCCARTESIANPOINT((0.,0.,0.));
#125=IFCCARTESIANTRANSFORMATIONOPERATOR3DNONUNIFORM($,$,#126,8.,$,1.,2.5);
#126=IFCCARTESIANPOINT((0.,0.,0.));
#127=IFCMAPPEDITEM(#122,#125);
#128=IFCSHAPEREPRESENTATION(#8,'Body','MappedRepresentation',(#127));
#129=IFCPRODUCTDEFINITIONSHAPE($,$,(#128));
#130=IFCWALL('000000001008000000000X',$,'Wand Nord',$,$,#135,#184,$,.STANDARD.);
#131=IFCAXIS2PLACEMENT3D(#132,#133,#134);
#132=IFCCARTESIANPOINT((10000.,8000.,0.));
#133=IFCDIRECTION((0.,0.,1.));
#134=IFCDIRECTION((-1.,0.,0.));
#135=IFCLOCALPLACEMENT(#25,#131);
#136=IFCPROPERTYSET('000000001008000000000Y',$,'Pset_WallCommon',$,(#137));
#137=IFCPROPERTYSINGLEVALUE('IsExternal',$,IFCBOOLEAN(.T.),$);
#138=IFCRELDEFINESBYPROPERTIES('000000001008000000000Z',$,$,$,(#130),#136);
#139=IFCOPENSHELL((#146,#153,#160,#167,#174,#181));
#140=IFCPOLYLOOP((#141,#142,#143,#144));
#141=IFCCARTESIANPOINT((0.,-300.,0.));
#142=IFCCARTESIANPOINT((0.,0.,0.));
#143=IFCCARTESIANPOINT((10000.,0.,0.));
#144=IFCCARTESIANPOINT((10000.,-300.,0.));
#145=IFCFACEOUTERBOUND(#140,.T.);
#146=IFCFACE((#145));
#147=IFCPOLYLOOP((#148,#149,#150,#151));
#148=IFCCARTESIANPOINT((0.,-300.,2500.));
#149=IFCCARTESIANPOINT((10000.,-300.,2500.));
#150=IFCCARTESIANPOINT((10000.,0.,2500.));
#151=IFCCARTESIANPOINT((0.,0.,2500.));
#152=IFCFACEOUTERBOUND(#147,.T.);
#153=IFCFACE((#152));
#154=IFCPOLYLOOP((#155,#156,#157,#158));
#155=IFCCARTESIANPOINT((0.,-300.,0.));
#156=IFCCARTESIANPOINT((10000.,-300.,0.));
#157=IFCCARTESIANPOINT((10000.,-300.,2500.));
#158=IFCCARTESIANPOINT((0.,-300.,2500.));
#159=IFCFACEOUTERBOUND(#154,.T.);
#160=IFCFACE((#159));
#161=IFCPOLYLOOP((#162,#163,#164,#165));
#162=IFCCARTESIANPOINT((10000.,-300.,0.));
#163=IFCCARTESIANPOINT((10000.,0.,0.));
#164=IFCCARTESIANPOINT((10000.,0.,2500.));
#165=IFCCARTESIANPOINT((10000.,-300.,2500.));
#166=IFCFACEOUTERBOUND(#161,.T.);
#167=IFCFACE((#166));
#168=IFCPOLYLOOP((#169,#170,#171,#172));
#169=IFCCARTESIANPOINT((10000.,0.,0.));
#170=IFCCARTESIANPOINT((0.,0.,0.));
#171=IFCCARTESIANPOINT((0.,0.,2500.));
#172=IFCCARTESIANPOINT((10000.,0.,2500.));
#173=IFCFACEOUTERBOUND(#168,.T.);
#174=IFCFACE((#173));
#175=IFCPOLYLOOP((#176,#177,#178,#179));
#176=IFCCARTESIANPOINT((0.,0.,0.));
#177=IFCCARTESIANPOINT((0.,-300.,0.));
#178=IFCCARTESIANPOINT((0.,-300.,2500.));
#179=IFCCARTESIANPOINT((0.,0.,2500.));
#180=IFCFACEOUTERBOUND(#175,.T.);
#181=IFCFACE((#180));
#182=IFCSHELLBASEDSURFACEMODEL((#139));
#183=IFCSHAPEREPRESENTATION(#8,'Body','SurfaceModel',(#182));
#184=IFCPRODUCTDEFINITIONSHAPE($,$,(#183));
#185=IFCWALL('000000001008000000000a',$,'Wand West',$,$,#190,#197,$,.STANDARD.);
#186=IFCAXIS2PLACEMENT3D(#187,#188,#189);
#187=IFCCARTESIANPOINT((0.,0.,0.));
#188=IFCDIRECTION((0.,0.,1.));
#189=IFCDIRECTION((0.,1.,0.));
#190=IFCLOCALPLACEMENT(#25,#186);
#191=IFCPROPERTYSET('000000001008000000000b',$,'Pset_WallCommon',$,(#192));
#192=IFCPROPERTYSINGLEVALUE('IsExternal',$,IFCBOOLEAN(.T.),$);
#193=IFCRELDEFINESBYPROPERTIES('000000001008000000000c',$,$,$,(#185),#191);
#194=IFCTRIANGULATEDFACESET(#195,$,.T.,((1,4,3),(1,3,2),(5,6,7),(5,7,8),(1,2,6),(1,6,5),(2,3,7),(2,7,6),(3,4,8),(3,8,7),(4,1,5),(4,5,8)),$);
#195=IFCCARTESIANPOINTLIST3D(((0.,0.,0.),(8000.,0.,0.),(8000.,300.,0.),(0.,300.,0.),(0.,0.,2500.),(8000.,0.,2500.),(8000.,300.,2500.),(0.,300.,2500.)),$);
#196=IFCSHAPEREPRESENTATION(#8,'Body','Tessellation',(#194));
#197=IFCPRODUCTDEFINITIONSHAPE($,$,(#196));
#198=IFCSLAB('000000001008000000000d',$,'Dachplatte',$,$,#201,#215,$,.ROOF.);
#199=IFCAXIS2PLACEMENT3D(#200,$,$);
#200=IFCCARTESIANPOINT((0.,0.,0.));
#201=IFCLOCALPLACEMENT(#25,#199);
#202=IFCPROPERTYSET('000000001008000000000e',$,'Pset_SlabCommon',$,(#203));
#203=IFCPROPERTYSINGLEVALUE('IsExternal',$,IFCBOOLEAN(.T.),$);
#204=IFCRELDEFINESBYPROPERTIES('000000001008000000000f',$,$,$,(#198),#202);
#205=IFCAXIS2PLACEMENT3D(#206,#207,#208);
#206=IFCCARTESIANPOINT((0.,0.,2500.));
#207=IFCDIRECTION((0.,-0.6,0.8));
#208=IFCDIRECTION((1.,0.,0.));
#209=IFCEXTRUDEDAREASOLID(#210,#205,#213,200.);
#210=IFCRECTANGLEPROFILEDEF(.AREA.,$,#211,10000.,10000.);
#211=IFCAXIS2PLACEMENT2D(#212,$);
#212=IFCCARTESIANPOINT((5000.,5000.));
#213=IFCDIRECTION((0.,0.,1.));
#214=IFCSHAPEREPRESENTATION(#8,'Body','SweptSolid',(#209));
#215=IFCPRODUCTDEFINITIONSHAPE($,$,(#214));
#216=IFCROOF('000000001008000000000m',$,'Dach',$,$,#219,$,$,.SHED_ROOF.);
#217=IFCAXIS2PLACEMENT3D(#218,$,$);
#218=IFCCARTESIANPOINT((0.,0.,0.));
#219=IFCLOCALPLACEMENT(#25,#217);
#220=IFCPROPERTYSET('000000001008000000000n',$,'Pset_RoofCommon',$,(#221));
#221=IFCPROPERTYSINGLEVALUE('IsExternal',$,IFCBOOLEAN(.T.),$);
#222=IFCRELDEFINESBYPROPERTIES('000000001008000000000o',$,$,$,(#216),#220);
#223=IFCRELAGGREGATES('000000001008000000000p',$,$,$,#216,(#198));
#224=IFCSLAB('000000001008000000000q',$,'Bodenplatte',$,$,#227,#239,$,.BASESLAB.);
#225=IFCAXIS2PLACEMENT3D(#226,$,$);
#226=IFCCARTESIANPOINT((0.,0.,-300.));
#227=IFCLOCALPLACEMENT(#25,#225);
#228=IFCPROPERTYSET('000000001008000000000r',$,'Pset_SlabCommon',$,(#229));
#229=IFCPROPERTYSINGLEVALUE('IsExternal',$,IFCBOOLEAN(.T.),$);
#230=IFCRELDEFINESBYPROPERTIES('000000001008000000000s',$,$,$,(#224),#228);
#231=IFCRECTANGLEPROFILEDEF(.AREA.,$,#232,10000.,8000.);
#232=IFCAXIS2PLACEMENT2D(#233,$);
#233=IFCCARTESIANPOINT((5000.,4000.));
#234=IFCEXTRUDEDAREASOLID(#231,#235,#237,300.);
#235=IFCAXIS2PLACEMENT3D(#236,$,$);
#236=IFCCARTESIANPOINT((0.,0.,0.));
#237=IFCDIRECTION((0.,0.,1.));
#238=IFCSHAPEREPRESENTATION(#8,'Body','SweptSolid',(#234));
#239=IFCPRODUCTDEFINITIONSHAPE($,$,(#238));
ENDSEC;
END-ISO-10303-21;
