ISO-10303-21;
HEADER;
FILE_DESCRIPTION (('ViewDefinition [ReferenceView]'), '2;1');
FILE_NAME ('ifc4_koerper_extrusion_bogen.ifc', '2026-09-25T00:00:00', (''), (''), 'EPOS-Plan Importprobe (EPOS.Kern.Tests)', 'EPOS-Plan Importprobe, selbst erzeugt', '');
FILE_SCHEMA (('IFC4'));
ENDSEC;
DATA;
#1=IFCPROJECT('0000000010080000000001',$,'Importprobe',$,$,$,$,(#8),#2);
#2=IFCUNITASSIGNMENT((#3,#4,#5,#6,#7));
#3=IFCSIUNIT(*,.LENGTHUNIT.,.MILLI.,.METRE.);
#4=IFCSIUNIT(*,.AREAUNIT.,$,.SQUARE_METRE.);
#5=IFCSIUNIT(*,.VOLUMEUNIT.,$,.CUBIC_METRE.);
#6=IFCSIUNIT(*,.PLANEANGLEUNIT.,$,.RADIAN.);
#7=IFCSIUNIT(*,.THERMODYNAMICTEMPERATUREUNIT.,$,.DEGREE_CELSIUS.);
#8=IFCGEOMETRICREPRESENTATIONCONTEXT($,'Model',3,1.E-05,#9,$);
#9=IFCAXIS2PLACEMENT3D(#10,$,$);
#10=IFCCARTESIANPOINT((0.,0.,0.));
#11=IFCSITE('0000000010080000000002',$,'Grundst\X\FCck',$,$,#14,$,$,.ELEMENT.,$,$,$,$,$);
#12=IFCAXIS2PLACEMENT3D(#13,$,$);
#13=IFCCARTESIANPOINT((0.,0.,0.));
#14=IFCLOCALPLACEMENT($,#12);
#15=IFCRELAGGREGATES('0000000010080000000003',$,$,$,#1,(#11));
#16=IFCBUILDING('0000000010080000000004',$,'Probengeb\X\E4ude',$,$,#19,$,$,.ELEMENT.,$,$,$);
#17=IFCAXIS2PLACEMENT3D(#18,$,$);
#18=IFCCARTESIANPOINT((0.,0.,0.));
#19=IFCLOCALPLACEMENT(#14,#17);
#20=IFCRELAGGREGATES('0000000010080000000005',$,$,$,#11,(#16));
#21=IFCBUILDINGSTOREY('0000000010080000000006',$,'Erdgeschoss',$,$,#24,$,$,.ELEMENT.,0.);
#22=IFCAXIS2PLACEMENT3D(#23,$,$);
#23=IFCCARTESIANPOINT((0.,0.,0.));
#24=IFCLOCALPLACEMENT(#19,#22);
#25=IFCRELAGGREGATES('0000000010080000000007',$,$,$,#16,(#21));
#26=IFCSPACE('0000000010080000000008',$,'0.01',$,$,#29,#62,'Raum 1',.ELEMENT.,$,$);
#27=IFCAXIS2PLACEMENT3D(#28,$,$);
#28=IFCCARTESIANPOINT((1000.,2000.,0.));
#29=IFCLOCALPLACEMENT(#24,#27);
#30=IFCRELAGGREGATES('0000000010080000000009',$,$,$,#21,(#26,#63,#87));
#31=IFCQUANTITYAREA('NetFloorArea',$,$,14.,$);
#32=IFCQUANTITYLENGTH('Height',$,$,3000.,$);
#33=IFCQUANTITYVOLUME('NetVolume',$,$,42.,$);
#34=IFCELEMENTQUANTITY('000000001008000000000G',$,'BaseQuantities',$,$,(#31,#32,#33));
#35=IFCRELDEFINESBYPROPERTIES('000000001008000000000H',$,$,$,(#26),#34);
#36=IFCPROPERTYSET('000000001008000000000I',$,'Pset_SpaceCommon',$,(#37));
#37=IFCPROPERTYSINGLEVALUE('IsExternal',$,IFCBOOLEAN(.F.),$);
#38=IFCRELDEFINESBYPROPERTIES('000000001008000000000J',$,$,$,(#26),#36);
#39=IFCPROPERTYBOUNDEDVALUE('SpaceTemperature',$,IFCTHERMODYNAMICTEMPERATUREMEASURE(26.),IFCTHERMODYNAMICTEMPERATUREMEASURE(18.),$,IFCTHERMODYNAMICTEMPERATUREMEASURE(20.));
#40=IFCPROPERTYSET('000000001008000000000K',$,'Pset_SpaceThermalRequirements',$,(#39));
#41=IFCRELDEFINESBYPROPERTIES('000000001008000000000L',$,$,$,(#26),#40);
#42=IFCCOMPOSITECURVE((#43,#55),.F.);
#43=IFCCOMPOSITECURVESEGMENT(.CONTINUOUS.,.T.,#44);
#44=IFCPOLYLINE((#45,#46,#47,#48));
#45=IFCCARTESIANPOINT((0.,2000.));
#46=IFCCARTESIANPOINT((0.,0.));
#47=IFCCARTESIANPOINT((4000.,0.));
#48=IFCCARTESIANPOINT((4000.,2000.));
#49=IFCCIRCLE(#50,2000.);
#50=IFCAXIS2PLACEMENT2D(#51,$);
#51=IFCCARTESIANPOINT((2000.,2000.));
#52=IFCTRIMMEDCURVE(#49,(#53),(#54),.T.,.CARTESIAN.);
#53=IFCCARTESIANPOINT((4000.,2000.));
#54=IFCCARTESIANPOINT((0.,2000.));
#55=IFCCOMPOSITECURVESEGMENT(.CONTINUOUS.,.T.,#52);
#56=IFCARBITRARYCLOSEDPROFILEDEF(.AREA.,$,#42);
#57=IFCEXTRUDEDAREASOLID(#56,#58,#60,3000.);
#58=IFCAXIS2PLACEMENT3D(#59,$,$);
#59=IFCCARTESIANPOINT((0.,0.,0.));
#60=IFCDIRECTION((0.,0.,1.));
#61=IFCSHAPEREPRESENTATION(#8,'Body','SweptSolid',(#57));
#62=IFCPRODUCTDEFINITIONSHAPE($,$,(#61));
#63=IFCSPACE('000000001008000000000M',$,'0.02',$,$,#66,#86,'Raum 2',.ELEMENT.,$,$);
#64=IFCAXIS2PLACEMENT3D(#65,$,$);
#65=IFCCARTESIANPOINT((10000.,2000.,0.));
#66=IFCLOCALPLACEMENT(#24,#64);
#67=IFCQUANTITYAREA('NetFloorArea',$,$,14.,$);
#68=IFCQUANTITYLENGTH('Height',$,$,3000.,$);
#69=IFCQUANTITYVOLUME('NetVolume',$,$,42.,$);
#70=IFCELEMENTQUANTITY('000000001008000000000N',$,'BaseQuantities',$,$,(#67,#68,#69));
#71=IFCRELDEFINESBYPROPERTIES('000000001008000000000O',$,$,$,(#63),#70);
#72=IFCPROPERTYSET('000000001008000000000P',$,'Pset_SpaceCommon',$,(#73));
#73=IFCPROPERTYSINGLEVALUE('IsExternal',$,IFCBOOLEAN(.F.),$);
#74=IFCRELDEFINESBYPROPERTIES('000000001008000000000W',$,$,$,(#63),#72);
#75=IFCPROPERTYBOUNDEDVALUE('SpaceTemperature',$,IFCTHERMODYNAMICTEMPERATUREMEASURE(26.),IFCTHERMODYNAMICTEMPERATUREMEASURE(18.),$,IFCTHERMODYNAMICTEMPERATUREMEASURE(20.));
#76=IFCPROPERTYSET('000000001008000000000X',$,'Pset_SpaceThermalRequirements',$,(#75));
#77=IFCRELDEFINESBYPROPERTIES('000000001008000000000Y',$,$,$,(#63),#76);
#78=IFCINDEXEDPOLYCURVE(#79,(IFCLINEINDEX((1,2,3)),IFCARCINDEX((3,4,5)),IFCLINEINDEX((5,1))),.F.);
#79=IFCCARTESIANPOINTLIST2D(((0.,0.),(4000.,0.),(4000.,2000.),(2000.,4000.),(0.,2000.)),$);
#80=IFCARBITRARYCLOSEDPROFILEDEF(.AREA.,$,#78);
#81=IFCEXTRUDEDAREASOLID(#80,#82,#84,3000.);
#82=IFCAXIS2PLACEMENT3D(#83,$,$);
#83=IFCCARTESIANPOINT((0.,0.,0.));
#84=IFCDIRECTION((0.,0.,1.));
#85=IFCSHAPEREPRESENTATION(#8,'Body','SweptSolid',(#81));
#86=IFCPRODUCTDEFINITIONSHAPE($,$,(#85));
#87=IFCSPACE('000000001008000000000Z',$,'0.03',$,$,#90,#108,'Raum 3',.ELEMENT.,$,$);
#88=IFCAXIS2PLACEMENT3D(#89,$,$);
#89=IFCCARTESIANPOINT((20000.,2000.,0.));
#90=IFCLOCALPLACEMENT(#24,#88);
#91=IFCQUANTITYAREA('NetFloorArea',$,$,3.,$);
#92=IFCQUANTITYLENGTH('Height',$,$,3000.,$);
#93=IFCQUANTITYVOLUME('NetVolume',$,$,9.,$);
#94=IFCELEMENTQUANTITY('000000001008000000000a',$,'BaseQuantities',$,$,(#91,#92,#93));
#95=IFCRELDEFINESBYPROPERTIES('000000001008000000000b',$,$,$,(#87),#94);
#96=IFCPROPERTYSET('000000001008000000000c',$,'Pset_SpaceCommon',$,(#97));
#97=IFCPROPERTYSINGLEVALUE('IsExternal',$,IFCBOOLEAN(.F.),$);
#98=IFCRELDEFINESBYPROPERTIES('000000001008000000000d',$,$,$,(#87),#96);
#99=IFCPROPERTYBOUNDEDVALUE('SpaceTemperature',$,IFCTHERMODYNAMICTEMPERATUREMEASURE(26.),IFCTHERMODYNAMICTEMPERATUREMEASURE(18.),$,IFCTHERMODYNAMICTEMPERATUREMEASURE(20.));
#100=IFCPROPERTYSET('000000001008000000000e',$,'Pset_SpaceThermalRequirements',$,(#99));
#101=IFCRELDEFINESBYPROPERTIES('000000001008000000000f',$,$,$,(#87),#100);
#102=IFCCIRCLEPROFILEDEF(.AREA.,$,$,1000.);
#103=IFCEXTRUDEDAREASOLID(#102,#104,#106,3000.);
#104=IFCAXIS2PLACEMENT3D(#105,$,$);
#105=IFCCARTESIANPOINT((0.,0.,0.));
#106=IFCDIRECTION((0.,0.,1.));
#107=IFCSHAPEREPRESENTATION(#8,'Body','SweptSolid',(#103));
#108=IFCPRODUCTDEFINITIONSHAPE($,$,(#107));
ENDSEC;
END-ISO-10303-21;
