ISO-10303-21;
HEADER;
FILE_DESCRIPTION (('ViewDefinition [ReferenceView]'), '2;1');
FILE_NAME ('ifc4_mapconversion.ifc', '2026-09-25T00:00:00', (''), (''), 'EPOS-Plan Importprobe (EPOS.Kern.Tests)', 'EPOS-Plan Importprobe, selbst erzeugt', '');
FILE_SCHEMA (('IFC4'));
ENDSEC;
DATA;
#1=IFCPROJECT('0000000010080000000001',$,'Importprobe',$,$,$,$,(#8),#2);
#2=IFCUNITASSIGNMENT((#3,#4,#5,#6,#7));
#3=IFCSIUNIT(*,.LENGTHUNIT.,.MILLI.,.METRE.);
#4=IFCSIUNIT(*,.AREAUNIT.,$,.SQUARE_METRE.);
#5=IFCSIUNIT(*,.VOLUMEUNIT.,$,.CUBIC_METRE.);
#6=IFCSIUNIT(*,.PLANEANGLEUNIT.,$,.RADIAN.);
#7=IFCSIUNIT(*,.THERMODYNAMICTEMPERATUREUNIT.,$,.DEGREE_CELSIUS.);
#8=IFCGEOMETRICREPRESENTATIONCONTEXT($,'Model',3,1.E-05,#9,#11);
#9=IFCAXIS2PLACEMENT3D(#10,$,$);
#10=IFCCARTESIANPOINT((0.,0.,0.));
#11=IFCDIRECTION((-2.,1.,0.));
#12=IFCPROJECTEDCRS('EPSG:25832',$,$,$,$,$,$);
#13=IFCMAPCONVERSION(#8,#12,0.,0.,0.,0.,1.,1.);
#14=IFCSITE('0000000010080000000002',$,'Grundst\X\FCck',$,$,#17,$,$,.ELEMENT.,$,$,$,$,$);
#15=IFCAXIS2PLACEMENT3D(#16,$,$);
#16=IFCCARTESIANPOINT((0.,0.,0.));
#17=IFCLOCALPLACEMENT($,#15);
#18=IFCRELAGGREGATES('0000000010080000000003',$,$,$,#1,(#14));
#19=IFCBUILDING('0000000010080000000004',$,'Probengeb\X\E4ude',$,$,#22,$,$,.ELEMENT.,$,$,$);
#20=IFCAXIS2PLACEMENT3D(#21,$,$);
#21=IFCCARTESIANPOINT((0.,0.,0.));
#22=IFCLOCALPLACEMENT(#17,#20);
#23=IFCRELAGGREGATES('0000000010080000000005',$,$,$,#14,(#19));
#24=IFCBUILDINGSTOREY('0000000010080000000006',$,'Erdgeschoss',$,$,#27,$,$,.ELEMENT.,0.);
#25=IFCAXIS2PLACEMENT3D(#26,$,$);
#26=IFCCARTESIANPOINT((0.,0.,0.));
#27=IFCLOCALPLACEMENT(#22,#25);
#28=IFCRELAGGREGATES('0000000010080000000007',$,$,$,#19,(#24));
#29=IFCSPACE('0000000010080000000008',$,'0.01',$,$,#32,$,'Wohnen',.ELEMENT.,$,$);
#30=IFCAXIS2PLACEMENT3D(#31,$,$);
#31=IFCCARTESIANPOINT((150.,150.,0.));
#32=IFCLOCALPLACEMENT(#27,#30);
#33=IFCRELAGGREGATES('0000000010080000000009',$,$,$,#24,(#29));
#34=IFCQUANTITYAREA('NetFloorArea',$,$,60.,$);
#35=IFCQUANTITYLENGTH('Height',$,$,2500.,$);
#36=IFCQUANTITYVOLUME('NetVolume',$,$,150.,$);
#37=IFCELEMENTQUANTITY('000000001008000000000G',$,'BaseQuantities',$,$,(#34,#35,#36));
#38=IFCRELDEFINESBYPROPERTIES('000000001008000000000H',$,$,$,(#29),#37);
#39=IFCPROPERTYSET('000000001008000000000I',$,'Pset_SpaceCommon',$,(#40));
#40=IFCPROPERTYSINGLEVALUE('IsExternal',$,IFCBOOLEAN(.F.),$);
#41=IFCRELDEFINESBYPROPERTIES('000000001008000000000J',$,$,$,(#29),#39);
#42=IFCPROPERTYBOUNDEDVALUE('SpaceTemperature',$,IFCTHERMODYNAMICTEMPERATUREMEASURE(26.),IFCTHERMODYNAMICTEMPERATUREMEASURE(18.),$,IFCTHERMODYNAMICTEMPERATUREMEASURE(20.));
#43=IFCPROPERTYSET('000000001008000000000K',$,'Pset_SpaceThermalRequirements',$,(#42));
#44=IFCRELDEFINESBYPROPERTIES('000000001008000000000L',$,$,$,(#29),#43);
#45=IFCWALLTYPE('000000001008000000000M',$,'Au\X\DFenwand Typ D',$,$,(#46),$,$,$,.STANDARD.);
#46=IFCPROPERTYSET('000000001008000000000N',$,'Pset_WallCommon',$,(#47,#48));
#47=IFCPROPERTYSINGLEVALUE('IsExternal',$,IFCBOOLEAN(.T.),$);
#48=IFCPROPERTYSINGLEVALUE('ThermalTransmittance',$,IFCTHERMALTRANSMITTANCEMEASURE(0.3),$);
#49=IFCWALL('000000001008000000000O',$,'EG Nord',$,$,#54,$,$,.STANDARD.);
#50=IFCAXIS2PLACEMENT3D(#51,#52,#53);
#51=IFCCARTESIANPOINT((10000.,8000.,0.));
#52=IFCDIRECTION((0.,0.,1.));
#53=IFCDIRECTION((-1.,0.,0.));
#54=IFCLOCALPLACEMENT(#27,#50);
#55=IFCRELCONTAINEDINSPATIALSTRUCTURE('000000001008000000000P',$,$,$,(#49,#64),#24);
#56=IFCRELDEFINESBYTYPE('000000001008000000000W',$,$,$,(#49),#45);
#57=IFCQUANTITYAREA('GrossSideArea',$,$,28.,$);
#58=IFCQUANTITYAREA('NetSideArea',$,$,24.,$);
#59=IFCELEMENTQUANTITY('000000001008000000000X',$,'BaseQuantities',$,$,(#57,#58));
#60=IFCRELDEFINESBYPROPERTIES('000000001008000000000Y',$,$,$,(#49),#59);
#61=IFCRELSPACEBOUNDARY('000000001008000000000Z',$,'2ndLevel','2a',#29,#49,$,.PHYSICAL.,.EXTERNAL.);
#62=IFCOPENINGELEMENT('000000001008000000000a',$,'\X\D6ffnung F-N',$,$,$,$,$,$);
#63=IFCRELVOIDSELEMENT('000000001008000000000b',$,$,$,#49,#62);
#64=IFCWINDOW('000000001008000000000c',$,'F-N',$,$,$,$,$,$,$,$,$,$);
#65=IFCRELFILLSELEMENT('000000001008000000000d',$,$,$,#62,#64);
#66=IFCQUANTITYAREA('Area',$,$,4.,$);
#67=IFCELEMENTQUANTITY('000000001008000000000e',$,'Qto_WindowBaseQuantities',$,$,(#66));
#68=IFCRELDEFINESBYPROPERTIES('000000001008000000000f',$,$,$,(#64),#67);
#69=IFCPROPERTYSET('000000001008000000000m',$,'Pset_WindowCommon',$,(#70,#71));
#70=IFCPROPERTYSINGLEVALUE('IsExternal',$,IFCBOOLEAN(.T.),$);
#71=IFCPROPERTYSINGLEVALUE('ThermalTransmittance',$,IFCTHERMALTRANSMITTANCEMEASURE(1.1),$);
#72=IFCRELDEFINESBYPROPERTIES('000000001008000000000n',$,$,$,(#64),#69);
#73=IFCPROPERTYSET('000000001008000000000o',$,'Pset_DoorWindowGlazingType',$,(#74));
#74=IFCPROPERTYSINGLEVALUE('SolarHeatGainTransmittance',$,IFCNORMALISEDRATIOMEASURE(0.6),$);
#75=IFCRELDEFINESBYPROPERTIES('000000001008000000000p',$,$,$,(#64),#73);
ENDSEC;
END-ISO-10303-21;
