ISO-10303-21;
HEADER;
FILE_DESCRIPTION (('ViewDefinition [ReferenceView]'), '2;1');
FILE_NAME ('ifc4_g5_aussparung.ifc', '2026-09-25T00:00:00', (''), (''), 'EPOS-Plan Importprobe (EPOS.Kern.Tests)', 'EPOS-Plan Importprobe, selbst erzeugt', '');
FILE_SCHEMA (('IFC4'));
ENDSEC;
DATA;
#1=IFCPROJECT('0000000010080000000001',$,'Importprobe',$,$,$,$,(#8),#2);
#2=IFCUNITASSIGNMENT((#3,#4,#5,#6,#7));
#3=IFCSIUNIT(*,.LENGTHUNIT.,.MILLI.,.METRE.);
#4=IFCSIUNIT(*,.AREAUNIT.,$,.SQUARE_METRE.);
#5=IFCSIUNIT(*,.VOLUMEUNIT.,$,.CUBIC_METRE.);
#6=IFCSIUNIT(*,.PLANEANGLEUNIT.,$,.RADIAN.);
#7=IFCSIUNIT(*,.THERMODYNAMICTEMPERATUREUNIT.,$,.DEGREE_CELSIUS.);
#8=IFCGEOMETRICREPRESENTATIONCONTEXT($,'Model',3,1.E-05,#9,#11);
#9=IFCAXIS2PLACEMENT3D(#10,$,$);
#10=IFCCARTESIANPOINT((0.,0.,0.));
#11=IFCDIRECTION((0.,1.,0.));
#12=IFCSITE('0000000010080000000002',$,'Grundst\X\FCck',$,$,#15,$,$,.ELEMENT.,$,$,$,$,$);
#13=IFCAXIS2PLACEMENT3D(#14,$,$);
#14=IFCCARTESIANPOINT((0.,0.,0.));
#15=IFCLOCALPLACEMENT($,#13);
#16=IFCRELAGGREGATES('0000000010080000000003',$,$,$,#1,(#12));
#17=IFCBUILDING('0000000010080000000004',$,'Aussparungshaus',$,$,#20,$,$,.ELEMENT.,$,$,$);
#18=IFCAXIS2PLACEMENT3D(#19,$,$);
#19=IFCCARTESIANPOINT((0.,0.,0.));
#20=IFCLOCALPLACEMENT(#15,#18);
#21=IFCRELAGGREGATES('0000000010080000000005',$,$,$,#12,(#17));
#22=IFCBUILDINGSTOREY('0000000010080000000006',$,'Erdgeschoss',$,$,#25,$,$,.ELEMENT.,0.);
#23=IFCAXIS2PLACEMENT3D(#24,$,$);
#24=IFCCARTESIANPOINT((0.,0.,0.));
#25=IFCLOCALPLACEMENT(#20,#23);
#26=IFCRELAGGREGATES('0000000010080000000007',$,$,$,#17,(#22));
#27=IFCSPACE('0000000010080000000008',$,'0.01',$,$,#30,#50,'Wohnen',.ELEMENT.,$,$);
#28=IFCAXIS2PLACEMENT3D(#29,$,$);
#29=IFCCARTESIANPOINT((0.,0.,0.));
#30=IFCLOCALPLACEMENT(#25,#28);
#31=IFCRELAGGREGATES('0000000010080000000009',$,$,$,#22,(#27));
#32=IFCPROPERTYSET('000000001008000000000G',$,'Pset_SpaceCommon',$,(#33));
#33=IFCPROPERTYSINGLEVALUE('IsExternal',$,IFCBOOLEAN(.F.),$);
#34=IFCRELDEFINESBYPROPERTIES('000000001008000000000H',$,$,$,(#27),#32);
#35=IFCPROPERTYBOUNDEDVALUE('SpaceTemperature',$,IFCTHERMODYNAMICTEMPERATUREMEASURE(26.),IFCTHERMODYNAMICTEMPERATUREMEASURE(18.),$,IFCTHERMODYNAMICTEMPERATUREMEASURE(20.));
#36=IFCPROPERTYSET('000000001008000000000I',$,'Pset_SpaceThermalRequirements',$,(#35));
#37=IFCRELDEFINESBYPROPERTIES('000000001008000000000J',$,$,$,(#27),#36);
#38=IFCPOLYLINE((#39,#40,#41,#42,#43));
#39=IFCCARTESIANPOINT((0.,0.));
#40=IFCCARTESIANPOINT((10000.,0.));
#41=IFCCARTESIANPOINT((10000.,8000.));
#42=IFCCARTESIANPOINT((0.,8000.));
#43=IFCCARTESIANPOINT((0.,0.));
#44=IFCARBITRARYCLOSEDPROFILEDEF(.AREA.,$,#38);
#45=IFCAXIS2PLACEMENT3D(#46,$,$);
#46=IFCCARTESIANPOINT((0.,0.,0.));
#47=IFCEXTRUDEDAREASOLID(#44,#45,#48,2500.);
#48=IFCDIRECTION((0.,0.,1.));
#49=IFCSHAPEREPRESENTATION(#8,'Body','SweptSolid',(#47));
#50=IFCPRODUCTDEFINITIONSHAPE($,$,(#49));
#51=IFCWALL('000000001008000000000K',$,'Wand S\X\FCd',$,$,#54,#79,$,.STANDARD.);
#52=IFCAXIS2PLACEMENT3D(#53,$,$);
#53=IFCCARTESIANPOINT((0.,0.,0.));
#54=IFCLOCALPLACEMENT(#25,#52);
#55=IFCRELCONTAINEDINSPATIALSTRUCTURE('000000001008000000000L',$,$,$,(#51,#80,#110,#128,#140,#152,#186,#208),#22);
#56=IFCPROPERTYSET('000000001008000000000M',$,'Pset_WallCommon',$,(#57));
#57=IFCPROPERTYSINGLEVALUE('IsExternal',$,IFCBOOLEAN(.T.),$);
#58=IFCRELDEFINESBYPROPERTIES('000000001008000000000N',$,$,$,(#51),#56);
#59=IFCARBITRARYPROFILEDEFWITHVOIDS(.AREA.,$,#60,(#66));
#60=IFCPOLYLINE((#61,#62,#63,#64,#65));
#61=IFCCARTESIANPOINT((0.,0.));
#62=IFCCARTESIANPOINT((10000.,0.));
#63=IFCCARTESIANPOINT((10000.,2500.));
#64=IFCCARTESIANPOINT((0.,2500.));
#65=IFCCARTESIANPOINT((0.,0.));
#66=IFCPOLYLINE((#67,#68,#69,#70,#71));
#67=IFCCARTESIANPOINT((1000.,900.));
#68=IFCCARTESIANPOINT((1000.,2100.));
#69=IFCCARTESIANPOINT((2500.,2100.));
#70=IFCCARTESIANPOINT((2500.,900.));
#71=IFCCARTESIANPOINT((1000.,900.));
#72=IFCAXIS2PLACEMENT3D(#73,#74,#75);
#73=IFCCARTESIANPOINT((0.,0.,0.));
#74=IFCDIRECTION((0.,-1.,0.));
#75=IFCDIRECTION((1.,0.,0.));
#76=IFCEXTRUDEDAREASOLID(#59,#72,#77,300.);
#77=IFCDIRECTION((0.,0.,1.));
#78=IFCSHAPEREPRESENTATION(#8,'Body','SweptSolid',(#76));
#79=IFCPRODUCTDEFINITIONSHAPE($,$,(#78));
#80=IFCWALL('000000001008000000000O',$,'Wand Ost',$,$,#85,#109,$,.STANDARD.);
#81=IFCAXIS2PLACEMENT3D(#82,#83,#84);
#82=IFCCARTESIANPOINT((10000.,0.,0.));
#83=IFCDIRECTION((0.,0.,1.));
#84=IFCDIRECTION((0.,1.,0.));
#85=IFCLOCALPLACEMENT(#25,#81);
#86=IFCPROPERTYSET('000000001008000000000P',$,'Pset_WallCommon',$,(#87));
#87=IFCPROPERTYSINGLEVALUE('IsExternal',$,IFCBOOLEAN(.T.),$);
#88=IFCRELDEFINESBYPROPERTIES('000000001008000000000W',$,$,$,(#80),#86);
#89=IFCARBITRARYPROFILEDEFWITHVOIDS(.AREA.,$,#90,(#96));
#90=IFCPOLYLINE((#91,#92,#93,#94,#95));
#91=IFCCARTESIANPOINT((0.,0.));
#92=IFCCARTESIANPOINT((8000.,0.));
#93=IFCCARTESIANPOINT((8000.,2500.));
#94=IFCCARTESIANPOINT((0.,2500.));
#95=IFCCARTESIANPOINT((0.,0.));
#96=IFCPOLYLINE((#97,#98,#99,#100,#101));
#97=IFCCARTESIANPOINT((3000.,1000.));
#98=IFCCARTESIANPOINT((3000.,2000.));
#99=IFCCARTESIANPOINT((4000.,2000.));
#100=IFCCARTESIANPOINT((4000.,1000.));
#101=IFCCARTESIANPOINT((3000.,1000.));
#102=IFCAXIS2PLACEMENT3D(#103,#104,#105);
#103=IFCCARTESIANPOINT((0.,0.,0.));
#104=IFCDIRECTION((0.,-1.,0.));
#105=IFCDIRECTION((1.,0.,0.));
#106=IFCEXTRUDEDAREASOLID(#89,#102,#107,300.);
#107=IFCDIRECTION((0.,0.,1.));
#108=IFCSHAPEREPRESENTATION(#8,'Body','SweptSolid',(#106));
#109=IFCPRODUCTDEFINITIONSHAPE($,$,(#108));
#110=IFCWALL('000000001008000000000X',$,'Wand Nord',$,$,#115,#127,$,.STANDARD.);
#111=IFCAXIS2PLACEMENT3D(#112,#113,#114);
#112=IFCCARTESIANPOINT((10000.,8000.,0.));
#113=IFCDIRECTION((0.,0.,1.));
#114=IFCDIRECTION((-1.,0.,0.));
#115=IFCLOCALPLACEMENT(#25,#111);
#116=IFCPROPERTYSET('000000001008000000000Y',$,'Pset_WallCommon',$,(#117));
#117=IFCPROPERTYSINGLEVALUE('IsExternal',$,IFCBOOLEAN(.T.),$);
#118=IFCRELDEFINESBYPROPERTIES('000000001008000000000Z',$,$,$,(#110),#116);
#119=IFCRECTANGLEPROFILEDEF(.AREA.,$,#120,10000.,300.);
#120=IFCAXIS2PLACEMENT2D(#121,$);
#121=IFCCARTESIANPOINT((5000.,-150.));
#122=IFCEXTRUDEDAREASOLID(#119,#123,#125,2500.);
#123=IFCAXIS2PLACEMENT3D(#124,$,$);
#124=IFCCARTESIANPOINT((0.,0.,0.));
#125=IFCDIRECTION((0.,0.,1.));
#126=IFCSHAPEREPRESENTATION(#8,'Body','SweptSolid',(#122));
#127=IFCPRODUCTDEFINITIONSHAPE($,$,(#126));
#128=IFCWALL('000000001008000000000a',$,'Wand Nord-1',$,$,#133,$,$,.STANDARD.);
#129=IFCAXIS2PLACEMENT3D(#130,#131,#132);
#130=IFCCARTESIANPOINT((10000.,8000.,0.));
#131=IFCDIRECTION((0.,0.,1.));
#132=IFCDIRECTION((-1.,0.,0.));
#133=IFCLOCALPLACEMENT(#25,#129);
#134=IFCPROPERTYSET('000000001008000000000b',$,'Pset_WallCommon',$,(#135));
#135=IFCPROPERTYSINGLEVALUE('IsExternal',$,IFCBOOLEAN(.T.),$);
#136=IFCRELDEFINESBYPROPERTIES('000000001008000000000c',$,$,$,(#128),#134);
#137=IFCQUANTITYAREA('GrossSideArea',$,$,15.,$);
#138=IFCELEMENTQUANTITY('000000001008000000000d',$,'Qto_WallBaseQuantities',$,$,(#137));
#139=IFCRELDEFINESBYPROPERTIES('000000001008000000000e',$,$,$,(#128),#138);
#140=IFCWALL('000000001008000000000f',$,'Wand Nord-2',$,$,#145,$,$,.STANDARD.);
#141=IFCAXIS2PLACEMENT3D(#142,#143,#144);
#142=IFCCARTESIANPOINT((4000.,8000.,0.));
#143=IFCDIRECTION((0.,0.,1.));
#144=IFCDIRECTION((-1.,0.,0.));
#145=IFCLOCALPLACEMENT(#25,#141);
#146=IFCPROPERTYSET('000000001008000000000m',$,'Pset_WallCommon',$,(#147));
#147=IFCPROPERTYSINGLEVALUE('IsExternal',$,IFCBOOLEAN(.T.),$);
#148=IFCRELDEFINESBYPROPERTIES('000000001008000000000n',$,$,$,(#140),#146);
#149=IFCQUANTITYAREA('GrossSideArea',$,$,8.,$);
#150=IFCELEMENTQUANTITY('000000001008000000000o',$,'Qto_WallBaseQuantities',$,$,(#149));
#151=IFCRELDEFINESBYPROPERTIES('000000001008000000000p',$,$,$,(#140),#150);
#152=IFCWALL('000000001008000000000q',$,'Wand West',$,$,#157,#169,$,.STANDARD.);
#153=IFCAXIS2PLACEMENT3D(#154,#155,#156);
#154=IFCCARTESIANPOINT((0.,8000.,0.));
#155=IFCDIRECTION((0.,0.,1.));
#156=IFCDIRECTION((0.,-1.,0.));
#157=IFCLOCALPLACEMENT(#25,#153);
#158=IFCPROPERTYSET('000000001008000000000r',$,'Pset_WallCommon',$,(#159));
#159=IFCPROPERTYSINGLEVALUE('IsExternal',$,IFCBOOLEAN(.T.),$);
#160=IFCRELDEFINESBYPROPERTIES('000000001008000000000s',$,$,$,(#152),#158);
#161=IFCRECTANGLEPROFILEDEF(.AREA.,$,#162,8000.,300.);
#162=IFCAXIS2PLACEMENT2D(#163,$);
#163=IFCCARTESIANPOINT((4000.,-150.));
#164=IFCEXTRUDEDAREASOLID(#161,#165,#167,2500.);
#165=IFCAXIS2PLACEMENT3D(#166,$,$);
#166=IFCCARTESIANPOINT((0.,0.,0.));
#167=IFCDIRECTION((0.,0.,1.));
#168=IFCSHAPEREPRESENTATION(#8,'Body','SweptSolid',(#164));
#169=IFCPRODUCTDEFINITIONSHAPE($,$,(#168));
#170=IFCOPENINGELEMENT('000000001008000000000t',$,'\X\D6ffnung Fenster A',$,$,#174,#185,$,.OPENING.);
#171=IFCRELVOIDSELEMENT('000000001008000000000u',$,$,$,#51,#170);
#172=IFCAXIS2PLACEMENT3D(#173,$,$);
#173=IFCCARTESIANPOINT((0.,0.,0.));
#174=IFCLOCALPLACEMENT(#54,#172);
#175=IFCAXIS2PLACEMENT3D(#176,#177,#178);
#176=IFCCARTESIANPOINT((0.,0.,0.));
#177=IFCDIRECTION((0.,-1.,0.));
#178=IFCDIRECTION((1.,0.,0.));
#179=IFCEXTRUDEDAREASOLID(#180,#175,#183,300.);
#180=IFCRECTANGLEPROFILEDEF(.AREA.,$,#181,1500.,1200.);
#181=IFCAXIS2PLACEMENT2D(#182,$);
#182=IFCCARTESIANPOINT((1750.,1500.));
#183=IFCDIRECTION((0.,0.,1.));
#184=IFCSHAPEREPRESENTATION(#8,'Body','SweptSolid',(#179));
#185=IFCPRODUCTDEFINITIONSHAPE($,$,(#184));
#186=IFCWINDOW('000000001008000000000v',$,'Fenster A',$,$,$,$,$,1200.,1500.,$,$,$);
#187=IFCRELFILLSELEMENT('0000000010080000000010',$,$,$,#170,#186);
#188=IFCPROPERTYSET('0000000010080000000011',$,'Pset_WindowCommon',$,(#189,#190));
#189=IFCPROPERTYSINGLEVALUE('IsExternal',$,IFCBOOLEAN(.T.),$);
#190=IFCPROPERTYSINGLEVALUE('ThermalTransmittance',$,IFCTHERMALTRANSMITTANCEMEASURE(1.1),$);
#191=IFCRELDEFINESBYPROPERTIES('0000000010080000000012',$,$,$,(#186),#188);
#192=IFCOPENINGELEMENT('0000000010080000000013',$,'\X\D6ffnung Fenster B',$,$,#196,#207,$,.OPENING.);
#193=IFCRELVOIDSELEMENT('0000000010080000000014',$,$,$,#51,#192);
#194=IFCAXIS2PLACEMENT3D(#195,$,$);
#195=IFCCARTESIANPOINT((0.,0.,0.));
#196=IFCLOCALPLACEMENT(#54,#194);
#197=IFCAXIS2PLACEMENT3D(#198,#199,#200);
#198=IFCCARTESIANPOINT((0.,0.,0.));
#199=IFCDIRECTION((0.,-1.,0.));
#200=IFCDIRECTION((1.,0.,0.));
#201=IFCEXTRUDEDAREASOLID(#202,#197,#205,300.);
#202=IFCRECTANGLEPROFILEDEF(.AREA.,$,#203,1200.,1000.);
#203=IFCAXIS2PLACEMENT2D(#204,$);
#204=IFCCARTESIANPOINT((6600.,1500.));
#205=IFCDIRECTION((0.,0.,1.));
#206=IFCSHAPEREPRESENTATION(#8,'Body','SweptSolid',(#201));
#207=IFCPRODUCTDEFINITIONSHAPE($,$,(#206));
#208=IFCWINDOW('0000000010080000000015',$,'Fenster B',$,$,$,$,$,1000.,1200.,$,$,$);
#209=IFCRELFILLSELEMENT('0000000010080000000016',$,$,$,#192,#208);
#210=IFCPROPERTYSET('0000000010080000000017',$,'Pset_WindowCommon',$,(#211,#212));
#211=IFCPROPERTYSINGLEVALUE('IsExternal',$,IFCBOOLEAN(.T.),$);
#212=IFCPROPERTYSINGLEVALUE('ThermalTransmittance',$,IFCTHERMALTRANSMITTANCEMEASURE(1.1),$);
#213=IFCRELDEFINESBYPROPERTIES('0000000010080000000018',$,$,$,(#208),#210);
#214=IFCOPENINGELEMENT('0000000010080000000019',$,'\X\D6ffnung Loch',$,$,#218,#229,$,.OPENING.);
#215=IFCRELVOIDSELEMENT('000000001008000000001G',$,$,$,#80,#214);
#216=IFCAXIS2PLACEMENT3D(#217,$,$);
#217=IFCCARTESIANPOINT((0.,0.,0.));
#218=IFCLOCALPLACEMENT(#85,#216);
#219=IFCAXIS2PLACEMENT3D(#220,#221,#222);
#220=IFCCARTESIANPOINT((0.,0.,0.));
#221=IFCDIRECTION((0.,-1.,0.));
#222=IFCDIRECTION((1.,0.,0.));
#223=IFCEXTRUDEDAREASOLID(#224,#219,#227,300.);
#224=IFCRECTANGLEPROFILEDEF(.AREA.,$,#225,1000.,1000.);
#225=IFCAXIS2PLACEMENT2D(#226,$);
#226=IFCCARTESIANPOINT((3500.,1500.));
#227=IFCDIRECTION((0.,0.,1.));
#228=IFCSHAPEREPRESENTATION(#8,'Body','SweptSolid',(#223));
#229=IFCPRODUCTDEFINITIONSHAPE($,$,(#228));
ENDSEC;
END-ISO-10303-21;
