ISO-10303-21;
HEADER;
FILE_DESCRIPTION (('ViewDefinition [ReferenceView]'), '2;1');
FILE_NAME ('ifc4_zwei_gebaeude.ifc', '2026-09-25T00:00:00', (''), (''), 'EPOS-Plan Importprobe (EPOS.Kern.Tests)', 'EPOS-Plan Importprobe, selbst erzeugt', '');
FILE_SCHEMA (('IFC4'));
ENDSEC;
DATA;
#1=IFCPROJECT('0000000010080000000001',$,'Importprobe',$,$,$,$,(#8),#2);
#2=IFCUNITASSIGNMENT((#3,#4,#5,#6,#7));
#3=IFCSIUNIT(*,.LENGTHUNIT.,.MILLI.,.METRE.);
#4=IFCSIUNIT(*,.AREAUNIT.,$,.SQUARE_METRE.);
#5=IFCSIUNIT(*,.VOLUMEUNIT.,$,.CUBIC_METRE.);
#6=IFCSIUNIT(*,.PLANEANGLEUNIT.,$,.RADIAN.);
#7=IFCSIUNIT(*,.THERMODYNAMICTEMPERATUREUNIT.,$,.DEGREE_CELSIUS.);
#8=IFCGEOMETRICREPRESENTATIONCONTEXT($,'Model',3,1.E-05,#9,#11);
#9=IFCAXIS2PLACEMENT3D(#10,$,$);
#10=IFCCARTESIANPOINT((0.,0.,0.));
#11=IFCDIRECTION((0.,1.,0.));
#12=IFCSITE('0000000010080000000002',$,'Grundst\X\FCck',$,$,#15,$,$,.ELEMENT.,$,$,$,$,$);
#13=IFCAXIS2PLACEMENT3D(#14,$,$);
#14=IFCCARTESIANPOINT((0.,0.,0.));
#15=IFCLOCALPLACEMENT($,#13);
#16=IFCRELAGGREGATES('0000000010080000000003',$,$,$,#1,(#12));
#17=IFCWALLTYPE('0000000010080000000004',$,'Au\X\DFenwand Typ B',$,$,(#18),$,$,$,.STANDARD.);
#18=IFCPROPERTYSET('0000000010080000000005',$,'Pset_WallCommon',$,(#19,#20));
#19=IFCPROPERTYSINGLEVALUE('IsExternal',$,IFCBOOLEAN(.T.),$);
#20=IFCPROPERTYSINGLEVALUE('ThermalTransmittance',$,IFCTHERMALTRANSMITTANCEMEASURE(0.3),$);
#21=IFCBUILDING('0000000010080000000006',$,'Geb\X\E4ude A',$,$,#24,$,$,.ELEMENT.,$,$,$);
#22=IFCAXIS2PLACEMENT3D(#23,$,$);
#23=IFCCARTESIANPOINT((0.,0.,0.));
#24=IFCLOCALPLACEMENT(#15,#22);
#25=IFCRELAGGREGATES('0000000010080000000007',$,$,$,#12,(#21,#72));
#26=IFCBUILDINGSTOREY('0000000010080000000008',$,'Geb\X\E4ude A EG',$,$,#29,$,$,.ELEMENT.,0.);
#27=IFCAXIS2PLACEMENT3D(#28,$,$);
#28=IFCCARTESIANPOINT((0.,0.,0.));
#29=IFCLOCALPLACEMENT(#24,#27);
#30=IFCRELAGGREGATES('0000000010080000000009',$,$,$,#21,(#26));
#31=IFCSPACE('000000001008000000000G',$,'Geb\X\E4ude A R1',$,$,#34,$,'B\X\FCro',.ELEMENT.,$,$);
#32=IFCAXIS2PLACEMENT3D(#33,$,$);
#33=IFCCARTESIANPOINT((150.,150.,0.));
#34=IFCLOCALPLACEMENT(#29,#32);
#35=IFCRELAGGREGATES('000000001008000000000H',$,$,$,#26,(#31));
#36=IFCQUANTITYAREA('NetFloorArea',$,$,50.,$);
#37=IFCQUANTITYLENGTH('Height',$,$,2500.,$);
#38=IFCQUANTITYVOLUME('NetVolume',$,$,125.,$);
#39=IFCELEMENTQUANTITY('000000001008000000000I',$,'BaseQuantities',$,$,(#36,#37,#38));
#40=IFCRELDEFINESBYPROPERTIES('000000001008000000000J',$,$,$,(#31),#39);
#41=IFCPROPERTYSET('000000001008000000000K',$,'Pset_SpaceCommon',$,(#42));
#42=IFCPROPERTYSINGLEVALUE('IsExternal',$,IFCBOOLEAN(.F.),$);
#43=IFCRELDEFINESBYPROPERTIES('000000001008000000000L',$,$,$,(#31),#41);
#44=IFCPROPERTYBOUNDEDVALUE('SpaceTemperature',$,IFCTHERMODYNAMICTEMPERATUREMEASURE(26.),IFCTHERMODYNAMICTEMPERATUREMEASURE(18.),$,IFCTHERMODYNAMICTEMPERATUREMEASURE(20.));
#45=IFCPROPERTYSET('000000001008000000000M',$,'Pset_SpaceThermalRequirements',$,(#44));
#46=IFCRELDEFINESBYPROPERTIES('000000001008000000000N',$,$,$,(#31),#45);
#47=IFCWALL('000000001008000000000O',$,'Geb\X\E4ude A S\X\FCd',$,$,#50,$,$,.STANDARD.);
#48=IFCAXIS2PLACEMENT3D(#49,$,$);
#49=IFCCARTESIANPOINT((0.,0.,0.));
#50=IFCLOCALPLACEMENT(#29,#48);
#51=IFCRELCONTAINEDINSPATIALSTRUCTURE('000000001008000000000P',$,$,$,(#47,#60),#26);
#52=IFCRELDEFINESBYTYPE('000000001008000000000W',$,$,$,(#47,#97),#17);
#53=IFCQUANTITYAREA('GrossSideArea',$,$,30.,$);
#54=IFCQUANTITYAREA('NetSideArea',$,$,25.,$);
#55=IFCELEMENTQUANTITY('000000001008000000000X',$,'BaseQuantities',$,$,(#53,#54));
#56=IFCRELDEFINESBYPROPERTIES('000000001008000000000Y',$,$,$,(#47),#55);
#57=IFCRELSPACEBOUNDARY('000000001008000000000Z',$,'2ndLevel','2a',#31,#47,$,.PHYSICAL.,.EXTERNAL.);
#58=IFCOPENINGELEMENT('000000001008000000000a',$,'\X\D6ffnung Geb\X\E4ude A F1',$,$,$,$,$,$);
#59=IFCRELVOIDSELEMENT('000000001008000000000b',$,$,$,#47,#58);
#60=IFCWINDOW('000000001008000000000c',$,'Geb\X\E4ude A F1',$,$,$,$,$,$,$,$,$,$);
#61=IFCRELFILLSELEMENT('000000001008000000000d',$,$,$,#58,#60);
#62=IFCQUANTITYAREA('Area',$,$,5.,$);
#63=IFCELEMENTQUANTITY('000000001008000000000e',$,'Qto_WindowBaseQuantities',$,$,(#62));
#64=IFCRELDEFINESBYPROPERTIES('000000001008000000000f',$,$,$,(#60),#63);
#65=IFCPROPERTYSET('000000001008000000000m',$,'Pset_WindowCommon',$,(#66,#67));
#66=IFCPROPERTYSINGLEVALUE('IsExternal',$,IFCBOOLEAN(.T.),$);
#67=IFCPROPERTYSINGLEVALUE('ThermalTransmittance',$,IFCTHERMALTRANSMITTANCEMEASURE(1.1),$);
#68=IFCRELDEFINESBYPROPERTIES('000000001008000000000n',$,$,$,(#60),#65);
#69=IFCPROPERTYSET('000000001008000000000o',$,'Pset_DoorWindowGlazingType',$,(#70));
#70=IFCPROPERTYSINGLEVALUE('SolarHeatGainTransmittance',$,IFCNORMALISEDRATIOMEASURE(0.6),$);
#71=IFCRELDEFINESBYPROPERTIES('000000001008000000000p',$,$,$,(#60),#69);
#72=IFCBUILDING('000000001008000000000q',$,'Geb\X\E4ude B',$,$,#75,$,$,.ELEMENT.,$,$,$);
#73=IFCAXIS2PLACEMENT3D(#74,$,$);
#74=IFCCARTESIANPOINT((0.,0.,0.));
#75=IFCLOCALPLACEMENT(#15,#73);
#76=IFCBUILDINGSTOREY('000000001008000000000r',$,'Geb\X\E4ude B EG',$,$,#79,$,$,.ELEMENT.,0.);
#77=IFCAXIS2PLACEMENT3D(#78,$,$);
#78=IFCCARTESIANPOINT((0.,0.,0.));
#79=IFCLOCALPLACEMENT(#75,#77);
#80=IFCRELAGGREGATES('000000001008000000000s',$,$,$,#72,(#76));
#81=IFCSPACE('000000001008000000000t',$,'Geb\X\E4ude B R1',$,$,#84,$,'B\X\FCro',.ELEMENT.,$,$);
#82=IFCAXIS2PLACEMENT3D(#83,$,$);
#83=IFCCARTESIANPOINT((150.,150.,0.));
#84=IFCLOCALPLACEMENT(#79,#82);
#85=IFCRELAGGREGATES('000000001008000000000u',$,$,$,#76,(#81));
#86=IFCQUANTITYAREA('NetFloorArea',$,$,80.,$);
#87=IFCQUANTITYLENGTH('Height',$,$,2500.,$);
#88=IFCQUANTITYVOLUME('NetVolume',$,$,200.,$);
#89=IFCELEMENTQUANTITY('000000001008000000000v',$,'BaseQuantities',$,$,(#86,#87,#88));
#90=IFCRELDEFINESBYPROPERTIES('0000000010080000000010',$,$,$,(#81),#89);
#91=IFCPROPERTYSET('0000000010080000000011',$,'Pset_SpaceCommon',$,(#92));
#92=IFCPROPERTYSINGLEVALUE('IsExternal',$,IFCBOOLEAN(.F.),$);
#93=IFCRELDEFINESBYPROPERTIES('0000000010080000000012',$,$,$,(#81),#91);
#94=IFCPROPERTYBOUNDEDVALUE('SpaceTemperature',$,IFCTHERMODYNAMICTEMPERATUREMEASURE(26.),IFCTHERMODYNAMICTEMPERATUREMEASURE(18.),$,IFCTHERMODYNAMICTEMPERATUREMEASURE(20.));
#95=IFCPROPERTYSET('0000000010080000000013',$,'Pset_SpaceThermalRequirements',$,(#94));
#96=IFCRELDEFINESBYPROPERTIES('0000000010080000000014',$,$,$,(#81),#95);
#97=IFCWALL('0000000010080000000015',$,'Geb\X\E4ude B S\X\FCd',$,$,#100,$,$,.STANDARD.);
#98=IFCAXIS2PLACEMENT3D(#99,$,$);
#99=IFCCARTESIANPOINT((0.,0.,0.));
#100=IFCLOCALPLACEMENT(#79,#98);
#101=IFCRELCONTAINEDINSPATIALSTRUCTURE('0000000010080000000016',$,$,$,(#97,#109),#76);
#102=IFCQUANTITYAREA('GrossSideArea',$,$,30.,$);
#103=IFCQUANTITYAREA('NetSideArea',$,$,22.,$);
#104=IFCELEMENTQUANTITY('0000000010080000000017',$,'BaseQuantities',$,$,(#102,#103));
#105=IFCRELDEFINESBYPROPERTIES('0000000010080000000018',$,$,$,(#97),#104);
#106=IFCRELSPACEBOUNDARY('0000000010080000000019',$,'2ndLevel','2a',#81,#97,$,.PHYSICAL.,.EXTERNAL.);
#107=IFCOPENINGELEMENT('000000001008000000001G',$,'\X\D6ffnung Geb\X\E4ude B F1',$,$,$,$,$,$);
#108=IFCRELVOIDSELEMENT('000000001008000000001H',$,$,$,#97,#107);
#109=IFCWINDOW('000000001008000000001I',$,'Geb\X\E4ude B F1',$,$,$,$,$,$,$,$,$,$);
#110=IFCRELFILLSELEMENT('000000001008000000001J',$,$,$,#107,#109);
#111=IFCQUANTITYAREA('Area',$,$,8.,$);
#112=IFCELEMENTQUANTITY('000000001008000000001K',$,'Qto_WindowBaseQuantities',$,$,(#111));
#113=IFCRELDEFINESBYPROPERTIES('000000001008000000001L',$,$,$,(#109),#112);
#114=IFCPROPERTYSET('000000001008000000001M',$,'Pset_WindowCommon',$,(#115,#116));
#115=IFCPROPERTYSINGLEVALUE('IsExternal',$,IFCBOOLEAN(.T.),$);
#116=IFCPROPERTYSINGLEVALUE('ThermalTransmittance',$,IFCTHERMALTRANSMITTANCEMEASURE(1.1),$);
#117=IFCRELDEFINESBYPROPERTIES('000000001008000000001N',$,$,$,(#109),#114);
#118=IFCPROPERTYSET('000000001008000000001O',$,'Pset_DoorWindowGlazingType',$,(#119));
#119=IFCPROPERTYSINGLEVALUE('SolarHeatGainTransmittance',$,IFCNORMALISEDRATIOMEASURE(0.6),$);
#120=IFCRELDEFINESBYPROPERTIES('000000001008000000001P',$,$,$,(#109),#118);
ENDSEC;
END-ISO-10303-21;
