ISO-10303-21;
HEADER;
FILE_DESCRIPTION (('ViewDefinition [ReferenceView]'), '2;1');
FILE_NAME ('ifc4_g5_befund.ifc', '2026-09-25T00:00:00', (''), (''), 'EPOS-Plan Importprobe (EPOS.Kern.Tests)', 'EPOS-Plan Importprobe, selbst erzeugt', '');
FILE_SCHEMA (('IFC4'));
ENDSEC;
DATA;
#1=IFCPROJECT('0000000010080000000001',$,'Importprobe',$,$,$,$,(#8),#2);
#2=IFCUNITASSIGNMENT((#3,#4,#5,#6,#7));
#3=IFCSIUNIT(*,.LENGTHUNIT.,.MILLI.,.METRE.);
#4=IFCSIUNIT(*,.AREAUNIT.,$,.SQUARE_METRE.);
#5=IFCSIUNIT(*,.VOLUMEUNIT.,$,.CUBIC_METRE.);
#6=IFCSIUNIT(*,.PLANEANGLEUNIT.,$,.RADIAN.);
#7=IFCSIUNIT(*,.THERMODYNAMICTEMPERATUREUNIT.,$,.DEGREE_CELSIUS.);
#8=IFCGEOMETRICREPRESENTATIONCONTEXT($,'Model',3,1.E-05,#9,#11);
#9=IFCAXIS2PLACEMENT3D(#10,$,$);
#10=IFCCARTESIANPOINT((0.,0.,0.));
#11=IFCDIRECTION((0.,1.,0.));
#12=IFCSITE('0000000010080000000002',$,'Grundst\X\FCck',$,$,#15,$,$,.ELEMENT.,$,$,$,$,$);
#13=IFCAXIS2PLACEMENT3D(#14,$,$);
#14=IFCCARTESIANPOINT((0.,0.,0.));
#15=IFCLOCALPLACEMENT($,#13);
#16=IFCRELAGGREGATES('0000000010080000000003',$,$,$,#1,(#12));
#17=IFCBUILDING('0000000010080000000004',$,'Befundhaus',$,$,#20,$,$,.ELEMENT.,$,$,$);
#18=IFCAXIS2PLACEMENT3D(#19,$,$);
#19=IFCCARTESIANPOINT((0.,0.,0.));
#20=IFCLOCALPLACEMENT(#15,#18);
#21=IFCRELAGGREGATES('0000000010080000000005',$,$,$,#12,(#17));
#22=IFCBUILDINGSTOREY('0000000010080000000006',$,'Erdgeschoss',$,$,#25,$,$,.ELEMENT.,0.);
#23=IFCAXIS2PLACEMENT3D(#24,$,$);
#24=IFCCARTESIANPOINT((0.,0.,0.));
#25=IFCLOCALPLACEMENT(#20,#23);
#26=IFCRELAGGREGATES('0000000010080000000007',$,$,$,#17,(#22));
#27=IFCSPACE('0000000010080000000008',$,'0.01',$,$,#30,#50,'Wohnen',.ELEMENT.,$,$);
#28=IFCAXIS2PLACEMENT3D(#29,$,$);
#29=IFCCARTESIANPOINT((0.,0.,0.));
#30=IFCLOCALPLACEMENT(#25,#28);
#31=IFCRELAGGREGATES('0000000010080000000009',$,$,$,#22,(#27));
#32=IFCPROPERTYSET('000000001008000000000G',$,'Pset_SpaceCommon',$,(#33));
#33=IFCPROPERTYSINGLEVALUE('IsExternal',$,IFCBOOLEAN(.F.),$);
#34=IFCRELDEFINESBYPROPERTIES('000000001008000000000H',$,$,$,(#27),#32);
#35=IFCPROPERTYBOUNDEDVALUE('SpaceTemperature',$,IFCTHERMODYNAMICTEMPERATUREMEASURE(26.),IFCTHERMODYNAMICTEMPERATUREMEASURE(18.),$,IFCTHERMODYNAMICTEMPERATUREMEASURE(20.));
#36=IFCPROPERTYSET('000000001008000000000I',$,'Pset_SpaceThermalRequirements',$,(#35));
#37=IFCRELDEFINESBYPROPERTIES('000000001008000000000J',$,$,$,(#27),#36);
#38=IFCPOLYLINE((#39,#40,#41,#42,#43));
#39=IFCCARTESIANPOINT((0.,0.));
#40=IFCCARTESIANPOINT((10000.,0.));
#41=IFCCARTESIANPOINT((10000.,8000.));
#42=IFCCARTESIANPOINT((0.,8000.));
#43=IFCCARTESIANPOINT((0.,0.));
#44=IFCARBITRARYCLOSEDPROFILEDEF(.AREA.,$,#38);
#45=IFCAXIS2PLACEMENT3D(#46,$,$);
#46=IFCCARTESIANPOINT((0.,0.,0.));
#47=IFCEXTRUDEDAREASOLID(#44,#45,#48,2500.);
#48=IFCDIRECTION((0.,0.,1.));
#49=IFCSHAPEREPRESENTATION(#8,'Body','SweptSolid',(#47));
#50=IFCPRODUCTDEFINITIONSHAPE($,$,(#49));
#51=IFCWALL('000000001008000000000K',$,'Wand S\X\FCd',$,$,#54,#65,$,.STANDARD.);
#52=IFCAXIS2PLACEMENT3D(#53,$,$);
#53=IFCCARTESIANPOINT((0.,0.,0.));
#54=IFCLOCALPLACEMENT(#25,#52);
#55=IFCRELCONTAINEDINSPATIALSTRUCTURE('000000001008000000000L',$,$,$,(#51,#66,#92,#143,#164,#185),#22);
#56=IFCPROPERTYSET('000000001008000000000M',$,'Pset_WallCommon',$,(#57));
#57=IFCPROPERTYSINGLEVALUE('IsExternal',$,IFCBOOLEAN(.T.),$);
#58=IFCRELDEFINESBYPROPERTIES('000000001008000000000N',$,$,$,(#51),#56);
#59=IFCQUANTITYAREA('GrossSideArea',$,$,25.,$);
#60=IFCELEMENTQUANTITY('000000001008000000000O',$,'Qto_WallBaseQuantities',$,$,(#59));
#61=IFCRELDEFINESBYPROPERTIES('000000001008000000000P',$,$,$,(#51),#60);
#62=IFCADVANCEDBREP(#63);
#63=IFCCLOSEDSHELL(());
#64=IFCSHAPEREPRESENTATION(#8,'Body','AdvancedBrep',(#62));
#65=IFCPRODUCTDEFINITIONSHAPE($,$,(#64));
#66=IFCWALL('000000001008000000000W',$,'Wand Ost',$,$,#71,#91,$,.STANDARD.);
#67=IFCAXIS2PLACEMENT3D(#68,#69,#70);
#68=IFCCARTESIANPOINT((10000.,0.,0.));
#69=IFCDIRECTION((0.,0.,1.));
#70=IFCDIRECTION((0.,1.,0.));
#71=IFCLOCALPLACEMENT(#25,#67);
#72=IFCPROPERTYSET('000000001008000000000X',$,'Pset_WallCommon',$,(#73));
#73=IFCPROPERTYSINGLEVALUE('IsExternal',$,IFCBOOLEAN(.T.),$);
#74=IFCRELDEFINESBYPROPERTIES('000000001008000000000Y',$,$,$,(#66),#72);
#75=IFCQUANTITYAREA('GrossSideArea',$,$,20.,$);
#76=IFCELEMENTQUANTITY('000000001008000000000Z',$,'Qto_WallBaseQuantities',$,$,(#75));
#77=IFCRELDEFINESBYPROPERTIES('000000001008000000000a',$,$,$,(#66),#76);
#78=IFCPLANE(#79);
#79=IFCAXIS2PLACEMENT3D(#80,$,$);
#80=IFCCARTESIANPOINT((0.,0.,2500.));
#81=IFCHALFSPACESOLID(#78,.F.);
#82=IFCBOOLEANCLIPPINGRESULT(.DIFFERENCE.,#86,#81);
#83=IFCRECTANGLEPROFILEDEF(.AREA.,$,#84,4000.,3000.);
#84=IFCAXIS2PLACEMENT2D(#85,$);
#85=IFCCARTESIANPOINT((2000.,1500.));
#86=IFCEXTRUDEDAREASOLID(#83,#87,#89,3000.);
#87=IFCAXIS2PLACEMENT3D(#88,$,$);
#88=IFCCARTESIANPOINT((0.,0.,0.));
#89=IFCDIRECTION((0.,0.,1.));
#90=IFCSHAPEREPRESENTATION(#8,'Body','Clipping',(#82));
#91=IFCPRODUCTDEFINITIONSHAPE($,$,(#90));
#92=IFCWALL('000000001008000000000b',$,'Wand Nord',$,$,#97,#142,$,.STANDARD.);
#93=IFCAXIS2PLACEMENT3D(#94,#95,#96);
#94=IFCCARTESIANPOINT((10000.,8000.,0.));
#95=IFCDIRECTION((0.,0.,1.));
#96=IFCDIRECTION((-1.,0.,0.));
#97=IFCLOCALPLACEMENT(#25,#93);
#98=IFCPROPERTYSET('000000001008000000000c',$,'Pset_WallCommon',$,(#99));
#99=IFCPROPERTYSINGLEVALUE('IsExternal',$,IFCBOOLEAN(.T.),$);
#100=IFCRELDEFINESBYPROPERTIES('000000001008000000000d',$,$,$,(#92),#98);
#101=IFCQUANTITYAREA('GrossSideArea',$,$,25.,$);
#102=IFCELEMENTQUANTITY('000000001008000000000e',$,'Qto_WallBaseQuantities',$,$,(#101));
#103=IFCRELDEFINESBYPROPERTIES('000000001008000000000f',$,$,$,(#92),#102);
#104=IFCOPENSHELL((#111,#118,#125,#132,#139));
#105=IFCPOLYLOOP((#106,#107,#108,#109));
#106=IFCCARTESIANPOINT((0.,0.,0.));
#107=IFCCARTESIANPOINT((0.,300.,0.));
#108=IFCCARTESIANPOINT((10000.,300.,0.));
#109=IFCCARTESIANPOINT((10000.,0.,0.));
#110=IFCFACEOUTERBOUND(#105,.T.);
#111=IFCFACE((#110));
#112=IFCPOLYLOOP((#113,#114,#115,#116));
#113=IFCCARTESIANPOINT((0.,0.,0.));
#114=IFCCARTESIANPOINT((10000.,0.,0.));
#115=IFCCARTESIANPOINT((10000.,0.,2500.));
#116=IFCCARTESIANPOINT((0.,0.,2500.));
#117=IFCFACEOUTERBOUND(#112,.T.);
#118=IFCFACE((#117));
#119=IFCPOLYLOOP((#120,#121,#122,#123));
#120=IFCCARTESIANPOINT((10000.,0.,0.));
#121=IFCCARTESIANPOINT((10000.,300.,0.));
#122=IFCCARTESIANPOINT((10000.,300.,2500.));
#123=IFCCARTESIANPOINT((10000.,0.,2500.));
#124=IFCFACEOUTERBOUND(#119,.T.);
#125=IFCFACE((#124));
#126=IFCPOLYLOOP((#127,#128,#129,#130));
#127=IFCCARTESIANPOINT((10000.,300.,0.));
#128=IFCCARTESIANPOINT((0.,300.,0.));
#129=IFCCARTESIANPOINT((0.,300.,2500.));
#130=IFCCARTESIANPOINT((10000.,300.,2500.));
#131=IFCFACEOUTERBOUND(#126,.T.);
#132=IFCFACE((#131));
#133=IFCPOLYLOOP((#134,#135,#136,#137));
#134=IFCCARTESIANPOINT((0.,300.,2500.));
#135=IFCCARTESIANPOINT((0.,0.,2500.));
#136=IFCCARTESIANPOINT((0.,0.,0.));
#137=IFCCARTESIANPOINT((0.,300.,0.));
#138=IFCFACEOUTERBOUND(#133,.F.);
#139=IFCFACE((#138));
#140=IFCSHELLBASEDSURFACEMODEL((#104));
#141=IFCSHAPEREPRESENTATION(#8,'Body','SurfaceModel',(#140));
#142=IFCPRODUCTDEFINITIONSHAPE($,$,(#141));
#143=IFCWALL('000000001008000000000m',$,'Wand West',$,$,#148,#163,$,.STANDARD.);
#144=IFCAXIS2PLACEMENT3D(#145,#146,#147);
#145=IFCCARTESIANPOINT((0.,8000.,0.));
#146=IFCDIRECTION((0.,0.,1.));
#147=IFCDIRECTION((0.,-1.,0.));
#148=IFCLOCALPLACEMENT(#25,#144);
#149=IFCPROPERTYSET('000000001008000000000n',$,'Pset_WallCommon',$,(#150));
#150=IFCPROPERTYSINGLEVALUE('IsExternal',$,IFCBOOLEAN(.T.),$);
#151=IFCRELDEFINESBYPROPERTIES('000000001008000000000o',$,$,$,(#143),#149);
#152=IFCQUANTITYAREA('GrossSideArea',$,$,20.,$);
#153=IFCELEMENTQUANTITY('000000001008000000000p',$,'Qto_WallBaseQuantities',$,$,(#152));
#154=IFCRELDEFINESBYPROPERTIES('000000001008000000000q',$,$,$,(#143),#153);
#155=IFCRECTANGLEPROFILEDEF(.AREA.,$,#156,8000.,300.);
#156=IFCAXIS2PLACEMENT2D(#157,$);
#157=IFCCARTESIANPOINT((4000.,-150.));
#158=IFCEXTRUDEDAREASOLID(#155,#159,#161,2500.);
#159=IFCAXIS2PLACEMENT3D(#160,$,$);
#160=IFCCARTESIANPOINT((0.,0.,0.));
#161=IFCDIRECTION((0.,0.,1.));
#162=IFCSHAPEREPRESENTATION(#8,'Body','SweptSolid',(#158));
#163=IFCPRODUCTDEFINITIONSHAPE($,$,(#162));
#164=IFCWALL('000000001008000000000r',$,'Wand Teil',$,$,#167,#184,$,.STANDARD.);
#165=IFCAXIS2PLACEMENT3D(#166,$,$);
#166=IFCCARTESIANPOINT((0.,4000.,0.));
#167=IFCLOCALPLACEMENT(#25,#165);
#168=IFCPROPERTYSET('000000001008000000000s',$,'Pset_WallCommon',$,(#169));
#169=IFCPROPERTYSINGLEVALUE('IsExternal',$,IFCBOOLEAN(.T.),$);
#170=IFCRELDEFINESBYPROPERTIES('000000001008000000000t',$,$,$,(#164),#168);
#171=IFCQUANTITYAREA('GrossSideArea',$,$,10.,$);
#172=IFCELEMENTQUANTITY('000000001008000000000u',$,'Qto_WallBaseQuantities',$,$,(#171));
#173=IFCRELDEFINESBYPROPERTIES('000000001008000000000v',$,$,$,(#164),#172);
#174=IFCRECTANGLEPROFILEDEF(.AREA.,$,#175,4000.,300.);
#175=IFCAXIS2PLACEMENT2D(#176,$);
#176=IFCCARTESIANPOINT((2000.,-150.));
#177=IFCEXTRUDEDAREASOLID(#174,#178,#180,2500.);
#178=IFCAXIS2PLACEMENT3D(#179,$,$);
#179=IFCCARTESIANPOINT((0.,0.,0.));
#180=IFCDIRECTION((0.,0.,1.));
#181=IFCADVANCEDBREP(#182);
#182=IFCCLOSEDSHELL(());
#183=IFCSHAPEREPRESENTATION(#8,'Body','SweptSolid',(#177,#181));
#184=IFCPRODUCTDEFINITIONSHAPE($,$,(#183));
#185=IFCWALL('0000000010080000000010',$,'Wand Platte',$,$,#188,#205,$,.STANDARD.);
#186=IFCAXIS2PLACEMENT3D(#187,$,$);
#187=IFCCARTESIANPOINT((5000.,4000.,0.));
#188=IFCLOCALPLACEMENT(#25,#186);
#189=IFCPROPERTYSET('0000000010080000000011',$,'Pset_WallCommon',$,(#190));
#190=IFCPROPERTYSINGLEVALUE('IsExternal',$,IFCBOOLEAN(.T.),$);
#191=IFCRELDEFINESBYPROPERTIES('0000000010080000000012',$,$,$,(#185),#189);
#192=IFCQUANTITYAREA('GrossSideArea',$,$,12.,$);
#193=IFCELEMENTQUANTITY('0000000010080000000013',$,'Qto_WallBaseQuantities',$,$,(#192));
#194=IFCRELDEFINESBYPROPERTIES('0000000010080000000014',$,$,$,(#185),#193);
#195=IFCCLOSEDSHELL((#202));
#196=IFCPOLYLOOP((#197,#198,#199,#200));
#197=IFCCARTESIANPOINT((0.,0.,0.));
#198=IFCCARTESIANPOINT((3000.,0.,0.));
#199=IFCCARTESIANPOINT((3000.,300.,0.));
#200=IFCCARTESIANPOINT((0.,300.,0.));
#201=IFCFACEOUTERBOUND(#196,.T.);
#202=IFCFACE((#201));
#203=IFCFACETEDBREP(#195);
#204=IFCSHAPEREPRESENTATION(#8,'Body','Brep',(#203));
#205=IFCPRODUCTDEFINITIONSHAPE($,$,(#204));
ENDSEC;
END-ISO-10303-21;
