ISO-10303-21;
HEADER;
FILE_DESCRIPTION (('ViewDefinition [ReferenceView]'), '2;1');
FILE_NAME ('ifc4_g5_kleinhaus_mit_mengen.ifc', '2026-09-25T00:00:00', (''), (''), 'EPOS-Plan Importprobe (EPOS.Kern.Tests)', 'EPOS-Plan Importprobe, selbst erzeugt', '');
FILE_SCHEMA (('IFC4'));
ENDSEC;
DATA;
#1=IFCPROJECT('0000000010080000000001',$,'Importprobe',$,$,$,$,(#8),#2);
#2=IFCUNITASSIGNMENT((#3,#4,#5,#6,#7));
#3=IFCSIUNIT(*,.LENGTHUNIT.,.MILLI.,.METRE.);
#4=IFCSIUNIT(*,.AREAUNIT.,$,.SQUARE_METRE.);
#5=IFCSIUNIT(*,.VOLUMEUNIT.,$,.CUBIC_METRE.);
#6=IFCSIUNIT(*,.PLANEANGLEUNIT.,$,.RADIAN.);
#7=IFCSIUNIT(*,.THERMODYNAMICTEMPERATUREUNIT.,$,.DEGREE_CELSIUS.);
#8=IFCGEOMETRICREPRESENTATIONCONTEXT($,'Model',3,1.E-05,#9,#11);
#9=IFCAXIS2PLACEMENT3D(#10,$,$);
#10=IFCCARTESIANPOINT((0.,0.,0.));
#11=IFCDIRECTION((0.,1.,0.));
#12=IFCSITE('0000000010080000000002',$,'Grundst\X\FCck',$,$,#15,$,$,.ELEMENT.,$,$,$,$,$);
#13=IFCAXIS2PLACEMENT3D(#14,$,$);
#14=IFCCARTESIANPOINT((0.,0.,0.));
#15=IFCLOCALPLACEMENT($,#13);
#16=IFCRELAGGREGATES('0000000010080000000003',$,$,$,#1,(#12));
#17=IFCBUILDING('0000000010080000000004',$,'Kleinhaus',$,$,#20,$,$,.ELEMENT.,$,$,$);
#18=IFCAXIS2PLACEMENT3D(#19,$,$);
#19=IFCCARTESIANPOINT((0.,0.,0.));
#20=IFCLOCALPLACEMENT(#15,#18);
#21=IFCRELAGGREGATES('0000000010080000000005',$,$,$,#12,(#17));
#22=IFCBUILDINGSTOREY('0000000010080000000006',$,'Kellergeschoss',$,$,#25,$,$,.ELEMENT.,-2500.);
#23=IFCAXIS2PLACEMENT3D(#24,$,$);
#24=IFCCARTESIANPOINT((0.,0.,-2500.));
#25=IFCLOCALPLACEMENT(#20,#23);
#26=IFCRELAGGREGATES('0000000010080000000007',$,$,$,#17,(#22,#27,#31));
#27=IFCBUILDINGSTOREY('0000000010080000000008',$,'Erdgeschoss',$,$,#30,$,$,.ELEMENT.,0.);
#28=IFCAXIS2PLACEMENT3D(#29,$,$);
#29=IFCCARTESIANPOINT((0.,0.,0.));
#30=IFCLOCALPLACEMENT(#20,#28);
#31=IFCBUILDINGSTOREY('0000000010080000000009',$,'Obergeschoss',$,$,#34,$,$,.ELEMENT.,2800.);
#32=IFCAXIS2PLACEMENT3D(#33,$,$);
#33=IFCCARTESIANPOINT((0.,0.,2800.));
#34=IFCLOCALPLACEMENT(#20,#32);
#35=IFCSPACE('000000001008000000000G',$,'K.01',$,$,#38,#140,'Keller',.ELEMENT.,$,$);
#36=IFCAXIS2PLACEMENT3D(#37,$,$);
#37=IFCCARTESIANPOINT((0.,0.,0.));
#38=IFCLOCALPLACEMENT(#25,#36);
#39=IFCRELAGGREGATES('000000001008000000000H',$,$,$,#22,(#35));
#40=IFCQUANTITYAREA('NetFloorArea',$,$,50.76,$);
#41=IFCQUANTITYLENGTH('Height',$,$,2200.,$);
#42=IFCQUANTITYVOLUME('NetVolume',$,$,111.672,$);
#43=IFCELEMENTQUANTITY('000000001008000000000I',$,'BaseQuantities',$,$,(#40,#41,#42));
#44=IFCRELDEFINESBYPROPERTIES('000000001008000000000J',$,$,$,(#35),#43);
#45=IFCPROPERTYSET('000000001008000000000K',$,'Pset_SpaceCommon',$,(#46));
#46=IFCPROPERTYSINGLEVALUE('IsExternal',$,IFCBOOLEAN(.F.),$);
#47=IFCRELDEFINESBYPROPERTIES('000000001008000000000L',$,$,$,(#35),#45);
#48=IFCSPACE('000000001008000000000M',$,'0.01',$,$,#51,#186,'Wohnen',.ELEMENT.,$,$);
#49=IFCAXIS2PLACEMENT3D(#50,$,$);
#50=IFCCARTESIANPOINT((0.,0.,0.));
#51=IFCLOCALPLACEMENT(#30,#49);
#52=IFCRELAGGREGATES('000000001008000000000N',$,$,$,#27,(#48,#64));
#53=IFCQUANTITYAREA('NetFloorArea',$,$,30.132,$);
#54=IFCQUANTITYLENGTH('Height',$,$,2500.,$);
#55=IFCQUANTITYVOLUME('NetVolume',$,$,75.33,$);
#56=IFCELEMENTQUANTITY('000000001008000000000O',$,'BaseQuantities',$,$,(#53,#54,#55));
#57=IFCRELDEFINESBYPROPERTIES('000000001008000000000P',$,$,$,(#48),#56);
#58=IFCPROPERTYSET('000000001008000000000W',$,'Pset_SpaceCommon',$,(#59));
#59=IFCPROPERTYSINGLEVALUE('IsExternal',$,IFCBOOLEAN(.F.),$);
#60=IFCRELDEFINESBYPROPERTIES('000000001008000000000X',$,$,$,(#48),#58);
#61=IFCPROPERTYBOUNDEDVALUE('SpaceTemperature',$,IFCTHERMODYNAMICTEMPERATUREMEASURE(26.),IFCTHERMODYNAMICTEMPERATUREMEASURE(18.),$,IFCTHERMODYNAMICTEMPERATUREMEASURE(20.));
#62=IFCPROPERTYSET('000000001008000000000Y',$,'Pset_SpaceThermalRequirements',$,(#61));
#63=IFCRELDEFINESBYPROPERTIES('000000001008000000000Z',$,$,$,(#48),#62);
#64=IFCSPACE('000000001008000000000a',$,'0.02',$,$,#67,#232,'K\X\FCche',.ELEMENT.,$,$);
#65=IFCAXIS2PLACEMENT3D(#66,$,$);
#66=IFCCARTESIANPOINT((0.,0.,0.));
#67=IFCLOCALPLACEMENT(#30,#65);
#68=IFCQUANTITYAREA('NetFloorArea',$,$,19.332,$);
#69=IFCQUANTITYLENGTH('Height',$,$,2500.,$);
#70=IFCQUANTITYVOLUME('NetVolume',$,$,48.33,$);
#71=IFCELEMENTQUANTITY('000000001008000000000b',$,'BaseQuantities',$,$,(#68,#69,#70));
#72=IFCRELDEFINESBYPROPERTIES('000000001008000000000c',$,$,$,(#64),#71);
#73=IFCPROPERTYSET('000000001008000000000d',$,'Pset_SpaceCommon',$,(#74));
#74=IFCPROPERTYSINGLEVALUE('IsExternal',$,IFCBOOLEAN(.F.),$);
#75=IFCRELDEFINESBYPROPERTIES('000000001008000000000e',$,$,$,(#64),#73);
#76=IFCPROPERTYBOUNDEDVALUE('SpaceTemperature',$,IFCTHERMODYNAMICTEMPERATUREMEASURE(26.),IFCTHERMODYNAMICTEMPERATUREMEASURE(18.),$,IFCTHERMODYNAMICTEMPERATUREMEASURE(20.));
#77=IFCPROPERTYSET('000000001008000000000f',$,'Pset_SpaceThermalRequirements',$,(#76));
#78=IFCRELDEFINESBYPROPERTIES('000000001008000000000m',$,$,$,(#64),#77);
#79=IFCSPACE('000000001008000000000n',$,'1.01',$,$,#82,#278,'Schlafen',.ELEMENT.,$,$);
#80=IFCAXIS2PLACEMENT3D(#81,$,$);
#81=IFCCARTESIANPOINT((0.,0.,0.));
#82=IFCLOCALPLACEMENT(#34,#80);
#83=IFCRELAGGREGATES('000000001008000000000o',$,$,$,#31,(#79));
#84=IFCQUANTITYAREA('NetFloorArea',$,$,50.76,$);
#85=IFCQUANTITYLENGTH('Height',$,$,3025.,$);
#86=IFCQUANTITYVOLUME('NetVolume',$,$,153.549,$);
#87=IFCELEMENTQUANTITY('000000001008000000000p',$,'BaseQuantities',$,$,(#84,#85,#86));
#88=IFCRELDEFINESBYPROPERTIES('000000001008000000000q',$,$,$,(#79),#87);
#89=IFCPROPERTYSET('000000001008000000000r',$,'Pset_SpaceCommon',$,(#90));
#90=IFCPROPERTYSINGLEVALUE('IsExternal',$,IFCBOOLEAN(.F.),$);
#91=IFCRELDEFINESBYPROPERTIES('000000001008000000000s',$,$,$,(#79),#89);
#92=IFCPROPERTYBOUNDEDVALUE('SpaceTemperature',$,IFCTHERMODYNAMICTEMPERATUREMEASURE(26.),IFCTHERMODYNAMICTEMPERATUREMEASURE(18.),$,IFCTHERMODYNAMICTEMPERATUREMEASURE(20.));
#93=IFCPROPERTYSET('000000001008000000000t',$,'Pset_SpaceThermalRequirements',$,(#92));
#94=IFCRELDEFINESBYPROPERTIES('000000001008000000000u',$,$,$,(#79),#93);
#95=IFCCLOSEDSHELL((#102,#109,#116,#123,#130,#137));
#96=IFCPOLYLOOP((#97,#98,#99,#100));
#97=IFCCARTESIANPOINT((300.,5700.,0.));
#98=IFCCARTESIANPOINT((9700.,5700.,0.));
#99=IFCCARTESIANPOINT((9700.,300.,0.));
#100=IFCCARTESIANPOINT((300.,300.,0.));
#101=IFCFACEOUTERBOUND(#96,.T.);
#102=IFCFACE((#101));
#103=IFCPOLYLOOP((#104,#105,#106,#107));
#104=IFCCARTESIANPOINT((300.,300.,2200.));
#105=IFCCARTESIANPOINT((9700.,300.,2200.));
#106=IFCCARTESIANPOINT((9700.,5700.,2200.));
#107=IFCCARTESIANPOINT((300.,5700.,2200.));
#108=IFCFACEOUTERBOUND(#103,.T.);
#109=IFCFACE((#108));
#110=IFCPOLYLOOP((#111,#112,#113,#114));
#111=IFCCARTESIANPOINT((300.,300.,0.));
#112=IFCCARTESIANPOINT((9700.,300.,0.));
#113=IFCCARTESIANPOINT((9700.,300.,2200.));
#114=IFCCARTESIANPOINT((300.,300.,2200.));
#115=IFCFACEOUTERBOUND(#110,.T.);
#116=IFCFACE((#115));
#117=IFCPOLYLOOP((#118,#119,#120,#121));
#118=IFCCARTESIANPOINT((9700.,300.,0.));
#119=IFCCARTESIANPOINT((9700.,5700.,0.));
#120=IFCCARTESIANPOINT((9700.,5700.,2200.));
#121=IFCCARTESIANPOINT((9700.,300.,2200.));
#122=IFCFACEOUTERBOUND(#117,.T.);
#123=IFCFACE((#122));
#124=IFCPOLYLOOP((#125,#126,#127,#128));
#125=IFCCARTESIANPOINT((9700.,5700.,0.));
#126=IFCCARTESIANPOINT((300.,5700.,0.));
#127=IFCCARTESIANPOINT((300.,5700.,2200.));
#128=IFCCARTESIANPOINT((9700.,5700.,2200.));
#129=IFCFACEOUTERBOUND(#124,.T.);
#130=IFCFACE((#129));
#131=IFCPOLYLOOP((#132,#133,#134,#135));
#132=IFCCARTESIANPOINT((300.,5700.,0.));
#133=IFCCARTESIANPOINT((300.,300.,0.));
#134=IFCCARTESIANPOINT((300.,300.,2200.));
#135=IFCCARTESIANPOINT((300.,5700.,2200.));
#136=IFCFACEOUTERBOUND(#131,.T.);
#137=IFCFACE((#136));
#138=IFCFACETEDBREP(#95);
#139=IFCSHAPEREPRESENTATION(#8,'Body','Brep',(#138));
#140=IFCPRODUCTDEFINITIONSHAPE($,$,(#139));
#141=IFCCLOSEDSHELL((#148,#155,#162,#169,#176,#183));
#142=IFCPOLYLOOP((#143,#144,#145,#146));
#143=IFCCARTESIANPOINT((300.,5700.,0.));
#144=IFCCARTESIANPOINT((5880.,5700.,0.));
#145=IFCCARTESIANPOINT((5880.,300.,0.));
#146=IFCCARTESIANPOINT((300.,300.,0.));
#147=IFCFACEOUTERBOUND(#142,.T.);
#148=IFCFACE((#147));
#149=IFCPOLYLOOP((#150,#151,#152,#153));
#150=IFCCARTESIANPOINT((300.,300.,2500.));
#151=IFCCARTESIANPOINT((5880.,300.,2500.));
#152=IFCCARTESIANPOINT((5880.,5700.,2500.));
#153=IFCCARTESIANPOINT((300.,5700.,2500.));
#154=IFCFACEOUTERBOUND(#149,.T.);
#155=IFCFACE((#154));
#156=IFCPOLYLOOP((#157,#158,#159,#160));
#157=IFCCARTESIANPOINT((300.,300.,0.));
#158=IFCCARTESIANPOINT((5880.,300.,0.));
#159=IFCCARTESIANPOINT((5880.,300.,2500.));
#160=IFCCARTESIANPOINT((300.,300.,2500.));
#161=IFCFACEOUTERBOUND(#156,.T.);
#162=IFCFACE((#161));
#163=IFCPOLYLOOP((#164,#165,#166,#167));
#164=IFCCARTESIANPOINT((5880.,300.,0.));
#165=IFCCARTESIANPOINT((5880.,5700.,0.));
#166=IFCCARTESIANPOINT((5880.,5700.,2500.));
#167=IFCCARTESIANPOINT((5880.,300.,2500.));
#168=IFCFACEOUTERBOUND(#163,.T.);
#169=IFCFACE((#168));
#170=IFCPOLYLOOP((#171,#172,#173,#174));
#171=IFCCARTESIANPOINT((5880.,5700.,0.));
#172=IFCCARTESIANPOINT((300.,5700.,0.));
#173=IFCCARTESIANPOINT((300.,5700.,2500.));
#174=IFCCARTESIANPOINT((5880.,5700.,2500.));
#175=IFCFACEOUTERBOUND(#170,.T.);
#176=IFCFACE((#175));
#177=IFCPOLYLOOP((#178,#179,#180,#181));
#178=IFCCARTESIANPOINT((300.,5700.,0.));
#179=IFCCARTESIANPOINT((300.,300.,0.));
#180=IFCCARTESIANPOINT((300.,300.,2500.));
#181=IFCCARTESIANPOINT((300.,5700.,2500.));
#182=IFCFACEOUTERBOUND(#177,.T.);
#183=IFCFACE((#182));
#184=IFCFACETEDBREP(#141);
#185=IFCSHAPEREPRESENTATION(#8,'Body','Brep',(#184));
#186=IFCPRODUCTDEFINITIONSHAPE($,$,(#185));
#187=IFCCLOSEDSHELL((#194,#201,#208,#215,#222,#229));
#188=IFCPOLYLOOP((#189,#190,#191,#192));
#189=IFCCARTESIANPOINT((6120.,5700.,0.));
#190=IFCCARTESIANPOINT((9700.,5700.,0.));
#191=IFCCARTESIANPOINT((9700.,300.,0.));
#192=IFCCARTESIANPOINT((6120.,300.,0.));
#193=IFCFACEOUTERBOUND(#188,.T.);
#194=IFCFACE((#193));
#195=IFCPOLYLOOP((#196,#197,#198,#199));
#196=IFCCARTESIANPOINT((6120.,300.,2500.));
#197=IFCCARTESIANPOINT((9700.,300.,2500.));
#198=IFCCARTESIANPOINT((9700.,5700.,2500.));
#199=IFCCARTESIANPOINT((6120.,5700.,2500.));
#200=IFCFACEOUTERBOUND(#195,.T.);
#201=IFCFACE((#200));
#202=IFCPOLYLOOP((#203,#204,#205,#206));
#203=IFCCARTESIANPOINT((6120.,300.,0.));
#204=IFCCARTESIANPOINT((9700.,300.,0.));
#205=IFCCARTESIANPOINT((9700.,300.,2500.));
#206=IFCCARTESIANPOINT((6120.,300.,2500.));
#207=IFCFACEOUTERBOUND(#202,.T.);
#208=IFCFACE((#207));
#209=IFCPOLYLOOP((#210,#211,#212,#213));
#210=IFCCARTESIANPOINT((9700.,300.,0.));
#211=IFCCARTESIANPOINT((9700.,5700.,0.));
#212=IFCCARTESIANPOINT((9700.,5700.,2500.));
#213=IFCCARTESIANPOINT((9700.,300.,2500.));
#214=IFCFACEOUTERBOUND(#209,.T.);
#215=IFCFACE((#214));
#216=IFCPOLYLOOP((#217,#218,#219,#220));
#217=IFCCARTESIANPOINT((9700.,5700.,0.));
#218=IFCCARTESIANPOINT((6120.,5700.,0.));
#219=IFCCARTESIANPOINT((6120.,5700.,2500.));
#220=IFCCARTESIANPOINT((9700.,5700.,2500.));
#221=IFCFACEOUTERBOUND(#216,.T.);
#222=IFCFACE((#221));
#223=IFCPOLYLOOP((#224,#225,#226,#227));
#224=IFCCARTESIANPOINT((6120.,5700.,0.));
#225=IFCCARTESIANPOINT((6120.,300.,0.));
#226=IFCCARTESIANPOINT((6120.,300.,2500.));
#227=IFCCARTESIANPOINT((6120.,5700.,2500.));
#228=IFCFACEOUTERBOUND(#223,.T.);
#229=IFCFACE((#228));
#230=IFCFACETEDBREP(#187);
#231=IFCSHAPEREPRESENTATION(#8,'Body','Brep',(#230));
#232=IFCPRODUCTDEFINITIONSHAPE($,$,(#231));
#233=IFCCLOSEDSHELL((#240,#247,#254,#261,#268,#275));
#234=IFCPOLYLOOP((#235,#236,#237,#238));
#235=IFCCARTESIANPOINT((300.,5700.,0.));
#236=IFCCARTESIANPOINT((9700.,5700.,0.));
#237=IFCCARTESIANPOINT((9700.,300.,0.));
#238=IFCCARTESIANPOINT((300.,300.,0.));
#239=IFCFACEOUTERBOUND(#234,.T.);
#240=IFCFACE((#239));
#241=IFCPOLYLOOP((#242,#243,#244,#245));
#242=IFCCARTESIANPOINT((300.,300.,1000.));
#243=IFCCARTESIANPOINT((9700.,300.,1000.));
#244=IFCCARTESIANPOINT((9700.,5700.,5050.));
#245=IFCCARTESIANPOINT((300.,5700.,5050.));
#246=IFCFACEOUTERBOUND(#241,.T.);
#247=IFCFACE((#246));
#248=IFCPOLYLOOP((#249,#250,#251,#252));
#249=IFCCARTESIANPOINT((300.,300.,0.));
#250=IFCCARTESIANPOINT((9700.,300.,0.));
#251=IFCCARTESIANPOINT((9700.,300.,1000.));
#252=IFCCARTESIANPOINT((300.,300.,1000.));
#253=IFCFACEOUTERBOUND(#248,.T.);
#254=IFCFACE((#253));
#255=IFCPOLYLOOP((#256,#257,#258,#259));
#256=IFCCARTESIANPOINT((9700.,300.,0.));
#257=IFCCARTESIANPOINT((9700.,5700.,0.));
#258=IFCCARTESIANPOINT((9700.,5700.,5050.));
#259=IFCCARTESIANPOINT((9700.,300.,1000.));
#260=IFCFACEOUTERBOUND(#255,.T.);
#261=IFCFACE((#260));
#262=IFCPOLYLOOP((#263,#264,#265,#266));
#263=IFCCARTESIANPOINT((9700.,5700.,0.));
#264=IFCCARTESIANPOINT((300.,5700.,0.));
#265=IFCCARTESIANPOINT((300.,5700.,5050.));
#266=IFCCARTESIANPOINT((9700.,5700.,5050.));
#267=IFCFACEOUTERBOUND(#262,.T.);
#268=IFCFACE((#267));
#269=IFCPOLYLOOP((#270,#271,#272,#273));
#270=IFCCARTESIANPOINT((300.,5700.,0.));
#271=IFCCARTESIANPOINT((300.,300.,0.));
#272=IFCCARTESIANPOINT((300.,300.,1000.));
#273=IFCCARTESIANPOINT((300.,5700.,5050.));
#274=IFCFACEOUTERBOUND(#269,.T.);
#275=IFCFACE((#274));
#276=IFCFACETEDBREP(#233);
#277=IFCSHAPEREPRESENTATION(#8,'Body','Brep',(#276));
#278=IFCPRODUCTDEFINITIONSHAPE($,$,(#277));
#279=IFCSLAB('000000001008000000000v',$,'Bodenplatte',$,$,#282,#333,$,.BASESLAB.);
#280=IFCAXIS2PLACEMENT3D(#281,$,$);
#281=IFCCARTESIANPOINT((0.,0.,0.));
#282=IFCLOCALPLACEMENT(#25,#280);
#283=IFCRELCONTAINEDINSPATIALSTRUCTURE('0000000010080000000010',$,$,$,(#279,#338,#396,#454,#512,#570),#22);
#284=IFCPROPERTYSET('0000000010080000000011',$,'Pset_SlabCommon',$,(#285,#286));
#285=IFCPROPERTYSINGLEVALUE('IsExternal',$,IFCBOOLEAN(.T.),$);
#286=IFCPROPERTYSINGLEVALUE('ThermalTransmittance',$,IFCTHERMALTRANSMITTANCEMEASURE(0.25),$);
#287=IFCRELDEFINESBYPROPERTIES('0000000010080000000012',$,$,$,(#279),#284);
#288=IFCCLOSEDSHELL((#295,#302,#309,#316,#323,#330));
#289=IFCPOLYLOOP((#290,#291,#292,#293));
#290=IFCCARTESIANPOINT((0.,6000.,-300.));
#291=IFCCARTESIANPOINT((10000.,6000.,-300.));
#292=IFCCARTESIANPOINT((10000.,0.,-300.));
#293=IFCCARTESIANPOINT((0.,0.,-300.));
#294=IFCFACEOUTERBOUND(#289,.T.);
#295=IFCFACE((#294));
#296=IFCPOLYLOOP((#297,#298,#299,#300));
#297=IFCCARTESIANPOINT((0.,0.,0.));
#298=IFCCARTESIANPOINT((10000.,0.,0.));
#299=IFCCARTESIANPOINT((10000.,6000.,0.));
#300=IFCCARTESIANPOINT((0.,6000.,0.));
#301=IFCFACEOUTERBOUND(#296,.T.);
#302=IFCFACE((#301));
#303=IFCPOLYLOOP((#304,#305,#306,#307));
#304=IFCCARTESIANPOINT((0.,0.,-300.));
#305=IFCCARTESIANPOINT((10000.,0.,-300.));
#306=IFCCARTESIANPOINT((10000.,0.,0.));
#307=IFCCARTESIANPOINT((0.,0.,0.));
#308=IFCFACEOUTERBOUND(#303,.T.);
#309=IFCFACE((#308));
#310=IFCPOLYLOOP((#311,#312,#313,#314));
#311=IFCCARTESIANPOINT((10000.,0.,-300.));
#312=IFCCARTESIANPOINT((10000.,6000.,-300.));
#313=IFCCARTESIANPOINT((10000.,6000.,0.));
#314=IFCCARTESIANPOINT((10000.,0.,0.));
#315=IFCFACEOUTERBOUND(#310,.T.);
#316=IFCFACE((#315));
#317=IFCPOLYLOOP((#318,#319,#320,#321));
#318=IFCCARTESIANPOINT((10000.,6000.,-300.));
#319=IFCCARTESIANPOINT((0.,6000.,-300.));
#320=IFCCARTESIANPOINT((0.,6000.,0.));
#321=IFCCARTESIANPOINT((10000.,6000.,0.));
#322=IFCFACEOUTERBOUND(#317,.T.);
#323=IFCFACE((#322));
#324=IFCPOLYLOOP((#325,#326,#327,#328));
#325=IFCCARTESIANPOINT((0.,6000.,-300.));
#326=IFCCARTESIANPOINT((0.,0.,-300.));
#327=IFCCARTESIANPOINT((0.,0.,0.));
#328=IFCCARTESIANPOINT((0.,6000.,0.));
#329=IFCFACEOUTERBOUND(#324,.T.);
#330=IFCFACE((#329));
#331=IFCFACETEDBREP(#288);
#332=IFCSHAPEREPRESENTATION(#8,'Body','Brep',(#331));
#333=IFCPRODUCTDEFINITIONSHAPE($,$,(#332));
#334=IFCQUANTITYAREA('GrossArea',$,$,60.,$);
#335=IFCQUANTITYAREA('NetArea',$,$,60.,$);
#336=IFCELEMENTQUANTITY('0000000010080000000013',$,'Qto_SlabBaseQuantities',$,$,(#334,#335));
#337=IFCRELDEFINESBYPROPERTIES('0000000010080000000014',$,$,$,(#279),#336);
#338=IFCWALL('0000000010080000000015',$,'Wand S\X\FCd KG',$,$,#341,#391,$,.STANDARD.);
#339=IFCAXIS2PLACEMENT3D(#340,$,$);
#340=IFCCARTESIANPOINT((0.,0.,0.));
#341=IFCLOCALPLACEMENT(#25,#339);
#342=IFCPROPERTYSET('0000000010080000000016',$,'Pset_WallCommon',$,(#343,#344));
#343=IFCPROPERTYSINGLEVALUE('IsExternal',$,IFCBOOLEAN(.T.),$);
#344=IFCPROPERTYSINGLEVALUE('ThermalTransmittance',$,IFCTHERMALTRANSMITTANCEMEASURE(0.3),$);
#345=IFCRELDEFINESBYPROPERTIES('0000000010080000000017',$,$,$,(#338),#342);
#346=IFCCLOSEDSHELL((#353,#360,#367,#374,#381,#388));
#347=IFCPOLYLOOP((#348,#349,#350,#351));
#348=IFCCARTESIANPOINT((0.,300.,0.));
#349=IFCCARTESIANPOINT((10000.,300.,0.));
#350=IFCCARTESIANPOINT((10000.,0.,0.));
#351=IFCCARTESIANPOINT((0.,0.,0.));
#352=IFCFACEOUTERBOUND(#347,.T.);
#353=IFCFACE((#352));
#354=IFCPOLYLOOP((#355,#356,#357,#358));
#355=IFCCARTESIANPOINT((0.,0.,2500.));
#356=IFCCARTESIANPOINT((10000.,0.,2500.));
#357=IFCCARTESIANPOINT((10000.,300.,2500.));
#358=IFCCARTESIANPOINT((0.,300.,2500.));
#359=IFCFACEOUTERBOUND(#354,.T.);
#360=IFCFACE((#359));
#361=IFCPOLYLOOP((#362,#363,#364,#365));
#362=IFCCARTESIANPOINT((0.,0.,0.));
#363=IFCCARTESIANPOINT((10000.,0.,0.));
#364=IFCCARTESIANPOINT((10000.,0.,2500.));
#365=IFCCARTESIANPOINT((0.,0.,2500.));
#366=IFCFACEOUTERBOUND(#361,.T.);
#367=IFCFACE((#366));
#368=IFCPOLYLOOP((#369,#370,#371,#372));
#369=IFCCARTESIANPOINT((10000.,0.,0.));
#370=IFCCARTESIANPOINT((10000.,300.,0.));
#371=IFCCARTESIANPOINT((10000.,300.,2500.));
#372=IFCCARTESIANPOINT((10000.,0.,2500.));
#373=IFCFACEOUTERBOUND(#368,.T.);
#374=IFCFACE((#373));
#375=IFCPOLYLOOP((#376,#377,#378,#379));
#376=IFCCARTESIANPOINT((10000.,300.,0.));
#377=IFCCARTESIANPOINT((0.,300.,0.));
#378=IFCCARTESIANPOINT((0.,300.,2500.));
#379=IFCCARTESIANPOINT((10000.,300.,2500.));
#380=IFCFACEOUTERBOUND(#375,.T.);
#381=IFCFACE((#380));
#382=IFCPOLYLOOP((#383,#384,#385,#386));
#383=IFCCARTESIANPOINT((0.,300.,0.));
#384=IFCCARTESIANPOINT((0.,0.,0.));
#385=IFCCARTESIANPOINT((0.,0.,2500.));
#386=IFCCARTESIANPOINT((0.,300.,2500.));
#387=IFCFACEOUTERBOUND(#382,.T.);
#388=IFCFACE((#387));
#389=IFCFACETEDBREP(#346);
#390=IFCSHAPEREPRESENTATION(#8,'Body','Brep',(#389));
#391=IFCPRODUCTDEFINITIONSHAPE($,$,(#390));
#392=IFCQUANTITYAREA('GrossSideArea',$,$,25.,$);
#393=IFCQUANTITYAREA('NetSideArea',$,$,25.,$);
#394=IFCELEMENTQUANTITY('0000000010080000000018',$,'Qto_WallBaseQuantities',$,$,(#392,#393));
#395=IFCRELDEFINESBYPROPERTIES('0000000010080000000019',$,$,$,(#338),#394);
#396=IFCWALL('000000001008000000001G',$,'Wand Nord KG',$,$,#399,#449,$,.STANDARD.);
#397=IFCAXIS2PLACEMENT3D(#398,$,$);
#398=IFCCARTESIANPOINT((0.,0.,0.));
#399=IFCLOCALPLACEMENT(#25,#397);
#400=IFCPROPERTYSET('000000001008000000001H',$,'Pset_WallCommon',$,(#401,#402));
#401=IFCPROPERTYSINGLEVALUE('IsExternal',$,IFCBOOLEAN(.T.),$);
#402=IFCPROPERTYSINGLEVALUE('ThermalTransmittance',$,IFCTHERMALTRANSMITTANCEMEASURE(0.3),$);
#403=IFCRELDEFINESBYPROPERTIES('000000001008000000001I',$,$,$,(#396),#400);
#404=IFCCLOSEDSHELL((#411,#418,#425,#432,#439,#446));
#405=IFCPOLYLOOP((#406,#407,#408,#409));
#406=IFCCARTESIANPOINT((0.,6000.,0.));
#407=IFCCARTESIANPOINT((10000.,6000.,0.));
#408=IFCCARTESIANPOINT((10000.,5700.,0.));
#409=IFCCARTESIANPOINT((0.,5700.,0.));
#410=IFCFACEOUTERBOUND(#405,.T.);
#411=IFCFACE((#410));
#412=IFCPOLYLOOP((#413,#414,#415,#416));
#413=IFCCARTESIANPOINT((0.,5700.,2500.));
#414=IFCCARTESIANPOINT((10000.,5700.,2500.));
#415=IFCCARTESIANPOINT((10000.,6000.,2500.));
#416=IFCCARTESIANPOINT((0.,6000.,2500.));
#417=IFCFACEOUTERBOUND(#412,.T.);
#418=IFCFACE((#417));
#419=IFCPOLYLOOP((#420,#421,#422,#423));
#420=IFCCARTESIANPOINT((0.,5700.,0.));
#421=IFCCARTESIANPOINT((10000.,5700.,0.));
#422=IFCCARTESIANPOINT((10000.,5700.,2500.));
#423=IFCCARTESIANPOINT((0.,5700.,2500.));
#424=IFCFACEOUTERBOUND(#419,.T.);
#425=IFCFACE((#424));
#426=IFCPOLYLOOP((#427,#428,#429,#430));
#427=IFCCARTESIANPOINT((10000.,5700.,0.));
#428=IFCCARTESIANPOINT((10000.,6000.,0.));
#429=IFCCARTESIANPOINT((10000.,6000.,2500.));
#430=IFCCARTESIANPOINT((10000.,5700.,2500.));
#431=IFCFACEOUTERBOUND(#426,.T.);
#432=IFCFACE((#431));
#433=IFCPOLYLOOP((#434,#435,#436,#437));
#434=IFCCARTESIANPOINT((10000.,6000.,0.));
#435=IFCCARTESIANPOINT((0.,6000.,0.));
#436=IFCCARTESIANPOINT((0.,6000.,2500.));
#437=IFCCARTESIANPOINT((10000.,6000.,2500.));
#438=IFCFACEOUTERBOUND(#433,.T.);
#439=IFCFACE((#438));
#440=IFCPOLYLOOP((#441,#442,#443,#444));
#441=IFCCARTESIANPOINT((0.,6000.,0.));
#442=IFCCARTESIANPOINT((0.,5700.,0.));
#443=IFCCARTESIANPOINT((0.,5700.,2500.));
#444=IFCCARTESIANPOINT((0.,6000.,2500.));
#445=IFCFACEOUTERBOUND(#440,.T.);
#446=IFCFACE((#445));
#447=IFCFACETEDBREP(#404);
#448=IFCSHAPEREPRESENTATION(#8,'Body','Brep',(#447));
#449=IFCPRODUCTDEFINITIONSHAPE($,$,(#448));
#450=IFCQUANTITYAREA('GrossSideArea',$,$,25.,$);
#451=IFCQUANTITYAREA('NetSideArea',$,$,25.,$);
#452=IFCELEMENTQUANTITY('000000001008000000001J',$,'Qto_WallBaseQuantities',$,$,(#450,#451));
#453=IFCRELDEFINESBYPROPERTIES('000000001008000000001K',$,$,$,(#396),#452);
#454=IFCWALL('000000001008000000001L',$,'Wand West KG',$,$,#457,#507,$,.STANDARD.);
#455=IFCAXIS2PLACEMENT3D(#456,$,$);
#456=IFCCARTESIANPOINT((0.,0.,0.));
#457=IFCLOCALPLACEMENT(#25,#455);
#458=IFCPROPERTYSET('000000001008000000001M',$,'Pset_WallCommon',$,(#459,#460));
#459=IFCPROPERTYSINGLEVALUE('IsExternal',$,IFCBOOLEAN(.T.),$);
#460=IFCPROPERTYSINGLEVALUE('ThermalTransmittance',$,IFCTHERMALTRANSMITTANCEMEASURE(0.3),$);
#461=IFCRELDEFINESBYPROPERTIES('000000001008000000001N',$,$,$,(#454),#458);
#462=IFCCLOSEDSHELL((#469,#476,#483,#490,#497,#504));
#463=IFCPOLYLOOP((#464,#465,#466,#467));
#464=IFCCARTESIANPOINT((0.,5700.,0.));
#465=IFCCARTESIANPOINT((300.,5700.,0.));
#466=IFCCARTESIANPOINT((300.,300.,0.));
#467=IFCCARTESIANPOINT((0.,300.,0.));
#468=IFCFACEOUTERBOUND(#463,.T.);
#469=IFCFACE((#468));
#470=IFCPOLYLOOP((#471,#472,#473,#474));
#471=IFCCARTESIANPOINT((0.,300.,2500.));
#472=IFCCARTESIANPOINT((300.,300.,2500.));
#473=IFCCARTESIANPOINT((300.,5700.,2500.));
#474=IFCCARTESIANPOINT((0.,5700.,2500.));
#475=IFCFACEOUTERBOUND(#470,.T.);
#476=IFCFACE((#475));
#477=IFCPOLYLOOP((#478,#479,#480,#481));
#478=IFCCARTESIANPOINT((0.,300.,0.));
#479=IFCCARTESIANPOINT((300.,300.,0.));
#480=IFCCARTESIANPOINT((300.,300.,2500.));
#481=IFCCARTESIANPOINT((0.,300.,2500.));
#482=IFCFACEOUTERBOUND(#477,.T.);
#483=IFCFACE((#482));
#484=IFCPOLYLOOP((#485,#486,#487,#488));
#485=IFCCARTESIANPOINT((300.,300.,0.));
#486=IFCCARTESIANPOINT((300.,5700.,0.));
#487=IFCCARTESIANPOINT((300.,5700.,2500.));
#488=IFCCARTESIANPOINT((300.,300.,2500.));
#489=IFCFACEOUTERBOUND(#484,.T.);
#490=IFCFACE((#489));
#491=IFCPOLYLOOP((#492,#493,#494,#495));
#492=IFCCARTESIANPOINT((300.,5700.,0.));
#493=IFCCARTESIANPOINT((0.,5700.,0.));
#494=IFCCARTESIANPOINT((0.,5700.,2500.));
#495=IFCCARTESIANPOINT((300.,5700.,2500.));
#496=IFCFACEOUTERBOUND(#491,.T.);
#497=IFCFACE((#496));
#498=IFCPOLYLOOP((#499,#500,#501,#502));
#499=IFCCARTESIANPOINT((0.,5700.,0.));
#500=IFCCARTESIANPOINT((0.,300.,0.));
#501=IFCCARTESIANPOINT((0.,300.,2500.));
#502=IFCCARTESIANPOINT((0.,5700.,2500.));
#503=IFCFACEOUTERBOUND(#498,.T.);
#504=IFCFACE((#503));
#505=IFCFACETEDBREP(#462);
#506=IFCSHAPEREPRESENTATION(#8,'Body','Brep',(#505));
#507=IFCPRODUCTDEFINITIONSHAPE($,$,(#506));
#508=IFCQUANTITYAREA('GrossSideArea',$,$,13.5,$);
#509=IFCQUANTITYAREA('NetSideArea',$,$,13.5,$);
#510=IFCELEMENTQUANTITY('000000001008000000001O',$,'Qto_WallBaseQuantities',$,$,(#508,#509));
#511=IFCRELDEFINESBYPROPERTIES('000000001008000000001P',$,$,$,(#454),#510);
#512=IFCWALL('000000001008000000001W',$,'Wand Ost KG',$,$,#515,#565,$,.STANDARD.);
#513=IFCAXIS2PLACEMENT3D(#514,$,$);
#514=IFCCARTESIANPOINT((0.,0.,0.));
#515=IFCLOCALPLACEMENT(#25,#513);
#516=IFCPROPERTYSET('000000001008000000001X',$,'Pset_WallCommon',$,(#517,#518));
#517=IFCPROPERTYSINGLEVALUE('IsExternal',$,IFCBOOLEAN(.T.),$);
#518=IFCPROPERTYSINGLEVALUE('ThermalTransmittance',$,IFCTHERMALTRANSMITTANCEMEASURE(0.3),$);
#519=IFCRELDEFINESBYPROPERTIES('000000001008000000001Y',$,$,$,(#512),#516);
#520=IFCCLOSEDSHELL((#527,#534,#541,#548,#555,#562));
#521=IFCPOLYLOOP((#522,#523,#524,#525));
#522=IFCCARTESIANPOINT((9700.,5700.,0.));
#523=IFCCARTESIANPOINT((10000.,5700.,0.));
#524=IFCCARTESIANPOINT((10000.,300.,0.));
#525=IFCCARTESIANPOINT((9700.,300.,0.));
#526=IFCFACEOUTERBOUND(#521,.T.);
#527=IFCFACE((#526));
#528=IFCPOLYLOOP((#529,#530,#531,#532));
#529=IFCCARTESIANPOINT((9700.,300.,2500.));
#530=IFCCARTESIANPOINT((10000.,300.,2500.));
#531=IFCCARTESIANPOINT((10000.,5700.,2500.));
#532=IFCCARTESIANPOINT((9700.,5700.,2500.));
#533=IFCFACEOUTERBOUND(#528,.T.);
#534=IFCFACE((#533));
#535=IFCPOLYLOOP((#536,#537,#538,#539));
#536=IFCCARTESIANPOINT((9700.,300.,0.));
#537=IFCCARTESIANPOINT((10000.,300.,0.));
#538=IFCCARTESIANPOINT((10000.,300.,2500.));
#539=IFCCARTESIANPOINT((9700.,300.,2500.));
#540=IFCFACEOUTERBOUND(#535,.T.);
#541=IFCFACE((#540));
#542=IFCPOLYLOOP((#543,#544,#545,#546));
#543=IFCCARTESIANPOINT((10000.,300.,0.));
#544=IFCCARTESIANPOINT((10000.,5700.,0.));
#545=IFCCARTESIANPOINT((10000.,5700.,2500.));
#546=IFCCARTESIANPOINT((10000.,300.,2500.));
#547=IFCFACEOUTERBOUND(#542,.T.);
#548=IFCFACE((#547));
#549=IFCPOLYLOOP((#550,#551,#552,#553));
#550=IFCCARTESIANPOINT((10000.,5700.,0.));
#551=IFCCARTESIANPOINT((9700.,5700.,0.));
#552=IFCCARTESIANPOINT((9700.,5700.,2500.));
#553=IFCCARTESIANPOINT((10000.,5700.,2500.));
#554=IFCFACEOUTERBOUND(#549,.T.);
#555=IFCFACE((#554));
#556=IFCPOLYLOOP((#557,#558,#559,#560));
#557=IFCCARTESIANPOINT((9700.,5700.,0.));
#558=IFCCARTESIANPOINT((9700.,300.,0.));
#559=IFCCARTESIANPOINT((9700.,300.,2500.));
#560=IFCCARTESIANPOINT((9700.,5700.,2500.));
#561=IFCFACEOUTERBOUND(#556,.T.);
#562=IFCFACE((#561));
#563=IFCFACETEDBREP(#520);
#564=IFCSHAPEREPRESENTATION(#8,'Body','Brep',(#563));
#565=IFCPRODUCTDEFINITIONSHAPE($,$,(#564));
#566=IFCQUANTITYAREA('GrossSideArea',$,$,13.5,$);
#567=IFCQUANTITYAREA('NetSideArea',$,$,13.5,$);
#568=IFCELEMENTQUANTITY('000000001008000000001Z',$,'Qto_WallBaseQuantities',$,$,(#566,#567));
#569=IFCRELDEFINESBYPROPERTIES('000000001008000000001a',$,$,$,(#512),#568);
#570=IFCSLAB('000000001008000000001b',$,'Kellerdecke',$,$,#573,#623,$,.FLOOR.);
#571=IFCAXIS2PLACEMENT3D(#572,$,$);
#572=IFCCARTESIANPOINT((0.,0.,0.));
#573=IFCLOCALPLACEMENT(#25,#571);
#574=IFCPROPERTYSET('000000001008000000001c',$,'Pset_SlabCommon',$,(#575,#576));
#575=IFCPROPERTYSINGLEVALUE('IsExternal',$,IFCBOOLEAN(.F.),$);
#576=IFCPROPERTYSINGLEVALUE('ThermalTransmittance',$,IFCTHERMALTRANSMITTANCEMEASURE(0.8),$);
#577=IFCRELDEFINESBYPROPERTIES('000000001008000000001d',$,$,$,(#570),#574);
#578=IFCCLOSEDSHELL((#585,#592,#599,#606,#613,#620));
#579=IFCPOLYLOOP((#580,#581,#582,#583));
#580=IFCCARTESIANPOINT((300.,5700.,2200.));
#581=IFCCARTESIANPOINT((9700.,5700.,2200.));
#582=IFCCARTESIANPOINT((9700.,300.,2200.));
#583=IFCCARTESIANPOINT((300.,300.,2200.));
#584=IFCFACEOUTERBOUND(#579,.T.);
#585=IFCFACE((#584));
#586=IFCPOLYLOOP((#587,#588,#589,#590));
#587=IFCCARTESIANPOINT((300.,300.,2500.));
#588=IFCCARTESIANPOINT((9700.,300.,2500.));
#589=IFCCARTESIANPOINT((9700.,5700.,2500.));
#590=IFCCARTESIANPOINT((300.,5700.,2500.));
#591=IFCFACEOUTERBOUND(#586,.T.);
#592=IFCFACE((#591));
#593=IFCPOLYLOOP((#594,#595,#596,#597));
#594=IFCCARTESIANPOINT((300.,300.,2200.));
#595=IFCCARTESIANPOINT((9700.,300.,2200.));
#596=IFCCARTESIANPOINT((9700.,300.,2500.));
#597=IFCCARTESIANPOINT((300.,300.,2500.));
#598=IFCFACEOUTERBOUND(#593,.T.);
#599=IFCFACE((#598));
#600=IFCPOLYLOOP((#601,#602,#603,#604));
#601=IFCCARTESIANPOINT((9700.,300.,2200.));
#602=IFCCARTESIANPOINT((9700.,5700.,2200.));
#603=IFCCARTESIANPOINT((9700.,5700.,2500.));
#604=IFCCARTESIANPOINT((9700.,300.,2500.));
#605=IFCFACEOUTERBOUND(#600,.T.);
#606=IFCFACE((#605));
#607=IFCPOLYLOOP((#608,#609,#610,#611));
#608=IFCCARTESIANPOINT((9700.,5700.,2200.));
#609=IFCCARTESIANPOINT((300.,5700.,2200.));
#610=IFCCARTESIANPOINT((300.,5700.,2500.));
#611=IFCCARTESIANPOINT((9700.,5700.,2500.));
#612=IFCFACEOUTERBOUND(#607,.T.);
#613=IFCFACE((#612));
#614=IFCPOLYLOOP((#615,#616,#617,#618));
#615=IFCCARTESIANPOINT((300.,5700.,2200.));
#616=IFCCARTESIANPOINT((300.,300.,2200.));
#617=IFCCARTESIANPOINT((300.,300.,2500.));
#618=IFCCARTESIANPOINT((300.,5700.,2500.));
#619=IFCFACEOUTERBOUND(#614,.T.);
#620=IFCFACE((#619));
#621=IFCFACETEDBREP(#578);
#622=IFCSHAPEREPRESENTATION(#8,'Body','Brep',(#621));
#623=IFCPRODUCTDEFINITIONSHAPE($,$,(#622));
#624=IFCQUANTITYAREA('GrossArea',$,$,50.76,$);
#625=IFCQUANTITYAREA('NetArea',$,$,50.76,$);
#626=IFCELEMENTQUANTITY('000000001008000000001e',$,'Qto_SlabBaseQuantities',$,$,(#624,#625));
#627=IFCRELDEFINESBYPROPERTIES('000000001008000000001f',$,$,$,(#570),#626);
#628=IFCWALL('000000001008000000001m',$,'Wand S\X\FCd EG',$,$,#631,#682,$,.STANDARD.);
#629=IFCAXIS2PLACEMENT3D(#630,$,$);
#630=IFCCARTESIANPOINT((0.,0.,0.));
#631=IFCLOCALPLACEMENT(#30,#629);
#632=IFCRELCONTAINEDINSPATIALSTRUCTURE('000000001008000000001n',$,$,$,(#628,#687,#745,#803,#861,#919,#1028,#1088),#27);
#633=IFCPROPERTYSET('000000001008000000001o',$,'Pset_WallCommon',$,(#634,#635));
#634=IFCPROPERTYSINGLEVALUE('IsExternal',$,IFCBOOLEAN(.T.),$);
#635=IFCPROPERTYSINGLEVALUE('ThermalTransmittance',$,IFCTHERMALTRANSMITTANCEMEASURE(0.3),$);
#636=IFCRELDEFINESBYPROPERTIES('000000001008000000001p',$,$,$,(#628),#633);
#637=IFCCLOSEDSHELL((#644,#651,#658,#665,#672,#679));
#638=IFCPOLYLOOP((#639,#640,#641,#642));
#639=IFCCARTESIANPOINT((0.,300.,0.));
#640=IFCCARTESIANPOINT((10000.,300.,0.));
#641=IFCCARTESIANPOINT((10000.,0.,0.));
#642=IFCCARTESIANPOINT((0.,0.,0.));
#643=IFCFACEOUTERBOUND(#638,.T.);
#644=IFCFACE((#643));
#645=IFCPOLYLOOP((#646,#647,#648,#649));
#646=IFCCARTESIANPOINT((0.,0.,2800.));
#647=IFCCARTESIANPOINT((10000.,0.,2800.));
#648=IFCCARTESIANPOINT((10000.,300.,2800.));
#649=IFCCARTESIANPOINT((0.,300.,2800.));
#650=IFCFACEOUTERBOUND(#645,.T.);
#651=IFCFACE((#650));
#652=IFCPOLYLOOP((#653,#654,#655,#656));
#653=IFCCARTESIANPOINT((0.,0.,0.));
#654=IFCCARTESIANPOINT((10000.,0.,0.));
#655=IFCCARTESIANPOINT((10000.,0.,2800.));
#656=IFCCARTESIANPOINT((0.,0.,2800.));
#657=IFCFACEOUTERBOUND(#652,.T.);
#658=IFCFACE((#657));
#659=IFCPOLYLOOP((#660,#661,#662,#663));
#660=IFCCARTESIANPOINT((10000.,0.,0.));
#661=IFCCARTESIANPOINT((10000.,300.,0.));
#662=IFCCARTESIANPOINT((10000.,300.,2800.));
#663=IFCCARTESIANPOINT((10000.,0.,2800.));
#664=IFCFACEOUTERBOUND(#659,.T.);
#665=IFCFACE((#664));
#666=IFCPOLYLOOP((#667,#668,#669,#670));
#667=IFCCARTESIANPOINT((10000.,300.,0.));
#668=IFCCARTESIANPOINT((0.,300.,0.));
#669=IFCCARTESIANPOINT((0.,300.,2800.));
#670=IFCCARTESIANPOINT((10000.,300.,2800.));
#671=IFCFACEOUTERBOUND(#666,.T.);
#672=IFCFACE((#671));
#673=IFCPOLYLOOP((#674,#675,#676,#677));
#674=IFCCARTESIANPOINT((0.,300.,0.));
#675=IFCCARTESIANPOINT((0.,0.,0.));
#676=IFCCARTESIANPOINT((0.,0.,2800.));
#677=IFCCARTESIANPOINT((0.,300.,2800.));
#678=IFCFACEOUTERBOUND(#673,.T.);
#679=IFCFACE((#678));
#680=IFCFACETEDBREP(#637);
#681=IFCSHAPEREPRESENTATION(#8,'Body','Brep',(#680));
#682=IFCPRODUCTDEFINITIONSHAPE($,$,(#681));
#683=IFCQUANTITYAREA('GrossSideArea',$,$,28.,$);
#684=IFCQUANTITYAREA('NetSideArea',$,$,25.,$);
#685=IFCELEMENTQUANTITY('000000001008000000001q',$,'Qto_WallBaseQuantities',$,$,(#683,#684));
#686=IFCRELDEFINESBYPROPERTIES('000000001008000000001r',$,$,$,(#628),#685);
#687=IFCWALL('000000001008000000001s',$,'Wand Nord EG',$,$,#690,#740,$,.STANDARD.);
#688=IFCAXIS2PLACEMENT3D(#689,$,$);
#689=IFCCARTESIANPOINT((0.,0.,0.));
#690=IFCLOCALPLACEMENT(#30,#688);
#691=IFCPROPERTYSET('000000001008000000001t',$,'Pset_WallCommon',$,(#692,#693));
#692=IFCPROPERTYSINGLEVALUE('IsExternal',$,IFCBOOLEAN(.T.),$);
#693=IFCPROPERTYSINGLEVALUE('ThermalTransmittance',$,IFCTHERMALTRANSMITTANCEMEASURE(0.3),$);
#694=IFCRELDEFINESBYPROPERTIES('000000001008000000001u',$,$,$,(#687),#691);
#695=IFCCLOSEDSHELL((#702,#709,#716,#723,#730,#737));
#696=IFCPOLYLOOP((#697,#698,#699,#700));
#697=IFCCARTESIANPOINT((0.,6000.,0.));
#698=IFCCARTESIANPOINT((10000.,6000.,0.));
#699=IFCCARTESIANPOINT((10000.,5700.,0.));
#700=IFCCARTESIANPOINT((0.,5700.,0.));
#701=IFCFACEOUTERBOUND(#696,.T.);
#702=IFCFACE((#701));
#703=IFCPOLYLOOP((#704,#705,#706,#707));
#704=IFCCARTESIANPOINT((0.,5700.,2800.));
#705=IFCCARTESIANPOINT((10000.,5700.,2800.));
#706=IFCCARTESIANPOINT((10000.,6000.,2800.));
#707=IFCCARTESIANPOINT((0.,6000.,2800.));
#708=IFCFACEOUTERBOUND(#703,.T.);
#709=IFCFACE((#708));
#710=IFCPOLYLOOP((#711,#712,#713,#714));
#711=IFCCARTESIANPOINT((0.,5700.,0.));
#712=IFCCARTESIANPOINT((10000.,5700.,0.));
#713=IFCCARTESIANPOINT((10000.,5700.,2800.));
#714=IFCCARTESIANPOINT((0.,5700.,2800.));
#715=IFCFACEOUTERBOUND(#710,.T.);
#716=IFCFACE((#715));
#717=IFCPOLYLOOP((#718,#719,#720,#721));
#718=IFCCARTESIANPOINT((10000.,5700.,0.));
#719=IFCCARTESIANPOINT((10000.,6000.,0.));
#720=IFCCARTESIANPOINT((10000.,6000.,2800.));
#721=IFCCARTESIANPOINT((10000.,5700.,2800.));
#722=IFCFACEOUTERBOUND(#717,.T.);
#723=IFCFACE((#722));
#724=IFCPOLYLOOP((#725,#726,#727,#728));
#725=IFCCARTESIANPOINT((10000.,6000.,0.));
#726=IFCCARTESIANPOINT((0.,6000.,0.));
#727=IFCCARTESIANPOINT((0.,6000.,2800.));
#728=IFCCARTESIANPOINT((10000.,6000.,2800.));
#729=IFCFACEOUTERBOUND(#724,.T.);
#730=IFCFACE((#729));
#731=IFCPOLYLOOP((#732,#733,#734,#735));
#732=IFCCARTESIANPOINT((0.,6000.,0.));
#733=IFCCARTESIANPOINT((0.,5700.,0.));
#734=IFCCARTESIANPOINT((0.,5700.,2800.));
#735=IFCCARTESIANPOINT((0.,6000.,2800.));
#736=IFCFACEOUTERBOUND(#731,.T.);
#737=IFCFACE((#736));
#738=IFCFACETEDBREP(#695);
#739=IFCSHAPEREPRESENTATION(#8,'Body','Brep',(#738));
#740=IFCPRODUCTDEFINITIONSHAPE($,$,(#739));
#741=IFCQUANTITYAREA('GrossSideArea',$,$,28.,$);
#742=IFCQUANTITYAREA('NetSideArea',$,$,28.,$);
#743=IFCELEMENTQUANTITY('000000001008000000001v',$,'Qto_WallBaseQuantities',$,$,(#741,#742));
#744=IFCRELDEFINESBYPROPERTIES('0000000010080000000020',$,$,$,(#687),#743);
#745=IFCWALL('0000000010080000000021',$,'Wand West EG',$,$,#748,#798,$,.STANDARD.);
#746=IFCAXIS2PLACEMENT3D(#747,$,$);
#747=IFCCARTESIANPOINT((0.,0.,0.));
#748=IFCLOCALPLACEMENT(#30,#746);
#749=IFCPROPERTYSET('0000000010080000000022',$,'Pset_WallCommon',$,(#750,#751));
#750=IFCPROPERTYSINGLEVALUE('IsExternal',$,IFCBOOLEAN(.T.),$);
#751=IFCPROPERTYSINGLEVALUE('ThermalTransmittance',$,IFCTHERMALTRANSMITTANCEMEASURE(0.3),$);
#752=IFCRELDEFINESBYPROPERTIES('0000000010080000000023',$,$,$,(#745),#749);
#753=IFCCLOSEDSHELL((#760,#767,#774,#781,#788,#795));
#754=IFCPOLYLOOP((#755,#756,#757,#758));
#755=IFCCARTESIANPOINT((0.,5700.,0.));
#756=IFCCARTESIANPOINT((300.,5700.,0.));
#757=IFCCARTESIANPOINT((300.,300.,0.));
#758=IFCCARTESIANPOINT((0.,300.,0.));
#759=IFCFACEOUTERBOUND(#754,.T.);
#760=IFCFACE((#759));
#761=IFCPOLYLOOP((#762,#763,#764,#765));
#762=IFCCARTESIANPOINT((0.,300.,2800.));
#763=IFCCARTESIANPOINT((300.,300.,2800.));
#764=IFCCARTESIANPOINT((300.,5700.,2800.));
#765=IFCCARTESIANPOINT((0.,5700.,2800.));
#766=IFCFACEOUTERBOUND(#761,.T.);
#767=IFCFACE((#766));
#768=IFCPOLYLOOP((#769,#770,#771,#772));
#769=IFCCARTESIANPOINT((0.,300.,0.));
#770=IFCCARTESIANPOINT((300.,300.,0.));
#771=IFCCARTESIANPOINT((300.,300.,2800.));
#772=IFCCARTESIANPOINT((0.,300.,2800.));
#773=IFCFACEOUTERBOUND(#768,.T.);
#774=IFCFACE((#773));
#775=IFCPOLYLOOP((#776,#777,#778,#779));
#776=IFCCARTESIANPOINT((300.,300.,0.));
#777=IFCCARTESIANPOINT((300.,5700.,0.));
#778=IFCCARTESIANPOINT((300.,5700.,2800.));
#779=IFCCARTESIANPOINT((300.,300.,2800.));
#780=IFCFACEOUTERBOUND(#775,.T.);
#781=IFCFACE((#780));
#782=IFCPOLYLOOP((#783,#784,#785,#786));
#783=IFCCARTESIANPOINT((300.,5700.,0.));
#784=IFCCARTESIANPOINT((0.,5700.,0.));
#785=IFCCARTESIANPOINT((0.,5700.,2800.));
#786=IFCCARTESIANPOINT((300.,5700.,2800.));
#787=IFCFACEOUTERBOUND(#782,.T.);
#788=IFCFACE((#787));
#789=IFCPOLYLOOP((#790,#791,#792,#793));
#790=IFCCARTESIANPOINT((0.,5700.,0.));
#791=IFCCARTESIANPOINT((0.,300.,0.));
#792=IFCCARTESIANPOINT((0.,300.,2800.));
#793=IFCCARTESIANPOINT((0.,5700.,2800.));
#794=IFCFACEOUTERBOUND(#789,.T.);
#795=IFCFACE((#794));
#796=IFCFACETEDBREP(#753);
#797=IFCSHAPEREPRESENTATION(#8,'Body','Brep',(#796));
#798=IFCPRODUCTDEFINITIONSHAPE($,$,(#797));
#799=IFCQUANTITYAREA('GrossSideArea',$,$,15.12,$);
#800=IFCQUANTITYAREA('NetSideArea',$,$,15.12,$);
#801=IFCELEMENTQUANTITY('0000000010080000000024',$,'Qto_WallBaseQuantities',$,$,(#799,#800));
#802=IFCRELDEFINESBYPROPERTIES('0000000010080000000025',$,$,$,(#745),#801);
#803=IFCWALL('0000000010080000000026',$,'Wand Ost EG',$,$,#806,#856,$,.STANDARD.);
#804=IFCAXIS2PLACEMENT3D(#805,$,$);
#805=IFCCARTESIANPOINT((0.,0.,0.));
#806=IFCLOCALPLACEMENT(#30,#804);
#807=IFCPROPERTYSET('0000000010080000000027',$,'Pset_WallCommon',$,(#808,#809));
#808=IFCPROPERTYSINGLEVALUE('IsExternal',$,IFCBOOLEAN(.T.),$);
#809=IFCPROPERTYSINGLEVALUE('ThermalTransmittance',$,IFCTHERMALTRANSMITTANCEMEASURE(0.3),$);
#810=IFCRELDEFINESBYPROPERTIES('0000000010080000000028',$,$,$,(#803),#807);
#811=IFCCLOSEDSHELL((#818,#825,#832,#839,#846,#853));
#812=IFCPOLYLOOP((#813,#814,#815,#816));
#813=IFCCARTESIANPOINT((9700.,5700.,0.));
#814=IFCCARTESIANPOINT((10000.,5700.,0.));
#815=IFCCARTESIANPOINT((10000.,300.,0.));
#816=IFCCARTESIANPOINT((9700.,300.,0.));
#817=IFCFACEOUTERBOUND(#812,.T.);
#818=IFCFACE((#817));
#819=IFCPOLYLOOP((#820,#821,#822,#823));
#820=IFCCARTESIANPOINT((9700.,300.,2800.));
#821=IFCCARTESIANPOINT((10000.,300.,2800.));
#822=IFCCARTESIANPOINT((10000.,5700.,2800.));
#823=IFCCARTESIANPOINT((9700.,5700.,2800.));
#824=IFCFACEOUTERBOUND(#819,.T.);
#825=IFCFACE((#824));
#826=IFCPOLYLOOP((#827,#828,#829,#830));
#827=IFCCARTESIANPOINT((9700.,300.,0.));
#828=IFCCARTESIANPOINT((10000.,300.,0.));
#829=IFCCARTESIANPOINT((10000.,300.,2800.));
#830=IFCCARTESIANPOINT((9700.,300.,2800.));
#831=IFCFACEOUTERBOUND(#826,.T.);
#832=IFCFACE((#831));
#833=IFCPOLYLOOP((#834,#835,#836,#837));
#834=IFCCARTESIANPOINT((10000.,300.,0.));
#835=IFCCARTESIANPOINT((10000.,5700.,0.));
#836=IFCCARTESIANPOINT((10000.,5700.,2800.));
#837=IFCCARTESIANPOINT((10000.,300.,2800.));
#838=IFCFACEOUTERBOUND(#833,.T.);
#839=IFCFACE((#838));
#840=IFCPOLYLOOP((#841,#842,#843,#844));
#841=IFCCARTESIANPOINT((10000.,5700.,0.));
#842=IFCCARTESIANPOINT((9700.,5700.,0.));
#843=IFCCARTESIANPOINT((9700.,5700.,2800.));
#844=IFCCARTESIANPOINT((10000.,5700.,2800.));
#845=IFCFACEOUTERBOUND(#840,.T.);
#846=IFCFACE((#845));
#847=IFCPOLYLOOP((#848,#849,#850,#851));
#848=IFCCARTESIANPOINT((9700.,5700.,0.));
#849=IFCCARTESIANPOINT((9700.,300.,0.));
#850=IFCCARTESIANPOINT((9700.,300.,2800.));
#851=IFCCARTESIANPOINT((9700.,5700.,2800.));
#852=IFCFACEOUTERBOUND(#847,.T.);
#853=IFCFACE((#852));
#854=IFCFACETEDBREP(#811);
#855=IFCSHAPEREPRESENTATION(#8,'Body','Brep',(#854));
#856=IFCPRODUCTDEFINITIONSHAPE($,$,(#855));
#857=IFCQUANTITYAREA('GrossSideArea',$,$,15.12,$);
#858=IFCQUANTITYAREA('NetSideArea',$,$,15.12,$);
#859=IFCELEMENTQUANTITY('0000000010080000000029',$,'Qto_WallBaseQuantities',$,$,(#857,#858));
#860=IFCRELDEFINESBYPROPERTIES('000000001008000000002G',$,$,$,(#803),#859);
#861=IFCWALL('000000001008000000002H',$,'Innenwand',$,$,#864,#914,$,.STANDARD.);
#862=IFCAXIS2PLACEMENT3D(#863,$,$);
#863=IFCCARTESIANPOINT((0.,0.,0.));
#864=IFCLOCALPLACEMENT(#30,#862);
#865=IFCPROPERTYSET('000000001008000000002I',$,'Pset_WallCommon',$,(#866,#867));
#866=IFCPROPERTYSINGLEVALUE('IsExternal',$,IFCBOOLEAN(.F.),$);
#867=IFCPROPERTYSINGLEVALUE('ThermalTransmittance',$,IFCTHERMALTRANSMITTANCEMEASURE(1.5),$);
#868=IFCRELDEFINESBYPROPERTIES('000000001008000000002J',$,$,$,(#861),#865);
#869=IFCCLOSEDSHELL((#876,#883,#890,#897,#904,#911));
#870=IFCPOLYLOOP((#871,#872,#873,#874));
#871=IFCCARTESIANPOINT((5880.,5700.,0.));
#872=IFCCARTESIANPOINT((6120.,5700.,0.));
#873=IFCCARTESIANPOINT((6120.,300.,0.));
#874=IFCCARTESIANPOINT((5880.,300.,0.));
#875=IFCFACEOUTERBOUND(#870,.T.);
#876=IFCFACE((#875));
#877=IFCPOLYLOOP((#878,#879,#880,#881));
#878=IFCCARTESIANPOINT((5880.,300.,2500.));
#879=IFCCARTESIANPOINT((6120.,300.,2500.));
#880=IFCCARTESIANPOINT((6120.,5700.,2500.));
#881=IFCCARTESIANPOINT((5880.,5700.,2500.));
#882=IFCFACEOUTERBOUND(#877,.T.);
#883=IFCFACE((#882));
#884=IFCPOLYLOOP((#885,#886,#887,#888));
#885=IFCCARTESIANPOINT((5880.,300.,0.));
#886=IFCCARTESIANPOINT((6120.,300.,0.));
#887=IFCCARTESIANPOINT((6120.,300.,2500.));
#888=IFCCARTESIANPOINT((5880.,300.,2500.));
#889=IFCFACEOUTERBOUND(#884,.T.);
#890=IFCFACE((#889));
#891=IFCPOLYLOOP((#892,#893,#894,#895));
#892=IFCCARTESIANPOINT((6120.,300.,0.));
#893=IFCCARTESIANPOINT((6120.,5700.,0.));
#894=IFCCARTESIANPOINT((6120.,5700.,2500.));
#895=IFCCARTESIANPOINT((6120.,300.,2500.));
#896=IFCFACEOUTERBOUND(#891,.T.);
#897=IFCFACE((#896));
#898=IFCPOLYLOOP((#899,#900,#901,#902));
#899=IFCCARTESIANPOINT((6120.,5700.,0.));
#900=IFCCARTESIANPOINT((5880.,5700.,0.));
#901=IFCCARTESIANPOINT((5880.,5700.,2500.));
#902=IFCCARTESIANPOINT((6120.,5700.,2500.));
#903=IFCFACEOUTERBOUND(#898,.T.);
#904=IFCFACE((#903));
#905=IFCPOLYLOOP((#906,#907,#908,#909));
#906=IFCCARTESIANPOINT((5880.,5700.,0.));
#907=IFCCARTESIANPOINT((5880.,300.,0.));
#908=IFCCARTESIANPOINT((5880.,300.,2500.));
#909=IFCCARTESIANPOINT((5880.,5700.,2500.));
#910=IFCFACEOUTERBOUND(#905,.T.);
#911=IFCFACE((#910));
#912=IFCFACETEDBREP(#869);
#913=IFCSHAPEREPRESENTATION(#8,'Body','Brep',(#912));
#914=IFCPRODUCTDEFINITIONSHAPE($,$,(#913));
#915=IFCQUANTITYAREA('GrossSideArea',$,$,13.5,$);
#916=IFCQUANTITYAREA('NetSideArea',$,$,13.5,$);
#917=IFCELEMENTQUANTITY('000000001008000000002K',$,'Qto_WallBaseQuantities',$,$,(#915,#916));
#918=IFCRELDEFINESBYPROPERTIES('000000001008000000002L',$,$,$,(#861),#917);
#919=IFCSLAB('000000001008000000002M',$,'Geschossdecke',$,$,#922,#972,$,.FLOOR.);
#920=IFCAXIS2PLACEMENT3D(#921,$,$);
#921=IFCCARTESIANPOINT((0.,0.,0.));
#922=IFCLOCALPLACEMENT(#30,#920);
#923=IFCPROPERTYSET('000000001008000000002N',$,'Pset_SlabCommon',$,(#924,#925));
#924=IFCPROPERTYSINGLEVALUE('IsExternal',$,IFCBOOLEAN(.F.),$);
#925=IFCPROPERTYSINGLEVALUE('ThermalTransmittance',$,IFCTHERMALTRANSMITTANCEMEASURE(0.8),$);
#926=IFCRELDEFINESBYPROPERTIES('000000001008000000002O',$,$,$,(#919),#923);
#927=IFCCLOSEDSHELL((#934,#941,#948,#955,#962,#969));
#928=IFCPOLYLOOP((#929,#930,#931,#932));
#929=IFCCARTESIANPOINT((300.,5700.,2500.));
#930=IFCCARTESIANPOINT((9700.,5700.,2500.));
#931=IFCCARTESIANPOINT((9700.,300.,2500.));
#932=IFCCARTESIANPOINT((300.,300.,2500.));
#933=IFCFACEOUTERBOUND(#928,.T.);
#934=IFCFACE((#933));
#935=IFCPOLYLOOP((#936,#937,#938,#939));
#936=IFCCARTESIANPOINT((300.,300.,2800.));
#937=IFCCARTESIANPOINT((9700.,300.,2800.));
#938=IFCCARTESIANPOINT((9700.,5700.,2800.));
#939=IFCCARTESIANPOINT((300.,5700.,2800.));
#940=IFCFACEOUTERBOUND(#935,.T.);
#941=IFCFACE((#940));
#942=IFCPOLYLOOP((#943,#944,#945,#946));
#943=IFCCARTESIANPOINT((300.,300.,2500.));
#944=IFCCARTESIANPOINT((9700.,300.,2500.));
#945=IFCCARTESIANPOINT((9700.,300.,2800.));
#946=IFCCARTESIANPOINT((300.,300.,2800.));
#947=IFCFACEOUTERBOUND(#942,.T.);
#948=IFCFACE((#947));
#949=IFCPOLYLOOP((#950,#951,#952,#953));
#950=IFCCARTESIANPOINT((9700.,300.,2500.));
#951=IFCCARTESIANPOINT((9700.,5700.,2500.));
#952=IFCCARTESIANPOINT((9700.,5700.,2800.));
#953=IFCCARTESIANPOINT((9700.,300.,2800.));
#954=IFCFACEOUTERBOUND(#949,.T.);
#955=IFCFACE((#954));
#956=IFCPOLYLOOP((#957,#958,#959,#960));
#957=IFCCARTESIANPOINT((9700.,5700.,2500.));
#958=IFCCARTESIANPOINT((300.,5700.,2500.));
#959=IFCCARTESIANPOINT((300.,5700.,2800.));
#960=IFCCARTESIANPOINT((9700.,5700.,2800.));
#961=IFCFACEOUTERBOUND(#956,.T.);
#962=IFCFACE((#961));
#963=IFCPOLYLOOP((#964,#965,#966,#967));
#964=IFCCARTESIANPOINT((300.,5700.,2500.));
#965=IFCCARTESIANPOINT((300.,300.,2500.));
#966=IFCCARTESIANPOINT((300.,300.,2800.));
#967=IFCCARTESIANPOINT((300.,5700.,2800.));
#968=IFCFACEOUTERBOUND(#963,.T.);
#969=IFCFACE((#968));
#970=IFCFACETEDBREP(#927);
#971=IFCSHAPEREPRESENTATION(#8,'Body','Brep',(#970));
#972=IFCPRODUCTDEFINITIONSHAPE($,$,(#971));
#973=IFCQUANTITYAREA('GrossArea',$,$,50.76,$);
#974=IFCQUANTITYAREA('NetArea',$,$,50.76,$);
#975=IFCELEMENTQUANTITY('000000001008000000002P',$,'Qto_SlabBaseQuantities',$,$,(#973,#974));
#976=IFCRELDEFINESBYPROPERTIES('0000000010080000000040',$,$,$,(#919),#975);
#977=IFCOPENINGELEMENT('0000000010080000000041',$,'\X\D6ffnung Fenster Wohnen',$,$,#981,#1027,$,.OPENING.);
#978=IFCRELVOIDSELEMENT('0000000010080000000042',$,$,$,#628,#977);
#979=IFCAXIS2PLACEMENT3D(#980,$,$);
#980=IFCCARTESIANPOINT((0.,0.,0.));
#981=IFCLOCALPLACEMENT(#30,#979);
#982=IFCCLOSEDSHELL((#989,#996,#1003,#1010,#1017,#1024));
#983=IFCPOLYLOOP((#984,#985,#986,#987));
#984=IFCCARTESIANPOINT((1000.,-10.,900.));
#985=IFCCARTESIANPOINT((1000.,310.,900.));
#986=IFCCARTESIANPOINT((2500.,310.,900.));
#987=IFCCARTESIANPOINT((2500.,-10.,900.));
#988=IFCFACEOUTERBOUND(#983,.T.);
#989=IFCFACE((#988));
#990=IFCPOLYLOOP((#991,#992,#993,#994));
#991=IFCCARTESIANPOINT((1000.,-10.,2100.));
#992=IFCCARTESIANPOINT((2500.,-10.,2100.));
#993=IFCCARTESIANPOINT((2500.,310.,2100.));
#994=IFCCARTESIANPOINT((1000.,310.,2100.));
#995=IFCFACEOUTERBOUND(#990,.T.);
#996=IFCFACE((#995));
#997=IFCPOLYLOOP((#998,#999,#1000,#1001));
#998=IFCCARTESIANPOINT((1000.,-10.,900.));
#999=IFCCARTESIANPOINT((2500.,-10.,900.));
#1000=IFCCARTESIANPOINT((2500.,-10.,2100.));
#1001=IFCCARTESIANPOINT((1000.,-10.,2100.));
#1002=IFCFACEOUTERBOUND(#997,.T.);
#1003=IFCFACE((#1002));
#1004=IFCPOLYLOOP((#1005,#1006,#1007,#1008));
#1005=IFCCARTESIANPOINT((2500.,-10.,900.));
#1006=IFCCARTESIANPOINT((2500.,310.,900.));
#1007=IFCCARTESIANPOINT((2500.,310.,2100.));
#1008=IFCCARTESIANPOINT((2500.,-10.,2100.));
#1009=IFCFACEOUTERBOUND(#1004,.T.);
#1010=IFCFACE((#1009));
#1011=IFCPOLYLOOP((#1012,#1013,#1014,#1015));
#1012=IFCCARTESIANPOINT((2500.,310.,900.));
#1013=IFCCARTESIANPOINT((1000.,310.,900.));
#1014=IFCCARTESIANPOINT((1000.,310.,2100.));
#1015=IFCCARTESIANPOINT((2500.,310.,2100.));
#1016=IFCFACEOUTERBOUND(#1011,.T.);
#1017=IFCFACE((#1016));
#1018=IFCPOLYLOOP((#1019,#1020,#1021,#1022));
#1019=IFCCARTESIANPOINT((1000.,310.,900.));
#1020=IFCCARTESIANPOINT((1000.,-10.,900.));
#1021=IFCCARTESIANPOINT((1000.,-10.,2100.));
#1022=IFCCARTESIANPOINT((1000.,310.,2100.));
#1023=IFCFACEOUTERBOUND(#1018,.T.);
#1024=IFCFACE((#1023));
#1025=IFCFACETEDBREP(#982);
#1026=IFCSHAPEREPRESENTATION(#8,'Body','Brep',(#1025));
#1027=IFCPRODUCTDEFINITIONSHAPE($,$,(#1026));
#1028=IFCWINDOW('0000000010080000000043',$,'Fenster Wohnen',$,$,$,$,$,1200.,1500.,$,$,$);
#1029=IFCRELFILLSELEMENT('0000000010080000000044',$,$,$,#977,#1028);
#1030=IFCQUANTITYAREA('Area',$,$,1.8,$);
#1031=IFCELEMENTQUANTITY('0000000010080000000045',$,'Qto_WindowBaseQuantities',$,$,(#1030));
#1032=IFCRELDEFINESBYPROPERTIES('0000000010080000000046',$,$,$,(#1028),#1031);
#1033=IFCPROPERTYSET('0000000010080000000047',$,'Pset_WindowCommon',$,(#1034,#1035));
#1034=IFCPROPERTYSINGLEVALUE('IsExternal',$,IFCBOOLEAN(.T.),$);
#1035=IFCPROPERTYSINGLEVALUE('ThermalTransmittance',$,IFCTHERMALTRANSMITTANCEMEASURE(1.1),$);
#1036=IFCRELDEFINESBYPROPERTIES('0000000010080000000048',$,$,$,(#1028),#1033);
#1037=IFCOPENINGELEMENT('0000000010080000000049',$,'\X\D6ffnung Fenster K\X\FCche',$,$,#1041,#1087,$,.OPENING.);
#1038=IFCRELVOIDSELEMENT('000000001008000000004G',$,$,$,#628,#1037);
#1039=IFCAXIS2PLACEMENT3D(#1040,$,$);
#1040=IFCCARTESIANPOINT((0.,0.,0.));
#1041=IFCLOCALPLACEMENT(#30,#1039);
#1042=IFCCLOSEDSHELL((#1049,#1056,#1063,#1070,#1077,#1084));
#1043=IFCPOLYLOOP((#1044,#1045,#1046,#1047));
#1044=IFCCARTESIANPOINT((7000.,-10.,900.));
#1045=IFCCARTESIANPOINT((7000.,310.,900.));
#1046=IFCCARTESIANPOINT((8000.,310.,900.));
#1047=IFCCARTESIANPOINT((8000.,-10.,900.));
#1048=IFCFACEOUTERBOUND(#1043,.T.);
#1049=IFCFACE((#1048));
#1050=IFCPOLYLOOP((#1051,#1052,#1053,#1054));
#1051=IFCCARTESIANPOINT((7000.,-10.,2100.));
#1052=IFCCARTESIANPOINT((8000.,-10.,2100.));
#1053=IFCCARTESIANPOINT((8000.,310.,2100.));
#1054=IFCCARTESIANPOINT((7000.,310.,2100.));
#1055=IFCFACEOUTERBOUND(#1050,.T.);
#1056=IFCFACE((#1055));
#1057=IFCPOLYLOOP((#1058,#1059,#1060,#1061));
#1058=IFCCARTESIANPOINT((7000.,-10.,900.));
#1059=IFCCARTESIANPOINT((8000.,-10.,900.));
#1060=IFCCARTESIANPOINT((8000.,-10.,2100.));
#1061=IFCCARTESIANPOINT((7000.,-10.,2100.));
#1062=IFCFACEOUTERBOUND(#1057,.T.);
#1063=IFCFACE((#1062));
#1064=IFCPOLYLOOP((#1065,#1066,#1067,#1068));
#1065=IFCCARTESIANPOINT((8000.,-10.,900.));
#1066=IFCCARTESIANPOINT((8000.,310.,900.));
#1067=IFCCARTESIANPOINT((8000.,310.,2100.));
#1068=IFCCARTESIANPOINT((8000.,-10.,2100.));
#1069=IFCFACEOUTERBOUND(#1064,.T.);
#1070=IFCFACE((#1069));
#1071=IFCPOLYLOOP((#1072,#1073,#1074,#1075));
#1072=IFCCARTESIANPOINT((8000.,310.,900.));
#1073=IFCCARTESIANPOINT((7000.,310.,900.));
#1074=IFCCARTESIANPOINT((7000.,310.,2100.));
#1075=IFCCARTESIANPOINT((8000.,310.,2100.));
#1076=IFCFACEOUTERBOUND(#1071,.T.);
#1077=IFCFACE((#1076));
#1078=IFCPOLYLOOP((#1079,#1080,#1081,#1082));
#1079=IFCCARTESIANPOINT((7000.,310.,900.));
#1080=IFCCARTESIANPOINT((7000.,-10.,900.));
#1081=IFCCARTESIANPOINT((7000.,-10.,2100.));
#1082=IFCCARTESIANPOINT((7000.,310.,2100.));
#1083=IFCFACEOUTERBOUND(#1078,.T.);
#1084=IFCFACE((#1083));
#1085=IFCFACETEDBREP(#1042);
#1086=IFCSHAPEREPRESENTATION(#8,'Body','Brep',(#1085));
#1087=IFCPRODUCTDEFINITIONSHAPE($,$,(#1086));
#1088=IFCWINDOW('000000001008000000004H',$,'Fenster K\X\FCche',$,$,$,$,$,1200.,1000.,$,$,$);
#1089=IFCRELFILLSELEMENT('000000001008000000004I',$,$,$,#1037,#1088);
#1090=IFCQUANTITYAREA('Area',$,$,1.2,$);
#1091=IFCELEMENTQUANTITY('000000001008000000004J',$,'Qto_WindowBaseQuantities',$,$,(#1090));
#1092=IFCRELDEFINESBYPROPERTIES('000000001008000000004K',$,$,$,(#1088),#1091);
#1093=IFCPROPERTYSET('000000001008000000004L',$,'Pset_WindowCommon',$,(#1094,#1095));
#1094=IFCPROPERTYSINGLEVALUE('IsExternal',$,IFCBOOLEAN(.T.),$);
#1095=IFCPROPERTYSINGLEVALUE('ThermalTransmittance',$,IFCTHERMALTRANSMITTANCEMEASURE(1.1),$);
#1096=IFCRELDEFINESBYPROPERTIES('000000001008000000004M',$,$,$,(#1088),#1093);
#1097=IFCWALL('000000001008000000004N',$,'Wand S\X\FCd OG',$,$,#1100,#1151,$,.STANDARD.);
#1098=IFCAXIS2PLACEMENT3D(#1099,$,$);
#1099=IFCCARTESIANPOINT((0.,0.,0.));
#1100=IFCLOCALPLACEMENT(#34,#1098);
#1101=IFCRELCONTAINEDINSPATIALSTRUCTURE('000000001008000000004O',$,$,$,(#1097,#1156,#1214,#1272,#1330,#1388,#1447),#31);
#1102=IFCPROPERTYSET('000000001008000000004P',$,'Pset_WallCommon',$,(#1103,#1104));
#1103=IFCPROPERTYSINGLEVALUE('IsExternal',$,IFCBOOLEAN(.T.),$);
#1104=IFCPROPERTYSINGLEVALUE('ThermalTransmittance',$,IFCTHERMALTRANSMITTANCEMEASURE(0.3),$);
#1105=IFCRELDEFINESBYPROPERTIES('000000001008000000004W',$,$,$,(#1097),#1102);
#1106=IFCCLOSEDSHELL((#1113,#1120,#1127,#1134,#1141,#1148));
#1107=IFCPOLYLOOP((#1108,#1109,#1110,#1111));
#1108=IFCCARTESIANPOINT((0.,300.,0.));
#1109=IFCCARTESIANPOINT((10000.,300.,0.));
#1110=IFCCARTESIANPOINT((10000.,0.,0.));
#1111=IFCCARTESIANPOINT((0.,0.,0.));
#1112=IFCFACEOUTERBOUND(#1107,.T.);
#1113=IFCFACE((#1112));
#1114=IFCPOLYLOOP((#1115,#1116,#1117,#1118));
#1115=IFCCARTESIANPOINT((0.,0.,775.));
#1116=IFCCARTESIANPOINT((10000.,0.,775.));
#1117=IFCCARTESIANPOINT((10000.,300.,1000.));
#1118=IFCCARTESIANPOINT((0.,300.,1000.));
#1119=IFCFACEOUTERBOUND(#1114,.T.);
#1120=IFCFACE((#1119));
#1121=IFCPOLYLOOP((#1122,#1123,#1124,#1125));
#1122=IFCCARTESIANPOINT((0.,0.,0.));
#1123=IFCCARTESIANPOINT((10000.,0.,0.));
#1124=IFCCARTESIANPOINT((10000.,0.,775.));
#1125=IFCCARTESIANPOINT((0.,0.,775.));
#1126=IFCFACEOUTERBOUND(#1121,.T.);
#1127=IFCFACE((#1126));
#1128=IFCPOLYLOOP((#1129,#1130,#1131,#1132));
#1129=IFCCARTESIANPOINT((10000.,0.,0.));
#1130=IFCCARTESIANPOINT((10000.,300.,0.));
#1131=IFCCARTESIANPOINT((10000.,300.,1000.));
#1132=IFCCARTESIANPOINT((10000.,0.,775.));
#1133=IFCFACEOUTERBOUND(#1128,.T.);
#1134=IFCFACE((#1133));
#1135=IFCPOLYLOOP((#1136,#1137,#1138,#1139));
#1136=IFCCARTESIANPOINT((10000.,300.,0.));
#1137=IFCCARTESIANPOINT((0.,300.,0.));
#1138=IFCCARTESIANPOINT((0.,300.,1000.));
#1139=IFCCARTESIANPOINT((10000.,300.,1000.));
#1140=IFCFACEOUTERBOUND(#1135,.T.);
#1141=IFCFACE((#1140));
#1142=IFCPOLYLOOP((#1143,#1144,#1145,#1146));
#1143=IFCCARTESIANPOINT((0.,300.,0.));
#1144=IFCCARTESIANPOINT((0.,0.,0.));
#1145=IFCCARTESIANPOINT((0.,0.,775.));
#1146=IFCCARTESIANPOINT((0.,300.,1000.));
#1147=IFCFACEOUTERBOUND(#1142,.T.);
#1148=IFCFACE((#1147));
#1149=IFCFACETEDBREP(#1106);
#1150=IFCSHAPEREPRESENTATION(#8,'Body','Brep',(#1149));
#1151=IFCPRODUCTDEFINITIONSHAPE($,$,(#1150));
#1152=IFCQUANTITYAREA('GrossSideArea',$,$,9.875,$);
#1153=IFCQUANTITYAREA('NetSideArea',$,$,9.875,$);
#1154=IFCELEMENTQUANTITY('000000001008000000004X',$,'Qto_WallBaseQuantities',$,$,(#1152,#1153));
#1155=IFCRELDEFINESBYPROPERTIES('000000001008000000004Y',$,$,$,(#1097),#1154);
#1156=IFCWALL('000000001008000000004Z',$,'Wand Nord OG',$,$,#1159,#1209,$,.STANDARD.);
#1157=IFCAXIS2PLACEMENT3D(#1158,$,$);
#1158=IFCCARTESIANPOINT((0.,0.,0.));
#1159=IFCLOCALPLACEMENT(#34,#1157);
#1160=IFCPROPERTYSET('000000001008000000004a',$,'Pset_WallCommon',$,(#1161,#1162));
#1161=IFCPROPERTYSINGLEVALUE('IsExternal',$,IFCBOOLEAN(.T.),$);
#1162=IFCPROPERTYSINGLEVALUE('ThermalTransmittance',$,IFCTHERMALTRANSMITTANCEMEASURE(0.3),$);
#1163=IFCRELDEFINESBYPROPERTIES('000000001008000000004b',$,$,$,(#1156),#1160);
#1164=IFCCLOSEDSHELL((#1171,#1178,#1185,#1192,#1199,#1206));
#1165=IFCPOLYLOOP((#1166,#1167,#1168,#1169));
#1166=IFCCARTESIANPOINT((0.,6000.,0.));
#1167=IFCCARTESIANPOINT((10000.,6000.,0.));
#1168=IFCCARTESIANPOINT((10000.,5700.,0.));
#1169=IFCCARTESIANPOINT((0.,5700.,0.));
#1170=IFCFACEOUTERBOUND(#1165,.T.);
#1171=IFCFACE((#1170));
#1172=IFCPOLYLOOP((#1173,#1174,#1175,#1176));
#1173=IFCCARTESIANPOINT((0.,5700.,5050.));
#1174=IFCCARTESIANPOINT((10000.,5700.,5050.));
#1175=IFCCARTESIANPOINT((10000.,6000.,5275.));
#1176=IFCCARTESIANPOINT((0.,6000.,5275.));
#1177=IFCFACEOUTERBOUND(#1172,.T.);
#1178=IFCFACE((#1177));
#1179=IFCPOLYLOOP((#1180,#1181,#1182,#1183));
#1180=IFCCARTESIANPOINT((0.,5700.,0.));
#1181=IFCCARTESIANPOINT((10000.,5700.,0.));
#1182=IFCCARTESIANPOINT((10000.,5700.,5050.));
#1183=IFCCARTESIANPOINT((0.,5700.,5050.));
#1184=IFCFACEOUTERBOUND(#1179,.T.);
#1185=IFCFACE((#1184));
#1186=IFCPOLYLOOP((#1187,#1188,#1189,#1190));
#1187=IFCCARTESIANPOINT((10000.,5700.,0.));
#1188=IFCCARTESIANPOINT((10000.,6000.,0.));
#1189=IFCCARTESIANPOINT((10000.,6000.,5275.));
#1190=IFCCARTESIANPOINT((10000.,5700.,5050.));
#1191=IFCFACEOUTERBOUND(#1186,.T.);
#1192=IFCFACE((#1191));
#1193=IFCPOLYLOOP((#1194,#1195,#1196,#1197));
#1194=IFCCARTESIANPOINT((10000.,6000.,0.));
#1195=IFCCARTESIANPOINT((0.,6000.,0.));
#1196=IFCCARTESIANPOINT((0.,6000.,5275.));
#1197=IFCCARTESIANPOINT((10000.,6000.,5275.));
#1198=IFCFACEOUTERBOUND(#1193,.T.);
#1199=IFCFACE((#1198));
#1200=IFCPOLYLOOP((#1201,#1202,#1203,#1204));
#1201=IFCCARTESIANPOINT((0.,6000.,0.));
#1202=IFCCARTESIANPOINT((0.,5700.,0.));
#1203=IFCCARTESIANPOINT((0.,5700.,5050.));
#1204=IFCCARTESIANPOINT((0.,6000.,5275.));
#1205=IFCFACEOUTERBOUND(#1200,.T.);
#1206=IFCFACE((#1205));
#1207=IFCFACETEDBREP(#1164);
#1208=IFCSHAPEREPRESENTATION(#8,'Body','Brep',(#1207));
#1209=IFCPRODUCTDEFINITIONSHAPE($,$,(#1208));
#1210=IFCQUANTITYAREA('GrossSideArea',$,$,51.625,$);
#1211=IFCQUANTITYAREA('NetSideArea',$,$,51.625,$);
#1212=IFCELEMENTQUANTITY('000000001008000000004c',$,'Qto_WallBaseQuantities',$,$,(#1210,#1211));
#1213=IFCRELDEFINESBYPROPERTIES('000000001008000000004d',$,$,$,(#1156),#1212);
#1214=IFCWALL('000000001008000000004e',$,'Wand West OG',$,$,#1217,#1267,$,.STANDARD.);
#1215=IFCAXIS2PLACEMENT3D(#1216,$,$);
#1216=IFCCARTESIANPOINT((0.,0.,0.));
#1217=IFCLOCALPLACEMENT(#34,#1215);
#1218=IFCPROPERTYSET('000000001008000000004f',$,'Pset_WallCommon',$,(#1219,#1220));
#1219=IFCPROPERTYSINGLEVALUE('IsExternal',$,IFCBOOLEAN(.T.),$);
#1220=IFCPROPERTYSINGLEVALUE('ThermalTransmittance',$,IFCTHERMALTRANSMITTANCEMEASURE(0.3),$);
#1221=IFCRELDEFINESBYPROPERTIES('000000001008000000004m',$,$,$,(#1214),#1218);
#1222=IFCCLOSEDSHELL((#1229,#1236,#1243,#1250,#1257,#1264));
#1223=IFCPOLYLOOP((#1224,#1225,#1226,#1227));
#1224=IFCCARTESIANPOINT((0.,5700.,0.));
#1225=IFCCARTESIANPOINT((300.,5700.,0.));
#1226=IFCCARTESIANPOINT((300.,300.,0.));
#1227=IFCCARTESIANPOINT((0.,300.,0.));
#1228=IFCFACEOUTERBOUND(#1223,.T.);
#1229=IFCFACE((#1228));
#1230=IFCPOLYLOOP((#1231,#1232,#1233,#1234));
#1231=IFCCARTESIANPOINT((0.,300.,1000.));
#1232=IFCCARTESIANPOINT((300.,300.,1000.));
#1233=IFCCARTESIANPOINT((300.,5700.,5050.));
#1234=IFCCARTESIANPOINT((0.,5700.,5050.));
#1235=IFCFACEOUTERBOUND(#1230,.T.);
#1236=IFCFACE((#1235));
#1237=IFCPOLYLOOP((#1238,#1239,#1240,#1241));
#1238=IFCCARTESIANPOINT((0.,300.,0.));
#1239=IFCCARTESIANPOINT((300.,300.,0.));
#1240=IFCCARTESIANPOINT((300.,300.,1000.));
#1241=IFCCARTESIANPOINT((0.,300.,1000.));
#1242=IFCFACEOUTERBOUND(#1237,.T.);
#1243=IFCFACE((#1242));
#1244=IFCPOLYLOOP((#1245,#1246,#1247,#1248));
#1245=IFCCARTESIANPOINT((300.,300.,0.));
#1246=IFCCARTESIANPOINT((300.,5700.,0.));
#1247=IFCCARTESIANPOINT((300.,5700.,5050.));
#1248=IFCCARTESIANPOINT((300.,300.,1000.));
#1249=IFCFACEOUTERBOUND(#1244,.T.);
#1250=IFCFACE((#1249));
#1251=IFCPOLYLOOP((#1252,#1253,#1254,#1255));
#1252=IFCCARTESIANPOINT((300.,5700.,0.));
#1253=IFCCARTESIANPOINT((0.,5700.,0.));
#1254=IFCCARTESIANPOINT((0.,5700.,5050.));
#1255=IFCCARTESIANPOINT((300.,5700.,5050.));
#1256=IFCFACEOUTERBOUND(#1251,.T.);
#1257=IFCFACE((#1256));
#1258=IFCPOLYLOOP((#1259,#1260,#1261,#1262));
#1259=IFCCARTESIANPOINT((0.,5700.,0.));
#1260=IFCCARTESIANPOINT((0.,300.,0.));
#1261=IFCCARTESIANPOINT((0.,300.,1000.));
#1262=IFCCARTESIANPOINT((0.,5700.,5050.));
#1263=IFCFACEOUTERBOUND(#1258,.T.);
#1264=IFCFACE((#1263));
#1265=IFCFACETEDBREP(#1222);
#1266=IFCSHAPEREPRESENTATION(#8,'Body','Brep',(#1265));
#1267=IFCPRODUCTDEFINITIONSHAPE($,$,(#1266));
#1268=IFCQUANTITYAREA('GrossSideArea',$,$,16.335,$);
#1269=IFCQUANTITYAREA('NetSideArea',$,$,16.335,$);
#1270=IFCELEMENTQUANTITY('000000001008000000004n',$,'Qto_WallBaseQuantities',$,$,(#1268,#1269));
#1271=IFCRELDEFINESBYPROPERTIES('000000001008000000004o',$,$,$,(#1214),#1270);
#1272=IFCWALL('000000001008000000004p',$,'Wand Ost OG',$,$,#1275,#1325,$,.STANDARD.);
#1273=IFCAXIS2PLACEMENT3D(#1274,$,$);
#1274=IFCCARTESIANPOINT((0.,0.,0.));
#1275=IFCLOCALPLACEMENT(#34,#1273);
#1276=IFCPROPERTYSET('000000001008000000004q',$,'Pset_WallCommon',$,(#1277,#1278));
#1277=IFCPROPERTYSINGLEVALUE('IsExternal',$,IFCBOOLEAN(.T.),$);
#1278=IFCPROPERTYSINGLEVALUE('ThermalTransmittance',$,IFCTHERMALTRANSMITTANCEMEASURE(0.3),$);
#1279=IFCRELDEFINESBYPROPERTIES('000000001008000000004r',$,$,$,(#1272),#1276);
#1280=IFCCLOSEDSHELL((#1287,#1294,#1301,#1308,#1315,#1322));
#1281=IFCPOLYLOOP((#1282,#1283,#1284,#1285));
#1282=IFCCARTESIANPOINT((9700.,5700.,0.));
#1283=IFCCARTESIANPOINT((10000.,5700.,0.));
#1284=IFCCARTESIANPOINT((10000.,300.,0.));
#1285=IFCCARTESIANPOINT((9700.,300.,0.));
#1286=IFCFACEOUTERBOUND(#1281,.T.);
#1287=IFCFACE((#1286));
#1288=IFCPOLYLOOP((#1289,#1290,#1291,#1292));
#1289=IFCCARTESIANPOINT((9700.,300.,1000.));
#1290=IFCCARTESIANPOINT((10000.,300.,1000.));
#1291=IFCCARTESIANPOINT((10000.,5700.,5050.));
#1292=IFCCARTESIANPOINT((9700.,5700.,5050.));
#1293=IFCFACEOUTERBOUND(#1288,.T.);
#1294=IFCFACE((#1293));
#1295=IFCPOLYLOOP((#1296,#1297,#1298,#1299));
#1296=IFCCARTESIANPOINT((9700.,300.,0.));
#1297=IFCCARTESIANPOINT((10000.,300.,0.));
#1298=IFCCARTESIANPOINT((10000.,300.,1000.));
#1299=IFCCARTESIANPOINT((9700.,300.,1000.));
#1300=IFCFACEOUTERBOUND(#1295,.T.);
#1301=IFCFACE((#1300));
#1302=IFCPOLYLOOP((#1303,#1304,#1305,#1306));
#1303=IFCCARTESIANPOINT((10000.,300.,0.));
#1304=IFCCARTESIANPOINT((10000.,5700.,0.));
#1305=IFCCARTESIANPOINT((10000.,5700.,5050.));
#1306=IFCCARTESIANPOINT((10000.,300.,1000.));
#1307=IFCFACEOUTERBOUND(#1302,.T.);
#1308=IFCFACE((#1307));
#1309=IFCPOLYLOOP((#1310,#1311,#1312,#1313));
#1310=IFCCARTESIANPOINT((10000.,5700.,0.));
#1311=IFCCARTESIANPOINT((9700.,5700.,0.));
#1312=IFCCARTESIANPOINT((9700.,5700.,5050.));
#1313=IFCCARTESIANPOINT((10000.,5700.,5050.));
#1314=IFCFACEOUTERBOUND(#1309,.T.);
#1315=IFCFACE((#1314));
#1316=IFCPOLYLOOP((#1317,#1318,#1319,#1320));
#1317=IFCCARTESIANPOINT((9700.,5700.,0.));
#1318=IFCCARTESIANPOINT((9700.,300.,0.));
#1319=IFCCARTESIANPOINT((9700.,300.,1000.));
#1320=IFCCARTESIANPOINT((9700.,5700.,5050.));
#1321=IFCFACEOUTERBOUND(#1316,.T.);
#1322=IFCFACE((#1321));
#1323=IFCFACETEDBREP(#1280);
#1324=IFCSHAPEREPRESENTATION(#8,'Body','Brep',(#1323));
#1325=IFCPRODUCTDEFINITIONSHAPE($,$,(#1324));
#1326=IFCQUANTITYAREA('GrossSideArea',$,$,16.335,$);
#1327=IFCQUANTITYAREA('NetSideArea',$,$,15.135,$);
#1328=IFCELEMENTQUANTITY('000000001008000000004s',$,'Qto_WallBaseQuantities',$,$,(#1326,#1327));
#1329=IFCRELDEFINESBYPROPERTIES('000000001008000000004t',$,$,$,(#1272),#1328);
#1330=IFCSLAB('000000001008000000004u',$,'Dachplatte',$,$,#1333,#1383,$,.ROOF.);
#1331=IFCAXIS2PLACEMENT3D(#1332,$,$);
#1332=IFCCARTESIANPOINT((0.,0.,0.));
#1333=IFCLOCALPLACEMENT(#34,#1331);
#1334=IFCPROPERTYSET('000000001008000000004v',$,'Pset_SlabCommon',$,(#1335,#1336));
#1335=IFCPROPERTYSINGLEVALUE('IsExternal',$,IFCBOOLEAN(.T.),$);
#1336=IFCPROPERTYSINGLEVALUE('ThermalTransmittance',$,IFCTHERMALTRANSMITTANCEMEASURE(0.25),$);
#1337=IFCRELDEFINESBYPROPERTIES('0000000010080000000050',$,$,$,(#1330),#1334);
#1338=IFCCLOSEDSHELL((#1345,#1352,#1359,#1366,#1373,#1380));
#1339=IFCPOLYLOOP((#1340,#1341,#1342,#1343));
#1340=IFCCARTESIANPOINT((0.,6000.,5275.));
#1341=IFCCARTESIANPOINT((10000.,6000.,5275.));
#1342=IFCCARTESIANPOINT((10000.,0.,775.));
#1343=IFCCARTESIANPOINT((0.,0.,775.));
#1344=IFCFACEOUTERBOUND(#1339,.T.);
#1345=IFCFACE((#1344));
#1346=IFCPOLYLOOP((#1347,#1348,#1349,#1350));
#1347=IFCCARTESIANPOINT((0.,0.,1025.));
#1348=IFCCARTESIANPOINT((10000.,0.,1025.));
#1349=IFCCARTESIANPOINT((10000.,6000.,5525.));
#1350=IFCCARTESIANPOINT((0.,6000.,5525.));
#1351=IFCFACEOUTERBOUND(#1346,.T.);
#1352=IFCFACE((#1351));
#1353=IFCPOLYLOOP((#1354,#1355,#1356,#1357));
#1354=IFCCARTESIANPOINT((0.,0.,775.));
#1355=IFCCARTESIANPOINT((10000.,0.,775.));
#1356=IFCCARTESIANPOINT((10000.,0.,1025.));
#1357=IFCCARTESIANPOINT((0.,0.,1025.));
#1358=IFCFACEOUTERBOUND(#1353,.T.);
#1359=IFCFACE((#1358));
#1360=IFCPOLYLOOP((#1361,#1362,#1363,#1364));
#1361=IFCCARTESIANPOINT((10000.,0.,775.));
#1362=IFCCARTESIANPOINT((10000.,6000.,5275.));
#1363=IFCCARTESIANPOINT((10000.,6000.,5525.));
#1364=IFCCARTESIANPOINT((10000.,0.,1025.));
#1365=IFCFACEOUTERBOUND(#1360,.T.);
#1366=IFCFACE((#1365));
#1367=IFCPOLYLOOP((#1368,#1369,#1370,#1371));
#1368=IFCCARTESIANPOINT((10000.,6000.,5275.));
#1369=IFCCARTESIANPOINT((0.,6000.,5275.));
#1370=IFCCARTESIANPOINT((0.,6000.,5525.));
#1371=IFCCARTESIANPOINT((10000.,6000.,5525.));
#1372=IFCFACEOUTERBOUND(#1367,.T.);
#1373=IFCFACE((#1372));
#1374=IFCPOLYLOOP((#1375,#1376,#1377,#1378));
#1375=IFCCARTESIANPOINT((0.,6000.,5275.));
#1376=IFCCARTESIANPOINT((0.,0.,775.));
#1377=IFCCARTESIANPOINT((0.,0.,1025.));
#1378=IFCCARTESIANPOINT((0.,6000.,5525.));
#1379=IFCFACEOUTERBOUND(#1374,.T.);
#1380=IFCFACE((#1379));
#1381=IFCFACETEDBREP(#1338);
#1382=IFCSHAPEREPRESENTATION(#8,'Body','Brep',(#1381));
#1383=IFCPRODUCTDEFINITIONSHAPE($,$,(#1382));
#1384=IFCQUANTITYAREA('GrossArea',$,$,75.,$);
#1385=IFCQUANTITYAREA('NetArea',$,$,75.,$);
#1386=IFCELEMENTQUANTITY('0000000010080000000051',$,'Qto_SlabBaseQuantities',$,$,(#1384,#1385));
#1387=IFCRELDEFINESBYPROPERTIES('0000000010080000000052',$,$,$,(#1330),#1386);
#1388=IFCROOF('0000000010080000000053',$,'Dach',$,$,#1391,$,$,.SHED_ROOF.);
#1389=IFCAXIS2PLACEMENT3D(#1390,$,$);
#1390=IFCCARTESIANPOINT((0.,0.,0.));
#1391=IFCLOCALPLACEMENT(#34,#1389);
#1392=IFCPROPERTYSET('0000000010080000000054',$,'Pset_RoofCommon',$,(#1393));
#1393=IFCPROPERTYSINGLEVALUE('IsExternal',$,IFCBOOLEAN(.T.),$);
#1394=IFCRELDEFINESBYPROPERTIES('0000000010080000000055',$,$,$,(#1388),#1392);
#1395=IFCRELAGGREGATES('0000000010080000000056',$,$,$,#1388,(#1330));
#1396=IFCOPENINGELEMENT('0000000010080000000057',$,'\X\D6ffnung Fenster Schlafen',$,$,#1400,#1446,$,.OPENING.);
#1397=IFCRELVOIDSELEMENT('0000000010080000000058',$,$,$,#1272,#1396);
#1398=IFCAXIS2PLACEMENT3D(#1399,$,$);
#1399=IFCCARTESIANPOINT((0.,0.,0.));
#1400=IFCLOCALPLACEMENT(#34,#1398);
#1401=IFCCLOSEDSHELL((#1408,#1415,#1422,#1429,#1436,#1443));
#1402=IFCPOLYLOOP((#1403,#1404,#1405,#1406));
#1403=IFCCARTESIANPOINT((9690.,2000.,500.));
#1404=IFCCARTESIANPOINT((9690.,3000.,500.));
#1405=IFCCARTESIANPOINT((10010.,3000.,500.));
#1406=IFCCARTESIANPOINT((10010.,2000.,500.));
#1407=IFCFACEOUTERBOUND(#1402,.T.);
#1408=IFCFACE((#1407));
#1409=IFCPOLYLOOP((#1410,#1411,#1412,#1413));
#1410=IFCCARTESIANPOINT((9690.,2000.,1700.));
#1411=IFCCARTESIANPOINT((10010.,2000.,1700.));
#1412=IFCCARTESIANPOINT((10010.,3000.,1700.));
#1413=IFCCARTESIANPOINT((9690.,3000.,1700.));
#1414=IFCFACEOUTERBOUND(#1409,.T.);
#1415=IFCFACE((#1414));
#1416=IFCPOLYLOOP((#1417,#1418,#1419,#1420));
#1417=IFCCARTESIANPOINT((9690.,2000.,500.));
#1418=IFCCARTESIANPOINT((10010.,2000.,500.));
#1419=IFCCARTESIANPOINT((10010.,2000.,1700.));
#1420=IFCCARTESIANPOINT((9690.,2000.,1700.));
#1421=IFCFACEOUTERBOUND(#1416,.T.);
#1422=IFCFACE((#1421));
#1423=IFCPOLYLOOP((#1424,#1425,#1426,#1427));
#1424=IFCCARTESIANPOINT((10010.,2000.,500.));
#1425=IFCCARTESIANPOINT((10010.,3000.,500.));
#1426=IFCCARTESIANPOINT((10010.,3000.,1700.));
#1427=IFCCARTESIANPOINT((10010.,2000.,1700.));
#1428=IFCFACEOUTERBOUND(#1423,.T.);
#1429=IFCFACE((#1428));
#1430=IFCPOLYLOOP((#1431,#1432,#1433,#1434));
#1431=IFCCARTESIANPOINT((10010.,3000.,500.));
#1432=IFCCARTESIANPOINT((9690.,3000.,500.));
#1433=IFCCARTESIANPOINT((9690.,3000.,1700.));
#1434=IFCCARTESIANPOINT((10010.,3000.,1700.));
#1435=IFCFACEOUTERBOUND(#1430,.T.);
#1436=IFCFACE((#1435));
#1437=IFCPOLYLOOP((#1438,#1439,#1440,#1441));
#1438=IFCCARTESIANPOINT((9690.,3000.,500.));
#1439=IFCCARTESIANPOINT((9690.,2000.,500.));
#1440=IFCCARTESIANPOINT((9690.,2000.,1700.));
#1441=IFCCARTESIANPOINT((9690.,3000.,1700.));
#1442=IFCFACEOUTERBOUND(#1437,.T.);
#1443=IFCFACE((#1442));
#1444=IFCFACETEDBREP(#1401);
#1445=IFCSHAPEREPRESENTATION(#8,'Body','Brep',(#1444));
#1446=IFCPRODUCTDEFINITIONSHAPE($,$,(#1445));
#1447=IFCWINDOW('0000000010080000000059',$,'Fenster Schlafen',$,$,$,$,$,1200.,1000.,$,$,$);
#1448=IFCRELFILLSELEMENT('000000001008000000005G',$,$,$,#1396,#1447);
#1449=IFCQUANTITYAREA('Area',$,$,1.2,$);
#1450=IFCELEMENTQUANTITY('000000001008000000005H',$,'Qto_WindowBaseQuantities',$,$,(#1449));
#1451=IFCRELDEFINESBYPROPERTIES('000000001008000000005I',$,$,$,(#1447),#1450);
#1452=IFCPROPERTYSET('000000001008000000005J',$,'Pset_WindowCommon',$,(#1453,#1454));
#1453=IFCPROPERTYSINGLEVALUE('IsExternal',$,IFCBOOLEAN(.T.),$);
#1454=IFCPROPERTYSINGLEVALUE('ThermalTransmittance',$,IFCTHERMALTRANSMITTANCEMEASURE(1.1),$);
#1455=IFCRELDEFINESBYPROPERTIES('000000001008000000005K',$,$,$,(#1447),#1452);
#1456=IFCRELSPACEBOUNDARY2NDLEVEL('000000001008000000005L',$,'2ndLevel','2a',#35,#338,#1469,.PHYSICAL.,.EXTERNAL_EARTH.,$,$);
#1457=IFCAXIS2PLACEMENT3D(#1458,#1459,#1460);
#1458=IFCCARTESIANPOINT((0.,0.,0.));
#1459=IFCDIRECTION((0.,-1.,0.));
#1460=IFCDIRECTION((0.,0.,1.));
#1461=IFCPLANE(#1457);
#1462=IFCPOLYLINE((#1463,#1464,#1465,#1466,#1467));
#1463=IFCCARTESIANPOINT((300.,300.,0.));
#1464=IFCCARTESIANPOINT((9700.,300.,0.));
#1465=IFCCARTESIANPOINT((9700.,300.,2200.));
#1466=IFCCARTESIANPOINT((300.,300.,2200.));
#1467=IFCCARTESIANPOINT((300.,300.,0.));
#1468=IFCCURVEBOUNDEDPLANE(#1461,#1462,());
#1469=IFCCONNECTIONSURFACEGEOMETRY(#1468,$);
#1470=IFCRELSPACEBOUNDARY2NDLEVEL('000000001008000000005M',$,'2ndLevel','2a',#35,#512,#1483,.PHYSICAL.,.EXTERNAL_EARTH.,$,$);
#1471=IFCAXIS2PLACEMENT3D(#1472,#1473,#1474);
#1472=IFCCARTESIANPOINT((0.,0.,0.));
#1473=IFCDIRECTION((1.,-0.,0.));
#1474=IFCDIRECTION((0.,0.,1.));
#1475=IFCPLANE(#1471);
#1476=IFCPOLYLINE((#1477,#1478,#1479,#1480,#1481));
#1477=IFCCARTESIANPOINT((9700.,300.,0.));
#1478=IFCCARTESIANPOINT((9700.,5700.,0.));
#1479=IFCCARTESIANPOINT((9700.,5700.,2200.));
#1480=IFCCARTESIANPOINT((9700.,300.,2200.));
#1481=IFCCARTESIANPOINT((9700.,300.,0.));
#1482=IFCCURVEBOUNDEDPLANE(#1475,#1476,());
#1483=IFCCONNECTIONSURFACEGEOMETRY(#1482,$);
#1484=IFCRELSPACEBOUNDARY2NDLEVEL('000000001008000000005N',$,'2ndLevel','2a',#35,#396,#1497,.PHYSICAL.,.EXTERNAL_EARTH.,$,$);
#1485=IFCAXIS2PLACEMENT3D(#1486,#1487,#1488);
#1486=IFCCARTESIANPOINT((0.,0.,0.));
#1487=IFCDIRECTION((0.,1.,0.));
#1488=IFCDIRECTION((0.,0.,1.));
#1489=IFCPLANE(#1485);
#1490=IFCPOLYLINE((#1491,#1492,#1493,#1494,#1495));
#1491=IFCCARTESIANPOINT((9700.,5700.,0.));
#1492=IFCCARTESIANPOINT((300.,5700.,0.));
#1493=IFCCARTESIANPOINT((300.,5700.,2200.));
#1494=IFCCARTESIANPOINT((9700.,5700.,2200.));
#1495=IFCCARTESIANPOINT((9700.,5700.,0.));
#1496=IFCCURVEBOUNDEDPLANE(#1489,#1490,());
#1497=IFCCONNECTIONSURFACEGEOMETRY(#1496,$);
#1498=IFCRELSPACEBOUNDARY2NDLEVEL('000000001008000000005O',$,'2ndLevel','2a',#35,#454,#1511,.PHYSICAL.,.EXTERNAL_EARTH.,$,$);
#1499=IFCAXIS2PLACEMENT3D(#1500,#1501,#1502);
#1500=IFCCARTESIANPOINT((0.,0.,0.));
#1501=IFCDIRECTION((-1.,-0.,0.));
#1502=IFCDIRECTION((0.,0.,1.));
#1503=IFCPLANE(#1499);
#1504=IFCPOLYLINE((#1505,#1506,#1507,#1508,#1509));
#1505=IFCCARTESIANPOINT((300.,5700.,0.));
#1506=IFCCARTESIANPOINT((300.,300.,0.));
#1507=IFCCARTESIANPOINT((300.,300.,2200.));
#1508=IFCCARTESIANPOINT((300.,5700.,2200.));
#1509=IFCCARTESIANPOINT((300.,5700.,0.));
#1510=IFCCURVEBOUNDEDPLANE(#1503,#1504,());
#1511=IFCCONNECTIONSURFACEGEOMETRY(#1510,$);
#1512=IFCRELSPACEBOUNDARY2NDLEVEL('000000001008000000005P',$,'2ndLevel','2a',#35,#279,#1525,.PHYSICAL.,.EXTERNAL_EARTH.,$,$);
#1513=IFCAXIS2PLACEMENT3D(#1514,#1515,#1516);
#1514=IFCCARTESIANPOINT((0.,0.,0.));
#1515=IFCDIRECTION((0.,0.,-1.));
#1516=IFCDIRECTION((1.,0.,0.));
#1517=IFCPLANE(#1513);
#1518=IFCPOLYLINE((#1519,#1520,#1521,#1522,#1523));
#1519=IFCCARTESIANPOINT((300.,300.,0.));
#1520=IFCCARTESIANPOINT((300.,5700.,0.));
#1521=IFCCARTESIANPOINT((9700.,5700.,0.));
#1522=IFCCARTESIANPOINT((9700.,300.,0.));
#1523=IFCCARTESIANPOINT((300.,300.,0.));
#1524=IFCCURVEBOUNDEDPLANE(#1517,#1518,());
#1525=IFCCONNECTIONSURFACEGEOMETRY(#1524,$);
#1526=IFCRELSPACEBOUNDARY2NDLEVEL('000000001008000000005W',$,'2ndLevel','2a',#35,#570,#1539,.PHYSICAL.,.INTERNAL.,$,#1610);
#1527=IFCAXIS2PLACEMENT3D(#1528,#1529,#1530);
#1528=IFCCARTESIANPOINT((0.,0.,0.));
#1529=IFCDIRECTION((0.,0.,1.));
#1530=IFCDIRECTION((1.,0.,0.));
#1531=IFCPLANE(#1527);
#1532=IFCPOLYLINE((#1533,#1534,#1535,#1536,#1537));
#1533=IFCCARTESIANPOINT((300.,300.,2200.));
#1534=IFCCARTESIANPOINT((6000.,300.,2200.));
#1535=IFCCARTESIANPOINT((6000.,5700.,2200.));
#1536=IFCCARTESIANPOINT((300.,5700.,2200.));
#1537=IFCCARTESIANPOINT((300.,300.,2200.));
#1538=IFCCURVEBOUNDEDPLANE(#1531,#1532,());
#1539=IFCCONNECTIONSURFACEGEOMETRY(#1538,$);
#1540=IFCRELSPACEBOUNDARY2NDLEVEL('000000001008000000005X',$,'2ndLevel','2a',#35,#570,#1553,.PHYSICAL.,.INTERNAL.,$,#1694);
#1541=IFCAXIS2PLACEMENT3D(#1542,#1543,#1544);
#1542=IFCCARTESIANPOINT((0.,0.,0.));
#1543=IFCDIRECTION((0.,0.,1.));
#1544=IFCDIRECTION((1.,0.,0.));
#1545=IFCPLANE(#1541);
#1546=IFCPOLYLINE((#1547,#1548,#1549,#1550,#1551));
#1547=IFCCARTESIANPOINT((6000.,300.,2200.));
#1548=IFCCARTESIANPOINT((9700.,300.,2200.));
#1549=IFCCARTESIANPOINT((9700.,5700.,2200.));
#1550=IFCCARTESIANPOINT((6000.,5700.,2200.));
#1551=IFCCARTESIANPOINT((6000.,300.,2200.));
#1552=IFCCURVEBOUNDEDPLANE(#1545,#1546,());
#1553=IFCCONNECTIONSURFACEGEOMETRY(#1552,$);
#1554=IFCRELSPACEBOUNDARY2NDLEVEL('000000001008000000005Y',$,'2ndLevel','2a',#48,#628,#1567,.PHYSICAL.,.EXTERNAL.,$,$);
#1555=IFCAXIS2PLACEMENT3D(#1556,#1557,#1558);
#1556=IFCCARTESIANPOINT((0.,0.,0.));
#1557=IFCDIRECTION((0.,-1.,0.));
#1558=IFCDIRECTION((0.,0.,1.));
#1559=IFCPLANE(#1555);
#1560=IFCPOLYLINE((#1561,#1562,#1563,#1564,#1565));
#1561=IFCCARTESIANPOINT((300.,300.,0.));
#1562=IFCCARTESIANPOINT((5880.,300.,0.));
#1563=IFCCARTESIANPOINT((5880.,300.,2500.));
#1564=IFCCARTESIANPOINT((300.,300.,2500.));
#1565=IFCCARTESIANPOINT((300.,300.,0.));
#1566=IFCCURVEBOUNDEDPLANE(#1559,#1560,());
#1567=IFCCONNECTIONSURFACEGEOMETRY(#1566,$);
#1568=IFCRELSPACEBOUNDARY2NDLEVEL('000000001008000000005Z',$,'2ndLevel','2a',#48,#687,#1581,.PHYSICAL.,.EXTERNAL.,$,$);
#1569=IFCAXIS2PLACEMENT3D(#1570,#1571,#1572);
#1570=IFCCARTESIANPOINT((0.,0.,0.));
#1571=IFCDIRECTION((0.,1.,0.));
#1572=IFCDIRECTION((0.,0.,1.));
#1573=IFCPLANE(#1569);
#1574=IFCPOLYLINE((#1575,#1576,#1577,#1578,#1579));
#1575=IFCCARTESIANPOINT((5880.,5700.,0.));
#1576=IFCCARTESIANPOINT((300.,5700.,0.));
#1577=IFCCARTESIANPOINT((300.,5700.,2500.));
#1578=IFCCARTESIANPOINT((5880.,5700.,2500.));
#1579=IFCCARTESIANPOINT((5880.,5700.,0.));
#1580=IFCCURVEBOUNDEDPLANE(#1573,#1574,());
#1581=IFCCONNECTIONSURFACEGEOMETRY(#1580,$);
#1582=IFCRELSPACEBOUNDARY2NDLEVEL('000000001008000000005a',$,'2ndLevel','2a',#48,#745,#1595,.PHYSICAL.,.EXTERNAL.,$,$);
#1583=IFCAXIS2PLACEMENT3D(#1584,#1585,#1586);
#1584=IFCCARTESIANPOINT((0.,0.,0.));
#1585=IFCDIRECTION((-1.,-0.,0.));
#1586=IFCDIRECTION((0.,0.,1.));
#1587=IFCPLANE(#1583);
#1588=IFCPOLYLINE((#1589,#1590,#1591,#1592,#1593));
#1589=IFCCARTESIANPOINT((300.,5700.,0.));
#1590=IFCCARTESIANPOINT((300.,300.,0.));
#1591=IFCCARTESIANPOINT((300.,300.,2500.));
#1592=IFCCARTESIANPOINT((300.,5700.,2500.));
#1593=IFCCARTESIANPOINT((300.,5700.,0.));
#1594=IFCCURVEBOUNDEDPLANE(#1587,#1588,());
#1595=IFCCONNECTIONSURFACEGEOMETRY(#1594,$);
#1596=IFCRELSPACEBOUNDARY2NDLEVEL('000000001008000000005b',$,'2ndLevel','2a',#48,#861,#1609,.PHYSICAL.,.INTERNAL.,$,#1680);
#1597=IFCAXIS2PLACEMENT3D(#1598,#1599,#1600);
#1598=IFCCARTESIANPOINT((0.,0.,0.));
#1599=IFCDIRECTION((1.,-0.,0.));
#1600=IFCDIRECTION((0.,0.,1.));
#1601=IFCPLANE(#1597);
#1602=IFCPOLYLINE((#1603,#1604,#1605,#1606,#1607));
#1603=IFCCARTESIANPOINT((5880.,300.,0.));
#1604=IFCCARTESIANPOINT((5880.,5700.,0.));
#1605=IFCCARTESIANPOINT((5880.,5700.,2500.));
#1606=IFCCARTESIANPOINT((5880.,300.,2500.));
#1607=IFCCARTESIANPOINT((5880.,300.,0.));
#1608=IFCCURVEBOUNDEDPLANE(#1601,#1602,());
#1609=IFCCONNECTIONSURFACEGEOMETRY(#1608,$);
#1610=IFCRELSPACEBOUNDARY2NDLEVEL('000000001008000000005c',$,'2ndLevel','2a',#48,#570,#1623,.PHYSICAL.,.INTERNAL.,$,#1526);
#1611=IFCAXIS2PLACEMENT3D(#1612,#1613,#1614);
#1612=IFCCARTESIANPOINT((0.,0.,0.));
#1613=IFCDIRECTION((0.,0.,-1.));
#1614=IFCDIRECTION((1.,0.,0.));
#1615=IFCPLANE(#1611);
#1616=IFCPOLYLINE((#1617,#1618,#1619,#1620,#1621));
#1617=IFCCARTESIANPOINT((300.,300.,0.));
#1618=IFCCARTESIANPOINT((300.,5700.,0.));
#1619=IFCCARTESIANPOINT((5880.,5700.,0.));
#1620=IFCCARTESIANPOINT((5880.,300.,0.));
#1621=IFCCARTESIANPOINT((300.,300.,0.));
#1622=IFCCURVEBOUNDEDPLANE(#1615,#1616,());
#1623=IFCCONNECTIONSURFACEGEOMETRY(#1622,$);
#1624=IFCRELSPACEBOUNDARY2NDLEVEL('000000001008000000005d',$,'2ndLevel','2a',#48,#919,#1637,.PHYSICAL.,.INTERNAL.,$,#1722);
#1625=IFCAXIS2PLACEMENT3D(#1626,#1627,#1628);
#1626=IFCCARTESIANPOINT((0.,0.,0.));
#1627=IFCDIRECTION((0.,0.,1.));
#1628=IFCDIRECTION((1.,0.,0.));
#1629=IFCPLANE(#1625);
#1630=IFCPOLYLINE((#1631,#1632,#1633,#1634,#1635));
#1631=IFCCARTESIANPOINT((300.,300.,2500.));
#1632=IFCCARTESIANPOINT((5880.,300.,2500.));
#1633=IFCCARTESIANPOINT((5880.,5700.,2500.));
#1634=IFCCARTESIANPOINT((300.,5700.,2500.));
#1635=IFCCARTESIANPOINT((300.,300.,2500.));
#1636=IFCCURVEBOUNDEDPLANE(#1629,#1630,());
#1637=IFCCONNECTIONSURFACEGEOMETRY(#1636,$);
#1638=IFCRELSPACEBOUNDARY2NDLEVEL('000000001008000000005e',$,'2ndLevel','2a',#64,#628,#1651,.PHYSICAL.,.EXTERNAL.,$,$);
#1639=IFCAXIS2PLACEMENT3D(#1640,#1641,#1642);
#1640=IFCCARTESIANPOINT((0.,0.,0.));
#1641=IFCDIRECTION((0.,-1.,0.));
#1642=IFCDIRECTION((0.,0.,1.));
#1643=IFCPLANE(#1639);
#1644=IFCPOLYLINE((#1645,#1646,#1647,#1648,#1649));
#1645=IFCCARTESIANPOINT((6120.,300.,0.));
#1646=IFCCARTESIANPOINT((9700.,300.,0.));
#1647=IFCCARTESIANPOINT((9700.,300.,2500.));
#1648=IFCCARTESIANPOINT((6120.,300.,2500.));
#1649=IFCCARTESIANPOINT((6120.,300.,0.));
#1650=IFCCURVEBOUNDEDPLANE(#1643,#1644,());
#1651=IFCCONNECTIONSURFACEGEOMETRY(#1650,$);
#1652=IFCRELSPACEBOUNDARY2NDLEVEL('000000001008000000005f',$,'2ndLevel','2a',#64,#803,#1665,.PHYSICAL.,.EXTERNAL.,$,$);
#1653=IFCAXIS2PLACEMENT3D(#1654,#1655,#1656);
#1654=IFCCARTESIANPOINT((0.,0.,0.));
#1655=IFCDIRECTION((1.,-0.,0.));
#1656=IFCDIRECTION((0.,0.,1.));
#1657=IFCPLANE(#1653);
#1658=IFCPOLYLINE((#1659,#1660,#1661,#1662,#1663));
#1659=IFCCARTESIANPOINT((9700.,300.,0.));
#1660=IFCCARTESIANPOINT((9700.,5700.,0.));
#1661=IFCCARTESIANPOINT((9700.,5700.,2500.));
#1662=IFCCARTESIANPOINT((9700.,300.,2500.));
#1663=IFCCARTESIANPOINT((9700.,300.,0.));
#1664=IFCCURVEBOUNDEDPLANE(#1657,#1658,());
#1665=IFCCONNECTIONSURFACEGEOMETRY(#1664,$);
#1666=IFCRELSPACEBOUNDARY2NDLEVEL('000000001008000000005m',$,'2ndLevel','2a',#64,#687,#1679,.PHYSICAL.,.EXTERNAL.,$,$);
#1667=IFCAXIS2PLACEMENT3D(#1668,#1669,#1670);
#1668=IFCCARTESIANPOINT((0.,0.,0.));
#1669=IFCDIRECTION((0.,1.,0.));
#1670=IFCDIRECTION((0.,0.,1.));
#1671=IFCPLANE(#1667);
#1672=IFCPOLYLINE((#1673,#1674,#1675,#1676,#1677));
#1673=IFCCARTESIANPOINT((9700.,5700.,0.));
#1674=IFCCARTESIANPOINT((6120.,5700.,0.));
#1675=IFCCARTESIANPOINT((6120.,5700.,2500.));
#1676=IFCCARTESIANPOINT((9700.,5700.,2500.));
#1677=IFCCARTESIANPOINT((9700.,5700.,0.));
#1678=IFCCURVEBOUNDEDPLANE(#1671,#1672,());
#1679=IFCCONNECTIONSURFACEGEOMETRY(#1678,$);
#1680=IFCRELSPACEBOUNDARY2NDLEVEL('000000001008000000005n',$,'2ndLevel','2a',#64,#861,#1693,.PHYSICAL.,.INTERNAL.,$,#1596);
#1681=IFCAXIS2PLACEMENT3D(#1682,#1683,#1684);
#1682=IFCCARTESIANPOINT((0.,0.,0.));
#1683=IFCDIRECTION((-1.,-0.,0.));
#1684=IFCDIRECTION((0.,0.,1.));
#1685=IFCPLANE(#1681);
#1686=IFCPOLYLINE((#1687,#1688,#1689,#1690,#1691));
#1687=IFCCARTESIANPOINT((6120.,5700.,0.));
#1688=IFCCARTESIANPOINT((6120.,300.,0.));
#1689=IFCCARTESIANPOINT((6120.,300.,2500.));
#1690=IFCCARTESIANPOINT((6120.,5700.,2500.));
#1691=IFCCARTESIANPOINT((6120.,5700.,0.));
#1692=IFCCURVEBOUNDEDPLANE(#1685,#1686,());
#1693=IFCCONNECTIONSURFACEGEOMETRY(#1692,$);
#1694=IFCRELSPACEBOUNDARY2NDLEVEL('000000001008000000005o',$,'2ndLevel','2a',#64,#570,#1707,.PHYSICAL.,.INTERNAL.,$,#1540);
#1695=IFCAXIS2PLACEMENT3D(#1696,#1697,#1698);
#1696=IFCCARTESIANPOINT((0.,0.,0.));
#1697=IFCDIRECTION((0.,0.,-1.));
#1698=IFCDIRECTION((1.,0.,0.));
#1699=IFCPLANE(#1695);
#1700=IFCPOLYLINE((#1701,#1702,#1703,#1704,#1705));
#1701=IFCCARTESIANPOINT((6120.,300.,0.));
#1702=IFCCARTESIANPOINT((6120.,5700.,0.));
#1703=IFCCARTESIANPOINT((9700.,5700.,0.));
#1704=IFCCARTESIANPOINT((9700.,300.,0.));
#1705=IFCCARTESIANPOINT((6120.,300.,0.));
#1706=IFCCURVEBOUNDEDPLANE(#1699,#1700,());
#1707=IFCCONNECTIONSURFACEGEOMETRY(#1706,$);
#1708=IFCRELSPACEBOUNDARY2NDLEVEL('000000001008000000005p',$,'2ndLevel','2a',#64,#919,#1721,.PHYSICAL.,.INTERNAL.,$,#1736);
#1709=IFCAXIS2PLACEMENT3D(#1710,#1711,#1712);
#1710=IFCCARTESIANPOINT((0.,0.,0.));
#1711=IFCDIRECTION((0.,0.,1.));
#1712=IFCDIRECTION((1.,0.,0.));
#1713=IFCPLANE(#1709);
#1714=IFCPOLYLINE((#1715,#1716,#1717,#1718,#1719));
#1715=IFCCARTESIANPOINT((6120.,300.,2500.));
#1716=IFCCARTESIANPOINT((9700.,300.,2500.));
#1717=IFCCARTESIANPOINT((9700.,5700.,2500.));
#1718=IFCCARTESIANPOINT((6120.,5700.,2500.));
#1719=IFCCARTESIANPOINT((6120.,300.,2500.));
#1720=IFCCURVEBOUNDEDPLANE(#1713,#1714,());
#1721=IFCCONNECTIONSURFACEGEOMETRY(#1720,$);
#1722=IFCRELSPACEBOUNDARY2NDLEVEL('000000001008000000005q',$,'2ndLevel','2a',#79,#919,#1735,.PHYSICAL.,.INTERNAL.,$,#1624);
#1723=IFCAXIS2PLACEMENT3D(#1724,#1725,#1726);
#1724=IFCCARTESIANPOINT((0.,0.,0.));
#1725=IFCDIRECTION((0.,0.,-1.));
#1726=IFCDIRECTION((1.,0.,0.));
#1727=IFCPLANE(#1723);
#1728=IFCPOLYLINE((#1729,#1730,#1731,#1732,#1733));
#1729=IFCCARTESIANPOINT((300.,300.,0.));
#1730=IFCCARTESIANPOINT((300.,5700.,0.));
#1731=IFCCARTESIANPOINT((6000.,5700.,0.));
#1732=IFCCARTESIANPOINT((6000.,300.,0.));
#1733=IFCCARTESIANPOINT((300.,300.,0.));
#1734=IFCCURVEBOUNDEDPLANE(#1727,#1728,());
#1735=IFCCONNECTIONSURFACEGEOMETRY(#1734,$);
#1736=IFCRELSPACEBOUNDARY2NDLEVEL('000000001008000000005r',$,'2ndLevel','2a',#79,#919,#1749,.PHYSICAL.,.INTERNAL.,$,#1708);
#1737=IFCAXIS2PLACEMENT3D(#1738,#1739,#1740);
#1738=IFCCARTESIANPOINT((0.,0.,0.));
#1739=IFCDIRECTION((0.,0.,-1.));
#1740=IFCDIRECTION((1.,0.,0.));
#1741=IFCPLANE(#1737);
#1742=IFCPOLYLINE((#1743,#1744,#1745,#1746,#1747));
#1743=IFCCARTESIANPOINT((6000.,300.,0.));
#1744=IFCCARTESIANPOINT((6000.,5700.,0.));
#1745=IFCCARTESIANPOINT((9700.,5700.,0.));
#1746=IFCCARTESIANPOINT((9700.,300.,0.));
#1747=IFCCARTESIANPOINT((6000.,300.,0.));
#1748=IFCCURVEBOUNDEDPLANE(#1741,#1742,());
#1749=IFCCONNECTIONSURFACEGEOMETRY(#1748,$);
#1750=IFCRELSPACEBOUNDARY2NDLEVEL('000000001008000000005s',$,'2ndLevel','2a',#79,#1097,#1763,.PHYSICAL.,.EXTERNAL.,$,$);
#1751=IFCAXIS2PLACEMENT3D(#1752,#1753,#1754);
#1752=IFCCARTESIANPOINT((0.,0.,0.));
#1753=IFCDIRECTION((0.,-1.,0.));
#1754=IFCDIRECTION((0.,0.,1.));
#1755=IFCPLANE(#1751);
#1756=IFCPOLYLINE((#1757,#1758,#1759,#1760,#1761));
#1757=IFCCARTESIANPOINT((300.,300.,0.));
#1758=IFCCARTESIANPOINT((9700.,300.,0.));
#1759=IFCCARTESIANPOINT((9700.,300.,1000.));
#1760=IFCCARTESIANPOINT((300.,300.,1000.));
#1761=IFCCARTESIANPOINT((300.,300.,0.));
#1762=IFCCURVEBOUNDEDPLANE(#1755,#1756,());
#1763=IFCCONNECTIONSURFACEGEOMETRY(#1762,$);
#1764=IFCRELSPACEBOUNDARY2NDLEVEL('000000001008000000005t',$,'2ndLevel','2a',#79,#1156,#1777,.PHYSICAL.,.EXTERNAL.,$,$);
#1765=IFCAXIS2PLACEMENT3D(#1766,#1767,#1768);
#1766=IFCCARTESIANPOINT((0.,0.,0.));
#1767=IFCDIRECTION((0.,1.,0.));
#1768=IFCDIRECTION((0.,0.,1.));
#1769=IFCPLANE(#1765);
#1770=IFCPOLYLINE((#1771,#1772,#1773,#1774,#1775));
#1771=IFCCARTESIANPOINT((9700.,5700.,0.));
#1772=IFCCARTESIANPOINT((300.,5700.,0.));
#1773=IFCCARTESIANPOINT((300.,5700.,5050.));
#1774=IFCCARTESIANPOINT((9700.,5700.,5050.));
#1775=IFCCARTESIANPOINT((9700.,5700.,0.));
#1776=IFCCURVEBOUNDEDPLANE(#1769,#1770,());
#1777=IFCCONNECTIONSURFACEGEOMETRY(#1776,$);
#1778=IFCRELSPACEBOUNDARY2NDLEVEL('000000001008000000005u',$,'2ndLevel','2a',#79,#1272,#1791,.PHYSICAL.,.EXTERNAL.,$,$);
#1779=IFCAXIS2PLACEMENT3D(#1780,#1781,#1782);
#1780=IFCCARTESIANPOINT((0.,0.,0.));
#1781=IFCDIRECTION((1.,0.,0.));
#1782=IFCDIRECTION((0.,0.,1.));
#1783=IFCPLANE(#1779);
#1784=IFCPOLYLINE((#1785,#1786,#1787,#1788,#1789));
#1785=IFCCARTESIANPOINT((9700.,300.,0.));
#1786=IFCCARTESIANPOINT((9700.,5700.,0.));
#1787=IFCCARTESIANPOINT((9700.,5700.,5050.));
#1788=IFCCARTESIANPOINT((9700.,300.,1000.));
#1789=IFCCARTESIANPOINT((9700.,300.,0.));
#1790=IFCCURVEBOUNDEDPLANE(#1783,#1784,());
#1791=IFCCONNECTIONSURFACEGEOMETRY(#1790,$);
#1792=IFCRELSPACEBOUNDARY2NDLEVEL('000000001008000000005v',$,'2ndLevel','2a',#79,#1214,#1805,.PHYSICAL.,.EXTERNAL.,$,$);
#1793=IFCAXIS2PLACEMENT3D(#1794,#1795,#1796);
#1794=IFCCARTESIANPOINT((0.,0.,0.));
#1795=IFCDIRECTION((-1.,0.,0.));
#1796=IFCDIRECTION((0.,0.,1.));
#1797=IFCPLANE(#1793);
#1798=IFCPOLYLINE((#1799,#1800,#1801,#1802,#1803));
#1799=IFCCARTESIANPOINT((300.,5700.,0.));
#1800=IFCCARTESIANPOINT((300.,300.,0.));
#1801=IFCCARTESIANPOINT((300.,300.,1000.));
#1802=IFCCARTESIANPOINT((300.,5700.,5050.));
#1803=IFCCARTESIANPOINT((300.,5700.,0.));
#1804=IFCCURVEBOUNDEDPLANE(#1797,#1798,());
#1805=IFCCONNECTIONSURFACEGEOMETRY(#1804,$);
#1806=IFCRELSPACEBOUNDARY2NDLEVEL('0000000010080000000060',$,'2ndLevel','2a',#79,#1330,#1819,.PHYSICAL.,.EXTERNAL.,$,$);
#1807=IFCAXIS2PLACEMENT3D(#1808,#1809,#1810);
#1808=IFCCARTESIANPOINT((0.,0.,0.));
#1809=IFCDIRECTION((0.,-0.6,0.8));
#1810=IFCDIRECTION((1.,0.,0.));
#1811=IFCPLANE(#1807);
#1812=IFCPOLYLINE((#1813,#1814,#1815,#1816,#1817));
#1813=IFCCARTESIANPOINT((300.,300.,1000.));
#1814=IFCCARTESIANPOINT((9700.,300.,1000.));
#1815=IFCCARTESIANPOINT((9700.,5700.,5050.));
#1816=IFCCARTESIANPOINT((300.,5700.,5050.));
#1817=IFCCARTESIANPOINT((300.,300.,1000.));
#1818=IFCCURVEBOUNDEDPLANE(#1811,#1812,());
#1819=IFCCONNECTIONSURFACEGEOMETRY(#1818,$);
ENDSEC;
END-ISO-10303-21;
