ISO-10303-21;
HEADER;
FILE_DESCRIPTION (('ViewDefinition [ReferenceView]'), '2;1');
FILE_NAME ('ifc4_koerper_extrusion_loch.ifc', '2026-09-25T00:00:00', (''), (''), 'EPOS-Plan Importprobe (EPOS.Kern.Tests)', 'EPOS-Plan Importprobe, selbst erzeugt', '');
FILE_SCHEMA (('IFC4'));
ENDSEC;
DATA;
#1=IFCPROJECT('0000000010080000000001',$,'Importprobe',$,$,$,$,(#8),#2);
#2=IFCUNITASSIGNMENT((#3,#4,#5,#6,#7));
#3=IFCSIUNIT(*,.LENGTHUNIT.,.MILLI.,.METRE.);
#4=IFCSIUNIT(*,.AREAUNIT.,$,.SQUARE_METRE.);
#5=IFCSIUNIT(*,.VOLUMEUNIT.,$,.CUBIC_METRE.);
#6=IFCSIUNIT(*,.PLANEANGLEUNIT.,$,.RADIAN.);
#7=IFCSIUNIT(*,.THERMODYNAMICTEMPERATUREUNIT.,$,.DEGREE_CELSIUS.);
#8=IFCGEOMETRICREPRESENTATIONCONTEXT($,'Model',3,1.E-05,#9,$);
#9=IFCAXIS2PLACEMENT3D(#10,$,$);
#10=IFCCARTESIANPOINT((0.,0.,0.));
#11=IFCSITE('0000000010080000000002',$,'Grundst\X\FCck',$,$,#14,$,$,.ELEMENT.,$,$,$,$,$);
#12=IFCAXIS2PLACEMENT3D(#13,$,$);
#13=IFCCARTESIANPOINT((0.,0.,0.));
#14=IFCLOCALPLACEMENT($,#12);
#15=IFCRELAGGREGATES('0000000010080000000003',$,$,$,#1,(#11));
#16=IFCBUILDING('0000000010080000000004',$,'Probengeb\X\E4ude',$,$,#19,$,$,.ELEMENT.,$,$,$);
#17=IFCAXIS2PLACEMENT3D(#18,$,$);
#18=IFCCARTESIANPOINT((0.,0.,0.));
#19=IFCLOCALPLACEMENT(#14,#17);
#20=IFCRELAGGREGATES('0000000010080000000005',$,$,$,#11,(#16));
#21=IFCBUILDINGSTOREY('0000000010080000000006',$,'Erdgeschoss',$,$,#24,$,$,.ELEMENT.,0.);
#22=IFCAXIS2PLACEMENT3D(#23,$,$);
#23=IFCCARTESIANPOINT((0.,0.,0.));
#24=IFCLOCALPLACEMENT(#19,#22);
#25=IFCRELAGGREGATES('0000000010080000000007',$,$,$,#16,(#21));
#26=IFCSPACE('0000000010080000000008',$,'0.01',$,$,#29,#56,'Raum',.ELEMENT.,$,$);
#27=IFCAXIS2PLACEMENT3D(#28,$,$);
#28=IFCCARTESIANPOINT((1000.,2000.,0.));
#29=IFCLOCALPLACEMENT(#24,#27);
#30=IFCRELAGGREGATES('0000000010080000000009',$,$,$,#21,(#26));
#31=IFCQUANTITYAREA('NetFloorArea',$,$,20.,$);
#32=IFCQUANTITYLENGTH('Height',$,$,3000.,$);
#33=IFCQUANTITYVOLUME('NetVolume',$,$,60.,$);
#34=IFCELEMENTQUANTITY('000000001008000000000G',$,'BaseQuantities',$,$,(#31,#32,#33));
#35=IFCRELDEFINESBYPROPERTIES('000000001008000000000H',$,$,$,(#26),#34);
#36=IFCPROPERTYSET('000000001008000000000I',$,'Pset_SpaceCommon',$,(#37));
#37=IFCPROPERTYSINGLEVALUE('IsExternal',$,IFCBOOLEAN(.F.),$);
#38=IFCRELDEFINESBYPROPERTIES('000000001008000000000J',$,$,$,(#26),#36);
#39=IFCPROPERTYBOUNDEDVALUE('SpaceTemperature',$,IFCTHERMODYNAMICTEMPERATUREMEASURE(26.),IFCTHERMODYNAMICTEMPERATUREMEASURE(18.),$,IFCTHERMODYNAMICTEMPERATUREMEASURE(20.));
#40=IFCPROPERTYSET('000000001008000000000K',$,'Pset_SpaceThermalRequirements',$,(#39));
#41=IFCRELDEFINESBYPROPERTIES('000000001008000000000L',$,$,$,(#26),#40);
#42=IFCINDEXEDPOLYCURVE(#43,(IFCLINEINDEX((1,2,3,4,1))),.F.);
#43=IFCCARTESIANPOINTLIST2D(((0.,0.),(6000.,0.),(6000.,4000.),(0.,4000.)),$);
#44=IFCARBITRARYPROFILEDEFWITHVOIDS(.AREA.,$,#42,(#45));
#45=IFCPOLYLINE((#46,#47,#48,#49,#50));
#46=IFCCARTESIANPOINT((2000.,1000.));
#47=IFCCARTESIANPOINT((4000.,1000.));
#48=IFCCARTESIANPOINT((4000.,3000.));
#49=IFCCARTESIANPOINT((2000.,3000.));
#50=IFCCARTESIANPOINT((2000.,1000.));
#51=IFCEXTRUDEDAREASOLID(#44,#52,#54,3000.);
#52=IFCAXIS2PLACEMENT3D(#53,$,$);
#53=IFCCARTESIANPOINT((0.,0.,0.));
#54=IFCDIRECTION((0.,0.,1.));
#55=IFCSHAPEREPRESENTATION(#8,'Body','SweptSolid',(#51));
#56=IFCPRODUCTDEFINITIONSHAPE($,$,(#55));
ENDSEC;
END-ISO-10303-21;
