ISO-10303-21;
HEADER;
FILE_DESCRIPTION (('ViewDefinition [ReferenceView]'), '2;1');
FILE_NAME ('ifc4_z6_cad.ifc', '2026-09-25T00:00:00', (''), (''), 'EPOS-Plan Importprobe (EPOS.Kern.Tests)', 'EPOS-Plan Importprobe, selbst erzeugt', '');
FILE_SCHEMA (('IFC4'));
ENDSEC;
DATA;
#1=IFCPROJECT('0000000010080000000001',$,'Importprobe',$,$,$,$,(#8),#2);
#2=IFCUNITASSIGNMENT((#3,#4,#5,#6,#7));
#3=IFCSIUNIT(*,.LENGTHUNIT.,.MILLI.,.METRE.);
#4=IFCSIUNIT(*,.AREAUNIT.,$,.SQUARE_METRE.);
#5=IFCSIUNIT(*,.VOLUMEUNIT.,$,.CUBIC_METRE.);
#6=IFCSIUNIT(*,.PLANEANGLEUNIT.,$,.RADIAN.);
#7=IFCSIUNIT(*,.THERMODYNAMICTEMPERATUREUNIT.,$,.DEGREE_CELSIUS.);
#8=IFCGEOMETRICREPRESENTATIONCONTEXT($,'Model',3,1.E-05,#9,#11);
#9=IFCAXIS2PLACEMENT3D(#10,$,$);
#10=IFCCARTESIANPOINT((0.,0.,0.));
#11=IFCDIRECTION((0.,1.,0.));
#12=IFCSITE('0000000010080000000002',$,'Grundst\X\FCck',$,$,#15,$,$,.ELEMENT.,$,$,$,$,$);
#13=IFCAXIS2PLACEMENT3D(#14,$,$);
#14=IFCCARTESIANPOINT((0.,0.,0.));
#15=IFCLOCALPLACEMENT($,#13);
#16=IFCRELAGGREGATES('0000000010080000000003',$,$,$,#1,(#12));
#17=IFCBUILDING('0000000010080000000004',$,'Zonenprobe',$,$,#20,$,$,.ELEMENT.,$,$,$);
#18=IFCAXIS2PLACEMENT3D(#19,$,$);
#19=IFCCARTESIANPOINT((0.,0.,0.));
#20=IFCLOCALPLACEMENT(#15,#18);
#21=IFCRELAGGREGATES('0000000010080000000005',$,$,$,#12,(#17));
#22=IFCBUILDINGSTOREY('0000000010080000000006',$,'EG',$,$,#25,$,$,.ELEMENT.,0.);
#23=IFCAXIS2PLACEMENT3D(#24,$,$);
#24=IFCCARTESIANPOINT((0.,0.,0.));
#25=IFCLOCALPLACEMENT(#20,#23);
#26=IFCRELCONTAINEDINSPATIALSTRUCTURE('0000000010080000000007',$,$,$,(#22,#27),#17);
#27=IFCBUILDINGSTOREY('0000000010080000000008',$,'OG',$,$,#30,$,$,.ELEMENT.,2800.);
#28=IFCAXIS2PLACEMENT3D(#29,$,$);
#29=IFCCARTESIANPOINT((0.,0.,2800.));
#30=IFCLOCALPLACEMENT(#20,#28);
#31=IFCSLAB('0000000010080000000009',$,'Decke EG/OG',$,$,#34,$,$,$);
#32=IFCAXIS2PLACEMENT3D(#33,$,$);
#33=IFCCARTESIANPOINT((0.,0.,0.));
#34=IFCLOCALPLACEMENT(#30,#32);
#35=IFCRELCONTAINEDINSPATIALSTRUCTURE('000000001008000000000G',$,$,$,(#31,#67,#102,#239,#254,#268),#27);
#36=IFCPROPERTYENUMERATEDVALUE('AdjacentType',$,(IFCLABEL('btaHeated')),$);
#37=IFCPROPERTYSET('000000001008000000000H',$,'CAD_BauteilAllgemein',$,(#36));
#38=IFCRELDEFINESBYPROPERTIES('000000001008000000000I',$,$,$,(#31),#37);
#39=IFCPROPERTYSET('000000001008000000000J',$,'CAD_BauteilEnergetik',$,(#40));
#40=IFCPROPERTYSINGLEVALUE('ElementEnergyConsultingProperties.CladdingSurface',$,IFCBOOLEAN(.F.),$);
#41=IFCRELDEFINESBYPROPERTIES('000000001008000000000K',$,$,$,(#31),#39);
#42=IFCPROPERTYSET('000000001008000000000L',$,'CAD_Bauteilreferenzen',$,(#43));
#43=IFCPROPERTYSINGLEVALUE('UValue (W/(m\X\B2 K))',$,IFCREAL(1.),$);
#44=IFCRELDEFINESBYPROPERTIES('000000001008000000000M',$,$,$,(#31),#42);
#45=IFCQUANTITYAREA('GrossArea',$,$,140.,$);
#46=IFCQUANTITYAREA('NetArea',$,$,140.,$);
#47=IFCELEMENTQUANTITY('000000001008000000000N',$,'CAD_BauteilQuantities',$,$,(#45,#46));
#48=IFCRELDEFINESBYPROPERTIES('000000001008000000000O',$,$,$,(#31),#47);
#49=IFCSLAB('000000001008000000000P',$,'Bodenplatte',$,$,#52,$,$,$);
#50=IFCAXIS2PLACEMENT3D(#51,$,$);
#51=IFCCARTESIANPOINT((0.,0.,0.));
#52=IFCLOCALPLACEMENT(#25,#50);
#53=IFCRELCONTAINEDINSPATIALSTRUCTURE('000000001008000000000W',$,$,$,(#49,#84,#120,#165,#180,#195,#210,#225,#283),#22);
#54=IFCPROPERTYENUMERATEDVALUE('AdjacentType',$,(IFCLABEL('btaGround')),$);
#55=IFCPROPERTYSET('000000001008000000000X',$,'CAD_BauteilAllgemein',$,(#54));
#56=IFCRELDEFINESBYPROPERTIES('000000001008000000000Y',$,$,$,(#49),#55);
#57=IFCPROPERTYSET('000000001008000000000Z',$,'CAD_BauteilEnergetik',$,(#58));
#58=IFCPROPERTYSINGLEVALUE('ElementEnergyConsultingProperties.CladdingSurface',$,IFCBOOLEAN(.T.),$);
#59=IFCRELDEFINESBYPROPERTIES('000000001008000000000a',$,$,$,(#49),#57);
#60=IFCPROPERTYSET('000000001008000000000b',$,'CAD_Bauteilreferenzen',$,(#61));
#61=IFCPROPERTYSINGLEVALUE('UValue (W/(m\X\B2 K))',$,IFCREAL(0.4),$);
#62=IFCRELDEFINESBYPROPERTIES('000000001008000000000c',$,$,$,(#49),#60);
#63=IFCQUANTITYAREA('GrossArea',$,$,121.,$);
#64=IFCQUANTITYAREA('NetArea',$,$,121.,$);
#65=IFCELEMENTQUANTITY('000000001008000000000d',$,'CAD_BauteilQuantities',$,$,(#63,#64));
#66=IFCRELDEFINESBYPROPERTIES('000000001008000000000e',$,$,$,(#49),#65);
#67=IFCSLAB('000000001008000000000f',$,'Oberste Decke',$,$,#70,$,$,$);
#68=IFCAXIS2PLACEMENT3D(#69,$,$);
#69=IFCCARTESIANPOINT((0.,0.,0.));
#70=IFCLOCALPLACEMENT(#30,#68);
#71=IFCPROPERTYENUMERATEDVALUE('AdjacentType',$,(IFCLABEL('btaUppermostStorey')),$);
#72=IFCPROPERTYSET('000000001008000000000m',$,'CAD_BauteilAllgemein',$,(#71));
#73=IFCRELDEFINESBYPROPERTIES('000000001008000000000n',$,$,$,(#67),#72);
#74=IFCPROPERTYSET('000000001008000000000o',$,'CAD_BauteilEnergetik',$,(#75));
#75=IFCPROPERTYSINGLEVALUE('ElementEnergyConsultingProperties.CladdingSurface',$,IFCBOOLEAN(.T.),$);
#76=IFCRELDEFINESBYPROPERTIES('000000001008000000000p',$,$,$,(#67),#74);
#77=IFCPROPERTYSET('000000001008000000000q',$,'CAD_Bauteilreferenzen',$,(#78));
#78=IFCPROPERTYSINGLEVALUE('UValue (W/(m\X\B2 K))',$,IFCREAL(0.3),$);
#79=IFCRELDEFINESBYPROPERTIES('000000001008000000000r',$,$,$,(#67),#77);
#80=IFCQUANTITYAREA('GrossArea',$,$,57.,$);
#81=IFCQUANTITYAREA('NetArea',$,$,57.,$);
#82=IFCELEMENTQUANTITY('000000001008000000000s',$,'CAD_BauteilQuantities',$,$,(#80,#81));
#83=IFCRELDEFINESBYPROPERTIES('000000001008000000000t',$,$,$,(#67),#82);
#84=IFCWALL('000000001008000000000u',$,'Au\X\DFenwand S\X\FCd',$,$,#87,$,$,$);
#85=IFCAXIS2PLACEMENT3D(#86,$,$);
#86=IFCCARTESIANPOINT((0.,0.,0.));
#87=IFCLOCALPLACEMENT(#25,#85);
#88=IFCPROPERTYENUMERATEDVALUE('AdjacentType',$,(IFCLABEL('btaOutside')),$);
#89=IFCPROPERTYSINGLEVALUE('Orientation (\X\B0)',$,IFCLABEL('180'),$);
#90=IFCPROPERTYSET('000000001008000000000v',$,'CAD_BauteilAllgemein',$,(#88,#89));
#91=IFCRELDEFINESBYPROPERTIES('0000000010080000000010',$,$,$,(#84),#90);
#92=IFCPROPERTYSET('0000000010080000000011',$,'CAD_BauteilEnergetik',$,(#93));
#93=IFCPROPERTYSINGLEVALUE('ElementEnergyConsultingProperties.CladdingSurface',$,IFCBOOLEAN(.T.),$);
#94=IFCRELDEFINESBYPROPERTIES('0000000010080000000012',$,$,$,(#84),#92);
#95=IFCPROPERTYSET('0000000010080000000013',$,'CAD_Bauteilreferenzen',$,(#96));
#96=IFCPROPERTYSINGLEVALUE('UValue (W/(m\X\B2 K))',$,IFCREAL(0.3),$);
#97=IFCRELDEFINESBYPROPERTIES('0000000010080000000014',$,$,$,(#84),#95);
#98=IFCQUANTITYAREA('GrossArea',$,$,40.,$);
#99=IFCQUANTITYAREA('NetArea',$,$,40.,$);
#100=IFCELEMENTQUANTITY('0000000010080000000015',$,'CAD_BauteilQuantities',$,$,(#98,#99));
#101=IFCRELDEFINESBYPROPERTIES('0000000010080000000016',$,$,$,(#84),#100);
#102=IFCWALL('0000000010080000000017',$,'Au\X\DFenwand Nord',$,$,#105,$,$,$);
#103=IFCAXIS2PLACEMENT3D(#104,$,$);
#104=IFCCARTESIANPOINT((0.,0.,0.));
#105=IFCLOCALPLACEMENT(#30,#103);
#106=IFCPROPERTYENUMERATEDVALUE('AdjacentType',$,(IFCLABEL('btaOutside')),$);
#107=IFCPROPERTYSINGLEVALUE('Orientation (\X\B0)',$,IFCLABEL('0'),$);
#108=IFCPROPERTYSET('0000000010080000000018',$,'CAD_BauteilAllgemein',$,(#106,#107));
#109=IFCRELDEFINESBYPROPERTIES('0000000010080000000019',$,$,$,(#102),#108);
#110=IFCPROPERTYSET('000000001008000000001G',$,'CAD_BauteilEnergetik',$,(#111));
#111=IFCPROPERTYSINGLEVALUE('ElementEnergyConsultingProperties.CladdingSurface',$,IFCBOOLEAN(.T.),$);
#112=IFCRELDEFINESBYPROPERTIES('000000001008000000001H',$,$,$,(#102),#110);
#113=IFCPROPERTYSET('000000001008000000001I',$,'CAD_Bauteilreferenzen',$,(#114));
#114=IFCPROPERTYSINGLEVALUE('UValue (W/(m\X\B2 K))',$,IFCREAL(0.3),$);
#115=IFCRELDEFINESBYPROPERTIES('000000001008000000001J',$,$,$,(#102),#113);
#116=IFCQUANTITYAREA('GrossArea',$,$,40.,$);
#117=IFCQUANTITYAREA('NetArea',$,$,40.,$);
#118=IFCELEMENTQUANTITY('000000001008000000001K',$,'CAD_BauteilQuantities',$,$,(#116,#117));
#119=IFCRELDEFINESBYPROPERTIES('000000001008000000001L',$,$,$,(#102),#118);
#120=IFCWALL('000000001008000000001M',$,'Wand Dusche',$,$,#123,$,$,$);
#121=IFCAXIS2PLACEMENT3D(#122,$,$);
#122=IFCCARTESIANPOINT((0.,0.,0.));
#123=IFCLOCALPLACEMENT(#25,#121);
#124=IFCPROPERTYENUMERATEDVALUE('AdjacentType',$,(IFCLABEL('btaHeated')),$);
#125=IFCPROPERTYSET('000000001008000000001N',$,'CAD_BauteilAllgemein',$,(#124));
#126=IFCRELDEFINESBYPROPERTIES('000000001008000000001O',$,$,$,(#120),#125);
#127=IFCPROPERTYSET('000000001008000000001P',$,'CAD_BauteilEnergetik',$,(#128));
#128=IFCPROPERTYSINGLEVALUE('ElementEnergyConsultingProperties.CladdingSurface',$,IFCBOOLEAN(.F.),$);
#129=IFCRELDEFINESBYPROPERTIES('000000001008000000001W',$,$,$,(#120),#127);
#130=IFCPROPERTYSET('000000001008000000001X',$,'CAD_Bauteilreferenzen',$,(#131));
#131=IFCPROPERTYSINGLEVALUE('UValue (W/(m\X\B2 K))',$,IFCREAL(1.5),$);
#132=IFCRELDEFINESBYPROPERTIES('000000001008000000001Y',$,$,$,(#120),#130);
#133=IFCQUANTITYAREA('GrossArea',$,$,5.,$);
#134=IFCQUANTITYAREA('NetArea',$,$,5.,$);
#135=IFCELEMENTQUANTITY('000000001008000000001Z',$,'CAD_BauteilQuantities',$,$,(#133,#134));
#136=IFCRELDEFINESBYPROPERTIES('000000001008000000001a',$,$,$,(#120),#135);
#137=IFCPROPERTYENUMERATEDVALUE('ElementReferences[0].AdjacentType',$,(IFCLABEL('btaHeated')),$);
#138=IFCPROPERTYSINGLEVALUE('ElementReferences[0].Orientation (\X\B0)',$,IFCLABEL('botNone (-987654321,99)'),$);
#139=IFCPROPERTYENUMERATEDVALUE('ElementReferences[1].AdjacentType',$,(IFCLABEL('btaHeated')),$);
#140=IFCPROPERTYSINGLEVALUE('ElementReferences[1].Orientation (\X\B0)',$,IFCLABEL('botNone (-987654321,99)'),$);
#141=IFCPROPERTYSET('000000001008000000001b',$,'CAD_Bauteilreferenzen',$,(#137,#138,#139,#140));
#142=IFCRELDEFINESBYPROPERTIES('000000001008000000001c',$,$,$,(#31),#141);
#143=IFCPROPERTYENUMERATEDVALUE('ElementReferences[0].AdjacentType',$,(IFCLABEL('btaGround')),$);
#144=IFCPROPERTYSINGLEVALUE('ElementReferences[0].Orientation (\X\B0)',$,IFCLABEL('botNone (-987654321,99)'),$);
#145=IFCPROPERTYSET('000000001008000000001d',$,'CAD_Bauteilreferenzen',$,(#143,#144));
#146=IFCRELDEFINESBYPROPERTIES('000000001008000000001e',$,$,$,(#49),#145);
#147=IFCPROPERTYENUMERATEDVALUE('ElementReferences[0].AdjacentType',$,(IFCLABEL('btaHeated')),$);
#148=IFCPROPERTYSINGLEVALUE('ElementReferences[0].Orientation (\X\B0)',$,IFCLABEL('botNone (-987654321,99)'),$);
#149=IFCPROPERTYENUMERATEDVALUE('ElementReferences[1].AdjacentType',$,(IFCLABEL('btaUppermostStorey')),$);
#150=IFCPROPERTYSINGLEVALUE('ElementReferences[1].Orientation (\X\B0)',$,IFCLABEL('botNone (-987654321,99)'),$);
#151=IFCPROPERTYSET('000000001008000000001f',$,'CAD_Bauteilreferenzen',$,(#147,#148,#149,#150));
#152=IFCRELDEFINESBYPROPERTIES('000000001008000000001m',$,$,$,(#67),#151);
#153=IFCPROPERTYENUMERATEDVALUE('ElementReferences[0].AdjacentType',$,(IFCLABEL('btaOutside')),$);
#154=IFCPROPERTYSINGLEVALUE('ElementReferences[0].Orientation (\X\B0)',$,IFCLABEL('botS (180)'),$);
#155=IFCPROPERTYENUMERATEDVALUE('ElementReferences[1].AdjacentType',$,(IFCLABEL('btaHeated')),$);
#156=IFCPROPERTYSINGLEVALUE('ElementReferences[1].Orientation (\X\B0)',$,IFCLABEL('botN (-987654321,99)'),$);
#157=IFCPROPERTYSET('000000001008000000001n',$,'CAD_Bauteilreferenzen',$,(#153,#154,#155,#156));
#158=IFCRELDEFINESBYPROPERTIES('000000001008000000001o',$,$,$,(#84),#157);
#159=IFCPROPERTYENUMERATEDVALUE('ElementReferences[0].AdjacentType',$,(IFCLABEL('btaOutside')),$);
#160=IFCPROPERTYSINGLEVALUE('ElementReferences[0].Orientation (\X\B0)',$,IFCLABEL('botN (0)'),$);
#161=IFCPROPERTYENUMERATEDVALUE('ElementReferences[1].AdjacentType',$,(IFCLABEL('btaNone')),$);
#162=IFCPROPERTYSINGLEVALUE('ElementReferences[1].Orientation (\X\B0)',$,IFCLABEL('botNone (-987654321,99)'),$);
#163=IFCPROPERTYSET('000000001008000000001p',$,'CAD_Bauteilreferenzen',$,(#159,#160,#161,#162));
#164=IFCRELDEFINESBYPROPERTIES('000000001008000000001q',$,$,$,(#102),#163);
#165=IFCSPACE('000000001008000000001r',$,'B\X\FCroraum',$,$,#168,$,$,.ELEMENT.,$,$);
#166=IFCAXIS2PLACEMENT3D(#167,$,$);
#167=IFCCARTESIANPOINT((150.,150.,0.));
#168=IFCLOCALPLACEMENT(#25,#166);
#169=IFCQUANTITYAREA('Area',$,$,40.,$);
#170=IFCQUANTITYVOLUME('Volume',$,$,100.,$);
#171=IFCQUANTITYLENGTH('Height',$,$,2500.,$);
#172=IFCELEMENTQUANTITY('000000001008000000001s',$,'CAD_RaumQuantities',$,$,(#169,#170,#171));
#173=IFCRELDEFINESBYPROPERTIES('000000001008000000001t',$,$,$,(#165),#172);
#174=IFCPROPERTYENUMERATEDVALUE('HeatingType',$,(IFCLABEL('bhtHeated')),$);
#175=IFCPROPERTYSINGLEVALUE('InsideTemperature (\X\B0C)',$,IFCREAL(20.),$);
#176=IFCPROPERTYENUMERATEDVALUE('RoomType',$,(IFCLABEL('mrtOffice')),$);
#177=IFCPROPERTYSET('000000001008000000001u',$,'CAD_RaumAllgemein',$,(#174,#175,#176));
#178=IFCRELDEFINESBYPROPERTIES('000000001008000000001v',$,$,$,(#165),#177);
#179=IFCRELREFERENCEDINSPATIALSTRUCTURE('0000000010080000000020',$,'Spatial references of space B\X\FCroraum',$,(#49,#31,#84),#165);
#180=IFCSPACE('0000000010080000000021',$,'B\X\FCroraum 2',$,$,#183,$,$,.ELEMENT.,$,$);
#181=IFCAXIS2PLACEMENT3D(#182,$,$);
#182=IFCCARTESIANPOINT((1150.,150.,0.));
#183=IFCLOCALPLACEMENT(#25,#181);
#184=IFCQUANTITYAREA('Area',$,$,30.,$);
#185=IFCQUANTITYVOLUME('Volume',$,$,75.,$);
#186=IFCQUANTITYLENGTH('Height',$,$,2500.,$);
#187=IFCELEMENTQUANTITY('0000000010080000000022',$,'CAD_RaumQuantities',$,$,(#184,#185,#186));
#188=IFCRELDEFINESBYPROPERTIES('0000000010080000000023',$,$,$,(#180),#187);
#189=IFCPROPERTYENUMERATEDVALUE('HeatingType',$,(IFCLABEL('bhtHeated')),$);
#190=IFCPROPERTYSINGLEVALUE('InsideTemperature (\X\B0C)',$,IFCREAL(20.),$);
#191=IFCPROPERTYENUMERATEDVALUE('RoomType',$,(IFCLABEL('mrtOffice')),$);
#192=IFCPROPERTYSET('0000000010080000000024',$,'CAD_RaumAllgemein',$,(#189,#190,#191));
#193=IFCRELDEFINESBYPROPERTIES('0000000010080000000025',$,$,$,(#180),#192);
#194=IFCRELREFERENCEDINSPATIALSTRUCTURE('0000000010080000000026',$,'Spatial references of space B\X\FCroraum 2',$,(#49,#31,#84),#180);
#195=IFCSPACE('0000000010080000000027',$,'Flur',$,$,#198,$,$,.ELEMENT.,$,$);
#196=IFCAXIS2PLACEMENT3D(#197,$,$);
#197=IFCCARTESIANPOINT((2150.,150.,0.));
#198=IFCLOCALPLACEMENT(#25,#196);
#199=IFCQUANTITYAREA('Area',$,$,20.,$);
#200=IFCQUANTITYVOLUME('Volume',$,$,50.,$);
#201=IFCQUANTITYLENGTH('Height',$,$,2500.,$);
#202=IFCELEMENTQUANTITY('0000000010080000000028',$,'CAD_RaumQuantities',$,$,(#199,#200,#201));
#203=IFCRELDEFINESBYPROPERTIES('0000000010080000000029',$,$,$,(#195),#202);
#204=IFCPROPERTYENUMERATEDVALUE('HeatingType',$,(IFCLABEL('bhtHeated')),$);
#205=IFCPROPERTYSINGLEVALUE('InsideTemperature (\X\B0C)',$,IFCREAL(15.),$);
#206=IFCPROPERTYENUMERATEDVALUE('RoomType',$,(IFCLABEL('mrtHall')),$);
#207=IFCPROPERTYSET('000000001008000000002G',$,'CAD_RaumAllgemein',$,(#204,#205,#206));
#208=IFCRELDEFINESBYPROPERTIES('000000001008000000002H',$,$,$,(#195),#207);
#209=IFCRELREFERENCEDINSPATIALSTRUCTURE('000000001008000000002I',$,'Spatial references of space Flur',$,(#49,#31,#120),#195);
#210=IFCSPACE('000000001008000000002J',$,'WC-Raum',$,$,#213,$,$,.ELEMENT.,$,$);
#211=IFCAXIS2PLACEMENT3D(#212,$,$);
#212=IFCCARTESIANPOINT((3150.,150.,0.));
#213=IFCLOCALPLACEMENT(#25,#211);
#214=IFCQUANTITYAREA('Area',$,$,6.,$);
#215=IFCQUANTITYVOLUME('Volume',$,$,15.,$);
#216=IFCQUANTITYLENGTH('Height',$,$,2500.,$);
#217=IFCELEMENTQUANTITY('000000001008000000002K',$,'CAD_RaumQuantities',$,$,(#214,#215,#216));
#218=IFCRELDEFINESBYPROPERTIES('000000001008000000002L',$,$,$,(#210),#217);
#219=IFCPROPERTYENUMERATEDVALUE('HeatingType',$,(IFCLABEL('bhtHeated')),$);
#220=IFCPROPERTYSINGLEVALUE('InsideTemperature (\X\B0C)',$,IFCREAL(20.),$);
#221=IFCPROPERTYENUMERATEDVALUE('RoomType',$,(IFCLABEL('mrtWC')),$);
#222=IFCPROPERTYSET('000000001008000000002M',$,'CAD_RaumAllgemein',$,(#219,#220,#221));
#223=IFCRELDEFINESBYPROPERTIES('000000001008000000002N',$,$,$,(#210),#222);
#224=IFCRELREFERENCEDINSPATIALSTRUCTURE('000000001008000000002O',$,'Spatial references of space WC-Raum',$,(#49,#31),#210);
#225=IFCSPACE('000000001008000000002P',$,'Lagerraum',$,$,#228,$,$,.ELEMENT.,$,$);
#226=IFCAXIS2PLACEMENT3D(#227,$,$);
#227=IFCCARTESIANPOINT((4150.,150.,0.));
#228=IFCLOCALPLACEMENT(#25,#226);
#229=IFCQUANTITYAREA('Area',$,$,25.,$);
#230=IFCQUANTITYVOLUME('Volume',$,$,62.5,$);
#231=IFCQUANTITYLENGTH('Height',$,$,2500.,$);
#232=IFCELEMENTQUANTITY('0000000010080000000040',$,'CAD_RaumQuantities',$,$,(#229,#230,#231));
#233=IFCRELDEFINESBYPROPERTIES('0000000010080000000041',$,$,$,(#225),#232);
#234=IFCPROPERTYENUMERATEDVALUE('HeatingType',$,(IFCLABEL('bhtUnHeated')),$);
#235=IFCPROPERTYENUMERATEDVALUE('RoomType',$,(IFCLABEL('mrtStore')),$);
#236=IFCPROPERTYSET('0000000010080000000042',$,'CAD_RaumAllgemein',$,(#234,#235));
#237=IFCRELDEFINESBYPROPERTIES('0000000010080000000043',$,$,$,(#225),#236);
#238=IFCRELREFERENCEDINSPATIALSTRUCTURE('0000000010080000000044',$,'Spatial references of space Lagerraum',$,(#49,#31,#84),#225);
#239=IFCSPACE('0000000010080000000045',$,'Wohnraum',$,$,#242,$,$,.ELEMENT.,$,$);
#240=IFCAXIS2PLACEMENT3D(#241,$,$);
#241=IFCCARTESIANPOINT((5150.,150.,0.));
#242=IFCLOCALPLACEMENT(#30,#240);
#243=IFCQUANTITYAREA('Area',$,$,35.,$);
#244=IFCQUANTITYVOLUME('Volume',$,$,87.5,$);
#245=IFCQUANTITYLENGTH('Height',$,$,2500.,$);
#246=IFCELEMENTQUANTITY('0000000010080000000046',$,'CAD_RaumQuantities',$,$,(#243,#244,#245));
#247=IFCRELDEFINESBYPROPERTIES('0000000010080000000047',$,$,$,(#239),#246);
#248=IFCPROPERTYENUMERATEDVALUE('HeatingType',$,(IFCLABEL('bhtSeparatelyHeated')),$);
#249=IFCPROPERTYSINGLEVALUE('InsideTemperature (\X\B0C)',$,IFCREAL(20.),$);
#250=IFCPROPERTYENUMERATEDVALUE('RoomType',$,(IFCLABEL('mrtLiving')),$);
#251=IFCPROPERTYSET('0000000010080000000048',$,'CAD_RaumAllgemein',$,(#248,#249,#250));
#252=IFCRELDEFINESBYPROPERTIES('0000000010080000000049',$,$,$,(#239),#251);
#253=IFCRELREFERENCEDINSPATIALSTRUCTURE('000000001008000000004G',$,'Spatial references of space Wohnraum',$,(#31,#67,#102),#239);
#254=IFCSPACE('000000001008000000004H',$,'Raum 7',$,$,#257,$,$,.ELEMENT.,$,$);
#255=IFCAXIS2PLACEMENT3D(#256,$,$);
#256=IFCCARTESIANPOINT((6150.,150.,0.));
#257=IFCLOCALPLACEMENT(#30,#255);
#258=IFCQUANTITYAREA('Area',$,$,12.,$);
#259=IFCQUANTITYVOLUME('Volume',$,$,30.,$);
#260=IFCQUANTITYLENGTH('Height',$,$,2500.,$);
#261=IFCELEMENTQUANTITY('000000001008000000004I',$,'CAD_RaumQuantities',$,$,(#258,#259,#260));
#262=IFCRELDEFINESBYPROPERTIES('000000001008000000004J',$,$,$,(#254),#261);
#263=IFCPROPERTYENUMERATEDVALUE('HeatingType',$,(IFCLABEL('bhtHeated')),$);
#264=IFCPROPERTYENUMERATEDVALUE('RoomType',$,(IFCLABEL('mrtOffice')),$);
#265=IFCPROPERTYSET('000000001008000000004K',$,'CAD_RaumAllgemein',$,(#263,#264));
#266=IFCRELDEFINESBYPROPERTIES('000000001008000000004L',$,$,$,(#254),#265);
#267=IFCRELREFERENCEDINSPATIALSTRUCTURE('000000001008000000004M',$,'Spatial references of space Raum 7',$,(#31,#67),#254);
#268=IFCSPACE('000000001008000000004N',$,'Abstellraum',$,$,#271,$,$,.ELEMENT.,$,$);
#269=IFCAXIS2PLACEMENT3D(#270,$,$);
#270=IFCCARTESIANPOINT((7150.,150.,0.));
#271=IFCLOCALPLACEMENT(#30,#269);
#272=IFCQUANTITYAREA('Area',$,$,10.,$);
#273=IFCQUANTITYVOLUME('Volume',$,$,25.,$);
#274=IFCQUANTITYLENGTH('Height',$,$,2500.,$);
#275=IFCELEMENTQUANTITY('000000001008000000004O',$,'CAD_RaumQuantities',$,$,(#272,#273,#274));
#276=IFCRELDEFINESBYPROPERTIES('000000001008000000004P',$,$,$,(#268),#275);
#277=IFCPROPERTYENUMERATEDVALUE('HeatingType',$,(IFCLABEL('bhtUnHeated')),$);
#278=IFCPROPERTYSINGLEVALUE('InsideTemperature (\X\B0C)',$,IFCREAL(10.),$);
#279=IFCPROPERTYENUMERATEDVALUE('RoomType',$,(IFCLABEL('mrtStore')),$);
#280=IFCPROPERTYSET('000000001008000000004W',$,'CAD_RaumAllgemein',$,(#277,#278,#279));
#281=IFCRELDEFINESBYPROPERTIES('000000001008000000004X',$,$,$,(#268),#280);
#282=IFCRELREFERENCEDINSPATIALSTRUCTURE('000000001008000000004Y',$,'Spatial references of space Abstellraum',$,(#31,#67,#102),#268);
#283=IFCSPACE('000000001008000000004Z',$,'Dusche',$,$,#286,$,$,.ELEMENT.,$,$);
#284=IFCAXIS2PLACEMENT3D(#285,$,$);
#285=IFCCARTESIANPOINT((8150.,150.,0.));
#286=IFCLOCALPLACEMENT(#25,#284);
#287=IFCQUANTITYAREA('Area',$,$,3.,$);
#288=IFCQUANTITYVOLUME('Volume',$,$,7.5,$);
#289=IFCQUANTITYLENGTH('Height',$,$,2500.,$);
#290=IFCELEMENTQUANTITY('000000001008000000004a',$,'CAD_RaumQuantities',$,$,(#287,#288,#289));
#291=IFCRELDEFINESBYPROPERTIES('000000001008000000004b',$,$,$,(#283),#290);
#292=IFCPROPERTYENUMERATEDVALUE('HeatingType',$,(IFCLABEL('bhtHeated')),$);
#293=IFCPROPERTYSINGLEVALUE('InsideTemperature (\X\B0C)',$,IFCREAL(24.),$);
#294=IFCPROPERTYENUMERATEDVALUE('RoomType',$,(IFCLABEL('mrtShower')),$);
#295=IFCPROPERTYSET('000000001008000000004c',$,'CAD_RaumAllgemein',$,(#292,#293,#294));
#296=IFCRELDEFINESBYPROPERTIES('000000001008000000004d',$,$,$,(#283),#295);
#297=IFCRELREFERENCEDINSPATIALSTRUCTURE('000000001008000000004e',$,'Spatial references of space Dusche',$,(#49,#120),#283);
ENDSEC;
END-ISO-10303-21;
