ISO-10303-21;
HEADER;
FILE_DESCRIPTION (('ViewDefinition [ReferenceView]'), '2;1');
FILE_NAME ('ifc4_g5_oeffnungen.ifc', '2026-09-25T00:00:00', (''), (''), 'EPOS-Plan Importprobe (EPOS.Kern.Tests)', 'EPOS-Plan Importprobe, selbst erzeugt', '');
FILE_SCHEMA (('IFC4'));
ENDSEC;
DATA;
#1=IFCPROJECT('0000000010080000000001',$,'Importprobe',$,$,$,$,(#8),#2);
#2=IFCUNITASSIGNMENT((#3,#4,#5,#6,#7));
#3=IFCSIUNIT(*,.LENGTHUNIT.,.MILLI.,.METRE.);
#4=IFCSIUNIT(*,.AREAUNIT.,$,.SQUARE_METRE.);
#5=IFCSIUNIT(*,.VOLUMEUNIT.,$,.CUBIC_METRE.);
#6=IFCSIUNIT(*,.PLANEANGLEUNIT.,$,.RADIAN.);
#7=IFCSIUNIT(*,.THERMODYNAMICTEMPERATUREUNIT.,$,.DEGREE_CELSIUS.);
#8=IFCGEOMETRICREPRESENTATIONCONTEXT($,'Model',3,1.E-05,#9,#11);
#9=IFCAXIS2PLACEMENT3D(#10,$,$);
#10=IFCCARTESIANPOINT((0.,0.,0.));
#11=IFCDIRECTION((0.,1.,0.));
#12=IFCSITE('0000000010080000000002',$,'Grundst\X\FCck',$,$,#15,$,$,.ELEMENT.,$,$,$,$,$);
#13=IFCAXIS2PLACEMENT3D(#14,$,$);
#14=IFCCARTESIANPOINT((0.,0.,0.));
#15=IFCLOCALPLACEMENT($,#13);
#16=IFCRELAGGREGATES('0000000010080000000003',$,$,$,#1,(#12));
#17=IFCBUILDING('0000000010080000000004',$,'\X\D6ffnungshaus',$,$,#20,$,$,.ELEMENT.,$,$,$);
#18=IFCAXIS2PLACEMENT3D(#19,$,$);
#19=IFCCARTESIANPOINT((0.,0.,0.));
#20=IFCLOCALPLACEMENT(#15,#18);
#21=IFCRELAGGREGATES('0000000010080000000005',$,$,$,#12,(#17));
#22=IFCBUILDINGSTOREY('0000000010080000000006',$,'Erdgeschoss',$,$,#25,$,$,.ELEMENT.,0.);
#23=IFCAXIS2PLACEMENT3D(#24,$,$);
#24=IFCCARTESIANPOINT((0.,0.,0.));
#25=IFCLOCALPLACEMENT(#20,#23);
#26=IFCRELAGGREGATES('0000000010080000000007',$,$,$,#17,(#22));
#27=IFCSPACE('0000000010080000000008',$,'0.01',$,$,#30,#50,'Wohnen',.ELEMENT.,$,$);
#28=IFCAXIS2PLACEMENT3D(#29,$,$);
#29=IFCCARTESIANPOINT((0.,0.,0.));
#30=IFCLOCALPLACEMENT(#25,#28);
#31=IFCRELAGGREGATES('0000000010080000000009',$,$,$,#22,(#27));
#32=IFCPROPERTYSET('000000001008000000000G',$,'Pset_SpaceCommon',$,(#33));
#33=IFCPROPERTYSINGLEVALUE('IsExternal',$,IFCBOOLEAN(.F.),$);
#34=IFCRELDEFINESBYPROPERTIES('000000001008000000000H',$,$,$,(#27),#32);
#35=IFCPROPERTYBOUNDEDVALUE('SpaceTemperature',$,IFCTHERMODYNAMICTEMPERATUREMEASURE(26.),IFCTHERMODYNAMICTEMPERATUREMEASURE(18.),$,IFCTHERMODYNAMICTEMPERATUREMEASURE(20.));
#36=IFCPROPERTYSET('000000001008000000000I',$,'Pset_SpaceThermalRequirements',$,(#35));
#37=IFCRELDEFINESBYPROPERTIES('000000001008000000000J',$,$,$,(#27),#36);
#38=IFCPOLYLINE((#39,#40,#41,#42,#43));
#39=IFCCARTESIANPOINT((0.,0.));
#40=IFCCARTESIANPOINT((10000.,0.));
#41=IFCCARTESIANPOINT((10000.,8000.));
#42=IFCCARTESIANPOINT((0.,8000.));
#43=IFCCARTESIANPOINT((0.,0.));
#44=IFCARBITRARYCLOSEDPROFILEDEF(.AREA.,$,#38);
#45=IFCAXIS2PLACEMENT3D(#46,$,$);
#46=IFCCARTESIANPOINT((0.,0.,0.));
#47=IFCEXTRUDEDAREASOLID(#44,#45,#48,2500.);
#48=IFCDIRECTION((0.,0.,1.));
#49=IFCSHAPEREPRESENTATION(#8,'Body','SweptSolid',(#47));
#50=IFCPRODUCTDEFINITIONSHAPE($,$,(#49));
#51=IFCWALL('000000001008000000000K',$,'Wand S\X\FCd',$,$,#54,#67,$,.STANDARD.);
#52=IFCAXIS2PLACEMENT3D(#53,$,$);
#53=IFCCARTESIANPOINT((0.,0.,0.));
#54=IFCLOCALPLACEMENT(#25,#52);
#55=IFCRELCONTAINEDINSPATIALSTRUCTURE('000000001008000000000L',$,$,$,(#51,#68,#86,#104,#122,#156,#178,#238,#330,#336,#354,#378),#22);
#56=IFCPROPERTYSET('000000001008000000000M',$,'Pset_WallCommon',$,(#57));
#57=IFCPROPERTYSINGLEVALUE('IsExternal',$,IFCBOOLEAN(.T.),$);
#58=IFCRELDEFINESBYPROPERTIES('000000001008000000000N',$,$,$,(#51),#56);
#59=IFCRECTANGLEPROFILEDEF(.AREA.,$,#60,10000.,300.);
#60=IFCAXIS2PLACEMENT2D(#61,$);
#61=IFCCARTESIANPOINT((5000.,-150.));
#62=IFCEXTRUDEDAREASOLID(#59,#63,#65,2500.);
#63=IFCAXIS2PLACEMENT3D(#64,$,$);
#64=IFCCARTESIANPOINT((0.,0.,0.));
#65=IFCDIRECTION((0.,0.,1.));
#66=IFCSHAPEREPRESENTATION(#8,'Body','SweptSolid',(#62));
#67=IFCPRODUCTDEFINITIONSHAPE($,$,(#66));
#68=IFCWALL('000000001008000000000O',$,'Wand Ost',$,$,#73,#85,$,.STANDARD.);
#69=IFCAXIS2PLACEMENT3D(#70,#71,#72);
#70=IFCCARTESIANPOINT((10000.,0.,0.));
#71=IFCDIRECTION((0.,0.,1.));
#72=IFCDIRECTION((0.,1.,0.));
#73=IFCLOCALPLACEMENT(#25,#69);
#74=IFCPROPERTYSET('000000001008000000000P',$,'Pset_WallCommon',$,(#75));
#75=IFCPROPERTYSINGLEVALUE('IsExternal',$,IFCBOOLEAN(.T.),$);
#76=IFCRELDEFINESBYPROPERTIES('000000001008000000000W',$,$,$,(#68),#74);
#77=IFCRECTANGLEPROFILEDEF(.AREA.,$,#78,8000.,300.);
#78=IFCAXIS2PLACEMENT2D(#79,$);
#79=IFCCARTESIANPOINT((4000.,-150.));
#80=IFCEXTRUDEDAREASOLID(#77,#81,#83,2500.);
#81=IFCAXIS2PLACEMENT3D(#82,$,$);
#82=IFCCARTESIANPOINT((0.,0.,0.));
#83=IFCDIRECTION((0.,0.,1.));
#84=IFCSHAPEREPRESENTATION(#8,'Body','SweptSolid',(#80));
#85=IFCPRODUCTDEFINITIONSHAPE($,$,(#84));
#86=IFCWALL('000000001008000000000X',$,'Wand Nord',$,$,#91,#103,$,.STANDARD.);
#87=IFCAXIS2PLACEMENT3D(#88,#89,#90);
#88=IFCCARTESIANPOINT((10000.,8000.,0.));
#89=IFCDIRECTION((0.,0.,1.));
#90=IFCDIRECTION((-1.,0.,0.));
#91=IFCLOCALPLACEMENT(#25,#87);
#92=IFCPROPERTYSET('000000001008000000000Y',$,'Pset_WallCommon',$,(#93));
#93=IFCPROPERTYSINGLEVALUE('IsExternal',$,IFCBOOLEAN(.T.),$);
#94=IFCRELDEFINESBYPROPERTIES('000000001008000000000Z',$,$,$,(#86),#92);
#95=IFCRECTANGLEPROFILEDEF(.AREA.,$,#96,10000.,300.);
#96=IFCAXIS2PLACEMENT2D(#97,$);
#97=IFCCARTESIANPOINT((5000.,-150.));
#98=IFCEXTRUDEDAREASOLID(#95,#99,#101,2500.);
#99=IFCAXIS2PLACEMENT3D(#100,$,$);
#100=IFCCARTESIANPOINT((0.,0.,0.));
#101=IFCDIRECTION((0.,0.,1.));
#102=IFCSHAPEREPRESENTATION(#8,'Body','SweptSolid',(#98));
#103=IFCPRODUCTDEFINITIONSHAPE($,$,(#102));
#104=IFCWALL('000000001008000000000a',$,'Wand West',$,$,#109,#121,$,.STANDARD.);
#105=IFCAXIS2PLACEMENT3D(#106,#107,#108);
#106=IFCCARTESIANPOINT((0.,8000.,0.));
#107=IFCDIRECTION((0.,0.,1.));
#108=IFCDIRECTION((0.,-1.,0.));
#109=IFCLOCALPLACEMENT(#25,#105);
#110=IFCPROPERTYSET('000000001008000000000b',$,'Pset_WallCommon',$,(#111));
#111=IFCPROPERTYSINGLEVALUE('IsExternal',$,IFCBOOLEAN(.T.),$);
#112=IFCRELDEFINESBYPROPERTIES('000000001008000000000c',$,$,$,(#104),#110);
#113=IFCRECTANGLEPROFILEDEF(.AREA.,$,#114,8000.,300.);
#114=IFCAXIS2PLACEMENT2D(#115,$);
#115=IFCCARTESIANPOINT((4000.,-150.));
#116=IFCEXTRUDEDAREASOLID(#113,#117,#119,2500.);
#117=IFCAXIS2PLACEMENT3D(#118,$,$);
#118=IFCCARTESIANPOINT((0.,0.,0.));
#119=IFCDIRECTION((0.,0.,1.));
#120=IFCSHAPEREPRESENTATION(#8,'Body','SweptSolid',(#116));
#121=IFCPRODUCTDEFINITIONSHAPE($,$,(#120));
#122=IFCWALL('000000001008000000000d',$,'Wand Gaube',$,$,#127,#139,$,.STANDARD.);
#123=IFCAXIS2PLACEMENT3D(#124,#125,#126);
#124=IFCCARTESIANPOINT((10000.,2000.,0.));
#125=IFCDIRECTION((0.,0.,1.));
#126=IFCDIRECTION((0.,1.,0.));
#127=IFCLOCALPLACEMENT(#25,#123);
#128=IFCPROPERTYSET('000000001008000000000e',$,'Pset_WallCommon',$,(#129));
#129=IFCPROPERTYSINGLEVALUE('IsExternal',$,IFCBOOLEAN(.T.),$);
#130=IFCRELDEFINESBYPROPERTIES('000000001008000000000f',$,$,$,(#122),#128);
#131=IFCRECTANGLEPROFILEDEF(.AREA.,$,#132,2000.,300.);
#132=IFCAXIS2PLACEMENT2D(#133,$);
#133=IFCCARTESIANPOINT((1000.,-150.));
#134=IFCEXTRUDEDAREASOLID(#131,#135,#137,1000.);
#135=IFCAXIS2PLACEMENT3D(#136,$,$);
#136=IFCCARTESIANPOINT((0.,0.,0.));
#137=IFCDIRECTION((0.,0.,1.));
#138=IFCSHAPEREPRESENTATION(#8,'Body','SweptSolid',(#134));
#139=IFCPRODUCTDEFINITIONSHAPE($,$,(#138));
#140=IFCOPENINGELEMENT('000000001008000000000m',$,'\X\D6ffnung Fenster A',$,$,#144,#155,$,.OPENING.);
#141=IFCRELVOIDSELEMENT('000000001008000000000n',$,$,$,#51,#140);
#142=IFCAXIS2PLACEMENT3D(#143,$,$);
#143=IFCCARTESIANPOINT((0.,0.,0.));
#144=IFCLOCALPLACEMENT(#54,#142);
#145=IFCAXIS2PLACEMENT3D(#146,#147,#148);
#146=IFCCARTESIANPOINT((0.,0.,0.));
#147=IFCDIRECTION((0.,-1.,0.));
#148=IFCDIRECTION((1.,0.,0.));
#149=IFCEXTRUDEDAREASOLID(#150,#145,#153,300.);
#150=IFCRECTANGLEPROFILEDEF(.AREA.,$,#151,1500.,1200.);
#151=IFCAXIS2PLACEMENT2D(#152,$);
#152=IFCCARTESIANPOINT((1750.,1500.));
#153=IFCDIRECTION((0.,0.,1.));
#154=IFCSHAPEREPRESENTATION(#8,'Body','SweptSolid',(#149));
#155=IFCPRODUCTDEFINITIONSHAPE($,$,(#154));
#156=IFCWINDOW('000000001008000000000o',$,'Fenster A',$,$,$,$,$,1200.,1500.,$,$,$);
#157=IFCRELFILLSELEMENT('000000001008000000000p',$,$,$,#140,#156);
#158=IFCPROPERTYSET('000000001008000000000q',$,'Pset_WindowCommon',$,(#159,#160));
#159=IFCPROPERTYSINGLEVALUE('IsExternal',$,IFCBOOLEAN(.T.),$);
#160=IFCPROPERTYSINGLEVALUE('ThermalTransmittance',$,IFCTHERMALTRANSMITTANCEMEASURE(1.1),$);
#161=IFCRELDEFINESBYPROPERTIES('000000001008000000000r',$,$,$,(#156),#158);
#162=IFCOPENINGELEMENT('000000001008000000000s',$,'\X\D6ffnung Fenster B',$,$,#166,#177,$,.OPENING.);
#163=IFCRELVOIDSELEMENT('000000001008000000000t',$,$,$,#51,#162);
#164=IFCAXIS2PLACEMENT3D(#165,$,$);
#165=IFCCARTESIANPOINT((0.,0.,0.));
#166=IFCLOCALPLACEMENT(#54,#164);
#167=IFCAXIS2PLACEMENT3D(#168,#169,#170);
#168=IFCCARTESIANPOINT((0.,0.,0.));
#169=IFCDIRECTION((0.,-1.,0.));
#170=IFCDIRECTION((1.,0.,0.));
#171=IFCEXTRUDEDAREASOLID(#172,#167,#175,300.);
#172=IFCRECTANGLEPROFILEDEF(.AREA.,$,#173,1200.,1000.);
#173=IFCAXIS2PLACEMENT2D(#174,$);
#174=IFCCARTESIANPOINT((6600.,1500.));
#175=IFCDIRECTION((0.,0.,1.));
#176=IFCSHAPEREPRESENTATION(#8,'Body','SweptSolid',(#171));
#177=IFCPRODUCTDEFINITIONSHAPE($,$,(#176));
#178=IFCWINDOW('000000001008000000000u',$,'Fenster B',$,$,#182,#228,$,$,$,$,$,$);
#179=IFCRELFILLSELEMENT('000000001008000000000v',$,$,$,#162,#178);
#180=IFCAXIS2PLACEMENT3D(#181,$,$);
#181=IFCCARTESIANPOINT((0.,0.,0.));
#182=IFCLOCALPLACEMENT(#54,#180);
#183=IFCCLOSEDSHELL((#190,#197,#204,#211,#218,#225));
#184=IFCPOLYLOOP((#185,#186,#187,#188));
#185=IFCCARTESIANPOINT((6050.,-200.,1050.));
#186=IFCCARTESIANPOINT((6050.,-100.,1050.));
#187=IFCCARTESIANPOINT((7150.,-100.,1050.));
#188=IFCCARTESIANPOINT((7150.,-200.,1050.));
#189=IFCFACEOUTERBOUND(#184,.T.);
#190=IFCFACE((#189));
#191=IFCPOLYLOOP((#192,#193,#194,#195));
#192=IFCCARTESIANPOINT((6050.,-200.,1950.));
#193=IFCCARTESIANPOINT((7150.,-200.,1950.));
#194=IFCCARTESIANPOINT((7150.,-100.,1950.));
#195=IFCCARTESIANPOINT((6050.,-100.,1950.));
#196=IFCFACEOUTERBOUND(#191,.T.);
#197=IFCFACE((#196));
#198=IFCPOLYLOOP((#199,#200,#201,#202));
#199=IFCCARTESIANPOINT((6050.,-200.,1050.));
#200=IFCCARTESIANPOINT((7150.,-200.,1050.));
#201=IFCCARTESIANPOINT((7150.,-200.,1950.));
#202=IFCCARTESIANPOINT((6050.,-200.,1950.));
#203=IFCFACEOUTERBOUND(#198,.T.);
#204=IFCFACE((#203));
#205=IFCPOLYLOOP((#206,#207,#208,#209));
#206=IFCCARTESIANPOINT((7150.,-200.,1050.));
#207=IFCCARTESIANPOINT((7150.,-100.,1050.));
#208=IFCCARTESIANPOINT((7150.,-100.,1950.));
#209=IFCCARTESIANPOINT((7150.,-200.,1950.));
#210=IFCFACEOUTERBOUND(#205,.T.);
#211=IFCFACE((#210));
#212=IFCPOLYLOOP((#213,#214,#215,#216));
#213=IFCCARTESIANPOINT((7150.,-100.,1050.));
#214=IFCCARTESIANPOINT((6050.,-100.,1050.));
#215=IFCCARTESIANPOINT((6050.,-100.,1950.));
#216=IFCCARTESIANPOINT((7150.,-100.,1950.));
#217=IFCFACEOUTERBOUND(#212,.T.);
#218=IFCFACE((#217));
#219=IFCPOLYLOOP((#220,#221,#222,#223));
#220=IFCCARTESIANPOINT((6050.,-100.,1050.));
#221=IFCCARTESIANPOINT((6050.,-200.,1050.));
#222=IFCCARTESIANPOINT((6050.,-200.,1950.));
#223=IFCCARTESIANPOINT((6050.,-100.,1950.));
#224=IFCFACEOUTERBOUND(#219,.T.);
#225=IFCFACE((#224));
#226=IFCFACETEDBREP(#183);
#227=IFCSHAPEREPRESENTATION(#8,'Body','Brep',(#226));
#228=IFCPRODUCTDEFINITIONSHAPE($,$,(#227));
#229=IFCPROPERTYSET('0000000010080000000010',$,'Pset_WindowCommon',$,(#230,#231));
#230=IFCPROPERTYSINGLEVALUE('IsExternal',$,IFCBOOLEAN(.T.),$);
#231=IFCPROPERTYSINGLEVALUE('ThermalTransmittance',$,IFCTHERMALTRANSMITTANCEMEASURE(1.1),$);
#232=IFCRELDEFINESBYPROPERTIES('0000000010080000000011',$,$,$,(#178),#229);
#233=IFCOPENINGELEMENT('0000000010080000000012',$,'\X\D6ffnung T\X\FCr',$,$,#237,$,$,.OPENING.);
#234=IFCRELVOIDSELEMENT('0000000010080000000013',$,$,$,#104,#233);
#235=IFCAXIS2PLACEMENT3D(#236,$,$);
#236=IFCCARTESIANPOINT((0.,0.,0.));
#237=IFCLOCALPLACEMENT(#109,#235);
#238=IFCDOOR('0000000010080000000014',$,'T\X\FCr',$,$,#242,#288,$,$,$,$,$,$);
#239=IFCRELFILLSELEMENT('0000000010080000000015',$,$,$,#233,#238);
#240=IFCAXIS2PLACEMENT3D(#241,$,$);
#241=IFCCARTESIANPOINT((0.,0.,0.));
#242=IFCLOCALPLACEMENT(#109,#240);
#243=IFCCLOSEDSHELL((#250,#257,#264,#271,#278,#285));
#244=IFCPOLYLOOP((#245,#246,#247,#248));
#245=IFCCARTESIANPOINT((3000.,-200.,0.));
#246=IFCCARTESIANPOINT((3000.,-100.,0.));
#247=IFCCARTESIANPOINT((4000.,-100.,0.));
#248=IFCCARTESIANPOINT((4000.,-200.,0.));
#249=IFCFACEOUTERBOUND(#244,.T.);
#250=IFCFACE((#249));
#251=IFCPOLYLOOP((#252,#253,#254,#255));
#252=IFCCARTESIANPOINT((3000.,-200.,2000.));
#253=IFCCARTESIANPOINT((4000.,-200.,2000.));
#254=IFCCARTESIANPOINT((4000.,-100.,2000.));
#255=IFCCARTESIANPOINT((3000.,-100.,2000.));
#256=IFCFACEOUTERBOUND(#251,.T.);
#257=IFCFACE((#256));
#258=IFCPOLYLOOP((#259,#260,#261,#262));
#259=IFCCARTESIANPOINT((3000.,-200.,0.));
#260=IFCCARTESIANPOINT((4000.,-200.,0.));
#261=IFCCARTESIANPOINT((4000.,-200.,2000.));
#262=IFCCARTESIANPOINT((3000.,-200.,2000.));
#263=IFCFACEOUTERBOUND(#258,.T.);
#264=IFCFACE((#263));
#265=IFCPOLYLOOP((#266,#267,#268,#269));
#266=IFCCARTESIANPOINT((4000.,-200.,0.));
#267=IFCCARTESIANPOINT((4000.,-100.,0.));
#268=IFCCARTESIANPOINT((4000.,-100.,2000.));
#269=IFCCARTESIANPOINT((4000.,-200.,2000.));
#270=IFCFACEOUTERBOUND(#265,.T.);
#271=IFCFACE((#270));
#272=IFCPOLYLOOP((#273,#274,#275,#276));
#273=IFCCARTESIANPOINT((4000.,-100.,0.));
#274=IFCCARTESIANPOINT((3000.,-100.,0.));
#275=IFCCARTESIANPOINT((3000.,-100.,2000.));
#276=IFCCARTESIANPOINT((4000.,-100.,2000.));
#277=IFCFACEOUTERBOUND(#272,.T.);
#278=IFCFACE((#277));
#279=IFCPOLYLOOP((#280,#281,#282,#283));
#280=IFCCARTESIANPOINT((3000.,-100.,0.));
#281=IFCCARTESIANPOINT((3000.,-200.,0.));
#282=IFCCARTESIANPOINT((3000.,-200.,2000.));
#283=IFCCARTESIANPOINT((3000.,-100.,2000.));
#284=IFCFACEOUTERBOUND(#279,.T.);
#285=IFCFACE((#284));
#286=IFCFACETEDBREP(#243);
#287=IFCSHAPEREPRESENTATION(#8,'Body','Brep',(#286));
#288=IFCPRODUCTDEFINITIONSHAPE($,$,(#287));
#289=IFCPROPERTYSET('0000000010080000000016',$,'Pset_DoorCommon',$,(#290,#291));
#290=IFCPROPERTYSINGLEVALUE('IsExternal',$,IFCBOOLEAN(.T.),$);
#291=IFCPROPERTYSINGLEVALUE('ThermalTransmittance',$,IFCTHERMALTRANSMITTANCEMEASURE(1.8),$);
#292=IFCRELDEFINESBYPROPERTIES('0000000010080000000017',$,$,$,(#238),#289);
#293=IFCOPENINGELEMENT('0000000010080000000018',$,'\X\D6ffnung Loch',$,$,#297,#308,$,.OPENING.);
#294=IFCRELVOIDSELEMENT('0000000010080000000019',$,$,$,#86,#293);
#295=IFCAXIS2PLACEMENT3D(#296,$,$);
#296=IFCCARTESIANPOINT((0.,0.,0.));
#297=IFCLOCALPLACEMENT(#91,#295);
#298=IFCAXIS2PLACEMENT3D(#299,#300,#301);
#299=IFCCARTESIANPOINT((0.,0.,0.));
#300=IFCDIRECTION((0.,-1.,0.));
#301=IFCDIRECTION((1.,0.,0.));
#302=IFCEXTRUDEDAREASOLID(#303,#298,#306,300.);
#303=IFCRECTANGLEPROFILEDEF(.AREA.,$,#304,1000.,1000.);
#304=IFCAXIS2PLACEMENT2D(#305,$);
#305=IFCCARTESIANPOINT((2500.,1500.));
#306=IFCDIRECTION((0.,0.,1.));
#307=IFCSHAPEREPRESENTATION(#8,'Body','SweptSolid',(#302));
#308=IFCPRODUCTDEFINITIONSHAPE($,$,(#307));
#309=IFCOPENINGELEMENT('000000001008000000001G',$,'\X\D6ffnung Nische',$,$,#313,#324,$,.OPENING.);
#310=IFCRELVOIDSELEMENT('000000001008000000001H',$,$,$,#86,#309);
#311=IFCAXIS2PLACEMENT3D(#312,$,$);
#312=IFCCARTESIANPOINT((0.,0.,0.));
#313=IFCLOCALPLACEMENT(#91,#311);
#314=IFCAXIS2PLACEMENT3D(#315,#316,#317);
#315=IFCCARTESIANPOINT((0.,0.,0.));
#316=IFCDIRECTION((0.,-1.,0.));
#317=IFCDIRECTION((1.,0.,0.));
#318=IFCEXTRUDEDAREASOLID(#319,#314,#322,100.);
#319=IFCRECTANGLEPROFILEDEF(.AREA.,$,#320,1000.,1000.);
#320=IFCAXIS2PLACEMENT2D(#321,$);
#321=IFCCARTESIANPOINT((6500.,1000.));
#322=IFCDIRECTION((0.,0.,1.));
#323=IFCSHAPEREPRESENTATION(#8,'Body','SweptSolid',(#318));
#324=IFCPRODUCTDEFINITIONSHAPE($,$,(#323));
#325=IFCOPENINGELEMENT('000000001008000000001I',$,'\X\D6ffnung Fenster Gaube',$,$,#329,$,$,.OPENING.);
#326=IFCRELVOIDSELEMENT('000000001008000000001J',$,$,$,#122,#325);
#327=IFCAXIS2PLACEMENT3D(#328,$,$);
#328=IFCCARTESIANPOINT((0.,0.,0.));
#329=IFCLOCALPLACEMENT(#127,#327);
#330=IFCWINDOW('000000001008000000001K',$,'Fenster Gaube',$,$,$,$,$,1200.,2000.,$,$,$);
#331=IFCRELFILLSELEMENT('000000001008000000001L',$,$,$,#325,#330);
#332=IFCPROPERTYSET('000000001008000000001M',$,'Pset_WindowCommon',$,(#333,#334));
#333=IFCPROPERTYSINGLEVALUE('IsExternal',$,IFCBOOLEAN(.T.),$);
#334=IFCPROPERTYSINGLEVALUE('ThermalTransmittance',$,IFCTHERMALTRANSMITTANCEMEASURE(1.1),$);
#335=IFCRELDEFINESBYPROPERTIES('000000001008000000001N',$,$,$,(#330),#332);
#336=IFCSLAB('000000001008000000001O',$,'Dachplatte',$,$,#339,#353,$,.ROOF.);
#337=IFCAXIS2PLACEMENT3D(#338,$,$);
#338=IFCCARTESIANPOINT((0.,0.,0.));
#339=IFCLOCALPLACEMENT(#25,#337);
#340=IFCPROPERTYSET('000000001008000000001P',$,'Pset_SlabCommon',$,(#341));
#341=IFCPROPERTYSINGLEVALUE('IsExternal',$,IFCBOOLEAN(.T.),$);
#342=IFCRELDEFINESBYPROPERTIES('000000001008000000001W',$,$,$,(#336),#340);
#343=IFCAXIS2PLACEMENT3D(#344,#345,#346);
#344=IFCCARTESIANPOINT((0.,0.,2500.));
#345=IFCDIRECTION((0.,-0.6,0.8));
#346=IFCDIRECTION((1.,0.,0.));
#347=IFCEXTRUDEDAREASOLID(#348,#343,#351,200.);
#348=IFCRECTANGLEPROFILEDEF(.AREA.,$,#349,10000.,10000.);
#349=IFCAXIS2PLACEMENT2D(#350,$);
#350=IFCCARTESIANPOINT((5000.,5000.));
#351=IFCDIRECTION((0.,0.,1.));
#352=IFCSHAPEREPRESENTATION(#8,'Body','SweptSolid',(#347));
#353=IFCPRODUCTDEFINITIONSHAPE($,$,(#352));
#354=IFCROOF('000000001008000000001X',$,'Dach',$,$,#357,$,$,.SHED_ROOF.);
#355=IFCAXIS2PLACEMENT3D(#356,$,$);
#356=IFCCARTESIANPOINT((0.,0.,0.));
#357=IFCLOCALPLACEMENT(#25,#355);
#358=IFCPROPERTYSET('000000001008000000001Y',$,'Pset_RoofCommon',$,(#359));
#359=IFCPROPERTYSINGLEVALUE('IsExternal',$,IFCBOOLEAN(.T.),$);
#360=IFCRELDEFINESBYPROPERTIES('000000001008000000001Z',$,$,$,(#354),#358);
#361=IFCRELAGGREGATES('000000001008000000001a',$,$,$,#354,(#336));
#362=IFCOPENINGELEMENT('000000001008000000001b',$,'\X\D6ffnung Dachfenster',$,$,#366,#377,$,.OPENING.);
#363=IFCRELVOIDSELEMENT('000000001008000000001c',$,$,$,#336,#362);
#364=IFCAXIS2PLACEMENT3D(#365,$,$);
#365=IFCCARTESIANPOINT((0.,0.,0.));
#366=IFCLOCALPLACEMENT(#339,#364);
#367=IFCAXIS2PLACEMENT3D(#368,#369,#370);
#368=IFCCARTESIANPOINT((0.,0.,2500.));
#369=IFCDIRECTION((0.,-0.6,0.8));
#370=IFCDIRECTION((1.,0.,0.));
#371=IFCEXTRUDEDAREASOLID(#372,#367,#375,200.);
#372=IFCRECTANGLEPROFILEDEF(.AREA.,$,#373,1000.,1200.);
#373=IFCAXIS2PLACEMENT2D(#374,$);
#374=IFCCARTESIANPOINT((5000.,5000.));
#375=IFCDIRECTION((0.,0.,1.));
#376=IFCSHAPEREPRESENTATION(#8,'Body','SweptSolid',(#371));
#377=IFCPRODUCTDEFINITIONSHAPE($,$,(#376));
#378=IFCWINDOW('000000001008000000001d',$,'Dachfenster',$,$,$,$,$,$,$,$,$,$);
#379=IFCRELFILLSELEMENT('000000001008000000001e',$,$,$,#362,#378);
#380=IFCPROPERTYSET('000000001008000000001f',$,'Pset_WindowCommon',$,(#381,#382));
#381=IFCPROPERTYSINGLEVALUE('IsExternal',$,IFCBOOLEAN(.T.),$);
#382=IFCPROPERTYSINGLEVALUE('ThermalTransmittance',$,IFCTHERMALTRANSMITTANCEMEASURE(1.1),$);
#383=IFCRELDEFINESBYPROPERTIES('000000001008000000001m',$,$,$,(#378),#380);
ENDSEC;
END-ISO-10303-21;
