ISO-10303-21;
HEADER;
FILE_DESCRIPTION (('ViewDefinition [ReferenceView]'), '2;1');
FILE_NAME ('ifc4_g5_oeffnungen_mengen.ifc', '2026-09-25T00:00:00', (''), (''), 'EPOS-Plan Importprobe (EPOS.Kern.Tests)', 'EPOS-Plan Importprobe, selbst erzeugt', '');
FILE_SCHEMA (('IFC4'));
ENDSEC;
DATA;
#1=IFCPROJECT('0000000010080000000001',$,'Importprobe',$,$,$,$,(#8),#2);
#2=IFCUNITASSIGNMENT((#3,#4,#5,#6,#7));
#3=IFCSIUNIT(*,.LENGTHUNIT.,.MILLI.,.METRE.);
#4=IFCSIUNIT(*,.AREAUNIT.,$,.SQUARE_METRE.);
#5=IFCSIUNIT(*,.VOLUMEUNIT.,$,.CUBIC_METRE.);
#6=IFCSIUNIT(*,.PLANEANGLEUNIT.,$,.RADIAN.);
#7=IFCSIUNIT(*,.THERMODYNAMICTEMPERATUREUNIT.,$,.DEGREE_CELSIUS.);
#8=IFCGEOMETRICREPRESENTATIONCONTEXT($,'Model',3,1.E-05,#9,#11);
#9=IFCAXIS2PLACEMENT3D(#10,$,$);
#10=IFCCARTESIANPOINT((0.,0.,0.));
#11=IFCDIRECTION((0.,1.,0.));
#12=IFCSITE('0000000010080000000002',$,'Grundst\X\FCck',$,$,#15,$,$,.ELEMENT.,$,$,$,$,$);
#13=IFCAXIS2PLACEMENT3D(#14,$,$);
#14=IFCCARTESIANPOINT((0.,0.,0.));
#15=IFCLOCALPLACEMENT($,#13);
#16=IFCRELAGGREGATES('0000000010080000000003',$,$,$,#1,(#12));
#17=IFCBUILDING('0000000010080000000004',$,'\X\D6ffnungshaus',$,$,#20,$,$,.ELEMENT.,$,$,$);
#18=IFCAXIS2PLACEMENT3D(#19,$,$);
#19=IFCCARTESIANPOINT((0.,0.,0.));
#20=IFCLOCALPLACEMENT(#15,#18);
#21=IFCRELAGGREGATES('0000000010080000000005',$,$,$,#12,(#17));
#22=IFCBUILDINGSTOREY('0000000010080000000006',$,'Erdgeschoss',$,$,#25,$,$,.ELEMENT.,0.);
#23=IFCAXIS2PLACEMENT3D(#24,$,$);
#24=IFCCARTESIANPOINT((0.,0.,0.));
#25=IFCLOCALPLACEMENT(#20,#23);
#26=IFCRELAGGREGATES('0000000010080000000007',$,$,$,#17,(#22));
#27=IFCSPACE('0000000010080000000008',$,'0.01',$,$,#30,#50,'Wohnen',.ELEMENT.,$,$);
#28=IFCAXIS2PLACEMENT3D(#29,$,$);
#29=IFCCARTESIANPOINT((0.,0.,0.));
#30=IFCLOCALPLACEMENT(#25,#28);
#31=IFCRELAGGREGATES('0000000010080000000009',$,$,$,#22,(#27));
#32=IFCPROPERTYSET('000000001008000000000G',$,'Pset_SpaceCommon',$,(#33));
#33=IFCPROPERTYSINGLEVALUE('IsExternal',$,IFCBOOLEAN(.F.),$);
#34=IFCRELDEFINESBYPROPERTIES('000000001008000000000H',$,$,$,(#27),#32);
#35=IFCPROPERTYBOUNDEDVALUE('SpaceTemperature',$,IFCTHERMODYNAMICTEMPERATUREMEASURE(26.),IFCTHERMODYNAMICTEMPERATUREMEASURE(18.),$,IFCTHERMODYNAMICTEMPERATUREMEASURE(20.));
#36=IFCPROPERTYSET('000000001008000000000I',$,'Pset_SpaceThermalRequirements',$,(#35));
#37=IFCRELDEFINESBYPROPERTIES('000000001008000000000J',$,$,$,(#27),#36);
#38=IFCPOLYLINE((#39,#40,#41,#42,#43));
#39=IFCCARTESIANPOINT((0.,0.));
#40=IFCCARTESIANPOINT((10000.,0.));
#41=IFCCARTESIANPOINT((10000.,8000.));
#42=IFCCARTESIANPOINT((0.,8000.));
#43=IFCCARTESIANPOINT((0.,0.));
#44=IFCARBITRARYCLOSEDPROFILEDEF(.AREA.,$,#38);
#45=IFCAXIS2PLACEMENT3D(#46,$,$);
#46=IFCCARTESIANPOINT((0.,0.,0.));
#47=IFCEXTRUDEDAREASOLID(#44,#45,#48,2500.);
#48=IFCDIRECTION((0.,0.,1.));
#49=IFCSHAPEREPRESENTATION(#8,'Body','SweptSolid',(#47));
#50=IFCPRODUCTDEFINITIONSHAPE($,$,(#49));
#51=IFCWALL('000000001008000000000K',$,'Wand S\X\FCd',$,$,#54,#67,$,.STANDARD.);
#52=IFCAXIS2PLACEMENT3D(#53,$,$);
#53=IFCCARTESIANPOINT((0.,0.,0.));
#54=IFCLOCALPLACEMENT(#25,#52);
#55=IFCRELCONTAINEDINSPATIALSTRUCTURE('000000001008000000000L',$,$,$,(#51,#72,#94,#116,#138,#179,#207,#273,#376,#385,#407,#431),#22);
#56=IFCPROPERTYSET('000000001008000000000M',$,'Pset_WallCommon',$,(#57));
#57=IFCPROPERTYSINGLEVALUE('IsExternal',$,IFCBOOLEAN(.T.),$);
#58=IFCRELDEFINESBYPROPERTIES('000000001008000000000N',$,$,$,(#51),#56);
#59=IFCRECTANGLEPROFILEDEF(.AREA.,$,#60,10000.,300.);
#60=IFCAXIS2PLACEMENT2D(#61,$);
#61=IFCCARTESIANPOINT((5000.,-150.));
#62=IFCEXTRUDEDAREASOLID(#59,#63,#65,2500.);
#63=IFCAXIS2PLACEMENT3D(#64,$,$);
#64=IFCCARTESIANPOINT((0.,0.,0.));
#65=IFCDIRECTION((0.,0.,1.));
#66=IFCSHAPEREPRESENTATION(#8,'Body','SweptSolid',(#62));
#67=IFCPRODUCTDEFINITIONSHAPE($,$,(#66));
#68=IFCQUANTITYAREA('GrossSideArea',$,$,25.,$);
#69=IFCQUANTITYAREA('NetSideArea',$,$,22.,$);
#70=IFCELEMENTQUANTITY('000000001008000000000O',$,'Qto_WallBaseQuantities',$,$,(#68,#69));
#71=IFCRELDEFINESBYPROPERTIES('000000001008000000000P',$,$,$,(#51),#70);
#72=IFCWALL('000000001008000000000W',$,'Wand Ost',$,$,#77,#89,$,.STANDARD.);
#73=IFCAXIS2PLACEMENT3D(#74,#75,#76);
#74=IFCCARTESIANPOINT((10000.,0.,0.));
#75=IFCDIRECTION((0.,0.,1.));
#76=IFCDIRECTION((0.,1.,0.));
#77=IFCLOCALPLACEMENT(#25,#73);
#78=IFCPROPERTYSET('000000001008000000000X',$,'Pset_WallCommon',$,(#79));
#79=IFCPROPERTYSINGLEVALUE('IsExternal',$,IFCBOOLEAN(.T.),$);
#80=IFCRELDEFINESBYPROPERTIES('000000001008000000000Y',$,$,$,(#72),#78);
#81=IFCRECTANGLEPROFILEDEF(.AREA.,$,#82,8000.,300.);
#82=IFCAXIS2PLACEMENT2D(#83,$);
#83=IFCCARTESIANPOINT((4000.,-150.));
#84=IFCEXTRUDEDAREASOLID(#81,#85,#87,2500.);
#85=IFCAXIS2PLACEMENT3D(#86,$,$);
#86=IFCCARTESIANPOINT((0.,0.,0.));
#87=IFCDIRECTION((0.,0.,1.));
#88=IFCSHAPEREPRESENTATION(#8,'Body','SweptSolid',(#84));
#89=IFCPRODUCTDEFINITIONSHAPE($,$,(#88));
#90=IFCQUANTITYAREA('GrossSideArea',$,$,20.,$);
#91=IFCQUANTITYAREA('NetSideArea',$,$,20.,$);
#92=IFCELEMENTQUANTITY('000000001008000000000Z',$,'Qto_WallBaseQuantities',$,$,(#90,#91));
#93=IFCRELDEFINESBYPROPERTIES('000000001008000000000a',$,$,$,(#72),#92);
#94=IFCWALL('000000001008000000000b',$,'Wand Nord',$,$,#99,#111,$,.STANDARD.);
#95=IFCAXIS2PLACEMENT3D(#96,#97,#98);
#96=IFCCARTESIANPOINT((10000.,8000.,0.));
#97=IFCDIRECTION((0.,0.,1.));
#98=IFCDIRECTION((-1.,0.,0.));
#99=IFCLOCALPLACEMENT(#25,#95);
#100=IFCPROPERTYSET('000000001008000000000c',$,'Pset_WallCommon',$,(#101));
#101=IFCPROPERTYSINGLEVALUE('IsExternal',$,IFCBOOLEAN(.T.),$);
#102=IFCRELDEFINESBYPROPERTIES('000000001008000000000d',$,$,$,(#94),#100);
#103=IFCRECTANGLEPROFILEDEF(.AREA.,$,#104,10000.,300.);
#104=IFCAXIS2PLACEMENT2D(#105,$);
#105=IFCCARTESIANPOINT((5000.,-150.));
#106=IFCEXTRUDEDAREASOLID(#103,#107,#109,2500.);
#107=IFCAXIS2PLACEMENT3D(#108,$,$);
#108=IFCCARTESIANPOINT((0.,0.,0.));
#109=IFCDIRECTION((0.,0.,1.));
#110=IFCSHAPEREPRESENTATION(#8,'Body','SweptSolid',(#106));
#111=IFCPRODUCTDEFINITIONSHAPE($,$,(#110));
#112=IFCQUANTITYAREA('GrossSideArea',$,$,25.,$);
#113=IFCQUANTITYAREA('NetSideArea',$,$,24.,$);
#114=IFCELEMENTQUANTITY('000000001008000000000e',$,'Qto_WallBaseQuantities',$,$,(#112,#113));
#115=IFCRELDEFINESBYPROPERTIES('000000001008000000000f',$,$,$,(#94),#114);
#116=IFCWALL('000000001008000000000m',$,'Wand West',$,$,#121,#133,$,.STANDARD.);
#117=IFCAXIS2PLACEMENT3D(#118,#119,#120);
#118=IFCCARTESIANPOINT((0.,8000.,0.));
#119=IFCDIRECTION((0.,0.,1.));
#120=IFCDIRECTION((0.,-1.,0.));
#121=IFCLOCALPLACEMENT(#25,#117);
#122=IFCPROPERTYSET('000000001008000000000n',$,'Pset_WallCommon',$,(#123));
#123=IFCPROPERTYSINGLEVALUE('IsExternal',$,IFCBOOLEAN(.T.),$);
#124=IFCRELDEFINESBYPROPERTIES('000000001008000000000o',$,$,$,(#116),#122);
#125=IFCRECTANGLEPROFILEDEF(.AREA.,$,#126,8000.,300.);
#126=IFCAXIS2PLACEMENT2D(#127,$);
#127=IFCCARTESIANPOINT((4000.,-150.));
#128=IFCEXTRUDEDAREASOLID(#125,#129,#131,2500.);
#129=IFCAXIS2PLACEMENT3D(#130,$,$);
#130=IFCCARTESIANPOINT((0.,0.,0.));
#131=IFCDIRECTION((0.,0.,1.));
#132=IFCSHAPEREPRESENTATION(#8,'Body','SweptSolid',(#128));
#133=IFCPRODUCTDEFINITIONSHAPE($,$,(#132));
#134=IFCQUANTITYAREA('GrossSideArea',$,$,20.,$);
#135=IFCQUANTITYAREA('NetSideArea',$,$,18.,$);
#136=IFCELEMENTQUANTITY('000000001008000000000p',$,'Qto_WallBaseQuantities',$,$,(#134,#135));
#137=IFCRELDEFINESBYPROPERTIES('000000001008000000000q',$,$,$,(#116),#136);
#138=IFCWALL('000000001008000000000r',$,'Wand Gaube',$,$,#143,#155,$,.STANDARD.);
#139=IFCAXIS2PLACEMENT3D(#140,#141,#142);
#140=IFCCARTESIANPOINT((10000.,2000.,0.));
#141=IFCDIRECTION((0.,0.,1.));
#142=IFCDIRECTION((0.,1.,0.));
#143=IFCLOCALPLACEMENT(#25,#139);
#144=IFCPROPERTYSET('000000001008000000000s',$,'Pset_WallCommon',$,(#145));
#145=IFCPROPERTYSINGLEVALUE('IsExternal',$,IFCBOOLEAN(.T.),$);
#146=IFCRELDEFINESBYPROPERTIES('000000001008000000000t',$,$,$,(#138),#144);
#147=IFCRECTANGLEPROFILEDEF(.AREA.,$,#148,2000.,300.);
#148=IFCAXIS2PLACEMENT2D(#149,$);
#149=IFCCARTESIANPOINT((1000.,-150.));
#150=IFCEXTRUDEDAREASOLID(#147,#151,#153,1000.);
#151=IFCAXIS2PLACEMENT3D(#152,$,$);
#152=IFCCARTESIANPOINT((0.,0.,0.));
#153=IFCDIRECTION((0.,0.,1.));
#154=IFCSHAPEREPRESENTATION(#8,'Body','SweptSolid',(#150));
#155=IFCPRODUCTDEFINITIONSHAPE($,$,(#154));
#156=IFCQUANTITYAREA('GrossSideArea',$,$,2.,$);
#157=IFCQUANTITYAREA('NetSideArea',$,$,0.,$);
#158=IFCELEMENTQUANTITY('000000001008000000000u',$,'Qto_WallBaseQuantities',$,$,(#156,#157));
#159=IFCRELDEFINESBYPROPERTIES('000000001008000000000v',$,$,$,(#138),#158);
#160=IFCOPENINGELEMENT('0000000010080000000010',$,'\X\D6ffnung Fenster A',$,$,#164,#175,$,.OPENING.);
#161=IFCRELVOIDSELEMENT('0000000010080000000011',$,$,$,#51,#160);
#162=IFCAXIS2PLACEMENT3D(#163,$,$);
#163=IFCCARTESIANPOINT((0.,0.,0.));
#164=IFCLOCALPLACEMENT(#54,#162);
#165=IFCAXIS2PLACEMENT3D(#166,#167,#168);
#166=IFCCARTESIANPOINT((0.,0.,0.));
#167=IFCDIRECTION((0.,-1.,0.));
#168=IFCDIRECTION((1.,0.,0.));
#169=IFCEXTRUDEDAREASOLID(#170,#165,#173,300.);
#170=IFCRECTANGLEPROFILEDEF(.AREA.,$,#171,1500.,1200.);
#171=IFCAXIS2PLACEMENT2D(#172,$);
#172=IFCCARTESIANPOINT((1750.,1500.));
#173=IFCDIRECTION((0.,0.,1.));
#174=IFCSHAPEREPRESENTATION(#8,'Body','SweptSolid',(#169));
#175=IFCPRODUCTDEFINITIONSHAPE($,$,(#174));
#176=IFCQUANTITYAREA('Area',$,$,1.8,$);
#177=IFCELEMENTQUANTITY('0000000010080000000012',$,'Qto_OpeningElementBaseQuantities',$,$,(#176));
#178=IFCRELDEFINESBYPROPERTIES('0000000010080000000013',$,$,$,(#160),#177);
#179=IFCWINDOW('0000000010080000000014',$,'Fenster A',$,$,$,$,$,1200.,1500.,$,$,$);
#180=IFCRELFILLSELEMENT('0000000010080000000015',$,$,$,#160,#179);
#181=IFCQUANTITYAREA('Area',$,$,1.8,$);
#182=IFCELEMENTQUANTITY('0000000010080000000016',$,'Qto_WindowBaseQuantities',$,$,(#181));
#183=IFCRELDEFINESBYPROPERTIES('0000000010080000000017',$,$,$,(#179),#182);
#184=IFCPROPERTYSET('0000000010080000000018',$,'Pset_WindowCommon',$,(#185,#186));
#185=IFCPROPERTYSINGLEVALUE('IsExternal',$,IFCBOOLEAN(.T.),$);
#186=IFCPROPERTYSINGLEVALUE('ThermalTransmittance',$,IFCTHERMALTRANSMITTANCEMEASURE(1.1),$);
#187=IFCRELDEFINESBYPROPERTIES('0000000010080000000019',$,$,$,(#179),#184);
#188=IFCOPENINGELEMENT('000000001008000000001G',$,'\X\D6ffnung Fenster B',$,$,#192,#203,$,.OPENING.);
#189=IFCRELVOIDSELEMENT('000000001008000000001H',$,$,$,#51,#188);
#190=IFCAXIS2PLACEMENT3D(#191,$,$);
#191=IFCCARTESIANPOINT((0.,0.,0.));
#192=IFCLOCALPLACEMENT(#54,#190);
#193=IFCAXIS2PLACEMENT3D(#194,#195,#196);
#194=IFCCARTESIANPOINT((0.,0.,0.));
#195=IFCDIRECTION((0.,-1.,0.));
#196=IFCDIRECTION((1.,0.,0.));
#197=IFCEXTRUDEDAREASOLID(#198,#193,#201,300.);
#198=IFCRECTANGLEPROFILEDEF(.AREA.,$,#199,1200.,1000.);
#199=IFCAXIS2PLACEMENT2D(#200,$);
#200=IFCCARTESIANPOINT((6600.,1500.));
#201=IFCDIRECTION((0.,0.,1.));
#202=IFCSHAPEREPRESENTATION(#8,'Body','SweptSolid',(#197));
#203=IFCPRODUCTDEFINITIONSHAPE($,$,(#202));
#204=IFCQUANTITYAREA('Area',$,$,1.2,$);
#205=IFCELEMENTQUANTITY('000000001008000000001I',$,'Qto_OpeningElementBaseQuantities',$,$,(#204));
#206=IFCRELDEFINESBYPROPERTIES('000000001008000000001J',$,$,$,(#188),#205);
#207=IFCWINDOW('000000001008000000001K',$,'Fenster B',$,$,#211,#257,$,$,$,$,$,$);
#208=IFCRELFILLSELEMENT('000000001008000000001L',$,$,$,#188,#207);
#209=IFCAXIS2PLACEMENT3D(#210,$,$);
#210=IFCCARTESIANPOINT((0.,0.,0.));
#211=IFCLOCALPLACEMENT(#54,#209);
#212=IFCCLOSEDSHELL((#219,#226,#233,#240,#247,#254));
#213=IFCPOLYLOOP((#214,#215,#216,#217));
#214=IFCCARTESIANPOINT((6050.,-200.,1050.));
#215=IFCCARTESIANPOINT((6050.,-100.,1050.));
#216=IFCCARTESIANPOINT((7150.,-100.,1050.));
#217=IFCCARTESIANPOINT((7150.,-200.,1050.));
#218=IFCFACEOUTERBOUND(#213,.T.);
#219=IFCFACE((#218));
#220=IFCPOLYLOOP((#221,#222,#223,#224));
#221=IFCCARTESIANPOINT((6050.,-200.,1950.));
#222=IFCCARTESIANPOINT((7150.,-200.,1950.));
#223=IFCCARTESIANPOINT((7150.,-100.,1950.));
#224=IFCCARTESIANPOINT((6050.,-100.,1950.));
#225=IFCFACEOUTERBOUND(#220,.T.);
#226=IFCFACE((#225));
#227=IFCPOLYLOOP((#228,#229,#230,#231));
#228=IFCCARTESIANPOINT((6050.,-200.,1050.));
#229=IFCCARTESIANPOINT((7150.,-200.,1050.));
#230=IFCCARTESIANPOINT((7150.,-200.,1950.));
#231=IFCCARTESIANPOINT((6050.,-200.,1950.));
#232=IFCFACEOUTERBOUND(#227,.T.);
#233=IFCFACE((#232));
#234=IFCPOLYLOOP((#235,#236,#237,#238));
#235=IFCCARTESIANPOINT((7150.,-200.,1050.));
#236=IFCCARTESIANPOINT((7150.,-100.,1050.));
#237=IFCCARTESIANPOINT((7150.,-100.,1950.));
#238=IFCCARTESIANPOINT((7150.,-200.,1950.));
#239=IFCFACEOUTERBOUND(#234,.T.);
#240=IFCFACE((#239));
#241=IFCPOLYLOOP((#242,#243,#244,#245));
#242=IFCCARTESIANPOINT((7150.,-100.,1050.));
#243=IFCCARTESIANPOINT((6050.,-100.,1050.));
#244=IFCCARTESIANPOINT((6050.,-100.,1950.));
#245=IFCCARTESIANPOINT((7150.,-100.,1950.));
#246=IFCFACEOUTERBOUND(#241,.T.);
#247=IFCFACE((#246));
#248=IFCPOLYLOOP((#249,#250,#251,#252));
#249=IFCCARTESIANPOINT((6050.,-100.,1050.));
#250=IFCCARTESIANPOINT((6050.,-200.,1050.));
#251=IFCCARTESIANPOINT((6050.,-200.,1950.));
#252=IFCCARTESIANPOINT((6050.,-100.,1950.));
#253=IFCFACEOUTERBOUND(#248,.T.);
#254=IFCFACE((#253));
#255=IFCFACETEDBREP(#212);
#256=IFCSHAPEREPRESENTATION(#8,'Body','Brep',(#255));
#257=IFCPRODUCTDEFINITIONSHAPE($,$,(#256));
#258=IFCQUANTITYAREA('Area',$,$,1.2,$);
#259=IFCELEMENTQUANTITY('000000001008000000001M',$,'Qto_WindowBaseQuantities',$,$,(#258));
#260=IFCRELDEFINESBYPROPERTIES('000000001008000000001N',$,$,$,(#207),#259);
#261=IFCPROPERTYSET('000000001008000000001O',$,'Pset_WindowCommon',$,(#262,#263));
#262=IFCPROPERTYSINGLEVALUE('IsExternal',$,IFCBOOLEAN(.T.),$);
#263=IFCPROPERTYSINGLEVALUE('ThermalTransmittance',$,IFCTHERMALTRANSMITTANCEMEASURE(1.1),$);
#264=IFCRELDEFINESBYPROPERTIES('000000001008000000001P',$,$,$,(#207),#261);
#265=IFCOPENINGELEMENT('000000001008000000001W',$,'\X\D6ffnung T\X\FCr',$,$,#269,$,$,.OPENING.);
#266=IFCRELVOIDSELEMENT('000000001008000000001X',$,$,$,#116,#265);
#267=IFCAXIS2PLACEMENT3D(#268,$,$);
#268=IFCCARTESIANPOINT((0.,0.,0.));
#269=IFCLOCALPLACEMENT(#121,#267);
#270=IFCQUANTITYAREA('Area',$,$,2.,$);
#271=IFCELEMENTQUANTITY('000000001008000000001Y',$,'Qto_OpeningElementBaseQuantities',$,$,(#270));
#272=IFCRELDEFINESBYPROPERTIES('000000001008000000001Z',$,$,$,(#265),#271);
#273=IFCDOOR('000000001008000000001a',$,'T\X\FCr',$,$,#277,#323,$,$,$,$,$,$);
#274=IFCRELFILLSELEMENT('000000001008000000001b',$,$,$,#265,#273);
#275=IFCAXIS2PLACEMENT3D(#276,$,$);
#276=IFCCARTESIANPOINT((0.,0.,0.));
#277=IFCLOCALPLACEMENT(#121,#275);
#278=IFCCLOSEDSHELL((#285,#292,#299,#306,#313,#320));
#279=IFCPOLYLOOP((#280,#281,#282,#283));
#280=IFCCARTESIANPOINT((3000.,-200.,0.));
#281=IFCCARTESIANPOINT((3000.,-100.,0.));
#282=IFCCARTESIANPOINT((4000.,-100.,0.));
#283=IFCCARTESIANPOINT((4000.,-200.,0.));
#284=IFCFACEOUTERBOUND(#279,.T.);
#285=IFCFACE((#284));
#286=IFCPOLYLOOP((#287,#288,#289,#290));
#287=IFCCARTESIANPOINT((3000.,-200.,2000.));
#288=IFCCARTESIANPOINT((4000.,-200.,2000.));
#289=IFCCARTESIANPOINT((4000.,-100.,2000.));
#290=IFCCARTESIANPOINT((3000.,-100.,2000.));
#291=IFCFACEOUTERBOUND(#286,.T.);
#292=IFCFACE((#291));
#293=IFCPOLYLOOP((#294,#295,#296,#297));
#294=IFCCARTESIANPOINT((3000.,-200.,0.));
#295=IFCCARTESIANPOINT((4000.,-200.,0.));
#296=IFCCARTESIANPOINT((4000.,-200.,2000.));
#297=IFCCARTESIANPOINT((3000.,-200.,2000.));
#298=IFCFACEOUTERBOUND(#293,.T.);
#299=IFCFACE((#298));
#300=IFCPOLYLOOP((#301,#302,#303,#304));
#301=IFCCARTESIANPOINT((4000.,-200.,0.));
#302=IFCCARTESIANPOINT((4000.,-100.,0.));
#303=IFCCARTESIANPOINT((4000.,-100.,2000.));
#304=IFCCARTESIANPOINT((4000.,-200.,2000.));
#305=IFCFACEOUTERBOUND(#300,.T.);
#306=IFCFACE((#305));
#307=IFCPOLYLOOP((#308,#309,#310,#311));
#308=IFCCARTESIANPOINT((4000.,-100.,0.));
#309=IFCCARTESIANPOINT((3000.,-100.,0.));
#310=IFCCARTESIANPOINT((3000.,-100.,2000.));
#311=IFCCARTESIANPOINT((4000.,-100.,2000.));
#312=IFCFACEOUTERBOUND(#307,.T.);
#313=IFCFACE((#312));
#314=IFCPOLYLOOP((#315,#316,#317,#318));
#315=IFCCARTESIANPOINT((3000.,-100.,0.));
#316=IFCCARTESIANPOINT((3000.,-200.,0.));
#317=IFCCARTESIANPOINT((3000.,-200.,2000.));
#318=IFCCARTESIANPOINT((3000.,-100.,2000.));
#319=IFCFACEOUTERBOUND(#314,.T.);
#320=IFCFACE((#319));
#321=IFCFACETEDBREP(#278);
#322=IFCSHAPEREPRESENTATION(#8,'Body','Brep',(#321));
#323=IFCPRODUCTDEFINITIONSHAPE($,$,(#322));
#324=IFCQUANTITYAREA('Area',$,$,2.,$);
#325=IFCELEMENTQUANTITY('000000001008000000001c',$,'Qto_DoorBaseQuantities',$,$,(#324));
#326=IFCRELDEFINESBYPROPERTIES('000000001008000000001d',$,$,$,(#273),#325);
#327=IFCPROPERTYSET('000000001008000000001e',$,'Pset_DoorCommon',$,(#328,#329));
#328=IFCPROPERTYSINGLEVALUE('IsExternal',$,IFCBOOLEAN(.T.),$);
#329=IFCPROPERTYSINGLEVALUE('ThermalTransmittance',$,IFCTHERMALTRANSMITTANCEMEASURE(1.8),$);
#330=IFCRELDEFINESBYPROPERTIES('000000001008000000001f',$,$,$,(#273),#327);
#331=IFCOPENINGELEMENT('000000001008000000001m',$,'\X\D6ffnung Loch',$,$,#335,#346,$,.OPENING.);
#332=IFCRELVOIDSELEMENT('000000001008000000001n',$,$,$,#94,#331);
#333=IFCAXIS2PLACEMENT3D(#334,$,$);
#334=IFCCARTESIANPOINT((0.,0.,0.));
#335=IFCLOCALPLACEMENT(#99,#333);
#336=IFCAXIS2PLACEMENT3D(#337,#338,#339);
#337=IFCCARTESIANPOINT((0.,0.,0.));
#338=IFCDIRECTION((0.,-1.,0.));
#339=IFCDIRECTION((1.,0.,0.));
#340=IFCEXTRUDEDAREASOLID(#341,#336,#344,300.);
#341=IFCRECTANGLEPROFILEDEF(.AREA.,$,#342,1000.,1000.);
#342=IFCAXIS2PLACEMENT2D(#343,$);
#343=IFCCARTESIANPOINT((2500.,1500.));
#344=IFCDIRECTION((0.,0.,1.));
#345=IFCSHAPEREPRESENTATION(#8,'Body','SweptSolid',(#340));
#346=IFCPRODUCTDEFINITIONSHAPE($,$,(#345));
#347=IFCQUANTITYAREA('Area',$,$,1.,$);
#348=IFCQUANTITYLENGTH('Depth',$,$,300.,$);
#349=IFCELEMENTQUANTITY('000000001008000000001o',$,'Qto_OpeningElementBaseQuantities',$,$,(#347,#348));
#350=IFCRELDEFINESBYPROPERTIES('000000001008000000001p',$,$,$,(#331),#349);
#351=IFCOPENINGELEMENT('000000001008000000001q',$,'\X\D6ffnung Nische',$,$,#355,#366,$,.OPENING.);
#352=IFCRELVOIDSELEMENT('000000001008000000001r',$,$,$,#94,#351);
#353=IFCAXIS2PLACEMENT3D(#354,$,$);
#354=IFCCARTESIANPOINT((0.,0.,0.));
#355=IFCLOCALPLACEMENT(#99,#353);
#356=IFCAXIS2PLACEMENT3D(#357,#358,#359);
#357=IFCCARTESIANPOINT((0.,0.,0.));
#358=IFCDIRECTION((0.,-1.,0.));
#359=IFCDIRECTION((1.,0.,0.));
#360=IFCEXTRUDEDAREASOLID(#361,#356,#364,100.);
#361=IFCRECTANGLEPROFILEDEF(.AREA.,$,#362,1000.,1000.);
#362=IFCAXIS2PLACEMENT2D(#363,$);
#363=IFCCARTESIANPOINT((6500.,1000.));
#364=IFCDIRECTION((0.,0.,1.));
#365=IFCSHAPEREPRESENTATION(#8,'Body','SweptSolid',(#360));
#366=IFCPRODUCTDEFINITIONSHAPE($,$,(#365));
#367=IFCQUANTITYAREA('Area',$,$,1.,$);
#368=IFCQUANTITYLENGTH('Depth',$,$,100.,$);
#369=IFCELEMENTQUANTITY('000000001008000000001s',$,'Qto_OpeningElementBaseQuantities',$,$,(#367,#368));
#370=IFCRELDEFINESBYPROPERTIES('000000001008000000001t',$,$,$,(#351),#369);
#371=IFCOPENINGELEMENT('000000001008000000001u',$,'\X\D6ffnung Fenster Gaube',$,$,#375,$,$,.OPENING.);
#372=IFCRELVOIDSELEMENT('000000001008000000001v',$,$,$,#138,#371);
#373=IFCAXIS2PLACEMENT3D(#374,$,$);
#374=IFCCARTESIANPOINT((0.,0.,0.));
#375=IFCLOCALPLACEMENT(#143,#373);
#376=IFCWINDOW('0000000010080000000020',$,'Fenster Gaube',$,$,$,$,$,1200.,2000.,$,$,$);
#377=IFCRELFILLSELEMENT('0000000010080000000021',$,$,$,#371,#376);
#378=IFCQUANTITYAREA('Area',$,$,2.4,$);
#379=IFCELEMENTQUANTITY('0000000010080000000022',$,'Qto_WindowBaseQuantities',$,$,(#378));
#380=IFCRELDEFINESBYPROPERTIES('0000000010080000000023',$,$,$,(#376),#379);
#381=IFCPROPERTYSET('0000000010080000000024',$,'Pset_WindowCommon',$,(#382,#383));
#382=IFCPROPERTYSINGLEVALUE('IsExternal',$,IFCBOOLEAN(.T.),$);
#383=IFCPROPERTYSINGLEVALUE('ThermalTransmittance',$,IFCTHERMALTRANSMITTANCEMEASURE(1.1),$);
#384=IFCRELDEFINESBYPROPERTIES('0000000010080000000025',$,$,$,(#376),#381);
#385=IFCSLAB('0000000010080000000026',$,'Dachplatte',$,$,#388,#402,$,.ROOF.);
#386=IFCAXIS2PLACEMENT3D(#387,$,$);
#387=IFCCARTESIANPOINT((0.,0.,0.));
#388=IFCLOCALPLACEMENT(#25,#386);
#389=IFCPROPERTYSET('0000000010080000000027',$,'Pset_SlabCommon',$,(#390));
#390=IFCPROPERTYSINGLEVALUE('IsExternal',$,IFCBOOLEAN(.T.),$);
#391=IFCRELDEFINESBYPROPERTIES('0000000010080000000028',$,$,$,(#385),#389);
#392=IFCAXIS2PLACEMENT3D(#393,#394,#395);
#393=IFCCARTESIANPOINT((0.,0.,2500.));
#394=IFCDIRECTION((0.,-0.6,0.8));
#395=IFCDIRECTION((1.,0.,0.));
#396=IFCEXTRUDEDAREASOLID(#397,#392,#400,200.);
#397=IFCRECTANGLEPROFILEDEF(.AREA.,$,#398,10000.,10000.);
#398=IFCAXIS2PLACEMENT2D(#399,$);
#399=IFCCARTESIANPOINT((5000.,5000.));
#400=IFCDIRECTION((0.,0.,1.));
#401=IFCSHAPEREPRESENTATION(#8,'Body','SweptSolid',(#396));
#402=IFCPRODUCTDEFINITIONSHAPE($,$,(#401));
#403=IFCQUANTITYAREA('GrossArea',$,$,100.,$);
#404=IFCQUANTITYAREA('NetArea',$,$,98.8,$);
#405=IFCELEMENTQUANTITY('0000000010080000000029',$,'Qto_SlabBaseQuantities',$,$,(#403,#404));
#406=IFCRELDEFINESBYPROPERTIES('000000001008000000002G',$,$,$,(#385),#405);
#407=IFCROOF('000000001008000000002H',$,'Dach',$,$,#410,$,$,.SHED_ROOF.);
#408=IFCAXIS2PLACEMENT3D(#409,$,$);
#409=IFCCARTESIANPOINT((0.,0.,0.));
#410=IFCLOCALPLACEMENT(#25,#408);
#411=IFCPROPERTYSET('000000001008000000002I',$,'Pset_RoofCommon',$,(#412));
#412=IFCPROPERTYSINGLEVALUE('IsExternal',$,IFCBOOLEAN(.T.),$);
#413=IFCRELDEFINESBYPROPERTIES('000000001008000000002J',$,$,$,(#407),#411);
#414=IFCRELAGGREGATES('000000001008000000002K',$,$,$,#407,(#385));
#415=IFCOPENINGELEMENT('000000001008000000002L',$,'\X\D6ffnung Dachfenster',$,$,#419,#430,$,.OPENING.);
#416=IFCRELVOIDSELEMENT('000000001008000000002M',$,$,$,#385,#415);
#417=IFCAXIS2PLACEMENT3D(#418,$,$);
#418=IFCCARTESIANPOINT((0.,0.,0.));
#419=IFCLOCALPLACEMENT(#388,#417);
#420=IFCAXIS2PLACEMENT3D(#421,#422,#423);
#421=IFCCARTESIANPOINT((0.,0.,2500.));
#422=IFCDIRECTION((0.,-0.6,0.8));
#423=IFCDIRECTION((1.,0.,0.));
#424=IFCEXTRUDEDAREASOLID(#425,#420,#428,200.);
#425=IFCRECTANGLEPROFILEDEF(.AREA.,$,#426,1000.,1200.);
#426=IFCAXIS2PLACEMENT2D(#427,$);
#427=IFCCARTESIANPOINT((5000.,5000.));
#428=IFCDIRECTION((0.,0.,1.));
#429=IFCSHAPEREPRESENTATION(#8,'Body','SweptSolid',(#424));
#430=IFCPRODUCTDEFINITIONSHAPE($,$,(#429));
#431=IFCWINDOW('000000001008000000002N',$,'Dachfenster',$,$,$,$,$,$,$,$,$,$);
#432=IFCRELFILLSELEMENT('000000001008000000002O',$,$,$,#415,#431);
#433=IFCQUANTITYAREA('Area',$,$,1.2,$);
#434=IFCELEMENTQUANTITY('000000001008000000002P',$,'Qto_WindowBaseQuantities',$,$,(#433));
#435=IFCRELDEFINESBYPROPERTIES('0000000010080000000040',$,$,$,(#431),#434);
#436=IFCPROPERTYSET('0000000010080000000041',$,'Pset_WindowCommon',$,(#437,#438));
#437=IFCPROPERTYSINGLEVALUE('IsExternal',$,IFCBOOLEAN(.T.),$);
#438=IFCPROPERTYSINGLEVALUE('ThermalTransmittance',$,IFCTHERMALTRANSMITTANCEMEASURE(1.1),$);
#439=IFCRELDEFINESBYPROPERTIES('0000000010080000000042',$,$,$,(#431),#436);
ENDSEC;
END-ISO-10303-21;
