ISO-10303-21;
HEADER;
FILE_DESCRIPTION (('ViewDefinition [ReferenceView]'), '2;1');
FILE_NAME ('ifc4_z6_sollwerte.ifc', '2026-09-25T00:00:00', (''), (''), 'EPOS-Plan Importprobe (EPOS.Kern.Tests)', 'EPOS-Plan Importprobe, selbst erzeugt', '');
FILE_SCHEMA (('IFC4'));
ENDSEC;
DATA;
#1=IFCPROJECT('0000000010080000000001',$,'Importprobe',$,$,$,$,(#8),#2);
#2=IFCUNITASSIGNMENT((#3,#4,#5,#6,#7));
#3=IFCSIUNIT(*,.LENGTHUNIT.,.MILLI.,.METRE.);
#4=IFCSIUNIT(*,.AREAUNIT.,$,.SQUARE_METRE.);
#5=IFCSIUNIT(*,.VOLUMEUNIT.,$,.CUBIC_METRE.);
#6=IFCSIUNIT(*,.PLANEANGLEUNIT.,$,.RADIAN.);
#7=IFCSIUNIT(*,.THERMODYNAMICTEMPERATUREUNIT.,$,.DEGREE_CELSIUS.);
#8=IFCGEOMETRICREPRESENTATIONCONTEXT($,'Model',3,1.E-05,#9,#11);
#9=IFCAXIS2PLACEMENT3D(#10,$,$);
#10=IFCCARTESIANPOINT((0.,0.,0.));
#11=IFCDIRECTION((0.,1.,0.));
#12=IFCSITE('0000000010080000000002',$,'Grundst\X\FCck',$,$,#15,$,$,.ELEMENT.,$,$,$,$,$);
#13=IFCAXIS2PLACEMENT3D(#14,$,$);
#14=IFCCARTESIANPOINT((0.,0.,0.));
#15=IFCLOCALPLACEMENT($,#13);
#16=IFCRELAGGREGATES('0000000010080000000003',$,$,$,#1,(#12));
#17=IFCBUILDING('0000000010080000000004',$,'Zonenprobe',$,$,#20,$,$,.ELEMENT.,$,$,$);
#18=IFCAXIS2PLACEMENT3D(#19,$,$);
#19=IFCCARTESIANPOINT((0.,0.,0.));
#20=IFCLOCALPLACEMENT(#15,#18);
#21=IFCRELAGGREGATES('0000000010080000000005',$,$,$,#12,(#17));
#22=IFCBUILDINGSTOREY('0000000010080000000006',$,'EG',$,$,#25,$,$,.ELEMENT.,0.);
#23=IFCAXIS2PLACEMENT3D(#24,$,$);
#24=IFCCARTESIANPOINT((0.,0.,0.));
#25=IFCLOCALPLACEMENT(#20,#23);
#26=IFCRELAGGREGATES('0000000010080000000007',$,$,$,#17,(#22,#27));
#27=IFCBUILDINGSTOREY('0000000010080000000008',$,'OG',$,$,#30,$,$,.ELEMENT.,3000.);
#28=IFCAXIS2PLACEMENT3D(#29,$,$);
#29=IFCCARTESIANPOINT((0.,0.,3000.));
#30=IFCLOCALPLACEMENT(#20,#28);
#31=IFCSPACE('0000000010080000000009',$,'1',$,$,#34,$,'B\X\FCro 1',.ELEMENT.,$,$);
#32=IFCAXIS2PLACEMENT3D(#33,$,$);
#33=IFCCARTESIANPOINT((0.,0.,0.));
#34=IFCLOCALPLACEMENT(#25,#32);
#35=IFCRELAGGREGATES('000000001008000000000G',$,$,$,#22,(#31,#47,#62,#77,#92));
#36=IFCQUANTITYAREA('NetFloorArea',$,$,30.,$);
#37=IFCQUANTITYLENGTH('Height',$,$,2500.,$);
#38=IFCQUANTITYVOLUME('NetVolume',$,$,75.,$);
#39=IFCELEMENTQUANTITY('000000001008000000000H',$,'BaseQuantities',$,$,(#36,#37,#38));
#40=IFCRELDEFINESBYPROPERTIES('000000001008000000000I',$,$,$,(#31),#39);
#41=IFCPROPERTYSET('000000001008000000000J',$,'Pset_SpaceCommon',$,(#42));
#42=IFCPROPERTYSINGLEVALUE('IsExternal',$,IFCBOOLEAN(.F.),$);
#43=IFCRELDEFINESBYPROPERTIES('000000001008000000000K',$,$,$,(#31),#41);
#44=IFCPROPERTYSET('000000001008000000000L',$,'Pset_SpaceThermalRequirements',$,(#45));
#45=IFCPROPERTYSINGLEVALUE('SpaceTemperature',$,IFCTHERMODYNAMICTEMPERATUREMEASURE(20.),$);
#46=IFCRELDEFINESBYPROPERTIES('000000001008000000000M',$,$,$,(#31),#44);
#47=IFCSPACE('000000001008000000000N',$,'2',$,$,#50,$,'B\X\FCro 2',.ELEMENT.,$,$);
#48=IFCAXIS2PLACEMENT3D(#49,$,$);
#49=IFCCARTESIANPOINT((1000.,0.,0.));
#50=IFCLOCALPLACEMENT(#25,#48);
#51=IFCQUANTITYAREA('NetFloorArea',$,$,25.,$);
#52=IFCQUANTITYLENGTH('Height',$,$,2500.,$);
#53=IFCQUANTITYVOLUME('NetVolume',$,$,62.5,$);
#54=IFCELEMENTQUANTITY('000000001008000000000O',$,'BaseQuantities',$,$,(#51,#52,#53));
#55=IFCRELDEFINESBYPROPERTIES('000000001008000000000P',$,$,$,(#47),#54);
#56=IFCPROPERTYSET('000000001008000000000W',$,'Pset_SpaceCommon',$,(#57));
#57=IFCPROPERTYSINGLEVALUE('IsExternal',$,IFCBOOLEAN(.F.),$);
#58=IFCRELDEFINESBYPROPERTIES('000000001008000000000X',$,$,$,(#47),#56);
#59=IFCPROPERTYSET('000000001008000000000Y',$,'Pset_SpaceThermalRequirements',$,(#60));
#60=IFCPROPERTYSINGLEVALUE('SpaceTemperature',$,IFCTHERMODYNAMICTEMPERATUREMEASURE(20.4),$);
#61=IFCRELDEFINESBYPROPERTIES('000000001008000000000Z',$,$,$,(#47),#59);
#62=IFCSPACE('000000001008000000000a',$,'3',$,$,#65,$,'Flur',.ELEMENT.,$,$);
#63=IFCAXIS2PLACEMENT3D(#64,$,$);
#64=IFCCARTESIANPOINT((2000.,0.,0.));
#65=IFCLOCALPLACEMENT(#25,#63);
#66=IFCQUANTITYAREA('NetFloorArea',$,$,15.,$);
#67=IFCQUANTITYLENGTH('Height',$,$,2500.,$);
#68=IFCQUANTITYVOLUME('NetVolume',$,$,37.5,$);
#69=IFCELEMENTQUANTITY('000000001008000000000b',$,'BaseQuantities',$,$,(#66,#67,#68));
#70=IFCRELDEFINESBYPROPERTIES('000000001008000000000c',$,$,$,(#62),#69);
#71=IFCPROPERTYSET('000000001008000000000d',$,'Pset_SpaceCommon',$,(#72));
#72=IFCPROPERTYSINGLEVALUE('IsExternal',$,IFCBOOLEAN(.F.),$);
#73=IFCRELDEFINESBYPROPERTIES('000000001008000000000e',$,$,$,(#62),#71);
#74=IFCPROPERTYSET('000000001008000000000f',$,'Pset_SpaceThermalRequirements',$,(#75));
#75=IFCPROPERTYSINGLEVALUE('SpaceTemperature',$,IFCTHERMODYNAMICTEMPERATUREMEASURE(15.),$);
#76=IFCRELDEFINESBYPROPERTIES('000000001008000000000m',$,$,$,(#62),#74);
#77=IFCSPACE('000000001008000000000n',$,'4',$,$,#80,$,'WC',.ELEMENT.,$,$);
#78=IFCAXIS2PLACEMENT3D(#79,$,$);
#79=IFCCARTESIANPOINT((3000.,0.,0.));
#80=IFCLOCALPLACEMENT(#25,#78);
#81=IFCQUANTITYAREA('NetFloorArea',$,$,2.5,$);
#82=IFCQUANTITYLENGTH('Height',$,$,2500.,$);
#83=IFCQUANTITYVOLUME('NetVolume',$,$,6.25,$);
#84=IFCELEMENTQUANTITY('000000001008000000000o',$,'BaseQuantities',$,$,(#81,#82,#83));
#85=IFCRELDEFINESBYPROPERTIES('000000001008000000000p',$,$,$,(#77),#84);
#86=IFCPROPERTYSET('000000001008000000000q',$,'Pset_SpaceCommon',$,(#87));
#87=IFCPROPERTYSINGLEVALUE('IsExternal',$,IFCBOOLEAN(.F.),$);
#88=IFCRELDEFINESBYPROPERTIES('000000001008000000000r',$,$,$,(#77),#86);
#89=IFCPROPERTYSET('000000001008000000000s',$,'Pset_SpaceThermalRequirements',$,(#90));
#90=IFCPROPERTYSINGLEVALUE('SpaceTemperature',$,IFCTHERMODYNAMICTEMPERATUREMEASURE(24.),$);
#91=IFCRELDEFINESBYPROPERTIES('000000001008000000000t',$,$,$,(#77),#89);
#92=IFCSPACE('000000001008000000000u',$,'5',$,$,#95,$,'Lager 1',.ELEMENT.,$,$);
#93=IFCAXIS2PLACEMENT3D(#94,$,$);
#94=IFCCARTESIANPOINT((4000.,0.,0.));
#95=IFCLOCALPLACEMENT(#25,#93);
#96=IFCQUANTITYAREA('NetFloorArea',$,$,20.,$);
#97=IFCQUANTITYLENGTH('Height',$,$,2500.,$);
#98=IFCQUANTITYVOLUME('NetVolume',$,$,50.,$);
#99=IFCELEMENTQUANTITY('000000001008000000000v',$,'BaseQuantities',$,$,(#96,#97,#98));
#100=IFCRELDEFINESBYPROPERTIES('0000000010080000000010',$,$,$,(#92),#99);
#101=IFCPROPERTYSET('0000000010080000000011',$,'Pset_SpaceCommon',$,(#102));
#102=IFCPROPERTYSINGLEVALUE('IsExternal',$,IFCBOOLEAN(.F.),$);
#103=IFCRELDEFINESBYPROPERTIES('0000000010080000000012',$,$,$,(#92),#101);
#104=IFCPROPERTYSET('0000000010080000000013',$,'Pset_SpaceThermalRequirements',$,(#105));
#105=IFCPROPERTYSINGLEVALUE('SpaceTemperature',$,IFCTHERMODYNAMICTEMPERATUREMEASURE(15.),$);
#106=IFCRELDEFINESBYPROPERTIES('0000000010080000000014',$,$,$,(#92),#104);
#107=IFCSPACE('0000000010080000000015',$,'6',$,$,#110,$,'Besprechung',.ELEMENT.,$,$);
#108=IFCAXIS2PLACEMENT3D(#109,$,$);
#109=IFCCARTESIANPOINT((5000.,0.,0.));
#110=IFCLOCALPLACEMENT(#30,#108);
#111=IFCRELAGGREGATES('0000000010080000000016',$,$,$,#27,(#107,#123,#135));
#112=IFCQUANTITYAREA('NetFloorArea',$,$,20.,$);
#113=IFCQUANTITYLENGTH('Height',$,$,2500.,$);
#114=IFCQUANTITYVOLUME('NetVolume',$,$,50.,$);
#115=IFCELEMENTQUANTITY('0000000010080000000017',$,'BaseQuantities',$,$,(#112,#113,#114));
#116=IFCRELDEFINESBYPROPERTIES('0000000010080000000018',$,$,$,(#107),#115);
#117=IFCPROPERTYSET('0000000010080000000019',$,'Pset_SpaceCommon',$,(#118));
#118=IFCPROPERTYSINGLEVALUE('IsExternal',$,IFCBOOLEAN(.F.),$);
#119=IFCRELDEFINESBYPROPERTIES('000000001008000000001G',$,$,$,(#107),#117);
#120=IFCPROPERTYSET('000000001008000000001H',$,'Pset_SpaceThermalRequirements',$,(#121));
#121=IFCPROPERTYSINGLEVALUE('SpaceTemperature',$,IFCTHERMODYNAMICTEMPERATUREMEASURE(19.6),$);
#122=IFCRELDEFINESBYPROPERTIES('000000001008000000001I',$,$,$,(#107),#120);
#123=IFCSPACE('000000001008000000001J',$,'7',$,$,#126,$,'Lager 2',.ELEMENT.,$,$);
#124=IFCAXIS2PLACEMENT3D(#125,$,$);
#125=IFCCARTESIANPOINT((6000.,0.,0.));
#126=IFCLOCALPLACEMENT(#30,#124);
#127=IFCQUANTITYAREA('NetFloorArea',$,$,10.,$);
#128=IFCQUANTITYLENGTH('Height',$,$,2500.,$);
#129=IFCQUANTITYVOLUME('NetVolume',$,$,25.,$);
#130=IFCELEMENTQUANTITY('000000001008000000001K',$,'BaseQuantities',$,$,(#127,#128,#129));
#131=IFCRELDEFINESBYPROPERTIES('000000001008000000001L',$,$,$,(#123),#130);
#132=IFCPROPERTYSET('000000001008000000001M',$,'Pset_SpaceCommon',$,(#133));
#133=IFCPROPERTYSINGLEVALUE('IsExternal',$,IFCBOOLEAN(.F.),$);
#134=IFCRELDEFINESBYPROPERTIES('000000001008000000001N',$,$,$,(#123),#132);
#135=IFCSPACE('000000001008000000001O',$,'8',$,$,#138,$,'Archiv',.ELEMENT.,$,$);
#136=IFCAXIS2PLACEMENT3D(#137,$,$);
#137=IFCCARTESIANPOINT((7000.,0.,0.));
#138=IFCLOCALPLACEMENT(#30,#136);
#139=IFCQUANTITYAREA('NetFloorArea',$,$,12.,$);
#140=IFCQUANTITYLENGTH('Height',$,$,2500.,$);
#141=IFCQUANTITYVOLUME('NetVolume',$,$,30.,$);
#142=IFCELEMENTQUANTITY('000000001008000000001P',$,'BaseQuantities',$,$,(#139,#140,#141));
#143=IFCRELDEFINESBYPROPERTIES('000000001008000000001W',$,$,$,(#135),#142);
#144=IFCPROPERTYSET('000000001008000000001X',$,'Pset_SpaceCommon',$,(#145));
#145=IFCPROPERTYSINGLEVALUE('IsExternal',$,IFCBOOLEAN(.F.),$);
#146=IFCRELDEFINESBYPROPERTIES('000000001008000000001Y',$,$,$,(#135),#144);
ENDSEC;
END-ISO-10303-21;
