ISO-10303-21;
HEADER;
FILE_DESCRIPTION (('ViewDefinition [ReferenceView]'), '2;1');
FILE_NAME ('ifc4_koerper_grundriss_stufe.ifc', '2026-09-25T00:00:00', (''), (''), 'EPOS-Plan Importprobe (EPOS.Kern.Tests)', 'EPOS-Plan Importprobe, selbst erzeugt', '');
FILE_SCHEMA (('IFC4'));
ENDSEC;
DATA;
#1=IFCPROJECT('0000000010080000000001',$,'Importprobe',$,$,$,$,(#8),#2);
#2=IFCUNITASSIGNMENT((#3,#4,#5,#6,#7));
#3=IFCSIUNIT(*,.LENGTHUNIT.,.MILLI.,.METRE.);
#4=IFCSIUNIT(*,.AREAUNIT.,$,.SQUARE_METRE.);
#5=IFCSIUNIT(*,.VOLUMEUNIT.,$,.CUBIC_METRE.);
#6=IFCSIUNIT(*,.PLANEANGLEUNIT.,$,.RADIAN.);
#7=IFCSIUNIT(*,.THERMODYNAMICTEMPERATUREUNIT.,$,.DEGREE_CELSIUS.);
#8=IFCGEOMETRICREPRESENTATIONCONTEXT($,'Model',3,1.E-05,#9,$);
#9=IFCAXIS2PLACEMENT3D(#10,$,$);
#10=IFCCARTESIANPOINT((0.,0.,0.));
#11=IFCSITE('0000000010080000000002',$,'Grundst\X\FCck',$,$,#14,$,$,.ELEMENT.,$,$,$,$,$);
#12=IFCAXIS2PLACEMENT3D(#13,$,$);
#13=IFCCARTESIANPOINT((0.,0.,0.));
#14=IFCLOCALPLACEMENT($,#12);
#15=IFCRELAGGREGATES('0000000010080000000003',$,$,$,#1,(#11));
#16=IFCBUILDING('0000000010080000000004',$,'Probengeb\X\E4ude',$,$,#19,$,$,.ELEMENT.,$,$,$);
#17=IFCAXIS2PLACEMENT3D(#18,$,$);
#18=IFCCARTESIANPOINT((0.,0.,0.));
#19=IFCLOCALPLACEMENT(#14,#17);
#20=IFCRELAGGREGATES('0000000010080000000005',$,$,$,#11,(#16));
#21=IFCBUILDINGSTOREY('0000000010080000000006',$,'Erdgeschoss',$,$,#24,$,$,.ELEMENT.,0.);
#22=IFCAXIS2PLACEMENT3D(#23,$,$);
#23=IFCCARTESIANPOINT((0.,0.,0.));
#24=IFCLOCALPLACEMENT(#19,#22);
#25=IFCRELAGGREGATES('0000000010080000000007',$,$,$,#16,(#21));
#26=IFCSPACE('0000000010080000000008',$,'0.01',$,$,#29,#129,'Raum',.ELEMENT.,$,$);
#27=IFCAXIS2PLACEMENT3D(#28,$,$);
#28=IFCCARTESIANPOINT((1000.,2000.,0.));
#29=IFCLOCALPLACEMENT(#24,#27);
#30=IFCRELAGGREGATES('0000000010080000000009',$,$,$,#21,(#26));
#31=IFCQUANTITYAREA('NetFloorArea',$,$,15.,$);
#32=IFCQUANTITYLENGTH('Height',$,$,3000.,$);
#33=IFCQUANTITYVOLUME('NetVolume',$,$,45.,$);
#34=IFCELEMENTQUANTITY('000000001008000000000G',$,'BaseQuantities',$,$,(#31,#32,#33));
#35=IFCRELDEFINESBYPROPERTIES('000000001008000000000H',$,$,$,(#26),#34);
#36=IFCPROPERTYSET('000000001008000000000I',$,'Pset_SpaceCommon',$,(#37));
#37=IFCPROPERTYSINGLEVALUE('IsExternal',$,IFCBOOLEAN(.F.),$);
#38=IFCRELDEFINESBYPROPERTIES('000000001008000000000J',$,$,$,(#26),#36);
#39=IFCPROPERTYBOUNDEDVALUE('SpaceTemperature',$,IFCTHERMODYNAMICTEMPERATUREMEASURE(26.),IFCTHERMODYNAMICTEMPERATUREMEASURE(18.),$,IFCTHERMODYNAMICTEMPERATUREMEASURE(20.));
#40=IFCPROPERTYSET('000000001008000000000K',$,'Pset_SpaceThermalRequirements',$,(#39));
#41=IFCRELDEFINESBYPROPERTIES('000000001008000000000L',$,$,$,(#26),#40);
#42=IFCCLOSEDSHELL((#49,#56,#63,#70,#77,#84,#91,#98,#105,#112,#119,#126));
#43=IFCPOLYLOOP((#44,#45,#46,#47));
#44=IFCCARTESIANPOINT((0.,0.,0.));
#45=IFCCARTESIANPOINT((0.,3000.,0.));
#46=IFCCARTESIANPOINT((4000.,3000.,0.));
#47=IFCCARTESIANPOINT((4000.,0.,0.));
#48=IFCFACEOUTERBOUND(#43,.T.);
#49=IFCFACE((#48));
#50=IFCPOLYLOOP((#51,#52,#53,#54));
#51=IFCCARTESIANPOINT((0.,3000.,300.));
#52=IFCCARTESIANPOINT((0.,6000.,300.));
#53=IFCCARTESIANPOINT((2000.,6000.,300.));
#54=IFCCARTESIANPOINT((2000.,3000.,300.));
#55=IFCFACEOUTERBOUND(#50,.T.);
#56=IFCFACE((#55));
#57=IFCPOLYLOOP((#58,#59,#60,#61));
#58=IFCCARTESIANPOINT((0.,3000.,0.));
#59=IFCCARTESIANPOINT((0.,3000.,300.));
#60=IFCCARTESIANPOINT((2000.,3000.,300.));
#61=IFCCARTESIANPOINT((2000.,3000.,0.));
#62=IFCFACEOUTERBOUND(#57,.T.);
#63=IFCFACE((#62));
#64=IFCPOLYLOOP((#65,#66,#67,#68));
#65=IFCCARTESIANPOINT((0.,0.,3000.));
#66=IFCCARTESIANPOINT((4000.,0.,3000.));
#67=IFCCARTESIANPOINT((4000.,3000.,3000.));
#68=IFCCARTESIANPOINT((0.,3000.,3000.));
#69=IFCFACEOUTERBOUND(#64,.T.);
#70=IFCFACE((#69));
#71=IFCPOLYLOOP((#72,#73,#74,#75));
#72=IFCCARTESIANPOINT((0.,3000.,3000.));
#73=IFCCARTESIANPOINT((2000.,3000.,3000.));
#74=IFCCARTESIANPOINT((2000.,6000.,3000.));
#75=IFCCARTESIANPOINT((0.,6000.,3000.));
#76=IFCFACEOUTERBOUND(#71,.T.);
#77=IFCFACE((#76));
#78=IFCPOLYLOOP((#79,#80,#81,#82));
#79=IFCCARTESIANPOINT((0.,0.,0.));
#80=IFCCARTESIANPOINT((4000.,0.,0.));
#81=IFCCARTESIANPOINT((4000.,0.,3000.));
#82=IFCCARTESIANPOINT((0.,0.,3000.));
#83=IFCFACEOUTERBOUND(#78,.T.);
#84=IFCFACE((#83));
#85=IFCPOLYLOOP((#86,#87,#88,#89));
#86=IFCCARTESIANPOINT((4000.,0.,0.));
#87=IFCCARTESIANPOINT((4000.,3000.,0.));
#88=IFCCARTESIANPOINT((4000.,3000.,3000.));
#89=IFCCARTESIANPOINT((4000.,0.,3000.));
#90=IFCFACEOUTERBOUND(#85,.T.);
#91=IFCFACE((#90));
#92=IFCPOLYLOOP((#93,#94,#95,#96));
#93=IFCCARTESIANPOINT((4000.,3000.,0.));
#94=IFCCARTESIANPOINT((2000.,3000.,0.));
#95=IFCCARTESIANPOINT((2000.,3000.,3000.));
#96=IFCCARTESIANPOINT((4000.,3000.,3000.));
#97=IFCFACEOUTERBOUND(#92,.T.);
#98=IFCFACE((#97));
#99=IFCPOLYLOOP((#100,#101,#102,#103));
#100=IFCCARTESIANPOINT((2000.,3000.,300.));
#101=IFCCARTESIANPOINT((2000.,6000.,300.));
#102=IFCCARTESIANPOINT((2000.,6000.,3000.));
#103=IFCCARTESIANPOINT((2000.,3000.,3000.));
#104=IFCFACEOUTERBOUND(#99,.T.);
#105=IFCFACE((#104));
#106=IFCPOLYLOOP((#107,#108,#109,#110));
#107=IFCCARTESIANPOINT((2000.,6000.,300.));
#108=IFCCARTESIANPOINT((0.,6000.,300.));
#109=IFCCARTESIANPOINT((0.,6000.,3000.));
#110=IFCCARTESIANPOINT((2000.,6000.,3000.));
#111=IFCFACEOUTERBOUND(#106,.T.);
#112=IFCFACE((#111));
#113=IFCPOLYLOOP((#114,#115,#116,#117));
#114=IFCCARTESIANPOINT((0.,3000.,0.));
#115=IFCCARTESIANPOINT((0.,0.,0.));
#116=IFCCARTESIANPOINT((0.,0.,3000.));
#117=IFCCARTESIANPOINT((0.,3000.,3000.));
#118=IFCFACEOUTERBOUND(#113,.T.);
#119=IFCFACE((#118));
#120=IFCPOLYLOOP((#121,#122,#123,#124));
#121=IFCCARTESIANPOINT((0.,6000.,300.));
#122=IFCCARTESIANPOINT((0.,3000.,300.));
#123=IFCCARTESIANPOINT((0.,3000.,3000.));
#124=IFCCARTESIANPOINT((0.,6000.,3000.));
#125=IFCFACEOUTERBOUND(#120,.T.);
#126=IFCFACE((#125));
#127=IFCFACETEDBREP(#42);
#128=IFCSHAPEREPRESENTATION(#8,'Body','Brep',(#127));
#129=IFCPRODUCTDEFINITIONSHAPE($,$,(#128));
ENDSEC;
END-ISO-10303-21;
