ISO-10303-21;
HEADER;
FILE_DESCRIPTION (('ViewDefinition [ReferenceView]'), '2;1');
FILE_NAME ('ifc4_zonen.ifc', '2026-09-25T00:00:00', (''), (''), 'EPOS-Plan Importprobe (EPOS.Kern.Tests)', 'EPOS-Plan Importprobe, selbst erzeugt', '');
FILE_SCHEMA (('IFC4'));
ENDSEC;
DATA;
#1=IFCPROJECT('0000000010080000000001',$,'Importprobe',$,$,$,$,(#8),#2);
#2=IFCUNITASSIGNMENT((#3,#4,#5,#6,#7));
#3=IFCSIUNIT(*,.LENGTHUNIT.,.MILLI.,.METRE.);
#4=IFCSIUNIT(*,.AREAUNIT.,$,.SQUARE_METRE.);
#5=IFCSIUNIT(*,.VOLUMEUNIT.,$,.CUBIC_METRE.);
#6=IFCSIUNIT(*,.PLANEANGLEUNIT.,$,.RADIAN.);
#7=IFCSIUNIT(*,.THERMODYNAMICTEMPERATUREUNIT.,$,.DEGREE_CELSIUS.);
#8=IFCGEOMETRICREPRESENTATIONCONTEXT($,'Model',3,1.E-05,#9,#11);
#9=IFCAXIS2PLACEMENT3D(#10,$,$);
#10=IFCCARTESIANPOINT((0.,0.,0.));
#11=IFCDIRECTION((0.,1.,0.));
#12=IFCSITE('0000000010080000000002',$,'Grundst\X\FCck',$,$,#15,$,$,.ELEMENT.,$,$,$,$,$);
#13=IFCAXIS2PLACEMENT3D(#14,$,$);
#14=IFCCARTESIANPOINT((0.,0.,0.));
#15=IFCLOCALPLACEMENT($,#13);
#16=IFCRELAGGREGATES('0000000010080000000003',$,$,$,#1,(#12));
#17=IFCBUILDING('0000000010080000000004',$,'Zonenhaus',$,$,#20,$,$,.ELEMENT.,$,$,$);
#18=IFCAXIS2PLACEMENT3D(#19,$,$);
#19=IFCCARTESIANPOINT((0.,0.,0.));
#20=IFCLOCALPLACEMENT(#15,#18);
#21=IFCRELAGGREGATES('0000000010080000000005',$,$,$,#12,(#17));
#22=IFCPROPERTYSET('0000000010080000000006',$,'Pset_BuildingCommon',$,(#23));
#23=IFCPROPERTYSINGLEVALUE('YearOfConstruction',$,IFCLABEL('2010'),$);
#24=IFCRELDEFINESBYPROPERTIES('0000000010080000000007',$,$,$,(#17),#22);
#25=IFCBUILDINGSTOREY('0000000010080000000008',$,'Kellergeschoss',$,$,#28,$,$,.ELEMENT.,-3000.);
#26=IFCAXIS2PLACEMENT3D(#27,$,$);
#27=IFCCARTESIANPOINT((0.,0.,-3000.));
#28=IFCLOCALPLACEMENT(#20,#26);
#29=IFCRELAGGREGATES('0000000010080000000009',$,$,$,#17,(#25,#30,#34));
#30=IFCBUILDINGSTOREY('000000001008000000000G',$,'Erdgeschoss',$,$,#33,$,$,.ELEMENT.,0.);
#31=IFCAXIS2PLACEMENT3D(#32,$,$);
#32=IFCCARTESIANPOINT((0.,0.,0.));
#33=IFCLOCALPLACEMENT(#20,#31);
#34=IFCBUILDINGSTOREY('000000001008000000000H',$,'Obergeschoss',$,$,#37,$,$,.ELEMENT.,3000.);
#35=IFCAXIS2PLACEMENT3D(#36,$,$);
#36=IFCCARTESIANPOINT((0.,0.,3000.));
#37=IFCLOCALPLACEMENT(#20,#35);
#38=IFCSPACE('000000001008000000000I',$,'K.01',$,$,#41,$,'Lager',.ELEMENT.,$,$);
#39=IFCAXIS2PLACEMENT3D(#40,$,$);
#40=IFCCARTESIANPOINT((100.,100.,0.));
#41=IFCLOCALPLACEMENT(#28,#39);
#42=IFCRELAGGREGATES('000000001008000000000J',$,$,$,#25,(#38));
#43=IFCQUANTITYAREA('NetFloorArea',$,$,80.,$);
#44=IFCQUANTITYLENGTH('Height',$,$,2600.,$);
#45=IFCQUANTITYVOLUME('NetVolume',$,$,208.,$);
#46=IFCELEMENTQUANTITY('000000001008000000000K',$,'BaseQuantities',$,$,(#43,#44,#45));
#47=IFCRELDEFINESBYPROPERTIES('000000001008000000000L',$,$,$,(#38),#46);
#48=IFCPROPERTYSET('000000001008000000000M',$,'Pset_SpaceCommon',$,(#49));
#49=IFCPROPERTYSINGLEVALUE('IsExternal',$,IFCBOOLEAN(.F.),$);
#50=IFCRELDEFINESBYPROPERTIES('000000001008000000000N',$,$,$,(#38),#48);
#51=IFCSPACE('000000001008000000000O',$,'0.01',$,$,#54,$,'Wohnen',.ELEMENT.,$,$);
#52=IFCAXIS2PLACEMENT3D(#53,$,$);
#53=IFCCARTESIANPOINT((100.,100.,0.));
#54=IFCLOCALPLACEMENT(#33,#52);
#55=IFCRELAGGREGATES('000000001008000000000P',$,$,$,#30,(#51,#67));
#56=IFCQUANTITYAREA('NetFloorArea',$,$,48.,$);
#57=IFCQUANTITYLENGTH('Height',$,$,2800.,$);
#58=IFCQUANTITYVOLUME('NetVolume',$,$,134.4,$);
#59=IFCELEMENTQUANTITY('000000001008000000000W',$,'BaseQuantities',$,$,(#56,#57,#58));
#60=IFCRELDEFINESBYPROPERTIES('000000001008000000000X',$,$,$,(#51),#59);
#61=IFCPROPERTYSET('000000001008000000000Y',$,'Pset_SpaceCommon',$,(#62));
#62=IFCPROPERTYSINGLEVALUE('IsExternal',$,IFCBOOLEAN(.F.),$);
#63=IFCRELDEFINESBYPROPERTIES('000000001008000000000Z',$,$,$,(#51),#61);
#64=IFCPROPERTYBOUNDEDVALUE('SpaceTemperature',$,IFCTHERMODYNAMICTEMPERATUREMEASURE(26.),IFCTHERMODYNAMICTEMPERATUREMEASURE(18.),$,IFCTHERMODYNAMICTEMPERATUREMEASURE(20.));
#65=IFCPROPERTYSET('000000001008000000000a',$,'Pset_SpaceThermalRequirements',$,(#64));
#66=IFCRELDEFINESBYPROPERTIES('000000001008000000000b',$,$,$,(#51),#65);
#67=IFCSPACE('000000001008000000000c',$,'0.02',$,$,#70,$,'K\X\FCche',.ELEMENT.,$,$);
#68=IFCAXIS2PLACEMENT3D(#69,$,$);
#69=IFCCARTESIANPOINT((6100.,100.,0.));
#70=IFCLOCALPLACEMENT(#33,#68);
#71=IFCQUANTITYAREA('NetFloorArea',$,$,32.,$);
#72=IFCQUANTITYLENGTH('Height',$,$,2800.,$);
#73=IFCQUANTITYVOLUME('NetVolume',$,$,89.6,$);
#74=IFCELEMENTQUANTITY('000000001008000000000d',$,'BaseQuantities',$,$,(#71,#72,#73));
#75=IFCRELDEFINESBYPROPERTIES('000000001008000000000e',$,$,$,(#67),#74);
#76=IFCPROPERTYSET('000000001008000000000f',$,'Pset_SpaceCommon',$,(#77));
#77=IFCPROPERTYSINGLEVALUE('IsExternal',$,IFCBOOLEAN(.F.),$);
#78=IFCRELDEFINESBYPROPERTIES('000000001008000000000m',$,$,$,(#67),#76);
#79=IFCPROPERTYBOUNDEDVALUE('SpaceTemperature',$,IFCTHERMODYNAMICTEMPERATUREMEASURE(26.),IFCTHERMODYNAMICTEMPERATUREMEASURE(18.),$,IFCTHERMODYNAMICTEMPERATUREMEASURE(20.));
#80=IFCPROPERTYSET('000000001008000000000n',$,'Pset_SpaceThermalRequirements',$,(#79));
#81=IFCRELDEFINESBYPROPERTIES('000000001008000000000o',$,$,$,(#67),#80);
#82=IFCSPACE('000000001008000000000p',$,'1.01',$,$,#85,$,'Schlafen',.ELEMENT.,$,$);
#83=IFCAXIS2PLACEMENT3D(#84,$,$);
#84=IFCCARTESIANPOINT((100.,100.,0.));
#85=IFCLOCALPLACEMENT(#37,#83);
#86=IFCRELAGGREGATES('000000001008000000000q',$,$,$,#34,(#82,#98,#113));
#87=IFCQUANTITYAREA('NetFloorArea',$,$,48.,$);
#88=IFCQUANTITYLENGTH('Height',$,$,2800.,$);
#89=IFCQUANTITYVOLUME('NetVolume',$,$,134.4,$);
#90=IFCELEMENTQUANTITY('000000001008000000000r',$,'BaseQuantities',$,$,(#87,#88,#89));
#91=IFCRELDEFINESBYPROPERTIES('000000001008000000000s',$,$,$,(#82),#90);
#92=IFCPROPERTYSET('000000001008000000000t',$,'Pset_SpaceCommon',$,(#93));
#93=IFCPROPERTYSINGLEVALUE('IsExternal',$,IFCBOOLEAN(.F.),$);
#94=IFCRELDEFINESBYPROPERTIES('000000001008000000000u',$,$,$,(#82),#92);
#95=IFCPROPERTYBOUNDEDVALUE('SpaceTemperature',$,IFCTHERMODYNAMICTEMPERATUREMEASURE(26.),IFCTHERMODYNAMICTEMPERATUREMEASURE(18.),$,IFCTHERMODYNAMICTEMPERATUREMEASURE(20.));
#96=IFCPROPERTYSET('000000001008000000000v',$,'Pset_SpaceThermalRequirements',$,(#95));
#97=IFCRELDEFINESBYPROPERTIES('0000000010080000000010',$,$,$,(#82),#96);
#98=IFCSPACE('0000000010080000000011',$,'1.02',$,$,#101,$,'Bad',.ELEMENT.,$,$);
#99=IFCAXIS2PLACEMENT3D(#100,$,$);
#100=IFCCARTESIANPOINT((6100.,100.,0.));
#101=IFCLOCALPLACEMENT(#37,#99);
#102=IFCQUANTITYAREA('NetFloorArea',$,$,30.,$);
#103=IFCQUANTITYLENGTH('Height',$,$,2800.,$);
#104=IFCQUANTITYVOLUME('NetVolume',$,$,84.,$);
#105=IFCELEMENTQUANTITY('0000000010080000000012',$,'BaseQuantities',$,$,(#102,#103,#104));
#106=IFCRELDEFINESBYPROPERTIES('0000000010080000000013',$,$,$,(#98),#105);
#107=IFCPROPERTYSET('0000000010080000000014',$,'Pset_SpaceCommon',$,(#108));
#108=IFCPROPERTYSINGLEVALUE('IsExternal',$,IFCBOOLEAN(.F.),$);
#109=IFCRELDEFINESBYPROPERTIES('0000000010080000000015',$,$,$,(#98),#107);
#110=IFCPROPERTYBOUNDEDVALUE('SpaceTemperature',$,IFCTHERMODYNAMICTEMPERATUREMEASURE(26.),IFCTHERMODYNAMICTEMPERATUREMEASURE(18.),$,IFCTHERMODYNAMICTEMPERATUREMEASURE(20.));
#111=IFCPROPERTYSET('0000000010080000000016',$,'Pset_SpaceThermalRequirements',$,(#110));
#112=IFCRELDEFINESBYPROPERTIES('0000000010080000000017',$,$,$,(#98),#111);
#113=IFCSPACE('0000000010080000000018',$,'1.03',$,$,#116,$,'Abstellraum',.ELEMENT.,$,$);
#114=IFCAXIS2PLACEMENT3D(#115,$,$);
#115=IFCCARTESIANPOINT((6100.,7600.,0.));
#116=IFCLOCALPLACEMENT(#37,#114);
#117=IFCQUANTITYAREA('NetFloorArea',$,$,1.5,$);
#118=IFCQUANTITYLENGTH('Height',$,$,2800.,$);
#119=IFCQUANTITYVOLUME('NetVolume',$,$,4.2,$);
#120=IFCELEMENTQUANTITY('0000000010080000000019',$,'BaseQuantities',$,$,(#117,#118,#119));
#121=IFCRELDEFINESBYPROPERTIES('000000001008000000001G',$,$,$,(#113),#120);
#122=IFCPROPERTYSET('000000001008000000001H',$,'Pset_SpaceCommon',$,(#123));
#123=IFCPROPERTYSINGLEVALUE('IsExternal',$,IFCBOOLEAN(.F.),$);
#124=IFCRELDEFINESBYPROPERTIES('000000001008000000001I',$,$,$,(#113),#122);
#125=IFCPROPERTYBOUNDEDVALUE('SpaceTemperature',$,IFCTHERMODYNAMICTEMPERATUREMEASURE(26.),IFCTHERMODYNAMICTEMPERATUREMEASURE(18.),$,IFCTHERMODYNAMICTEMPERATUREMEASURE(20.));
#126=IFCPROPERTYSET('000000001008000000001J',$,'Pset_SpaceThermalRequirements',$,(#125));
#127=IFCRELDEFINESBYPROPERTIES('000000001008000000001K',$,$,$,(#113),#126);
#128=IFCWALLTYPE('000000001008000000001L',$,'Au\X\DFenwand Typ Z',$,$,(#129),$,$,$,.STANDARD.);
#129=IFCPROPERTYSET('000000001008000000001M',$,'Pset_WallCommon',$,(#130,#131));
#130=IFCPROPERTYSINGLEVALUE('IsExternal',$,IFCBOOLEAN(.T.),$);
#131=IFCPROPERTYSINGLEVALUE('ThermalTransmittance',$,IFCTHERMALTRANSMITTANCEMEASURE(0.28),$);
#132=IFCWALL('000000001008000000001N',$,'KG S\X\FCd',$,$,#135,$,$,.STANDARD.);
#133=IFCAXIS2PLACEMENT3D(#134,$,$);
#134=IFCCARTESIANPOINT((0.,0.,0.));
#135=IFCLOCALPLACEMENT(#28,#133);
#136=IFCRELCONTAINEDINSPATIALSTRUCTURE('000000001008000000001O',$,$,$,(#132,#142,#152,#162,#172),#25);
#137=IFCRELDEFINESBYTYPE('000000001008000000001P',$,$,$,(#132,#142,#152,#162,#199,#293,#304,#314,#324,#335,#345),#128);
#138=IFCQUANTITYAREA('GrossSideArea',$,$,30.,$);
#139=IFCELEMENTQUANTITY('000000001008000000001W',$,'BaseQuantities',$,$,(#138));
#140=IFCRELDEFINESBYPROPERTIES('000000001008000000001X',$,$,$,(#132),#139);
#141=IFCRELSPACEBOUNDARY2NDLEVEL('000000001008000000001Y',$,'2ndLevel','2a',#38,#132,$,.PHYSICAL.,.EXTERNAL_EARTH.,$,$);
#142=IFCWALL('000000001008000000001Z',$,'KG Ost',$,$,#147,$,$,.STANDARD.);
#143=IFCAXIS2PLACEMENT3D(#144,#145,#146);
#144=IFCCARTESIANPOINT((10000.,0.,0.));
#145=IFCDIRECTION((0.,0.,1.));
#146=IFCDIRECTION((0.,1.,0.));
#147=IFCLOCALPLACEMENT(#28,#143);
#148=IFCQUANTITYAREA('GrossSideArea',$,$,24.,$);
#149=IFCELEMENTQUANTITY('000000001008000000001a',$,'BaseQuantities',$,$,(#148));
#150=IFCRELDEFINESBYPROPERTIES('000000001008000000001b',$,$,$,(#142),#149);
#151=IFCRELSPACEBOUNDARY2NDLEVEL('000000001008000000001c',$,'2ndLevel','2a',#38,#142,$,.PHYSICAL.,.EXTERNAL_EARTH.,$,$);
#152=IFCWALL('000000001008000000001d',$,'KG Nord',$,$,#157,$,$,.STANDARD.);
#153=IFCAXIS2PLACEMENT3D(#154,#155,#156);
#154=IFCCARTESIANPOINT((10000.,8000.,0.));
#155=IFCDIRECTION((0.,0.,1.));
#156=IFCDIRECTION((-1.,0.,0.));
#157=IFCLOCALPLACEMENT(#28,#153);
#158=IFCQUANTITYAREA('GrossSideArea',$,$,30.,$);
#159=IFCELEMENTQUANTITY('000000001008000000001e',$,'BaseQuantities',$,$,(#158));
#160=IFCRELDEFINESBYPROPERTIES('000000001008000000001f',$,$,$,(#152),#159);
#161=IFCRELSPACEBOUNDARY2NDLEVEL('000000001008000000001m',$,'2ndLevel','2a',#38,#152,$,.PHYSICAL.,.EXTERNAL_EARTH.,$,$);
#162=IFCWALL('000000001008000000001n',$,'KG West',$,$,#167,$,$,.STANDARD.);
#163=IFCAXIS2PLACEMENT3D(#164,#165,#166);
#164=IFCCARTESIANPOINT((0.,8000.,0.));
#165=IFCDIRECTION((0.,0.,1.));
#166=IFCDIRECTION((0.,-1.,0.));
#167=IFCLOCALPLACEMENT(#28,#163);
#168=IFCQUANTITYAREA('GrossSideArea',$,$,24.,$);
#169=IFCELEMENTQUANTITY('000000001008000000001o',$,'BaseQuantities',$,$,(#168));
#170=IFCRELDEFINESBYPROPERTIES('000000001008000000001p',$,$,$,(#162),#169);
#171=IFCRELSPACEBOUNDARY2NDLEVEL('000000001008000000001q',$,'2ndLevel','2a',#38,#162,$,.PHYSICAL.,.EXTERNAL_EARTH.,$,$);
#172=IFCSLAB('000000001008000000001r',$,'Bodenplatte',$,$,#175,$,$,.BASESLAB.);
#173=IFCAXIS2PLACEMENT3D(#174,$,$);
#174=IFCCARTESIANPOINT((0.,0.,0.));
#175=IFCLOCALPLACEMENT(#28,#173);
#176=IFCPROPERTYSET('000000001008000000001s',$,'Pset_SlabCommon',$,(#177,#178));
#177=IFCPROPERTYSINGLEVALUE('IsExternal',$,IFCBOOLEAN(.T.),$);
#178=IFCPROPERTYSINGLEVALUE('ThermalTransmittance',$,IFCTHERMALTRANSMITTANCEMEASURE(0.3),$);
#179=IFCRELDEFINESBYPROPERTIES('000000001008000000001t',$,$,$,(#172),#176);
#180=IFCQUANTITYAREA('GrossArea',$,$,80.,$);
#181=IFCELEMENTQUANTITY('000000001008000000001u',$,'BaseQuantities',$,$,(#180));
#182=IFCRELDEFINESBYPROPERTIES('000000001008000000001v',$,$,$,(#172),#181);
#183=IFCRELSPACEBOUNDARY2NDLEVEL('0000000010080000000020',$,'2ndLevel','2a',#38,#172,$,.PHYSICAL.,.EXTERNAL_EARTH.,$,$);
#184=IFCSLAB('0000000010080000000021',$,'Kellerdecke',$,$,#187,$,$,.FLOOR.);
#185=IFCAXIS2PLACEMENT3D(#186,$,$);
#186=IFCCARTESIANPOINT((0.,0.,0.));
#187=IFCLOCALPLACEMENT(#33,#185);
#188=IFCRELCONTAINEDINSPATIALSTRUCTURE('0000000010080000000022',$,$,$,(#184,#199,#264,#293,#304,#314,#439),#30);
#189=IFCPROPERTYSET('0000000010080000000023',$,'Pset_SlabCommon',$,(#190,#191));
#190=IFCPROPERTYSINGLEVALUE('IsExternal',$,IFCBOOLEAN(.F.),$);
#191=IFCPROPERTYSINGLEVALUE('ThermalTransmittance',$,IFCTHERMALTRANSMITTANCEMEASURE(0.3),$);
#192=IFCRELDEFINESBYPROPERTIES('0000000010080000000024',$,$,$,(#184),#189);
#193=IFCQUANTITYAREA('GrossArea',$,$,80.,$);
#194=IFCELEMENTQUANTITY('0000000010080000000025',$,'BaseQuantities',$,$,(#193));
#195=IFCRELDEFINESBYPROPERTIES('0000000010080000000026',$,$,$,(#184),#194);
#196=IFCRELSPACEBOUNDARY2NDLEVEL('0000000010080000000027',$,'2ndLevel','2a',#38,#184,$,.PHYSICAL.,.INTERNAL.,$,$);
#197=IFCRELSPACEBOUNDARY2NDLEVEL('0000000010080000000028',$,'2ndLevel','2a',#51,#184,$,.PHYSICAL.,.INTERNAL.,$,$);
#198=IFCRELSPACEBOUNDARY2NDLEVEL('0000000010080000000029',$,'2ndLevel','2a',#67,#184,$,.PHYSICAL.,.INTERNAL.,$,$);
#199=IFCWALL('000000001008000000002G',$,'Fassade S\X\FCd',$,$,#202,$,$,.STANDARD.);
#200=IFCAXIS2PLACEMENT3D(#201,$,$);
#201=IFCCARTESIANPOINT((0.,0.,0.));
#202=IFCLOCALPLACEMENT(#33,#200);
#203=IFCQUANTITYAREA('GrossSideArea',$,$,60.,$);
#204=IFCELEMENTQUANTITY('000000001008000000002H',$,'BaseQuantities',$,$,(#203));
#205=IFCRELDEFINESBYPROPERTIES('000000001008000000002I',$,$,$,(#199),#204);
#206=IFCRELSPACEBOUNDARY2NDLEVEL('000000001008000000002J',$,'2ndLevel','2a',#51,#199,#219,.PHYSICAL.,.EXTERNAL.,$,$);
#207=IFCAXIS2PLACEMENT3D(#208,#209,#210);
#208=IFCCARTESIANPOINT((0.,0.,0.));
#209=IFCDIRECTION((0.,-1.,0.));
#210=IFCDIRECTION((0.,0.,1.));
#211=IFCPLANE(#207);
#212=IFCPOLYLINE((#213,#214,#215,#216,#217));
#213=IFCCARTESIANPOINT((-100.,-100.,0.));
#214=IFCCARTESIANPOINT((5900.,-100.,0.));
#215=IFCCARTESIANPOINT((5900.,-100.,2800.));
#216=IFCCARTESIANPOINT((-100.,-100.,2800.));
#217=IFCCARTESIANPOINT((-100.,-100.,0.));
#218=IFCCURVEBOUNDEDPLANE(#211,#212,());
#219=IFCCONNECTIONSURFACEGEOMETRY(#218,$);
#220=IFCRELSPACEBOUNDARY2NDLEVEL('000000001008000000002K',$,'2ndLevel','2a',#67,#199,#233,.PHYSICAL.,.EXTERNAL.,$,$);
#221=IFCAXIS2PLACEMENT3D(#222,#223,#224);
#222=IFCCARTESIANPOINT((0.,0.,0.));
#223=IFCDIRECTION((0.,-1.,0.));
#224=IFCDIRECTION((0.,0.,1.));
#225=IFCPLANE(#221);
#226=IFCPOLYLINE((#227,#228,#229,#230,#231));
#227=IFCCARTESIANPOINT((-100.,-100.,0.));
#228=IFCCARTESIANPOINT((3900.,-100.,0.));
#229=IFCCARTESIANPOINT((3900.,-100.,2800.));
#230=IFCCARTESIANPOINT((-100.,-100.,2800.));
#231=IFCCARTESIANPOINT((-100.,-100.,0.));
#232=IFCCURVEBOUNDEDPLANE(#225,#226,());
#233=IFCCONNECTIONSURFACEGEOMETRY(#232,$);
#234=IFCRELSPACEBOUNDARY2NDLEVEL('000000001008000000002L',$,'2ndLevel','2a',#82,#199,#247,.PHYSICAL.,.EXTERNAL.,$,$);
#235=IFCAXIS2PLACEMENT3D(#236,#237,#238);
#236=IFCCARTESIANPOINT((0.,0.,0.));
#237=IFCDIRECTION((0.,-1.,0.));
#238=IFCDIRECTION((0.,0.,1.));
#239=IFCPLANE(#235);
#240=IFCPOLYLINE((#241,#242,#243,#244,#245));
#241=IFCCARTESIANPOINT((-100.,-100.,0.));
#242=IFCCARTESIANPOINT((5900.,-100.,0.));
#243=IFCCARTESIANPOINT((5900.,-100.,2800.));
#244=IFCCARTESIANPOINT((-100.,-100.,2800.));
#245=IFCCARTESIANPOINT((-100.,-100.,0.));
#246=IFCCURVEBOUNDEDPLANE(#239,#240,());
#247=IFCCONNECTIONSURFACEGEOMETRY(#246,$);
#248=IFCRELSPACEBOUNDARY2NDLEVEL('000000001008000000002M',$,'2ndLevel','2a',#98,#199,#261,.PHYSICAL.,.EXTERNAL.,$,$);
#249=IFCAXIS2PLACEMENT3D(#250,#251,#252);
#250=IFCCARTESIANPOINT((0.,0.,0.));
#251=IFCDIRECTION((0.,-1.,0.));
#252=IFCDIRECTION((0.,0.,1.));
#253=IFCPLANE(#249);
#254=IFCPOLYLINE((#255,#256,#257,#258,#259));
#255=IFCCARTESIANPOINT((-100.,-100.,0.));
#256=IFCCARTESIANPOINT((3900.,-100.,0.));
#257=IFCCARTESIANPOINT((3900.,-100.,2800.));
#258=IFCCARTESIANPOINT((-100.,-100.,2800.));
#259=IFCCARTESIANPOINT((-100.,-100.,0.));
#260=IFCCURVEBOUNDEDPLANE(#253,#254,());
#261=IFCCONNECTIONSURFACEGEOMETRY(#260,$);
#262=IFCOPENINGELEMENT('000000001008000000002N',$,'\X\D6ffnung F-S-EG',$,$,$,$,$,$);
#263=IFCRELVOIDSELEMENT('000000001008000000002O',$,$,$,#199,#262);
#264=IFCWINDOW('000000001008000000002P',$,'F-S-EG',$,$,$,$,$,$,$,$,$,$);
#265=IFCRELFILLSELEMENT('0000000010080000000040',$,$,$,#262,#264);
#266=IFCQUANTITYAREA('Area',$,$,4.,$);
#267=IFCELEMENTQUANTITY('0000000010080000000041',$,'Qto_WindowBaseQuantities',$,$,(#266));
#268=IFCRELDEFINESBYPROPERTIES('0000000010080000000042',$,$,$,(#264),#267);
#269=IFCPROPERTYSET('0000000010080000000043',$,'Pset_WindowCommon',$,(#270,#271));
#270=IFCPROPERTYSINGLEVALUE('IsExternal',$,IFCBOOLEAN(.T.),$);
#271=IFCPROPERTYSINGLEVALUE('ThermalTransmittance',$,IFCTHERMALTRANSMITTANCEMEASURE(1.1),$);
#272=IFCRELDEFINESBYPROPERTIES('0000000010080000000044',$,$,$,(#264),#269);
#273=IFCPROPERTYSET('0000000010080000000045',$,'Pset_DoorWindowGlazingType',$,(#274));
#274=IFCPROPERTYSINGLEVALUE('SolarHeatGainTransmittance',$,IFCNORMALISEDRATIOMEASURE(0.6),$);
#275=IFCRELDEFINESBYPROPERTIES('0000000010080000000046',$,$,$,(#264),#273);
#276=IFCRELSPACEBOUNDARY2NDLEVEL('0000000010080000000047',$,'2ndLevel','2a',#51,#264,$,.PHYSICAL.,.EXTERNAL.,$,$);
#277=IFCOPENINGELEMENT('0000000010080000000048',$,'\X\D6ffnung F-S-OG',$,$,$,$,$,$);
#278=IFCRELVOIDSELEMENT('0000000010080000000049',$,$,$,#199,#277);
#279=IFCWINDOW('000000001008000000004G',$,'F-S-OG',$,$,$,$,$,$,$,$,$,$);
#280=IFCRELCONTAINEDINSPATIALSTRUCTURE('000000001008000000004H',$,$,$,(#279,#324,#335,#345,#355,#453,#467,#481),#34);
#281=IFCRELFILLSELEMENT('000000001008000000004I',$,$,$,#277,#279);
#282=IFCQUANTITYAREA('Area',$,$,3.,$);
#283=IFCELEMENTQUANTITY('000000001008000000004J',$,'Qto_WindowBaseQuantities',$,$,(#282));
#284=IFCRELDEFINESBYPROPERTIES('000000001008000000004K',$,$,$,(#279),#283);
#285=IFCPROPERTYSET('000000001008000000004L',$,'Pset_WindowCommon',$,(#286,#287));
#286=IFCPROPERTYSINGLEVALUE('IsExternal',$,IFCBOOLEAN(.T.),$);
#287=IFCPROPERTYSINGLEVALUE('ThermalTransmittance',$,IFCTHERMALTRANSMITTANCEMEASURE(1.1),$);
#288=IFCRELDEFINESBYPROPERTIES('000000001008000000004M',$,$,$,(#279),#285);
#289=IFCPROPERTYSET('000000001008000000004N',$,'Pset_DoorWindowGlazingType',$,(#290));
#290=IFCPROPERTYSINGLEVALUE('SolarHeatGainTransmittance',$,IFCNORMALISEDRATIOMEASURE(0.6),$);
#291=IFCRELDEFINESBYPROPERTIES('000000001008000000004O',$,$,$,(#279),#289);
#292=IFCRELSPACEBOUNDARY2NDLEVEL('000000001008000000004P',$,'2ndLevel','2a',#82,#279,$,.PHYSICAL.,.EXTERNAL.,$,$);
#293=IFCWALL('000000001008000000004W',$,'EG Nord',$,$,#298,$,$,.STANDARD.);
#294=IFCAXIS2PLACEMENT3D(#295,#296,#297);
#295=IFCCARTESIANPOINT((10000.,8000.,0.));
#296=IFCDIRECTION((0.,0.,1.));
#297=IFCDIRECTION((-1.,0.,0.));
#298=IFCLOCALPLACEMENT(#33,#294);
#299=IFCQUANTITYAREA('GrossSideArea',$,$,28.,$);
#300=IFCELEMENTQUANTITY('000000001008000000004X',$,'BaseQuantities',$,$,(#299));
#301=IFCRELDEFINESBYPROPERTIES('000000001008000000004Y',$,$,$,(#293),#300);
#302=IFCRELSPACEBOUNDARY2NDLEVEL('000000001008000000004Z',$,'2ndLevel','2a',#51,#293,$,.PHYSICAL.,.EXTERNAL.,$,$);
#303=IFCRELSPACEBOUNDARY2NDLEVEL('000000001008000000004a',$,'2ndLevel','2a',#67,#293,$,.PHYSICAL.,.EXTERNAL.,$,$);
#304=IFCWALL('000000001008000000004b',$,'EG Ost',$,$,#309,$,$,.STANDARD.);
#305=IFCAXIS2PLACEMENT3D(#306,#307,#308);
#306=IFCCARTESIANPOINT((10000.,0.,0.));
#307=IFCDIRECTION((0.,0.,1.));
#308=IFCDIRECTION((0.,1.,0.));
#309=IFCLOCALPLACEMENT(#33,#305);
#310=IFCQUANTITYAREA('GrossSideArea',$,$,22.4,$);
#311=IFCELEMENTQUANTITY('000000001008000000004c',$,'BaseQuantities',$,$,(#310));
#312=IFCRELDEFINESBYPROPERTIES('000000001008000000004d',$,$,$,(#304),#311);
#313=IFCRELSPACEBOUNDARY2NDLEVEL('000000001008000000004e',$,'2ndLevel','2a',#67,#304,$,.PHYSICAL.,.EXTERNAL.,$,$);
#314=IFCWALL('000000001008000000004f',$,'EG West',$,$,#319,$,$,.STANDARD.);
#315=IFCAXIS2PLACEMENT3D(#316,#317,#318);
#316=IFCCARTESIANPOINT((0.,8000.,0.));
#317=IFCDIRECTION((0.,0.,1.));
#318=IFCDIRECTION((0.,-1.,0.));
#319=IFCLOCALPLACEMENT(#33,#315);
#320=IFCQUANTITYAREA('GrossSideArea',$,$,22.4,$);
#321=IFCELEMENTQUANTITY('000000001008000000004m',$,'BaseQuantities',$,$,(#320));
#322=IFCRELDEFINESBYPROPERTIES('000000001008000000004n',$,$,$,(#314),#321);
#323=IFCRELSPACEBOUNDARY2NDLEVEL('000000001008000000004o',$,'2ndLevel','2a',#51,#314,$,.PHYSICAL.,.EXTERNAL.,$,$);
#324=IFCWALL('000000001008000000004p',$,'OG Nord',$,$,#329,$,$,.STANDARD.);
#325=IFCAXIS2PLACEMENT3D(#326,#327,#328);
#326=IFCCARTESIANPOINT((10000.,8000.,0.));
#327=IFCDIRECTION((0.,0.,1.));
#328=IFCDIRECTION((-1.,0.,0.));
#329=IFCLOCALPLACEMENT(#37,#325);
#330=IFCQUANTITYAREA('GrossSideArea',$,$,28.,$);
#331=IFCELEMENTQUANTITY('000000001008000000004q',$,'BaseQuantities',$,$,(#330));
#332=IFCRELDEFINESBYPROPERTIES('000000001008000000004r',$,$,$,(#324),#331);
#333=IFCRELSPACEBOUNDARY2NDLEVEL('000000001008000000004s',$,'2ndLevel','2a',#82,#324,$,.PHYSICAL.,.EXTERNAL.,$,$);
#334=IFCRELSPACEBOUNDARY2NDLEVEL('000000001008000000004t',$,'2ndLevel','2a',#98,#324,$,.PHYSICAL.,.EXTERNAL.,$,$);
#335=IFCWALL('000000001008000000004u',$,'OG Ost',$,$,#340,$,$,.STANDARD.);
#336=IFCAXIS2PLACEMENT3D(#337,#338,#339);
#337=IFCCARTESIANPOINT((10000.,0.,0.));
#338=IFCDIRECTION((0.,0.,1.));
#339=IFCDIRECTION((0.,1.,0.));
#340=IFCLOCALPLACEMENT(#37,#336);
#341=IFCQUANTITYAREA('GrossSideArea',$,$,22.4,$);
#342=IFCELEMENTQUANTITY('000000001008000000004v',$,'BaseQuantities',$,$,(#341));
#343=IFCRELDEFINESBYPROPERTIES('0000000010080000000050',$,$,$,(#335),#342);
#344=IFCRELSPACEBOUNDARY2NDLEVEL('0000000010080000000051',$,'2ndLevel','2a',#98,#335,$,.PHYSICAL.,.EXTERNAL.,$,$);
#345=IFCWALL('0000000010080000000052',$,'OG West',$,$,#350,$,$,.STANDARD.);
#346=IFCAXIS2PLACEMENT3D(#347,#348,#349);
#347=IFCCARTESIANPOINT((0.,8000.,0.));
#348=IFCDIRECTION((0.,0.,1.));
#349=IFCDIRECTION((0.,-1.,0.));
#350=IFCLOCALPLACEMENT(#37,#346);
#351=IFCQUANTITYAREA('GrossSideArea',$,$,22.4,$);
#352=IFCELEMENTQUANTITY('0000000010080000000053',$,'BaseQuantities',$,$,(#351));
#353=IFCRELDEFINESBYPROPERTIES('0000000010080000000054',$,$,$,(#345),#352);
#354=IFCRELSPACEBOUNDARY2NDLEVEL('0000000010080000000055',$,'2ndLevel','2a',#82,#345,$,.PHYSICAL.,.EXTERNAL.,$,$);
#355=IFCSLAB('0000000010080000000056',$,'Geschossdecke',$,$,#358,$,$,.FLOOR.);
#356=IFCAXIS2PLACEMENT3D(#357,$,$);
#357=IFCCARTESIANPOINT((0.,0.,0.));
#358=IFCLOCALPLACEMENT(#37,#356);
#359=IFCPROPERTYSET('0000000010080000000057',$,'Pset_SlabCommon',$,(#360,#361));
#360=IFCPROPERTYSINGLEVALUE('IsExternal',$,IFCBOOLEAN(.F.),$);
#361=IFCPROPERTYSINGLEVALUE('ThermalTransmittance',$,IFCTHERMALTRANSMITTANCEMEASURE(0.5),$);
#362=IFCRELDEFINESBYPROPERTIES('0000000010080000000058',$,$,$,(#355),#359);
#363=IFCQUANTITYAREA('GrossArea',$,$,80.,$);
#364=IFCELEMENTQUANTITY('0000000010080000000059',$,'BaseQuantities',$,$,(#363));
#365=IFCRELDEFINESBYPROPERTIES('000000001008000000005G',$,$,$,(#355),#364);
#366=IFCQUANTITYLENGTH('Width',$,$,200.,$);
#367=IFCELEMENTQUANTITY('000000001008000000005H',$,'BaseQuantities',$,$,(#366));
#368=IFCRELDEFINESBYPROPERTIES('000000001008000000005I',$,$,$,(#355),#367);
#369=IFCRELSPACEBOUNDARY2NDLEVEL('000000001008000000005J',$,'2ndLevel','2a',#51,#355,#382,.PHYSICAL.,.INTERNAL.,$,$);
#370=IFCAXIS2PLACEMENT3D(#371,#372,#373);
#371=IFCCARTESIANPOINT((0.,0.,0.));
#372=IFCDIRECTION((0.,0.,1.));
#373=IFCDIRECTION((1.,0.,0.));
#374=IFCPLANE(#370);
#375=IFCPOLYLINE((#376,#377,#378,#379,#380));
#376=IFCCARTESIANPOINT((-100.,-100.,2800.));
#377=IFCCARTESIANPOINT((5900.,-100.,2800.));
#378=IFCCARTESIANPOINT((5900.,7900.,2800.));
#379=IFCCARTESIANPOINT((-100.,7900.,2800.));
#380=IFCCARTESIANPOINT((-100.,-100.,2800.));
#381=IFCCURVEBOUNDEDPLANE(#374,#375,());
#382=IFCCONNECTIONSURFACEGEOMETRY(#381,$);
#383=IFCRELSPACEBOUNDARY2NDLEVEL('000000001008000000005K',$,'2ndLevel','2a',#67,#355,#396,.PHYSICAL.,.INTERNAL.,$,#411);
#384=IFCAXIS2PLACEMENT3D(#385,#386,#387);
#385=IFCCARTESIANPOINT((0.,0.,0.));
#386=IFCDIRECTION((0.,0.,1.));
#387=IFCDIRECTION((1.,0.,0.));
#388=IFCPLANE(#384);
#389=IFCPOLYLINE((#390,#391,#392,#393,#394));
#390=IFCCARTESIANPOINT((-100.,-100.,2800.));
#391=IFCCARTESIANPOINT((3900.,-100.,2800.));
#392=IFCCARTESIANPOINT((3900.,7900.,2800.));
#393=IFCCARTESIANPOINT((-100.,7900.,2800.));
#394=IFCCARTESIANPOINT((-100.,-100.,2800.));
#395=IFCCURVEBOUNDEDPLANE(#388,#389,());
#396=IFCCONNECTIONSURFACEGEOMETRY(#395,$);
#397=IFCRELSPACEBOUNDARY2NDLEVEL('000000001008000000005L',$,'2ndLevel','2a',#82,#355,#410,.PHYSICAL.,.INTERNAL.,$,$);
#398=IFCAXIS2PLACEMENT3D(#399,#400,#401);
#399=IFCCARTESIANPOINT((0.,0.,0.));
#400=IFCDIRECTION((0.,0.,-1.));
#401=IFCDIRECTION((1.,0.,0.));
#402=IFCPLANE(#398);
#403=IFCPOLYLINE((#404,#405,#406,#407,#408));
#404=IFCCARTESIANPOINT((-100.,-100.,0.));
#405=IFCCARTESIANPOINT((-100.,7900.,0.));
#406=IFCCARTESIANPOINT((5900.,7900.,0.));
#407=IFCCARTESIANPOINT((5900.,-100.,0.));
#408=IFCCARTESIANPOINT((-100.,-100.,0.));
#409=IFCCURVEBOUNDEDPLANE(#402,#403,());
#410=IFCCONNECTIONSURFACEGEOMETRY(#409,$);
#411=IFCRELSPACEBOUNDARY2NDLEVEL('000000001008000000005M',$,'2ndLevel','2a',#98,#355,#424,.PHYSICAL.,.INTERNAL.,$,#383);
#412=IFCAXIS2PLACEMENT3D(#413,#414,#415);
#413=IFCCARTESIANPOINT((0.,0.,0.));
#414=IFCDIRECTION((0.,0.,-1.));
#415=IFCDIRECTION((1.,0.,0.));
#416=IFCPLANE(#412);
#417=IFCPOLYLINE((#418,#419,#420,#421,#422));
#418=IFCCARTESIANPOINT((-100.,-100.,0.));
#419=IFCCARTESIANPOINT((-100.,7400.,0.));
#420=IFCCARTESIANPOINT((3900.,7400.,0.));
#421=IFCCARTESIANPOINT((3900.,-100.,0.));
#422=IFCCARTESIANPOINT((-100.,-100.,0.));
#423=IFCCURVEBOUNDEDPLANE(#416,#417,());
#424=IFCCONNECTIONSURFACEGEOMETRY(#423,$);
#425=IFCRELSPACEBOUNDARY2NDLEVEL('000000001008000000005N',$,'2ndLevel','2a',#113,#355,#438,.PHYSICAL.,.INTERNAL.,$,$);
#426=IFCAXIS2PLACEMENT3D(#427,#428,#429);
#427=IFCCARTESIANPOINT((0.,0.,0.));
#428=IFCDIRECTION((0.,0.,-1.));
#429=IFCDIRECTION((1.,0.,0.));
#430=IFCPLANE(#426);
#431=IFCPOLYLINE((#432,#433,#434,#435,#436));
#432=IFCCARTESIANPOINT((-100.,-100.,0.));
#433=IFCCARTESIANPOINT((-100.,1400.,0.));
#434=IFCCARTESIANPOINT((900.,1400.,0.));
#435=IFCCARTESIANPOINT((900.,-100.,0.));
#436=IFCCARTESIANPOINT((-100.,-100.,0.));
#437=IFCCURVEBOUNDEDPLANE(#430,#431,());
#438=IFCCONNECTIONSURFACEGEOMETRY(#437,$);
#439=IFCWALL('000000001008000000005O',$,'IW EG',$,$,#444,$,$,.PARTITIONING.);
#440=IFCAXIS2PLACEMENT3D(#441,#442,#443);
#441=IFCCARTESIANPOINT((6000.,0.,0.));
#442=IFCDIRECTION((0.,0.,1.));
#443=IFCDIRECTION((0.,1.,0.));
#444=IFCLOCALPLACEMENT(#33,#440);
#445=IFCPROPERTYSET('000000001008000000005P',$,'Pset_WallCommon',$,(#446));
#446=IFCPROPERTYSINGLEVALUE('IsExternal',$,IFCBOOLEAN(.F.),$);
#447=IFCRELDEFINESBYPROPERTIES('000000001008000000005W',$,$,$,(#439),#445);
#448=IFCQUANTITYAREA('GrossSideArea',$,$,22.4,$);
#449=IFCELEMENTQUANTITY('000000001008000000005X',$,'BaseQuantities',$,$,(#448));
#450=IFCRELDEFINESBYPROPERTIES('000000001008000000005Y',$,$,$,(#439),#449);
#451=IFCRELSPACEBOUNDARY2NDLEVEL('000000001008000000005Z',$,'2ndLevel','2a',#51,#439,$,.PHYSICAL.,.INTERNAL.,$,$);
#452=IFCRELSPACEBOUNDARY2NDLEVEL('000000001008000000005a',$,'2ndLevel','2a',#67,#439,$,.PHYSICAL.,.INTERNAL.,$,$);
#453=IFCWALL('000000001008000000005b',$,'IW OG',$,$,#458,$,$,.PARTITIONING.);
#454=IFCAXIS2PLACEMENT3D(#455,#456,#457);
#455=IFCCARTESIANPOINT((6000.,0.,0.));
#456=IFCDIRECTION((0.,0.,1.));
#457=IFCDIRECTION((0.,1.,0.));
#458=IFCLOCALPLACEMENT(#37,#454);
#459=IFCPROPERTYSET('000000001008000000005c',$,'Pset_WallCommon',$,(#460));
#460=IFCPROPERTYSINGLEVALUE('IsExternal',$,IFCBOOLEAN(.F.),$);
#461=IFCRELDEFINESBYPROPERTIES('000000001008000000005d',$,$,$,(#453),#459);
#462=IFCQUANTITYAREA('GrossSideArea',$,$,22.4,$);
#463=IFCELEMENTQUANTITY('000000001008000000005e',$,'BaseQuantities',$,$,(#462));
#464=IFCRELDEFINESBYPROPERTIES('000000001008000000005f',$,$,$,(#453),#463);
#465=IFCRELSPACEBOUNDARY2NDLEVEL('000000001008000000005m',$,'2ndLevel','2a',#82,#453,$,.PHYSICAL.,.INTERNAL.,$,$);
#466=IFCRELSPACEBOUNDARY2NDLEVEL('000000001008000000005n',$,'2ndLevel','2a',#98,#453,$,.PHYSICAL.,.INTERNAL.,$,$);
#467=IFCWALL('000000001008000000005o',$,'IW Abstellraum',$,$,#472,$,$,.PARTITIONING.);
#468=IFCAXIS2PLACEMENT3D(#469,#470,#471);
#469=IFCCARTESIANPOINT((6000.,7500.,0.));
#470=IFCDIRECTION((0.,0.,1.));
#471=IFCDIRECTION((0.,1.,0.));
#472=IFCLOCALPLACEMENT(#37,#468);
#473=IFCPROPERTYSET('000000001008000000005p',$,'Pset_WallCommon',$,(#474));
#474=IFCPROPERTYSINGLEVALUE('IsExternal',$,IFCBOOLEAN(.F.),$);
#475=IFCRELDEFINESBYPROPERTIES('000000001008000000005q',$,$,$,(#467),#473);
#476=IFCQUANTITYAREA('GrossSideArea',$,$,4.2,$);
#477=IFCELEMENTQUANTITY('000000001008000000005r',$,'BaseQuantities',$,$,(#476));
#478=IFCRELDEFINESBYPROPERTIES('000000001008000000005s',$,$,$,(#467),#477);
#479=IFCRELSPACEBOUNDARY2NDLEVEL('000000001008000000005t',$,'2ndLevel','2a',#98,#467,$,.PHYSICAL.,.INTERNAL.,$,$);
#480=IFCRELSPACEBOUNDARY2NDLEVEL('000000001008000000005u',$,'2ndLevel','2a',#113,#467,$,.PHYSICAL.,.INTERNAL.,$,$);
#481=IFCROOF('000000001008000000005v',$,'Dach',$,$,#484,$,$,.FLAT_ROOF.);
#482=IFCAXIS2PLACEMENT3D(#483,$,$);
#483=IFCCARTESIANPOINT((0.,0.,2800.));
#484=IFCLOCALPLACEMENT(#37,#482);
#485=IFCPROPERTYSET('0000000010080000000060',$,'Pset_RoofCommon',$,(#486,#487));
#486=IFCPROPERTYSINGLEVALUE('IsExternal',$,IFCBOOLEAN(.T.),$);
#487=IFCPROPERTYSINGLEVALUE('ThermalTransmittance',$,IFCTHERMALTRANSMITTANCEMEASURE(0.2),$);
#488=IFCRELDEFINESBYPROPERTIES('0000000010080000000061',$,$,$,(#481),#485);
#489=IFCQUANTITYAREA('GrossArea',$,$,80.,$);
#490=IFCELEMENTQUANTITY('0000000010080000000062',$,'Qto_RoofBaseQuantities',$,$,(#489));
#491=IFCRELDEFINESBYPROPERTIES('0000000010080000000063',$,$,$,(#481),#490);
#492=IFCRELSPACEBOUNDARY2NDLEVEL('0000000010080000000064',$,'2ndLevel','2a',#82,#481,$,.PHYSICAL.,.EXTERNAL.,$,$);
#493=IFCRELSPACEBOUNDARY2NDLEVEL('0000000010080000000065',$,'2ndLevel','2a',#98,#481,$,.PHYSICAL.,.EXTERNAL.,$,$);
#494=IFCRELSPACEBOUNDARY2NDLEVEL('0000000010080000000066',$,'2ndLevel','2a',#113,#481,$,.PHYSICAL.,.EXTERNAL.,$,$);
#495=IFCZONE('0000000010080000000067',$,'Wohnbereich',$,$,$);
#496=IFCRELASSIGNSTOGROUP('0000000010080000000068',$,$,$,(#51),$,#495);
#497=IFCZONE('0000000010080000000069',$,'K\X\FCchenbereich',$,$,$);
#498=IFCRELASSIGNSTOGROUP('000000001008000000006G',$,$,$,(#67),$,#497);
#499=IFCZONE('000000001008000000006H',$,'Schlafbereich',$,$,$);
#500=IFCRELASSIGNSTOGROUP('000000001008000000006I',$,$,$,(#82),$,#499);
#501=IFCZONE('000000001008000000006J',$,'Nassbereich',$,$,$);
#502=IFCRELASSIGNSTOGROUP('000000001008000000006K',$,$,$,(#98),$,#501);
#503=IFCZONE('000000001008000000006L',$,'Obergeschoss',$,$,$);
#504=IFCRELASSIGNSTOGROUP('000000001008000000006M',$,$,$,(#499,#501),$,#503);
#505=IFCZONE('000000001008000000006N',$,'Abstellzone',$,$,$);
#506=IFCRELASSIGNSTOGROUP('000000001008000000006O',$,$,$,(#113),$,#505);
#507=IFCZONE('000000001008000000006P',$,'Nebenr\X\E4ume',$,$,$);
#508=IFCRELASSIGNSTOGROUP('0000000010080000000080',$,$,$,(#113),$,#507);
#509=IFCCLASSIFICATION($,$,$,'Probenklassifikation',$,$,$);
#510=IFCCLASSIFICATIONREFERENCE($,'NB',$,#509,$,$);
#511=IFCRELASSOCIATESCLASSIFICATION('0000000010080000000081',$,$,$,(#38),#510);
#512=IFCCLASSIFICATIONREFERENCE($,'WO',$,#509,$,$);
#513=IFCRELASSOCIATESCLASSIFICATION('0000000010080000000082',$,$,$,(#51),#512);
#514=IFCCLASSIFICATIONREFERENCE($,'WO',$,#509,$,$);
#515=IFCRELASSOCIATESCLASSIFICATION('0000000010080000000083',$,$,$,(#67),#514);
#516=IFCCLASSIFICATIONREFERENCE($,'SL',$,#509,$,$);
#517=IFCRELASSOCIATESCLASSIFICATION('0000000010080000000084',$,$,$,(#82),#516);
#518=IFCCLASSIFICATIONREFERENCE($,'SL',$,#509,$,$);
#519=IFCRELASSOCIATESCLASSIFICATION('0000000010080000000085',$,$,$,(#98),#518);
#520=IFCCLASSIFICATIONREFERENCE($,'SL',$,#509,$,$);
#521=IFCRELASSOCIATESCLASSIFICATION('0000000010080000000086',$,$,$,(#113),#520);
ENDSEC;
END-ISO-10303-21;
