ISO-10303-21;
HEADER;
FILE_DESCRIPTION (('ViewDefinition [ReferenceView]'), '2;1');
FILE_NAME ('ifc4_fensterrichtung_unbestimmt.ifc', '2026-09-25T00:00:00', (''), (''), 'EPOS-Plan Importprobe (EPOS.Kern.Tests)', 'EPOS-Plan Importprobe, selbst erzeugt', '');
FILE_SCHEMA (('IFC4'));
ENDSEC;
DATA;
#1=IFCPROJECT('0000000010080000000001',$,'Importprobe',$,$,$,$,(#8),#2);
#2=IFCUNITASSIGNMENT((#3,#4,#5,#6,#7));
#3=IFCSIUNIT(*,.LENGTHUNIT.,.MILLI.,.METRE.);
#4=IFCSIUNIT(*,.AREAUNIT.,$,.SQUARE_METRE.);
#5=IFCSIUNIT(*,.VOLUMEUNIT.,$,.CUBIC_METRE.);
#6=IFCSIUNIT(*,.PLANEANGLEUNIT.,$,.RADIAN.);
#7=IFCSIUNIT(*,.THERMODYNAMICTEMPERATUREUNIT.,$,.DEGREE_CELSIUS.);
#8=IFCGEOMETRICREPRESENTATIONCONTEXT($,'Model',3,1.E-05,#9,#11);
#9=IFCAXIS2PLACEMENT3D(#10,$,$);
#10=IFCCARTESIANPOINT((0.,0.,0.));
#11=IFCDIRECTION((0.,1.,0.));
#12=IFCSITE('0000000010080000000002',$,'Grundst\X\FCck',$,$,#15,$,$,.ELEMENT.,$,$,$,$,$);
#13=IFCAXIS2PLACEMENT3D(#14,$,$);
#14=IFCCARTESIANPOINT((0.,0.,0.));
#15=IFCLOCALPLACEMENT($,#13);
#16=IFCRELAGGREGATES('0000000010080000000003',$,$,$,#1,(#12));
#17=IFCBUILDING('0000000010080000000004',$,'Fensterhaus',$,$,#20,$,$,.ELEMENT.,$,$,$);
#18=IFCAXIS2PLACEMENT3D(#19,$,$);
#19=IFCCARTESIANPOINT((0.,0.,0.));
#20=IFCLOCALPLACEMENT(#15,#18);
#21=IFCRELAGGREGATES('0000000010080000000005',$,$,$,#12,(#17));
#22=IFCBUILDINGSTOREY('0000000010080000000006',$,'Erdgeschoss',$,$,#25,$,$,.ELEMENT.,0.);
#23=IFCAXIS2PLACEMENT3D(#24,$,$);
#24=IFCCARTESIANPOINT((0.,0.,0.));
#25=IFCLOCALPLACEMENT(#20,#23);
#26=IFCRELAGGREGATES('0000000010080000000007',$,$,$,#17,(#22));
#27=IFCSPACE('0000000010080000000008',$,'0.01',$,$,#30,$,'Wohnen',.ELEMENT.,$,$);
#28=IFCAXIS2PLACEMENT3D(#29,$,$);
#29=IFCCARTESIANPOINT((0.,0.,0.));
#30=IFCLOCALPLACEMENT(#25,#28);
#31=IFCRELAGGREGATES('0000000010080000000009',$,$,$,#22,(#27));
#32=IFCPROPERTYSET('000000001008000000000G',$,'Pset_SpaceCommon',$,(#33));
#33=IFCPROPERTYSINGLEVALUE('IsExternal',$,IFCBOOLEAN(.F.),$);
#34=IFCRELDEFINESBYPROPERTIES('000000001008000000000H',$,$,$,(#27),#32);
#35=IFCPROPERTYBOUNDEDVALUE('SpaceTemperature',$,IFCTHERMODYNAMICTEMPERATUREMEASURE(26.),IFCTHERMODYNAMICTEMPERATUREMEASURE(18.),$,IFCTHERMODYNAMICTEMPERATUREMEASURE(20.));
#36=IFCPROPERTYSET('000000001008000000000I',$,'Pset_SpaceThermalRequirements',$,(#35));
#37=IFCRELDEFINESBYPROPERTIES('000000001008000000000J',$,$,$,(#27),#36);
#38=IFCWALL('000000001008000000000K',$,'Wand S\X\FCd',$,$,#41,$,$,.STANDARD.);
#39=IFCAXIS2PLACEMENT3D(#40,$,$);
#40=IFCCARTESIANPOINT((0.,0.,0.));
#41=IFCLOCALPLACEMENT(#25,#39);
#42=IFCRELCONTAINEDINSPATIALSTRUCTURE('000000001008000000000L',$,$,$,(#38,#65),#22);
#43=IFCPROPERTYSET('000000001008000000000M',$,'Pset_WallCommon',$,(#44));
#44=IFCPROPERTYSINGLEVALUE('IsExternal',$,IFCBOOLEAN(.T.),$);
#45=IFCRELDEFINESBYPROPERTIES('000000001008000000000N',$,$,$,(#38),#43);
#46=IFCQUANTITYAREA('GrossSideArea',$,$,25.,$);
#47=IFCELEMENTQUANTITY('000000001008000000000O',$,'Qto_WallBaseQuantities',$,$,(#46));
#48=IFCRELDEFINESBYPROPERTIES('000000001008000000000P',$,$,$,(#38),#47);
#49=IFCOPENINGELEMENT('000000001008000000000W',$,'\X\D6ffnung Fenster S\X\FCd',$,$,#53,#64,$,.OPENING.);
#50=IFCRELVOIDSELEMENT('000000001008000000000X',$,$,$,#38,#49);
#51=IFCAXIS2PLACEMENT3D(#52,$,$);
#52=IFCCARTESIANPOINT((0.,0.,0.));
#53=IFCLOCALPLACEMENT(#41,#51);
#54=IFCAXIS2PLACEMENT3D(#55,#56,#57);
#55=IFCCARTESIANPOINT((0.,0.,0.));
#56=IFCDIRECTION((0.,-1.,0.));
#57=IFCDIRECTION((1.,0.,0.));
#58=IFCEXTRUDEDAREASOLID(#59,#54,#62,300.);
#59=IFCRECTANGLEPROFILEDEF(.AREA.,$,#60,1500.,1200.);
#60=IFCAXIS2PLACEMENT2D(#61,$);
#61=IFCCARTESIANPOINT((1750.,1500.));
#62=IFCDIRECTION((0.,0.,1.));
#63=IFCSHAPEREPRESENTATION(#8,'Body','SweptSolid',(#58));
#64=IFCPRODUCTDEFINITIONSHAPE($,$,(#63));
#65=IFCWINDOW('000000001008000000000Y',$,'Fenster S\X\FCd',$,$,$,$,$,1200.,1500.,$,$,$);
#66=IFCRELFILLSELEMENT('000000001008000000000Z',$,$,$,#49,#65);
#67=IFCPROPERTYSET('000000001008000000000a',$,'Pset_WindowCommon',$,(#68,#69));
#68=IFCPROPERTYSINGLEVALUE('IsExternal',$,IFCBOOLEAN(.T.),$);
#69=IFCPROPERTYSINGLEVALUE('ThermalTransmittance (W/(m K))',$,IFCTHERMALTRANSMITTANCEMEASURE(1.1),$);
#70=IFCRELDEFINESBYPROPERTIES('000000001008000000000b',$,$,$,(#65),#67);
#71=IFCPROPERTYSET('000000001008000000000c',$,'Herstellerdaten',$,(#72));
#72=IFCPROPERTYSINGLEVALUE('ThermalTransmittance',$,IFCTHERMALTRANSMITTANCEMEASURE(1.1),$);
#73=IFCRELDEFINESBYPROPERTIES('000000001008000000000d',$,$,$,(#65),#71);
ENDSEC;
END-ISO-10303-21;
