ISO-10303-21;
HEADER;
FILE_DESCRIPTION (('ViewDefinition [ReferenceView]'), '2;1');
FILE_NAME ('ifc4_g5_kleinhaus_ohne_mengen.ifc', '2026-09-25T00:00:00', (''), (''), 'EPOS-Plan Importprobe (EPOS.Kern.Tests)', 'EPOS-Plan Importprobe, selbst erzeugt', '');
FILE_SCHEMA (('IFC4'));
ENDSEC;
DATA;
#1=IFCPROJECT('0000000010080000000001',$,'Importprobe',$,$,$,$,(#8),#2);
#2=IFCUNITASSIGNMENT((#3,#4,#5,#6,#7));
#3=IFCSIUNIT(*,.LENGTHUNIT.,.MILLI.,.METRE.);
#4=IFCSIUNIT(*,.AREAUNIT.,$,.SQUARE_METRE.);
#5=IFCSIUNIT(*,.VOLUMEUNIT.,$,.CUBIC_METRE.);
#6=IFCSIUNIT(*,.PLANEANGLEUNIT.,$,.RADIAN.);
#7=IFCSIUNIT(*,.THERMODYNAMICTEMPERATUREUNIT.,$,.DEGREE_CELSIUS.);
#8=IFCGEOMETRICREPRESENTATIONCONTEXT($,'Model',3,1.E-05,#9,#11);
#9=IFCAXIS2PLACEMENT3D(#10,$,$);
#10=IFCCARTESIANPOINT((0.,0.,0.));
#11=IFCDIRECTION((0.,1.,0.));
#12=IFCSITE('0000000010080000000002',$,'Grundst\X\FCck',$,$,#15,$,$,.ELEMENT.,$,$,$,$,$);
#13=IFCAXIS2PLACEMENT3D(#14,$,$);
#14=IFCCARTESIANPOINT((0.,0.,0.));
#15=IFCLOCALPLACEMENT($,#13);
#16=IFCRELAGGREGATES('0000000010080000000003',$,$,$,#1,(#12));
#17=IFCBUILDING('0000000010080000000004',$,'Kleinhaus',$,$,#20,$,$,.ELEMENT.,$,$,$);
#18=IFCAXIS2PLACEMENT3D(#19,$,$);
#19=IFCCARTESIANPOINT((0.,0.,0.));
#20=IFCLOCALPLACEMENT(#15,#18);
#21=IFCRELAGGREGATES('0000000010080000000005',$,$,$,#12,(#17));
#22=IFCBUILDINGSTOREY('0000000010080000000006',$,'Kellergeschoss',$,$,#25,$,$,.ELEMENT.,-2500.);
#23=IFCAXIS2PLACEMENT3D(#24,$,$);
#24=IFCCARTESIANPOINT((0.,0.,-2500.));
#25=IFCLOCALPLACEMENT(#20,#23);
#26=IFCRELAGGREGATES('0000000010080000000007',$,$,$,#17,(#22,#27,#31));
#27=IFCBUILDINGSTOREY('0000000010080000000008',$,'Erdgeschoss',$,$,#30,$,$,.ELEMENT.,0.);
#28=IFCAXIS2PLACEMENT3D(#29,$,$);
#29=IFCCARTESIANPOINT((0.,0.,0.));
#30=IFCLOCALPLACEMENT(#20,#28);
#31=IFCBUILDINGSTOREY('0000000010080000000009',$,'Obergeschoss',$,$,#34,$,$,.ELEMENT.,2800.);
#32=IFCAXIS2PLACEMENT3D(#33,$,$);
#33=IFCCARTESIANPOINT((0.,0.,2800.));
#34=IFCLOCALPLACEMENT(#20,#32);
#35=IFCSPACE('000000001008000000000G',$,'K.01',$,$,#38,#120,'Keller',.ELEMENT.,$,$);
#36=IFCAXIS2PLACEMENT3D(#37,$,$);
#37=IFCCARTESIANPOINT((0.,0.,0.));
#38=IFCLOCALPLACEMENT(#25,#36);
#39=IFCRELAGGREGATES('000000001008000000000H',$,$,$,#22,(#35));
#40=IFCPROPERTYSET('000000001008000000000I',$,'Pset_SpaceCommon',$,(#41));
#41=IFCPROPERTYSINGLEVALUE('IsExternal',$,IFCBOOLEAN(.F.),$);
#42=IFCRELDEFINESBYPROPERTIES('000000001008000000000J',$,$,$,(#35),#40);
#43=IFCSPACE('000000001008000000000K',$,'0.01',$,$,#46,#166,'Wohnen',.ELEMENT.,$,$);
#44=IFCAXIS2PLACEMENT3D(#45,$,$);
#45=IFCCARTESIANPOINT((0.,0.,0.));
#46=IFCLOCALPLACEMENT(#30,#44);
#47=IFCRELAGGREGATES('000000001008000000000L',$,$,$,#27,(#43,#54));
#48=IFCPROPERTYSET('000000001008000000000M',$,'Pset_SpaceCommon',$,(#49));
#49=IFCPROPERTYSINGLEVALUE('IsExternal',$,IFCBOOLEAN(.F.),$);
#50=IFCRELDEFINESBYPROPERTIES('000000001008000000000N',$,$,$,(#43),#48);
#51=IFCPROPERTYBOUNDEDVALUE('SpaceTemperature',$,IFCTHERMODYNAMICTEMPERATUREMEASURE(26.),IFCTHERMODYNAMICTEMPERATUREMEASURE(18.),$,IFCTHERMODYNAMICTEMPERATUREMEASURE(20.));
#52=IFCPROPERTYSET('000000001008000000000O',$,'Pset_SpaceThermalRequirements',$,(#51));
#53=IFCRELDEFINESBYPROPERTIES('000000001008000000000P',$,$,$,(#43),#52);
#54=IFCSPACE('000000001008000000000W',$,'0.02',$,$,#57,#212,'K\X\FCche',.ELEMENT.,$,$);
#55=IFCAXIS2PLACEMENT3D(#56,$,$);
#56=IFCCARTESIANPOINT((0.,0.,0.));
#57=IFCLOCALPLACEMENT(#30,#55);
#58=IFCPROPERTYSET('000000001008000000000X',$,'Pset_SpaceCommon',$,(#59));
#59=IFCPROPERTYSINGLEVALUE('IsExternal',$,IFCBOOLEAN(.F.),$);
#60=IFCRELDEFINESBYPROPERTIES('000000001008000000000Y',$,$,$,(#54),#58);
#61=IFCPROPERTYBOUNDEDVALUE('SpaceTemperature',$,IFCTHERMODYNAMICTEMPERATUREMEASURE(26.),IFCTHERMODYNAMICTEMPERATUREMEASURE(18.),$,IFCTHERMODYNAMICTEMPERATUREMEASURE(20.));
#62=IFCPROPERTYSET('000000001008000000000Z',$,'Pset_SpaceThermalRequirements',$,(#61));
#63=IFCRELDEFINESBYPROPERTIES('000000001008000000000a',$,$,$,(#54),#62);
#64=IFCSPACE('000000001008000000000b',$,'1.01',$,$,#67,#258,'Schlafen',.ELEMENT.,$,$);
#65=IFCAXIS2PLACEMENT3D(#66,$,$);
#66=IFCCARTESIANPOINT((0.,0.,0.));
#67=IFCLOCALPLACEMENT(#34,#65);
#68=IFCRELAGGREGATES('000000001008000000000c',$,$,$,#31,(#64));
#69=IFCPROPERTYSET('000000001008000000000d',$,'Pset_SpaceCommon',$,(#70));
#70=IFCPROPERTYSINGLEVALUE('IsExternal',$,IFCBOOLEAN(.F.),$);
#71=IFCRELDEFINESBYPROPERTIES('000000001008000000000e',$,$,$,(#64),#69);
#72=IFCPROPERTYBOUNDEDVALUE('SpaceTemperature',$,IFCTHERMODYNAMICTEMPERATUREMEASURE(26.),IFCTHERMODYNAMICTEMPERATUREMEASURE(18.),$,IFCTHERMODYNAMICTEMPERATUREMEASURE(20.));
#73=IFCPROPERTYSET('000000001008000000000f',$,'Pset_SpaceThermalRequirements',$,(#72));
#74=IFCRELDEFINESBYPROPERTIES('000000001008000000000m',$,$,$,(#64),#73);
#75=IFCCLOSEDSHELL((#82,#89,#96,#103,#110,#117));
#76=IFCPOLYLOOP((#77,#78,#79,#80));
#77=IFCCARTESIANPOINT((300.,5700.,0.));
#78=IFCCARTESIANPOINT((9700.,5700.,0.));
#79=IFCCARTESIANPOINT((9700.,300.,0.));
#80=IFCCARTESIANPOINT((300.,300.,0.));
#81=IFCFACEOUTERBOUND(#76,.T.);
#82=IFCFACE((#81));
#83=IFCPOLYLOOP((#84,#85,#86,#87));
#84=IFCCARTESIANPOINT((300.,300.,2200.));
#85=IFCCARTESIANPOINT((9700.,300.,2200.));
#86=IFCCARTESIANPOINT((9700.,5700.,2200.));
#87=IFCCARTESIANPOINT((300.,5700.,2200.));
#88=IFCFACEOUTERBOUND(#83,.T.);
#89=IFCFACE((#88));
#90=IFCPOLYLOOP((#91,#92,#93,#94));
#91=IFCCARTESIANPOINT((300.,300.,0.));
#92=IFCCARTESIANPOINT((9700.,300.,0.));
#93=IFCCARTESIANPOINT((9700.,300.,2200.));
#94=IFCCARTESIANPOINT((300.,300.,2200.));
#95=IFCFACEOUTERBOUND(#90,.T.);
#96=IFCFACE((#95));
#97=IFCPOLYLOOP((#98,#99,#100,#101));
#98=IFCCARTESIANPOINT((9700.,300.,0.));
#99=IFCCARTESIANPOINT((9700.,5700.,0.));
#100=IFCCARTESIANPOINT((9700.,5700.,2200.));
#101=IFCCARTESIANPOINT((9700.,300.,2200.));
#102=IFCFACEOUTERBOUND(#97,.T.);
#103=IFCFACE((#102));
#104=IFCPOLYLOOP((#105,#106,#107,#108));
#105=IFCCARTESIANPOINT((9700.,5700.,0.));
#106=IFCCARTESIANPOINT((300.,5700.,0.));
#107=IFCCARTESIANPOINT((300.,5700.,2200.));
#108=IFCCARTESIANPOINT((9700.,5700.,2200.));
#109=IFCFACEOUTERBOUND(#104,.T.);
#110=IFCFACE((#109));
#111=IFCPOLYLOOP((#112,#113,#114,#115));
#112=IFCCARTESIANPOINT((300.,5700.,0.));
#113=IFCCARTESIANPOINT((300.,300.,0.));
#114=IFCCARTESIANPOINT((300.,300.,2200.));
#115=IFCCARTESIANPOINT((300.,5700.,2200.));
#116=IFCFACEOUTERBOUND(#111,.T.);
#117=IFCFACE((#116));
#118=IFCFACETEDBREP(#75);
#119=IFCSHAPEREPRESENTATION(#8,'Body','Brep',(#118));
#120=IFCPRODUCTDEFINITIONSHAPE($,$,(#119));
#121=IFCCLOSEDSHELL((#128,#135,#142,#149,#156,#163));
#122=IFCPOLYLOOP((#123,#124,#125,#126));
#123=IFCCARTESIANPOINT((300.,5700.,0.));
#124=IFCCARTESIANPOINT((5880.,5700.,0.));
#125=IFCCARTESIANPOINT((5880.,300.,0.));
#126=IFCCARTESIANPOINT((300.,300.,0.));
#127=IFCFACEOUTERBOUND(#122,.T.);
#128=IFCFACE((#127));
#129=IFCPOLYLOOP((#130,#131,#132,#133));
#130=IFCCARTESIANPOINT((300.,300.,2500.));
#131=IFCCARTESIANPOINT((5880.,300.,2500.));
#132=IFCCARTESIANPOINT((5880.,5700.,2500.));
#133=IFCCARTESIANPOINT((300.,5700.,2500.));
#134=IFCFACEOUTERBOUND(#129,.T.);
#135=IFCFACE((#134));
#136=IFCPOLYLOOP((#137,#138,#139,#140));
#137=IFCCARTESIANPOINT((300.,300.,0.));
#138=IFCCARTESIANPOINT((5880.,300.,0.));
#139=IFCCARTESIANPOINT((5880.,300.,2500.));
#140=IFCCARTESIANPOINT((300.,300.,2500.));
#141=IFCFACEOUTERBOUND(#136,.T.);
#142=IFCFACE((#141));
#143=IFCPOLYLOOP((#144,#145,#146,#147));
#144=IFCCARTESIANPOINT((5880.,300.,0.));
#145=IFCCARTESIANPOINT((5880.,5700.,0.));
#146=IFCCARTESIANPOINT((5880.,5700.,2500.));
#147=IFCCARTESIANPOINT((5880.,300.,2500.));
#148=IFCFACEOUTERBOUND(#143,.T.);
#149=IFCFACE((#148));
#150=IFCPOLYLOOP((#151,#152,#153,#154));
#151=IFCCARTESIANPOINT((5880.,5700.,0.));
#152=IFCCARTESIANPOINT((300.,5700.,0.));
#153=IFCCARTESIANPOINT((300.,5700.,2500.));
#154=IFCCARTESIANPOINT((5880.,5700.,2500.));
#155=IFCFACEOUTERBOUND(#150,.T.);
#156=IFCFACE((#155));
#157=IFCPOLYLOOP((#158,#159,#160,#161));
#158=IFCCARTESIANPOINT((300.,5700.,0.));
#159=IFCCARTESIANPOINT((300.,300.,0.));
#160=IFCCARTESIANPOINT((300.,300.,2500.));
#161=IFCCARTESIANPOINT((300.,5700.,2500.));
#162=IFCFACEOUTERBOUND(#157,.T.);
#163=IFCFACE((#162));
#164=IFCFACETEDBREP(#121);
#165=IFCSHAPEREPRESENTATION(#8,'Body','Brep',(#164));
#166=IFCPRODUCTDEFINITIONSHAPE($,$,(#165));
#167=IFCCLOSEDSHELL((#174,#181,#188,#195,#202,#209));
#168=IFCPOLYLOOP((#169,#170,#171,#172));
#169=IFCCARTESIANPOINT((6120.,5700.,0.));
#170=IFCCARTESIANPOINT((9700.,5700.,0.));
#171=IFCCARTESIANPOINT((9700.,300.,0.));
#172=IFCCARTESIANPOINT((6120.,300.,0.));
#173=IFCFACEOUTERBOUND(#168,.T.);
#174=IFCFACE((#173));
#175=IFCPOLYLOOP((#176,#177,#178,#179));
#176=IFCCARTESIANPOINT((6120.,300.,2500.));
#177=IFCCARTESIANPOINT((9700.,300.,2500.));
#178=IFCCARTESIANPOINT((9700.,5700.,2500.));
#179=IFCCARTESIANPOINT((6120.,5700.,2500.));
#180=IFCFACEOUTERBOUND(#175,.T.);
#181=IFCFACE((#180));
#182=IFCPOLYLOOP((#183,#184,#185,#186));
#183=IFCCARTESIANPOINT((6120.,300.,0.));
#184=IFCCARTESIANPOINT((9700.,300.,0.));
#185=IFCCARTESIANPOINT((9700.,300.,2500.));
#186=IFCCARTESIANPOINT((6120.,300.,2500.));
#187=IFCFACEOUTERBOUND(#182,.T.);
#188=IFCFACE((#187));
#189=IFCPOLYLOOP((#190,#191,#192,#193));
#190=IFCCARTESIANPOINT((9700.,300.,0.));
#191=IFCCARTESIANPOINT((9700.,5700.,0.));
#192=IFCCARTESIANPOINT((9700.,5700.,2500.));
#193=IFCCARTESIANPOINT((9700.,300.,2500.));
#194=IFCFACEOUTERBOUND(#189,.T.);
#195=IFCFACE((#194));
#196=IFCPOLYLOOP((#197,#198,#199,#200));
#197=IFCCARTESIANPOINT((9700.,5700.,0.));
#198=IFCCARTESIANPOINT((6120.,5700.,0.));
#199=IFCCARTESIANPOINT((6120.,5700.,2500.));
#200=IFCCARTESIANPOINT((9700.,5700.,2500.));
#201=IFCFACEOUTERBOUND(#196,.T.);
#202=IFCFACE((#201));
#203=IFCPOLYLOOP((#204,#205,#206,#207));
#204=IFCCARTESIANPOINT((6120.,5700.,0.));
#205=IFCCARTESIANPOINT((6120.,300.,0.));
#206=IFCCARTESIANPOINT((6120.,300.,2500.));
#207=IFCCARTESIANPOINT((6120.,5700.,2500.));
#208=IFCFACEOUTERBOUND(#203,.T.);
#209=IFCFACE((#208));
#210=IFCFACETEDBREP(#167);
#211=IFCSHAPEREPRESENTATION(#8,'Body','Brep',(#210));
#212=IFCPRODUCTDEFINITIONSHAPE($,$,(#211));
#213=IFCCLOSEDSHELL((#220,#227,#234,#241,#248,#255));
#214=IFCPOLYLOOP((#215,#216,#217,#218));
#215=IFCCARTESIANPOINT((300.,5700.,0.));
#216=IFCCARTESIANPOINT((9700.,5700.,0.));
#217=IFCCARTESIANPOINT((9700.,300.,0.));
#218=IFCCARTESIANPOINT((300.,300.,0.));
#219=IFCFACEOUTERBOUND(#214,.T.);
#220=IFCFACE((#219));
#221=IFCPOLYLOOP((#222,#223,#224,#225));
#222=IFCCARTESIANPOINT((300.,300.,1000.));
#223=IFCCARTESIANPOINT((9700.,300.,1000.));
#224=IFCCARTESIANPOINT((9700.,5700.,5050.));
#225=IFCCARTESIANPOINT((300.,5700.,5050.));
#226=IFCFACEOUTERBOUND(#221,.T.);
#227=IFCFACE((#226));
#228=IFCPOLYLOOP((#229,#230,#231,#232));
#229=IFCCARTESIANPOINT((300.,300.,0.));
#230=IFCCARTESIANPOINT((9700.,300.,0.));
#231=IFCCARTESIANPOINT((9700.,300.,1000.));
#232=IFCCARTESIANPOINT((300.,300.,1000.));
#233=IFCFACEOUTERBOUND(#228,.T.);
#234=IFCFACE((#233));
#235=IFCPOLYLOOP((#236,#237,#238,#239));
#236=IFCCARTESIANPOINT((9700.,300.,0.));
#237=IFCCARTESIANPOINT((9700.,5700.,0.));
#238=IFCCARTESIANPOINT((9700.,5700.,5050.));
#239=IFCCARTESIANPOINT((9700.,300.,1000.));
#240=IFCFACEOUTERBOUND(#235,.T.);
#241=IFCFACE((#240));
#242=IFCPOLYLOOP((#243,#244,#245,#246));
#243=IFCCARTESIANPOINT((9700.,5700.,0.));
#244=IFCCARTESIANPOINT((300.,5700.,0.));
#245=IFCCARTESIANPOINT((300.,5700.,5050.));
#246=IFCCARTESIANPOINT((9700.,5700.,5050.));
#247=IFCFACEOUTERBOUND(#242,.T.);
#248=IFCFACE((#247));
#249=IFCPOLYLOOP((#250,#251,#252,#253));
#250=IFCCARTESIANPOINT((300.,5700.,0.));
#251=IFCCARTESIANPOINT((300.,300.,0.));
#252=IFCCARTESIANPOINT((300.,300.,1000.));
#253=IFCCARTESIANPOINT((300.,5700.,5050.));
#254=IFCFACEOUTERBOUND(#249,.T.);
#255=IFCFACE((#254));
#256=IFCFACETEDBREP(#213);
#257=IFCSHAPEREPRESENTATION(#8,'Body','Brep',(#256));
#258=IFCPRODUCTDEFINITIONSHAPE($,$,(#257));
#259=IFCSLAB('000000001008000000000n',$,'Bodenplatte',$,$,#262,#313,$,.BASESLAB.);
#260=IFCAXIS2PLACEMENT3D(#261,$,$);
#261=IFCCARTESIANPOINT((0.,0.,0.));
#262=IFCLOCALPLACEMENT(#25,#260);
#263=IFCRELCONTAINEDINSPATIALSTRUCTURE('000000001008000000000o',$,$,$,(#259,#314,#368,#422,#476,#530),#22);
#264=IFCPROPERTYSET('000000001008000000000p',$,'Pset_SlabCommon',$,(#265,#266));
#265=IFCPROPERTYSINGLEVALUE('IsExternal',$,IFCBOOLEAN(.T.),$);
#266=IFCPROPERTYSINGLEVALUE('ThermalTransmittance',$,IFCTHERMALTRANSMITTANCEMEASURE(0.25),$);
#267=IFCRELDEFINESBYPROPERTIES('000000001008000000000q',$,$,$,(#259),#264);
#268=IFCCLOSEDSHELL((#275,#282,#289,#296,#303,#310));
#269=IFCPOLYLOOP((#270,#271,#272,#273));
#270=IFCCARTESIANPOINT((0.,6000.,-300.));
#271=IFCCARTESIANPOINT((10000.,6000.,-300.));
#272=IFCCARTESIANPOINT((10000.,0.,-300.));
#273=IFCCARTESIANPOINT((0.,0.,-300.));
#274=IFCFACEOUTERBOUND(#269,.T.);
#275=IFCFACE((#274));
#276=IFCPOLYLOOP((#277,#278,#279,#280));
#277=IFCCARTESIANPOINT((0.,0.,0.));
#278=IFCCARTESIANPOINT((10000.,0.,0.));
#279=IFCCARTESIANPOINT((10000.,6000.,0.));
#280=IFCCARTESIANPOINT((0.,6000.,0.));
#281=IFCFACEOUTERBOUND(#276,.T.);
#282=IFCFACE((#281));
#283=IFCPOLYLOOP((#284,#285,#286,#287));
#284=IFCCARTESIANPOINT((0.,0.,-300.));
#285=IFCCARTESIANPOINT((10000.,0.,-300.));
#286=IFCCARTESIANPOINT((10000.,0.,0.));
#287=IFCCARTESIANPOINT((0.,0.,0.));
#288=IFCFACEOUTERBOUND(#283,.T.);
#289=IFCFACE((#288));
#290=IFCPOLYLOOP((#291,#292,#293,#294));
#291=IFCCARTESIANPOINT((10000.,0.,-300.));
#292=IFCCARTESIANPOINT((10000.,6000.,-300.));
#293=IFCCARTESIANPOINT((10000.,6000.,0.));
#294=IFCCARTESIANPOINT((10000.,0.,0.));
#295=IFCFACEOUTERBOUND(#290,.T.);
#296=IFCFACE((#295));
#297=IFCPOLYLOOP((#298,#299,#300,#301));
#298=IFCCARTESIANPOINT((10000.,6000.,-300.));
#299=IFCCARTESIANPOINT((0.,6000.,-300.));
#300=IFCCARTESIANPOINT((0.,6000.,0.));
#301=IFCCARTESIANPOINT((10000.,6000.,0.));
#302=IFCFACEOUTERBOUND(#297,.T.);
#303=IFCFACE((#302));
#304=IFCPOLYLOOP((#305,#306,#307,#308));
#305=IFCCARTESIANPOINT((0.,6000.,-300.));
#306=IFCCARTESIANPOINT((0.,0.,-300.));
#307=IFCCARTESIANPOINT((0.,0.,0.));
#308=IFCCARTESIANPOINT((0.,6000.,0.));
#309=IFCFACEOUTERBOUND(#304,.T.);
#310=IFCFACE((#309));
#311=IFCFACETEDBREP(#268);
#312=IFCSHAPEREPRESENTATION(#8,'Body','Brep',(#311));
#313=IFCPRODUCTDEFINITIONSHAPE($,$,(#312));
#314=IFCWALL('000000001008000000000r',$,'Wand S\X\FCd KG',$,$,#317,#367,$,.STANDARD.);
#315=IFCAXIS2PLACEMENT3D(#316,$,$);
#316=IFCCARTESIANPOINT((0.,0.,0.));
#317=IFCLOCALPLACEMENT(#25,#315);
#318=IFCPROPERTYSET('000000001008000000000s',$,'Pset_WallCommon',$,(#319,#320));
#319=IFCPROPERTYSINGLEVALUE('IsExternal',$,IFCBOOLEAN(.T.),$);
#320=IFCPROPERTYSINGLEVALUE('ThermalTransmittance',$,IFCTHERMALTRANSMITTANCEMEASURE(0.3),$);
#321=IFCRELDEFINESBYPROPERTIES('000000001008000000000t',$,$,$,(#314),#318);
#322=IFCCLOSEDSHELL((#329,#336,#343,#350,#357,#364));
#323=IFCPOLYLOOP((#324,#325,#326,#327));
#324=IFCCARTESIANPOINT((0.,300.,0.));
#325=IFCCARTESIANPOINT((10000.,300.,0.));
#326=IFCCARTESIANPOINT((10000.,0.,0.));
#327=IFCCARTESIANPOINT((0.,0.,0.));
#328=IFCFACEOUTERBOUND(#323,.T.);
#329=IFCFACE((#328));
#330=IFCPOLYLOOP((#331,#332,#333,#334));
#331=IFCCARTESIANPOINT((0.,0.,2500.));
#332=IFCCARTESIANPOINT((10000.,0.,2500.));
#333=IFCCARTESIANPOINT((10000.,300.,2500.));
#334=IFCCARTESIANPOINT((0.,300.,2500.));
#335=IFCFACEOUTERBOUND(#330,.T.);
#336=IFCFACE((#335));
#337=IFCPOLYLOOP((#338,#339,#340,#341));
#338=IFCCARTESIANPOINT((0.,0.,0.));
#339=IFCCARTESIANPOINT((10000.,0.,0.));
#340=IFCCARTESIANPOINT((10000.,0.,2500.));
#341=IFCCARTESIANPOINT((0.,0.,2500.));
#342=IFCFACEOUTERBOUND(#337,.T.);
#343=IFCFACE((#342));
#344=IFCPOLYLOOP((#345,#346,#347,#348));
#345=IFCCARTESIANPOINT((10000.,0.,0.));
#346=IFCCARTESIANPOINT((10000.,300.,0.));
#347=IFCCARTESIANPOINT((10000.,300.,2500.));
#348=IFCCARTESIANPOINT((10000.,0.,2500.));
#349=IFCFACEOUTERBOUND(#344,.T.);
#350=IFCFACE((#349));
#351=IFCPOLYLOOP((#352,#353,#354,#355));
#352=IFCCARTESIANPOINT((10000.,300.,0.));
#353=IFCCARTESIANPOINT((0.,300.,0.));
#354=IFCCARTESIANPOINT((0.,300.,2500.));
#355=IFCCARTESIANPOINT((10000.,300.,2500.));
#356=IFCFACEOUTERBOUND(#351,.T.);
#357=IFCFACE((#356));
#358=IFCPOLYLOOP((#359,#360,#361,#362));
#359=IFCCARTESIANPOINT((0.,300.,0.));
#360=IFCCARTESIANPOINT((0.,0.,0.));
#361=IFCCARTESIANPOINT((0.,0.,2500.));
#362=IFCCARTESIANPOINT((0.,300.,2500.));
#363=IFCFACEOUTERBOUND(#358,.T.);
#364=IFCFACE((#363));
#365=IFCFACETEDBREP(#322);
#366=IFCSHAPEREPRESENTATION(#8,'Body','Brep',(#365));
#367=IFCPRODUCTDEFINITIONSHAPE($,$,(#366));
#368=IFCWALL('000000001008000000000u',$,'Wand Nord KG',$,$,#371,#421,$,.STANDARD.);
#369=IFCAXIS2PLACEMENT3D(#370,$,$);
#370=IFCCARTESIANPOINT((0.,0.,0.));
#371=IFCLOCALPLACEMENT(#25,#369);
#372=IFCPROPERTYSET('000000001008000000000v',$,'Pset_WallCommon',$,(#373,#374));
#373=IFCPROPERTYSINGLEVALUE('IsExternal',$,IFCBOOLEAN(.T.),$);
#374=IFCPROPERTYSINGLEVALUE('ThermalTransmittance',$,IFCTHERMALTRANSMITTANCEMEASURE(0.3),$);
#375=IFCRELDEFINESBYPROPERTIES('0000000010080000000010',$,$,$,(#368),#372);
#376=IFCCLOSEDSHELL((#383,#390,#397,#404,#411,#418));
#377=IFCPOLYLOOP((#378,#379,#380,#381));
#378=IFCCARTESIANPOINT((0.,6000.,0.));
#379=IFCCARTESIANPOINT((10000.,6000.,0.));
#380=IFCCARTESIANPOINT((10000.,5700.,0.));
#381=IFCCARTESIANPOINT((0.,5700.,0.));
#382=IFCFACEOUTERBOUND(#377,.T.);
#383=IFCFACE((#382));
#384=IFCPOLYLOOP((#385,#386,#387,#388));
#385=IFCCARTESIANPOINT((0.,5700.,2500.));
#386=IFCCARTESIANPOINT((10000.,5700.,2500.));
#387=IFCCARTESIANPOINT((10000.,6000.,2500.));
#388=IFCCARTESIANPOINT((0.,6000.,2500.));
#389=IFCFACEOUTERBOUND(#384,.T.);
#390=IFCFACE((#389));
#391=IFCPOLYLOOP((#392,#393,#394,#395));
#392=IFCCARTESIANPOINT((0.,5700.,0.));
#393=IFCCARTESIANPOINT((10000.,5700.,0.));
#394=IFCCARTESIANPOINT((10000.,5700.,2500.));
#395=IFCCARTESIANPOINT((0.,5700.,2500.));
#396=IFCFACEOUTERBOUND(#391,.T.);
#397=IFCFACE((#396));
#398=IFCPOLYLOOP((#399,#400,#401,#402));
#399=IFCCARTESIANPOINT((10000.,5700.,0.));
#400=IFCCARTESIANPOINT((10000.,6000.,0.));
#401=IFCCARTESIANPOINT((10000.,6000.,2500.));
#402=IFCCARTESIANPOINT((10000.,5700.,2500.));
#403=IFCFACEOUTERBOUND(#398,.T.);
#404=IFCFACE((#403));
#405=IFCPOLYLOOP((#406,#407,#408,#409));
#406=IFCCARTESIANPOINT((10000.,6000.,0.));
#407=IFCCARTESIANPOINT((0.,6000.,0.));
#408=IFCCARTESIANPOINT((0.,6000.,2500.));
#409=IFCCARTESIANPOINT((10000.,6000.,2500.));
#410=IFCFACEOUTERBOUND(#405,.T.);
#411=IFCFACE((#410));
#412=IFCPOLYLOOP((#413,#414,#415,#416));
#413=IFCCARTESIANPOINT((0.,6000.,0.));
#414=IFCCARTESIANPOINT((0.,5700.,0.));
#415=IFCCARTESIANPOINT((0.,5700.,2500.));
#416=IFCCARTESIANPOINT((0.,6000.,2500.));
#417=IFCFACEOUTERBOUND(#412,.T.);
#418=IFCFACE((#417));
#419=IFCFACETEDBREP(#376);
#420=IFCSHAPEREPRESENTATION(#8,'Body','Brep',(#419));
#421=IFCPRODUCTDEFINITIONSHAPE($,$,(#420));
#422=IFCWALL('0000000010080000000011',$,'Wand West KG',$,$,#425,#475,$,.STANDARD.);
#423=IFCAXIS2PLACEMENT3D(#424,$,$);
#424=IFCCARTESIANPOINT((0.,0.,0.));
#425=IFCLOCALPLACEMENT(#25,#423);
#426=IFCPROPERTYSET('0000000010080000000012',$,'Pset_WallCommon',$,(#427,#428));
#427=IFCPROPERTYSINGLEVALUE('IsExternal',$,IFCBOOLEAN(.T.),$);
#428=IFCPROPERTYSINGLEVALUE('ThermalTransmittance',$,IFCTHERMALTRANSMITTANCEMEASURE(0.3),$);
#429=IFCRELDEFINESBYPROPERTIES('0000000010080000000013',$,$,$,(#422),#426);
#430=IFCCLOSEDSHELL((#437,#444,#451,#458,#465,#472));
#431=IFCPOLYLOOP((#432,#433,#434,#435));
#432=IFCCARTESIANPOINT((0.,5700.,0.));
#433=IFCCARTESIANPOINT((300.,5700.,0.));
#434=IFCCARTESIANPOINT((300.,300.,0.));
#435=IFCCARTESIANPOINT((0.,300.,0.));
#436=IFCFACEOUTERBOUND(#431,.T.);
#437=IFCFACE((#436));
#438=IFCPOLYLOOP((#439,#440,#441,#442));
#439=IFCCARTESIANPOINT((0.,300.,2500.));
#440=IFCCARTESIANPOINT((300.,300.,2500.));
#441=IFCCARTESIANPOINT((300.,5700.,2500.));
#442=IFCCARTESIANPOINT((0.,5700.,2500.));
#443=IFCFACEOUTERBOUND(#438,.T.);
#444=IFCFACE((#443));
#445=IFCPOLYLOOP((#446,#447,#448,#449));
#446=IFCCARTESIANPOINT((0.,300.,0.));
#447=IFCCARTESIANPOINT((300.,300.,0.));
#448=IFCCARTESIANPOINT((300.,300.,2500.));
#449=IFCCARTESIANPOINT((0.,300.,2500.));
#450=IFCFACEOUTERBOUND(#445,.T.);
#451=IFCFACE((#450));
#452=IFCPOLYLOOP((#453,#454,#455,#456));
#453=IFCCARTESIANPOINT((300.,300.,0.));
#454=IFCCARTESIANPOINT((300.,5700.,0.));
#455=IFCCARTESIANPOINT((300.,5700.,2500.));
#456=IFCCARTESIANPOINT((300.,300.,2500.));
#457=IFCFACEOUTERBOUND(#452,.T.);
#458=IFCFACE((#457));
#459=IFCPOLYLOOP((#460,#461,#462,#463));
#460=IFCCARTESIANPOINT((300.,5700.,0.));
#461=IFCCARTESIANPOINT((0.,5700.,0.));
#462=IFCCARTESIANPOINT((0.,5700.,2500.));
#463=IFCCARTESIANPOINT((300.,5700.,2500.));
#464=IFCFACEOUTERBOUND(#459,.T.);
#465=IFCFACE((#464));
#466=IFCPOLYLOOP((#467,#468,#469,#470));
#467=IFCCARTESIANPOINT((0.,5700.,0.));
#468=IFCCARTESIANPOINT((0.,300.,0.));
#469=IFCCARTESIANPOINT((0.,300.,2500.));
#470=IFCCARTESIANPOINT((0.,5700.,2500.));
#471=IFCFACEOUTERBOUND(#466,.T.);
#472=IFCFACE((#471));
#473=IFCFACETEDBREP(#430);
#474=IFCSHAPEREPRESENTATION(#8,'Body','Brep',(#473));
#475=IFCPRODUCTDEFINITIONSHAPE($,$,(#474));
#476=IFCWALL('0000000010080000000014',$,'Wand Ost KG',$,$,#479,#529,$,.STANDARD.);
#477=IFCAXIS2PLACEMENT3D(#478,$,$);
#478=IFCCARTESIANPOINT((0.,0.,0.));
#479=IFCLOCALPLACEMENT(#25,#477);
#480=IFCPROPERTYSET('0000000010080000000015',$,'Pset_WallCommon',$,(#481,#482));
#481=IFCPROPERTYSINGLEVALUE('IsExternal',$,IFCBOOLEAN(.T.),$);
#482=IFCPROPERTYSINGLEVALUE('ThermalTransmittance',$,IFCTHERMALTRANSMITTANCEMEASURE(0.3),$);
#483=IFCRELDEFINESBYPROPERTIES('0000000010080000000016',$,$,$,(#476),#480);
#484=IFCCLOSEDSHELL((#491,#498,#505,#512,#519,#526));
#485=IFCPOLYLOOP((#486,#487,#488,#489));
#486=IFCCARTESIANPOINT((9700.,5700.,0.));
#487=IFCCARTESIANPOINT((10000.,5700.,0.));
#488=IFCCARTESIANPOINT((10000.,300.,0.));
#489=IFCCARTESIANPOINT((9700.,300.,0.));
#490=IFCFACEOUTERBOUND(#485,.T.);
#491=IFCFACE((#490));
#492=IFCPOLYLOOP((#493,#494,#495,#496));
#493=IFCCARTESIANPOINT((9700.,300.,2500.));
#494=IFCCARTESIANPOINT((10000.,300.,2500.));
#495=IFCCARTESIANPOINT((10000.,5700.,2500.));
#496=IFCCARTESIANPOINT((9700.,5700.,2500.));
#497=IFCFACEOUTERBOUND(#492,.T.);
#498=IFCFACE((#497));
#499=IFCPOLYLOOP((#500,#501,#502,#503));
#500=IFCCARTESIANPOINT((9700.,300.,0.));
#501=IFCCARTESIANPOINT((10000.,300.,0.));
#502=IFCCARTESIANPOINT((10000.,300.,2500.));
#503=IFCCARTESIANPOINT((9700.,300.,2500.));
#504=IFCFACEOUTERBOUND(#499,.T.);
#505=IFCFACE((#504));
#506=IFCPOLYLOOP((#507,#508,#509,#510));
#507=IFCCARTESIANPOINT((10000.,300.,0.));
#508=IFCCARTESIANPOINT((10000.,5700.,0.));
#509=IFCCARTESIANPOINT((10000.,5700.,2500.));
#510=IFCCARTESIANPOINT((10000.,300.,2500.));
#511=IFCFACEOUTERBOUND(#506,.T.);
#512=IFCFACE((#511));
#513=IFCPOLYLOOP((#514,#515,#516,#517));
#514=IFCCARTESIANPOINT((10000.,5700.,0.));
#515=IFCCARTESIANPOINT((9700.,5700.,0.));
#516=IFCCARTESIANPOINT((9700.,5700.,2500.));
#517=IFCCARTESIANPOINT((10000.,5700.,2500.));
#518=IFCFACEOUTERBOUND(#513,.T.);
#519=IFCFACE((#518));
#520=IFCPOLYLOOP((#521,#522,#523,#524));
#521=IFCCARTESIANPOINT((9700.,5700.,0.));
#522=IFCCARTESIANPOINT((9700.,300.,0.));
#523=IFCCARTESIANPOINT((9700.,300.,2500.));
#524=IFCCARTESIANPOINT((9700.,5700.,2500.));
#525=IFCFACEOUTERBOUND(#520,.T.);
#526=IFCFACE((#525));
#527=IFCFACETEDBREP(#484);
#528=IFCSHAPEREPRESENTATION(#8,'Body','Brep',(#527));
#529=IFCPRODUCTDEFINITIONSHAPE($,$,(#528));
#530=IFCSLAB('0000000010080000000017',$,'Kellerdecke',$,$,#533,#583,$,.FLOOR.);
#531=IFCAXIS2PLACEMENT3D(#532,$,$);
#532=IFCCARTESIANPOINT((0.,0.,0.));
#533=IFCLOCALPLACEMENT(#25,#531);
#534=IFCPROPERTYSET('0000000010080000000018',$,'Pset_SlabCommon',$,(#535,#536));
#535=IFCPROPERTYSINGLEVALUE('IsExternal',$,IFCBOOLEAN(.F.),$);
#536=IFCPROPERTYSINGLEVALUE('ThermalTransmittance',$,IFCTHERMALTRANSMITTANCEMEASURE(0.8),$);
#537=IFCRELDEFINESBYPROPERTIES('0000000010080000000019',$,$,$,(#530),#534);
#538=IFCCLOSEDSHELL((#545,#552,#559,#566,#573,#580));
#539=IFCPOLYLOOP((#540,#541,#542,#543));
#540=IFCCARTESIANPOINT((300.,5700.,2200.));
#541=IFCCARTESIANPOINT((9700.,5700.,2200.));
#542=IFCCARTESIANPOINT((9700.,300.,2200.));
#543=IFCCARTESIANPOINT((300.,300.,2200.));
#544=IFCFACEOUTERBOUND(#539,.T.);
#545=IFCFACE((#544));
#546=IFCPOLYLOOP((#547,#548,#549,#550));
#547=IFCCARTESIANPOINT((300.,300.,2500.));
#548=IFCCARTESIANPOINT((9700.,300.,2500.));
#549=IFCCARTESIANPOINT((9700.,5700.,2500.));
#550=IFCCARTESIANPOINT((300.,5700.,2500.));
#551=IFCFACEOUTERBOUND(#546,.T.);
#552=IFCFACE((#551));
#553=IFCPOLYLOOP((#554,#555,#556,#557));
#554=IFCCARTESIANPOINT((300.,300.,2200.));
#555=IFCCARTESIANPOINT((9700.,300.,2200.));
#556=IFCCARTESIANPOINT((9700.,300.,2500.));
#557=IFCCARTESIANPOINT((300.,300.,2500.));
#558=IFCFACEOUTERBOUND(#553,.T.);
#559=IFCFACE((#558));
#560=IFCPOLYLOOP((#561,#562,#563,#564));
#561=IFCCARTESIANPOINT((9700.,300.,2200.));
#562=IFCCARTESIANPOINT((9700.,5700.,2200.));
#563=IFCCARTESIANPOINT((9700.,5700.,2500.));
#564=IFCCARTESIANPOINT((9700.,300.,2500.));
#565=IFCFACEOUTERBOUND(#560,.T.);
#566=IFCFACE((#565));
#567=IFCPOLYLOOP((#568,#569,#570,#571));
#568=IFCCARTESIANPOINT((9700.,5700.,2200.));
#569=IFCCARTESIANPOINT((300.,5700.,2200.));
#570=IFCCARTESIANPOINT((300.,5700.,2500.));
#571=IFCCARTESIANPOINT((9700.,5700.,2500.));
#572=IFCFACEOUTERBOUND(#567,.T.);
#573=IFCFACE((#572));
#574=IFCPOLYLOOP((#575,#576,#577,#578));
#575=IFCCARTESIANPOINT((300.,5700.,2200.));
#576=IFCCARTESIANPOINT((300.,300.,2200.));
#577=IFCCARTESIANPOINT((300.,300.,2500.));
#578=IFCCARTESIANPOINT((300.,5700.,2500.));
#579=IFCFACEOUTERBOUND(#574,.T.);
#580=IFCFACE((#579));
#581=IFCFACETEDBREP(#538);
#582=IFCSHAPEREPRESENTATION(#8,'Body','Brep',(#581));
#583=IFCPRODUCTDEFINITIONSHAPE($,$,(#582));
#584=IFCWALL('000000001008000000001G',$,'Wand S\X\FCd EG',$,$,#587,#638,$,.STANDARD.);
#585=IFCAXIS2PLACEMENT3D(#586,$,$);
#586=IFCCARTESIANPOINT((0.,0.,0.));
#587=IFCLOCALPLACEMENT(#30,#585);
#588=IFCRELCONTAINEDINSPATIALSTRUCTURE('000000001008000000001H',$,$,$,(#584,#639,#693,#747,#801,#855,#960,#1017),#27);
#589=IFCPROPERTYSET('000000001008000000001I',$,'Pset_WallCommon',$,(#590,#591));
#590=IFCPROPERTYSINGLEVALUE('IsExternal',$,IFCBOOLEAN(.T.),$);
#591=IFCPROPERTYSINGLEVALUE('ThermalTransmittance',$,IFCTHERMALTRANSMITTANCEMEASURE(0.3),$);
#592=IFCRELDEFINESBYPROPERTIES('000000001008000000001J',$,$,$,(#584),#589);
#593=IFCCLOSEDSHELL((#600,#607,#614,#621,#628,#635));
#594=IFCPOLYLOOP((#595,#596,#597,#598));
#595=IFCCARTESIANPOINT((0.,300.,0.));
#596=IFCCARTESIANPOINT((10000.,300.,0.));
#597=IFCCARTESIANPOINT((10000.,0.,0.));
#598=IFCCARTESIANPOINT((0.,0.,0.));
#599=IFCFACEOUTERBOUND(#594,.T.);
#600=IFCFACE((#599));
#601=IFCPOLYLOOP((#602,#603,#604,#605));
#602=IFCCARTESIANPOINT((0.,0.,2800.));
#603=IFCCARTESIANPOINT((10000.,0.,2800.));
#604=IFCCARTESIANPOINT((10000.,300.,2800.));
#605=IFCCARTESIANPOINT((0.,300.,2800.));
#606=IFCFACEOUTERBOUND(#601,.T.);
#607=IFCFACE((#606));
#608=IFCPOLYLOOP((#609,#610,#611,#612));
#609=IFCCARTESIANPOINT((0.,0.,0.));
#610=IFCCARTESIANPOINT((10000.,0.,0.));
#611=IFCCARTESIANPOINT((10000.,0.,2800.));
#612=IFCCARTESIANPOINT((0.,0.,2800.));
#613=IFCFACEOUTERBOUND(#608,.T.);
#614=IFCFACE((#613));
#615=IFCPOLYLOOP((#616,#617,#618,#619));
#616=IFCCARTESIANPOINT((10000.,0.,0.));
#617=IFCCARTESIANPOINT((10000.,300.,0.));
#618=IFCCARTESIANPOINT((10000.,300.,2800.));
#619=IFCCARTESIANPOINT((10000.,0.,2800.));
#620=IFCFACEOUTERBOUND(#615,.T.);
#621=IFCFACE((#620));
#622=IFCPOLYLOOP((#623,#624,#625,#626));
#623=IFCCARTESIANPOINT((10000.,300.,0.));
#624=IFCCARTESIANPOINT((0.,300.,0.));
#625=IFCCARTESIANPOINT((0.,300.,2800.));
#626=IFCCARTESIANPOINT((10000.,300.,2800.));
#627=IFCFACEOUTERBOUND(#622,.T.);
#628=IFCFACE((#627));
#629=IFCPOLYLOOP((#630,#631,#632,#633));
#630=IFCCARTESIANPOINT((0.,300.,0.));
#631=IFCCARTESIANPOINT((0.,0.,0.));
#632=IFCCARTESIANPOINT((0.,0.,2800.));
#633=IFCCARTESIANPOINT((0.,300.,2800.));
#634=IFCFACEOUTERBOUND(#629,.T.);
#635=IFCFACE((#634));
#636=IFCFACETEDBREP(#593);
#637=IFCSHAPEREPRESENTATION(#8,'Body','Brep',(#636));
#638=IFCPRODUCTDEFINITIONSHAPE($,$,(#637));
#639=IFCWALL('000000001008000000001K',$,'Wand Nord EG',$,$,#642,#692,$,.STANDARD.);
#640=IFCAXIS2PLACEMENT3D(#641,$,$);
#641=IFCCARTESIANPOINT((0.,0.,0.));
#642=IFCLOCALPLACEMENT(#30,#640);
#643=IFCPROPERTYSET('000000001008000000001L',$,'Pset_WallCommon',$,(#644,#645));
#644=IFCPROPERTYSINGLEVALUE('IsExternal',$,IFCBOOLEAN(.T.),$);
#645=IFCPROPERTYSINGLEVALUE('ThermalTransmittance',$,IFCTHERMALTRANSMITTANCEMEASURE(0.3),$);
#646=IFCRELDEFINESBYPROPERTIES('000000001008000000001M',$,$,$,(#639),#643);
#647=IFCCLOSEDSHELL((#654,#661,#668,#675,#682,#689));
#648=IFCPOLYLOOP((#649,#650,#651,#652));
#649=IFCCARTESIANPOINT((0.,6000.,0.));
#650=IFCCARTESIANPOINT((10000.,6000.,0.));
#651=IFCCARTESIANPOINT((10000.,5700.,0.));
#652=IFCCARTESIANPOINT((0.,5700.,0.));
#653=IFCFACEOUTERBOUND(#648,.T.);
#654=IFCFACE((#653));
#655=IFCPOLYLOOP((#656,#657,#658,#659));
#656=IFCCARTESIANPOINT((0.,5700.,2800.));
#657=IFCCARTESIANPOINT((10000.,5700.,2800.));
#658=IFCCARTESIANPOINT((10000.,6000.,2800.));
#659=IFCCARTESIANPOINT((0.,6000.,2800.));
#660=IFCFACEOUTERBOUND(#655,.T.);
#661=IFCFACE((#660));
#662=IFCPOLYLOOP((#663,#664,#665,#666));
#663=IFCCARTESIANPOINT((0.,5700.,0.));
#664=IFCCARTESIANPOINT((10000.,5700.,0.));
#665=IFCCARTESIANPOINT((10000.,5700.,2800.));
#666=IFCCARTESIANPOINT((0.,5700.,2800.));
#667=IFCFACEOUTERBOUND(#662,.T.);
#668=IFCFACE((#667));
#669=IFCPOLYLOOP((#670,#671,#672,#673));
#670=IFCCARTESIANPOINT((10000.,5700.,0.));
#671=IFCCARTESIANPOINT((10000.,6000.,0.));
#672=IFCCARTESIANPOINT((10000.,6000.,2800.));
#673=IFCCARTESIANPOINT((10000.,5700.,2800.));
#674=IFCFACEOUTERBOUND(#669,.T.);
#675=IFCFACE((#674));
#676=IFCPOLYLOOP((#677,#678,#679,#680));
#677=IFCCARTESIANPOINT((10000.,6000.,0.));
#678=IFCCARTESIANPOINT((0.,6000.,0.));
#679=IFCCARTESIANPOINT((0.,6000.,2800.));
#680=IFCCARTESIANPOINT((10000.,6000.,2800.));
#681=IFCFACEOUTERBOUND(#676,.T.);
#682=IFCFACE((#681));
#683=IFCPOLYLOOP((#684,#685,#686,#687));
#684=IFCCARTESIANPOINT((0.,6000.,0.));
#685=IFCCARTESIANPOINT((0.,5700.,0.));
#686=IFCCARTESIANPOINT((0.,5700.,2800.));
#687=IFCCARTESIANPOINT((0.,6000.,2800.));
#688=IFCFACEOUTERBOUND(#683,.T.);
#689=IFCFACE((#688));
#690=IFCFACETEDBREP(#647);
#691=IFCSHAPEREPRESENTATION(#8,'Body','Brep',(#690));
#692=IFCPRODUCTDEFINITIONSHAPE($,$,(#691));
#693=IFCWALL('000000001008000000001N',$,'Wand West EG',$,$,#696,#746,$,.STANDARD.);
#694=IFCAXIS2PLACEMENT3D(#695,$,$);
#695=IFCCARTESIANPOINT((0.,0.,0.));
#696=IFCLOCALPLACEMENT(#30,#694);
#697=IFCPROPERTYSET('000000001008000000001O',$,'Pset_WallCommon',$,(#698,#699));
#698=IFCPROPERTYSINGLEVALUE('IsExternal',$,IFCBOOLEAN(.T.),$);
#699=IFCPROPERTYSINGLEVALUE('ThermalTransmittance',$,IFCTHERMALTRANSMITTANCEMEASURE(0.3),$);
#700=IFCRELDEFINESBYPROPERTIES('000000001008000000001P',$,$,$,(#693),#697);
#701=IFCCLOSEDSHELL((#708,#715,#722,#729,#736,#743));
#702=IFCPOLYLOOP((#703,#704,#705,#706));
#703=IFCCARTESIANPOINT((0.,5700.,0.));
#704=IFCCARTESIANPOINT((300.,5700.,0.));
#705=IFCCARTESIANPOINT((300.,300.,0.));
#706=IFCCARTESIANPOINT((0.,300.,0.));
#707=IFCFACEOUTERBOUND(#702,.T.);
#708=IFCFACE((#707));
#709=IFCPOLYLOOP((#710,#711,#712,#713));
#710=IFCCARTESIANPOINT((0.,300.,2800.));
#711=IFCCARTESIANPOINT((300.,300.,2800.));
#712=IFCCARTESIANPOINT((300.,5700.,2800.));
#713=IFCCARTESIANPOINT((0.,5700.,2800.));
#714=IFCFACEOUTERBOUND(#709,.T.);
#715=IFCFACE((#714));
#716=IFCPOLYLOOP((#717,#718,#719,#720));
#717=IFCCARTESIANPOINT((0.,300.,0.));
#718=IFCCARTESIANPOINT((300.,300.,0.));
#719=IFCCARTESIANPOINT((300.,300.,2800.));
#720=IFCCARTESIANPOINT((0.,300.,2800.));
#721=IFCFACEOUTERBOUND(#716,.T.);
#722=IFCFACE((#721));
#723=IFCPOLYLOOP((#724,#725,#726,#727));
#724=IFCCARTESIANPOINT((300.,300.,0.));
#725=IFCCARTESIANPOINT((300.,5700.,0.));
#726=IFCCARTESIANPOINT((300.,5700.,2800.));
#727=IFCCARTESIANPOINT((300.,300.,2800.));
#728=IFCFACEOUTERBOUND(#723,.T.);
#729=IFCFACE((#728));
#730=IFCPOLYLOOP((#731,#732,#733,#734));
#731=IFCCARTESIANPOINT((300.,5700.,0.));
#732=IFCCARTESIANPOINT((0.,5700.,0.));
#733=IFCCARTESIANPOINT((0.,5700.,2800.));
#734=IFCCARTESIANPOINT((300.,5700.,2800.));
#735=IFCFACEOUTERBOUND(#730,.T.);
#736=IFCFACE((#735));
#737=IFCPOLYLOOP((#738,#739,#740,#741));
#738=IFCCARTESIANPOINT((0.,5700.,0.));
#739=IFCCARTESIANPOINT((0.,300.,0.));
#740=IFCCARTESIANPOINT((0.,300.,2800.));
#741=IFCCARTESIANPOINT((0.,5700.,2800.));
#742=IFCFACEOUTERBOUND(#737,.T.);
#743=IFCFACE((#742));
#744=IFCFACETEDBREP(#701);
#745=IFCSHAPEREPRESENTATION(#8,'Body','Brep',(#744));
#746=IFCPRODUCTDEFINITIONSHAPE($,$,(#745));
#747=IFCWALL('000000001008000000001W',$,'Wand Ost EG',$,$,#750,#800,$,.STANDARD.);
#748=IFCAXIS2PLACEMENT3D(#749,$,$);
#749=IFCCARTESIANPOINT((0.,0.,0.));
#750=IFCLOCALPLACEMENT(#30,#748);
#751=IFCPROPERTYSET('000000001008000000001X',$,'Pset_WallCommon',$,(#752,#753));
#752=IFCPROPERTYSINGLEVALUE('IsExternal',$,IFCBOOLEAN(.T.),$);
#753=IFCPROPERTYSINGLEVALUE('ThermalTransmittance',$,IFCTHERMALTRANSMITTANCEMEASURE(0.3),$);
#754=IFCRELDEFINESBYPROPERTIES('000000001008000000001Y',$,$,$,(#747),#751);
#755=IFCCLOSEDSHELL((#762,#769,#776,#783,#790,#797));
#756=IFCPOLYLOOP((#757,#758,#759,#760));
#757=IFCCARTESIANPOINT((9700.,5700.,0.));
#758=IFCCARTESIANPOINT((10000.,5700.,0.));
#759=IFCCARTESIANPOINT((10000.,300.,0.));
#760=IFCCARTESIANPOINT((9700.,300.,0.));
#761=IFCFACEOUTERBOUND(#756,.T.);
#762=IFCFACE((#761));
#763=IFCPOLYLOOP((#764,#765,#766,#767));
#764=IFCCARTESIANPOINT((9700.,300.,2800.));
#765=IFCCARTESIANPOINT((10000.,300.,2800.));
#766=IFCCARTESIANPOINT((10000.,5700.,2800.));
#767=IFCCARTESIANPOINT((9700.,5700.,2800.));
#768=IFCFACEOUTERBOUND(#763,.T.);
#769=IFCFACE((#768));
#770=IFCPOLYLOOP((#771,#772,#773,#774));
#771=IFCCARTESIANPOINT((9700.,300.,0.));
#772=IFCCARTESIANPOINT((10000.,300.,0.));
#773=IFCCARTESIANPOINT((10000.,300.,2800.));
#774=IFCCARTESIANPOINT((9700.,300.,2800.));
#775=IFCFACEOUTERBOUND(#770,.T.);
#776=IFCFACE((#775));
#777=IFCPOLYLOOP((#778,#779,#780,#781));
#778=IFCCARTESIANPOINT((10000.,300.,0.));
#779=IFCCARTESIANPOINT((10000.,5700.,0.));
#780=IFCCARTESIANPOINT((10000.,5700.,2800.));
#781=IFCCARTESIANPOINT((10000.,300.,2800.));
#782=IFCFACEOUTERBOUND(#777,.T.);
#783=IFCFACE((#782));
#784=IFCPOLYLOOP((#785,#786,#787,#788));
#785=IFCCARTESIANPOINT((10000.,5700.,0.));
#786=IFCCARTESIANPOINT((9700.,5700.,0.));
#787=IFCCARTESIANPOINT((9700.,5700.,2800.));
#788=IFCCARTESIANPOINT((10000.,5700.,2800.));
#789=IFCFACEOUTERBOUND(#784,.T.);
#790=IFCFACE((#789));
#791=IFCPOLYLOOP((#792,#793,#794,#795));
#792=IFCCARTESIANPOINT((9700.,5700.,0.));
#793=IFCCARTESIANPOINT((9700.,300.,0.));
#794=IFCCARTESIANPOINT((9700.,300.,2800.));
#795=IFCCARTESIANPOINT((9700.,5700.,2800.));
#796=IFCFACEOUTERBOUND(#791,.T.);
#797=IFCFACE((#796));
#798=IFCFACETEDBREP(#755);
#799=IFCSHAPEREPRESENTATION(#8,'Body','Brep',(#798));
#800=IFCPRODUCTDEFINITIONSHAPE($,$,(#799));
#801=IFCWALL('000000001008000000001Z',$,'Innenwand',$,$,#804,#854,$,.STANDARD.);
#802=IFCAXIS2PLACEMENT3D(#803,$,$);
#803=IFCCARTESIANPOINT((0.,0.,0.));
#804=IFCLOCALPLACEMENT(#30,#802);
#805=IFCPROPERTYSET('000000001008000000001a',$,'Pset_WallCommon',$,(#806,#807));
#806=IFCPROPERTYSINGLEVALUE('IsExternal',$,IFCBOOLEAN(.F.),$);
#807=IFCPROPERTYSINGLEVALUE('ThermalTransmittance',$,IFCTHERMALTRANSMITTANCEMEASURE(1.5),$);
#808=IFCRELDEFINESBYPROPERTIES('000000001008000000001b',$,$,$,(#801),#805);
#809=IFCCLOSEDSHELL((#816,#823,#830,#837,#844,#851));
#810=IFCPOLYLOOP((#811,#812,#813,#814));
#811=IFCCARTESIANPOINT((5880.,5700.,0.));
#812=IFCCARTESIANPOINT((6120.,5700.,0.));
#813=IFCCARTESIANPOINT((6120.,300.,0.));
#814=IFCCARTESIANPOINT((5880.,300.,0.));
#815=IFCFACEOUTERBOUND(#810,.T.);
#816=IFCFACE((#815));
#817=IFCPOLYLOOP((#818,#819,#820,#821));
#818=IFCCARTESIANPOINT((5880.,300.,2500.));
#819=IFCCARTESIANPOINT((6120.,300.,2500.));
#820=IFCCARTESIANPOINT((6120.,5700.,2500.));
#821=IFCCARTESIANPOINT((5880.,5700.,2500.));
#822=IFCFACEOUTERBOUND(#817,.T.);
#823=IFCFACE((#822));
#824=IFCPOLYLOOP((#825,#826,#827,#828));
#825=IFCCARTESIANPOINT((5880.,300.,0.));
#826=IFCCARTESIANPOINT((6120.,300.,0.));
#827=IFCCARTESIANPOINT((6120.,300.,2500.));
#828=IFCCARTESIANPOINT((5880.,300.,2500.));
#829=IFCFACEOUTERBOUND(#824,.T.);
#830=IFCFACE((#829));
#831=IFCPOLYLOOP((#832,#833,#834,#835));
#832=IFCCARTESIANPOINT((6120.,300.,0.));
#833=IFCCARTESIANPOINT((6120.,5700.,0.));
#834=IFCCARTESIANPOINT((6120.,5700.,2500.));
#835=IFCCARTESIANPOINT((6120.,300.,2500.));
#836=IFCFACEOUTERBOUND(#831,.T.);
#837=IFCFACE((#836));
#838=IFCPOLYLOOP((#839,#840,#841,#842));
#839=IFCCARTESIANPOINT((6120.,5700.,0.));
#840=IFCCARTESIANPOINT((5880.,5700.,0.));
#841=IFCCARTESIANPOINT((5880.,5700.,2500.));
#842=IFCCARTESIANPOINT((6120.,5700.,2500.));
#843=IFCFACEOUTERBOUND(#838,.T.);
#844=IFCFACE((#843));
#845=IFCPOLYLOOP((#846,#847,#848,#849));
#846=IFCCARTESIANPOINT((5880.,5700.,0.));
#847=IFCCARTESIANPOINT((5880.,300.,0.));
#848=IFCCARTESIANPOINT((5880.,300.,2500.));
#849=IFCCARTESIANPOINT((5880.,5700.,2500.));
#850=IFCFACEOUTERBOUND(#845,.T.);
#851=IFCFACE((#850));
#852=IFCFACETEDBREP(#809);
#853=IFCSHAPEREPRESENTATION(#8,'Body','Brep',(#852));
#854=IFCPRODUCTDEFINITIONSHAPE($,$,(#853));
#855=IFCSLAB('000000001008000000001c',$,'Geschossdecke',$,$,#858,#908,$,.FLOOR.);
#856=IFCAXIS2PLACEMENT3D(#857,$,$);
#857=IFCCARTESIANPOINT((0.,0.,0.));
#858=IFCLOCALPLACEMENT(#30,#856);
#859=IFCPROPERTYSET('000000001008000000001d',$,'Pset_SlabCommon',$,(#860,#861));
#860=IFCPROPERTYSINGLEVALUE('IsExternal',$,IFCBOOLEAN(.F.),$);
#861=IFCPROPERTYSINGLEVALUE('ThermalTransmittance',$,IFCTHERMALTRANSMITTANCEMEASURE(0.8),$);
#862=IFCRELDEFINESBYPROPERTIES('000000001008000000001e',$,$,$,(#855),#859);
#863=IFCCLOSEDSHELL((#870,#877,#884,#891,#898,#905));
#864=IFCPOLYLOOP((#865,#866,#867,#868));
#865=IFCCARTESIANPOINT((300.,5700.,2500.));
#866=IFCCARTESIANPOINT((9700.,5700.,2500.));
#867=IFCCARTESIANPOINT((9700.,300.,2500.));
#868=IFCCARTESIANPOINT((300.,300.,2500.));
#869=IFCFACEOUTERBOUND(#864,.T.);
#870=IFCFACE((#869));
#871=IFCPOLYLOOP((#872,#873,#874,#875));
#872=IFCCARTESIANPOINT((300.,300.,2800.));
#873=IFCCARTESIANPOINT((9700.,300.,2800.));
#874=IFCCARTESIANPOINT((9700.,5700.,2800.));
#875=IFCCARTESIANPOINT((300.,5700.,2800.));
#876=IFCFACEOUTERBOUND(#871,.T.);
#877=IFCFACE((#876));
#878=IFCPOLYLOOP((#879,#880,#881,#882));
#879=IFCCARTESIANPOINT((300.,300.,2500.));
#880=IFCCARTESIANPOINT((9700.,300.,2500.));
#881=IFCCARTESIANPOINT((9700.,300.,2800.));
#882=IFCCARTESIANPOINT((300.,300.,2800.));
#883=IFCFACEOUTERBOUND(#878,.T.);
#884=IFCFACE((#883));
#885=IFCPOLYLOOP((#886,#887,#888,#889));
#886=IFCCARTESIANPOINT((9700.,300.,2500.));
#887=IFCCARTESIANPOINT((9700.,5700.,2500.));
#888=IFCCARTESIANPOINT((9700.,5700.,2800.));
#889=IFCCARTESIANPOINT((9700.,300.,2800.));
#890=IFCFACEOUTERBOUND(#885,.T.);
#891=IFCFACE((#890));
#892=IFCPOLYLOOP((#893,#894,#895,#896));
#893=IFCCARTESIANPOINT((9700.,5700.,2500.));
#894=IFCCARTESIANPOINT((300.,5700.,2500.));
#895=IFCCARTESIANPOINT((300.,5700.,2800.));
#896=IFCCARTESIANPOINT((9700.,5700.,2800.));
#897=IFCFACEOUTERBOUND(#892,.T.);
#898=IFCFACE((#897));
#899=IFCPOLYLOOP((#900,#901,#902,#903));
#900=IFCCARTESIANPOINT((300.,5700.,2500.));
#901=IFCCARTESIANPOINT((300.,300.,2500.));
#902=IFCCARTESIANPOINT((300.,300.,2800.));
#903=IFCCARTESIANPOINT((300.,5700.,2800.));
#904=IFCFACEOUTERBOUND(#899,.T.);
#905=IFCFACE((#904));
#906=IFCFACETEDBREP(#863);
#907=IFCSHAPEREPRESENTATION(#8,'Body','Brep',(#906));
#908=IFCPRODUCTDEFINITIONSHAPE($,$,(#907));
#909=IFCOPENINGELEMENT('000000001008000000001f',$,'\X\D6ffnung Fenster Wohnen',$,$,#913,#959,$,.OPENING.);
#910=IFCRELVOIDSELEMENT('000000001008000000001m',$,$,$,#584,#909);
#911=IFCAXIS2PLACEMENT3D(#912,$,$);
#912=IFCCARTESIANPOINT((0.,0.,0.));
#913=IFCLOCALPLACEMENT(#30,#911);
#914=IFCCLOSEDSHELL((#921,#928,#935,#942,#949,#956));
#915=IFCPOLYLOOP((#916,#917,#918,#919));
#916=IFCCARTESIANPOINT((1000.,-10.,900.));
#917=IFCCARTESIANPOINT((1000.,310.,900.));
#918=IFCCARTESIANPOINT((2500.,310.,900.));
#919=IFCCARTESIANPOINT((2500.,-10.,900.));
#920=IFCFACEOUTERBOUND(#915,.T.);
#921=IFCFACE((#920));
#922=IFCPOLYLOOP((#923,#924,#925,#926));
#923=IFCCARTESIANPOINT((1000.,-10.,2100.));
#924=IFCCARTESIANPOINT((2500.,-10.,2100.));
#925=IFCCARTESIANPOINT((2500.,310.,2100.));
#926=IFCCARTESIANPOINT((1000.,310.,2100.));
#927=IFCFACEOUTERBOUND(#922,.T.);
#928=IFCFACE((#927));
#929=IFCPOLYLOOP((#930,#931,#932,#933));
#930=IFCCARTESIANPOINT((1000.,-10.,900.));
#931=IFCCARTESIANPOINT((2500.,-10.,900.));
#932=IFCCARTESIANPOINT((2500.,-10.,2100.));
#933=IFCCARTESIANPOINT((1000.,-10.,2100.));
#934=IFCFACEOUTERBOUND(#929,.T.);
#935=IFCFACE((#934));
#936=IFCPOLYLOOP((#937,#938,#939,#940));
#937=IFCCARTESIANPOINT((2500.,-10.,900.));
#938=IFCCARTESIANPOINT((2500.,310.,900.));
#939=IFCCARTESIANPOINT((2500.,310.,2100.));
#940=IFCCARTESIANPOINT((2500.,-10.,2100.));
#941=IFCFACEOUTERBOUND(#936,.T.);
#942=IFCFACE((#941));
#943=IFCPOLYLOOP((#944,#945,#946,#947));
#944=IFCCARTESIANPOINT((2500.,310.,900.));
#945=IFCCARTESIANPOINT((1000.,310.,900.));
#946=IFCCARTESIANPOINT((1000.,310.,2100.));
#947=IFCCARTESIANPOINT((2500.,310.,2100.));
#948=IFCFACEOUTERBOUND(#943,.T.);
#949=IFCFACE((#948));
#950=IFCPOLYLOOP((#951,#952,#953,#954));
#951=IFCCARTESIANPOINT((1000.,310.,900.));
#952=IFCCARTESIANPOINT((1000.,-10.,900.));
#953=IFCCARTESIANPOINT((1000.,-10.,2100.));
#954=IFCCARTESIANPOINT((1000.,310.,2100.));
#955=IFCFACEOUTERBOUND(#950,.T.);
#956=IFCFACE((#955));
#957=IFCFACETEDBREP(#914);
#958=IFCSHAPEREPRESENTATION(#8,'Body','Brep',(#957));
#959=IFCPRODUCTDEFINITIONSHAPE($,$,(#958));
#960=IFCWINDOW('000000001008000000001n',$,'Fenster Wohnen',$,$,$,$,$,1200.,1500.,$,$,$);
#961=IFCRELFILLSELEMENT('000000001008000000001o',$,$,$,#909,#960);
#962=IFCPROPERTYSET('000000001008000000001p',$,'Pset_WindowCommon',$,(#963,#964));
#963=IFCPROPERTYSINGLEVALUE('IsExternal',$,IFCBOOLEAN(.T.),$);
#964=IFCPROPERTYSINGLEVALUE('ThermalTransmittance',$,IFCTHERMALTRANSMITTANCEMEASURE(1.1),$);
#965=IFCRELDEFINESBYPROPERTIES('000000001008000000001q',$,$,$,(#960),#962);
#966=IFCOPENINGELEMENT('000000001008000000001r',$,'\X\D6ffnung Fenster K\X\FCche',$,$,#970,#1016,$,.OPENING.);
#967=IFCRELVOIDSELEMENT('000000001008000000001s',$,$,$,#584,#966);
#968=IFCAXIS2PLACEMENT3D(#969,$,$);
#969=IFCCARTESIANPOINT((0.,0.,0.));
#970=IFCLOCALPLACEMENT(#30,#968);
#971=IFCCLOSEDSHELL((#978,#985,#992,#999,#1006,#1013));
#972=IFCPOLYLOOP((#973,#974,#975,#976));
#973=IFCCARTESIANPOINT((7000.,-10.,900.));
#974=IFCCARTESIANPOINT((7000.,310.,900.));
#975=IFCCARTESIANPOINT((8000.,310.,900.));
#976=IFCCARTESIANPOINT((8000.,-10.,900.));
#977=IFCFACEOUTERBOUND(#972,.T.);
#978=IFCFACE((#977));
#979=IFCPOLYLOOP((#980,#981,#982,#983));
#980=IFCCARTESIANPOINT((7000.,-10.,2100.));
#981=IFCCARTESIANPOINT((8000.,-10.,2100.));
#982=IFCCARTESIANPOINT((8000.,310.,2100.));
#983=IFCCARTESIANPOINT((7000.,310.,2100.));
#984=IFCFACEOUTERBOUND(#979,.T.);
#985=IFCFACE((#984));
#986=IFCPOLYLOOP((#987,#988,#989,#990));
#987=IFCCARTESIANPOINT((7000.,-10.,900.));
#988=IFCCARTESIANPOINT((8000.,-10.,900.));
#989=IFCCARTESIANPOINT((8000.,-10.,2100.));
#990=IFCCARTESIANPOINT((7000.,-10.,2100.));
#991=IFCFACEOUTERBOUND(#986,.T.);
#992=IFCFACE((#991));
#993=IFCPOLYLOOP((#994,#995,#996,#997));
#994=IFCCARTESIANPOINT((8000.,-10.,900.));
#995=IFCCARTESIANPOINT((8000.,310.,900.));
#996=IFCCARTESIANPOINT((8000.,310.,2100.));
#997=IFCCARTESIANPOINT((8000.,-10.,2100.));
#998=IFCFACEOUTERBOUND(#993,.T.);
#999=IFCFACE((#998));
#1000=IFCPOLYLOOP((#1001,#1002,#1003,#1004));
#1001=IFCCARTESIANPOINT((8000.,310.,900.));
#1002=IFCCARTESIANPOINT((7000.,310.,900.));
#1003=IFCCARTESIANPOINT((7000.,310.,2100.));
#1004=IFCCARTESIANPOINT((8000.,310.,2100.));
#1005=IFCFACEOUTERBOUND(#1000,.T.);
#1006=IFCFACE((#1005));
#1007=IFCPOLYLOOP((#1008,#1009,#1010,#1011));
#1008=IFCCARTESIANPOINT((7000.,310.,900.));
#1009=IFCCARTESIANPOINT((7000.,-10.,900.));
#1010=IFCCARTESIANPOINT((7000.,-10.,2100.));
#1011=IFCCARTESIANPOINT((7000.,310.,2100.));
#1012=IFCFACEOUTERBOUND(#1007,.T.);
#1013=IFCFACE((#1012));
#1014=IFCFACETEDBREP(#971);
#1015=IFCSHAPEREPRESENTATION(#8,'Body','Brep',(#1014));
#1016=IFCPRODUCTDEFINITIONSHAPE($,$,(#1015));
#1017=IFCWINDOW('000000001008000000001t',$,'Fenster K\X\FCche',$,$,$,$,$,1200.,1000.,$,$,$);
#1018=IFCRELFILLSELEMENT('000000001008000000001u',$,$,$,#966,#1017);
#1019=IFCPROPERTYSET('000000001008000000001v',$,'Pset_WindowCommon',$,(#1020,#1021));
#1020=IFCPROPERTYSINGLEVALUE('IsExternal',$,IFCBOOLEAN(.T.),$);
#1021=IFCPROPERTYSINGLEVALUE('ThermalTransmittance',$,IFCTHERMALTRANSMITTANCEMEASURE(1.1),$);
#1022=IFCRELDEFINESBYPROPERTIES('0000000010080000000020',$,$,$,(#1017),#1019);
#1023=IFCWALL('0000000010080000000021',$,'Wand S\X\FCd OG',$,$,#1026,#1077,$,.STANDARD.);
#1024=IFCAXIS2PLACEMENT3D(#1025,$,$);
#1025=IFCCARTESIANPOINT((0.,0.,0.));
#1026=IFCLOCALPLACEMENT(#34,#1024);
#1027=IFCRELCONTAINEDINSPATIALSTRUCTURE('0000000010080000000022',$,$,$,(#1023,#1078,#1132,#1186,#1240,#1294,#1353),#31);
#1028=IFCPROPERTYSET('0000000010080000000023',$,'Pset_WallCommon',$,(#1029,#1030));
#1029=IFCPROPERTYSINGLEVALUE('IsExternal',$,IFCBOOLEAN(.T.),$);
#1030=IFCPROPERTYSINGLEVALUE('ThermalTransmittance',$,IFCTHERMALTRANSMITTANCEMEASURE(0.3),$);
#1031=IFCRELDEFINESBYPROPERTIES('0000000010080000000024',$,$,$,(#1023),#1028);
#1032=IFCCLOSEDSHELL((#1039,#1046,#1053,#1060,#1067,#1074));
#1033=IFCPOLYLOOP((#1034,#1035,#1036,#1037));
#1034=IFCCARTESIANPOINT((0.,300.,0.));
#1035=IFCCARTESIANPOINT((10000.,300.,0.));
#1036=IFCCARTESIANPOINT((10000.,0.,0.));
#1037=IFCCARTESIANPOINT((0.,0.,0.));
#1038=IFCFACEOUTERBOUND(#1033,.T.);
#1039=IFCFACE((#1038));
#1040=IFCPOLYLOOP((#1041,#1042,#1043,#1044));
#1041=IFCCARTESIANPOINT((0.,0.,775.));
#1042=IFCCARTESIANPOINT((10000.,0.,775.));
#1043=IFCCARTESIANPOINT((10000.,300.,1000.));
#1044=IFCCARTESIANPOINT((0.,300.,1000.));
#1045=IFCFACEOUTERBOUND(#1040,.T.);
#1046=IFCFACE((#1045));
#1047=IFCPOLYLOOP((#1048,#1049,#1050,#1051));
#1048=IFCCARTESIANPOINT((0.,0.,0.));
#1049=IFCCARTESIANPOINT((10000.,0.,0.));
#1050=IFCCARTESIANPOINT((10000.,0.,775.));
#1051=IFCCARTESIANPOINT((0.,0.,775.));
#1052=IFCFACEOUTERBOUND(#1047,.T.);
#1053=IFCFACE((#1052));
#1054=IFCPOLYLOOP((#1055,#1056,#1057,#1058));
#1055=IFCCARTESIANPOINT((10000.,0.,0.));
#1056=IFCCARTESIANPOINT((10000.,300.,0.));
#1057=IFCCARTESIANPOINT((10000.,300.,1000.));
#1058=IFCCARTESIANPOINT((10000.,0.,775.));
#1059=IFCFACEOUTERBOUND(#1054,.T.);
#1060=IFCFACE((#1059));
#1061=IFCPOLYLOOP((#1062,#1063,#1064,#1065));
#1062=IFCCARTESIANPOINT((10000.,300.,0.));
#1063=IFCCARTESIANPOINT((0.,300.,0.));
#1064=IFCCARTESIANPOINT((0.,300.,1000.));
#1065=IFCCARTESIANPOINT((10000.,300.,1000.));
#1066=IFCFACEOUTERBOUND(#1061,.T.);
#1067=IFCFACE((#1066));
#1068=IFCPOLYLOOP((#1069,#1070,#1071,#1072));
#1069=IFCCARTESIANPOINT((0.,300.,0.));
#1070=IFCCARTESIANPOINT((0.,0.,0.));
#1071=IFCCARTESIANPOINT((0.,0.,775.));
#1072=IFCCARTESIANPOINT((0.,300.,1000.));
#1073=IFCFACEOUTERBOUND(#1068,.T.);
#1074=IFCFACE((#1073));
#1075=IFCFACETEDBREP(#1032);
#1076=IFCSHAPEREPRESENTATION(#8,'Body','Brep',(#1075));
#1077=IFCPRODUCTDEFINITIONSHAPE($,$,(#1076));
#1078=IFCWALL('0000000010080000000025',$,'Wand Nord OG',$,$,#1081,#1131,$,.STANDARD.);
#1079=IFCAXIS2PLACEMENT3D(#1080,$,$);
#1080=IFCCARTESIANPOINT((0.,0.,0.));
#1081=IFCLOCALPLACEMENT(#34,#1079);
#1082=IFCPROPERTYSET('0000000010080000000026',$,'Pset_WallCommon',$,(#1083,#1084));
#1083=IFCPROPERTYSINGLEVALUE('IsExternal',$,IFCBOOLEAN(.T.),$);
#1084=IFCPROPERTYSINGLEVALUE('ThermalTransmittance',$,IFCTHERMALTRANSMITTANCEMEASURE(0.3),$);
#1085=IFCRELDEFINESBYPROPERTIES('0000000010080000000027',$,$,$,(#1078),#1082);
#1086=IFCCLOSEDSHELL((#1093,#1100,#1107,#1114,#1121,#1128));
#1087=IFCPOLYLOOP((#1088,#1089,#1090,#1091));
#1088=IFCCARTESIANPOINT((0.,6000.,0.));
#1089=IFCCARTESIANPOINT((10000.,6000.,0.));
#1090=IFCCARTESIANPOINT((10000.,5700.,0.));
#1091=IFCCARTESIANPOINT((0.,5700.,0.));
#1092=IFCFACEOUTERBOUND(#1087,.T.);
#1093=IFCFACE((#1092));
#1094=IFCPOLYLOOP((#1095,#1096,#1097,#1098));
#1095=IFCCARTESIANPOINT((0.,5700.,5050.));
#1096=IFCCARTESIANPOINT((10000.,5700.,5050.));
#1097=IFCCARTESIANPOINT((10000.,6000.,5275.));
#1098=IFCCARTESIANPOINT((0.,6000.,5275.));
#1099=IFCFACEOUTERBOUND(#1094,.T.);
#1100=IFCFACE((#1099));
#1101=IFCPOLYLOOP((#1102,#1103,#1104,#1105));
#1102=IFCCARTESIANPOINT((0.,5700.,0.));
#1103=IFCCARTESIANPOINT((10000.,5700.,0.));
#1104=IFCCARTESIANPOINT((10000.,5700.,5050.));
#1105=IFCCARTESIANPOINT((0.,5700.,5050.));
#1106=IFCFACEOUTERBOUND(#1101,.T.);
#1107=IFCFACE((#1106));
#1108=IFCPOLYLOOP((#1109,#1110,#1111,#1112));
#1109=IFCCARTESIANPOINT((10000.,5700.,0.));
#1110=IFCCARTESIANPOINT((10000.,6000.,0.));
#1111=IFCCARTESIANPOINT((10000.,6000.,5275.));
#1112=IFCCARTESIANPOINT((10000.,5700.,5050.));
#1113=IFCFACEOUTERBOUND(#1108,.T.);
#1114=IFCFACE((#1113));
#1115=IFCPOLYLOOP((#1116,#1117,#1118,#1119));
#1116=IFCCARTESIANPOINT((10000.,6000.,0.));
#1117=IFCCARTESIANPOINT((0.,6000.,0.));
#1118=IFCCARTESIANPOINT((0.,6000.,5275.));
#1119=IFCCARTESIANPOINT((10000.,6000.,5275.));
#1120=IFCFACEOUTERBOUND(#1115,.T.);
#1121=IFCFACE((#1120));
#1122=IFCPOLYLOOP((#1123,#1124,#1125,#1126));
#1123=IFCCARTESIANPOINT((0.,6000.,0.));
#1124=IFCCARTESIANPOINT((0.,5700.,0.));
#1125=IFCCARTESIANPOINT((0.,5700.,5050.));
#1126=IFCCARTESIANPOINT((0.,6000.,5275.));
#1127=IFCFACEOUTERBOUND(#1122,.T.);
#1128=IFCFACE((#1127));
#1129=IFCFACETEDBREP(#1086);
#1130=IFCSHAPEREPRESENTATION(#8,'Body','Brep',(#1129));
#1131=IFCPRODUCTDEFINITIONSHAPE($,$,(#1130));
#1132=IFCWALL('0000000010080000000028',$,'Wand West OG',$,$,#1135,#1185,$,.STANDARD.);
#1133=IFCAXIS2PLACEMENT3D(#1134,$,$);
#1134=IFCCARTESIANPOINT((0.,0.,0.));
#1135=IFCLOCALPLACEMENT(#34,#1133);
#1136=IFCPROPERTYSET('0000000010080000000029',$,'Pset_WallCommon',$,(#1137,#1138));
#1137=IFCPROPERTYSINGLEVALUE('IsExternal',$,IFCBOOLEAN(.T.),$);
#1138=IFCPROPERTYSINGLEVALUE('ThermalTransmittance',$,IFCTHERMALTRANSMITTANCEMEASURE(0.3),$);
#1139=IFCRELDEFINESBYPROPERTIES('000000001008000000002G',$,$,$,(#1132),#1136);
#1140=IFCCLOSEDSHELL((#1147,#1154,#1161,#1168,#1175,#1182));
#1141=IFCPOLYLOOP((#1142,#1143,#1144,#1145));
#1142=IFCCARTESIANPOINT((0.,5700.,0.));
#1143=IFCCARTESIANPOINT((300.,5700.,0.));
#1144=IFCCARTESIANPOINT((300.,300.,0.));
#1145=IFCCARTESIANPOINT((0.,300.,0.));
#1146=IFCFACEOUTERBOUND(#1141,.T.);
#1147=IFCFACE((#1146));
#1148=IFCPOLYLOOP((#1149,#1150,#1151,#1152));
#1149=IFCCARTESIANPOINT((0.,300.,1000.));
#1150=IFCCARTESIANPOINT((300.,300.,1000.));
#1151=IFCCARTESIANPOINT((300.,5700.,5050.));
#1152=IFCCARTESIANPOINT((0.,5700.,5050.));
#1153=IFCFACEOUTERBOUND(#1148,.T.);
#1154=IFCFACE((#1153));
#1155=IFCPOLYLOOP((#1156,#1157,#1158,#1159));
#1156=IFCCARTESIANPOINT((0.,300.,0.));
#1157=IFCCARTESIANPOINT((300.,300.,0.));
#1158=IFCCARTESIANPOINT((300.,300.,1000.));
#1159=IFCCARTESIANPOINT((0.,300.,1000.));
#1160=IFCFACEOUTERBOUND(#1155,.T.);
#1161=IFCFACE((#1160));
#1162=IFCPOLYLOOP((#1163,#1164,#1165,#1166));
#1163=IFCCARTESIANPOINT((300.,300.,0.));
#1164=IFCCARTESIANPOINT((300.,5700.,0.));
#1165=IFCCARTESIANPOINT((300.,5700.,5050.));
#1166=IFCCARTESIANPOINT((300.,300.,1000.));
#1167=IFCFACEOUTERBOUND(#1162,.T.);
#1168=IFCFACE((#1167));
#1169=IFCPOLYLOOP((#1170,#1171,#1172,#1173));
#1170=IFCCARTESIANPOINT((300.,5700.,0.));
#1171=IFCCARTESIANPOINT((0.,5700.,0.));
#1172=IFCCARTESIANPOINT((0.,5700.,5050.));
#1173=IFCCARTESIANPOINT((300.,5700.,5050.));
#1174=IFCFACEOUTERBOUND(#1169,.T.);
#1175=IFCFACE((#1174));
#1176=IFCPOLYLOOP((#1177,#1178,#1179,#1180));
#1177=IFCCARTESIANPOINT((0.,5700.,0.));
#1178=IFCCARTESIANPOINT((0.,300.,0.));
#1179=IFCCARTESIANPOINT((0.,300.,1000.));
#1180=IFCCARTESIANPOINT((0.,5700.,5050.));
#1181=IFCFACEOUTERBOUND(#1176,.T.);
#1182=IFCFACE((#1181));
#1183=IFCFACETEDBREP(#1140);
#1184=IFCSHAPEREPRESENTATION(#8,'Body','Brep',(#1183));
#1185=IFCPRODUCTDEFINITIONSHAPE($,$,(#1184));
#1186=IFCWALL('000000001008000000002H',$,'Wand Ost OG',$,$,#1189,#1239,$,.STANDARD.);
#1187=IFCAXIS2PLACEMENT3D(#1188,$,$);
#1188=IFCCARTESIANPOINT((0.,0.,0.));
#1189=IFCLOCALPLACEMENT(#34,#1187);
#1190=IFCPROPERTYSET('000000001008000000002I',$,'Pset_WallCommon',$,(#1191,#1192));
#1191=IFCPROPERTYSINGLEVALUE('IsExternal',$,IFCBOOLEAN(.T.),$);
#1192=IFCPROPERTYSINGLEVALUE('ThermalTransmittance',$,IFCTHERMALTRANSMITTANCEMEASURE(0.3),$);
#1193=IFCRELDEFINESBYPROPERTIES('000000001008000000002J',$,$,$,(#1186),#1190);
#1194=IFCCLOSEDSHELL((#1201,#1208,#1215,#1222,#1229,#1236));
#1195=IFCPOLYLOOP((#1196,#1197,#1198,#1199));
#1196=IFCCARTESIANPOINT((9700.,5700.,0.));
#1197=IFCCARTESIANPOINT((10000.,5700.,0.));
#1198=IFCCARTESIANPOINT((10000.,300.,0.));
#1199=IFCCARTESIANPOINT((9700.,300.,0.));
#1200=IFCFACEOUTERBOUND(#1195,.T.);
#1201=IFCFACE((#1200));
#1202=IFCPOLYLOOP((#1203,#1204,#1205,#1206));
#1203=IFCCARTESIANPOINT((9700.,300.,1000.));
#1204=IFCCARTESIANPOINT((10000.,300.,1000.));
#1205=IFCCARTESIANPOINT((10000.,5700.,5050.));
#1206=IFCCARTESIANPOINT((9700.,5700.,5050.));
#1207=IFCFACEOUTERBOUND(#1202,.T.);
#1208=IFCFACE((#1207));
#1209=IFCPOLYLOOP((#1210,#1211,#1212,#1213));
#1210=IFCCARTESIANPOINT((9700.,300.,0.));
#1211=IFCCARTESIANPOINT((10000.,300.,0.));
#1212=IFCCARTESIANPOINT((10000.,300.,1000.));
#1213=IFCCARTESIANPOINT((9700.,300.,1000.));
#1214=IFCFACEOUTERBOUND(#1209,.T.);
#1215=IFCFACE((#1214));
#1216=IFCPOLYLOOP((#1217,#1218,#1219,#1220));
#1217=IFCCARTESIANPOINT((10000.,300.,0.));
#1218=IFCCARTESIANPOINT((10000.,5700.,0.));
#1219=IFCCARTESIANPOINT((10000.,5700.,5050.));
#1220=IFCCARTESIANPOINT((10000.,300.,1000.));
#1221=IFCFACEOUTERBOUND(#1216,.T.);
#1222=IFCFACE((#1221));
#1223=IFCPOLYLOOP((#1224,#1225,#1226,#1227));
#1224=IFCCARTESIANPOINT((10000.,5700.,0.));
#1225=IFCCARTESIANPOINT((9700.,5700.,0.));
#1226=IFCCARTESIANPOINT((9700.,5700.,5050.));
#1227=IFCCARTESIANPOINT((10000.,5700.,5050.));
#1228=IFCFACEOUTERBOUND(#1223,.T.);
#1229=IFCFACE((#1228));
#1230=IFCPOLYLOOP((#1231,#1232,#1233,#1234));
#1231=IFCCARTESIANPOINT((9700.,5700.,0.));
#1232=IFCCARTESIANPOINT((9700.,300.,0.));
#1233=IFCCARTESIANPOINT((9700.,300.,1000.));
#1234=IFCCARTESIANPOINT((9700.,5700.,5050.));
#1235=IFCFACEOUTERBOUND(#1230,.T.);
#1236=IFCFACE((#1235));
#1237=IFCFACETEDBREP(#1194);
#1238=IFCSHAPEREPRESENTATION(#8,'Body','Brep',(#1237));
#1239=IFCPRODUCTDEFINITIONSHAPE($,$,(#1238));
#1240=IFCSLAB('000000001008000000002K',$,'Dachplatte',$,$,#1243,#1293,$,.ROOF.);
#1241=IFCAXIS2PLACEMENT3D(#1242,$,$);
#1242=IFCCARTESIANPOINT((0.,0.,0.));
#1243=IFCLOCALPLACEMENT(#34,#1241);
#1244=IFCPROPERTYSET('000000001008000000002L',$,'Pset_SlabCommon',$,(#1245,#1246));
#1245=IFCPROPERTYSINGLEVALUE('IsExternal',$,IFCBOOLEAN(.T.),$);
#1246=IFCPROPERTYSINGLEVALUE('ThermalTransmittance',$,IFCTHERMALTRANSMITTANCEMEASURE(0.25),$);
#1247=IFCRELDEFINESBYPROPERTIES('000000001008000000002M',$,$,$,(#1240),#1244);
#1248=IFCCLOSEDSHELL((#1255,#1262,#1269,#1276,#1283,#1290));
#1249=IFCPOLYLOOP((#1250,#1251,#1252,#1253));
#1250=IFCCARTESIANPOINT((0.,6000.,5275.));
#1251=IFCCARTESIANPOINT((10000.,6000.,5275.));
#1252=IFCCARTESIANPOINT((10000.,0.,775.));
#1253=IFCCARTESIANPOINT((0.,0.,775.));
#1254=IFCFACEOUTERBOUND(#1249,.T.);
#1255=IFCFACE((#1254));
#1256=IFCPOLYLOOP((#1257,#1258,#1259,#1260));
#1257=IFCCARTESIANPOINT((0.,0.,1025.));
#1258=IFCCARTESIANPOINT((10000.,0.,1025.));
#1259=IFCCARTESIANPOINT((10000.,6000.,5525.));
#1260=IFCCARTESIANPOINT((0.,6000.,5525.));
#1261=IFCFACEOUTERBOUND(#1256,.T.);
#1262=IFCFACE((#1261));
#1263=IFCPOLYLOOP((#1264,#1265,#1266,#1267));
#1264=IFCCARTESIANPOINT((0.,0.,775.));
#1265=IFCCARTESIANPOINT((10000.,0.,775.));
#1266=IFCCARTESIANPOINT((10000.,0.,1025.));
#1267=IFCCARTESIANPOINT((0.,0.,1025.));
#1268=IFCFACEOUTERBOUND(#1263,.T.);
#1269=IFCFACE((#1268));
#1270=IFCPOLYLOOP((#1271,#1272,#1273,#1274));
#1271=IFCCARTESIANPOINT((10000.,0.,775.));
#1272=IFCCARTESIANPOINT((10000.,6000.,5275.));
#1273=IFCCARTESIANPOINT((10000.,6000.,5525.));
#1274=IFCCARTESIANPOINT((10000.,0.,1025.));
#1275=IFCFACEOUTERBOUND(#1270,.T.);
#1276=IFCFACE((#1275));
#1277=IFCPOLYLOOP((#1278,#1279,#1280,#1281));
#1278=IFCCARTESIANPOINT((10000.,6000.,5275.));
#1279=IFCCARTESIANPOINT((0.,6000.,5275.));
#1280=IFCCARTESIANPOINT((0.,6000.,5525.));
#1281=IFCCARTESIANPOINT((10000.,6000.,5525.));
#1282=IFCFACEOUTERBOUND(#1277,.T.);
#1283=IFCFACE((#1282));
#1284=IFCPOLYLOOP((#1285,#1286,#1287,#1288));
#1285=IFCCARTESIANPOINT((0.,6000.,5275.));
#1286=IFCCARTESIANPOINT((0.,0.,775.));
#1287=IFCCARTESIANPOINT((0.,0.,1025.));
#1288=IFCCARTESIANPOINT((0.,6000.,5525.));
#1289=IFCFACEOUTERBOUND(#1284,.T.);
#1290=IFCFACE((#1289));
#1291=IFCFACETEDBREP(#1248);
#1292=IFCSHAPEREPRESENTATION(#8,'Body','Brep',(#1291));
#1293=IFCPRODUCTDEFINITIONSHAPE($,$,(#1292));
#1294=IFCROOF('000000001008000000002N',$,'Dach',$,$,#1297,$,$,.SHED_ROOF.);
#1295=IFCAXIS2PLACEMENT3D(#1296,$,$);
#1296=IFCCARTESIANPOINT((0.,0.,0.));
#1297=IFCLOCALPLACEMENT(#34,#1295);
#1298=IFCPROPERTYSET('000000001008000000002O',$,'Pset_RoofCommon',$,(#1299));
#1299=IFCPROPERTYSINGLEVALUE('IsExternal',$,IFCBOOLEAN(.T.),$);
#1300=IFCRELDEFINESBYPROPERTIES('000000001008000000002P',$,$,$,(#1294),#1298);
#1301=IFCRELAGGREGATES('0000000010080000000040',$,$,$,#1294,(#1240));
#1302=IFCOPENINGELEMENT('0000000010080000000041',$,'\X\D6ffnung Fenster Schlafen',$,$,#1306,#1352,$,.OPENING.);
#1303=IFCRELVOIDSELEMENT('0000000010080000000042',$,$,$,#1186,#1302);
#1304=IFCAXIS2PLACEMENT3D(#1305,$,$);
#1305=IFCCARTESIANPOINT((0.,0.,0.));
#1306=IFCLOCALPLACEMENT(#34,#1304);
#1307=IFCCLOSEDSHELL((#1314,#1321,#1328,#1335,#1342,#1349));
#1308=IFCPOLYLOOP((#1309,#1310,#1311,#1312));
#1309=IFCCARTESIANPOINT((9690.,2000.,500.));
#1310=IFCCARTESIANPOINT((9690.,3000.,500.));
#1311=IFCCARTESIANPOINT((10010.,3000.,500.));
#1312=IFCCARTESIANPOINT((10010.,2000.,500.));
#1313=IFCFACEOUTERBOUND(#1308,.T.);
#1314=IFCFACE((#1313));
#1315=IFCPOLYLOOP((#1316,#1317,#1318,#1319));
#1316=IFCCARTESIANPOINT((9690.,2000.,1700.));
#1317=IFCCARTESIANPOINT((10010.,2000.,1700.));
#1318=IFCCARTESIANPOINT((10010.,3000.,1700.));
#1319=IFCCARTESIANPOINT((9690.,3000.,1700.));
#1320=IFCFACEOUTERBOUND(#1315,.T.);
#1321=IFCFACE((#1320));
#1322=IFCPOLYLOOP((#1323,#1324,#1325,#1326));
#1323=IFCCARTESIANPOINT((9690.,2000.,500.));
#1324=IFCCARTESIANPOINT((10010.,2000.,500.));
#1325=IFCCARTESIANPOINT((10010.,2000.,1700.));
#1326=IFCCARTESIANPOINT((9690.,2000.,1700.));
#1327=IFCFACEOUTERBOUND(#1322,.T.);
#1328=IFCFACE((#1327));
#1329=IFCPOLYLOOP((#1330,#1331,#1332,#1333));
#1330=IFCCARTESIANPOINT((10010.,2000.,500.));
#1331=IFCCARTESIANPOINT((10010.,3000.,500.));
#1332=IFCCARTESIANPOINT((10010.,3000.,1700.));
#1333=IFCCARTESIANPOINT((10010.,2000.,1700.));
#1334=IFCFACEOUTERBOUND(#1329,.T.);
#1335=IFCFACE((#1334));
#1336=IFCPOLYLOOP((#1337,#1338,#1339,#1340));
#1337=IFCCARTESIANPOINT((10010.,3000.,500.));
#1338=IFCCARTESIANPOINT((9690.,3000.,500.));
#1339=IFCCARTESIANPOINT((9690.,3000.,1700.));
#1340=IFCCARTESIANPOINT((10010.,3000.,1700.));
#1341=IFCFACEOUTERBOUND(#1336,.T.);
#1342=IFCFACE((#1341));
#1343=IFCPOLYLOOP((#1344,#1345,#1346,#1347));
#1344=IFCCARTESIANPOINT((9690.,3000.,500.));
#1345=IFCCARTESIANPOINT((9690.,2000.,500.));
#1346=IFCCARTESIANPOINT((9690.,2000.,1700.));
#1347=IFCCARTESIANPOINT((9690.,3000.,1700.));
#1348=IFCFACEOUTERBOUND(#1343,.T.);
#1349=IFCFACE((#1348));
#1350=IFCFACETEDBREP(#1307);
#1351=IFCSHAPEREPRESENTATION(#8,'Body','Brep',(#1350));
#1352=IFCPRODUCTDEFINITIONSHAPE($,$,(#1351));
#1353=IFCWINDOW('0000000010080000000043',$,'Fenster Schlafen',$,$,$,$,$,1200.,1000.,$,$,$);
#1354=IFCRELFILLSELEMENT('0000000010080000000044',$,$,$,#1302,#1353);
#1355=IFCPROPERTYSET('0000000010080000000045',$,'Pset_WindowCommon',$,(#1356,#1357));
#1356=IFCPROPERTYSINGLEVALUE('IsExternal',$,IFCBOOLEAN(.T.),$);
#1357=IFCPROPERTYSINGLEVALUE('ThermalTransmittance',$,IFCTHERMALTRANSMITTANCEMEASURE(1.1),$);
#1358=IFCRELDEFINESBYPROPERTIES('0000000010080000000046',$,$,$,(#1353),#1355);
ENDSEC;
END-ISO-10303-21;
