ISO-10303-21;
HEADER;
FILE_DESCRIPTION (('ViewDefinition [ReferenceView]'), '2;1');
FILE_NAME ('ifc4_g5_flachdach_teile.ifc', '2026-09-25T00:00:00', (''), (''), 'EPOS-Plan Importprobe (EPOS.Kern.Tests)', 'EPOS-Plan Importprobe, selbst erzeugt', '');
FILE_SCHEMA (('IFC4'));
ENDSEC;
DATA;
#1=IFCPROJECT('0000000010080000000001',$,'Importprobe',$,$,$,$,(#8),#2);
#2=IFCUNITASSIGNMENT((#3,#4,#5,#6,#7));
#3=IFCSIUNIT(*,.LENGTHUNIT.,.MILLI.,.METRE.);
#4=IFCSIUNIT(*,.AREAUNIT.,$,.SQUARE_METRE.);
#5=IFCSIUNIT(*,.VOLUMEUNIT.,$,.CUBIC_METRE.);
#6=IFCSIUNIT(*,.PLANEANGLEUNIT.,$,.RADIAN.);
#7=IFCSIUNIT(*,.THERMODYNAMICTEMPERATUREUNIT.,$,.DEGREE_CELSIUS.);
#8=IFCGEOMETRICREPRESENTATIONCONTEXT($,'Model',3,1.E-05,#9,#11);
#9=IFCAXIS2PLACEMENT3D(#10,$,$);
#10=IFCCARTESIANPOINT((0.,0.,0.));
#11=IFCDIRECTION((0.,1.,0.));
#12=IFCSITE('0000000010080000000002',$,'Grundst\X\FCck',$,$,#15,$,$,.ELEMENT.,$,$,$,$,$);
#13=IFCAXIS2PLACEMENT3D(#14,$,$);
#14=IFCCARTESIANPOINT((0.,0.,0.));
#15=IFCLOCALPLACEMENT($,#13);
#16=IFCRELAGGREGATES('0000000010080000000003',$,$,$,#1,(#12));
#17=IFCBUILDING('0000000010080000000004',$,'Flachdachhaus',$,$,#20,$,$,.ELEMENT.,$,$,$);
#18=IFCAXIS2PLACEMENT3D(#19,$,$);
#19=IFCCARTESIANPOINT((0.,0.,0.));
#20=IFCLOCALPLACEMENT(#15,#18);
#21=IFCRELAGGREGATES('0000000010080000000005',$,$,$,#12,(#17));
#22=IFCBUILDINGSTOREY('0000000010080000000006',$,'Erdgeschoss',$,$,#25,$,$,.ELEMENT.,0.);
#23=IFCAXIS2PLACEMENT3D(#24,$,$);
#24=IFCCARTESIANPOINT((0.,0.,0.));
#25=IFCLOCALPLACEMENT(#20,#23);
#26=IFCRELAGGREGATES('0000000010080000000007',$,$,$,#17,(#22));
#27=IFCSPACE('0000000010080000000008',$,'0.01',$,$,#30,#50,'Halle',.ELEMENT.,$,$);
#28=IFCAXIS2PLACEMENT3D(#29,$,$);
#29=IFCCARTESIANPOINT((0.,0.,0.));
#30=IFCLOCALPLACEMENT(#25,#28);
#31=IFCRELAGGREGATES('0000000010080000000009',$,$,$,#22,(#27));
#32=IFCPROPERTYSET('000000001008000000000G',$,'Pset_SpaceCommon',$,(#33));
#33=IFCPROPERTYSINGLEVALUE('IsExternal',$,IFCBOOLEAN(.F.),$);
#34=IFCRELDEFINESBYPROPERTIES('000000001008000000000H',$,$,$,(#27),#32);
#35=IFCPROPERTYBOUNDEDVALUE('SpaceTemperature',$,IFCTHERMODYNAMICTEMPERATUREMEASURE(26.),IFCTHERMODYNAMICTEMPERATUREMEASURE(18.),$,IFCTHERMODYNAMICTEMPERATUREMEASURE(20.));
#36=IFCPROPERTYSET('000000001008000000000I',$,'Pset_SpaceThermalRequirements',$,(#35));
#37=IFCRELDEFINESBYPROPERTIES('000000001008000000000J',$,$,$,(#27),#36);
#38=IFCPOLYLINE((#39,#40,#41,#42,#43));
#39=IFCCARTESIANPOINT((0.,0.));
#40=IFCCARTESIANPOINT((20000.,0.));
#41=IFCCARTESIANPOINT((20000.,12000.));
#42=IFCCARTESIANPOINT((0.,12000.));
#43=IFCCARTESIANPOINT((0.,0.));
#44=IFCARBITRARYCLOSEDPROFILEDEF(.AREA.,$,#38);
#45=IFCAXIS2PLACEMENT3D(#46,$,$);
#46=IFCCARTESIANPOINT((0.,0.,0.));
#47=IFCEXTRUDEDAREASOLID(#44,#45,#48,2500.);
#48=IFCDIRECTION((0.,0.,1.));
#49=IFCSHAPEREPRESENTATION(#8,'Body','SweptSolid',(#47));
#50=IFCPRODUCTDEFINITIONSHAPE($,$,(#49));
#51=IFCROOF('000000001008000000000K',$,'Dach A',$,$,#54,#144,$,.FLAT_ROOF.);
#52=IFCAXIS2PLACEMENT3D(#53,$,$);
#53=IFCCARTESIANPOINT((0.,0.,3000.));
#54=IFCLOCALPLACEMENT(#25,#52);
#55=IFCRELCONTAINEDINSPATIALSTRUCTURE('000000001008000000000L',$,$,$,(#51,#145,#156,#167),#22);
#56=IFCPROPERTYSET('000000001008000000000M',$,'Pset_RoofCommon',$,(#57));
#57=IFCPROPERTYSINGLEVALUE('IsExternal',$,IFCBOOLEAN(.T.),$);
#58=IFCRELDEFINESBYPROPERTIES('000000001008000000000N',$,$,$,(#51),#56);
#59=IFCQUANTITYAREA('GrossArea',$,$,100.,$);
#60=IFCQUANTITYAREA('NetArea',$,$,96.,$);
#61=IFCELEMENTQUANTITY('000000001008000000000O',$,'Qto_RoofBaseQuantities',$,$,(#59,#60));
#62=IFCRELDEFINESBYPROPERTIES('000000001008000000000P',$,$,$,(#51),#61);
#63=IFCOPENSHELL((#64,#89,#114,#121,#128,#135));
#64=IFCFACE((#65,#71,#77,#83));
#65=IFCFACEOUTERBOUND(#66,.T.);
#66=IFCPOLYLOOP((#67,#68,#69,#70));
#67=IFCCARTESIANPOINT((0.,0.,300.));
#68=IFCCARTESIANPOINT((20000.,0.,300.));
#69=IFCCARTESIANPOINT((20000.,12000.,300.));
#70=IFCCARTESIANPOINT((0.,12000.,300.));
#71=IFCFACEBOUND(#72,.T.);
#72=IFCPOLYLOOP((#73,#74,#75,#76));
#73=IFCCARTESIANPOINT((8000.,1000.,300.));
#74=IFCCARTESIANPOINT((8000.,3000.,300.));
#75=IFCCARTESIANPOINT((10000.,3000.,300.));
#76=IFCCARTESIANPOINT((10000.,1000.,300.));
#77=IFCFACEBOUND(#78,.T.);
#78=IFCPOLYLOOP((#79,#80,#81,#82));
#79=IFCCARTESIANPOINT((8000.,5000.,300.));
#80=IFCCARTESIANPOINT((8000.,7000.,300.));
#81=IFCCARTESIANPOINT((10000.,7000.,300.));
#82=IFCCARTESIANPOINT((10000.,5000.,300.));
#83=IFCFACEBOUND(#84,.T.);
#84=IFCPOLYLOOP((#85,#86,#87,#88));
#85=IFCCARTESIANPOINT((8000.,9000.,300.));
#86=IFCCARTESIANPOINT((8000.,11000.,300.));
#87=IFCCARTESIANPOINT((10000.,11000.,300.));
#88=IFCCARTESIANPOINT((10000.,9000.,300.));
#89=IFCFACE((#90,#96,#102,#108));
#90=IFCFACEOUTERBOUND(#91,.T.);
#91=IFCPOLYLOOP((#92,#93,#94,#95));
#92=IFCCARTESIANPOINT((0.,0.,0.));
#93=IFCCARTESIANPOINT((0.,12000.,0.));
#94=IFCCARTESIANPOINT((20000.,12000.,0.));
#95=IFCCARTESIANPOINT((20000.,0.,0.));
#96=IFCFACEBOUND(#97,.T.);
#97=IFCPOLYLOOP((#98,#99,#100,#101));
#98=IFCCARTESIANPOINT((8000.,1000.,0.));
#99=IFCCARTESIANPOINT((10000.,1000.,0.));
#100=IFCCARTESIANPOINT((10000.,3000.,0.));
#101=IFCCARTESIANPOINT((8000.,3000.,0.));
#102=IFCFACEBOUND(#103,.T.);
#103=IFCPOLYLOOP((#104,#105,#106,#107));
#104=IFCCARTESIANPOINT((8000.,5000.,0.));
#105=IFCCARTESIANPOINT((10000.,5000.,0.));
#106=IFCCARTESIANPOINT((10000.,7000.,0.));
#107=IFCCARTESIANPOINT((8000.,7000.,0.));
#108=IFCFACEBOUND(#109,.T.);
#109=IFCPOLYLOOP((#110,#111,#112,#113));
#110=IFCCARTESIANPOINT((8000.,9000.,0.));
#111=IFCCARTESIANPOINT((10000.,9000.,0.));
#112=IFCCARTESIANPOINT((10000.,11000.,0.));
#113=IFCCARTESIANPOINT((8000.,11000.,0.));
#114=IFCFACE((#115));
#115=IFCFACEOUTERBOUND(#116,.T.);
#116=IFCPOLYLOOP((#117,#118,#119,#120));
#117=IFCCARTESIANPOINT((0.,0.,0.));
#118=IFCCARTESIANPOINT((20000.,0.,0.));
#119=IFCCARTESIANPOINT((20000.,0.,300.));
#120=IFCCARTESIANPOINT((0.,0.,300.));
#121=IFCFACE((#122));
#122=IFCFACEOUTERBOUND(#123,.T.);
#123=IFCPOLYLOOP((#124,#125,#126,#127));
#124=IFCCARTESIANPOINT((20000.,0.,0.));
#125=IFCCARTESIANPOINT((20000.,12000.,0.));
#126=IFCCARTESIANPOINT((20000.,12000.,300.));
#127=IFCCARTESIANPOINT((20000.,0.,300.));
#128=IFCFACE((#129));
#129=IFCFACEOUTERBOUND(#130,.T.);
#130=IFCPOLYLOOP((#131,#132,#133,#134));
#131=IFCCARTESIANPOINT((20000.,12000.,0.));
#132=IFCCARTESIANPOINT((0.,12000.,0.));
#133=IFCCARTESIANPOINT((0.,12000.,300.));
#134=IFCCARTESIANPOINT((20000.,12000.,300.));
#135=IFCFACE((#136));
#136=IFCFACEOUTERBOUND(#137,.T.);
#137=IFCPOLYLOOP((#138,#139,#140,#141));
#138=IFCCARTESIANPOINT((0.,12000.,0.));
#139=IFCCARTESIANPOINT((0.,0.,0.));
#140=IFCCARTESIANPOINT((0.,0.,300.));
#141=IFCCARTESIANPOINT((0.,12000.,300.));
#142=IFCSHELLBASEDSURFACEMODEL((#63));
#143=IFCSHAPEREPRESENTATION(#8,'Body','SurfaceModel',(#142));
#144=IFCPRODUCTDEFINITIONSHAPE($,$,(#143));
#145=IFCROOF('000000001008000000000W',$,'Dach A-1',$,$,#148,$,$,.FLAT_ROOF.);
#146=IFCAXIS2PLACEMENT3D(#147,$,$);
#147=IFCCARTESIANPOINT((0.,0.,3000.));
#148=IFCLOCALPLACEMENT(#25,#146);
#149=IFCPROPERTYSET('000000001008000000000X',$,'Pset_RoofCommon',$,(#150));
#150=IFCPROPERTYSINGLEVALUE('IsExternal',$,IFCBOOLEAN(.T.),$);
#151=IFCRELDEFINESBYPROPERTIES('000000001008000000000Y',$,$,$,(#145),#149);
#152=IFCQUANTITYAREA('GrossArea',$,$,80.,$);
#153=IFCQUANTITYAREA('NetArea',$,$,76.,$);
#154=IFCELEMENTQUANTITY('000000001008000000000Z',$,'Qto_RoofBaseQuantities',$,$,(#152,#153));
#155=IFCRELDEFINESBYPROPERTIES('000000001008000000000a',$,$,$,(#145),#154);
#156=IFCROOF('000000001008000000000b',$,'Dach A-2',$,$,#159,$,$,.FLAT_ROOF.);
#157=IFCAXIS2PLACEMENT3D(#158,$,$);
#158=IFCCARTESIANPOINT((0.,0.,3000.));
#159=IFCLOCALPLACEMENT(#25,#157);
#160=IFCPROPERTYSET('000000001008000000000c',$,'Pset_RoofCommon',$,(#161));
#161=IFCPROPERTYSINGLEVALUE('IsExternal',$,IFCBOOLEAN(.T.),$);
#162=IFCRELDEFINESBYPROPERTIES('000000001008000000000d',$,$,$,(#156),#160);
#163=IFCQUANTITYAREA('GrossArea',$,$,60.,$);
#164=IFCQUANTITYAREA('NetArea',$,$,56.,$);
#165=IFCELEMENTQUANTITY('000000001008000000000e',$,'Qto_RoofBaseQuantities',$,$,(#163,#164));
#166=IFCRELDEFINESBYPROPERTIES('000000001008000000000f',$,$,$,(#156),#165);
#167=IFCROOF('000000001008000000000m',$,'Dach B',$,$,#170,#222,$,.FLAT_ROOF.);
#168=IFCAXIS2PLACEMENT3D(#169,$,$);
#169=IFCCARTESIANPOINT((0.,0.,3000.));
#170=IFCLOCALPLACEMENT(#25,#168);
#171=IFCPROPERTYSET('000000001008000000000n',$,'Pset_RoofCommon',$,(#172));
#172=IFCPROPERTYSINGLEVALUE('IsExternal',$,IFCBOOLEAN(.T.),$);
#173=IFCRELDEFINESBYPROPERTIES('000000001008000000000o',$,$,$,(#167),#171);
#174=IFCQUANTITYAREA('GrossArea',$,$,41.,$);
#175=IFCELEMENTQUANTITY('000000001008000000000p',$,'Qto_RoofBaseQuantities',$,$,(#174));
#176=IFCRELDEFINESBYPROPERTIES('000000001008000000000q',$,$,$,(#167),#175);
#177=IFCOPENSHELL((#184,#191,#198,#205,#212,#219));
#178=IFCPOLYLOOP((#179,#180,#181,#182));
#179=IFCCARTESIANPOINT((25000.,0.,0.));
#180=IFCCARTESIANPOINT((25000.,8000.,0.));
#181=IFCCARTESIANPOINT((30000.,8000.,0.));
#182=IFCCARTESIANPOINT((30000.,0.,0.));
#183=IFCFACEOUTERBOUND(#178,.T.);
#184=IFCFACE((#183));
#185=IFCPOLYLOOP((#186,#187,#188,#189));
#186=IFCCARTESIANPOINT((25000.,0.,300.));
#187=IFCCARTESIANPOINT((30000.,0.,300.));
#188=IFCCARTESIANPOINT((30000.,8000.,300.));
#189=IFCCARTESIANPOINT((25000.,8000.,300.));
#190=IFCFACEOUTERBOUND(#185,.T.);
#191=IFCFACE((#190));
#192=IFCPOLYLOOP((#193,#194,#195,#196));
#193=IFCCARTESIANPOINT((25000.,0.,0.));
#194=IFCCARTESIANPOINT((30000.,0.,0.));
#195=IFCCARTESIANPOINT((30000.,0.,300.));
#196=IFCCARTESIANPOINT((25000.,0.,300.));
#197=IFCFACEOUTERBOUND(#192,.T.);
#198=IFCFACE((#197));
#199=IFCPOLYLOOP((#200,#201,#202,#203));
#200=IFCCARTESIANPOINT((30000.,0.,0.));
#201=IFCCARTESIANPOINT((30000.,8000.,0.));
#202=IFCCARTESIANPOINT((30000.,8000.,300.));
#203=IFCCARTESIANPOINT((30000.,0.,300.));
#204=IFCFACEOUTERBOUND(#199,.T.);
#205=IFCFACE((#204));
#206=IFCPOLYLOOP((#207,#208,#209,#210));
#207=IFCCARTESIANPOINT((30000.,8000.,0.));
#208=IFCCARTESIANPOINT((25000.,8000.,0.));
#209=IFCCARTESIANPOINT((25000.,8000.,300.));
#210=IFCCARTESIANPOINT((30000.,8000.,300.));
#211=IFCFACEOUTERBOUND(#206,.T.);
#212=IFCFACE((#211));
#213=IFCPOLYLOOP((#214,#215,#216,#217));
#214=IFCCARTESIANPOINT((25000.,8000.,0.));
#215=IFCCARTESIANPOINT((25000.,0.,0.));
#216=IFCCARTESIANPOINT((25000.,0.,300.));
#217=IFCCARTESIANPOINT((25000.,8000.,300.));
#218=IFCFACEOUTERBOUND(#213,.T.);
#219=IFCFACE((#218));
#220=IFCSHELLBASEDSURFACEMODEL((#177));
#221=IFCSHAPEREPRESENTATION(#8,'Body','SurfaceModel',(#220));
#222=IFCPRODUCTDEFINITIONSHAPE($,$,(#221));
ENDSEC;
END-ISO-10303-21;
