ISO-10303-21;
HEADER;
FILE_DESCRIPTION (('ViewDefinition [ReferenceView]'), '2;1');
FILE_NAME ('ifc4_ohne_mengen.ifc', '2026-09-25T00:00:00', (''), (''), 'EPOS-Plan Importprobe (EPOS.Kern.Tests)', 'EPOS-Plan Importprobe, selbst erzeugt', '');
FILE_SCHEMA (('IFC4'));
ENDSEC;
DATA;
#1=IFCPROJECT('0000000010080000000001',$,'Importprobe',$,$,$,$,(#8),#2);
#2=IFCUNITASSIGNMENT((#3,#4,#5,#6,#7));
#3=IFCSIUNIT(*,.LENGTHUNIT.,.MILLI.,.METRE.);
#4=IFCSIUNIT(*,.AREAUNIT.,$,.SQUARE_METRE.);
#5=IFCSIUNIT(*,.VOLUMEUNIT.,$,.CUBIC_METRE.);
#6=IFCSIUNIT(*,.PLANEANGLEUNIT.,$,.RADIAN.);
#7=IFCSIUNIT(*,.THERMODYNAMICTEMPERATUREUNIT.,$,.DEGREE_CELSIUS.);
#8=IFCGEOMETRICREPRESENTATIONCONTEXT($,'Model',3,1.E-05,#9,#11);
#9=IFCAXIS2PLACEMENT3D(#10,$,$);
#10=IFCCARTESIANPOINT((0.,0.,0.));
#11=IFCDIRECTION((0.,1.,0.));
#12=IFCSITE('0000000010080000000002',$,'Grundst\X\FCck',$,$,#15,$,$,.ELEMENT.,$,$,$,$,$);
#13=IFCAXIS2PLACEMENT3D(#14,$,$);
#14=IFCCARTESIANPOINT((0.,0.,0.));
#15=IFCLOCALPLACEMENT($,#13);
#16=IFCRELAGGREGATES('0000000010080000000003',$,$,$,#1,(#12));
#17=IFCBUILDING('0000000010080000000004',$,'Probengeb\X\E4ude',$,$,#20,$,$,.ELEMENT.,$,$,$);
#18=IFCAXIS2PLACEMENT3D(#19,$,$);
#19=IFCCARTESIANPOINT((0.,0.,0.));
#20=IFCLOCALPLACEMENT(#15,#18);
#21=IFCRELAGGREGATES('0000000010080000000005',$,$,$,#12,(#17));
#22=IFCBUILDINGSTOREY('0000000010080000000006',$,'Erdgeschoss',$,$,#25,$,$,.ELEMENT.,0.);
#23=IFCAXIS2PLACEMENT3D(#24,$,$);
#24=IFCCARTESIANPOINT((0.,0.,0.));
#25=IFCLOCALPLACEMENT(#20,#23);
#26=IFCRELAGGREGATES('0000000010080000000007',$,$,$,#17,(#22));
#27=IFCSPACE('0000000010080000000008',$,'0.01',$,$,#30,$,'Wohnen',.ELEMENT.,$,$);
#28=IFCAXIS2PLACEMENT3D(#29,$,$);
#29=IFCCARTESIANPOINT((150.,150.,0.));
#30=IFCLOCALPLACEMENT(#25,#28);
#31=IFCRELAGGREGATES('0000000010080000000009',$,$,$,#22,(#27));
#32=IFCPROPERTYSET('000000001008000000000G',$,'Pset_SpaceCommon',$,(#33));
#33=IFCPROPERTYSINGLEVALUE('IsExternal',$,IFCBOOLEAN(.F.),$);
#34=IFCRELDEFINESBYPROPERTIES('000000001008000000000H',$,$,$,(#27),#32);
#35=IFCPROPERTYBOUNDEDVALUE('SpaceTemperature',$,IFCTHERMODYNAMICTEMPERATUREMEASURE(26.),IFCTHERMODYNAMICTEMPERATUREMEASURE(18.),$,IFCTHERMODYNAMICTEMPERATUREMEASURE(20.));
#36=IFCPROPERTYSET('000000001008000000000I',$,'Pset_SpaceThermalRequirements',$,(#35));
#37=IFCRELDEFINESBYPROPERTIES('000000001008000000000J',$,$,$,(#27),#36);
#38=IFCWALLTYPE('000000001008000000000K',$,'Au\X\DFenwand Typ C',$,$,(#39),$,$,$,.STANDARD.);
#39=IFCPROPERTYSET('000000001008000000000L',$,'Pset_WallCommon',$,(#40,#41));
#40=IFCPROPERTYSINGLEVALUE('IsExternal',$,IFCBOOLEAN(.T.),$);
#41=IFCPROPERTYSINGLEVALUE('ThermalTransmittance',$,IFCTHERMALTRANSMITTANCEMEASURE(0.3),$);
#42=IFCWALL('000000001008000000000M',$,'EG S\X\FCd',$,$,#45,#57,$,.STANDARD.);
#43=IFCAXIS2PLACEMENT3D(#44,$,$);
#44=IFCCARTESIANPOINT((0.,0.,0.));
#45=IFCLOCALPLACEMENT(#25,#43);
#46=IFCRELCONTAINEDINSPATIALSTRUCTURE('000000001008000000000N',$,$,$,(#42,#58,#74,#90),#22);
#47=IFCRELDEFINESBYTYPE('000000001008000000000O',$,$,$,(#42,#58,#74,#90),#38);
#48=IFCRELSPACEBOUNDARY('000000001008000000000P',$,'2ndLevel','2a',#27,#42,$,.PHYSICAL.,.EXTERNAL.);
#49=IFCRECTANGLEPROFILEDEF(.AREA.,$,#50,10000.,300.);
#50=IFCAXIS2PLACEMENT2D(#51,$);
#51=IFCCARTESIANPOINT((5000.,-150.));
#52=IFCEXTRUDEDAREASOLID(#49,#53,#55,2500.);
#53=IFCAXIS2PLACEMENT3D(#54,$,$);
#54=IFCCARTESIANPOINT((0.,0.,0.));
#55=IFCDIRECTION((0.,0.,1.));
#56=IFCSHAPEREPRESENTATION(#8,'Body','SweptSolid',(#52));
#57=IFCPRODUCTDEFINITIONSHAPE($,$,(#56));
#58=IFCWALL('000000001008000000000W',$,'EG Ost',$,$,#63,#73,$,.STANDARD.);
#59=IFCAXIS2PLACEMENT3D(#60,#61,#62);
#60=IFCCARTESIANPOINT((10000.,0.,0.));
#61=IFCDIRECTION((0.,0.,1.));
#62=IFCDIRECTION((0.,1.,0.));
#63=IFCLOCALPLACEMENT(#25,#59);
#64=IFCRELSPACEBOUNDARY('000000001008000000000X',$,'2ndLevel','2a',#27,#58,$,.PHYSICAL.,.EXTERNAL.);
#65=IFCRECTANGLEPROFILEDEF(.AREA.,$,#66,8000.,300.);
#66=IFCAXIS2PLACEMENT2D(#67,$);
#67=IFCCARTESIANPOINT((4000.,-150.));
#68=IFCEXTRUDEDAREASOLID(#65,#69,#71,2500.);
#69=IFCAXIS2PLACEMENT3D(#70,$,$);
#70=IFCCARTESIANPOINT((0.,0.,0.));
#71=IFCDIRECTION((0.,0.,1.));
#72=IFCSHAPEREPRESENTATION(#8,'Body','SweptSolid',(#68));
#73=IFCPRODUCTDEFINITIONSHAPE($,$,(#72));
#74=IFCWALL('000000001008000000000Y',$,'EG Nord',$,$,#79,#89,$,.STANDARD.);
#75=IFCAXIS2PLACEMENT3D(#76,#77,#78);
#76=IFCCARTESIANPOINT((10000.,8000.,0.));
#77=IFCDIRECTION((0.,0.,1.));
#78=IFCDIRECTION((-1.,0.,0.));
#79=IFCLOCALPLACEMENT(#25,#75);
#80=IFCRELSPACEBOUNDARY('000000001008000000000Z',$,'2ndLevel','2a',#27,#74,$,.PHYSICAL.,.EXTERNAL.);
#81=IFCRECTANGLEPROFILEDEF(.AREA.,$,#82,10000.,300.);
#82=IFCAXIS2PLACEMENT2D(#83,$);
#83=IFCCARTESIANPOINT((5000.,-150.));
#84=IFCEXTRUDEDAREASOLID(#81,#85,#87,2500.);
#85=IFCAXIS2PLACEMENT3D(#86,$,$);
#86=IFCCARTESIANPOINT((0.,0.,0.));
#87=IFCDIRECTION((0.,0.,1.));
#88=IFCSHAPEREPRESENTATION(#8,'Body','SweptSolid',(#84));
#89=IFCPRODUCTDEFINITIONSHAPE($,$,(#88));
#90=IFCWALL('000000001008000000000a',$,'EG West',$,$,#95,#105,$,.STANDARD.);
#91=IFCAXIS2PLACEMENT3D(#92,#93,#94);
#92=IFCCARTESIANPOINT((0.,8000.,0.));
#93=IFCDIRECTION((0.,0.,1.));
#94=IFCDIRECTION((0.,-1.,0.));
#95=IFCLOCALPLACEMENT(#25,#91);
#96=IFCRELSPACEBOUNDARY('000000001008000000000b',$,'2ndLevel','2a',#27,#90,$,.PHYSICAL.,.EXTERNAL.);
#97=IFCRECTANGLEPROFILEDEF(.AREA.,$,#98,8000.,300.);
#98=IFCAXIS2PLACEMENT2D(#99,$);
#99=IFCCARTESIANPOINT((4000.,-150.));
#100=IFCEXTRUDEDAREASOLID(#97,#101,#103,2500.);
#101=IFCAXIS2PLACEMENT3D(#102,$,$);
#102=IFCCARTESIANPOINT((0.,0.,0.));
#103=IFCDIRECTION((0.,0.,1.));
#104=IFCSHAPEREPRESENTATION(#8,'Body','SweptSolid',(#100));
#105=IFCPRODUCTDEFINITIONSHAPE($,$,(#104));
ENDSEC;
END-ISO-10303-21;
