ISO-10303-21;
HEADER;
FILE_DESCRIPTION (('ViewDefinition [ReferenceView]'), '2;1');
FILE_NAME ('ifc4_koerper_platzierung.ifc', '2026-09-25T00:00:00', (''), (''), 'EPOS-Plan Importprobe (EPOS.Kern.Tests)', 'EPOS-Plan Importprobe, selbst erzeugt', '');
FILE_SCHEMA (('IFC4'));
ENDSEC;
DATA;
#1=IFCPROJECT('0000000010080000000001',$,'Importprobe',$,$,$,$,(#8),#2);
#2=IFCUNITASSIGNMENT((#3,#4,#5,#6,#7));
#3=IFCSIUNIT(*,.LENGTHUNIT.,.MILLI.,.METRE.);
#4=IFCSIUNIT(*,.AREAUNIT.,$,.SQUARE_METRE.);
#5=IFCSIUNIT(*,.VOLUMEUNIT.,$,.CUBIC_METRE.);
#6=IFCSIUNIT(*,.PLANEANGLEUNIT.,$,.RADIAN.);
#7=IFCSIUNIT(*,.THERMODYNAMICTEMPERATUREUNIT.,$,.DEGREE_CELSIUS.);
#8=IFCGEOMETRICREPRESENTATIONCONTEXT($,'Model',3,1.E-05,#9,$);
#9=IFCAXIS2PLACEMENT3D(#10,$,$);
#10=IFCCARTESIANPOINT((0.,0.,0.));
#11=IFCSITE('0000000010080000000002',$,'Grundst\X\FCck',$,$,#14,$,$,.ELEMENT.,$,$,$,$,$);
#12=IFCAXIS2PLACEMENT3D(#13,$,$);
#13=IFCCARTESIANPOINT((0.,0.,0.));
#14=IFCLOCALPLACEMENT($,#12);
#15=IFCRELAGGREGATES('0000000010080000000003',$,$,$,#1,(#11));
#16=IFCBUILDING('0000000010080000000004',$,'Probengeb\X\E4ude',$,$,#25,$,$,.ELEMENT.,$,$,$);
#17=IFCAXIS2PLACEMENT3D(#18,$,$);
#18=IFCCARTESIANPOINT((0.,0.,0.));
#19=IFCLOCALPLACEMENT(#14,#17);
#20=IFCRELAGGREGATES('0000000010080000000005',$,$,$,#11,(#16));
#21=IFCAXIS2PLACEMENT3D(#22,#23,#24);
#22=IFCCARTESIANPOINT((10000.,5000.,0.));
#23=IFCDIRECTION((0.,0.,1.));
#24=IFCDIRECTION((0.,1.,0.));
#25=IFCLOCALPLACEMENT(#14,#21);
#26=IFCBUILDINGSTOREY('0000000010080000000006',$,'Erdgeschoss',$,$,#29,$,$,.ELEMENT.,3000.);
#27=IFCAXIS2PLACEMENT3D(#28,$,$);
#28=IFCCARTESIANPOINT((0.,0.,3000.));
#29=IFCLOCALPLACEMENT(#25,#27);
#30=IFCRELAGGREGATES('0000000010080000000007',$,$,$,#16,(#26));
#31=IFCSPACE('0000000010080000000008',$,'0.01',$,$,#34,#55,'Raum',.ELEMENT.,$,$);
#32=IFCAXIS2PLACEMENT3D(#33,$,$);
#33=IFCCARTESIANPOINT((1000.,2000.,0.));
#34=IFCLOCALPLACEMENT(#29,#32);
#35=IFCRELAGGREGATES('0000000010080000000009',$,$,$,#26,(#31));
#36=IFCQUANTITYAREA('NetFloorArea',$,$,20.,$);
#37=IFCQUANTITYLENGTH('Height',$,$,3000.,$);
#38=IFCQUANTITYVOLUME('NetVolume',$,$,60.,$);
#39=IFCELEMENTQUANTITY('000000001008000000000G',$,'BaseQuantities',$,$,(#36,#37,#38));
#40=IFCRELDEFINESBYPROPERTIES('000000001008000000000H',$,$,$,(#31),#39);
#41=IFCPROPERTYSET('000000001008000000000I',$,'Pset_SpaceCommon',$,(#42));
#42=IFCPROPERTYSINGLEVALUE('IsExternal',$,IFCBOOLEAN(.F.),$);
#43=IFCRELDEFINESBYPROPERTIES('000000001008000000000J',$,$,$,(#31),#41);
#44=IFCPROPERTYBOUNDEDVALUE('SpaceTemperature',$,IFCTHERMODYNAMICTEMPERATUREMEASURE(26.),IFCTHERMODYNAMICTEMPERATUREMEASURE(18.),$,IFCTHERMODYNAMICTEMPERATUREMEASURE(20.));
#45=IFCPROPERTYSET('000000001008000000000K',$,'Pset_SpaceThermalRequirements',$,(#44));
#46=IFCRELDEFINESBYPROPERTIES('000000001008000000000L',$,$,$,(#31),#45);
#47=IFCRECTANGLEPROFILEDEF(.AREA.,$,#48,4000.,3000.);
#48=IFCAXIS2PLACEMENT2D(#49,$);
#49=IFCCARTESIANPOINT((2000.,1500.));
#50=IFCEXTRUDEDAREASOLID(#47,#51,#53,2500.);
#51=IFCAXIS2PLACEMENT3D(#52,$,$);
#52=IFCCARTESIANPOINT((0.,0.,0.));
#53=IFCDIRECTION((0.,0.,1.));
#54=IFCSHAPEREPRESENTATION(#8,'Body','SweptSolid',(#50));
#55=IFCPRODUCTDEFINITIONSHAPE($,$,(#54));
ENDSEC;
END-ISO-10303-21;
