ISO-10303-21;
HEADER;
FILE_DESCRIPTION (('ViewDefinition [ReferenceView]'), '2;1');
FILE_NAME ('ifc4_koerper_nachbarn_grenzen.ifc', '2026-09-25T00:00:00', (''), (''), 'EPOS-Plan Importprobe (EPOS.Kern.Tests)', 'EPOS-Plan Importprobe, selbst erzeugt', '');
FILE_SCHEMA (('IFC4'));
ENDSEC;
DATA;
#1=IFCPROJECT('0000000010080000000001',$,'Importprobe',$,$,$,$,(#8),#2);
#2=IFCUNITASSIGNMENT((#3,#4,#5,#6,#7));
#3=IFCSIUNIT(*,.LENGTHUNIT.,.MILLI.,.METRE.);
#4=IFCSIUNIT(*,.AREAUNIT.,$,.SQUARE_METRE.);
#5=IFCSIUNIT(*,.VOLUMEUNIT.,$,.CUBIC_METRE.);
#6=IFCSIUNIT(*,.PLANEANGLEUNIT.,$,.RADIAN.);
#7=IFCSIUNIT(*,.THERMODYNAMICTEMPERATUREUNIT.,$,.DEGREE_CELSIUS.);
#8=IFCGEOMETRICREPRESENTATIONCONTEXT($,'Model',3,1.E-05,#9,#11);
#9=IFCAXIS2PLACEMENT3D(#10,$,$);
#10=IFCCARTESIANPOINT((0.,0.,0.));
#11=IFCDIRECTION((0.,1.,0.));
#12=IFCSITE('0000000010080000000002',$,'Grundst\X\FCck',$,$,#15,$,$,.ELEMENT.,$,$,$,$,$);
#13=IFCAXIS2PLACEMENT3D(#14,$,$);
#14=IFCCARTESIANPOINT((0.,0.,0.));
#15=IFCLOCALPLACEMENT($,#13);
#16=IFCRELAGGREGATES('0000000010080000000003',$,$,$,#1,(#12));
#17=IFCBUILDING('0000000010080000000004',$,'K\X\F6rpernachbarn',$,$,#20,$,$,.ELEMENT.,$,$,$);
#18=IFCAXIS2PLACEMENT3D(#19,$,$);
#19=IFCCARTESIANPOINT((0.,0.,0.));
#20=IFCLOCALPLACEMENT(#15,#18);
#21=IFCRELAGGREGATES('0000000010080000000005',$,$,$,#12,(#17));
#22=IFCBUILDINGSTOREY('0000000010080000000006',$,'EG',$,$,#25,$,$,.ELEMENT.,0.);
#23=IFCAXIS2PLACEMENT3D(#24,$,$);
#24=IFCCARTESIANPOINT((0.,0.,0.));
#25=IFCLOCALPLACEMENT(#20,#23);
#26=IFCRELCONTAINEDINSPATIALSTRUCTURE('0000000010080000000007',$,$,$,(#22,#27),#17);
#27=IFCBUILDINGSTOREY('0000000010080000000008',$,'OG',$,$,#30,$,$,.ELEMENT.,3300.);
#28=IFCAXIS2PLACEMENT3D(#29,$,$);
#29=IFCCARTESIANPOINT((0.,0.,3300.));
#30=IFCLOCALPLACEMENT(#20,#28);
#31=IFCWALL('0000000010080000000009',$,'Innenwand B\X\FCro/Flur',$,$,#34,$,$,$);
#32=IFCAXIS2PLACEMENT3D(#33,$,$);
#33=IFCCARTESIANPOINT((0.,0.,0.));
#34=IFCLOCALPLACEMENT(#25,#32);
#35=IFCRELCONTAINEDINSPATIALSTRUCTURE('000000001008000000000G',$,$,$,(#31,#67,#76),#22);
#36=IFCPROPERTYENUMERATEDVALUE('AdjacentType',$,(IFCLABEL('btaHeated')),$);
#37=IFCPROPERTYSET('000000001008000000000H',$,'CAD_BauteilAllgemein',$,(#36));
#38=IFCRELDEFINESBYPROPERTIES('000000001008000000000I',$,$,$,(#31),#37);
#39=IFCPROPERTYSET('000000001008000000000J',$,'CAD_BauteilEnergetik',$,(#40));
#40=IFCPROPERTYSINGLEVALUE('ElementEnergyConsultingProperties.CladdingSurface',$,IFCBOOLEAN(.F.),$);
#41=IFCRELDEFINESBYPROPERTIES('000000001008000000000K',$,$,$,(#31),#39);
#42=IFCQUANTITYAREA('GrossArea',$,$,12.,$);
#43=IFCQUANTITYAREA('NetArea',$,$,12.,$);
#44=IFCELEMENTQUANTITY('000000001008000000000L',$,'CAD_BauteilQuantities',$,$,(#42,#43));
#45=IFCRELDEFINESBYPROPERTIES('000000001008000000000M',$,$,$,(#31),#44);
#46=IFCPROPERTYSET('000000001008000000000N',$,'Pset_WallCommon',$,(#47));
#47=IFCPROPERTYSINGLEVALUE('ThermalTransmittance',$,IFCTHERMALTRANSMITTANCEMEASURE(1.2),$);
#48=IFCRELDEFINESBYPROPERTIES('000000001008000000000O',$,$,$,(#31),#46);
#49=IFCSLAB('000000001008000000000P',$,'Decke EG/OG',$,$,#52,$,$,$);
#50=IFCAXIS2PLACEMENT3D(#51,$,$);
#51=IFCCARTESIANPOINT((0.,0.,0.));
#52=IFCLOCALPLACEMENT(#30,#50);
#53=IFCRELCONTAINEDINSPATIALSTRUCTURE('000000001008000000000W',$,$,$,(#49,#85),#27);
#54=IFCPROPERTYENUMERATEDVALUE('AdjacentType',$,(IFCLABEL('btaHeated')),$);
#55=IFCPROPERTYSET('000000001008000000000X',$,'CAD_BauteilAllgemein',$,(#54));
#56=IFCRELDEFINESBYPROPERTIES('000000001008000000000Y',$,$,$,(#49),#55);
#57=IFCPROPERTYSET('000000001008000000000Z',$,'CAD_BauteilEnergetik',$,(#58));
#58=IFCPROPERTYSINGLEVALUE('ElementEnergyConsultingProperties.CladdingSurface',$,IFCBOOLEAN(.F.),$);
#59=IFCRELDEFINESBYPROPERTIES('000000001008000000000a',$,$,$,(#49),#57);
#60=IFCPROPERTYSET('000000001008000000000b',$,'CAD_Bauteilreferenzen',$,(#61));
#61=IFCPROPERTYSINGLEVALUE('UValue (W/(m\X\B2 K))',$,IFCREAL(1.),$);
#62=IFCRELDEFINESBYPROPERTIES('000000001008000000000c',$,$,$,(#49),#60);
#63=IFCQUANTITYAREA('GrossArea',$,$,20.,$);
#64=IFCQUANTITYAREA('NetArea',$,$,20.,$);
#65=IFCELEMENTQUANTITY('000000001008000000000d',$,'CAD_BauteilQuantities',$,$,(#63,#64));
#66=IFCRELDEFINESBYPROPERTIES('000000001008000000000e',$,$,$,(#49),#65);
#67=IFCSPACE('000000001008000000000f',$,'B\X\FCro',$,$,#70,#139,$,.ELEMENT.,$,$);
#68=IFCAXIS2PLACEMENT3D(#69,$,$);
#69=IFCCARTESIANPOINT((0.,0.,0.));
#70=IFCLOCALPLACEMENT(#25,#68);
#71=IFCQUANTITYAREA('Area',$,$,20.,$);
#72=IFCQUANTITYVOLUME('Volume',$,$,60.,$);
#73=IFCQUANTITYLENGTH('Height',$,$,3000.,$);
#74=IFCELEMENTQUANTITY('000000001008000000000m',$,'CAD_RaumQuantities',$,$,(#71,#72,#73));
#75=IFCRELDEFINESBYPROPERTIES('000000001008000000000n',$,$,$,(#67),#74);
#76=IFCSPACE('000000001008000000000o',$,'Flur',$,$,#79,#185,$,.ELEMENT.,$,$);
#77=IFCAXIS2PLACEMENT3D(#78,$,$);
#78=IFCCARTESIANPOINT((5240.,0.,0.));
#79=IFCLOCALPLACEMENT(#25,#77);
#80=IFCQUANTITYAREA('Area',$,$,12.,$);
#81=IFCQUANTITYVOLUME('Volume',$,$,36.,$);
#82=IFCQUANTITYLENGTH('Height',$,$,3000.,$);
#83=IFCELEMENTQUANTITY('000000001008000000000p',$,'CAD_RaumQuantities',$,$,(#80,#81,#82));
#84=IFCRELDEFINESBYPROPERTIES('000000001008000000000q',$,$,$,(#76),#83);
#85=IFCSPACE('000000001008000000000r',$,'B\X\FCro 2',$,$,#88,#231,$,.ELEMENT.,$,$);
#86=IFCAXIS2PLACEMENT3D(#87,$,$);
#87=IFCCARTESIANPOINT((0.,0.,0.));
#88=IFCLOCALPLACEMENT(#30,#86);
#89=IFCQUANTITYAREA('Area',$,$,20.,$);
#90=IFCQUANTITYVOLUME('Volume',$,$,60.,$);
#91=IFCQUANTITYLENGTH('Height',$,$,3000.,$);
#92=IFCELEMENTQUANTITY('000000001008000000000s',$,'CAD_RaumQuantities',$,$,(#89,#90,#91));
#93=IFCRELDEFINESBYPROPERTIES('000000001008000000000t',$,$,$,(#85),#92);
#94=IFCCLOSEDSHELL((#101,#108,#115,#122,#129,#136));
#95=IFCPOLYLOOP((#96,#97,#98,#99));
#96=IFCCARTESIANPOINT((0.,0.,0.));
#97=IFCCARTESIANPOINT((0.,4000.,0.));
#98=IFCCARTESIANPOINT((5000.,4000.,0.));
#99=IFCCARTESIANPOINT((5000.,0.,0.));
#100=IFCFACEOUTERBOUND(#95,.T.);
#101=IFCFACE((#100));
#102=IFCPOLYLOOP((#103,#104,#105,#106));
#103=IFCCARTESIANPOINT((0.,0.,3000.));
#104=IFCCARTESIANPOINT((5000.,0.,3000.));
#105=IFCCARTESIANPOINT((5000.,4000.,3000.));
#106=IFCCARTESIANPOINT((0.,4000.,3000.));
#107=IFCFACEOUTERBOUND(#102,.T.);
#108=IFCFACE((#107));
#109=IFCPOLYLOOP((#110,#111,#112,#113));
#110=IFCCARTESIANPOINT((0.,0.,0.));
#111=IFCCARTESIANPOINT((5000.,0.,0.));
#112=IFCCARTESIANPOINT((5000.,0.,3000.));
#113=IFCCARTESIANPOINT((0.,0.,3000.));
#114=IFCFACEOUTERBOUND(#109,.T.);
#115=IFCFACE((#114));
#116=IFCPOLYLOOP((#117,#118,#119,#120));
#117=IFCCARTESIANPOINT((5000.,0.,0.));
#118=IFCCARTESIANPOINT((5000.,4000.,0.));
#119=IFCCARTESIANPOINT((5000.,4000.,3000.));
#120=IFCCARTESIANPOINT((5000.,0.,3000.));
#121=IFCFACEOUTERBOUND(#116,.T.);
#122=IFCFACE((#121));
#123=IFCPOLYLOOP((#124,#125,#126,#127));
#124=IFCCARTESIANPOINT((5000.,4000.,0.));
#125=IFCCARTESIANPOINT((0.,4000.,0.));
#126=IFCCARTESIANPOINT((0.,4000.,3000.));
#127=IFCCARTESIANPOINT((5000.,4000.,3000.));
#128=IFCFACEOUTERBOUND(#123,.T.);
#129=IFCFACE((#128));
#130=IFCPOLYLOOP((#131,#132,#133,#134));
#131=IFCCARTESIANPOINT((0.,4000.,3000.));
#132=IFCCARTESIANPOINT((0.,0.,3000.));
#133=IFCCARTESIANPOINT((0.,0.,0.));
#134=IFCCARTESIANPOINT((0.,4000.,0.));
#135=IFCFACEOUTERBOUND(#130,.F.);
#136=IFCFACE((#135));
#137=IFCFACETEDBREP(#94);
#138=IFCSHAPEREPRESENTATION(#8,'Body','Brep',(#137));
#139=IFCPRODUCTDEFINITIONSHAPE($,$,(#138));
#140=IFCCLOSEDSHELL((#147,#154,#161,#168,#175,#182));
#141=IFCPOLYLOOP((#142,#143,#144,#145));
#142=IFCCARTESIANPOINT((0.,0.,0.));
#143=IFCCARTESIANPOINT((0.,4000.,0.));
#144=IFCCARTESIANPOINT((3000.,4000.,0.));
#145=IFCCARTESIANPOINT((3000.,0.,0.));
#146=IFCFACEOUTERBOUND(#141,.T.);
#147=IFCFACE((#146));
#148=IFCPOLYLOOP((#149,#150,#151,#152));
#149=IFCCARTESIANPOINT((0.,0.,3000.));
#150=IFCCARTESIANPOINT((3000.,0.,3000.));
#151=IFCCARTESIANPOINT((3000.,4000.,3000.));
#152=IFCCARTESIANPOINT((0.,4000.,3000.));
#153=IFCFACEOUTERBOUND(#148,.T.);
#154=IFCFACE((#153));
#155=IFCPOLYLOOP((#156,#157,#158,#159));
#156=IFCCARTESIANPOINT((0.,0.,0.));
#157=IFCCARTESIANPOINT((3000.,0.,0.));
#158=IFCCARTESIANPOINT((3000.,0.,3000.));
#159=IFCCARTESIANPOINT((0.,0.,3000.));
#160=IFCFACEOUTERBOUND(#155,.T.);
#161=IFCFACE((#160));
#162=IFCPOLYLOOP((#163,#164,#165,#166));
#163=IFCCARTESIANPOINT((3000.,0.,0.));
#164=IFCCARTESIANPOINT((3000.,4000.,0.));
#165=IFCCARTESIANPOINT((3000.,4000.,3000.));
#166=IFCCARTESIANPOINT((3000.,0.,3000.));
#167=IFCFACEOUTERBOUND(#162,.T.);
#168=IFCFACE((#167));
#169=IFCPOLYLOOP((#170,#171,#172,#173));
#170=IFCCARTESIANPOINT((3000.,4000.,0.));
#171=IFCCARTESIANPOINT((0.,4000.,0.));
#172=IFCCARTESIANPOINT((0.,4000.,3000.));
#173=IFCCARTESIANPOINT((3000.,4000.,3000.));
#174=IFCFACEOUTERBOUND(#169,.T.);
#175=IFCFACE((#174));
#176=IFCPOLYLOOP((#177,#178,#179,#180));
#177=IFCCARTESIANPOINT((0.,4000.,3000.));
#178=IFCCARTESIANPOINT((0.,0.,3000.));
#179=IFCCARTESIANPOINT((0.,0.,0.));
#180=IFCCARTESIANPOINT((0.,4000.,0.));
#181=IFCFACEOUTERBOUND(#176,.F.);
#182=IFCFACE((#181));
#183=IFCFACETEDBREP(#140);
#184=IFCSHAPEREPRESENTATION(#8,'Body','Brep',(#183));
#185=IFCPRODUCTDEFINITIONSHAPE($,$,(#184));
#186=IFCCLOSEDSHELL((#193,#200,#207,#214,#221,#228));
#187=IFCPOLYLOOP((#188,#189,#190,#191));
#188=IFCCARTESIANPOINT((0.,0.,0.));
#189=IFCCARTESIANPOINT((0.,4000.,0.));
#190=IFCCARTESIANPOINT((5000.,4000.,0.));
#191=IFCCARTESIANPOINT((5000.,0.,0.));
#192=IFCFACEOUTERBOUND(#187,.T.);
#193=IFCFACE((#192));
#194=IFCPOLYLOOP((#195,#196,#197,#198));
#195=IFCCARTESIANPOINT((0.,0.,3000.));
#196=IFCCARTESIANPOINT((5000.,0.,3000.));
#197=IFCCARTESIANPOINT((5000.,4000.,3000.));
#198=IFCCARTESIANPOINT((0.,4000.,3000.));
#199=IFCFACEOUTERBOUND(#194,.T.);
#200=IFCFACE((#199));
#201=IFCPOLYLOOP((#202,#203,#204,#205));
#202=IFCCARTESIANPOINT((0.,0.,0.));
#203=IFCCARTESIANPOINT((5000.,0.,0.));
#204=IFCCARTESIANPOINT((5000.,0.,3000.));
#205=IFCCARTESIANPOINT((0.,0.,3000.));
#206=IFCFACEOUTERBOUND(#201,.T.);
#207=IFCFACE((#206));
#208=IFCPOLYLOOP((#209,#210,#211,#212));
#209=IFCCARTESIANPOINT((5000.,0.,0.));
#210=IFCCARTESIANPOINT((5000.,4000.,0.));
#211=IFCCARTESIANPOINT((5000.,4000.,3000.));
#212=IFCCARTESIANPOINT((5000.,0.,3000.));
#213=IFCFACEOUTERBOUND(#208,.T.);
#214=IFCFACE((#213));
#215=IFCPOLYLOOP((#216,#217,#218,#219));
#216=IFCCARTESIANPOINT((5000.,4000.,0.));
#217=IFCCARTESIANPOINT((0.,4000.,0.));
#218=IFCCARTESIANPOINT((0.,4000.,3000.));
#219=IFCCARTESIANPOINT((5000.,4000.,3000.));
#220=IFCFACEOUTERBOUND(#215,.T.);
#221=IFCFACE((#220));
#222=IFCPOLYLOOP((#223,#224,#225,#226));
#223=IFCCARTESIANPOINT((0.,4000.,3000.));
#224=IFCCARTESIANPOINT((0.,0.,3000.));
#225=IFCCARTESIANPOINT((0.,0.,0.));
#226=IFCCARTESIANPOINT((0.,4000.,0.));
#227=IFCFACEOUTERBOUND(#222,.F.);
#228=IFCFACE((#227));
#229=IFCFACETEDBREP(#186);
#230=IFCSHAPEREPRESENTATION(#8,'Body','Brep',(#229));
#231=IFCPRODUCTDEFINITIONSHAPE($,$,(#230));
#232=IFCPROPERTYENUMERATEDVALUE('HeatingType',$,(IFCLABEL('bhtHeated')),$);
#233=IFCPROPERTYSINGLEVALUE('InsideTemperature (\X\B0C)',$,IFCREAL(20.),$);
#234=IFCPROPERTYENUMERATEDVALUE('RoomType',$,(IFCLABEL('mrtOffice')),$);
#235=IFCPROPERTYSET('000000001008000000000u',$,'CAD_RaumAllgemein',$,(#232,#233,#234));
#236=IFCRELDEFINESBYPROPERTIES('000000001008000000000v',$,$,$,(#67),#235);
#237=IFCPROPERTYENUMERATEDVALUE('HeatingType',$,(IFCLABEL('bhtHeated')),$);
#238=IFCPROPERTYSINGLEVALUE('InsideTemperature (\X\B0C)',$,IFCREAL(15.),$);
#239=IFCPROPERTYENUMERATEDVALUE('RoomType',$,(IFCLABEL('mrtHall')),$);
#240=IFCPROPERTYSET('0000000010080000000010',$,'CAD_RaumAllgemein',$,(#237,#238,#239));
#241=IFCRELDEFINESBYPROPERTIES('0000000010080000000011',$,$,$,(#76),#240);
#242=IFCPROPERTYENUMERATEDVALUE('HeatingType',$,(IFCLABEL('bhtHeated')),$);
#243=IFCPROPERTYSINGLEVALUE('InsideTemperature (\X\B0C)',$,IFCREAL(20.),$);
#244=IFCPROPERTYENUMERATEDVALUE('RoomType',$,(IFCLABEL('mrtOffice')),$);
#245=IFCPROPERTYSET('0000000010080000000012',$,'CAD_RaumAllgemein',$,(#242,#243,#244));
#246=IFCRELDEFINESBYPROPERTIES('0000000010080000000013',$,$,$,(#85),#245);
#247=IFCRELREFERENCEDINSPATIALSTRUCTURE('0000000010080000000014',$,'Spatial references of space B\X\FCro',$,(#31,#49),#67);
#248=IFCRELREFERENCEDINSPATIALSTRUCTURE('0000000010080000000015',$,'Spatial references of space Flur',$,(#31),#76);
#249=IFCRELREFERENCEDINSPATIALSTRUCTURE('0000000010080000000016',$,'Spatial references of space B\X\FCro 2',$,(#49),#85);
#250=IFCRELSPACEBOUNDARY2NDLEVEL('0000000010080000000017',$,'2ndLevel','2a',#67,#31,#263,.PHYSICAL.,.INTERNAL.,$,#264);
#251=IFCAXIS2PLACEMENT3D(#252,#253,#254);
#252=IFCCARTESIANPOINT((0.,0.,0.));
#253=IFCDIRECTION((1.,0.,0.));
#254=IFCDIRECTION((0.,0.,1.));
#255=IFCPLANE(#251);
#256=IFCPOLYLINE((#257,#258,#259,#260,#261));
#257=IFCCARTESIANPOINT((5000.,0.,0.));
#258=IFCCARTESIANPOINT((5000.,4000.,0.));
#259=IFCCARTESIANPOINT((5000.,4000.,3000.));
#260=IFCCARTESIANPOINT((5000.,0.,3000.));
#261=IFCCARTESIANPOINT((5000.,0.,0.));
#262=IFCCURVEBOUNDEDPLANE(#255,#256,());
#263=IFCCONNECTIONSURFACEGEOMETRY(#262,$);
#264=IFCRELSPACEBOUNDARY2NDLEVEL('0000000010080000000018',$,'2ndLevel','2a',#76,#31,#277,.PHYSICAL.,.INTERNAL.,$,#250);
#265=IFCAXIS2PLACEMENT3D(#266,#267,#268);
#266=IFCCARTESIANPOINT((0.,0.,0.));
#267=IFCDIRECTION((-1.,0.,0.));
#268=IFCDIRECTION((0.,0.,1.));
#269=IFCPLANE(#265);
#270=IFCPOLYLINE((#271,#272,#273,#274,#275));
#271=IFCCARTESIANPOINT((0.,0.,0.));
#272=IFCCARTESIANPOINT((0.,0.,3000.));
#273=IFCCARTESIANPOINT((0.,4000.,3000.));
#274=IFCCARTESIANPOINT((0.,4000.,0.));
#275=IFCCARTESIANPOINT((0.,0.,0.));
#276=IFCCURVEBOUNDEDPLANE(#269,#270,());
#277=IFCCONNECTIONSURFACEGEOMETRY(#276,$);
#278=IFCRELSPACEBOUNDARY2NDLEVEL('0000000010080000000019',$,'2ndLevel','2a',#67,#49,#291,.PHYSICAL.,.INTERNAL.,$,#292);
#279=IFCAXIS2PLACEMENT3D(#280,#281,#282);
#280=IFCCARTESIANPOINT((0.,0.,0.));
#281=IFCDIRECTION((0.,0.,1.));
#282=IFCDIRECTION((1.,0.,0.));
#283=IFCPLANE(#279);
#284=IFCPOLYLINE((#285,#286,#287,#288,#289));
#285=IFCCARTESIANPOINT((0.,0.,3000.));
#286=IFCCARTESIANPOINT((5000.,0.,3000.));
#287=IFCCARTESIANPOINT((5000.,4000.,3000.));
#288=IFCCARTESIANPOINT((0.,4000.,3000.));
#289=IFCCARTESIANPOINT((0.,0.,3000.));
#290=IFCCURVEBOUNDEDPLANE(#283,#284,());
#291=IFCCONNECTIONSURFACEGEOMETRY(#290,$);
#292=IFCRELSPACEBOUNDARY2NDLEVEL('000000001008000000001G',$,'2ndLevel','2a',#85,#49,#305,.PHYSICAL.,.INTERNAL.,$,#278);
#293=IFCAXIS2PLACEMENT3D(#294,#295,#296);
#294=IFCCARTESIANPOINT((0.,0.,0.));
#295=IFCDIRECTION((0.,0.,-1.));
#296=IFCDIRECTION((1.,0.,0.));
#297=IFCPLANE(#293);
#298=IFCPOLYLINE((#299,#300,#301,#302,#303));
#299=IFCCARTESIANPOINT((0.,0.,0.));
#300=IFCCARTESIANPOINT((0.,4000.,0.));
#301=IFCCARTESIANPOINT((5000.,4000.,0.));
#302=IFCCARTESIANPOINT((5000.,0.,0.));
#303=IFCCARTESIANPOINT((0.,0.,0.));
#304=IFCCURVEBOUNDEDPLANE(#297,#298,());
#305=IFCCONNECTIONSURFACEGEOMETRY(#304,$);
ENDSEC;
END-ISO-10303-21;
