ISO-10303-21;
HEADER;
FILE_DESCRIPTION (('ViewDefinition [ReferenceView]'), '2;1');
FILE_NAME ('ifc4_g5_mengen_gegenprobe.ifc', '2026-09-25T00:00:00', (''), (''), 'EPOS-Plan Importprobe (EPOS.Kern.Tests)', 'EPOS-Plan Importprobe, selbst erzeugt', '');
FILE_SCHEMA (('IFC4'));
ENDSEC;
DATA;
#1=IFCPROJECT('0000000010080000000001',$,'Importprobe',$,$,$,$,(#8),#2);
#2=IFCUNITASSIGNMENT((#3,#4,#5,#6,#7));
#3=IFCSIUNIT(*,.LENGTHUNIT.,.MILLI.,.METRE.);
#4=IFCSIUNIT(*,.AREAUNIT.,$,.SQUARE_METRE.);
#5=IFCSIUNIT(*,.VOLUMEUNIT.,$,.CUBIC_METRE.);
#6=IFCSIUNIT(*,.PLANEANGLEUNIT.,$,.RADIAN.);
#7=IFCSIUNIT(*,.THERMODYNAMICTEMPERATUREUNIT.,$,.DEGREE_CELSIUS.);
#8=IFCGEOMETRICREPRESENTATIONCONTEXT($,'Model',3,1.E-05,#9,#11);
#9=IFCAXIS2PLACEMENT3D(#10,$,$);
#10=IFCCARTESIANPOINT((0.,0.,0.));
#11=IFCDIRECTION((-2.,1.,0.));
#12=IFCSITE('0000000010080000000002',$,'Grundst\X\FCck',$,$,#15,$,$,.ELEMENT.,$,$,$,$,$);
#13=IFCAXIS2PLACEMENT3D(#14,$,$);
#14=IFCCARTESIANPOINT((0.,0.,0.));
#15=IFCLOCALPLACEMENT($,#13);
#16=IFCRELAGGREGATES('0000000010080000000003',$,$,$,#1,(#12));
#17=IFCBUILDING('0000000010080000000004',$,'Wandhaus',$,$,#26,$,$,.ELEMENT.,$,$,$);
#18=IFCAXIS2PLACEMENT3D(#19,$,$);
#19=IFCCARTESIANPOINT((0.,0.,0.));
#20=IFCLOCALPLACEMENT(#15,#18);
#21=IFCRELAGGREGATES('0000000010080000000005',$,$,$,#12,(#17));
#22=IFCAXIS2PLACEMENT3D(#23,#24,#25);
#23=IFCCARTESIANPOINT((10000.,5000.,0.));
#24=IFCDIRECTION((0.,0.,1.));
#25=IFCDIRECTION((0.,1.,0.));
#26=IFCLOCALPLACEMENT(#15,#22);
#27=IFCBUILDINGSTOREY('0000000010080000000006',$,'Erdgeschoss',$,$,#30,$,$,.ELEMENT.,3000.);
#28=IFCAXIS2PLACEMENT3D(#29,$,$);
#29=IFCCARTESIANPOINT((0.,0.,3000.));
#30=IFCLOCALPLACEMENT(#26,#28);
#31=IFCRELAGGREGATES('0000000010080000000007',$,$,$,#17,(#27));
#32=IFCSPACE('0000000010080000000008',$,'0.01',$,$,#35,#55,'Wohnen',.ELEMENT.,$,$);
#33=IFCAXIS2PLACEMENT3D(#34,$,$);
#34=IFCCARTESIANPOINT((0.,0.,0.));
#35=IFCLOCALPLACEMENT(#30,#33);
#36=IFCRELAGGREGATES('0000000010080000000009',$,$,$,#27,(#32));
#37=IFCPROPERTYSET('000000001008000000000G',$,'Pset_SpaceCommon',$,(#38));
#38=IFCPROPERTYSINGLEVALUE('IsExternal',$,IFCBOOLEAN(.F.),$);
#39=IFCRELDEFINESBYPROPERTIES('000000001008000000000H',$,$,$,(#32),#37);
#40=IFCPROPERTYBOUNDEDVALUE('SpaceTemperature',$,IFCTHERMODYNAMICTEMPERATUREMEASURE(26.),IFCTHERMODYNAMICTEMPERATUREMEASURE(18.),$,IFCTHERMODYNAMICTEMPERATUREMEASURE(20.));
#41=IFCPROPERTYSET('000000001008000000000I',$,'Pset_SpaceThermalRequirements',$,(#40));
#42=IFCRELDEFINESBYPROPERTIES('000000001008000000000J',$,$,$,(#32),#41);
#43=IFCPOLYLINE((#44,#45,#46,#47,#48));
#44=IFCCARTESIANPOINT((0.,0.));
#45=IFCCARTESIANPOINT((10000.,0.));
#46=IFCCARTESIANPOINT((10000.,8000.));
#47=IFCCARTESIANPOINT((0.,8000.));
#48=IFCCARTESIANPOINT((0.,0.));
#49=IFCARBITRARYCLOSEDPROFILEDEF(.AREA.,$,#43);
#50=IFCAXIS2PLACEMENT3D(#51,$,$);
#51=IFCCARTESIANPOINT((0.,0.,0.));
#52=IFCEXTRUDEDAREASOLID(#49,#50,#53,2500.);
#53=IFCDIRECTION((0.,0.,1.));
#54=IFCSHAPEREPRESENTATION(#8,'Body','SweptSolid',(#52));
#55=IFCPRODUCTDEFINITIONSHAPE($,$,(#54));
#56=IFCWALL('000000001008000000000K',$,'Wand S\X\FCd',$,$,#59,#75,$,.STANDARD.);
#57=IFCAXIS2PLACEMENT3D(#58,$,$);
#58=IFCCARTESIANPOINT((0.,0.,0.));
#59=IFCLOCALPLACEMENT(#30,#57);
#60=IFCRELCONTAINEDINSPATIALSTRUCTURE('000000001008000000000L',$,$,$,(#56,#76,#103,#124),#27);
#61=IFCPROPERTYSET('000000001008000000000M',$,'Pset_WallCommon',$,(#62));
#62=IFCPROPERTYSINGLEVALUE('IsExternal',$,IFCBOOLEAN(.T.),$);
#63=IFCRELDEFINESBYPROPERTIES('000000001008000000000N',$,$,$,(#56),#61);
#64=IFCQUANTITYAREA('GrossSideArea',$,$,25.2,$);
#65=IFCELEMENTQUANTITY('000000001008000000000O',$,'Qto_WallBaseQuantities',$,$,(#64));
#66=IFCRELDEFINESBYPROPERTIES('000000001008000000000P',$,$,$,(#56),#65);
#67=IFCRECTANGLEPROFILEDEF(.AREA.,$,#68,10000.,300.);
#68=IFCAXIS2PLACEMENT2D(#69,$);
#69=IFCCARTESIANPOINT((5000.,-150.));
#70=IFCEXTRUDEDAREASOLID(#67,#71,#73,2500.);
#71=IFCAXIS2PLACEMENT3D(#72,$,$);
#72=IFCCARTESIANPOINT((0.,0.,0.));
#73=IFCDIRECTION((0.,0.,1.));
#74=IFCSHAPEREPRESENTATION(#8,'Body','SweptSolid',(#70));
#75=IFCPRODUCTDEFINITIONSHAPE($,$,(#74));
#76=IFCWALL('000000001008000000000W',$,'Wand Ost',$,$,#81,#102,$,.STANDARD.);
#77=IFCAXIS2PLACEMENT3D(#78,#79,#80);
#78=IFCCARTESIANPOINT((10000.,0.,0.));
#79=IFCDIRECTION((0.,0.,1.));
#80=IFCDIRECTION((0.,1.,0.));
#81=IFCLOCALPLACEMENT(#30,#77);
#82=IFCPROPERTYSET('000000001008000000000X',$,'Pset_WallCommon',$,(#83));
#83=IFCPROPERTYSINGLEVALUE('IsExternal',$,IFCBOOLEAN(.T.),$);
#84=IFCRELDEFINESBYPROPERTIES('000000001008000000000Y',$,$,$,(#76),#82);
#85=IFCQUANTITYAREA('GrossSideArea',$,$,24.25,$);
#86=IFCELEMENTQUANTITY('000000001008000000000Z',$,'Qto_WallBaseQuantities',$,$,(#85));
#87=IFCRELDEFINESBYPROPERTIES('000000001008000000000a',$,$,$,(#76),#86);
#88=IFCARBITRARYCLOSEDPROFILEDEF(.AREA.,$,#89);
#89=IFCPOLYLINE((#90,#91,#92,#93,#94,#95,#96));
#90=IFCCARTESIANPOINT((0.,0.));
#91=IFCCARTESIANPOINT((0.,-300.));
#92=IFCCARTESIANPOINT((7700.,-300.));
#93=IFCCARTESIANPOINT((7700.,-2000.));
#94=IFCCARTESIANPOINT((8000.,-2000.));
#95=IFCCARTESIANPOINT((8000.,0.));
#96=IFCCARTESIANPOINT((0.,0.));
#97=IFCEXTRUDEDAREASOLID(#88,#98,#100,2500.);
#98=IFCAXIS2PLACEMENT3D(#99,$,$);
#99=IFCCARTESIANPOINT((0.,0.,0.));
#100=IFCDIRECTION((0.,0.,1.));
#101=IFCSHAPEREPRESENTATION(#8,'Body','SweptSolid',(#97));
#102=IFCPRODUCTDEFINITIONSHAPE($,$,(#101));
#103=IFCWALL('000000001008000000000b',$,'Wand Nord',$,$,#108,#123,$,.STANDARD.);
#104=IFCAXIS2PLACEMENT3D(#105,#106,#107);
#105=IFCCARTESIANPOINT((10000.,8000.,0.));
#106=IFCDIRECTION((0.,0.,1.));
#107=IFCDIRECTION((-1.,0.,0.));
#108=IFCLOCALPLACEMENT(#30,#104);
#109=IFCPROPERTYSET('000000001008000000000c',$,'Pset_WallCommon',$,(#110));
#110=IFCPROPERTYSINGLEVALUE('IsExternal',$,IFCBOOLEAN(.T.),$);
#111=IFCRELDEFINESBYPROPERTIES('000000001008000000000d',$,$,$,(#103),#109);
#112=IFCQUANTITYAREA('GrossSideArea',$,$,26.25,$);
#113=IFCELEMENTQUANTITY('000000001008000000000e',$,'Qto_WallBaseQuantities',$,$,(#112));
#114=IFCRELDEFINESBYPROPERTIES('000000001008000000000f',$,$,$,(#103),#113);
#115=IFCRECTANGLEPROFILEDEF(.AREA.,$,#116,10000.,300.);
#116=IFCAXIS2PLACEMENT2D(#117,$);
#117=IFCCARTESIANPOINT((5000.,-150.));
#118=IFCEXTRUDEDAREASOLID(#115,#119,#121,2500.);
#119=IFCAXIS2PLACEMENT3D(#120,$,$);
#120=IFCCARTESIANPOINT((0.,0.,0.));
#121=IFCDIRECTION((0.,0.,1.));
#122=IFCSHAPEREPRESENTATION(#8,'Body','SweptSolid',(#118));
#123=IFCPRODUCTDEFINITIONSHAPE($,$,(#122));
#124=IFCWALL('000000001008000000000m',$,'Wand West',$,$,#129,#144,$,.STANDARD.);
#125=IFCAXIS2PLACEMENT3D(#126,#127,#128);
#126=IFCCARTESIANPOINT((0.,8000.,0.));
#127=IFCDIRECTION((0.,0.,1.));
#128=IFCDIRECTION((0.,-1.,0.));
#129=IFCLOCALPLACEMENT(#30,#125);
#130=IFCPROPERTYSET('000000001008000000000n',$,'Pset_WallCommon',$,(#131));
#131=IFCPROPERTYSINGLEVALUE('IsExternal',$,IFCBOOLEAN(.T.),$);
#132=IFCRELDEFINESBYPROPERTIES('000000001008000000000o',$,$,$,(#124),#130);
#133=IFCQUANTITYAREA('GrossSideArea',$,$,19.9,$);
#134=IFCELEMENTQUANTITY('000000001008000000000p',$,'Qto_WallBaseQuantities',$,$,(#133));
#135=IFCRELDEFINESBYPROPERTIES('000000001008000000000q',$,$,$,(#124),#134);
#136=IFCRECTANGLEPROFILEDEF(.AREA.,$,#137,8000.,300.);
#137=IFCAXIS2PLACEMENT2D(#138,$);
#138=IFCCARTESIANPOINT((4000.,-150.));
#139=IFCEXTRUDEDAREASOLID(#136,#140,#142,2500.);
#140=IFCAXIS2PLACEMENT3D(#141,$,$);
#141=IFCCARTESIANPOINT((0.,0.,0.));
#142=IFCDIRECTION((0.,0.,1.));
#143=IFCSHAPEREPRESENTATION(#8,'Body','SweptSolid',(#139));
#144=IFCPRODUCTDEFINITIONSHAPE($,$,(#143));
ENDSEC;
END-ISO-10303-21;
