ISO-10303-21;
HEADER;
FILE_DESCRIPTION (('ViewDefinition [ReferenceView]'), '2;1');
FILE_NAME ('ifc4_koerper_bauteile.ifc', '2026-09-25T00:00:00', (''), (''), 'EPOS-Plan Importprobe (EPOS.Kern.Tests)', 'EPOS-Plan Importprobe, selbst erzeugt', '');
FILE_SCHEMA (('IFC4'));
ENDSEC;
DATA;
#1=IFCPROJECT('0000000010080000000001',$,'Importprobe',$,$,$,$,(#8),#2);
#2=IFCUNITASSIGNMENT((#3,#4,#5,#6,#7));
#3=IFCSIUNIT(*,.LENGTHUNIT.,.MILLI.,.METRE.);
#4=IFCSIUNIT(*,.AREAUNIT.,$,.SQUARE_METRE.);
#5=IFCSIUNIT(*,.VOLUMEUNIT.,$,.CUBIC_METRE.);
#6=IFCSIUNIT(*,.PLANEANGLEUNIT.,$,.RADIAN.);
#7=IFCSIUNIT(*,.THERMODYNAMICTEMPERATUREUNIT.,$,.DEGREE_CELSIUS.);
#8=IFCGEOMETRICREPRESENTATIONCONTEXT($,'Model',3,1.E-05,#9,#11);
#9=IFCAXIS2PLACEMENT3D(#10,$,$);
#10=IFCCARTESIANPOINT((0.,0.,0.));
#11=IFCDIRECTION((0.,1.,0.));
#12=IFCSITE('0000000010080000000002',$,'Grundst\X\FCck',$,$,#15,$,$,.ELEMENT.,$,$,$,$,$);
#13=IFCAXIS2PLACEMENT3D(#14,$,$);
#14=IFCCARTESIANPOINT((0.,0.,0.));
#15=IFCLOCALPLACEMENT($,#13);
#16=IFCRELAGGREGATES('0000000010080000000003',$,$,$,#1,(#12));
#17=IFCBUILDING('0000000010080000000004',$,'Bauteilk\X\F6rper',$,$,#20,$,$,.ELEMENT.,$,$,$);
#18=IFCAXIS2PLACEMENT3D(#19,$,$);
#19=IFCCARTESIANPOINT((0.,0.,0.));
#20=IFCLOCALPLACEMENT(#15,#18);
#21=IFCRELAGGREGATES('0000000010080000000005',$,$,$,#12,(#17));
#22=IFCBUILDINGSTOREY('0000000010080000000006',$,'EG',$,$,#25,$,$,.ELEMENT.,0.);
#23=IFCAXIS2PLACEMENT3D(#24,$,$);
#24=IFCCARTESIANPOINT((0.,0.,0.));
#25=IFCLOCALPLACEMENT(#20,#23);
#26=IFCRELCONTAINEDINSPATIALSTRUCTURE('0000000010080000000007',$,$,$,(#22),#17);
#27=IFCWALL('0000000010080000000008',$,'Au\X\DFenwand S\X\FCd',$,$,#30,#91,$,$);
#28=IFCAXIS2PLACEMENT3D(#29,$,$);
#29=IFCCARTESIANPOINT((0.,0.,0.));
#30=IFCLOCALPLACEMENT(#25,#28);
#31=IFCRELCONTAINEDINSPATIALSTRUCTURE('0000000010080000000009',$,$,$,(#27,#92,#159,#176,#193,#202),#22);
#32=IFCPROPERTYENUMERATEDVALUE('AdjacentType',$,(IFCLABEL('btaOutside')),$);
#33=IFCPROPERTYSINGLEVALUE('Orientation (\X\B0)',$,IFCLABEL('180'),$);
#34=IFCPROPERTYSET('000000001008000000000G',$,'CAD_BauteilAllgemein',$,(#32,#33));
#35=IFCRELDEFINESBYPROPERTIES('000000001008000000000H',$,$,$,(#27),#34);
#36=IFCPROPERTYSET('000000001008000000000I',$,'CAD_BauteilEnergetik',$,(#37));
#37=IFCPROPERTYSINGLEVALUE('ElementEnergyConsultingProperties.CladdingSurface',$,IFCBOOLEAN(.T.),$);
#38=IFCRELDEFINESBYPROPERTIES('000000001008000000000J',$,$,$,(#27),#36);
#39=IFCPROPERTYSET('000000001008000000000K',$,'CAD_Bauteilreferenzen',$,(#40));
#40=IFCPROPERTYSINGLEVALUE('UValue (W/(m\X\B2 K))',$,IFCREAL(0.3),$);
#41=IFCRELDEFINESBYPROPERTIES('000000001008000000000L',$,$,$,(#27),#39);
#42=IFCQUANTITYAREA('GrossArea',$,$,27.72,$);
#43=IFCQUANTITYAREA('NetArea',$,$,26.82,$);
#44=IFCELEMENTQUANTITY('000000001008000000000M',$,'CAD_BauteilQuantities',$,$,(#42,#43));
#45=IFCRELDEFINESBYPROPERTIES('000000001008000000000N',$,$,$,(#27),#44);
#46=IFCOPENSHELL((#53,#60,#67,#74,#81,#88));
#47=IFCPOLYLOOP((#48,#49,#50,#51));
#48=IFCCARTESIANPOINT((0.,-300.,0.));
#49=IFCCARTESIANPOINT((0.,0.,0.));
#50=IFCCARTESIANPOINT((9240.,0.,0.));
#51=IFCCARTESIANPOINT((9240.,-300.,0.));
#52=IFCFACEOUTERBOUND(#47,.T.);
#53=IFCFACE((#52));
#54=IFCPOLYLOOP((#55,#56,#57,#58));
#55=IFCCARTESIANPOINT((0.,-300.,3000.));
#56=IFCCARTESIANPOINT((9240.,-300.,3000.));
#57=IFCCARTESIANPOINT((9240.,0.,3000.));
#58=IFCCARTESIANPOINT((0.,0.,3000.));
#59=IFCFACEOUTERBOUND(#54,.T.);
#60=IFCFACE((#59));
#61=IFCPOLYLOOP((#62,#63,#64,#65));
#62=IFCCARTESIANPOINT((0.,-300.,0.));
#63=IFCCARTESIANPOINT((9240.,-300.,0.));
#64=IFCCARTESIANPOINT((9240.,-300.,3000.));
#65=IFCCARTESIANPOINT((0.,-300.,3000.));
#66=IFCFACEOUTERBOUND(#61,.T.);
#67=IFCFACE((#66));
#68=IFCPOLYLOOP((#69,#70,#71,#72));
#69=IFCCARTESIANPOINT((9240.,-300.,0.));
#70=IFCCARTESIANPOINT((9240.,0.,0.));
#71=IFCCARTESIANPOINT((9240.,0.,3000.));
#72=IFCCARTESIANPOINT((9240.,-300.,3000.));
#73=IFCFACEOUTERBOUND(#68,.T.);
#74=IFCFACE((#73));
#75=IFCPOLYLOOP((#76,#77,#78,#79));
#76=IFCCARTESIANPOINT((9240.,0.,0.));
#77=IFCCARTESIANPOINT((0.,0.,0.));
#78=IFCCARTESIANPOINT((0.,0.,3000.));
#79=IFCCARTESIANPOINT((9240.,0.,3000.));
#80=IFCFACEOUTERBOUND(#75,.T.);
#81=IFCFACE((#80));
#82=IFCPOLYLOOP((#83,#84,#85,#86));
#83=IFCCARTESIANPOINT((0.,0.,0.));
#84=IFCCARTESIANPOINT((0.,-300.,0.));
#85=IFCCARTESIANPOINT((0.,-300.,3000.));
#86=IFCCARTESIANPOINT((0.,0.,3000.));
#87=IFCFACEOUTERBOUND(#82,.T.);
#88=IFCFACE((#87));
#89=IFCSHELLBASEDSURFACEMODEL((#46));
#90=IFCSHAPEREPRESENTATION(#8,'Body','SurfaceModel',(#89));
#91=IFCPRODUCTDEFINITIONSHAPE($,$,(#90));
#92=IFCWINDOW('000000001008000000000O',$,'Fenster S\X\FCd',$,$,#95,#158,$,1200.,1500.,$,$,$);
#93=IFCAXIS2PLACEMENT3D(#94,$,$);
#94=IFCCARTESIANPOINT((0.,0.,0.));
#95=IFCLOCALPLACEMENT(#25,#93);
#96=IFCOPENINGELEMENT('000000001008000000000P',$,'\X\D6ffnung Fenster S\X\FCd',$,$,$,$,$,$);
#97=IFCRELVOIDSELEMENT('000000001008000000000W',$,$,$,#27,#96);
#98=IFCRELFILLSELEMENT('000000001008000000000X',$,$,$,#96,#92);
#99=IFCPROPERTYENUMERATEDVALUE('AdjacentType',$,(IFCLABEL('btaOutside')),$);
#100=IFCPROPERTYSET('000000001008000000000Y',$,'CAD_BauteilAllgemein',$,(#99));
#101=IFCRELDEFINESBYPROPERTIES('000000001008000000000Z',$,$,$,(#92),#100);
#102=IFCPROPERTYSET('000000001008000000000a',$,'CAD_BauteilEnergetik',$,(#103));
#103=IFCPROPERTYSINGLEVALUE('ElementEnergyConsultingProperties.CladdingSurface',$,IFCBOOLEAN(.T.),$);
#104=IFCRELDEFINESBYPROPERTIES('000000001008000000000b',$,$,$,(#92),#102);
#105=IFCPROPERTYSET('000000001008000000000c',$,'CAD_Bauteilreferenzen',$,(#106));
#106=IFCPROPERTYSINGLEVALUE('UValue (W/(m\X\B2 K))',$,IFCREAL(1.1),$);
#107=IFCRELDEFINESBYPROPERTIES('000000001008000000000d',$,$,$,(#92),#105);
#108=IFCQUANTITYAREA('GrossArea',$,$,1.8,$);
#109=IFCQUANTITYLENGTH('Width',$,$,5000.,$);
#110=IFCQUANTITYLENGTH('Length',$,$,5000.,$);
#111=IFCELEMENTQUANTITY('000000001008000000000e',$,'CAD_BauteilQuantities',$,$,(#108,#109,#110));
#112=IFCRELDEFINESBYPROPERTIES('000000001008000000000f',$,$,$,(#92),#111);
#113=IFCOPENSHELL((#120,#127,#134,#141,#148,#155));
#114=IFCPOLYLOOP((#115,#116,#117,#118));
#115=IFCCARTESIANPOINT((1000.,-300.,900.));
#116=IFCCARTESIANPOINT((1000.,0.,900.));
#117=IFCCARTESIANPOINT((2500.,0.,900.));
#118=IFCCARTESIANPOINT((2500.,-300.,900.));
#119=IFCFACEOUTERBOUND(#114,.T.);
#120=IFCFACE((#119));
#121=IFCPOLYLOOP((#122,#123,#124,#125));
#122=IFCCARTESIANPOINT((1000.,-300.,2100.));
#123=IFCCARTESIANPOINT((2500.,-300.,2100.));
#124=IFCCARTESIANPOINT((2500.,0.,2100.));
#125=IFCCARTESIANPOINT((1000.,0.,2100.));
#126=IFCFACEOUTERBOUND(#121,.T.);
#127=IFCFACE((#126));
#128=IFCPOLYLOOP((#129,#130,#131,#132));
#129=IFCCARTESIANPOINT((1000.,-300.,900.));
#130=IFCCARTESIANPOINT((2500.,-300.,900.));
#131=IFCCARTESIANPOINT((2500.,-300.,2100.));
#132=IFCCARTESIANPOINT((1000.,-300.,2100.));
#133=IFCFACEOUTERBOUND(#128,.T.);
#134=IFCFACE((#133));
#135=IFCPOLYLOOP((#136,#137,#138,#139));
#136=IFCCARTESIANPOINT((2500.,-300.,900.));
#137=IFCCARTESIANPOINT((2500.,0.,900.));
#138=IFCCARTESIANPOINT((2500.,0.,2100.));
#139=IFCCARTESIANPOINT((2500.,-300.,2100.));
#140=IFCFACEOUTERBOUND(#135,.T.);
#141=IFCFACE((#140));
#142=IFCPOLYLOOP((#143,#144,#145,#146));
#143=IFCCARTESIANPOINT((2500.,0.,900.));
#144=IFCCARTESIANPOINT((1000.,0.,900.));
#145=IFCCARTESIANPOINT((1000.,0.,2100.));
#146=IFCCARTESIANPOINT((2500.,0.,2100.));
#147=IFCFACEOUTERBOUND(#142,.T.);
#148=IFCFACE((#147));
#149=IFCPOLYLOOP((#150,#151,#152,#153));
#150=IFCCARTESIANPOINT((1000.,0.,900.));
#151=IFCCARTESIANPOINT((1000.,-300.,900.));
#152=IFCCARTESIANPOINT((1000.,-300.,2100.));
#153=IFCCARTESIANPOINT((1000.,0.,2100.));
#154=IFCFACEOUTERBOUND(#149,.T.);
#155=IFCFACE((#154));
#156=IFCSHELLBASEDSURFACEMODEL((#113));
#157=IFCSHAPEREPRESENTATION(#8,'Body','SurfaceModel',(#156));
#158=IFCPRODUCTDEFINITIONSHAPE($,$,(#157));
#159=IFCWALL('000000001008000000000m',$,'Innenwand',$,$,#162,$,$,$);
#160=IFCAXIS2PLACEMENT3D(#161,$,$);
#161=IFCCARTESIANPOINT((0.,0.,0.));
#162=IFCLOCALPLACEMENT(#25,#160);
#163=IFCPROPERTYENUMERATEDVALUE('AdjacentType',$,(IFCLABEL('btaUnHeated')),$);
#164=IFCPROPERTYSET('000000001008000000000n',$,'CAD_BauteilAllgemein',$,(#163));
#165=IFCRELDEFINESBYPROPERTIES('000000001008000000000o',$,$,$,(#159),#164);
#166=IFCPROPERTYSET('000000001008000000000p',$,'CAD_BauteilEnergetik',$,(#167));
#167=IFCPROPERTYSINGLEVALUE('ElementEnergyConsultingProperties.CladdingSurface',$,IFCBOOLEAN(.T.),$);
#168=IFCRELDEFINESBYPROPERTIES('000000001008000000000q',$,$,$,(#159),#166);
#169=IFCPROPERTYSET('000000001008000000000r',$,'CAD_Bauteilreferenzen',$,(#170));
#170=IFCPROPERTYSINGLEVALUE('UValue (W/(m\X\B2 K))',$,IFCREAL(0.5),$);
#171=IFCRELDEFINESBYPROPERTIES('000000001008000000000s',$,$,$,(#159),#169);
#172=IFCQUANTITYAREA('GrossArea',$,$,12.,$);
#173=IFCQUANTITYAREA('NetArea',$,$,12.,$);
#174=IFCELEMENTQUANTITY('000000001008000000000t',$,'CAD_BauteilQuantities',$,$,(#172,#173));
#175=IFCRELDEFINESBYPROPERTIES('000000001008000000000u',$,$,$,(#159),#174);
#176=IFCSLAB('000000001008000000000v',$,'Bodenplatte',$,$,#179,$,$,$);
#177=IFCAXIS2PLACEMENT3D(#178,$,$);
#178=IFCCARTESIANPOINT((0.,0.,0.));
#179=IFCLOCALPLACEMENT(#25,#177);
#180=IFCPROPERTYENUMERATEDVALUE('AdjacentType',$,(IFCLABEL('btaGround')),$);
#181=IFCPROPERTYSET('0000000010080000000010',$,'CAD_BauteilAllgemein',$,(#180));
#182=IFCRELDEFINESBYPROPERTIES('0000000010080000000011',$,$,$,(#176),#181);
#183=IFCPROPERTYSET('0000000010080000000012',$,'CAD_BauteilEnergetik',$,(#184));
#184=IFCPROPERTYSINGLEVALUE('ElementEnergyConsultingProperties.CladdingSurface',$,IFCBOOLEAN(.T.),$);
#185=IFCRELDEFINESBYPROPERTIES('0000000010080000000013',$,$,$,(#176),#183);
#186=IFCPROPERTYSET('0000000010080000000014',$,'CAD_Bauteilreferenzen',$,(#187));
#187=IFCPROPERTYSINGLEVALUE('UValue (W/(m\X\B2 K))',$,IFCREAL(0.4),$);
#188=IFCRELDEFINESBYPROPERTIES('0000000010080000000015',$,$,$,(#176),#186);
#189=IFCQUANTITYAREA('GrossArea',$,$,36.,$);
#190=IFCQUANTITYAREA('NetArea',$,$,36.,$);
#191=IFCELEMENTQUANTITY('0000000010080000000016',$,'CAD_BauteilQuantities',$,$,(#189,#190));
#192=IFCRELDEFINESBYPROPERTIES('0000000010080000000017',$,$,$,(#176),#191);
#193=IFCSPACE('0000000010080000000018',$,'Wohnen',$,$,#196,#256,$,.ELEMENT.,$,$);
#194=IFCAXIS2PLACEMENT3D(#195,$,$);
#195=IFCCARTESIANPOINT((0.,0.,0.));
#196=IFCLOCALPLACEMENT(#25,#194);
#197=IFCQUANTITYAREA('Area',$,$,20.,$);
#198=IFCQUANTITYVOLUME('Volume',$,$,60.,$);
#199=IFCQUANTITYLENGTH('Height',$,$,3000.,$);
#200=IFCELEMENTQUANTITY('0000000010080000000019',$,'CAD_RaumQuantities',$,$,(#197,#198,#199));
#201=IFCRELDEFINESBYPROPERTIES('000000001008000000001G',$,$,$,(#193),#200);
#202=IFCSPACE('000000001008000000001H',$,'Kammer',$,$,#205,#302,$,.ELEMENT.,$,$);
#203=IFCAXIS2PLACEMENT3D(#204,$,$);
#204=IFCCARTESIANPOINT((5240.,0.,0.));
#205=IFCLOCALPLACEMENT(#25,#203);
#206=IFCQUANTITYAREA('Area',$,$,16.,$);
#207=IFCQUANTITYVOLUME('Volume',$,$,48.,$);
#208=IFCQUANTITYLENGTH('Height',$,$,3000.,$);
#209=IFCELEMENTQUANTITY('000000001008000000001I',$,'CAD_RaumQuantities',$,$,(#206,#207,#208));
#210=IFCRELDEFINESBYPROPERTIES('000000001008000000001J',$,$,$,(#202),#209);
#211=IFCCLOSEDSHELL((#218,#225,#232,#239,#246,#253));
#212=IFCPOLYLOOP((#213,#214,#215,#216));
#213=IFCCARTESIANPOINT((0.,0.,0.));
#214=IFCCARTESIANPOINT((0.,4000.,0.));
#215=IFCCARTESIANPOINT((5000.,4000.,0.));
#216=IFCCARTESIANPOINT((5000.,0.,0.));
#217=IFCFACEOUTERBOUND(#212,.T.);
#218=IFCFACE((#217));
#219=IFCPOLYLOOP((#220,#221,#222,#223));
#220=IFCCARTESIANPOINT((0.,0.,3000.));
#221=IFCCARTESIANPOINT((5000.,0.,3000.));
#222=IFCCARTESIANPOINT((5000.,4000.,3000.));
#223=IFCCARTESIANPOINT((0.,4000.,3000.));
#224=IFCFACEOUTERBOUND(#219,.T.);
#225=IFCFACE((#224));
#226=IFCPOLYLOOP((#227,#228,#229,#230));
#227=IFCCARTESIANPOINT((0.,0.,0.));
#228=IFCCARTESIANPOINT((5000.,0.,0.));
#229=IFCCARTESIANPOINT((5000.,0.,3000.));
#230=IFCCARTESIANPOINT((0.,0.,3000.));
#231=IFCFACEOUTERBOUND(#226,.T.);
#232=IFCFACE((#231));
#233=IFCPOLYLOOP((#234,#235,#236,#237));
#234=IFCCARTESIANPOINT((5000.,0.,0.));
#235=IFCCARTESIANPOINT((5000.,4000.,0.));
#236=IFCCARTESIANPOINT((5000.,4000.,3000.));
#237=IFCCARTESIANPOINT((5000.,0.,3000.));
#238=IFCFACEOUTERBOUND(#233,.T.);
#239=IFCFACE((#238));
#240=IFCPOLYLOOP((#241,#242,#243,#244));
#241=IFCCARTESIANPOINT((5000.,4000.,0.));
#242=IFCCARTESIANPOINT((0.,4000.,0.));
#243=IFCCARTESIANPOINT((0.,4000.,3000.));
#244=IFCCARTESIANPOINT((5000.,4000.,3000.));
#245=IFCFACEOUTERBOUND(#240,.T.);
#246=IFCFACE((#245));
#247=IFCPOLYLOOP((#248,#249,#250,#251));
#248=IFCCARTESIANPOINT((0.,4000.,3000.));
#249=IFCCARTESIANPOINT((0.,0.,3000.));
#250=IFCCARTESIANPOINT((0.,0.,0.));
#251=IFCCARTESIANPOINT((0.,4000.,0.));
#252=IFCFACEOUTERBOUND(#247,.F.);
#253=IFCFACE((#252));
#254=IFCFACETEDBREP(#211);
#255=IFCSHAPEREPRESENTATION(#8,'Body','Brep',(#254));
#256=IFCPRODUCTDEFINITIONSHAPE($,$,(#255));
#257=IFCCLOSEDSHELL((#264,#271,#278,#285,#292,#299));
#258=IFCPOLYLOOP((#259,#260,#261,#262));
#259=IFCCARTESIANPOINT((0.,0.,0.));
#260=IFCCARTESIANPOINT((0.,4000.,0.));
#261=IFCCARTESIANPOINT((4000.,4000.,0.));
#262=IFCCARTESIANPOINT((4000.,0.,0.));
#263=IFCFACEOUTERBOUND(#258,.T.);
#264=IFCFACE((#263));
#265=IFCPOLYLOOP((#266,#267,#268,#269));
#266=IFCCARTESIANPOINT((0.,0.,3000.));
#267=IFCCARTESIANPOINT((4000.,0.,3000.));
#268=IFCCARTESIANPOINT((4000.,4000.,3000.));
#269=IFCCARTESIANPOINT((0.,4000.,3000.));
#270=IFCFACEOUTERBOUND(#265,.T.);
#271=IFCFACE((#270));
#272=IFCPOLYLOOP((#273,#274,#275,#276));
#273=IFCCARTESIANPOINT((0.,0.,0.));
#274=IFCCARTESIANPOINT((4000.,0.,0.));
#275=IFCCARTESIANPOINT((4000.,0.,3000.));
#276=IFCCARTESIANPOINT((0.,0.,3000.));
#277=IFCFACEOUTERBOUND(#272,.T.);
#278=IFCFACE((#277));
#279=IFCPOLYLOOP((#280,#281,#282,#283));
#280=IFCCARTESIANPOINT((4000.,0.,0.));
#281=IFCCARTESIANPOINT((4000.,4000.,0.));
#282=IFCCARTESIANPOINT((4000.,4000.,3000.));
#283=IFCCARTESIANPOINT((4000.,0.,3000.));
#284=IFCFACEOUTERBOUND(#279,.T.);
#285=IFCFACE((#284));
#286=IFCPOLYLOOP((#287,#288,#289,#290));
#287=IFCCARTESIANPOINT((4000.,4000.,0.));
#288=IFCCARTESIANPOINT((0.,4000.,0.));
#289=IFCCARTESIANPOINT((0.,4000.,3000.));
#290=IFCCARTESIANPOINT((4000.,4000.,3000.));
#291=IFCFACEOUTERBOUND(#286,.T.);
#292=IFCFACE((#291));
#293=IFCPOLYLOOP((#294,#295,#296,#297));
#294=IFCCARTESIANPOINT((0.,4000.,3000.));
#295=IFCCARTESIANPOINT((0.,0.,3000.));
#296=IFCCARTESIANPOINT((0.,0.,0.));
#297=IFCCARTESIANPOINT((0.,4000.,0.));
#298=IFCFACEOUTERBOUND(#293,.F.);
#299=IFCFACE((#298));
#300=IFCFACETEDBREP(#257);
#301=IFCSHAPEREPRESENTATION(#8,'Body','Brep',(#300));
#302=IFCPRODUCTDEFINITIONSHAPE($,$,(#301));
#303=IFCPROPERTYENUMERATEDVALUE('HeatingType',$,(IFCLABEL('bhtHeated')),$);
#304=IFCPROPERTYSINGLEVALUE('InsideTemperature (\X\B0C)',$,IFCREAL(20.),$);
#305=IFCPROPERTYENUMERATEDVALUE('RoomType',$,(IFCLABEL('mrtLiving')),$);
#306=IFCPROPERTYSET('000000001008000000001K',$,'CAD_RaumAllgemein',$,(#303,#304,#305));
#307=IFCRELDEFINESBYPROPERTIES('000000001008000000001L',$,$,$,(#193),#306);
#308=IFCPROPERTYENUMERATEDVALUE('HeatingType',$,(IFCLABEL('bhtUnHeated')),$);
#309=IFCPROPERTYENUMERATEDVALUE('RoomType',$,(IFCLABEL('mrtStore')),$);
#310=IFCPROPERTYSET('000000001008000000001M',$,'CAD_RaumAllgemein',$,(#308,#309));
#311=IFCRELDEFINESBYPROPERTIES('000000001008000000001N',$,$,$,(#202),#310);
#312=IFCRELREFERENCEDINSPATIALSTRUCTURE('000000001008000000001O',$,'Spatial references of space Wohnen',$,(#27,#92,#159,#176),#193);
#313=IFCRELREFERENCEDINSPATIALSTRUCTURE('000000001008000000001P',$,'Spatial references of space Kammer',$,(#27,#159,#176),#202);
ENDSEC;
END-ISO-10303-21;
