ISO-10303-21;
HEADER;
FILE_DESCRIPTION (('ViewDefinition [ReferenceView]'), '2;1');
FILE_NAME ('ifc4_rueckfaelle.ifc', '2026-09-25T00:00:00', (''), (''), 'EPOS-Plan Importprobe (EPOS.Kern.Tests)', 'EPOS-Plan Importprobe, selbst erzeugt', '');
FILE_SCHEMA (('IFC4'));
ENDSEC;
DATA;
#1=IFCPROJECT('0000000010080000000001',$,'Importprobe',$,$,$,$,(#8),#2);
#2=IFCUNITASSIGNMENT((#3,#4,#5,#6,#7));
#3=IFCSIUNIT(*,.LENGTHUNIT.,.MILLI.,.METRE.);
#4=IFCSIUNIT(*,.AREAUNIT.,$,.SQUARE_METRE.);
#5=IFCSIUNIT(*,.VOLUMEUNIT.,$,.CUBIC_METRE.);
#6=IFCSIUNIT(*,.PLANEANGLEUNIT.,$,.RADIAN.);
#7=IFCSIUNIT(*,.THERMODYNAMICTEMPERATUREUNIT.,$,.DEGREE_CELSIUS.);
#8=IFCGEOMETRICREPRESENTATIONCONTEXT($,'Model',3,1.E-05,#9,#11);
#9=IFCAXIS2PLACEMENT3D(#10,$,$);
#10=IFCCARTESIANPOINT((0.,0.,0.));
#11=IFCDIRECTION((0.,1.,0.));
#12=IFCSITE('0000000010080000000002',$,'Grundst\X\FCck',$,$,#15,$,$,.ELEMENT.,$,$,$,$,$);
#13=IFCAXIS2PLACEMENT3D(#14,$,$);
#14=IFCCARTESIANPOINT((0.,0.,0.));
#15=IFCLOCALPLACEMENT($,#13);
#16=IFCRELAGGREGATES('0000000010080000000003',$,$,$,#1,(#12));
#17=IFCBUILDING('0000000010080000000004',$,'R\X\FCckfallhaus',$,$,#20,$,$,.ELEMENT.,$,$,$);
#18=IFCAXIS2PLACEMENT3D(#19,$,$);
#19=IFCCARTESIANPOINT((0.,0.,0.));
#20=IFCLOCALPLACEMENT(#15,#18);
#21=IFCRELAGGREGATES('0000000010080000000005',$,$,$,#12,(#17));
#22=IFCBUILDINGSTOREY('0000000010080000000006',$,'Erdgeschoss',$,$,#25,$,$,.ELEMENT.,0.);
#23=IFCAXIS2PLACEMENT3D(#24,$,$);
#24=IFCCARTESIANPOINT((0.,0.,0.));
#25=IFCLOCALPLACEMENT(#20,#23);
#26=IFCRELAGGREGATES('0000000010080000000007',$,$,$,#17,(#22,#27));
#27=IFCBUILDINGSTOREY('0000000010080000000008',$,'Obergeschoss',$,$,#30,$,$,.ELEMENT.,2800.);
#28=IFCAXIS2PLACEMENT3D(#29,$,$);
#29=IFCCARTESIANPOINT((0.,0.,2800.));
#30=IFCLOCALPLACEMENT(#20,#28);
#31=IFCQUANTITYAREA('GrossFloorArea',$,$,70.,$);
#32=IFCELEMENTQUANTITY('0000000010080000000009',$,'Qto_BuildingStoreyBaseQuantities',$,$,(#31));
#33=IFCRELDEFINESBYPROPERTIES('000000001008000000000G',$,$,$,(#27),#32);
#34=IFCSPACE('000000001008000000000H',$,'0.01',$,$,#37,$,'Wohnen',.ELEMENT.,$,$);
#35=IFCAXIS2PLACEMENT3D(#36,$,$);
#36=IFCCARTESIANPOINT((150.,150.,0.));
#37=IFCLOCALPLACEMENT(#25,#35);
#38=IFCRELAGGREGATES('000000001008000000000I',$,$,$,#22,(#34));
#39=IFCQUANTITYAREA('NetFloorArea',$,$,60.,$);
#40=IFCELEMENTQUANTITY('000000001008000000000J',$,'BaseQuantities',$,$,(#39));
#41=IFCRELDEFINESBYPROPERTIES('000000001008000000000K',$,$,$,(#34),#40);
#42=IFCPROPERTYSET('000000001008000000000L',$,'Pset_SpaceCommon',$,(#43));
#43=IFCPROPERTYSINGLEVALUE('IsExternal',$,IFCBOOLEAN(.F.),$);
#44=IFCRELDEFINESBYPROPERTIES('000000001008000000000M',$,$,$,(#34),#42);
#45=IFCPROPERTYBOUNDEDVALUE('SpaceTemperature',$,IFCTHERMODYNAMICTEMPERATUREMEASURE(26.),IFCTHERMODYNAMICTEMPERATUREMEASURE(18.),$,IFCTHERMODYNAMICTEMPERATUREMEASURE(20.));
#46=IFCPROPERTYSET('000000001008000000000N',$,'Pset_SpaceThermalRequirements',$,(#45));
#47=IFCRELDEFINESBYPROPERTIES('000000001008000000000O',$,$,$,(#34),#46);
#48=IFCSPACE('000000001008000000000P',$,'1.01',$,$,#51,$,'Schlafen',.ELEMENT.,$,$);
#49=IFCAXIS2PLACEMENT3D(#50,$,$);
#50=IFCCARTESIANPOINT((150.,150.,0.));
#51=IFCLOCALPLACEMENT(#30,#49);
#52=IFCRELAGGREGATES('000000001008000000000W',$,$,$,#27,(#48));
#53=IFCQUANTITYAREA('NetFloorArea',$,$,50.,$);
#54=IFCELEMENTQUANTITY('000000001008000000000X',$,'BaseQuantities',$,$,(#53));
#55=IFCRELDEFINESBYPROPERTIES('000000001008000000000Y',$,$,$,(#48),#54);
#56=IFCPROPERTYSET('000000001008000000000Z',$,'Pset_SpaceCommon',$,(#57));
#57=IFCPROPERTYSINGLEVALUE('IsExternal',$,IFCBOOLEAN(.F.),$);
#58=IFCRELDEFINESBYPROPERTIES('000000001008000000000a',$,$,$,(#48),#56);
#59=IFCPROPERTYBOUNDEDVALUE('SpaceTemperature',$,IFCTHERMODYNAMICTEMPERATUREMEASURE(26.),IFCTHERMODYNAMICTEMPERATUREMEASURE(18.),$,IFCTHERMODYNAMICTEMPERATUREMEASURE(20.));
#60=IFCPROPERTYSET('000000001008000000000b',$,'Pset_SpaceThermalRequirements',$,(#59));
#61=IFCRELDEFINESBYPROPERTIES('000000001008000000000c',$,$,$,(#48),#60);
#62=IFCWALLTYPE('000000001008000000000d',$,'Au\X\DFenwand Typ R',$,$,(#63),$,$,$,.STANDARD.);
#63=IFCPROPERTYSET('000000001008000000000e',$,'Pset_WallCommon',$,(#64,#65));
#64=IFCPROPERTYSINGLEVALUE('IsExternal',$,IFCBOOLEAN(.T.),$);
#65=IFCPROPERTYSINGLEVALUE('ThermalTransmittance',$,IFCTHERMALTRANSMITTANCEMEASURE(0.3),$);
#66=IFCWALL('000000001008000000000f',$,'EG S\X\FCd',$,$,#69,$,$,.STANDARD.);
#67=IFCAXIS2PLACEMENT3D(#68,$,$);
#68=IFCCARTESIANPOINT((0.,0.,0.));
#69=IFCLOCALPLACEMENT(#25,#67);
#70=IFCRELCONTAINEDINSPATIALSTRUCTURE('000000001008000000000m',$,$,$,(#66,#94),#22);
#71=IFCRELDEFINESBYTYPE('000000001008000000000n',$,$,$,(#66,#76),#62);
#72=IFCQUANTITYAREA('GrossSideArea',$,$,25.,$);
#73=IFCELEMENTQUANTITY('000000001008000000000o',$,'BaseQuantities',$,$,(#72));
#74=IFCRELDEFINESBYPROPERTIES('000000001008000000000p',$,$,$,(#66),#73);
#75=IFCRELSPACEBOUNDARY('000000001008000000000q',$,'2ndLevel','2a',#34,#66,$,.PHYSICAL.,.EXTERNAL.);
#76=IFCWALL('000000001008000000000r',$,'OG S\X\FCd',$,$,#79,$,$,.STANDARD.);
#77=IFCAXIS2PLACEMENT3D(#78,$,$);
#78=IFCCARTESIANPOINT((0.,0.,0.));
#79=IFCLOCALPLACEMENT(#30,#77);
#80=IFCRELCONTAINEDINSPATIALSTRUCTURE('000000001008000000000s',$,$,$,(#76,#85),#27);
#81=IFCQUANTITYAREA('GrossSideArea',$,$,25.,$);
#82=IFCELEMENTQUANTITY('000000001008000000000t',$,'BaseQuantities',$,$,(#81));
#83=IFCRELDEFINESBYPROPERTIES('000000001008000000000u',$,$,$,(#76),#82);
#84=IFCRELSPACEBOUNDARY('000000001008000000000v',$,'2ndLevel','2a',#48,#76,$,.PHYSICAL.,.EXTERNAL.);
#85=IFCSLAB('0000000010080000000010',$,'Dach',$,$,#88,$,$,.ROOF.);
#86=IFCAXIS2PLACEMENT3D(#87,$,$);
#87=IFCCARTESIANPOINT((0.,0.,0.));
#88=IFCLOCALPLACEMENT(#30,#86);
#89=IFCPROPERTYSET('0000000010080000000011',$,'Pset_SlabCommon',$,(#90,#91));
#90=IFCPROPERTYSINGLEVALUE('IsExternal',$,IFCBOOLEAN(.T.),$);
#91=IFCPROPERTYSINGLEVALUE('ThermalTransmittance',$,IFCTHERMALTRANSMITTANCEMEASURE(0.2),$);
#92=IFCRELDEFINESBYPROPERTIES('0000000010080000000012',$,$,$,(#85),#89);
#93=IFCRELSPACEBOUNDARY('0000000010080000000013',$,'2ndLevel','2a',#48,#85,$,.PHYSICAL.,.EXTERNAL.);
#94=IFCSLAB('0000000010080000000014',$,'Bodenplatte',$,$,#97,$,$,.BASESLAB.);
#95=IFCAXIS2PLACEMENT3D(#96,$,$);
#96=IFCCARTESIANPOINT((0.,0.,0.));
#97=IFCLOCALPLACEMENT(#25,#95);
#98=IFCPROPERTYSET('0000000010080000000015',$,'Pset_SlabCommon',$,(#99,#100));
#99=IFCPROPERTYSINGLEVALUE('IsExternal',$,IFCBOOLEAN(.T.),$);
#100=IFCPROPERTYSINGLEVALUE('ThermalTransmittance',$,IFCTHERMALTRANSMITTANCEMEASURE(0.4),$);
#101=IFCRELDEFINESBYPROPERTIES('0000000010080000000016',$,$,$,(#94),#98);
#102=IFCRELSPACEBOUNDARY('0000000010080000000017',$,'2ndLevel','2a',#34,#94,$,.PHYSICAL.,.EXTERNAL_EARTH.);
ENDSEC;
END-ISO-10303-21;
