ISO-10303-21;
HEADER;
FILE_DESCRIPTION (('ViewDefinition [ReferenceView]'), '2;1');
FILE_NAME ('ifc4_g5_wand_extrusion.ifc', '2026-09-25T00:00:00', (''), (''), 'EPOS-Plan Importprobe (EPOS.Kern.Tests)', 'EPOS-Plan Importprobe, selbst erzeugt', '');
FILE_SCHEMA (('IFC4'));
ENDSEC;
DATA;
#1=IFCPROJECT('0000000010080000000001',$,'Importprobe',$,$,$,$,(#8),#2);
#2=IFCUNITASSIGNMENT((#3,#4,#5,#6,#7));
#3=IFCSIUNIT(*,.LENGTHUNIT.,.MILLI.,.METRE.);
#4=IFCSIUNIT(*,.AREAUNIT.,$,.SQUARE_METRE.);
#5=IFCSIUNIT(*,.VOLUMEUNIT.,$,.CUBIC_METRE.);
#6=IFCSIUNIT(*,.PLANEANGLEUNIT.,$,.RADIAN.);
#7=IFCSIUNIT(*,.THERMODYNAMICTEMPERATUREUNIT.,$,.DEGREE_CELSIUS.);
#8=IFCGEOMETRICREPRESENTATIONCONTEXT($,'Model',3,1.E-05,#9,#11);
#9=IFCAXIS2PLACEMENT3D(#10,$,$);
#10=IFCCARTESIANPOINT((0.,0.,0.));
#11=IFCDIRECTION((-2.,1.,0.));
#12=IFCSITE('0000000010080000000002',$,'Grundst\X\FCck',$,$,#15,$,$,.ELEMENT.,$,$,$,$,$);
#13=IFCAXIS2PLACEMENT3D(#14,$,$);
#14=IFCCARTESIANPOINT((0.,0.,0.));
#15=IFCLOCALPLACEMENT($,#13);
#16=IFCRELAGGREGATES('0000000010080000000003',$,$,$,#1,(#12));
#17=IFCBUILDING('0000000010080000000004',$,'Wandhaus',$,$,#26,$,$,.ELEMENT.,$,$,$);
#18=IFCAXIS2PLACEMENT3D(#19,$,$);
#19=IFCCARTESIANPOINT((0.,0.,0.));
#20=IFCLOCALPLACEMENT(#15,#18);
#21=IFCRELAGGREGATES('0000000010080000000005',$,$,$,#12,(#17));
#22=IFCAXIS2PLACEMENT3D(#23,#24,#25);
#23=IFCCARTESIANPOINT((10000.,5000.,0.));
#24=IFCDIRECTION((0.,0.,1.));
#25=IFCDIRECTION((0.,1.,0.));
#26=IFCLOCALPLACEMENT(#15,#22);
#27=IFCBUILDINGSTOREY('0000000010080000000006',$,'Erdgeschoss',$,$,#30,$,$,.ELEMENT.,3000.);
#28=IFCAXIS2PLACEMENT3D(#29,$,$);
#29=IFCCARTESIANPOINT((0.,0.,3000.));
#30=IFCLOCALPLACEMENT(#26,#28);
#31=IFCRELAGGREGATES('0000000010080000000007',$,$,$,#17,(#27));
#32=IFCSPACE('0000000010080000000008',$,'0.01',$,$,#35,#55,'Wohnen',.ELEMENT.,$,$);
#33=IFCAXIS2PLACEMENT3D(#34,$,$);
#34=IFCCARTESIANPOINT((0.,0.,0.));
#35=IFCLOCALPLACEMENT(#30,#33);
#36=IFCRELAGGREGATES('0000000010080000000009',$,$,$,#27,(#32));
#37=IFCPROPERTYSET('000000001008000000000G',$,'Pset_SpaceCommon',$,(#38));
#38=IFCPROPERTYSINGLEVALUE('IsExternal',$,IFCBOOLEAN(.F.),$);
#39=IFCRELDEFINESBYPROPERTIES('000000001008000000000H',$,$,$,(#32),#37);
#40=IFCPROPERTYBOUNDEDVALUE('SpaceTemperature',$,IFCTHERMODYNAMICTEMPERATUREMEASURE(26.),IFCTHERMODYNAMICTEMPERATUREMEASURE(18.),$,IFCTHERMODYNAMICTEMPERATUREMEASURE(20.));
#41=IFCPROPERTYSET('000000001008000000000I',$,'Pset_SpaceThermalRequirements',$,(#40));
#42=IFCRELDEFINESBYPROPERTIES('000000001008000000000J',$,$,$,(#32),#41);
#43=IFCPOLYLINE((#44,#45,#46,#47,#48));
#44=IFCCARTESIANPOINT((0.,0.));
#45=IFCCARTESIANPOINT((10000.,0.));
#46=IFCCARTESIANPOINT((10000.,8000.));
#47=IFCCARTESIANPOINT((0.,8000.));
#48=IFCCARTESIANPOINT((0.,0.));
#49=IFCARBITRARYCLOSEDPROFILEDEF(.AREA.,$,#43);
#50=IFCAXIS2PLACEMENT3D(#51,$,$);
#51=IFCCARTESIANPOINT((0.,0.,0.));
#52=IFCEXTRUDEDAREASOLID(#49,#50,#53,2500.);
#53=IFCDIRECTION((0.,0.,1.));
#54=IFCSHAPEREPRESENTATION(#8,'Body','SweptSolid',(#52));
#55=IFCPRODUCTDEFINITIONSHAPE($,$,(#54));
#56=IFCWALL('000000001008000000000K',$,'Wand S\X\FCd',$,$,#59,#72,$,.STANDARD.);
#57=IFCAXIS2PLACEMENT3D(#58,$,$);
#58=IFCCARTESIANPOINT((0.,0.,0.));
#59=IFCLOCALPLACEMENT(#30,#57);
#60=IFCRELCONTAINEDINSPATIALSTRUCTURE('000000001008000000000L',$,$,$,(#56,#73,#97,#115),#27);
#61=IFCPROPERTYSET('000000001008000000000M',$,'Pset_WallCommon',$,(#62));
#62=IFCPROPERTYSINGLEVALUE('IsExternal',$,IFCBOOLEAN(.T.),$);
#63=IFCRELDEFINESBYPROPERTIES('000000001008000000000N',$,$,$,(#56),#61);
#64=IFCRECTANGLEPROFILEDEF(.AREA.,$,#65,10000.,300.);
#65=IFCAXIS2PLACEMENT2D(#66,$);
#66=IFCCARTESIANPOINT((5000.,-150.));
#67=IFCEXTRUDEDAREASOLID(#64,#68,#70,2500.);
#68=IFCAXIS2PLACEMENT3D(#69,$,$);
#69=IFCCARTESIANPOINT((0.,0.,0.));
#70=IFCDIRECTION((0.,0.,1.));
#71=IFCSHAPEREPRESENTATION(#8,'Body','SweptSolid',(#67));
#72=IFCPRODUCTDEFINITIONSHAPE($,$,(#71));
#73=IFCWALL('000000001008000000000O',$,'Wand Ost',$,$,#78,#96,$,.STANDARD.);
#74=IFCAXIS2PLACEMENT3D(#75,#76,#77);
#75=IFCCARTESIANPOINT((10000.,0.,0.));
#76=IFCDIRECTION((0.,0.,1.));
#77=IFCDIRECTION((0.,1.,0.));
#78=IFCLOCALPLACEMENT(#30,#74);
#79=IFCPROPERTYSET('000000001008000000000P',$,'Pset_WallCommon',$,(#80));
#80=IFCPROPERTYSINGLEVALUE('IsExternal',$,IFCBOOLEAN(.T.),$);
#81=IFCRELDEFINESBYPROPERTIES('000000001008000000000W',$,$,$,(#73),#79);
#82=IFCARBITRARYCLOSEDPROFILEDEF(.AREA.,$,#83);
#83=IFCPOLYLINE((#84,#85,#86,#87,#88,#89,#90));
#84=IFCCARTESIANPOINT((0.,0.));
#85=IFCCARTESIANPOINT((0.,-300.));
#86=IFCCARTESIANPOINT((7700.,-300.));
#87=IFCCARTESIANPOINT((7700.,-2000.));
#88=IFCCARTESIANPOINT((8000.,-2000.));
#89=IFCCARTESIANPOINT((8000.,0.));
#90=IFCCARTESIANPOINT((0.,0.));
#91=IFCEXTRUDEDAREASOLID(#82,#92,#94,2500.);
#92=IFCAXIS2PLACEMENT3D(#93,$,$);
#93=IFCCARTESIANPOINT((0.,0.,0.));
#94=IFCDIRECTION((0.,0.,1.));
#95=IFCSHAPEREPRESENTATION(#8,'Body','SweptSolid',(#91));
#96=IFCPRODUCTDEFINITIONSHAPE($,$,(#95));
#97=IFCWALL('000000001008000000000X',$,'Wand Nord',$,$,#102,#114,$,.STANDARD.);
#98=IFCAXIS2PLACEMENT3D(#99,#100,#101);
#99=IFCCARTESIANPOINT((10000.,8000.,0.));
#100=IFCDIRECTION((0.,0.,1.));
#101=IFCDIRECTION((-1.,0.,0.));
#102=IFCLOCALPLACEMENT(#30,#98);
#103=IFCPROPERTYSET('000000001008000000000Y',$,'Pset_WallCommon',$,(#104));
#104=IFCPROPERTYSINGLEVALUE('IsExternal',$,IFCBOOLEAN(.T.),$);
#105=IFCRELDEFINESBYPROPERTIES('000000001008000000000Z',$,$,$,(#97),#103);
#106=IFCRECTANGLEPROFILEDEF(.AREA.,$,#107,10000.,300.);
#107=IFCAXIS2PLACEMENT2D(#108,$);
#108=IFCCARTESIANPOINT((5000.,-150.));
#109=IFCEXTRUDEDAREASOLID(#106,#110,#112,2500.);
#110=IFCAXIS2PLACEMENT3D(#111,$,$);
#111=IFCCARTESIANPOINT((0.,0.,0.));
#112=IFCDIRECTION((0.,0.,1.));
#113=IFCSHAPEREPRESENTATION(#8,'Body','SweptSolid',(#109));
#114=IFCPRODUCTDEFINITIONSHAPE($,$,(#113));
#115=IFCWALL('000000001008000000000a',$,'Wand West',$,$,#120,#132,$,.STANDARD.);
#116=IFCAXIS2PLACEMENT3D(#117,#118,#119);
#117=IFCCARTESIANPOINT((0.,8000.,0.));
#118=IFCDIRECTION((0.,0.,1.));
#119=IFCDIRECTION((0.,-1.,0.));
#120=IFCLOCALPLACEMENT(#30,#116);
#121=IFCPROPERTYSET('000000001008000000000b',$,'Pset_WallCommon',$,(#122));
#122=IFCPROPERTYSINGLEVALUE('IsExternal',$,IFCBOOLEAN(.T.),$);
#123=IFCRELDEFINESBYPROPERTIES('000000001008000000000c',$,$,$,(#115),#121);
#124=IFCRECTANGLEPROFILEDEF(.AREA.,$,#125,8000.,300.);
#125=IFCAXIS2PLACEMENT2D(#126,$);
#126=IFCCARTESIANPOINT((4000.,-150.));
#127=IFCEXTRUDEDAREASOLID(#124,#128,#130,2500.);
#128=IFCAXIS2PLACEMENT3D(#129,$,$);
#129=IFCCARTESIANPOINT((0.,0.,0.));
#130=IFCDIRECTION((0.,0.,1.));
#131=IFCSHAPEREPRESENTATION(#8,'Body','SweptSolid',(#127));
#132=IFCPRODUCTDEFINITIONSHAPE($,$,(#131));
ENDSEC;
END-ISO-10303-21;
