ISO-10303-21;
HEADER;
FILE_DESCRIPTION (('ViewDefinition [ReferenceView]'), '2;1');
FILE_NAME ('ifc4_haus_materialnamen.ifc', '2026-09-25T00:00:00', (''), (''), 'EPOS-Plan Importprobe (EPOS.Kern.Tests)', 'EPOS-Plan Importprobe, selbst erzeugt', '');
FILE_SCHEMA (('IFC4'));
ENDSEC;
DATA;
#1=IFCPROJECT('0000000010080000000001',$,'Importprobe',$,$,$,$,(#8),#2);
#2=IFCUNITASSIGNMENT((#3,#4,#5,#6,#7));
#3=IFCSIUNIT(*,.LENGTHUNIT.,.MILLI.,.METRE.);
#4=IFCSIUNIT(*,.AREAUNIT.,$,.SQUARE_METRE.);
#5=IFCSIUNIT(*,.VOLUMEUNIT.,$,.CUBIC_METRE.);
#6=IFCSIUNIT(*,.PLANEANGLEUNIT.,$,.RADIAN.);
#7=IFCSIUNIT(*,.THERMODYNAMICTEMPERATUREUNIT.,$,.DEGREE_CELSIUS.);
#8=IFCGEOMETRICREPRESENTATIONCONTEXT($,'Model',3,1.E-05,#9,#11);
#9=IFCAXIS2PLACEMENT3D(#10,$,$);
#10=IFCCARTESIANPOINT((0.,0.,0.));
#11=IFCDIRECTION((-2.,1.,0.));
#12=IFCSITE('0000000010080000000002',$,'Grundst\X\FCck',$,$,#15,$,$,.ELEMENT.,$,$,$,$,$);
#13=IFCAXIS2PLACEMENT3D(#14,$,$);
#14=IFCCARTESIANPOINT((0.,0.,0.));
#15=IFCLOCALPLACEMENT($,#13);
#16=IFCRELAGGREGATES('0000000010080000000003',$,$,$,#1,(#12));
#17=IFCBUILDING('0000000010080000000004',$,'Probenhaus',$,$,#20,$,$,.ELEMENT.,$,$,$);
#18=IFCAXIS2PLACEMENT3D(#19,$,$);
#19=IFCCARTESIANPOINT((0.,0.,0.));
#20=IFCLOCALPLACEMENT(#15,#18);
#21=IFCRELAGGREGATES('0000000010080000000005',$,$,$,#12,(#17));
#22=IFCPROPERTYSET('0000000010080000000006',$,'Pset_BuildingCommon',$,(#23));
#23=IFCPROPERTYSINGLEVALUE('YearOfConstruction',$,IFCLABEL('ca. 1965'),$);
#24=IFCRELDEFINESBYPROPERTIES('0000000010080000000007',$,$,$,(#17),#22);
#25=IFCBUILDINGSTOREY('0000000010080000000008',$,'Kellergeschoss',$,$,#28,$,$,.ELEMENT.,-2500.);
#26=IFCAXIS2PLACEMENT3D(#27,$,$);
#27=IFCCARTESIANPOINT((0.,0.,-2500.));
#28=IFCLOCALPLACEMENT(#20,#26);
#29=IFCRELAGGREGATES('0000000010080000000009',$,$,$,#17,(#25,#30,#34));
#30=IFCBUILDINGSTOREY('000000001008000000000G',$,'Erdgeschoss',$,$,#33,$,$,.ELEMENT.,0.);
#31=IFCAXIS2PLACEMENT3D(#32,$,$);
#32=IFCCARTESIANPOINT((0.,0.,0.));
#33=IFCLOCALPLACEMENT(#20,#31);
#34=IFCBUILDINGSTOREY('000000001008000000000H',$,'Obergeschoss',$,$,#37,$,$,.ELEMENT.,2800.);
#35=IFCAXIS2PLACEMENT3D(#36,$,$);
#36=IFCCARTESIANPOINT((0.,0.,2800.));
#37=IFCLOCALPLACEMENT(#20,#35);
#38=IFCSPACE('000000001008000000000I',$,'K.01',$,$,#41,$,'Keller',.ELEMENT.,$,$);
#39=IFCAXIS2PLACEMENT3D(#40,$,$);
#40=IFCCARTESIANPOINT((150.,150.,0.));
#41=IFCLOCALPLACEMENT(#28,#39);
#42=IFCRELAGGREGATES('000000001008000000000J',$,$,$,#25,(#38));
#43=IFCQUANTITYAREA('NetFloorArea',$,$,70.,$);
#44=IFCQUANTITYLENGTH('Height',$,$,2300.,$);
#45=IFCQUANTITYVOLUME('NetVolume',$,$,161.,$);
#46=IFCELEMENTQUANTITY('000000001008000000000K',$,'BaseQuantities',$,$,(#43,#44,#45));
#47=IFCRELDEFINESBYPROPERTIES('000000001008000000000L',$,$,$,(#38),#46);
#48=IFCPROPERTYSET('000000001008000000000M',$,'Pset_SpaceCommon',$,(#49));
#49=IFCPROPERTYSINGLEVALUE('IsExternal',$,IFCBOOLEAN(.F.),$);
#50=IFCRELDEFINESBYPROPERTIES('000000001008000000000N',$,$,$,(#38),#48);
#51=IFCSPACE('000000001008000000000O',$,'0.01',$,$,#54,$,'Wohnen',.ELEMENT.,$,$);
#52=IFCAXIS2PLACEMENT3D(#53,$,$);
#53=IFCCARTESIANPOINT((150.,150.,0.));
#54=IFCLOCALPLACEMENT(#33,#52);
#55=IFCRELAGGREGATES('000000001008000000000P',$,$,$,#30,(#51,#67));
#56=IFCQUANTITYAREA('NetFloorArea',$,$,40.,$);
#57=IFCQUANTITYLENGTH('Height',$,$,2600.,$);
#58=IFCQUANTITYVOLUME('NetVolume',$,$,104.,$);
#59=IFCELEMENTQUANTITY('000000001008000000000W',$,'BaseQuantities',$,$,(#56,#57,#58));
#60=IFCRELDEFINESBYPROPERTIES('000000001008000000000X',$,$,$,(#51),#59);
#61=IFCPROPERTYSET('000000001008000000000Y',$,'Pset_SpaceCommon',$,(#62));
#62=IFCPROPERTYSINGLEVALUE('IsExternal',$,IFCBOOLEAN(.F.),$);
#63=IFCRELDEFINESBYPROPERTIES('000000001008000000000Z',$,$,$,(#51),#61);
#64=IFCPROPERTYBOUNDEDVALUE('SpaceTemperature',$,IFCTHERMODYNAMICTEMPERATUREMEASURE(26.),IFCTHERMODYNAMICTEMPERATUREMEASURE(18.),$,IFCTHERMODYNAMICTEMPERATUREMEASURE(20.));
#65=IFCPROPERTYSET('000000001008000000000a',$,'Pset_SpaceThermalRequirements',$,(#64));
#66=IFCRELDEFINESBYPROPERTIES('000000001008000000000b',$,$,$,(#51),#65);
#67=IFCSPACE('000000001008000000000c',$,'0.02',$,$,#70,$,'K\X\FCche',.ELEMENT.,$,$);
#68=IFCAXIS2PLACEMENT3D(#69,$,$);
#69=IFCCARTESIANPOINT((6150.,150.,0.));
#70=IFCLOCALPLACEMENT(#33,#68);
#71=IFCQUANTITYAREA('NetFloorArea',$,$,25.,$);
#72=IFCQUANTITYLENGTH('Height',$,$,2600.,$);
#73=IFCQUANTITYVOLUME('NetVolume',$,$,65.,$);
#74=IFCELEMENTQUANTITY('000000001008000000000d',$,'BaseQuantities',$,$,(#71,#72,#73));
#75=IFCRELDEFINESBYPROPERTIES('000000001008000000000e',$,$,$,(#67),#74);
#76=IFCPROPERTYSET('000000001008000000000f',$,'Pset_SpaceCommon',$,(#77));
#77=IFCPROPERTYSINGLEVALUE('IsExternal',$,IFCBOOLEAN(.F.),$);
#78=IFCRELDEFINESBYPROPERTIES('000000001008000000000m',$,$,$,(#67),#76);
#79=IFCPROPERTYBOUNDEDVALUE('SpaceTemperature',$,IFCTHERMODYNAMICTEMPERATUREMEASURE(26.),IFCTHERMODYNAMICTEMPERATUREMEASURE(18.),$,IFCTHERMODYNAMICTEMPERATUREMEASURE(20.));
#80=IFCPROPERTYSET('000000001008000000000n',$,'Pset_SpaceThermalRequirements',$,(#79));
#81=IFCRELDEFINESBYPROPERTIES('000000001008000000000o',$,$,$,(#67),#80);
#82=IFCSPACE('000000001008000000000p',$,'1.01',$,$,#85,$,'Schlafen',.ELEMENT.,$,$);
#83=IFCAXIS2PLACEMENT3D(#84,$,$);
#84=IFCCARTESIANPOINT((150.,150.,0.));
#85=IFCLOCALPLACEMENT(#37,#83);
#86=IFCRELAGGREGATES('000000001008000000000q',$,$,$,#34,(#82,#98));
#87=IFCQUANTITYAREA('NetFloorArea',$,$,45.,$);
#88=IFCQUANTITYLENGTH('Height',$,$,2400.,$);
#89=IFCQUANTITYVOLUME('NetVolume',$,$,108.,$);
#90=IFCELEMENTQUANTITY('000000001008000000000r',$,'BaseQuantities',$,$,(#87,#88,#89));
#91=IFCRELDEFINESBYPROPERTIES('000000001008000000000s',$,$,$,(#82),#90);
#92=IFCPROPERTYSET('000000001008000000000t',$,'Pset_SpaceCommon',$,(#93));
#93=IFCPROPERTYSINGLEVALUE('IsExternal',$,IFCBOOLEAN(.F.),$);
#94=IFCRELDEFINESBYPROPERTIES('000000001008000000000u',$,$,$,(#82),#92);
#95=IFCPROPERTYBOUNDEDVALUE('SpaceTemperature',$,IFCTHERMODYNAMICTEMPERATUREMEASURE(26.),IFCTHERMODYNAMICTEMPERATUREMEASURE(18.),$,IFCTHERMODYNAMICTEMPERATUREMEASURE(20.));
#96=IFCPROPERTYSET('000000001008000000000v',$,'Pset_SpaceThermalRequirements',$,(#95));
#97=IFCRELDEFINESBYPROPERTIES('0000000010080000000010',$,$,$,(#82),#96);
#98=IFCSPACE('0000000010080000000011',$,'1.02',$,$,#101,$,'Bad',.ELEMENT.,$,$);
#99=IFCAXIS2PLACEMENT3D(#100,$,$);
#100=IFCCARTESIANPOINT((6150.,150.,0.));
#101=IFCLOCALPLACEMENT(#37,#99);
#102=IFCQUANTITYAREA('NetFloorArea',$,$,20.,$);
#103=IFCQUANTITYLENGTH('Height',$,$,2400.,$);
#104=IFCQUANTITYVOLUME('NetVolume',$,$,48.,$);
#105=IFCELEMENTQUANTITY('0000000010080000000012',$,'BaseQuantities',$,$,(#102,#103,#104));
#106=IFCRELDEFINESBYPROPERTIES('0000000010080000000013',$,$,$,(#98),#105);
#107=IFCPROPERTYSET('0000000010080000000014',$,'Pset_SpaceCommon',$,(#108));
#108=IFCPROPERTYSINGLEVALUE('IsExternal',$,IFCBOOLEAN(.F.),$);
#109=IFCRELDEFINESBYPROPERTIES('0000000010080000000015',$,$,$,(#98),#107);
#110=IFCPROPERTYBOUNDEDVALUE('SpaceTemperature',$,IFCTHERMODYNAMICTEMPERATUREMEASURE(26.),IFCTHERMODYNAMICTEMPERATUREMEASURE(18.),$,IFCTHERMODYNAMICTEMPERATUREMEASURE(20.));
#111=IFCPROPERTYSET('0000000010080000000016',$,'Pset_SpaceThermalRequirements',$,(#110));
#112=IFCRELDEFINESBYPROPERTIES('0000000010080000000017',$,$,$,(#98),#111);
#113=IFCWALLTYPE('0000000010080000000018',$,'Au\X\DFenwand Typ A',$,$,(#114),$,$,$,.STANDARD.);
#114=IFCPROPERTYSET('0000000010080000000019',$,'Pset_WallCommon',$,(#115,#116));
#115=IFCPROPERTYSINGLEVALUE('IsExternal',$,IFCBOOLEAN(.T.),$);
#116=IFCPROPERTYSINGLEVALUE('ThermalTransmittance',$,IFCTHERMALTRANSMITTANCEMEASURE(0.4),$);
#117=IFCWALL('000000001008000000001G',$,'KG S\X\FCd',$,$,#120,$,$,.STANDARD.);
#118=IFCAXIS2PLACEMENT3D(#119,$,$);
#119=IFCCARTESIANPOINT((0.,0.,0.));
#120=IFCLOCALPLACEMENT(#28,#118);
#121=IFCRELCONTAINEDINSPATIALSTRUCTURE('000000001008000000001H',$,$,$,(#117,#127,#137,#147,#388),#25);
#122=IFCRELDEFINESBYTYPE('000000001008000000001I',$,$,$,(#117,#127,#137,#147,#157,#168,#179,#191,#252,#263,#277,#289),#113);
#123=IFCQUANTITYAREA('GrossSideArea',$,$,25.,$);
#124=IFCELEMENTQUANTITY('000000001008000000001J',$,'BaseQuantities',$,$,(#123));
#125=IFCRELDEFINESBYPROPERTIES('000000001008000000001K',$,$,$,(#117),#124);
#126=IFCRELSPACEBOUNDARY('000000001008000000001L',$,'2ndLevel','2a',#38,#117,$,.PHYSICAL.,.EXTERNAL_EARTH.);
#127=IFCWALL('000000001008000000001M',$,'KG Ost',$,$,#132,$,$,.STANDARD.);
#128=IFCAXIS2PLACEMENT3D(#129,#130,#131);
#129=IFCCARTESIANPOINT((10000.,0.,0.));
#130=IFCDIRECTION((0.,0.,1.));
#131=IFCDIRECTION((0.,1.,0.));
#132=IFCLOCALPLACEMENT(#28,#128);
#133=IFCQUANTITYAREA('GrossSideArea',$,$,20.,$);
#134=IFCELEMENTQUANTITY('000000001008000000001N',$,'BaseQuantities',$,$,(#133));
#135=IFCRELDEFINESBYPROPERTIES('000000001008000000001O',$,$,$,(#127),#134);
#136=IFCRELSPACEBOUNDARY('000000001008000000001P',$,'2ndLevel','2a',#38,#127,$,.PHYSICAL.,.EXTERNAL_EARTH.);
#137=IFCWALL('000000001008000000001W',$,'KG Nord',$,$,#142,$,$,.STANDARD.);
#138=IFCAXIS2PLACEMENT3D(#139,#140,#141);
#139=IFCCARTESIANPOINT((10000.,8000.,0.));
#140=IFCDIRECTION((0.,0.,1.));
#141=IFCDIRECTION((-1.,0.,0.));
#142=IFCLOCALPLACEMENT(#28,#138);
#143=IFCQUANTITYAREA('GrossSideArea',$,$,25.,$);
#144=IFCELEMENTQUANTITY('000000001008000000001X',$,'BaseQuantities',$,$,(#143));
#145=IFCRELDEFINESBYPROPERTIES('000000001008000000001Y',$,$,$,(#137),#144);
#146=IFCRELSPACEBOUNDARY('000000001008000000001Z',$,'2ndLevel','2a',#38,#137,$,.PHYSICAL.,.EXTERNAL_EARTH.);
#147=IFCWALL('000000001008000000001a',$,'KG West',$,$,#152,$,$,.STANDARD.);
#148=IFCAXIS2PLACEMENT3D(#149,#150,#151);
#149=IFCCARTESIANPOINT((0.,8000.,0.));
#150=IFCDIRECTION((0.,0.,1.));
#151=IFCDIRECTION((0.,-1.,0.));
#152=IFCLOCALPLACEMENT(#28,#148);
#153=IFCQUANTITYAREA('GrossSideArea',$,$,20.,$);
#154=IFCELEMENTQUANTITY('000000001008000000001b',$,'BaseQuantities',$,$,(#153));
#155=IFCRELDEFINESBYPROPERTIES('000000001008000000001c',$,$,$,(#147),#154);
#156=IFCRELSPACEBOUNDARY('000000001008000000001d',$,'2ndLevel','2a',#38,#147,$,.PHYSICAL.,.EXTERNAL_EARTH.);
#157=IFCWALL('000000001008000000001e',$,'EG S\X\FCd',$,$,#160,$,$,.STANDARD.);
#158=IFCAXIS2PLACEMENT3D(#159,$,$);
#159=IFCCARTESIANPOINT((0.,0.,0.));
#160=IFCLOCALPLACEMENT(#33,#158);
#161=IFCRELCONTAINEDINSPATIALSTRUCTURE('000000001008000000001f',$,$,$,(#157,#168,#179,#191,#204,#218,#232,#246,#346,#360),#30);
#162=IFCQUANTITYAREA('GrossSideArea',$,$,28.,$);
#163=IFCQUANTITYAREA('NetSideArea',$,$,24.,$);
#164=IFCELEMENTQUANTITY('000000001008000000001m',$,'BaseQuantities',$,$,(#162,#163));
#165=IFCRELDEFINESBYPROPERTIES('000000001008000000001n',$,$,$,(#157),#164);
#166=IFCRELSPACEBOUNDARY('000000001008000000001o',$,'2ndLevel','2a',#51,#157,$,.PHYSICAL.,.EXTERNAL.);
#167=IFCRELSPACEBOUNDARY('000000001008000000001p',$,'2ndLevel','2a',#67,#157,$,.PHYSICAL.,.EXTERNAL.);
#168=IFCWALL('000000001008000000001q',$,'EG Ost',$,$,#173,$,$,.STANDARD.);
#169=IFCAXIS2PLACEMENT3D(#170,#171,#172);
#170=IFCCARTESIANPOINT((10000.,0.,0.));
#171=IFCDIRECTION((0.,0.,1.));
#172=IFCDIRECTION((0.,1.,0.));
#173=IFCLOCALPLACEMENT(#33,#169);
#174=IFCQUANTITYAREA('GrossSideArea',$,$,22.4,$);
#175=IFCQUANTITYAREA('NetSideArea',$,$,16.4,$);
#176=IFCELEMENTQUANTITY('000000001008000000001r',$,'BaseQuantities',$,$,(#174,#175));
#177=IFCRELDEFINESBYPROPERTIES('000000001008000000001s',$,$,$,(#168),#176);
#178=IFCRELSPACEBOUNDARY('000000001008000000001t',$,'2ndLevel','2a',#67,#168,$,.PHYSICAL.,.EXTERNAL.);
#179=IFCWALL('000000001008000000001u',$,'EG Nord',$,$,#184,$,$,.STANDARD.);
#180=IFCAXIS2PLACEMENT3D(#181,#182,#183);
#181=IFCCARTESIANPOINT((10000.,8000.,0.));
#182=IFCDIRECTION((0.,0.,1.));
#183=IFCDIRECTION((-1.,0.,0.));
#184=IFCLOCALPLACEMENT(#33,#180);
#185=IFCQUANTITYAREA('GrossSideArea',$,$,28.,$);
#186=IFCQUANTITYAREA('NetSideArea',$,$,25.,$);
#187=IFCELEMENTQUANTITY('000000001008000000001v',$,'BaseQuantities',$,$,(#185,#186));
#188=IFCRELDEFINESBYPROPERTIES('0000000010080000000020',$,$,$,(#179),#187);
#189=IFCRELSPACEBOUNDARY('0000000010080000000021',$,'2ndLevel','2a',#51,#179,$,.PHYSICAL.,.EXTERNAL.);
#190=IFCRELSPACEBOUNDARY('0000000010080000000022',$,'2ndLevel','2a',#67,#179,$,.PHYSICAL.,.EXTERNAL.);
#191=IFCWALL('0000000010080000000023',$,'EG West',$,$,#196,$,$,.STANDARD.);
#192=IFCAXIS2PLACEMENT3D(#193,#194,#195);
#193=IFCCARTESIANPOINT((0.,8000.,0.));
#194=IFCDIRECTION((0.,0.,1.));
#195=IFCDIRECTION((0.,-1.,0.));
#196=IFCLOCALPLACEMENT(#33,#192);
#197=IFCQUANTITYAREA('GrossSideArea',$,$,22.4,$);
#198=IFCQUANTITYAREA('NetSideArea',$,$,20.4,$);
#199=IFCELEMENTQUANTITY('0000000010080000000024',$,'BaseQuantities',$,$,(#197,#198));
#200=IFCRELDEFINESBYPROPERTIES('0000000010080000000025',$,$,$,(#191),#199);
#201=IFCRELSPACEBOUNDARY('0000000010080000000026',$,'2ndLevel','2a',#51,#191,$,.PHYSICAL.,.EXTERNAL.);
#202=IFCOPENINGELEMENT('0000000010080000000027',$,'\X\D6ffnung F-EG-S',$,$,$,$,$,$);
#203=IFCRELVOIDSELEMENT('0000000010080000000028',$,$,$,#157,#202);
#204=IFCWINDOW('0000000010080000000029',$,'F-EG-S',$,$,$,$,$,$,$,$,$,$);
#205=IFCRELFILLSELEMENT('000000001008000000002G',$,$,$,#202,#204);
#206=IFCQUANTITYAREA('Area',$,$,4.,$);
#207=IFCELEMENTQUANTITY('000000001008000000002H',$,'Qto_WindowBaseQuantities',$,$,(#206));
#208=IFCRELDEFINESBYPROPERTIES('000000001008000000002I',$,$,$,(#204),#207);
#209=IFCPROPERTYSET('000000001008000000002J',$,'Pset_WindowCommon',$,(#210,#211));
#210=IFCPROPERTYSINGLEVALUE('IsExternal',$,IFCBOOLEAN(.T.),$);
#211=IFCPROPERTYSINGLEVALUE('ThermalTransmittance',$,IFCTHERMALTRANSMITTANCEMEASURE(1.1),$);
#212=IFCRELDEFINESBYPROPERTIES('000000001008000000002K',$,$,$,(#204),#209);
#213=IFCPROPERTYSET('000000001008000000002L',$,'Pset_DoorWindowGlazingType',$,(#214));
#214=IFCPROPERTYSINGLEVALUE('SolarHeatGainTransmittance',$,IFCNORMALISEDRATIOMEASURE(0.6),$);
#215=IFCRELDEFINESBYPROPERTIES('000000001008000000002M',$,$,$,(#204),#213);
#216=IFCOPENINGELEMENT('000000001008000000002N',$,'\X\D6ffnung F-EG-O',$,$,$,$,$,$);
#217=IFCRELVOIDSELEMENT('000000001008000000002O',$,$,$,#168,#216);
#218=IFCWINDOW('000000001008000000002P',$,'F-EG-O',$,$,$,$,$,$,$,$,$,$);
#219=IFCRELFILLSELEMENT('0000000010080000000040',$,$,$,#216,#218);
#220=IFCQUANTITYAREA('Area',$,$,6.,$);
#221=IFCELEMENTQUANTITY('0000000010080000000041',$,'Qto_WindowBaseQuantities',$,$,(#220));
#222=IFCRELDEFINESBYPROPERTIES('0000000010080000000042',$,$,$,(#218),#221);
#223=IFCPROPERTYSET('0000000010080000000043',$,'Pset_WindowCommon',$,(#224,#225));
#224=IFCPROPERTYSINGLEVALUE('IsExternal',$,IFCBOOLEAN(.T.),$);
#225=IFCPROPERTYSINGLEVALUE('ThermalTransmittance',$,IFCTHERMALTRANSMITTANCEMEASURE(1.1),$);
#226=IFCRELDEFINESBYPROPERTIES('0000000010080000000044',$,$,$,(#218),#223);
#227=IFCPROPERTYSET('0000000010080000000045',$,'Pset_DoorWindowGlazingType',$,(#228));
#228=IFCPROPERTYSINGLEVALUE('SolarHeatGainTransmittance',$,IFCNORMALISEDRATIOMEASURE(0.6),$);
#229=IFCRELDEFINESBYPROPERTIES('0000000010080000000046',$,$,$,(#218),#227);
#230=IFCOPENINGELEMENT('0000000010080000000047',$,'\X\D6ffnung F-EG-N',$,$,$,$,$,$);
#231=IFCRELVOIDSELEMENT('0000000010080000000048',$,$,$,#179,#230);
#232=IFCWINDOW('0000000010080000000049',$,'F-EG-N',$,$,$,$,$,$,$,$,$,$);
#233=IFCRELFILLSELEMENT('000000001008000000004G',$,$,$,#230,#232);
#234=IFCQUANTITYAREA('Area',$,$,3.,$);
#235=IFCELEMENTQUANTITY('000000001008000000004H',$,'Qto_WindowBaseQuantities',$,$,(#234));
#236=IFCRELDEFINESBYPROPERTIES('000000001008000000004I',$,$,$,(#232),#235);
#237=IFCPROPERTYSET('000000001008000000004J',$,'Pset_WindowCommon',$,(#238,#239));
#238=IFCPROPERTYSINGLEVALUE('IsExternal',$,IFCBOOLEAN(.T.),$);
#239=IFCPROPERTYSINGLEVALUE('ThermalTransmittance',$,IFCTHERMALTRANSMITTANCEMEASURE(1.1),$);
#240=IFCRELDEFINESBYPROPERTIES('000000001008000000004K',$,$,$,(#232),#237);
#241=IFCPROPERTYSET('000000001008000000004L',$,'Pset_DoorWindowGlazingType',$,(#242));
#242=IFCPROPERTYSINGLEVALUE('SolarHeatGainTransmittance',$,IFCNORMALISEDRATIOMEASURE(0.6),$);
#243=IFCRELDEFINESBYPROPERTIES('000000001008000000004M',$,$,$,(#232),#241);
#244=IFCOPENINGELEMENT('000000001008000000004N',$,'\X\D6ffnung Haust\X\FCr',$,$,$,$,$,$);
#245=IFCRELVOIDSELEMENT('000000001008000000004O',$,$,$,#191,#244);
#246=IFCDOOR('000000001008000000004P',$,'Haust\X\FCr',$,$,$,$,$,2000.,1000.,$,$,$);
#247=IFCRELFILLSELEMENT('000000001008000000004W',$,$,$,#244,#246);
#248=IFCPROPERTYSET('000000001008000000004X',$,'Pset_DoorCommon',$,(#249,#250));
#249=IFCPROPERTYSINGLEVALUE('IsExternal',$,IFCBOOLEAN(.T.),$);
#250=IFCPROPERTYSINGLEVALUE('ThermalTransmittance',$,IFCTHERMALTRANSMITTANCEMEASURE(1.8),$);
#251=IFCRELDEFINESBYPROPERTIES('000000001008000000004Y',$,$,$,(#246),#248);
#252=IFCWALL('000000001008000000004Z',$,'OG S\X\FCd',$,$,#255,$,$,.STANDARD.);
#253=IFCAXIS2PLACEMENT3D(#254,$,$);
#254=IFCCARTESIANPOINT((0.,0.,0.));
#255=IFCLOCALPLACEMENT(#37,#253);
#256=IFCRELCONTAINEDINSPATIALSTRUCTURE('000000001008000000004a',$,$,$,(#252,#263,#277,#289,#305,#319,#333,#374,#400),#34);
#257=IFCQUANTITYLENGTH('Length',$,$,10000.,$);
#258=IFCQUANTITYLENGTH('Height',$,$,2800.,$);
#259=IFCELEMENTQUANTITY('000000001008000000004b',$,'Qto_WallBaseQuantities',$,$,(#257,#258));
#260=IFCRELDEFINESBYPROPERTIES('000000001008000000004c',$,$,$,(#252),#259);
#261=IFCRELSPACEBOUNDARY('000000001008000000004d',$,'2ndLevel','2a',#82,#252,$,.PHYSICAL.,.EXTERNAL.);
#262=IFCRELSPACEBOUNDARY('000000001008000000004e',$,'2ndLevel','2a',#98,#252,$,.PHYSICAL.,.EXTERNAL.);
#263=IFCWALL('000000001008000000004f',$,'OG Ost',$,$,#268,$,$,.STANDARD.);
#264=IFCAXIS2PLACEMENT3D(#265,#266,#267);
#265=IFCCARTESIANPOINT((10000.,0.,0.));
#266=IFCDIRECTION((0.,0.,1.));
#267=IFCDIRECTION((0.,1.,0.));
#268=IFCLOCALPLACEMENT(#37,#264);
#269=IFCPROPERTYSET('000000001008000000004m',$,'Pset_WallCommon',$,(#270));
#270=IFCPROPERTYSINGLEVALUE('ThermalTransmittance',$,IFCTHERMALTRANSMITTANCEMEASURE(0.25),$);
#271=IFCRELDEFINESBYPROPERTIES('000000001008000000004n',$,$,$,(#263),#269);
#272=IFCQUANTITYAREA('GrossSideArea',$,$,22.4,$);
#273=IFCQUANTITYAREA('NetSideArea',$,$,18.4,$);
#274=IFCELEMENTQUANTITY('000000001008000000004o',$,'Qto_WallBaseQuantities',$,$,(#272,#273));
#275=IFCRELDEFINESBYPROPERTIES('000000001008000000004p',$,$,$,(#263),#274);
#276=IFCRELSPACEBOUNDARY('000000001008000000004q',$,'2ndLevel','2a',#98,#263,$,.PHYSICAL.,.EXTERNAL.);
#277=IFCWALL('000000001008000000004r',$,'OG Nord',$,$,#282,$,$,.STANDARD.);
#278=IFCAXIS2PLACEMENT3D(#279,#280,#281);
#279=IFCCARTESIANPOINT((10000.,8000.,0.));
#280=IFCDIRECTION((0.,0.,1.));
#281=IFCDIRECTION((-1.,0.,0.));
#282=IFCLOCALPLACEMENT(#37,#278);
#283=IFCQUANTITYAREA('GrossSideArea',$,$,28.,$);
#284=IFCQUANTITYAREA('NetSideArea',$,$,26.,$);
#285=IFCELEMENTQUANTITY('000000001008000000004s',$,'Qto_WallBaseQuantities',$,$,(#283,#284));
#286=IFCRELDEFINESBYPROPERTIES('000000001008000000004t',$,$,$,(#277),#285);
#287=IFCRELSPACEBOUNDARY('000000001008000000004u',$,'2ndLevel','2a',#82,#277,$,.PHYSICAL.,.EXTERNAL.);
#288=IFCRELSPACEBOUNDARY('000000001008000000004v',$,'2ndLevel','2a',#98,#277,$,.PHYSICAL.,.EXTERNAL.);
#289=IFCWALL('0000000010080000000050',$,'OG West',$,$,#294,$,$,.STANDARD.);
#290=IFCAXIS2PLACEMENT3D(#291,#292,#293);
#291=IFCCARTESIANPOINT((0.,8000.,0.));
#292=IFCDIRECTION((0.,0.,1.));
#293=IFCDIRECTION((0.,-1.,0.));
#294=IFCLOCALPLACEMENT(#37,#290);
#295=IFCPROPERTYSET('0000000010080000000051',$,'Pset_WallCommon',$,(#296));
#296=IFCPROPERTYSINGLEVALUE('ThermalTransmittance',$,IFCTHERMALTRANSMITTANCEMEASURE(0.25),$);
#297=IFCRELDEFINESBYPROPERTIES('0000000010080000000052',$,$,$,(#289),#295);
#298=IFCQUANTITYAREA('GrossSideArea',$,$,22.4,$);
#299=IFCQUANTITYAREA('NetSideArea',$,$,21.4,$);
#300=IFCELEMENTQUANTITY('0000000010080000000053',$,'Qto_WallBaseQuantities',$,$,(#298,#299));
#301=IFCRELDEFINESBYPROPERTIES('0000000010080000000054',$,$,$,(#289),#300);
#302=IFCRELSPACEBOUNDARY('0000000010080000000055',$,'2ndLevel','2a',#82,#289,$,.PHYSICAL.,.EXTERNAL.);
#303=IFCOPENINGELEMENT('0000000010080000000056',$,'\X\D6ffnung F-OG-O',$,$,$,$,$,$);
#304=IFCRELVOIDSELEMENT('0000000010080000000057',$,$,$,#263,#303);
#305=IFCWINDOW('0000000010080000000058',$,'F-OG-O',$,$,$,$,$,$,$,$,$,$);
#306=IFCRELFILLSELEMENT('0000000010080000000059',$,$,$,#303,#305);
#307=IFCQUANTITYAREA('Area',$,$,4.,$);
#308=IFCELEMENTQUANTITY('000000001008000000005G',$,'Qto_WindowBaseQuantities',$,$,(#307));
#309=IFCRELDEFINESBYPROPERTIES('000000001008000000005H',$,$,$,(#305),#308);
#310=IFCPROPERTYSET('000000001008000000005I',$,'Pset_WindowCommon',$,(#311,#312));
#311=IFCPROPERTYSINGLEVALUE('IsExternal',$,IFCBOOLEAN(.T.),$);
#312=IFCPROPERTYSINGLEVALUE('ThermalTransmittance',$,IFCTHERMALTRANSMITTANCEMEASURE(1.1),$);
#313=IFCRELDEFINESBYPROPERTIES('000000001008000000005J',$,$,$,(#305),#310);
#314=IFCPROPERTYSET('000000001008000000005K',$,'Pset_DoorWindowGlazingType',$,(#315));
#315=IFCPROPERTYSINGLEVALUE('SolarHeatGainTransmittance',$,IFCNORMALISEDRATIOMEASURE(0.6),$);
#316=IFCRELDEFINESBYPROPERTIES('000000001008000000005L',$,$,$,(#305),#314);
#317=IFCOPENINGELEMENT('000000001008000000005M',$,'\X\D6ffnung F-OG-N',$,$,$,$,$,$);
#318=IFCRELVOIDSELEMENT('000000001008000000005N',$,$,$,#277,#317);
#319=IFCWINDOW('000000001008000000005O',$,'F-OG-N',$,$,$,$,$,$,$,$,$,$);
#320=IFCRELFILLSELEMENT('000000001008000000005P',$,$,$,#317,#319);
#321=IFCQUANTITYAREA('Area',$,$,2.,$);
#322=IFCELEMENTQUANTITY('000000001008000000005W',$,'Qto_WindowBaseQuantities',$,$,(#321));
#323=IFCRELDEFINESBYPROPERTIES('000000001008000000005X',$,$,$,(#319),#322);
#324=IFCPROPERTYSET('000000001008000000005Y',$,'Pset_WindowCommon',$,(#325,#326));
#325=IFCPROPERTYSINGLEVALUE('IsExternal',$,IFCBOOLEAN(.T.),$);
#326=IFCPROPERTYSINGLEVALUE('ThermalTransmittance',$,IFCTHERMALTRANSMITTANCEMEASURE(1.1),$);
#327=IFCRELDEFINESBYPROPERTIES('000000001008000000005Z',$,$,$,(#319),#324);
#328=IFCPROPERTYSET('000000001008000000005a',$,'Pset_DoorWindowGlazingType',$,(#329));
#329=IFCPROPERTYSINGLEVALUE('SolarHeatGainTransmittance',$,IFCNORMALISEDRATIOMEASURE(0.6),$);
#330=IFCRELDEFINESBYPROPERTIES('000000001008000000005b',$,$,$,(#319),#328);
#331=IFCOPENINGELEMENT('000000001008000000005c',$,'\X\D6ffnung F-OG-W',$,$,$,$,$,$);
#332=IFCRELVOIDSELEMENT('000000001008000000005d',$,$,$,#289,#331);
#333=IFCWINDOW('000000001008000000005e',$,'F-OG-W',$,$,$,$,$,$,$,$,$,$);
#334=IFCRELFILLSELEMENT('000000001008000000005f',$,$,$,#331,#333);
#335=IFCQUANTITYLENGTH('Width',$,$,1000.,$);
#336=IFCQUANTITYLENGTH('Height',$,$,1000.,$);
#337=IFCELEMENTQUANTITY('000000001008000000005m',$,'Qto_WindowBaseQuantities',$,$,(#335,#336));
#338=IFCRELDEFINESBYPROPERTIES('000000001008000000005n',$,$,$,(#333),#337);
#339=IFCPROPERTYSET('000000001008000000005o',$,'Pset_WindowCommon',$,(#340,#341));
#340=IFCPROPERTYSINGLEVALUE('IsExternal',$,IFCBOOLEAN(.T.),$);
#341=IFCPROPERTYSINGLEVALUE('ThermalTransmittance',$,IFCTHERMALTRANSMITTANCEMEASURE(1.1),$);
#342=IFCRELDEFINESBYPROPERTIES('000000001008000000005p',$,$,$,(#333),#339);
#343=IFCPROPERTYSET('000000001008000000005q',$,'Pset_DoorWindowGlazingType',$,(#344));
#344=IFCPROPERTYSINGLEVALUE('SolarHeatGainTransmittance',$,IFCNORMALISEDRATIOMEASURE(0.6),$);
#345=IFCRELDEFINESBYPROPERTIES('000000001008000000005r',$,$,$,(#333),#343);
#346=IFCWALL('000000001008000000005s',$,'EG Innenwand',$,$,#351,$,$,.PARTITIONING.);
#347=IFCAXIS2PLACEMENT3D(#348,#349,#350);
#348=IFCCARTESIANPOINT((6000.,0.,0.));
#349=IFCDIRECTION((0.,0.,1.));
#350=IFCDIRECTION((0.,1.,0.));
#351=IFCLOCALPLACEMENT(#33,#347);
#352=IFCPROPERTYSET('000000001008000000005t',$,'Pset_WallCommon',$,(#353));
#353=IFCPROPERTYSINGLEVALUE('IsExternal',$,IFCBOOLEAN(.F.),$);
#354=IFCRELDEFINESBYPROPERTIES('000000001008000000005u',$,$,$,(#346),#352);
#355=IFCQUANTITYAREA('GrossSideArea',$,$,20.8,$);
#356=IFCELEMENTQUANTITY('000000001008000000005v',$,'BaseQuantities',$,$,(#355));
#357=IFCRELDEFINESBYPROPERTIES('0000000010080000000060',$,$,$,(#346),#356);
#358=IFCRELSPACEBOUNDARY('0000000010080000000061',$,'2ndLevel','2a',#51,#346,$,.PHYSICAL.,.INTERNAL.);
#359=IFCRELSPACEBOUNDARY('0000000010080000000062',$,'2ndLevel','2a',#67,#346,$,.PHYSICAL.,.INTERNAL.);
#360=IFCSLAB('0000000010080000000063',$,'Kellerdecke',$,$,#363,$,$,.FLOOR.);
#361=IFCAXIS2PLACEMENT3D(#362,$,$);
#362=IFCCARTESIANPOINT((0.,0.,0.));
#363=IFCLOCALPLACEMENT(#33,#361);
#364=IFCPROPERTYSET('0000000010080000000064',$,'Pset_SlabCommon',$,(#365,#366));
#365=IFCPROPERTYSINGLEVALUE('IsExternal',$,IFCBOOLEAN(.F.),$);
#366=IFCPROPERTYSINGLEVALUE('ThermalTransmittance',$,IFCTHERMALTRANSMITTANCEMEASURE(0.35),$);
#367=IFCRELDEFINESBYPROPERTIES('0000000010080000000065',$,$,$,(#360),#364);
#368=IFCQUANTITYAREA('GrossArea',$,$,80.,$);
#369=IFCELEMENTQUANTITY('0000000010080000000066',$,'BaseQuantities',$,$,(#368));
#370=IFCRELDEFINESBYPROPERTIES('0000000010080000000067',$,$,$,(#360),#369);
#371=IFCRELSPACEBOUNDARY('0000000010080000000068',$,'2ndLevel','2a',#51,#360,$,.PHYSICAL.,.INTERNAL.);
#372=IFCRELSPACEBOUNDARY('0000000010080000000069',$,'2ndLevel','2a',#67,#360,$,.PHYSICAL.,.INTERNAL.);
#373=IFCRELSPACEBOUNDARY('000000001008000000006G',$,'2ndLevel','2a',#38,#360,$,.PHYSICAL.,.INTERNAL.);
#374=IFCSLAB('000000001008000000006H',$,'Geschossdecke',$,$,#377,$,$,.FLOOR.);
#375=IFCAXIS2PLACEMENT3D(#376,$,$);
#376=IFCCARTESIANPOINT((0.,0.,0.));
#377=IFCLOCALPLACEMENT(#37,#375);
#378=IFCPROPERTYSET('000000001008000000006I',$,'Pset_SlabCommon',$,(#379));
#379=IFCPROPERTYSINGLEVALUE('IsExternal',$,IFCBOOLEAN(.F.),$);
#380=IFCRELDEFINESBYPROPERTIES('000000001008000000006J',$,$,$,(#374),#378);
#381=IFCQUANTITYAREA('GrossArea',$,$,80.,$);
#382=IFCELEMENTQUANTITY('000000001008000000006K',$,'BaseQuantities',$,$,(#381));
#383=IFCRELDEFINESBYPROPERTIES('000000001008000000006L',$,$,$,(#374),#382);
#384=IFCRELSPACEBOUNDARY('000000001008000000006M',$,'2ndLevel','2a',#51,#374,$,.PHYSICAL.,.INTERNAL.);
#385=IFCRELSPACEBOUNDARY('000000001008000000006N',$,'2ndLevel','2a',#67,#374,$,.PHYSICAL.,.INTERNAL.);
#386=IFCRELSPACEBOUNDARY('000000001008000000006O',$,'2ndLevel','2a',#82,#374,$,.PHYSICAL.,.INTERNAL.);
#387=IFCRELSPACEBOUNDARY('000000001008000000006P',$,'2ndLevel','2a',#98,#374,$,.PHYSICAL.,.INTERNAL.);
#388=IFCSLAB('0000000010080000000080',$,'Bodenplatte',$,$,#391,$,$,.BASESLAB.);
#389=IFCAXIS2PLACEMENT3D(#390,$,$);
#390=IFCCARTESIANPOINT((0.,0.,0.));
#391=IFCLOCALPLACEMENT(#28,#389);
#392=IFCPROPERTYSET('0000000010080000000081',$,'Pset_SlabCommon',$,(#393,#394));
#393=IFCPROPERTYSINGLEVALUE('IsExternal',$,IFCBOOLEAN(.T.),$);
#394=IFCPROPERTYSINGLEVALUE('ThermalTransmittance',$,IFCTHERMALTRANSMITTANCEMEASURE(0.5),$);
#395=IFCRELDEFINESBYPROPERTIES('0000000010080000000082',$,$,$,(#388),#392);
#396=IFCQUANTITYAREA('GrossArea',$,$,80.,$);
#397=IFCELEMENTQUANTITY('0000000010080000000083',$,'BaseQuantities',$,$,(#396));
#398=IFCRELDEFINESBYPROPERTIES('0000000010080000000084',$,$,$,(#388),#397);
#399=IFCRELSPACEBOUNDARY('0000000010080000000085',$,'2ndLevel','2a',#38,#388,$,.PHYSICAL.,.EXTERNAL_EARTH.);
#400=IFCROOF('0000000010080000000086',$,'Dach',$,$,#403,$,$,.FLAT_ROOF.);
#401=IFCAXIS2PLACEMENT3D(#402,$,$);
#402=IFCCARTESIANPOINT((0.,0.,2800.));
#403=IFCLOCALPLACEMENT(#37,#401);
#404=IFCPROPERTYSET('0000000010080000000087',$,'Pset_RoofCommon',$,(#405,#406));
#405=IFCPROPERTYSINGLEVALUE('IsExternal',$,IFCBOOLEAN(.T.),$);
#406=IFCPROPERTYSINGLEVALUE('ThermalTransmittance',$,IFCTHERMALTRANSMITTANCEMEASURE(0.2),$);
#407=IFCRELDEFINESBYPROPERTIES('0000000010080000000088',$,$,$,(#400),#404);
#408=IFCQUANTITYAREA('GrossArea',$,$,80.,$);
#409=IFCELEMENTQUANTITY('0000000010080000000089',$,'Qto_RoofBaseQuantities',$,$,(#408));
#410=IFCRELDEFINESBYPROPERTIES('000000001008000000008G',$,$,$,(#400),#409);
#411=IFCRELSPACEBOUNDARY('000000001008000000008H',$,'2ndLevel','2a',#82,#400,$,.PHYSICAL.,.EXTERNAL.);
#412=IFCRELSPACEBOUNDARY('000000001008000000008I',$,'2ndLevel','2a',#98,#400,$,.PHYSICAL.,.EXTERNAL.);
#413=IFCMATERIAL('Putz, Kalk-Zement',$,$);
#414=IFCMATERIALPROPERTIES('Pset_MaterialThermal',$,(#415,#416),#413);
#415=IFCPROPERTYSINGLEVALUE('ThermalConductivity',$,IFCTHERMALCONDUCTIVITYMEASURE(0.),$);
#416=IFCPROPERTYSINGLEVALUE('SpecificHeatCapacity',$,IFCSPECIFICHEATCAPACITYMEASURE(0.),$);
#417=IFCMATERIALPROPERTIES('Pset_MaterialCommon',$,(#418),#413);
#418=IFCPROPERTYSINGLEVALUE('MassDensity',$,IFCMASSDENSITYMEASURE(0.),$);
#419=IFCMATERIAL('Mineralwolle 102890377',$,$);
#420=IFCMATERIALPROPERTIES('Pset_MaterialThermal',$,(#421,#422),#419);
#421=IFCPROPERTYSINGLEVALUE('ThermalConductivity',$,IFCTHERMALCONDUCTIVITYMEASURE(0.),$);
#422=IFCPROPERTYSINGLEVALUE('SpecificHeatCapacity',$,IFCSPECIFICHEATCAPACITYMEASURE(0.),$);
#423=IFCMATERIALPROPERTIES('Pset_MaterialCommon',$,(#424),#419);
#424=IFCPROPERTYSINGLEVALUE('MassDensity',$,IFCMASSDENSITYMEASURE(0.),$);
#425=IFCMATERIAL('Kalksandstein 2816491304',$,$);
#426=IFCMATERIALPROPERTIES('Pset_MaterialThermal',$,(#427,#428),#425);
#427=IFCPROPERTYSINGLEVALUE('ThermalConductivity',$,IFCTHERMALCONDUCTIVITYMEASURE(0.),$);
#428=IFCPROPERTYSINGLEVALUE('SpecificHeatCapacity',$,IFCSPECIFICHEATCAPACITYMEASURE(0.),$);
#429=IFCMATERIALPROPERTIES('Pset_MaterialCommon',$,(#430),#425);
#430=IFCPROPERTYSINGLEVALUE('MassDensity',$,IFCMASSDENSITYMEASURE(0.),$);
#431=IFCMATERIAL('Gipsputz',$,$);
#432=IFCMATERIALPROPERTIES('Pset_MaterialThermal',$,(#433,#434),#431);
#433=IFCPROPERTYSINGLEVALUE('ThermalConductivity',$,IFCTHERMALCONDUCTIVITYMEASURE(0.),$);
#434=IFCPROPERTYSINGLEVALUE('SpecificHeatCapacity',$,IFCSPECIFICHEATCAPACITYMEASURE(0.),$);
#435=IFCMATERIALPROPERTIES('Pset_MaterialCommon',$,(#436),#431);
#436=IFCPROPERTYSINGLEVALUE('MassDensity',$,IFCMASSDENSITYMEASURE(0.),$);
#437=IFCMATERIAL('Stucco',$,$);
#438=IFCMATERIALPROPERTIES('Pset_MaterialThermal',$,(#439,#440),#437);
#439=IFCPROPERTYSINGLEVALUE('ThermalConductivity',$,IFCTHERMALCONDUCTIVITYMEASURE(0.),$);
#440=IFCPROPERTYSINGLEVALUE('SpecificHeatCapacity',$,IFCSPECIFICHEATCAPACITYMEASURE(0.),$);
#441=IFCMATERIALPROPERTIES('Pset_MaterialCommon',$,(#442),#437);
#442=IFCPROPERTYSINGLEVALUE('MassDensity',$,IFCMASSDENSITYMEASURE(0.),$);
#443=IFCMATERIAL('Insulation / Thermal Barriers - Rigid insulation',$,$);
#444=IFCMATERIALPROPERTIES('Pset_MaterialThermal',$,(#445,#446),#443);
#445=IFCPROPERTYSINGLEVALUE('ThermalConductivity',$,IFCTHERMALCONDUCTIVITYMEASURE(0.),$);
#446=IFCPROPERTYSINGLEVALUE('SpecificHeatCapacity',$,IFCSPECIFICHEATCAPACITYMEASURE(0.),$);
#447=IFCMATERIALPROPERTIES('Pset_MaterialCommon',$,(#448),#443);
#448=IFCPROPERTYSINGLEVALUE('MassDensity',$,IFCMASSDENSITYMEASURE(0.),$);
#449=IFCMATERIAL('Air',$,$);
#450=IFCMATERIALPROPERTIES('Pset_MaterialThermal',$,(#451,#452),#449);
#451=IFCPROPERTYSINGLEVALUE('ThermalConductivity',$,IFCTHERMALCONDUCTIVITYMEASURE(0.),$);
#452=IFCPROPERTYSINGLEVALUE('SpecificHeatCapacity',$,IFCSPECIFICHEATCAPACITYMEASURE(0.),$);
#453=IFCMATERIALPROPERTIES('Pset_MaterialCommon',$,(#454),#449);
#454=IFCPROPERTYSINGLEVALUE('MassDensity',$,IFCMASSDENSITYMEASURE(0.),$);
#455=IFCMATERIAL('Masonry - Brick',$,$);
#456=IFCMATERIALPROPERTIES('Pset_MaterialThermal',$,(#457,#458),#455);
#457=IFCPROPERTYSINGLEVALUE('ThermalConductivity',$,IFCTHERMALCONDUCTIVITYMEASURE(0.),$);
#458=IFCPROPERTYSINGLEVALUE('SpecificHeatCapacity',$,IFCSPECIFICHEATCAPACITYMEASURE(0.),$);
#459=IFCMATERIALPROPERTIES('Pset_MaterialCommon',$,(#460),#455);
#460=IFCPROPERTYSINGLEVALUE('MassDensity',$,IFCMASSDENSITYMEASURE(0.),$);
#461=IFCMATERIAL('Gypsum Wall Board',$,$);
#462=IFCMATERIALPROPERTIES('Pset_MaterialThermal',$,(#463,#464),#461);
#463=IFCPROPERTYSINGLEVALUE('ThermalConductivity',$,IFCTHERMALCONDUCTIVITYMEASURE(0.),$);
#464=IFCPROPERTYSINGLEVALUE('SpecificHeatCapacity',$,IFCSPECIFICHEATCAPACITYMEASURE(0.),$);
#465=IFCMATERIALPROPERTIES('Pset_MaterialCommon',$,(#466),#461);
#466=IFCPROPERTYSINGLEVALUE('MassDensity',$,IFCMASSDENSITYMEASURE(0.),$);
#467=IFCMATERIAL('Abdichtung - Bitumen',$,$);
#468=IFCMATERIALPROPERTIES('Pset_MaterialThermal',$,(#469,#470),#467);
#469=IFCPROPERTYSINGLEVALUE('ThermalConductivity',$,IFCTHERMALCONDUCTIVITYMEASURE(0.),$);
#470=IFCPROPERTYSINGLEVALUE('SpecificHeatCapacity',$,IFCSPECIFICHEATCAPACITYMEASURE(0.),$);
#471=IFCMATERIALPROPERTIES('Pset_MaterialCommon',$,(#472),#467);
#472=IFCPROPERTYSINGLEVALUE('MassDensity',$,IFCMASSDENSITYMEASURE(0.),$);
#473=IFCMATERIAL('EPS 035',$,$);
#474=IFCMATERIALPROPERTIES('Pset_MaterialThermal',$,(#475,#476),#473);
#475=IFCPROPERTYSINGLEVALUE('ThermalConductivity',$,IFCTHERMALCONDUCTIVITYMEASURE(0.),$);
#476=IFCPROPERTYSINGLEVALUE('SpecificHeatCapacity',$,IFCSPECIFICHEATCAPACITYMEASURE(0.),$);
#477=IFCMATERIALPROPERTIES('Pset_MaterialCommon',$,(#478),#473);
#478=IFCPROPERTYSINGLEVALUE('MassDensity',$,IFCMASSDENSITYMEASURE(0.),$);
#479=IFCMATERIAL('Stahlbeton 65690',$,$);
#480=IFCMATERIALPROPERTIES('Pset_MaterialThermal',$,(#481,#482),#479);
#481=IFCPROPERTYSINGLEVALUE('ThermalConductivity',$,IFCTHERMALCONDUCTIVITYMEASURE(0.),$);
#482=IFCPROPERTYSINGLEVALUE('SpecificHeatCapacity',$,IFCSPECIFICHEATCAPACITYMEASURE(0.),$);
#483=IFCMATERIALPROPERTIES('Pset_MaterialCommon',$,(#484),#479);
#484=IFCPROPERTYSINGLEVALUE('MassDensity',$,IFCMASSDENSITYMEASURE(0.),$);
#485=IFCMATERIAL('Radial Gradient Fill 1515460218',$,$);
#486=IFCMATERIALPROPERTIES('Pset_MaterialThermal',$,(#487,#488),#485);
#487=IFCPROPERTYSINGLEVALUE('ThermalConductivity',$,IFCTHERMALCONDUCTIVITYMEASURE(0.),$);
#488=IFCPROPERTYSINGLEVALUE('SpecificHeatCapacity',$,IFCSPECIFICHEATCAPACITYMEASURE(0.),$);
#489=IFCMATERIALPROPERTIES('Pset_MaterialCommon',$,(#490),#485);
#490=IFCPROPERTYSINGLEVALUE('MassDensity',$,IFCMASSDENSITYMEASURE(0.),$);
#491=IFCMATERIAL('Fu\X\DFbodenaufbau',$,$);
#492=IFCMATERIALPROPERTIES('Pset_MaterialThermal',$,(#493,#494),#491);
#493=IFCPROPERTYSINGLEVALUE('ThermalConductivity',$,IFCTHERMALCONDUCTIVITYMEASURE(0.),$);
#494=IFCPROPERTYSINGLEVALUE('SpecificHeatCapacity',$,IFCSPECIFICHEATCAPACITYMEASURE(0.),$);
#495=IFCMATERIALPROPERTIES('Pset_MaterialCommon',$,(#496),#491);
#496=IFCPROPERTYSINGLEVALUE('MassDensity',$,IFCMASSDENSITYMEASURE(0.),$);
#497=IFCMATERIAL('Ortbeton - bewehrt',$,$);
#498=IFCMATERIALPROPERTIES('Pset_MaterialThermal',$,(#499,#500),#497);
#499=IFCPROPERTYSINGLEVALUE('ThermalConductivity',$,IFCTHERMALCONDUCTIVITYMEASURE(0.),$);
#500=IFCPROPERTYSINGLEVALUE('SpecificHeatCapacity',$,IFCSPECIFICHEATCAPACITYMEASURE(0.),$);
#501=IFCMATERIALPROPERTIES('Pset_MaterialCommon',$,(#502),#497);
#502=IFCPROPERTYSINGLEVALUE('MassDensity',$,IFCMASSDENSITYMEASURE(0.),$);
#503=IFCMATERIAL('Estrich',$,$);
#504=IFCMATERIALPROPERTIES('Pset_MaterialThermal',$,(#505,#506),#503);
#505=IFCPROPERTYSINGLEVALUE('ThermalConductivity',$,IFCTHERMALCONDUCTIVITYMEASURE(0.),$);
#506=IFCPROPERTYSINGLEVALUE('SpecificHeatCapacity',$,IFCSPECIFICHEATCAPACITYMEASURE(0.),$);
#507=IFCMATERIALPROPERTIES('Pset_MaterialCommon',$,(#508),#503);
#508=IFCPROPERTYSINGLEVALUE('MassDensity',$,IFCMASSDENSITYMEASURE(0.),$);
#509=IFCMATERIAL('Trittschalld\X\E4mmung',$,$);
#510=IFCMATERIALPROPERTIES('Pset_MaterialThermal',$,(#511,#512),#509);
#511=IFCPROPERTYSINGLEVALUE('ThermalConductivity',$,IFCTHERMALCONDUCTIVITYMEASURE(0.),$);
#512=IFCPROPERTYSINGLEVALUE('SpecificHeatCapacity',$,IFCSPECIFICHEATCAPACITYMEASURE(0.),$);
#513=IFCMATERIALPROPERTIES('Pset_MaterialCommon',$,(#514),#509);
#514=IFCPROPERTYSINGLEVALUE('MassDensity',$,IFCMASSDENSITYMEASURE(0.),$);
#515=IFCMATERIAL('Ortbeton - bewehrt Verputzt',$,$);
#516=IFCMATERIALPROPERTIES('Pset_MaterialThermal',$,(#517,#518),#515);
#517=IFCPROPERTYSINGLEVALUE('ThermalConductivity',$,IFCTHERMALCONDUCTIVITYMEASURE(0.),$);
#518=IFCPROPERTYSINGLEVALUE('SpecificHeatCapacity',$,IFCSPECIFICHEATCAPACITYMEASURE(0.),$);
#519=IFCMATERIALPROPERTIES('Pset_MaterialCommon',$,(#520),#515);
#520=IFCPROPERTYSINGLEVALUE('MassDensity',$,IFCMASSDENSITYMEASURE(0.),$);
#521=IFCMATERIAL('Leichtbeton 102890359',$,$);
#522=IFCMATERIALPROPERTIES('Pset_MaterialThermal',$,(#523,#524),#521);
#523=IFCPROPERTYSINGLEVALUE('ThermalConductivity',$,IFCTHERMALCONDUCTIVITYMEASURE(0.),$);
#524=IFCPROPERTYSINGLEVALUE('SpecificHeatCapacity',$,IFCSPECIFICHEATCAPACITYMEASURE(0.),$);
#525=IFCMATERIALPROPERTIES('Pset_MaterialCommon',$,(#526),#521);
#526=IFCPROPERTYSINGLEVALUE('MassDensity',$,IFCMASSDENSITYMEASURE(0.),$);
#527=IFCMATERIAL('Solid 397409098',$,$);
#528=IFCMATERIALPROPERTIES('Pset_MaterialThermal',$,(#529,#530),#527);
#529=IFCPROPERTYSINGLEVALUE('ThermalConductivity',$,IFCTHERMALCONDUCTIVITYMEASURE(0.),$);
#530=IFCPROPERTYSINGLEVALUE('SpecificHeatCapacity',$,IFCSPECIFICHEATCAPACITYMEASURE(0.),$);
#531=IFCMATERIALPROPERTIES('Pset_MaterialCommon',$,(#532),#527);
#532=IFCPROPERTYSINGLEVALUE('MassDensity',$,IFCMASSDENSITYMEASURE(0.),$);
#533=IFCMATERIALLAYERSET((#534,#535,#536,#537),'AW Kalksandstein WDVS',$);
#534=IFCMATERIALLAYER(#413,20.,$,$,$,$,$);
#535=IFCMATERIALLAYER(#419,140.,$,$,$,$,$);
#536=IFCMATERIALLAYER(#425,175.,$,$,$,$,$);
#537=IFCMATERIALLAYER(#431,15.,$,$,$,$,$);
#538=IFCMATERIALLAYERSET((#539,#540,#541,#542,#543),'Exterior - Brick on Rigid',$);
#539=IFCMATERIALLAYER(#437,20.,$,$,$,$,$);
#540=IFCMATERIALLAYER(#443,100.,$,$,$,$,$);
#541=IFCMATERIALLAYER(#449,40.,$,$,$,$,$);
#542=IFCMATERIALLAYER(#455,175.,$,$,$,$,$);
#543=IFCMATERIALLAYER(#461,12.5,$,$,$,$,$);
#544=IFCMATERIALLAYERSETUSAGE(#533,.AXIS2.,.POSITIVE.,0.,$);
#545=IFCRELASSOCIATESMATERIAL('000000001008000000008J',$,$,$,(#157),#544);
#546=IFCMATERIALLAYERSETUSAGE(#533,.AXIS2.,.POSITIVE.,0.,$);
#547=IFCRELASSOCIATESMATERIAL('000000001008000000008K',$,$,$,(#168),#546);
#548=IFCMATERIALLAYERSETUSAGE(#533,.AXIS2.,.POSITIVE.,0.,$);
#549=IFCRELASSOCIATESMATERIAL('000000001008000000008L',$,$,$,(#179),#548);
#550=IFCMATERIALLAYERSETUSAGE(#533,.AXIS2.,.POSITIVE.,0.,$);
#551=IFCRELASSOCIATESMATERIAL('000000001008000000008M',$,$,$,(#191),#550);
#552=IFCMATERIALLAYERSETUSAGE(#538,.AXIS2.,.POSITIVE.,0.,$);
#553=IFCRELASSOCIATESMATERIAL('000000001008000000008N',$,$,$,(#252),#552);
#554=IFCMATERIALLAYERSETUSAGE(#538,.AXIS2.,.POSITIVE.,0.,$);
#555=IFCRELASSOCIATESMATERIAL('000000001008000000008O',$,$,$,(#263),#554);
#556=IFCMATERIALLAYERSETUSAGE(#538,.AXIS2.,.POSITIVE.,0.,$);
#557=IFCRELASSOCIATESMATERIAL('000000001008000000008P',$,$,$,(#277),#556);
#558=IFCMATERIALLAYERSETUSAGE(#538,.AXIS2.,.POSITIVE.,0.,$);
#559=IFCRELASSOCIATESMATERIAL('000000001008000000008W',$,$,$,(#289),#558);
#560=IFCMATERIALLAYERSET((#561,#562,#563,#564),'Flachdach',$);
#561=IFCMATERIALLAYER(#467,10.,$,$,$,$,$);
#562=IFCMATERIALLAYER(#473,200.,$,$,$,$,$);
#563=IFCMATERIALLAYER(#479,200.,$,$,$,$,$);
#564=IFCMATERIALLAYER(#485,1.,$,$,$,$,$);
#565=IFCMATERIALLAYERSETUSAGE(#560,.AXIS3.,.POSITIVE.,0.,$);
#566=IFCRELASSOCIATESMATERIAL('000000001008000000008X',$,$,$,(#400),#565);
#567=IFCMATERIALLAYERSET((#568,#569,#570),'Kellerdecke',$);
#568=IFCMATERIALLAYER(#491,80.,$,$,$,$,$);
#569=IFCMATERIALLAYER(#497,180.,$,$,$,$,$);
#570=IFCMATERIALLAYER(#419,60.,$,$,$,$,$);
#571=IFCMATERIALLAYERSETUSAGE(#567,.AXIS3.,.POSITIVE.,0.,$);
#572=IFCRELASSOCIATESMATERIAL('000000001008000000008Y',$,$,$,(#360),#571);
#573=IFCMATERIALLAYERSET((#574,#575,#576),'Geschossdecke',$);
#574=IFCMATERIALLAYER(#503,50.,$,$,$,$,$);
#575=IFCMATERIALLAYER(#509,30.,$,$,$,$,$);
#576=IFCMATERIALLAYER(#515,200.,$,$,$,$,$);
#577=IFCMATERIALLAYERSETUSAGE(#573,.AXIS3.,.POSITIVE.,0.,$);
#578=IFCRELASSOCIATESMATERIAL('000000001008000000008Z',$,$,$,(#374),#577);
#579=IFCMATERIALLAYERSET((#580,#581),'IW Leichtbeton',$);
#580=IFCMATERIALLAYER(#521,115.,$,$,$,$,$);
#581=IFCMATERIALLAYER(#527,1.,$,$,$,$,$);
#582=IFCMATERIALLAYERSETUSAGE(#579,.AXIS2.,.POSITIVE.,0.,$);
#583=IFCRELASSOCIATESMATERIAL('000000001008000000008a',$,$,$,(#346),#582);
ENDSEC;
END-ISO-10303-21;
