ISO-10303-21;
HEADER;
FILE_DESCRIPTION (('ViewDefinition [ReferenceView]'), '2;1');
FILE_NAME ('ifc4_vorhangfassade.ifc', '2026-09-25T00:00:00', (''), (''), 'EPOS-Plan Importprobe (EPOS.Kern.Tests)', 'EPOS-Plan Importprobe, selbst erzeugt', '');
FILE_SCHEMA (('IFC4'));
ENDSEC;
DATA;
#1=IFCPROJECT('0000000010080000000001',$,'Importprobe',$,$,$,$,(#8),#2);
#2=IFCUNITASSIGNMENT((#3,#4,#5,#6,#7));
#3=IFCSIUNIT(*,.LENGTHUNIT.,.MILLI.,.METRE.);
#4=IFCSIUNIT(*,.AREAUNIT.,$,.SQUARE_METRE.);
#5=IFCSIUNIT(*,.VOLUMEUNIT.,$,.CUBIC_METRE.);
#6=IFCSIUNIT(*,.PLANEANGLEUNIT.,$,.RADIAN.);
#7=IFCSIUNIT(*,.THERMODYNAMICTEMPERATUREUNIT.,$,.DEGREE_CELSIUS.);
#8=IFCGEOMETRICREPRESENTATIONCONTEXT($,'Model',3,1.E-05,#9,#11);
#9=IFCAXIS2PLACEMENT3D(#10,$,$);
#10=IFCCARTESIANPOINT((0.,0.,0.));
#11=IFCDIRECTION((0.,1.,0.));
#12=IFCSITE('0000000010080000000002',$,'Grundst\X\FCck',$,$,#15,$,$,.ELEMENT.,$,$,$,$,$);
#13=IFCAXIS2PLACEMENT3D(#14,$,$);
#14=IFCCARTESIANPOINT((0.,0.,0.));
#15=IFCLOCALPLACEMENT($,#13);
#16=IFCRELAGGREGATES('0000000010080000000003',$,$,$,#1,(#12));
#17=IFCBUILDING('0000000010080000000004',$,'Fassadenhaus',$,$,#20,$,$,.ELEMENT.,$,$,$);
#18=IFCAXIS2PLACEMENT3D(#19,$,$);
#19=IFCCARTESIANPOINT((0.,0.,0.));
#20=IFCLOCALPLACEMENT(#15,#18);
#21=IFCRELAGGREGATES('0000000010080000000005',$,$,$,#12,(#17));
#22=IFCBUILDINGSTOREY('0000000010080000000006',$,'Erdgeschoss',$,$,#25,$,$,.ELEMENT.,0.);
#23=IFCAXIS2PLACEMENT3D(#24,$,$);
#24=IFCCARTESIANPOINT((0.,0.,0.));
#25=IFCLOCALPLACEMENT(#20,#23);
#26=IFCRELAGGREGATES('0000000010080000000007',$,$,$,#17,(#22));
#27=IFCSPACE('0000000010080000000008',$,'0.01',$,$,#30,$,'B\X\FCro',.ELEMENT.,$,$);
#28=IFCAXIS2PLACEMENT3D(#29,$,$);
#29=IFCCARTESIANPOINT((150.,150.,0.));
#30=IFCLOCALPLACEMENT(#25,#28);
#31=IFCRELAGGREGATES('0000000010080000000009',$,$,$,#22,(#27));
#32=IFCQUANTITYAREA('NetFloorArea',$,$,80.,$);
#33=IFCQUANTITYLENGTH('Height',$,$,2500.,$);
#34=IFCQUANTITYVOLUME('NetVolume',$,$,200.,$);
#35=IFCELEMENTQUANTITY('000000001008000000000G',$,'BaseQuantities',$,$,(#32,#33,#34));
#36=IFCRELDEFINESBYPROPERTIES('000000001008000000000H',$,$,$,(#27),#35);
#37=IFCPROPERTYSET('000000001008000000000I',$,'Pset_SpaceCommon',$,(#38));
#38=IFCPROPERTYSINGLEVALUE('IsExternal',$,IFCBOOLEAN(.F.),$);
#39=IFCRELDEFINESBYPROPERTIES('000000001008000000000J',$,$,$,(#27),#37);
#40=IFCPROPERTYBOUNDEDVALUE('SpaceTemperature',$,IFCTHERMODYNAMICTEMPERATUREMEASURE(26.),IFCTHERMODYNAMICTEMPERATUREMEASURE(18.),$,IFCTHERMODYNAMICTEMPERATUREMEASURE(20.));
#41=IFCPROPERTYSET('000000001008000000000K',$,'Pset_SpaceThermalRequirements',$,(#40));
#42=IFCRELDEFINESBYPROPERTIES('000000001008000000000L',$,$,$,(#27),#41);
#43=IFCWALLTYPE('000000001008000000000M',$,'Au\X\DFenwand Typ F',$,$,(#44),$,$,$,.STANDARD.);
#44=IFCPROPERTYSET('000000001008000000000N',$,'Pset_WallCommon',$,(#45,#46));
#45=IFCPROPERTYSINGLEVALUE('IsExternal',$,IFCBOOLEAN(.T.),$);
#46=IFCPROPERTYSINGLEVALUE('ThermalTransmittance',$,IFCTHERMALTRANSMITTANCEMEASURE(0.3),$);
#47=IFCCURTAINWALL('000000001008000000000O',$,'Glasfassade S\X\FCd',$,$,#50,$,$,$);
#48=IFCAXIS2PLACEMENT3D(#49,$,$);
#49=IFCCARTESIANPOINT((0.,0.,0.));
#50=IFCLOCALPLACEMENT(#25,#48);
#51=IFCRELCONTAINEDINSPATIALSTRUCTURE('000000001008000000000P',$,$,$,(#47,#60,#71,#83,#95,#108,#120),#22);
#52=IFCPROPERTYSET('000000001008000000000W',$,'Pset_CurtainWallCommon',$,(#53,#54));
#53=IFCPROPERTYSINGLEVALUE('IsExternal',$,IFCBOOLEAN(.T.),$);
#54=IFCPROPERTYSINGLEVALUE('ThermalTransmittance',$,IFCTHERMALTRANSMITTANCEMEASURE(1.3),$);
#55=IFCRELDEFINESBYPROPERTIES('000000001008000000000X',$,$,$,(#47),#52);
#56=IFCQUANTITYAREA('GrossSideArea',$,$,25.,$);
#57=IFCELEMENTQUANTITY('000000001008000000000Y',$,'BaseQuantities',$,$,(#56));
#58=IFCRELDEFINESBYPROPERTIES('000000001008000000000Z',$,$,$,(#47),#57);
#59=IFCRELSPACEBOUNDARY('000000001008000000000a',$,'2ndLevel','2a',#27,#47,$,.PHYSICAL.,.EXTERNAL.);
#60=IFCWALL('000000001008000000000b',$,'Ost',$,$,#65,$,$,.STANDARD.);
#61=IFCAXIS2PLACEMENT3D(#62,#63,#64);
#62=IFCCARTESIANPOINT((10000.,0.,0.));
#63=IFCDIRECTION((0.,0.,1.));
#64=IFCDIRECTION((0.,1.,0.));
#65=IFCLOCALPLACEMENT(#25,#61);
#66=IFCRELDEFINESBYTYPE('000000001008000000000c',$,$,$,(#60,#71),#43);
#67=IFCQUANTITYAREA('GrossSideArea',$,$,20.,$);
#68=IFCELEMENTQUANTITY('000000001008000000000d',$,'BaseQuantities',$,$,(#67));
#69=IFCRELDEFINESBYPROPERTIES('000000001008000000000e',$,$,$,(#60),#68);
#70=IFCRELSPACEBOUNDARY('000000001008000000000f',$,'2ndLevel','2a',#27,#60,$,.PHYSICAL.,.EXTERNAL.);
#71=IFCWALL('000000001008000000000m',$,'Nord',$,$,#76,$,$,.STANDARD.);
#72=IFCAXIS2PLACEMENT3D(#73,#74,#75);
#73=IFCCARTESIANPOINT((10000.,8000.,0.));
#74=IFCDIRECTION((0.,0.,1.));
#75=IFCDIRECTION((-1.,0.,0.));
#76=IFCLOCALPLACEMENT(#25,#72);
#77=IFCQUANTITYAREA('GrossSideArea',$,$,25.,$);
#78=IFCELEMENTQUANTITY('000000001008000000000n',$,'BaseQuantities',$,$,(#77));
#79=IFCRELDEFINESBYPROPERTIES('000000001008000000000o',$,$,$,(#71),#78);
#80=IFCRELSPACEBOUNDARY('000000001008000000000p',$,'2ndLevel','2a',#27,#71,$,.PHYSICAL.,.EXTERNAL.);
#81=IFCOPENINGELEMENT('000000001008000000000q',$,'\X\D6ffnung F-N',$,$,$,$,$,$);
#82=IFCRELVOIDSELEMENT('000000001008000000000r',$,$,$,#71,#81);
#83=IFCWINDOW('000000001008000000000s',$,'F-N',$,$,$,$,$,$,$,$,$,$);
#84=IFCRELFILLSELEMENT('000000001008000000000t',$,$,$,#81,#83);
#85=IFCQUANTITYAREA('Area',$,$,5.,$);
#86=IFCELEMENTQUANTITY('000000001008000000000u',$,'Qto_WindowBaseQuantities',$,$,(#85));
#87=IFCRELDEFINESBYPROPERTIES('000000001008000000000v',$,$,$,(#83),#86);
#88=IFCPROPERTYSET('0000000010080000000010',$,'Pset_WindowCommon',$,(#89,#90));
#89=IFCPROPERTYSINGLEVALUE('IsExternal',$,IFCBOOLEAN(.T.),$);
#90=IFCPROPERTYSINGLEVALUE('ThermalTransmittance',$,IFCTHERMALTRANSMITTANCEMEASURE(1.1),$);
#91=IFCRELDEFINESBYPROPERTIES('0000000010080000000011',$,$,$,(#83),#88);
#92=IFCPROPERTYSET('0000000010080000000012',$,'Pset_DoorWindowGlazingType',$,(#93));
#93=IFCPROPERTYSINGLEVALUE('SolarHeatGainTransmittance',$,IFCNORMALISEDRATIOMEASURE(0.6),$);
#94=IFCRELDEFINESBYPROPERTIES('0000000010080000000013',$,$,$,(#83),#92);
#95=IFCCURTAINWALL('0000000010080000000014',$,'Glasfassade West',$,$,#100,$,$,$);
#96=IFCAXIS2PLACEMENT3D(#97,#98,#99);
#97=IFCCARTESIANPOINT((0.,8000.,0.));
#98=IFCDIRECTION((0.,0.,1.));
#99=IFCDIRECTION((0.,-1.,0.));
#100=IFCLOCALPLACEMENT(#25,#96);
#101=IFCPROPERTYSET('0000000010080000000015',$,'Pset_CurtainWallCommon',$,(#102));
#102=IFCPROPERTYSINGLEVALUE('IsExternal',$,IFCBOOLEAN(.T.),$);
#103=IFCRELDEFINESBYPROPERTIES('0000000010080000000016',$,$,$,(#95),#101);
#104=IFCQUANTITYAREA('GrossSideArea',$,$,20.,$);
#105=IFCELEMENTQUANTITY('0000000010080000000017',$,'BaseQuantities',$,$,(#104));
#106=IFCRELDEFINESBYPROPERTIES('0000000010080000000018',$,$,$,(#95),#105);
#107=IFCRELSPACEBOUNDARY('0000000010080000000019',$,'2ndLevel','2a',#27,#95,$,.PHYSICAL.,.EXTERNAL.);
#108=IFCSLAB('000000001008000000001G',$,'Dach',$,$,#111,$,$,.ROOF.);
#109=IFCAXIS2PLACEMENT3D(#110,$,$);
#110=IFCCARTESIANPOINT((0.,0.,0.));
#111=IFCLOCALPLACEMENT(#25,#109);
#112=IFCPROPERTYSET('000000001008000000001H',$,'Pset_SlabCommon',$,(#113,#114));
#113=IFCPROPERTYSINGLEVALUE('IsExternal',$,IFCBOOLEAN(.T.),$);
#114=IFCPROPERTYSINGLEVALUE('ThermalTransmittance',$,IFCTHERMALTRANSMITTANCEMEASURE(0.2),$);
#115=IFCRELDEFINESBYPROPERTIES('000000001008000000001I',$,$,$,(#108),#112);
#116=IFCQUANTITYAREA('GrossArea',$,$,80.,$);
#117=IFCELEMENTQUANTITY('000000001008000000001J',$,'BaseQuantities',$,$,(#116));
#118=IFCRELDEFINESBYPROPERTIES('000000001008000000001K',$,$,$,(#108),#117);
#119=IFCRELSPACEBOUNDARY('000000001008000000001L',$,'2ndLevel','2a',#27,#108,$,.PHYSICAL.,.EXTERNAL.);
#120=IFCSLAB('000000001008000000001M',$,'Bodenplatte',$,$,#123,$,$,.BASESLAB.);
#121=IFCAXIS2PLACEMENT3D(#122,$,$);
#122=IFCCARTESIANPOINT((0.,0.,0.));
#123=IFCLOCALPLACEMENT(#25,#121);
#124=IFCPROPERTYSET('000000001008000000001N',$,'Pset_SlabCommon',$,(#125,#126));
#125=IFCPROPERTYSINGLEVALUE('IsExternal',$,IFCBOOLEAN(.T.),$);
#126=IFCPROPERTYSINGLEVALUE('ThermalTransmittance',$,IFCTHERMALTRANSMITTANCEMEASURE(0.35),$);
#127=IFCRELDEFINESBYPROPERTIES('000000001008000000001O',$,$,$,(#120),#124);
#128=IFCQUANTITYAREA('GrossArea',$,$,80.,$);
#129=IFCELEMENTQUANTITY('000000001008000000001P',$,'BaseQuantities',$,$,(#128));
#130=IFCRELDEFINESBYPROPERTIES('000000001008000000001W',$,$,$,(#120),#129);
#131=IFCRELSPACEBOUNDARY('000000001008000000001X',$,'2ndLevel','2a',#27,#120,$,.PHYSICAL.,.EXTERNAL_EARTH.);
ENDSEC;
END-ISO-10303-21;
