ISO-10303-21;
HEADER;
FILE_DESCRIPTION (('ViewDefinition [ReferenceView]'), '2;1');
FILE_NAME ('ifc4_g5_abweichungen.ifc', '2026-09-25T00:00:00', (''), (''), 'EPOS-Plan Importprobe (EPOS.Kern.Tests)', 'EPOS-Plan Importprobe, selbst erzeugt', '');
FILE_SCHEMA (('IFC4'));
ENDSEC;
DATA;
#1=IFCPROJECT('0000000010080000000001',$,'Importprobe',$,$,$,$,(#8),#2);
#2=IFCUNITASSIGNMENT((#3,#4,#5,#6,#7));
#3=IFCSIUNIT(*,.LENGTHUNIT.,.MILLI.,.METRE.);
#4=IFCSIUNIT(*,.AREAUNIT.,$,.SQUARE_METRE.);
#5=IFCSIUNIT(*,.VOLUMEUNIT.,$,.CUBIC_METRE.);
#6=IFCSIUNIT(*,.PLANEANGLEUNIT.,$,.RADIAN.);
#7=IFCSIUNIT(*,.THERMODYNAMICTEMPERATUREUNIT.,$,.DEGREE_CELSIUS.);
#8=IFCGEOMETRICREPRESENTATIONCONTEXT($,'Model',3,1.E-05,#9,#11);
#9=IFCAXIS2PLACEMENT3D(#10,$,$);
#10=IFCCARTESIANPOINT((0.,0.,0.));
#11=IFCDIRECTION((0.,1.,0.));
#12=IFCSITE('0000000010080000000002',$,'Grundst\X\FCck',$,$,#15,$,$,.ELEMENT.,$,$,$,$,$);
#13=IFCAXIS2PLACEMENT3D(#14,$,$);
#14=IFCCARTESIANPOINT((0.,0.,0.));
#15=IFCLOCALPLACEMENT($,#13);
#16=IFCRELAGGREGATES('0000000010080000000003',$,$,$,#1,(#12));
#17=IFCBUILDING('0000000010080000000004',$,'Abweichungshaus',$,$,#20,$,$,.ELEMENT.,$,$,$);
#18=IFCAXIS2PLACEMENT3D(#19,$,$);
#19=IFCCARTESIANPOINT((0.,0.,0.));
#20=IFCLOCALPLACEMENT(#15,#18);
#21=IFCRELAGGREGATES('0000000010080000000005',$,$,$,#12,(#17));
#22=IFCBUILDINGSTOREY('0000000010080000000006',$,'Erdgeschoss',$,$,#25,$,$,.ELEMENT.,0.);
#23=IFCAXIS2PLACEMENT3D(#24,$,$);
#24=IFCCARTESIANPOINT((0.,0.,0.));
#25=IFCLOCALPLACEMENT(#20,#23);
#26=IFCRELAGGREGATES('0000000010080000000007',$,$,$,#17,(#22));
#27=IFCSPACE('0000000010080000000008',$,'0.01',$,$,#30,#50,'Wohnen',.ELEMENT.,$,$);
#28=IFCAXIS2PLACEMENT3D(#29,$,$);
#29=IFCCARTESIANPOINT((0.,0.,0.));
#30=IFCLOCALPLACEMENT(#25,#28);
#31=IFCRELAGGREGATES('0000000010080000000009',$,$,$,#22,(#27));
#32=IFCPROPERTYSET('000000001008000000000G',$,'Pset_SpaceCommon',$,(#33));
#33=IFCPROPERTYSINGLEVALUE('IsExternal',$,IFCBOOLEAN(.F.),$);
#34=IFCRELDEFINESBYPROPERTIES('000000001008000000000H',$,$,$,(#27),#32);
#35=IFCPROPERTYBOUNDEDVALUE('SpaceTemperature',$,IFCTHERMODYNAMICTEMPERATUREMEASURE(26.),IFCTHERMODYNAMICTEMPERATUREMEASURE(18.),$,IFCTHERMODYNAMICTEMPERATUREMEASURE(20.));
#36=IFCPROPERTYSET('000000001008000000000I',$,'Pset_SpaceThermalRequirements',$,(#35));
#37=IFCRELDEFINESBYPROPERTIES('000000001008000000000J',$,$,$,(#27),#36);
#38=IFCPOLYLINE((#39,#40,#41,#42,#43));
#39=IFCCARTESIANPOINT((0.,0.));
#40=IFCCARTESIANPOINT((10000.,0.));
#41=IFCCARTESIANPOINT((10000.,8000.));
#42=IFCCARTESIANPOINT((0.,8000.));
#43=IFCCARTESIANPOINT((0.,0.));
#44=IFCARBITRARYCLOSEDPROFILEDEF(.AREA.,$,#38);
#45=IFCAXIS2PLACEMENT3D(#46,$,$);
#46=IFCCARTESIANPOINT((0.,0.,0.));
#47=IFCEXTRUDEDAREASOLID(#44,#45,#48,2500.);
#48=IFCDIRECTION((0.,0.,1.));
#49=IFCSHAPEREPRESENTATION(#8,'Body','SweptSolid',(#47));
#50=IFCPRODUCTDEFINITIONSHAPE($,$,(#49));
#51=IFCWALL('000000001008000000000K',$,'Wand S\X\FCd',$,$,#54,#67,$,.STANDARD.);
#52=IFCAXIS2PLACEMENT3D(#53,$,$);
#53=IFCCARTESIANPOINT((0.,0.,0.));
#54=IFCLOCALPLACEMENT(#25,#52);
#55=IFCRELCONTAINEDINSPATIALSTRUCTURE('000000001008000000000L',$,$,$,(#51,#72,#94,#116),#22);
#56=IFCPROPERTYSET('000000001008000000000M',$,'Pset_WallCommon',$,(#57));
#57=IFCPROPERTYSINGLEVALUE('IsExternal',$,IFCBOOLEAN(.T.),$);
#58=IFCRELDEFINESBYPROPERTIES('000000001008000000000N',$,$,$,(#51),#56);
#59=IFCRECTANGLEPROFILEDEF(.AREA.,$,#60,10000.,300.);
#60=IFCAXIS2PLACEMENT2D(#61,$);
#61=IFCCARTESIANPOINT((5000.,-150.));
#62=IFCEXTRUDEDAREASOLID(#59,#63,#65,2500.);
#63=IFCAXIS2PLACEMENT3D(#64,$,$);
#64=IFCCARTESIANPOINT((0.,0.,0.));
#65=IFCDIRECTION((0.,0.,1.));
#66=IFCSHAPEREPRESENTATION(#8,'Body','SweptSolid',(#62));
#67=IFCPRODUCTDEFINITIONSHAPE($,$,(#66));
#68=IFCQUANTITYAREA('GrossSideArea',$,$,26.5,$);
#69=IFCQUANTITYAREA('NetSideArea',$,$,26.5,$);
#70=IFCELEMENTQUANTITY('000000001008000000000O',$,'Qto_WallBaseQuantities',$,$,(#68,#69));
#71=IFCRELDEFINESBYPROPERTIES('000000001008000000000P',$,$,$,(#51),#70);
#72=IFCWALL('000000001008000000000W',$,'Wand Ost',$,$,#77,#89,$,.STANDARD.);
#73=IFCAXIS2PLACEMENT3D(#74,#75,#76);
#74=IFCCARTESIANPOINT((10000.,0.,0.));
#75=IFCDIRECTION((0.,0.,1.));
#76=IFCDIRECTION((0.,1.,0.));
#77=IFCLOCALPLACEMENT(#25,#73);
#78=IFCPROPERTYSET('000000001008000000000X',$,'Pset_WallCommon',$,(#79));
#79=IFCPROPERTYSINGLEVALUE('IsExternal',$,IFCBOOLEAN(.T.),$);
#80=IFCRELDEFINESBYPROPERTIES('000000001008000000000Y',$,$,$,(#72),#78);
#81=IFCRECTANGLEPROFILEDEF(.AREA.,$,#82,8000.,300.);
#82=IFCAXIS2PLACEMENT2D(#83,$);
#83=IFCCARTESIANPOINT((4000.,-150.));
#84=IFCEXTRUDEDAREASOLID(#81,#85,#87,2500.);
#85=IFCAXIS2PLACEMENT3D(#86,$,$);
#86=IFCCARTESIANPOINT((0.,0.,0.));
#87=IFCDIRECTION((0.,0.,1.));
#88=IFCSHAPEREPRESENTATION(#8,'Body','SweptSolid',(#84));
#89=IFCPRODUCTDEFINITIONSHAPE($,$,(#88));
#90=IFCQUANTITYAREA('GrossSideArea',$,$,21.,$);
#91=IFCQUANTITYAREA('NetSideArea',$,$,21.,$);
#92=IFCELEMENTQUANTITY('000000001008000000000Z',$,'Qto_WallBaseQuantities',$,$,(#90,#91));
#93=IFCRELDEFINESBYPROPERTIES('000000001008000000000a',$,$,$,(#72),#92);
#94=IFCWALL('000000001008000000000b',$,'Wand Nord',$,$,#99,#111,$,.STANDARD.);
#95=IFCAXIS2PLACEMENT3D(#96,#97,#98);
#96=IFCCARTESIANPOINT((10000.,8000.,0.));
#97=IFCDIRECTION((0.,0.,1.));
#98=IFCDIRECTION((-1.,0.,0.));
#99=IFCLOCALPLACEMENT(#25,#95);
#100=IFCPROPERTYSET('000000001008000000000c',$,'Pset_WallCommon',$,(#101));
#101=IFCPROPERTYSINGLEVALUE('IsExternal',$,IFCBOOLEAN(.T.),$);
#102=IFCRELDEFINESBYPROPERTIES('000000001008000000000d',$,$,$,(#94),#100);
#103=IFCRECTANGLEPROFILEDEF(.AREA.,$,#104,10000.,300.);
#104=IFCAXIS2PLACEMENT2D(#105,$);
#105=IFCCARTESIANPOINT((5000.,-150.));
#106=IFCEXTRUDEDAREASOLID(#103,#107,#109,2500.);
#107=IFCAXIS2PLACEMENT3D(#108,$,$);
#108=IFCCARTESIANPOINT((0.,0.,0.));
#109=IFCDIRECTION((0.,0.,1.));
#110=IFCSHAPEREPRESENTATION(#8,'Body','SweptSolid',(#106));
#111=IFCPRODUCTDEFINITIONSHAPE($,$,(#110));
#112=IFCQUANTITYAREA('GrossSideArea',$,$,35.,$);
#113=IFCQUANTITYAREA('NetSideArea',$,$,35.,$);
#114=IFCELEMENTQUANTITY('000000001008000000000e',$,'Qto_WallBaseQuantities',$,$,(#112,#113));
#115=IFCRELDEFINESBYPROPERTIES('000000001008000000000f',$,$,$,(#94),#114);
#116=IFCWALL('000000001008000000000m',$,'Wand West',$,$,#121,#133,$,.STANDARD.);
#117=IFCAXIS2PLACEMENT3D(#118,#119,#120);
#118=IFCCARTESIANPOINT((0.,8000.,0.));
#119=IFCDIRECTION((0.,0.,1.));
#120=IFCDIRECTION((0.,-1.,0.));
#121=IFCLOCALPLACEMENT(#25,#117);
#122=IFCPROPERTYSET('000000001008000000000n',$,'Pset_WallCommon',$,(#123));
#123=IFCPROPERTYSINGLEVALUE('IsExternal',$,IFCBOOLEAN(.T.),$);
#124=IFCRELDEFINESBYPROPERTIES('000000001008000000000o',$,$,$,(#116),#122);
#125=IFCRECTANGLEPROFILEDEF(.AREA.,$,#126,8000.,300.);
#126=IFCAXIS2PLACEMENT2D(#127,$);
#127=IFCCARTESIANPOINT((4000.,-150.));
#128=IFCEXTRUDEDAREASOLID(#125,#129,#131,2500.);
#129=IFCAXIS2PLACEMENT3D(#130,$,$);
#130=IFCCARTESIANPOINT((0.,0.,0.));
#131=IFCDIRECTION((0.,0.,1.));
#132=IFCSHAPEREPRESENTATION(#8,'Body','SweptSolid',(#128));
#133=IFCPRODUCTDEFINITIONSHAPE($,$,(#132));
#134=IFCQUANTITYAREA('GrossSideArea',$,$,20.2,$);
#135=IFCQUANTITYAREA('NetSideArea',$,$,20.2,$);
#136=IFCELEMENTQUANTITY('000000001008000000000p',$,'Qto_WallBaseQuantities',$,$,(#134,#135));
#137=IFCRELDEFINESBYPROPERTIES('000000001008000000000q',$,$,$,(#116),#136);
ENDSEC;
END-ISO-10303-21;
