ISO-10303-21;
HEADER;
FILE_DESCRIPTION (('ViewDefinition [ReferenceView]'), '2;1');
FILE_NAME ('ifc4_schichten_nullwerte.ifc', '2026-09-25T00:00:00', (''), (''), 'EPOS-Plan Importprobe (EPOS.Kern.Tests)', 'EPOS-Plan Importprobe, selbst erzeugt', '');
FILE_SCHEMA (('IFC4'));
ENDSEC;
DATA;
#1=IFCPROJECT('0000000010080000000001',$,'Importprobe',$,$,$,$,(#8),#2);
#2=IFCUNITASSIGNMENT((#3,#4,#5,#6,#7));
#3=IFCSIUNIT(*,.LENGTHUNIT.,.MILLI.,.METRE.);
#4=IFCSIUNIT(*,.AREAUNIT.,$,.SQUARE_METRE.);
#5=IFCSIUNIT(*,.VOLUMEUNIT.,$,.CUBIC_METRE.);
#6=IFCSIUNIT(*,.PLANEANGLEUNIT.,$,.RADIAN.);
#7=IFCSIUNIT(*,.THERMODYNAMICTEMPERATUREUNIT.,$,.DEGREE_CELSIUS.);
#8=IFCGEOMETRICREPRESENTATIONCONTEXT($,'Model',3,1.E-05,#9,#11);
#9=IFCAXIS2PLACEMENT3D(#10,$,$);
#10=IFCCARTESIANPOINT((0.,0.,0.));
#11=IFCDIRECTION((0.,1.,0.));
#12=IFCSITE('0000000010080000000002',$,'Grundst\X\FCck',$,$,#15,$,$,.ELEMENT.,$,$,$,$,$);
#13=IFCAXIS2PLACEMENT3D(#14,$,$);
#14=IFCCARTESIANPOINT((0.,0.,0.));
#15=IFCLOCALPLACEMENT($,#13);
#16=IFCRELAGGREGATES('0000000010080000000003',$,$,$,#1,(#12));
#17=IFCBUILDING('0000000010080000000004',$,'Schichtenhaus',$,$,#20,$,$,.ELEMENT.,$,$,$);
#18=IFCAXIS2PLACEMENT3D(#19,$,$);
#19=IFCCARTESIANPOINT((0.,0.,0.));
#20=IFCLOCALPLACEMENT(#15,#18);
#21=IFCRELAGGREGATES('0000000010080000000005',$,$,$,#12,(#17));
#22=IFCBUILDINGSTOREY('0000000010080000000006',$,'Erdgeschoss',$,$,#25,$,$,.ELEMENT.,0.);
#23=IFCAXIS2PLACEMENT3D(#24,$,$);
#24=IFCCARTESIANPOINT((0.,0.,0.));
#25=IFCLOCALPLACEMENT(#20,#23);
#26=IFCRELAGGREGATES('0000000010080000000007',$,$,$,#17,(#22));
#27=IFCSPACE('0000000010080000000008',$,'0.01',$,$,#30,$,'Wohnen',.ELEMENT.,$,$);
#28=IFCAXIS2PLACEMENT3D(#29,$,$);
#29=IFCCARTESIANPOINT((150.,150.,0.));
#30=IFCLOCALPLACEMENT(#25,#28);
#31=IFCRELAGGREGATES('0000000010080000000009',$,$,$,#22,(#27));
#32=IFCQUANTITYAREA('NetFloorArea',$,$,80.,$);
#33=IFCQUANTITYLENGTH('Height',$,$,2500.,$);
#34=IFCQUANTITYVOLUME('NetVolume',$,$,200.,$);
#35=IFCELEMENTQUANTITY('000000001008000000000G',$,'BaseQuantities',$,$,(#32,#33,#34));
#36=IFCRELDEFINESBYPROPERTIES('000000001008000000000H',$,$,$,(#27),#35);
#37=IFCPROPERTYSET('000000001008000000000I',$,'Pset_SpaceCommon',$,(#38));
#38=IFCPROPERTYSINGLEVALUE('IsExternal',$,IFCBOOLEAN(.F.),$);
#39=IFCRELDEFINESBYPROPERTIES('000000001008000000000J',$,$,$,(#27),#37);
#40=IFCPROPERTYBOUNDEDVALUE('SpaceTemperature',$,IFCTHERMODYNAMICTEMPERATUREMEASURE(26.),IFCTHERMODYNAMICTEMPERATUREMEASURE(18.),$,IFCTHERMODYNAMICTEMPERATUREMEASURE(20.));
#41=IFCPROPERTYSET('000000001008000000000K',$,'Pset_SpaceThermalRequirements',$,(#40));
#42=IFCRELDEFINESBYPROPERTIES('000000001008000000000L',$,$,$,(#27),#41);
#43=IFCWALLTYPE('000000001008000000000M',$,'Au\X\DFenwand Typ S',$,$,(#44),$,$,$,.STANDARD.);
#44=IFCPROPERTYSET('000000001008000000000N',$,'Pset_WallCommon',$,(#45));
#45=IFCPROPERTYSINGLEVALUE('IsExternal',$,IFCBOOLEAN(.T.),$);
#46=IFCMATERIAL('Putz',$,$);
#47=IFCMATERIALPROPERTIES('Pset_MaterialThermal',$,(#48,#49),#46);
#48=IFCPROPERTYSINGLEVALUE('ThermalConductivity',$,IFCTHERMALCONDUCTIVITYMEASURE(0.7),$);
#49=IFCPROPERTYSINGLEVALUE('SpecificHeatCapacity',$,IFCSPECIFICHEATCAPACITYMEASURE(1000.),$);
#50=IFCMATERIALPROPERTIES('Pset_MaterialCommon',$,(#51),#46);
#51=IFCPROPERTYSINGLEVALUE('MassDensity',$,IFCMASSDENSITYMEASURE(1400.),$);
#52=IFCMATERIAL('Mauerwerk',$,$);
#53=IFCMATERIALPROPERTIES('Pset_MaterialThermal',$,(#54,#55),#52);
#54=IFCPROPERTYSINGLEVALUE('ThermalConductivity',$,IFCTHERMALCONDUCTIVITYMEASURE(0.5),$);
#55=IFCPROPERTYSINGLEVALUE('SpecificHeatCapacity',$,IFCSPECIFICHEATCAPACITYMEASURE(1000.),$);
#56=IFCMATERIALPROPERTIES('Pset_MaterialCommon',$,(#57),#52);
#57=IFCPROPERTYSINGLEVALUE('MassDensity',$,IFCMASSDENSITYMEASURE(1200.),$);
#58=IFCMATERIAL('D\X\E4mmung',$,$);
#59=IFCMATERIALPROPERTIES('Pset_MaterialThermal',$,(#60,#61),#58);
#60=IFCPROPERTYSINGLEVALUE('ThermalConductivity',$,IFCTHERMALCONDUCTIVITYMEASURE(0.04),$);
#61=IFCPROPERTYSINGLEVALUE('SpecificHeatCapacity',$,IFCSPECIFICHEATCAPACITYMEASURE(0.),$);
#62=IFCMATERIALPROPERTIES('Pset_MaterialCommon',$,(#63),#58);
#63=IFCPROPERTYSINGLEVALUE('MassDensity',$,IFCMASSDENSITYMEASURE(0.),$);
#64=IFCMATERIAL('Beton',$,$);
#65=IFCMATERIALPROPERTIES('Pset_MaterialThermal',$,(#66,#67),#64);
#66=IFCPROPERTYSINGLEVALUE('ThermalConductivity',$,IFCTHERMALCONDUCTIVITYMEASURE(2.),$);
#67=IFCPROPERTYSINGLEVALUE('SpecificHeatCapacity',$,IFCSPECIFICHEATCAPACITYMEASURE(1000.),$);
#68=IFCMATERIALPROPERTIES('Pset_MaterialCommon',$,(#69),#64);
#69=IFCPROPERTYSINGLEVALUE('MassDensity',$,IFCMASSDENSITYMEASURE(2400.),$);
#70=IFCMATERIALLAYERSET((#71,#72,#73),'Au\X\DFenwand innen zuerst',$);
#71=IFCMATERIALLAYER(#46,15.,$,$,$,$,$);
#72=IFCMATERIALLAYER(#52,240.,$,$,$,$,$);
#73=IFCMATERIALLAYER(#58,100.,$,$,$,$,$);
#74=IFCMATERIALLAYERSET((#75,#76,#77),'Au\X\DFenwand au\X\DFen zuerst',$);
#75=IFCMATERIALLAYER(#58,100.,$,$,$,$,$);
#76=IFCMATERIALLAYER(#52,240.,$,$,$,$,$);
#77=IFCMATERIALLAYER(#46,15.,$,$,$,$,$);
#78=IFCMATERIALLAYERSET((#79,#80),'Dach',$);
#79=IFCMATERIALLAYER(#64,200.,$,$,$,$,$);
#80=IFCMATERIALLAYER(#58,200.,$,$,$,$,$);
#81=IFCMATERIALLAYERSET((#82,#83),'Bodenplatte',$);
#82=IFCMATERIALLAYER(#58,100.,$,$,$,$,$);
#83=IFCMATERIALLAYER(#64,200.,$,$,$,$,$);
#84=IFCWALL('000000001008000000000O',$,'S\X\FCd',$,$,#87,$,$,.STANDARD.);
#85=IFCAXIS2PLACEMENT3D(#86,$,$);
#86=IFCCARTESIANPOINT((0.,0.,0.));
#87=IFCLOCALPLACEMENT(#25,#85);
#88=IFCRELCONTAINEDINSPATIALSTRUCTURE('000000001008000000000P',$,$,$,(#84,#98,#110,#122,#134,#146,#159),#22);
#89=IFCRELDEFINESBYTYPE('000000001008000000000W',$,$,$,(#84,#110,#122,#134),#43);
#90=IFCQUANTITYAREA('GrossSideArea',$,$,25.,$);
#91=IFCELEMENTQUANTITY('000000001008000000000X',$,'BaseQuantities',$,$,(#90));
#92=IFCRELDEFINESBYPROPERTIES('000000001008000000000Y',$,$,$,(#84),#91);
#93=IFCRELSPACEBOUNDARY('000000001008000000000Z',$,'2ndLevel','2a',#27,#84,$,.PHYSICAL.,.EXTERNAL.);
#94=IFCMATERIALLAYERSETUSAGE(#70,.AXIS2.,.NEGATIVE.,0.,$);
#95=IFCRELASSOCIATESMATERIAL('000000001008000000000a',$,$,$,(#84),#94);
#96=IFCOPENINGELEMENT('000000001008000000000b',$,'\X\D6ffnung F-S',$,$,$,$,$,$);
#97=IFCRELVOIDSELEMENT('000000001008000000000c',$,$,$,#84,#96);
#98=IFCWINDOW('000000001008000000000d',$,'F-S',$,$,$,$,$,$,$,$,$,$);
#99=IFCRELFILLSELEMENT('000000001008000000000e',$,$,$,#96,#98);
#100=IFCQUANTITYAREA('Area',$,$,5.,$);
#101=IFCELEMENTQUANTITY('000000001008000000000f',$,'Qto_WindowBaseQuantities',$,$,(#100));
#102=IFCRELDEFINESBYPROPERTIES('000000001008000000000m',$,$,$,(#98),#101);
#103=IFCPROPERTYSET('000000001008000000000n',$,'Pset_WindowCommon',$,(#104,#105));
#104=IFCPROPERTYSINGLEVALUE('IsExternal',$,IFCBOOLEAN(.T.),$);
#105=IFCPROPERTYSINGLEVALUE('ThermalTransmittance',$,IFCTHERMALTRANSMITTANCEMEASURE(1.1),$);
#106=IFCRELDEFINESBYPROPERTIES('000000001008000000000o',$,$,$,(#98),#103);
#107=IFCPROPERTYSET('000000001008000000000p',$,'Pset_DoorWindowGlazingType',$,(#108));
#108=IFCPROPERTYSINGLEVALUE('SolarHeatGainTransmittance',$,IFCNORMALISEDRATIOMEASURE(0.6),$);
#109=IFCRELDEFINESBYPROPERTIES('000000001008000000000q',$,$,$,(#98),#107);
#110=IFCWALL('000000001008000000000r',$,'Ost',$,$,#115,$,$,.STANDARD.);
#111=IFCAXIS2PLACEMENT3D(#112,#113,#114);
#112=IFCCARTESIANPOINT((10000.,0.,0.));
#113=IFCDIRECTION((0.,0.,1.));
#114=IFCDIRECTION((0.,1.,0.));
#115=IFCLOCALPLACEMENT(#25,#111);
#116=IFCQUANTITYAREA('GrossSideArea',$,$,20.,$);
#117=IFCELEMENTQUANTITY('000000001008000000000s',$,'BaseQuantities',$,$,(#116));
#118=IFCRELDEFINESBYPROPERTIES('000000001008000000000t',$,$,$,(#110),#117);
#119=IFCRELSPACEBOUNDARY('000000001008000000000u',$,'2ndLevel','2a',#27,#110,$,.PHYSICAL.,.EXTERNAL.);
#120=IFCMATERIALLAYERSETUSAGE(#74,.AXIS2.,.POSITIVE.,0.,$);
#121=IFCRELASSOCIATESMATERIAL('000000001008000000000v',$,$,$,(#110),#120);
#122=IFCWALL('0000000010080000000010',$,'Nord',$,$,#127,$,$,.STANDARD.);
#123=IFCAXIS2PLACEMENT3D(#124,#125,#126);
#124=IFCCARTESIANPOINT((10000.,8000.,0.));
#125=IFCDIRECTION((0.,0.,1.));
#126=IFCDIRECTION((-1.,0.,0.));
#127=IFCLOCALPLACEMENT(#25,#123);
#128=IFCQUANTITYAREA('GrossSideArea',$,$,25.,$);
#129=IFCELEMENTQUANTITY('0000000010080000000011',$,'BaseQuantities',$,$,(#128));
#130=IFCRELDEFINESBYPROPERTIES('0000000010080000000012',$,$,$,(#122),#129);
#131=IFCRELSPACEBOUNDARY('0000000010080000000013',$,'2ndLevel','2a',#27,#122,$,.PHYSICAL.,.EXTERNAL.);
#132=IFCMATERIALLAYERSETUSAGE(#70,.AXIS2.,.NEGATIVE.,0.,$);
#133=IFCRELASSOCIATESMATERIAL('0000000010080000000014',$,$,$,(#122),#132);
#134=IFCWALL('0000000010080000000015',$,'West',$,$,#139,$,$,.STANDARD.);
#135=IFCAXIS2PLACEMENT3D(#136,#137,#138);
#136=IFCCARTESIANPOINT((0.,8000.,0.));
#137=IFCDIRECTION((0.,0.,1.));
#138=IFCDIRECTION((0.,-1.,0.));
#139=IFCLOCALPLACEMENT(#25,#135);
#140=IFCQUANTITYAREA('GrossSideArea',$,$,20.,$);
#141=IFCELEMENTQUANTITY('0000000010080000000016',$,'BaseQuantities',$,$,(#140));
#142=IFCRELDEFINESBYPROPERTIES('0000000010080000000017',$,$,$,(#134),#141);
#143=IFCRELSPACEBOUNDARY('0000000010080000000018',$,'2ndLevel','2a',#27,#134,$,.PHYSICAL.,.EXTERNAL.);
#144=IFCMATERIALLAYERSETUSAGE(#74,.AXIS2.,.POSITIVE.,0.,$);
#145=IFCRELASSOCIATESMATERIAL('0000000010080000000019',$,$,$,(#134),#144);
#146=IFCSLAB('000000001008000000001G',$,'Dach',$,$,#149,$,$,.ROOF.);
#147=IFCAXIS2PLACEMENT3D(#148,$,$);
#148=IFCCARTESIANPOINT((0.,0.,0.));
#149=IFCLOCALPLACEMENT(#25,#147);
#150=IFCPROPERTYSET('000000001008000000001H',$,'Pset_SlabCommon',$,(#151));
#151=IFCPROPERTYSINGLEVALUE('IsExternal',$,IFCBOOLEAN(.T.),$);
#152=IFCRELDEFINESBYPROPERTIES('000000001008000000001I',$,$,$,(#146),#150);
#153=IFCQUANTITYAREA('GrossArea',$,$,80.,$);
#154=IFCELEMENTQUANTITY('000000001008000000001J',$,'BaseQuantities',$,$,(#153));
#155=IFCRELDEFINESBYPROPERTIES('000000001008000000001K',$,$,$,(#146),#154);
#156=IFCRELSPACEBOUNDARY('000000001008000000001L',$,'2ndLevel','2a',#27,#146,$,.PHYSICAL.,.EXTERNAL.);
#157=IFCMATERIALLAYERSETUSAGE(#78,.AXIS3.,.POSITIVE.,0.,$);
#158=IFCRELASSOCIATESMATERIAL('000000001008000000001M',$,$,$,(#146),#157);
#159=IFCSLAB('000000001008000000001N',$,'Bodenplatte',$,$,#162,$,$,.BASESLAB.);
#160=IFCAXIS2PLACEMENT3D(#161,$,$);
#161=IFCCARTESIANPOINT((0.,0.,0.));
#162=IFCLOCALPLACEMENT(#25,#160);
#163=IFCPROPERTYSET('000000001008000000001O',$,'Pset_SlabCommon',$,(#164));
#164=IFCPROPERTYSINGLEVALUE('IsExternal',$,IFCBOOLEAN(.T.),$);
#165=IFCRELDEFINESBYPROPERTIES('000000001008000000001P',$,$,$,(#159),#163);
#166=IFCQUANTITYAREA('GrossArea',$,$,80.,$);
#167=IFCELEMENTQUANTITY('000000001008000000001W',$,'BaseQuantities',$,$,(#166));
#168=IFCRELDEFINESBYPROPERTIES('000000001008000000001X',$,$,$,(#159),#167);
#169=IFCRELSPACEBOUNDARY('000000001008000000001Y',$,'2ndLevel','2a',#27,#159,$,.PHYSICAL.,.EXTERNAL_EARTH.);
#170=IFCMATERIALLAYERSETUSAGE(#81,.AXIS3.,.POSITIVE.,0.,$);
#171=IFCRELASSOCIATESMATERIAL('000000001008000000001Z',$,$,$,(#159),#170);
ENDSEC;
END-ISO-10303-21;
